G04 #@! TF.GenerationSoftware,KiCad,Pcbnew,5.0.2+dfsg1-1~bpo9+1*
G04 #@! TF.CreationDate,2019-10-08T18:25:51+02:00*
G04 #@! TF.ProjectId,OV9281,4f563932-3831-42e6-9b69-6361645f7063,rev?*
G04 #@! TF.SameCoordinates,Original*
G04 #@! TF.FileFunction,Copper,L3,Inr*
G04 #@! TF.FilePolarity,Positive*
%FSLAX46Y46*%
G04 Gerber Fmt 4.6, Leading zero omitted, Abs format (unit mm)*
G04 Created by KiCad (PCBNEW 5.0.2+dfsg1-1~bpo9+1) date Tue 08 Oct 2019 06:25:51 PM CEST*
%MOMM*%
%LPD*%
G01*
G04 APERTURE LIST*
G04 #@! TA.AperFunction,ViaPad*
%ADD10C,0.550000*%
G04 #@! TD*
G04 #@! TA.AperFunction,Conductor*
%ADD11C,0.254000*%
G04 #@! TD*
G04 APERTURE END LIST*
D10*
G04 #@! TO.N,GND*
X184028000Y-123590000D03*
X108802500Y-106680000D03*
X111252500Y-102386000D03*
X120402500Y-104536000D03*
X112002500Y-119010990D03*
X128102500Y-114036000D03*
X158252500Y-121136000D03*
X156752500Y-121136000D03*
X155252500Y-121136000D03*
X153752500Y-121086000D03*
X149252500Y-120986000D03*
X147752500Y-120986000D03*
X179128000Y-121240000D03*
X169552500Y-109986000D03*
X180202500Y-105136000D03*
X178352504Y-121686000D03*
X187852500Y-121586000D03*
X185752500Y-104986006D03*
X119302500Y-123136000D03*
X112452502Y-107986000D03*
X108250000Y-123750000D03*
X111150000Y-121550000D03*
X111150000Y-123850000D03*
G04 #@! TO.N,+3V3*
X119102500Y-120986000D03*
X126802500Y-123436000D03*
X138052500Y-120736000D03*
X138652500Y-121436000D03*
X190152500Y-122586000D03*
X168052500Y-122385998D03*
X186552500Y-121636000D03*
X128652500Y-108386000D03*
X114152500Y-122936000D03*
X121552500Y-102086000D03*
X128652500Y-101786000D03*
X114900000Y-102100000D03*
X187880000Y-123990000D03*
G04 #@! TO.N,+2V8*
X126652500Y-115186000D03*
X173102511Y-112185989D03*
G04 #@! TO.N,+1V8*
X112752500Y-106034577D03*
X110102500Y-104736000D03*
X189752500Y-105036000D03*
X168352500Y-105436000D03*
X187602494Y-106286000D03*
X126852500Y-108186000D03*
X117252500Y-108086000D03*
X130152500Y-108286000D03*
X189752492Y-104086000D03*
X102786456Y-108319956D03*
X172525000Y-105750000D03*
G04 #@! TO.N,+1V2*
X175502500Y-118936000D03*
X170752498Y-118186000D03*
X103684998Y-117750000D03*
X101470000Y-117750000D03*
X172280000Y-118760000D03*
X177120000Y-119000000D03*
G04 #@! TO.N,/CAM_L_D1_P*
X166300000Y-106610000D03*
G04 #@! TO.N,/CAM_L_D1_N*
X166300000Y-107400000D03*
G04 #@! TO.N,/CAM_R_D1_N*
X121160000Y-104950000D03*
G04 #@! TO.N,/CAM_R_D1_P*
X121170000Y-105670000D03*
G04 #@! TO.N,/CAM_L_CLK_P*
X161380000Y-108630000D03*
G04 #@! TO.N,/CAM_L_CLK_N*
X160860000Y-108090000D03*
G04 #@! TO.N,/CAM_R_CLK_N*
X114580000Y-107470000D03*
G04 #@! TO.N,/CAM_R_CLK_P*
X115160000Y-107960000D03*
G04 #@! TO.N,/CAM_L_D0_N*
X162710000Y-108860000D03*
G04 #@! TO.N,/CAM_L_D0_P*
X163230000Y-109400000D03*
G04 #@! TO.N,/CAM_R_D0_N*
X113990000Y-106270000D03*
G04 #@! TO.N,/CAM_R_D0_P*
X114570000Y-106760000D03*
G04 #@! TO.N,/CAM_RST*
X146252500Y-117286000D03*
X165460000Y-111780000D03*
G04 #@! TO.N,/M1_DOVDD*
X183140000Y-110020000D03*
X185619792Y-109207262D03*
X179652500Y-111324036D03*
X187268724Y-115785996D03*
X179937771Y-115671263D03*
X175452500Y-110586000D03*
X178300000Y-109800000D03*
X178462497Y-110572533D03*
X177775528Y-111199472D03*
G04 #@! TO.N,/M1_AGND*
X187752500Y-111586000D03*
X188190000Y-113320000D03*
X191727500Y-109986000D03*
X191727500Y-111786000D03*
X191727500Y-113586000D03*
X191727500Y-115286000D03*
X191727500Y-117086000D03*
X182152500Y-119186000D03*
X188652500Y-109186000D03*
X186187490Y-119180009D03*
X175525000Y-114175000D03*
X177925000Y-111950000D03*
X175425000Y-109875000D03*
G04 #@! TO.N,/M1_DVDD*
X181460000Y-114020000D03*
X188921426Y-113033159D03*
X185102283Y-109972274D03*
X187544926Y-109679941D03*
X185052500Y-116386002D03*
X181177496Y-116561004D03*
X181700000Y-110100000D03*
X178900000Y-118430000D03*
X189430000Y-115300000D03*
G04 #@! TO.N,/M1_AVDD*
X187952500Y-110886000D03*
X179150000Y-114025000D03*
X189352512Y-116668488D03*
X180452500Y-113286000D03*
X177050000Y-114750021D03*
G04 #@! TO.N,/M1_DGND*
X186752500Y-116486000D03*
X182071338Y-116583081D03*
X183552500Y-114885998D03*
X181252500Y-115185994D03*
X181152504Y-110986000D03*
X182752500Y-116586000D03*
X182447084Y-109938373D03*
X177890000Y-116486000D03*
X177030000Y-109840000D03*
G04 #@! TO.N,/M1_VN3*
X188702520Y-111286000D03*
G04 #@! TO.N,/M1_VH*
X189502500Y-111386000D03*
G04 #@! TO.N,/M1_CAM_SCL_1V8*
X180452500Y-114686000D03*
X175600000Y-115300000D03*
X125700000Y-111000000D03*
G04 #@! TO.N,/M1_VN2*
X189652500Y-112536004D03*
G04 #@! TO.N,/M1_SID*
X180948720Y-112112280D03*
X178500000Y-111600000D03*
X173124998Y-109725000D03*
G04 #@! TO.N,/M1_MCLK*
X180927508Y-110061008D03*
G04 #@! TO.N,/M1_PVDD*
X186052500Y-116486000D03*
G04 #@! TO.N,/M1_VN1*
X188780210Y-114396532D03*
G04 #@! TO.N,/M1_VSYNC_1V8*
X170752500Y-112786000D03*
X173080000Y-113220000D03*
G04 #@! TO.N,/CAM_NRST_1V8*
X125052500Y-103886000D03*
X185077495Y-114986000D03*
G04 #@! TO.N,/M1_CAM_SDA_1V8*
X184052500Y-116285998D03*
X169000000Y-118900004D03*
X125750000Y-110250000D03*
X132575000Y-116450000D03*
X132275000Y-119075000D03*
G04 #@! TO.N,/M2_DOVDD*
X113262500Y-109866000D03*
X115992500Y-109996000D03*
X110052500Y-112686000D03*
X108352500Y-111686000D03*
X110852500Y-114686000D03*
X117703594Y-115540094D03*
X110652500Y-109286000D03*
X102675000Y-110450000D03*
X103675000Y-111700000D03*
X105000000Y-110250000D03*
G04 #@! TO.N,/M2_AGND*
X122652500Y-118386000D03*
X118482500Y-113276000D03*
X123052500Y-109885992D03*
X118052500Y-109386000D03*
X119352500Y-109586000D03*
X120350000Y-109360000D03*
X103025000Y-113050000D03*
X121800000Y-111800000D03*
X121750000Y-113325000D03*
X121700000Y-114950000D03*
X102275000Y-113850000D03*
G04 #@! TO.N,/M2_DVDD*
X111462500Y-114020000D03*
X119872500Y-113286000D03*
X111652500Y-109786000D03*
X118752500Y-110286000D03*
X115170706Y-109267794D03*
X111952500Y-114986000D03*
X115046165Y-115835990D03*
X110210000Y-119440000D03*
X120520000Y-115490000D03*
G04 #@! TO.N,/M2_AVDD*
X111442500Y-113290000D03*
X119126000Y-116486002D03*
X117652500Y-110586008D03*
X106950000Y-115425000D03*
X108050000Y-116450000D03*
G04 #@! TO.N,/M2_DGND*
X112471751Y-109936215D03*
X114952500Y-118986000D03*
X113552500Y-118986000D03*
X106952496Y-117886000D03*
X108352500Y-118086000D03*
X117052500Y-118486000D03*
X117062500Y-115986000D03*
X111456145Y-110782590D03*
X106750000Y-108900000D03*
X113152500Y-114986000D03*
X109175010Y-109591632D03*
X108075000Y-110000000D03*
G04 #@! TO.N,/M2_VN3*
X118952500Y-111386000D03*
G04 #@! TO.N,/M2_VH*
X119713500Y-111325000D03*
G04 #@! TO.N,/M2_CAM_SCL_1V8*
X111002500Y-115686000D03*
G04 #@! TO.N,/M2_VN2*
X119500000Y-112325000D03*
G04 #@! TO.N,/M2_SID*
X103725000Y-108150000D03*
G04 #@! TO.N,/M2_MCLK_M*
X110562500Y-111476000D03*
X177352500Y-101186000D03*
X178352500Y-105286000D03*
G04 #@! TO.N,/M2_PVDD*
X116281200Y-116155991D03*
G04 #@! TO.N,/M2_VN1*
X119042500Y-113926000D03*
G04 #@! TO.N,/M2_VSYNC_1V8*
X127252500Y-104186000D03*
X124430000Y-114510000D03*
G04 #@! TO.N,/M2_CAM_SDA_1V8*
X114152498Y-115835990D03*
G04 #@! TO.N,/M2_VSYNC*
X145752500Y-116486000D03*
X163070000Y-113279998D03*
G04 #@! TO.N,/M1_VSYNC*
X164065647Y-113709265D03*
X146749671Y-118180010D03*
G04 #@! TO.N,/CAM_RST_1V8*
X170710000Y-111000000D03*
X170900000Y-109500000D03*
G04 #@! TO.N,/M1_VSYNC_1V8_M*
X175280000Y-113420000D03*
X125240000Y-116790000D03*
G04 #@! TO.N,/M2_VSYNC_1V8_M*
X115652500Y-114886000D03*
X119452500Y-114886000D03*
X122020000Y-117380000D03*
G04 #@! TD*
D11*
G04 #@! TO.N,+3V3*
G36*
X199648000Y-124648000D02*
X100352000Y-124648000D01*
X100352000Y-121646533D01*
X101223000Y-121646533D01*
X101223000Y-122353467D01*
X101493533Y-123006589D01*
X101993411Y-123506467D01*
X102646533Y-123777000D01*
X103353467Y-123777000D01*
X103683730Y-123640200D01*
X107698000Y-123640200D01*
X107698000Y-123859800D01*
X107782037Y-124062683D01*
X107937317Y-124217963D01*
X108140200Y-124302000D01*
X108359800Y-124302000D01*
X108562683Y-124217963D01*
X108717963Y-124062683D01*
X108802000Y-123859800D01*
X108802000Y-123740200D01*
X110598000Y-123740200D01*
X110598000Y-123959800D01*
X110682037Y-124162683D01*
X110837317Y-124317963D01*
X111040200Y-124402000D01*
X111259800Y-124402000D01*
X111462683Y-124317963D01*
X111617963Y-124162683D01*
X111702000Y-123959800D01*
X111702000Y-123740200D01*
X111617963Y-123537317D01*
X111462683Y-123382037D01*
X111259800Y-123298000D01*
X111040200Y-123298000D01*
X110837317Y-123382037D01*
X110682037Y-123537317D01*
X110598000Y-123740200D01*
X108802000Y-123740200D01*
X108802000Y-123640200D01*
X108717963Y-123437317D01*
X108562683Y-123282037D01*
X108359800Y-123198000D01*
X108140200Y-123198000D01*
X107937317Y-123282037D01*
X107782037Y-123437317D01*
X107698000Y-123640200D01*
X103683730Y-123640200D01*
X104006589Y-123506467D01*
X104486856Y-123026200D01*
X118750500Y-123026200D01*
X118750500Y-123245800D01*
X118834537Y-123448683D01*
X118989817Y-123603963D01*
X119192700Y-123688000D01*
X119412300Y-123688000D01*
X119615183Y-123603963D01*
X119738946Y-123480200D01*
X183476000Y-123480200D01*
X183476000Y-123699800D01*
X183560037Y-123902683D01*
X183715317Y-124057963D01*
X183918200Y-124142000D01*
X184137800Y-124142000D01*
X184340683Y-124057963D01*
X184495963Y-123902683D01*
X184580000Y-123699800D01*
X184580000Y-123480200D01*
X184495963Y-123277317D01*
X184340683Y-123122037D01*
X184137800Y-123038000D01*
X183918200Y-123038000D01*
X183715317Y-123122037D01*
X183560037Y-123277317D01*
X183476000Y-123480200D01*
X119738946Y-123480200D01*
X119770463Y-123448683D01*
X119854500Y-123245800D01*
X119854500Y-123026200D01*
X119770463Y-122823317D01*
X119615183Y-122668037D01*
X119412300Y-122584000D01*
X119192700Y-122584000D01*
X118989817Y-122668037D01*
X118834537Y-122823317D01*
X118750500Y-123026200D01*
X104486856Y-123026200D01*
X104506467Y-123006589D01*
X104777000Y-122353467D01*
X104777000Y-121646533D01*
X104691534Y-121440200D01*
X110598000Y-121440200D01*
X110598000Y-121659800D01*
X110682037Y-121862683D01*
X110837317Y-122017963D01*
X111040200Y-122102000D01*
X111259800Y-122102000D01*
X111462683Y-122017963D01*
X111617963Y-121862683D01*
X111702000Y-121659800D01*
X111702000Y-121440200D01*
X111617963Y-121237317D01*
X111462683Y-121082037D01*
X111259800Y-120998000D01*
X111040200Y-120998000D01*
X110837317Y-121082037D01*
X110682037Y-121237317D01*
X110598000Y-121440200D01*
X104691534Y-121440200D01*
X104506467Y-120993411D01*
X104389256Y-120876200D01*
X147200500Y-120876200D01*
X147200500Y-121095800D01*
X147284537Y-121298683D01*
X147439817Y-121453963D01*
X147642700Y-121538000D01*
X147862300Y-121538000D01*
X148065183Y-121453963D01*
X148220463Y-121298683D01*
X148304500Y-121095800D01*
X148304500Y-120876200D01*
X148700500Y-120876200D01*
X148700500Y-121095800D01*
X148784537Y-121298683D01*
X148939817Y-121453963D01*
X149142700Y-121538000D01*
X149362300Y-121538000D01*
X149565183Y-121453963D01*
X149720463Y-121298683D01*
X149804500Y-121095800D01*
X149804500Y-120976200D01*
X153200500Y-120976200D01*
X153200500Y-121195800D01*
X153284537Y-121398683D01*
X153439817Y-121553963D01*
X153642700Y-121638000D01*
X153862300Y-121638000D01*
X154065183Y-121553963D01*
X154220463Y-121398683D01*
X154304500Y-121195800D01*
X154304500Y-121026200D01*
X154700500Y-121026200D01*
X154700500Y-121245800D01*
X154784537Y-121448683D01*
X154939817Y-121603963D01*
X155142700Y-121688000D01*
X155362300Y-121688000D01*
X155565183Y-121603963D01*
X155720463Y-121448683D01*
X155804500Y-121245800D01*
X155804500Y-121026200D01*
X156200500Y-121026200D01*
X156200500Y-121245800D01*
X156284537Y-121448683D01*
X156439817Y-121603963D01*
X156642700Y-121688000D01*
X156862300Y-121688000D01*
X157065183Y-121603963D01*
X157220463Y-121448683D01*
X157304500Y-121245800D01*
X157304500Y-121026200D01*
X157700500Y-121026200D01*
X157700500Y-121245800D01*
X157784537Y-121448683D01*
X157939817Y-121603963D01*
X158142700Y-121688000D01*
X158362300Y-121688000D01*
X158565183Y-121603963D01*
X158592946Y-121576200D01*
X177800504Y-121576200D01*
X177800504Y-121795800D01*
X177884541Y-121998683D01*
X178039821Y-122153963D01*
X178242704Y-122238000D01*
X178462304Y-122238000D01*
X178665187Y-122153963D01*
X178820467Y-121998683D01*
X178904504Y-121795800D01*
X178904504Y-121744906D01*
X179018200Y-121792000D01*
X179237800Y-121792000D01*
X179440683Y-121707963D01*
X179595963Y-121552683D01*
X179627643Y-121476200D01*
X187300500Y-121476200D01*
X187300500Y-121695800D01*
X187384537Y-121898683D01*
X187539817Y-122053963D01*
X187742700Y-122138000D01*
X187962300Y-122138000D01*
X188165183Y-122053963D01*
X188320463Y-121898683D01*
X188404500Y-121695800D01*
X188404500Y-121646533D01*
X195223000Y-121646533D01*
X195223000Y-122353467D01*
X195493533Y-123006589D01*
X195993411Y-123506467D01*
X196646533Y-123777000D01*
X197353467Y-123777000D01*
X198006589Y-123506467D01*
X198506467Y-123006589D01*
X198777000Y-122353467D01*
X198777000Y-121646533D01*
X198506467Y-120993411D01*
X198006589Y-120493533D01*
X197353467Y-120223000D01*
X196646533Y-120223000D01*
X195993411Y-120493533D01*
X195493533Y-120993411D01*
X195223000Y-121646533D01*
X188404500Y-121646533D01*
X188404500Y-121476200D01*
X188320463Y-121273317D01*
X188165183Y-121118037D01*
X187962300Y-121034000D01*
X187742700Y-121034000D01*
X187539817Y-121118037D01*
X187384537Y-121273317D01*
X187300500Y-121476200D01*
X179627643Y-121476200D01*
X179680000Y-121349800D01*
X179680000Y-121130200D01*
X179595963Y-120927317D01*
X179440683Y-120772037D01*
X179237800Y-120688000D01*
X179018200Y-120688000D01*
X178815317Y-120772037D01*
X178660037Y-120927317D01*
X178576000Y-121130200D01*
X178576000Y-121181094D01*
X178462304Y-121134000D01*
X178242704Y-121134000D01*
X178039821Y-121218037D01*
X177884541Y-121373317D01*
X177800504Y-121576200D01*
X158592946Y-121576200D01*
X158720463Y-121448683D01*
X158804500Y-121245800D01*
X158804500Y-121026200D01*
X158720463Y-120823317D01*
X158565183Y-120668037D01*
X158362300Y-120584000D01*
X158142700Y-120584000D01*
X157939817Y-120668037D01*
X157784537Y-120823317D01*
X157700500Y-121026200D01*
X157304500Y-121026200D01*
X157220463Y-120823317D01*
X157065183Y-120668037D01*
X156862300Y-120584000D01*
X156642700Y-120584000D01*
X156439817Y-120668037D01*
X156284537Y-120823317D01*
X156200500Y-121026200D01*
X155804500Y-121026200D01*
X155720463Y-120823317D01*
X155565183Y-120668037D01*
X155362300Y-120584000D01*
X155142700Y-120584000D01*
X154939817Y-120668037D01*
X154784537Y-120823317D01*
X154700500Y-121026200D01*
X154304500Y-121026200D01*
X154304500Y-120976200D01*
X154220463Y-120773317D01*
X154065183Y-120618037D01*
X153862300Y-120534000D01*
X153642700Y-120534000D01*
X153439817Y-120618037D01*
X153284537Y-120773317D01*
X153200500Y-120976200D01*
X149804500Y-120976200D01*
X149804500Y-120876200D01*
X149720463Y-120673317D01*
X149565183Y-120518037D01*
X149362300Y-120434000D01*
X149142700Y-120434000D01*
X148939817Y-120518037D01*
X148784537Y-120673317D01*
X148700500Y-120876200D01*
X148304500Y-120876200D01*
X148220463Y-120673317D01*
X148065183Y-120518037D01*
X147862300Y-120434000D01*
X147642700Y-120434000D01*
X147439817Y-120518037D01*
X147284537Y-120673317D01*
X147200500Y-120876200D01*
X104389256Y-120876200D01*
X104006589Y-120493533D01*
X103353467Y-120223000D01*
X102646533Y-120223000D01*
X101993411Y-120493533D01*
X101493533Y-120993411D01*
X101223000Y-121646533D01*
X100352000Y-121646533D01*
X100352000Y-120213000D01*
X193052500Y-120213000D01*
X193101101Y-120203333D01*
X193142303Y-120175803D01*
X193169833Y-120134601D01*
X193179500Y-120086000D01*
X193179500Y-102786000D01*
X193169833Y-102737399D01*
X193142303Y-102696197D01*
X193101101Y-102668667D01*
X193052500Y-102659000D01*
X111736900Y-102659000D01*
X111742064Y-102646533D01*
X195223000Y-102646533D01*
X195223000Y-103353467D01*
X195493533Y-104006589D01*
X195993411Y-104506467D01*
X196646533Y-104777000D01*
X197353467Y-104777000D01*
X198006589Y-104506467D01*
X198506467Y-104006589D01*
X198777000Y-103353467D01*
X198777000Y-102646533D01*
X198506467Y-101993411D01*
X198006589Y-101493533D01*
X197353467Y-101223000D01*
X196646533Y-101223000D01*
X195993411Y-101493533D01*
X195493533Y-101993411D01*
X195223000Y-102646533D01*
X111742064Y-102646533D01*
X111804500Y-102495800D01*
X111804500Y-102276200D01*
X111720463Y-102073317D01*
X111565183Y-101918037D01*
X111362300Y-101834000D01*
X111142700Y-101834000D01*
X110939817Y-101918037D01*
X110784537Y-102073317D01*
X110700500Y-102276200D01*
X110700500Y-102495800D01*
X110768100Y-102659000D01*
X104777000Y-102659000D01*
X104777000Y-102646533D01*
X104506467Y-101993411D01*
X104006589Y-101493533D01*
X103353467Y-101223000D01*
X102646533Y-101223000D01*
X101993411Y-101493533D01*
X101493533Y-101993411D01*
X101223000Y-102646533D01*
X101223000Y-102659000D01*
X100352000Y-102659000D01*
X100352000Y-101076200D01*
X176800500Y-101076200D01*
X176800500Y-101295800D01*
X176884537Y-101498683D01*
X177039817Y-101653963D01*
X177242700Y-101738000D01*
X177462300Y-101738000D01*
X177665183Y-101653963D01*
X177820463Y-101498683D01*
X177904500Y-101295800D01*
X177904500Y-101076200D01*
X177820463Y-100873317D01*
X177665183Y-100718037D01*
X177462300Y-100634000D01*
X177242700Y-100634000D01*
X177039817Y-100718037D01*
X176884537Y-100873317D01*
X176800500Y-101076200D01*
X100352000Y-101076200D01*
X100352000Y-100352000D01*
X199648001Y-100352000D01*
X199648000Y-124648000D01*
X199648000Y-124648000D01*
G37*
X199648000Y-124648000D02*
X100352000Y-124648000D01*
X100352000Y-121646533D01*
X101223000Y-121646533D01*
X101223000Y-122353467D01*
X101493533Y-123006589D01*
X101993411Y-123506467D01*
X102646533Y-123777000D01*
X103353467Y-123777000D01*
X103683730Y-123640200D01*
X107698000Y-123640200D01*
X107698000Y-123859800D01*
X107782037Y-124062683D01*
X107937317Y-124217963D01*
X108140200Y-124302000D01*
X108359800Y-124302000D01*
X108562683Y-124217963D01*
X108717963Y-124062683D01*
X108802000Y-123859800D01*
X108802000Y-123740200D01*
X110598000Y-123740200D01*
X110598000Y-123959800D01*
X110682037Y-124162683D01*
X110837317Y-124317963D01*
X111040200Y-124402000D01*
X111259800Y-124402000D01*
X111462683Y-124317963D01*
X111617963Y-124162683D01*
X111702000Y-123959800D01*
X111702000Y-123740200D01*
X111617963Y-123537317D01*
X111462683Y-123382037D01*
X111259800Y-123298000D01*
X111040200Y-123298000D01*
X110837317Y-123382037D01*
X110682037Y-123537317D01*
X110598000Y-123740200D01*
X108802000Y-123740200D01*
X108802000Y-123640200D01*
X108717963Y-123437317D01*
X108562683Y-123282037D01*
X108359800Y-123198000D01*
X108140200Y-123198000D01*
X107937317Y-123282037D01*
X107782037Y-123437317D01*
X107698000Y-123640200D01*
X103683730Y-123640200D01*
X104006589Y-123506467D01*
X104486856Y-123026200D01*
X118750500Y-123026200D01*
X118750500Y-123245800D01*
X118834537Y-123448683D01*
X118989817Y-123603963D01*
X119192700Y-123688000D01*
X119412300Y-123688000D01*
X119615183Y-123603963D01*
X119738946Y-123480200D01*
X183476000Y-123480200D01*
X183476000Y-123699800D01*
X183560037Y-123902683D01*
X183715317Y-124057963D01*
X183918200Y-124142000D01*
X184137800Y-124142000D01*
X184340683Y-124057963D01*
X184495963Y-123902683D01*
X184580000Y-123699800D01*
X184580000Y-123480200D01*
X184495963Y-123277317D01*
X184340683Y-123122037D01*
X184137800Y-123038000D01*
X183918200Y-123038000D01*
X183715317Y-123122037D01*
X183560037Y-123277317D01*
X183476000Y-123480200D01*
X119738946Y-123480200D01*
X119770463Y-123448683D01*
X119854500Y-123245800D01*
X119854500Y-123026200D01*
X119770463Y-122823317D01*
X119615183Y-122668037D01*
X119412300Y-122584000D01*
X119192700Y-122584000D01*
X118989817Y-122668037D01*
X118834537Y-122823317D01*
X118750500Y-123026200D01*
X104486856Y-123026200D01*
X104506467Y-123006589D01*
X104777000Y-122353467D01*
X104777000Y-121646533D01*
X104691534Y-121440200D01*
X110598000Y-121440200D01*
X110598000Y-121659800D01*
X110682037Y-121862683D01*
X110837317Y-122017963D01*
X111040200Y-122102000D01*
X111259800Y-122102000D01*
X111462683Y-122017963D01*
X111617963Y-121862683D01*
X111702000Y-121659800D01*
X111702000Y-121440200D01*
X111617963Y-121237317D01*
X111462683Y-121082037D01*
X111259800Y-120998000D01*
X111040200Y-120998000D01*
X110837317Y-121082037D01*
X110682037Y-121237317D01*
X110598000Y-121440200D01*
X104691534Y-121440200D01*
X104506467Y-120993411D01*
X104389256Y-120876200D01*
X147200500Y-120876200D01*
X147200500Y-121095800D01*
X147284537Y-121298683D01*
X147439817Y-121453963D01*
X147642700Y-121538000D01*
X147862300Y-121538000D01*
X148065183Y-121453963D01*
X148220463Y-121298683D01*
X148304500Y-121095800D01*
X148304500Y-120876200D01*
X148700500Y-120876200D01*
X148700500Y-121095800D01*
X148784537Y-121298683D01*
X148939817Y-121453963D01*
X149142700Y-121538000D01*
X149362300Y-121538000D01*
X149565183Y-121453963D01*
X149720463Y-121298683D01*
X149804500Y-121095800D01*
X149804500Y-120976200D01*
X153200500Y-120976200D01*
X153200500Y-121195800D01*
X153284537Y-121398683D01*
X153439817Y-121553963D01*
X153642700Y-121638000D01*
X153862300Y-121638000D01*
X154065183Y-121553963D01*
X154220463Y-121398683D01*
X154304500Y-121195800D01*
X154304500Y-121026200D01*
X154700500Y-121026200D01*
X154700500Y-121245800D01*
X154784537Y-121448683D01*
X154939817Y-121603963D01*
X155142700Y-121688000D01*
X155362300Y-121688000D01*
X155565183Y-121603963D01*
X155720463Y-121448683D01*
X155804500Y-121245800D01*
X155804500Y-121026200D01*
X156200500Y-121026200D01*
X156200500Y-121245800D01*
X156284537Y-121448683D01*
X156439817Y-121603963D01*
X156642700Y-121688000D01*
X156862300Y-121688000D01*
X157065183Y-121603963D01*
X157220463Y-121448683D01*
X157304500Y-121245800D01*
X157304500Y-121026200D01*
X157700500Y-121026200D01*
X157700500Y-121245800D01*
X157784537Y-121448683D01*
X157939817Y-121603963D01*
X158142700Y-121688000D01*
X158362300Y-121688000D01*
X158565183Y-121603963D01*
X158592946Y-121576200D01*
X177800504Y-121576200D01*
X177800504Y-121795800D01*
X177884541Y-121998683D01*
X178039821Y-122153963D01*
X178242704Y-122238000D01*
X178462304Y-122238000D01*
X178665187Y-122153963D01*
X178820467Y-121998683D01*
X178904504Y-121795800D01*
X178904504Y-121744906D01*
X179018200Y-121792000D01*
X179237800Y-121792000D01*
X179440683Y-121707963D01*
X179595963Y-121552683D01*
X179627643Y-121476200D01*
X187300500Y-121476200D01*
X187300500Y-121695800D01*
X187384537Y-121898683D01*
X187539817Y-122053963D01*
X187742700Y-122138000D01*
X187962300Y-122138000D01*
X188165183Y-122053963D01*
X188320463Y-121898683D01*
X188404500Y-121695800D01*
X188404500Y-121646533D01*
X195223000Y-121646533D01*
X195223000Y-122353467D01*
X195493533Y-123006589D01*
X195993411Y-123506467D01*
X196646533Y-123777000D01*
X197353467Y-123777000D01*
X198006589Y-123506467D01*
X198506467Y-123006589D01*
X198777000Y-122353467D01*
X198777000Y-121646533D01*
X198506467Y-120993411D01*
X198006589Y-120493533D01*
X197353467Y-120223000D01*
X196646533Y-120223000D01*
X195993411Y-120493533D01*
X195493533Y-120993411D01*
X195223000Y-121646533D01*
X188404500Y-121646533D01*
X188404500Y-121476200D01*
X188320463Y-121273317D01*
X188165183Y-121118037D01*
X187962300Y-121034000D01*
X187742700Y-121034000D01*
X187539817Y-121118037D01*
X187384537Y-121273317D01*
X187300500Y-121476200D01*
X179627643Y-121476200D01*
X179680000Y-121349800D01*
X179680000Y-121130200D01*
X179595963Y-120927317D01*
X179440683Y-120772037D01*
X179237800Y-120688000D01*
X179018200Y-120688000D01*
X178815317Y-120772037D01*
X178660037Y-120927317D01*
X178576000Y-121130200D01*
X178576000Y-121181094D01*
X178462304Y-121134000D01*
X178242704Y-121134000D01*
X178039821Y-121218037D01*
X177884541Y-121373317D01*
X177800504Y-121576200D01*
X158592946Y-121576200D01*
X158720463Y-121448683D01*
X158804500Y-121245800D01*
X158804500Y-121026200D01*
X158720463Y-120823317D01*
X158565183Y-120668037D01*
X158362300Y-120584000D01*
X158142700Y-120584000D01*
X157939817Y-120668037D01*
X157784537Y-120823317D01*
X157700500Y-121026200D01*
X157304500Y-121026200D01*
X157220463Y-120823317D01*
X157065183Y-120668037D01*
X156862300Y-120584000D01*
X156642700Y-120584000D01*
X156439817Y-120668037D01*
X156284537Y-120823317D01*
X156200500Y-121026200D01*
X155804500Y-121026200D01*
X155720463Y-120823317D01*
X155565183Y-120668037D01*
X155362300Y-120584000D01*
X155142700Y-120584000D01*
X154939817Y-120668037D01*
X154784537Y-120823317D01*
X154700500Y-121026200D01*
X154304500Y-121026200D01*
X154304500Y-120976200D01*
X154220463Y-120773317D01*
X154065183Y-120618037D01*
X153862300Y-120534000D01*
X153642700Y-120534000D01*
X153439817Y-120618037D01*
X153284537Y-120773317D01*
X153200500Y-120976200D01*
X149804500Y-120976200D01*
X149804500Y-120876200D01*
X149720463Y-120673317D01*
X149565183Y-120518037D01*
X149362300Y-120434000D01*
X149142700Y-120434000D01*
X148939817Y-120518037D01*
X148784537Y-120673317D01*
X148700500Y-120876200D01*
X148304500Y-120876200D01*
X148220463Y-120673317D01*
X148065183Y-120518037D01*
X147862300Y-120434000D01*
X147642700Y-120434000D01*
X147439817Y-120518037D01*
X147284537Y-120673317D01*
X147200500Y-120876200D01*
X104389256Y-120876200D01*
X104006589Y-120493533D01*
X103353467Y-120223000D01*
X102646533Y-120223000D01*
X101993411Y-120493533D01*
X101493533Y-120993411D01*
X101223000Y-121646533D01*
X100352000Y-121646533D01*
X100352000Y-120213000D01*
X193052500Y-120213000D01*
X193101101Y-120203333D01*
X193142303Y-120175803D01*
X193169833Y-120134601D01*
X193179500Y-120086000D01*
X193179500Y-102786000D01*
X193169833Y-102737399D01*
X193142303Y-102696197D01*
X193101101Y-102668667D01*
X193052500Y-102659000D01*
X111736900Y-102659000D01*
X111742064Y-102646533D01*
X195223000Y-102646533D01*
X195223000Y-103353467D01*
X195493533Y-104006589D01*
X195993411Y-104506467D01*
X196646533Y-104777000D01*
X197353467Y-104777000D01*
X198006589Y-104506467D01*
X198506467Y-104006589D01*
X198777000Y-103353467D01*
X198777000Y-102646533D01*
X198506467Y-101993411D01*
X198006589Y-101493533D01*
X197353467Y-101223000D01*
X196646533Y-101223000D01*
X195993411Y-101493533D01*
X195493533Y-101993411D01*
X195223000Y-102646533D01*
X111742064Y-102646533D01*
X111804500Y-102495800D01*
X111804500Y-102276200D01*
X111720463Y-102073317D01*
X111565183Y-101918037D01*
X111362300Y-101834000D01*
X111142700Y-101834000D01*
X110939817Y-101918037D01*
X110784537Y-102073317D01*
X110700500Y-102276200D01*
X110700500Y-102495800D01*
X110768100Y-102659000D01*
X104777000Y-102659000D01*
X104777000Y-102646533D01*
X104506467Y-101993411D01*
X104006589Y-101493533D01*
X103353467Y-101223000D01*
X102646533Y-101223000D01*
X101993411Y-101493533D01*
X101493533Y-101993411D01*
X101223000Y-102646533D01*
X101223000Y-102659000D01*
X100352000Y-102659000D01*
X100352000Y-101076200D01*
X176800500Y-101076200D01*
X176800500Y-101295800D01*
X176884537Y-101498683D01*
X177039817Y-101653963D01*
X177242700Y-101738000D01*
X177462300Y-101738000D01*
X177665183Y-101653963D01*
X177820463Y-101498683D01*
X177904500Y-101295800D01*
X177904500Y-101076200D01*
X177820463Y-100873317D01*
X177665183Y-100718037D01*
X177462300Y-100634000D01*
X177242700Y-100634000D01*
X177039817Y-100718037D01*
X176884537Y-100873317D01*
X176800500Y-101076200D01*
X100352000Y-101076200D01*
X100352000Y-100352000D01*
X199648001Y-100352000D01*
X199648000Y-124648000D01*
G04 #@! TO.N,+1V8*
G36*
X101223000Y-103353467D02*
X101493533Y-104006589D01*
X101993411Y-104506467D01*
X102646533Y-104777000D01*
X103353467Y-104777000D01*
X104006589Y-104506467D01*
X104086856Y-104426200D01*
X119850500Y-104426200D01*
X119850500Y-104645800D01*
X119934537Y-104848683D01*
X120089817Y-105003963D01*
X120292700Y-105088000D01*
X120512300Y-105088000D01*
X120608000Y-105048360D01*
X120608000Y-105059800D01*
X120692037Y-105262683D01*
X120744354Y-105315000D01*
X120702037Y-105357317D01*
X120618000Y-105560200D01*
X120618000Y-105779800D01*
X120702037Y-105982683D01*
X120857317Y-106137963D01*
X121060200Y-106222000D01*
X121279800Y-106222000D01*
X121482683Y-106137963D01*
X121637963Y-105982683D01*
X121722000Y-105779800D01*
X121722000Y-105560200D01*
X121637963Y-105357317D01*
X121585646Y-105305000D01*
X121627963Y-105262683D01*
X121663785Y-105176200D01*
X177800500Y-105176200D01*
X177800500Y-105395800D01*
X177884537Y-105598683D01*
X178039817Y-105753963D01*
X178242700Y-105838000D01*
X178462300Y-105838000D01*
X178665183Y-105753963D01*
X178820463Y-105598683D01*
X178904500Y-105395800D01*
X178904500Y-105176200D01*
X178842368Y-105026200D01*
X179650500Y-105026200D01*
X179650500Y-105245800D01*
X179734537Y-105448683D01*
X179889817Y-105603963D01*
X180092700Y-105688000D01*
X180312300Y-105688000D01*
X180515183Y-105603963D01*
X180670463Y-105448683D01*
X180754500Y-105245800D01*
X180754500Y-105026200D01*
X180692371Y-104876206D01*
X185200500Y-104876206D01*
X185200500Y-105095806D01*
X185284537Y-105298689D01*
X185439817Y-105453969D01*
X185642700Y-105538006D01*
X185862300Y-105538006D01*
X186065183Y-105453969D01*
X186220463Y-105298689D01*
X186304500Y-105095806D01*
X186304500Y-104876206D01*
X186220463Y-104673323D01*
X186065183Y-104518043D01*
X185862300Y-104434006D01*
X185642700Y-104434006D01*
X185439817Y-104518043D01*
X185284537Y-104673323D01*
X185200500Y-104876206D01*
X180692371Y-104876206D01*
X180670463Y-104823317D01*
X180515183Y-104668037D01*
X180312300Y-104584000D01*
X180092700Y-104584000D01*
X179889817Y-104668037D01*
X179734537Y-104823317D01*
X179650500Y-105026200D01*
X178842368Y-105026200D01*
X178820463Y-104973317D01*
X178665183Y-104818037D01*
X178462300Y-104734000D01*
X178242700Y-104734000D01*
X178039817Y-104818037D01*
X177884537Y-104973317D01*
X177800500Y-105176200D01*
X121663785Y-105176200D01*
X121712000Y-105059800D01*
X121712000Y-104840200D01*
X121627963Y-104637317D01*
X121472683Y-104482037D01*
X121269800Y-104398000D01*
X121050200Y-104398000D01*
X120954500Y-104437640D01*
X120954500Y-104426200D01*
X120870463Y-104223317D01*
X120715183Y-104068037D01*
X120512300Y-103984000D01*
X120292700Y-103984000D01*
X120089817Y-104068037D01*
X119934537Y-104223317D01*
X119850500Y-104426200D01*
X104086856Y-104426200D01*
X104506467Y-104006589D01*
X104601897Y-103776200D01*
X124500500Y-103776200D01*
X124500500Y-103995800D01*
X124584537Y-104198683D01*
X124739817Y-104353963D01*
X124942700Y-104438000D01*
X125162300Y-104438000D01*
X125365183Y-104353963D01*
X125520463Y-104198683D01*
X125571197Y-104076200D01*
X126700500Y-104076200D01*
X126700500Y-104295800D01*
X126784537Y-104498683D01*
X126939817Y-104653963D01*
X127142700Y-104738000D01*
X127362300Y-104738000D01*
X127565183Y-104653963D01*
X127720463Y-104498683D01*
X127804500Y-104295800D01*
X127804500Y-104076200D01*
X127720463Y-103873317D01*
X127565183Y-103718037D01*
X127362300Y-103634000D01*
X127142700Y-103634000D01*
X126939817Y-103718037D01*
X126784537Y-103873317D01*
X126700500Y-104076200D01*
X125571197Y-104076200D01*
X125604500Y-103995800D01*
X125604500Y-103776200D01*
X125520463Y-103573317D01*
X125365183Y-103418037D01*
X125162300Y-103334000D01*
X124942700Y-103334000D01*
X124739817Y-103418037D01*
X124584537Y-103573317D01*
X124500500Y-103776200D01*
X104601897Y-103776200D01*
X104777000Y-103353467D01*
X104777000Y-103213000D01*
X192625500Y-103213000D01*
X192625500Y-108459000D01*
X163089646Y-108459000D01*
X163022683Y-108392037D01*
X162819800Y-108308000D01*
X162600200Y-108308000D01*
X162397317Y-108392037D01*
X162330354Y-108459000D01*
X161906650Y-108459000D01*
X161847963Y-108317317D01*
X161692683Y-108162037D01*
X161489800Y-108078000D01*
X161412000Y-108078000D01*
X161412000Y-107980200D01*
X161327963Y-107777317D01*
X161172683Y-107622037D01*
X160969800Y-107538000D01*
X160750200Y-107538000D01*
X160547317Y-107622037D01*
X160392037Y-107777317D01*
X160308000Y-107980200D01*
X160308000Y-108199800D01*
X160392037Y-108402683D01*
X160448354Y-108459000D01*
X129204500Y-108459000D01*
X129204500Y-108276200D01*
X129120463Y-108073317D01*
X128965183Y-107918037D01*
X128762300Y-107834000D01*
X128542700Y-107834000D01*
X128339817Y-107918037D01*
X128184537Y-108073317D01*
X128100500Y-108276200D01*
X128100500Y-108459000D01*
X115397753Y-108459000D01*
X115472683Y-108427963D01*
X115627963Y-108272683D01*
X115712000Y-108069800D01*
X115712000Y-107850200D01*
X115627963Y-107647317D01*
X115472683Y-107492037D01*
X115269800Y-107408000D01*
X115132000Y-107408000D01*
X115132000Y-107360200D01*
X115047963Y-107157317D01*
X115000646Y-107110000D01*
X115037963Y-107072683D01*
X115122000Y-106869800D01*
X115122000Y-106650200D01*
X115059868Y-106500200D01*
X165748000Y-106500200D01*
X165748000Y-106719800D01*
X165832037Y-106922683D01*
X165914354Y-107005000D01*
X165832037Y-107087317D01*
X165748000Y-107290200D01*
X165748000Y-107509800D01*
X165832037Y-107712683D01*
X165987317Y-107867963D01*
X166190200Y-107952000D01*
X166409800Y-107952000D01*
X166612683Y-107867963D01*
X166767963Y-107712683D01*
X166852000Y-107509800D01*
X166852000Y-107290200D01*
X166767963Y-107087317D01*
X166685646Y-107005000D01*
X166767963Y-106922683D01*
X166852000Y-106719800D01*
X166852000Y-106500200D01*
X166767963Y-106297317D01*
X166612683Y-106142037D01*
X166409800Y-106058000D01*
X166190200Y-106058000D01*
X165987317Y-106142037D01*
X165832037Y-106297317D01*
X165748000Y-106500200D01*
X115059868Y-106500200D01*
X115037963Y-106447317D01*
X114882683Y-106292037D01*
X114679800Y-106208000D01*
X114542000Y-106208000D01*
X114542000Y-106160200D01*
X114457963Y-105957317D01*
X114302683Y-105802037D01*
X114099800Y-105718000D01*
X113880200Y-105718000D01*
X113677317Y-105802037D01*
X113522037Y-105957317D01*
X113438000Y-106160200D01*
X113438000Y-106379800D01*
X113522037Y-106582683D01*
X113677317Y-106737963D01*
X113880200Y-106822000D01*
X114018000Y-106822000D01*
X114018000Y-106869800D01*
X114102037Y-107072683D01*
X114149354Y-107120000D01*
X114112037Y-107157317D01*
X114028000Y-107360200D01*
X114028000Y-107579800D01*
X114112037Y-107782683D01*
X114267317Y-107937963D01*
X114470200Y-108022000D01*
X114608000Y-108022000D01*
X114608000Y-108069800D01*
X114692037Y-108272683D01*
X114847317Y-108427963D01*
X114922247Y-108459000D01*
X112753025Y-108459000D01*
X112765185Y-108453963D01*
X112920465Y-108298683D01*
X113004502Y-108095800D01*
X113004502Y-107876200D01*
X112920465Y-107673317D01*
X112765185Y-107518037D01*
X112562302Y-107434000D01*
X112342702Y-107434000D01*
X112139819Y-107518037D01*
X111984539Y-107673317D01*
X111900502Y-107876200D01*
X111900502Y-108095800D01*
X111984539Y-108298683D01*
X112139819Y-108453963D01*
X112151979Y-108459000D01*
X107089646Y-108459000D01*
X107062683Y-108432037D01*
X106859800Y-108348000D01*
X106640200Y-108348000D01*
X106437317Y-108432037D01*
X106410354Y-108459000D01*
X104194489Y-108459000D01*
X104277000Y-108259800D01*
X104277000Y-108040200D01*
X104192963Y-107837317D01*
X104037683Y-107682037D01*
X103834800Y-107598000D01*
X103615200Y-107598000D01*
X103412317Y-107682037D01*
X103257037Y-107837317D01*
X103173000Y-108040200D01*
X103173000Y-108259800D01*
X103255511Y-108459000D01*
X100352000Y-108459000D01*
X100352000Y-106570200D01*
X108250500Y-106570200D01*
X108250500Y-106789800D01*
X108334537Y-106992683D01*
X108489817Y-107147963D01*
X108692700Y-107232000D01*
X108912300Y-107232000D01*
X109115183Y-107147963D01*
X109270463Y-106992683D01*
X109354500Y-106789800D01*
X109354500Y-106570200D01*
X109270463Y-106367317D01*
X109115183Y-106212037D01*
X108912300Y-106128000D01*
X108692700Y-106128000D01*
X108489817Y-106212037D01*
X108334537Y-106367317D01*
X108250500Y-106570200D01*
X100352000Y-106570200D01*
X100352000Y-103213000D01*
X101223000Y-103213000D01*
X101223000Y-103353467D01*
X101223000Y-103353467D01*
G37*
X101223000Y-103353467D02*
X101493533Y-104006589D01*
X101993411Y-104506467D01*
X102646533Y-104777000D01*
X103353467Y-104777000D01*
X104006589Y-104506467D01*
X104086856Y-104426200D01*
X119850500Y-104426200D01*
X119850500Y-104645800D01*
X119934537Y-104848683D01*
X120089817Y-105003963D01*
X120292700Y-105088000D01*
X120512300Y-105088000D01*
X120608000Y-105048360D01*
X120608000Y-105059800D01*
X120692037Y-105262683D01*
X120744354Y-105315000D01*
X120702037Y-105357317D01*
X120618000Y-105560200D01*
X120618000Y-105779800D01*
X120702037Y-105982683D01*
X120857317Y-106137963D01*
X121060200Y-106222000D01*
X121279800Y-106222000D01*
X121482683Y-106137963D01*
X121637963Y-105982683D01*
X121722000Y-105779800D01*
X121722000Y-105560200D01*
X121637963Y-105357317D01*
X121585646Y-105305000D01*
X121627963Y-105262683D01*
X121663785Y-105176200D01*
X177800500Y-105176200D01*
X177800500Y-105395800D01*
X177884537Y-105598683D01*
X178039817Y-105753963D01*
X178242700Y-105838000D01*
X178462300Y-105838000D01*
X178665183Y-105753963D01*
X178820463Y-105598683D01*
X178904500Y-105395800D01*
X178904500Y-105176200D01*
X178842368Y-105026200D01*
X179650500Y-105026200D01*
X179650500Y-105245800D01*
X179734537Y-105448683D01*
X179889817Y-105603963D01*
X180092700Y-105688000D01*
X180312300Y-105688000D01*
X180515183Y-105603963D01*
X180670463Y-105448683D01*
X180754500Y-105245800D01*
X180754500Y-105026200D01*
X180692371Y-104876206D01*
X185200500Y-104876206D01*
X185200500Y-105095806D01*
X185284537Y-105298689D01*
X185439817Y-105453969D01*
X185642700Y-105538006D01*
X185862300Y-105538006D01*
X186065183Y-105453969D01*
X186220463Y-105298689D01*
X186304500Y-105095806D01*
X186304500Y-104876206D01*
X186220463Y-104673323D01*
X186065183Y-104518043D01*
X185862300Y-104434006D01*
X185642700Y-104434006D01*
X185439817Y-104518043D01*
X185284537Y-104673323D01*
X185200500Y-104876206D01*
X180692371Y-104876206D01*
X180670463Y-104823317D01*
X180515183Y-104668037D01*
X180312300Y-104584000D01*
X180092700Y-104584000D01*
X179889817Y-104668037D01*
X179734537Y-104823317D01*
X179650500Y-105026200D01*
X178842368Y-105026200D01*
X178820463Y-104973317D01*
X178665183Y-104818037D01*
X178462300Y-104734000D01*
X178242700Y-104734000D01*
X178039817Y-104818037D01*
X177884537Y-104973317D01*
X177800500Y-105176200D01*
X121663785Y-105176200D01*
X121712000Y-105059800D01*
X121712000Y-104840200D01*
X121627963Y-104637317D01*
X121472683Y-104482037D01*
X121269800Y-104398000D01*
X121050200Y-104398000D01*
X120954500Y-104437640D01*
X120954500Y-104426200D01*
X120870463Y-104223317D01*
X120715183Y-104068037D01*
X120512300Y-103984000D01*
X120292700Y-103984000D01*
X120089817Y-104068037D01*
X119934537Y-104223317D01*
X119850500Y-104426200D01*
X104086856Y-104426200D01*
X104506467Y-104006589D01*
X104601897Y-103776200D01*
X124500500Y-103776200D01*
X124500500Y-103995800D01*
X124584537Y-104198683D01*
X124739817Y-104353963D01*
X124942700Y-104438000D01*
X125162300Y-104438000D01*
X125365183Y-104353963D01*
X125520463Y-104198683D01*
X125571197Y-104076200D01*
X126700500Y-104076200D01*
X126700500Y-104295800D01*
X126784537Y-104498683D01*
X126939817Y-104653963D01*
X127142700Y-104738000D01*
X127362300Y-104738000D01*
X127565183Y-104653963D01*
X127720463Y-104498683D01*
X127804500Y-104295800D01*
X127804500Y-104076200D01*
X127720463Y-103873317D01*
X127565183Y-103718037D01*
X127362300Y-103634000D01*
X127142700Y-103634000D01*
X126939817Y-103718037D01*
X126784537Y-103873317D01*
X126700500Y-104076200D01*
X125571197Y-104076200D01*
X125604500Y-103995800D01*
X125604500Y-103776200D01*
X125520463Y-103573317D01*
X125365183Y-103418037D01*
X125162300Y-103334000D01*
X124942700Y-103334000D01*
X124739817Y-103418037D01*
X124584537Y-103573317D01*
X124500500Y-103776200D01*
X104601897Y-103776200D01*
X104777000Y-103353467D01*
X104777000Y-103213000D01*
X192625500Y-103213000D01*
X192625500Y-108459000D01*
X163089646Y-108459000D01*
X163022683Y-108392037D01*
X162819800Y-108308000D01*
X162600200Y-108308000D01*
X162397317Y-108392037D01*
X162330354Y-108459000D01*
X161906650Y-108459000D01*
X161847963Y-108317317D01*
X161692683Y-108162037D01*
X161489800Y-108078000D01*
X161412000Y-108078000D01*
X161412000Y-107980200D01*
X161327963Y-107777317D01*
X161172683Y-107622037D01*
X160969800Y-107538000D01*
X160750200Y-107538000D01*
X160547317Y-107622037D01*
X160392037Y-107777317D01*
X160308000Y-107980200D01*
X160308000Y-108199800D01*
X160392037Y-108402683D01*
X160448354Y-108459000D01*
X129204500Y-108459000D01*
X129204500Y-108276200D01*
X129120463Y-108073317D01*
X128965183Y-107918037D01*
X128762300Y-107834000D01*
X128542700Y-107834000D01*
X128339817Y-107918037D01*
X128184537Y-108073317D01*
X128100500Y-108276200D01*
X128100500Y-108459000D01*
X115397753Y-108459000D01*
X115472683Y-108427963D01*
X115627963Y-108272683D01*
X115712000Y-108069800D01*
X115712000Y-107850200D01*
X115627963Y-107647317D01*
X115472683Y-107492037D01*
X115269800Y-107408000D01*
X115132000Y-107408000D01*
X115132000Y-107360200D01*
X115047963Y-107157317D01*
X115000646Y-107110000D01*
X115037963Y-107072683D01*
X115122000Y-106869800D01*
X115122000Y-106650200D01*
X115059868Y-106500200D01*
X165748000Y-106500200D01*
X165748000Y-106719800D01*
X165832037Y-106922683D01*
X165914354Y-107005000D01*
X165832037Y-107087317D01*
X165748000Y-107290200D01*
X165748000Y-107509800D01*
X165832037Y-107712683D01*
X165987317Y-107867963D01*
X166190200Y-107952000D01*
X166409800Y-107952000D01*
X166612683Y-107867963D01*
X166767963Y-107712683D01*
X166852000Y-107509800D01*
X166852000Y-107290200D01*
X166767963Y-107087317D01*
X166685646Y-107005000D01*
X166767963Y-106922683D01*
X166852000Y-106719800D01*
X166852000Y-106500200D01*
X166767963Y-106297317D01*
X166612683Y-106142037D01*
X166409800Y-106058000D01*
X166190200Y-106058000D01*
X165987317Y-106142037D01*
X165832037Y-106297317D01*
X165748000Y-106500200D01*
X115059868Y-106500200D01*
X115037963Y-106447317D01*
X114882683Y-106292037D01*
X114679800Y-106208000D01*
X114542000Y-106208000D01*
X114542000Y-106160200D01*
X114457963Y-105957317D01*
X114302683Y-105802037D01*
X114099800Y-105718000D01*
X113880200Y-105718000D01*
X113677317Y-105802037D01*
X113522037Y-105957317D01*
X113438000Y-106160200D01*
X113438000Y-106379800D01*
X113522037Y-106582683D01*
X113677317Y-106737963D01*
X113880200Y-106822000D01*
X114018000Y-106822000D01*
X114018000Y-106869800D01*
X114102037Y-107072683D01*
X114149354Y-107120000D01*
X114112037Y-107157317D01*
X114028000Y-107360200D01*
X114028000Y-107579800D01*
X114112037Y-107782683D01*
X114267317Y-107937963D01*
X114470200Y-108022000D01*
X114608000Y-108022000D01*
X114608000Y-108069800D01*
X114692037Y-108272683D01*
X114847317Y-108427963D01*
X114922247Y-108459000D01*
X112753025Y-108459000D01*
X112765185Y-108453963D01*
X112920465Y-108298683D01*
X113004502Y-108095800D01*
X113004502Y-107876200D01*
X112920465Y-107673317D01*
X112765185Y-107518037D01*
X112562302Y-107434000D01*
X112342702Y-107434000D01*
X112139819Y-107518037D01*
X111984539Y-107673317D01*
X111900502Y-107876200D01*
X111900502Y-108095800D01*
X111984539Y-108298683D01*
X112139819Y-108453963D01*
X112151979Y-108459000D01*
X107089646Y-108459000D01*
X107062683Y-108432037D01*
X106859800Y-108348000D01*
X106640200Y-108348000D01*
X106437317Y-108432037D01*
X106410354Y-108459000D01*
X104194489Y-108459000D01*
X104277000Y-108259800D01*
X104277000Y-108040200D01*
X104192963Y-107837317D01*
X104037683Y-107682037D01*
X103834800Y-107598000D01*
X103615200Y-107598000D01*
X103412317Y-107682037D01*
X103257037Y-107837317D01*
X103173000Y-108040200D01*
X103173000Y-108259800D01*
X103255511Y-108459000D01*
X100352000Y-108459000D01*
X100352000Y-106570200D01*
X108250500Y-106570200D01*
X108250500Y-106789800D01*
X108334537Y-106992683D01*
X108489817Y-107147963D01*
X108692700Y-107232000D01*
X108912300Y-107232000D01*
X109115183Y-107147963D01*
X109270463Y-106992683D01*
X109354500Y-106789800D01*
X109354500Y-106570200D01*
X109270463Y-106367317D01*
X109115183Y-106212037D01*
X108912300Y-106128000D01*
X108692700Y-106128000D01*
X108489817Y-106212037D01*
X108334537Y-106367317D01*
X108250500Y-106570200D01*
X100352000Y-106570200D01*
X100352000Y-103213000D01*
X101223000Y-103213000D01*
X101223000Y-103353467D01*
G04 #@! TO.N,+2V8*
G36*
X161057847Y-109088493D02*
X161067317Y-109097963D01*
X161270200Y-109182000D01*
X161489800Y-109182000D01*
X161692683Y-109097963D01*
X161700911Y-109089735D01*
X162208084Y-109090714D01*
X162242037Y-109172683D01*
X162397317Y-109327963D01*
X162600200Y-109412000D01*
X162678000Y-109412000D01*
X162678000Y-109509800D01*
X162762037Y-109712683D01*
X162917317Y-109867963D01*
X163120200Y-109952000D01*
X163339800Y-109952000D01*
X163522797Y-109876200D01*
X169000500Y-109876200D01*
X169000500Y-110095800D01*
X169084537Y-110298683D01*
X169239817Y-110453963D01*
X169442700Y-110538000D01*
X169662300Y-110538000D01*
X169865183Y-110453963D01*
X170020463Y-110298683D01*
X170104500Y-110095800D01*
X170104500Y-109876200D01*
X170020463Y-109673317D01*
X169865183Y-109518037D01*
X169662300Y-109434000D01*
X169442700Y-109434000D01*
X169239817Y-109518037D01*
X169084537Y-109673317D01*
X169000500Y-109876200D01*
X163522797Y-109876200D01*
X163542683Y-109867963D01*
X163697963Y-109712683D01*
X163782000Y-109509800D01*
X163782000Y-109290200D01*
X163700563Y-109093595D01*
X170512608Y-109106746D01*
X170432037Y-109187317D01*
X170348000Y-109390200D01*
X170348000Y-109609800D01*
X170432037Y-109812683D01*
X170587317Y-109967963D01*
X170790200Y-110052000D01*
X171009800Y-110052000D01*
X171212683Y-109967963D01*
X171367963Y-109812683D01*
X171452000Y-109609800D01*
X171452000Y-109390200D01*
X171367963Y-109187317D01*
X171288890Y-109108244D01*
X173625500Y-109112755D01*
X173625500Y-109490873D01*
X173592961Y-109412317D01*
X173437681Y-109257037D01*
X173234798Y-109173000D01*
X173015198Y-109173000D01*
X172812315Y-109257037D01*
X172657035Y-109412317D01*
X172572998Y-109615200D01*
X172572998Y-109834800D01*
X172657035Y-110037683D01*
X172812315Y-110192963D01*
X173015198Y-110277000D01*
X173234798Y-110277000D01*
X173437681Y-110192963D01*
X173592961Y-110037683D01*
X173625500Y-109959127D01*
X173625500Y-113094508D01*
X173547963Y-112907317D01*
X173392683Y-112752037D01*
X173189800Y-112668000D01*
X172970200Y-112668000D01*
X172767317Y-112752037D01*
X172612037Y-112907317D01*
X172528000Y-113110200D01*
X172528000Y-113329800D01*
X172612037Y-113532683D01*
X172767317Y-113687963D01*
X172970200Y-113772000D01*
X173189800Y-113772000D01*
X173392683Y-113687963D01*
X173547963Y-113532683D01*
X173625500Y-113345492D01*
X173625500Y-116859000D01*
X146606146Y-116859000D01*
X146565183Y-116818037D01*
X146362300Y-116734000D01*
X146247256Y-116734000D01*
X146304500Y-116595800D01*
X146304500Y-116376200D01*
X146220463Y-116173317D01*
X146065183Y-116018037D01*
X145862300Y-115934000D01*
X145642700Y-115934000D01*
X145439817Y-116018037D01*
X145284537Y-116173317D01*
X145200500Y-116376200D01*
X145200500Y-116595800D01*
X145284537Y-116798683D01*
X145344854Y-116859000D01*
X132946646Y-116859000D01*
X133042963Y-116762683D01*
X133127000Y-116559800D01*
X133127000Y-116340200D01*
X133042963Y-116137317D01*
X132887683Y-115982037D01*
X132684800Y-115898000D01*
X132465200Y-115898000D01*
X132262317Y-115982037D01*
X132107037Y-116137317D01*
X132023000Y-116340200D01*
X132023000Y-116559800D01*
X132107037Y-116762683D01*
X132203354Y-116859000D01*
X125792000Y-116859000D01*
X125792000Y-116680200D01*
X125707963Y-116477317D01*
X125552683Y-116322037D01*
X125349800Y-116238000D01*
X125130200Y-116238000D01*
X124927317Y-116322037D01*
X124772037Y-116477317D01*
X124688000Y-116680200D01*
X124688000Y-116859000D01*
X122204641Y-116859000D01*
X122129800Y-116828000D01*
X122079500Y-116828000D01*
X122079500Y-115351146D01*
X122167963Y-115262683D01*
X122252000Y-115059800D01*
X122252000Y-114840200D01*
X122167963Y-114637317D01*
X122079500Y-114548854D01*
X122079500Y-114400200D01*
X123878000Y-114400200D01*
X123878000Y-114619800D01*
X123962037Y-114822683D01*
X124117317Y-114977963D01*
X124320200Y-115062000D01*
X124539800Y-115062000D01*
X124742683Y-114977963D01*
X124897963Y-114822683D01*
X124982000Y-114619800D01*
X124982000Y-114400200D01*
X124897963Y-114197317D01*
X124742683Y-114042037D01*
X124539800Y-113958000D01*
X124320200Y-113958000D01*
X124117317Y-114042037D01*
X123962037Y-114197317D01*
X123878000Y-114400200D01*
X122079500Y-114400200D01*
X122079500Y-113926200D01*
X127550500Y-113926200D01*
X127550500Y-114145800D01*
X127634537Y-114348683D01*
X127789817Y-114503963D01*
X127992700Y-114588000D01*
X128212300Y-114588000D01*
X128415183Y-114503963D01*
X128570463Y-114348683D01*
X128654500Y-114145800D01*
X128654500Y-113926200D01*
X128570463Y-113723317D01*
X128415183Y-113568037D01*
X128212300Y-113484000D01*
X127992700Y-113484000D01*
X127789817Y-113568037D01*
X127634537Y-113723317D01*
X127550500Y-113926200D01*
X122079500Y-113926200D01*
X122079500Y-113776146D01*
X122217963Y-113637683D01*
X122302000Y-113434800D01*
X122302000Y-113215200D01*
X122283360Y-113170198D01*
X162518000Y-113170198D01*
X162518000Y-113389798D01*
X162602037Y-113592681D01*
X162757317Y-113747961D01*
X162960200Y-113831998D01*
X163179800Y-113831998D01*
X163382683Y-113747961D01*
X163513647Y-113616997D01*
X163513647Y-113819065D01*
X163597684Y-114021948D01*
X163752964Y-114177228D01*
X163955847Y-114261265D01*
X164175447Y-114261265D01*
X164378330Y-114177228D01*
X164533610Y-114021948D01*
X164617647Y-113819065D01*
X164617647Y-113599465D01*
X164533610Y-113396582D01*
X164378330Y-113241302D01*
X164175447Y-113157265D01*
X163955847Y-113157265D01*
X163752964Y-113241302D01*
X163622000Y-113372266D01*
X163622000Y-113170198D01*
X163537963Y-112967315D01*
X163382683Y-112812035D01*
X163179800Y-112727998D01*
X162960200Y-112727998D01*
X162757317Y-112812035D01*
X162602037Y-112967315D01*
X162518000Y-113170198D01*
X122283360Y-113170198D01*
X122217963Y-113012317D01*
X122079500Y-112873854D01*
X122079500Y-112676200D01*
X170200500Y-112676200D01*
X170200500Y-112895800D01*
X170284537Y-113098683D01*
X170439817Y-113253963D01*
X170642700Y-113338000D01*
X170862300Y-113338000D01*
X171065183Y-113253963D01*
X171220463Y-113098683D01*
X171304500Y-112895800D01*
X171304500Y-112676200D01*
X171220463Y-112473317D01*
X171065183Y-112318037D01*
X170862300Y-112234000D01*
X170642700Y-112234000D01*
X170439817Y-112318037D01*
X170284537Y-112473317D01*
X170200500Y-112676200D01*
X122079500Y-112676200D01*
X122079500Y-112281708D01*
X122112683Y-112267963D01*
X122267963Y-112112683D01*
X122352000Y-111909800D01*
X122352000Y-111690200D01*
X122343716Y-111670200D01*
X164908000Y-111670200D01*
X164908000Y-111889800D01*
X164992037Y-112092683D01*
X165147317Y-112247963D01*
X165350200Y-112332000D01*
X165569800Y-112332000D01*
X165772683Y-112247963D01*
X165927963Y-112092683D01*
X166012000Y-111889800D01*
X166012000Y-111670200D01*
X165927963Y-111467317D01*
X165772683Y-111312037D01*
X165569800Y-111228000D01*
X165350200Y-111228000D01*
X165147317Y-111312037D01*
X164992037Y-111467317D01*
X164908000Y-111670200D01*
X122343716Y-111670200D01*
X122267963Y-111487317D01*
X122112683Y-111332037D01*
X122079500Y-111318292D01*
X122079500Y-110890200D01*
X125148000Y-110890200D01*
X125148000Y-111109800D01*
X125232037Y-111312683D01*
X125387317Y-111467963D01*
X125590200Y-111552000D01*
X125809800Y-111552000D01*
X126012683Y-111467963D01*
X126167963Y-111312683D01*
X126252000Y-111109800D01*
X126252000Y-110890200D01*
X170158000Y-110890200D01*
X170158000Y-111109800D01*
X170242037Y-111312683D01*
X170397317Y-111467963D01*
X170600200Y-111552000D01*
X170819800Y-111552000D01*
X171022683Y-111467963D01*
X171177963Y-111312683D01*
X171262000Y-111109800D01*
X171262000Y-110890200D01*
X171177963Y-110687317D01*
X171022683Y-110532037D01*
X170819800Y-110448000D01*
X170600200Y-110448000D01*
X170397317Y-110532037D01*
X170242037Y-110687317D01*
X170158000Y-110890200D01*
X126252000Y-110890200D01*
X126167963Y-110687317D01*
X126130646Y-110650000D01*
X126217963Y-110562683D01*
X126302000Y-110359800D01*
X126302000Y-110140200D01*
X126217963Y-109937317D01*
X126062683Y-109782037D01*
X125859800Y-109698000D01*
X125640200Y-109698000D01*
X125437317Y-109782037D01*
X125282037Y-109937317D01*
X125198000Y-110140200D01*
X125198000Y-110359800D01*
X125282037Y-110562683D01*
X125319354Y-110600000D01*
X125232037Y-110687317D01*
X125148000Y-110890200D01*
X122079500Y-110890200D01*
X122079500Y-109776192D01*
X122500500Y-109776192D01*
X122500500Y-109995792D01*
X122584537Y-110198675D01*
X122739817Y-110353955D01*
X122942700Y-110437992D01*
X123162300Y-110437992D01*
X123365183Y-110353955D01*
X123520463Y-110198675D01*
X123604500Y-109995792D01*
X123604500Y-109776192D01*
X123520463Y-109573309D01*
X123365183Y-109418029D01*
X123162300Y-109333992D01*
X122942700Y-109333992D01*
X122739817Y-109418029D01*
X122584537Y-109573309D01*
X122500500Y-109776192D01*
X122079500Y-109776192D01*
X122079500Y-109013246D01*
X161057847Y-109088493D01*
X161057847Y-109088493D01*
G37*
X161057847Y-109088493D02*
X161067317Y-109097963D01*
X161270200Y-109182000D01*
X161489800Y-109182000D01*
X161692683Y-109097963D01*
X161700911Y-109089735D01*
X162208084Y-109090714D01*
X162242037Y-109172683D01*
X162397317Y-109327963D01*
X162600200Y-109412000D01*
X162678000Y-109412000D01*
X162678000Y-109509800D01*
X162762037Y-109712683D01*
X162917317Y-109867963D01*
X163120200Y-109952000D01*
X163339800Y-109952000D01*
X163522797Y-109876200D01*
X169000500Y-109876200D01*
X169000500Y-110095800D01*
X169084537Y-110298683D01*
X169239817Y-110453963D01*
X169442700Y-110538000D01*
X169662300Y-110538000D01*
X169865183Y-110453963D01*
X170020463Y-110298683D01*
X170104500Y-110095800D01*
X170104500Y-109876200D01*
X170020463Y-109673317D01*
X169865183Y-109518037D01*
X169662300Y-109434000D01*
X169442700Y-109434000D01*
X169239817Y-109518037D01*
X169084537Y-109673317D01*
X169000500Y-109876200D01*
X163522797Y-109876200D01*
X163542683Y-109867963D01*
X163697963Y-109712683D01*
X163782000Y-109509800D01*
X163782000Y-109290200D01*
X163700563Y-109093595D01*
X170512608Y-109106746D01*
X170432037Y-109187317D01*
X170348000Y-109390200D01*
X170348000Y-109609800D01*
X170432037Y-109812683D01*
X170587317Y-109967963D01*
X170790200Y-110052000D01*
X171009800Y-110052000D01*
X171212683Y-109967963D01*
X171367963Y-109812683D01*
X171452000Y-109609800D01*
X171452000Y-109390200D01*
X171367963Y-109187317D01*
X171288890Y-109108244D01*
X173625500Y-109112755D01*
X173625500Y-109490873D01*
X173592961Y-109412317D01*
X173437681Y-109257037D01*
X173234798Y-109173000D01*
X173015198Y-109173000D01*
X172812315Y-109257037D01*
X172657035Y-109412317D01*
X172572998Y-109615200D01*
X172572998Y-109834800D01*
X172657035Y-110037683D01*
X172812315Y-110192963D01*
X173015198Y-110277000D01*
X173234798Y-110277000D01*
X173437681Y-110192963D01*
X173592961Y-110037683D01*
X173625500Y-109959127D01*
X173625500Y-113094508D01*
X173547963Y-112907317D01*
X173392683Y-112752037D01*
X173189800Y-112668000D01*
X172970200Y-112668000D01*
X172767317Y-112752037D01*
X172612037Y-112907317D01*
X172528000Y-113110200D01*
X172528000Y-113329800D01*
X172612037Y-113532683D01*
X172767317Y-113687963D01*
X172970200Y-113772000D01*
X173189800Y-113772000D01*
X173392683Y-113687963D01*
X173547963Y-113532683D01*
X173625500Y-113345492D01*
X173625500Y-116859000D01*
X146606146Y-116859000D01*
X146565183Y-116818037D01*
X146362300Y-116734000D01*
X146247256Y-116734000D01*
X146304500Y-116595800D01*
X146304500Y-116376200D01*
X146220463Y-116173317D01*
X146065183Y-116018037D01*
X145862300Y-115934000D01*
X145642700Y-115934000D01*
X145439817Y-116018037D01*
X145284537Y-116173317D01*
X145200500Y-116376200D01*
X145200500Y-116595800D01*
X145284537Y-116798683D01*
X145344854Y-116859000D01*
X132946646Y-116859000D01*
X133042963Y-116762683D01*
X133127000Y-116559800D01*
X133127000Y-116340200D01*
X133042963Y-116137317D01*
X132887683Y-115982037D01*
X132684800Y-115898000D01*
X132465200Y-115898000D01*
X132262317Y-115982037D01*
X132107037Y-116137317D01*
X132023000Y-116340200D01*
X132023000Y-116559800D01*
X132107037Y-116762683D01*
X132203354Y-116859000D01*
X125792000Y-116859000D01*
X125792000Y-116680200D01*
X125707963Y-116477317D01*
X125552683Y-116322037D01*
X125349800Y-116238000D01*
X125130200Y-116238000D01*
X124927317Y-116322037D01*
X124772037Y-116477317D01*
X124688000Y-116680200D01*
X124688000Y-116859000D01*
X122204641Y-116859000D01*
X122129800Y-116828000D01*
X122079500Y-116828000D01*
X122079500Y-115351146D01*
X122167963Y-115262683D01*
X122252000Y-115059800D01*
X122252000Y-114840200D01*
X122167963Y-114637317D01*
X122079500Y-114548854D01*
X122079500Y-114400200D01*
X123878000Y-114400200D01*
X123878000Y-114619800D01*
X123962037Y-114822683D01*
X124117317Y-114977963D01*
X124320200Y-115062000D01*
X124539800Y-115062000D01*
X124742683Y-114977963D01*
X124897963Y-114822683D01*
X124982000Y-114619800D01*
X124982000Y-114400200D01*
X124897963Y-114197317D01*
X124742683Y-114042037D01*
X124539800Y-113958000D01*
X124320200Y-113958000D01*
X124117317Y-114042037D01*
X123962037Y-114197317D01*
X123878000Y-114400200D01*
X122079500Y-114400200D01*
X122079500Y-113926200D01*
X127550500Y-113926200D01*
X127550500Y-114145800D01*
X127634537Y-114348683D01*
X127789817Y-114503963D01*
X127992700Y-114588000D01*
X128212300Y-114588000D01*
X128415183Y-114503963D01*
X128570463Y-114348683D01*
X128654500Y-114145800D01*
X128654500Y-113926200D01*
X128570463Y-113723317D01*
X128415183Y-113568037D01*
X128212300Y-113484000D01*
X127992700Y-113484000D01*
X127789817Y-113568037D01*
X127634537Y-113723317D01*
X127550500Y-113926200D01*
X122079500Y-113926200D01*
X122079500Y-113776146D01*
X122217963Y-113637683D01*
X122302000Y-113434800D01*
X122302000Y-113215200D01*
X122283360Y-113170198D01*
X162518000Y-113170198D01*
X162518000Y-113389798D01*
X162602037Y-113592681D01*
X162757317Y-113747961D01*
X162960200Y-113831998D01*
X163179800Y-113831998D01*
X163382683Y-113747961D01*
X163513647Y-113616997D01*
X163513647Y-113819065D01*
X163597684Y-114021948D01*
X163752964Y-114177228D01*
X163955847Y-114261265D01*
X164175447Y-114261265D01*
X164378330Y-114177228D01*
X164533610Y-114021948D01*
X164617647Y-113819065D01*
X164617647Y-113599465D01*
X164533610Y-113396582D01*
X164378330Y-113241302D01*
X164175447Y-113157265D01*
X163955847Y-113157265D01*
X163752964Y-113241302D01*
X163622000Y-113372266D01*
X163622000Y-113170198D01*
X163537963Y-112967315D01*
X163382683Y-112812035D01*
X163179800Y-112727998D01*
X162960200Y-112727998D01*
X162757317Y-112812035D01*
X162602037Y-112967315D01*
X162518000Y-113170198D01*
X122283360Y-113170198D01*
X122217963Y-113012317D01*
X122079500Y-112873854D01*
X122079500Y-112676200D01*
X170200500Y-112676200D01*
X170200500Y-112895800D01*
X170284537Y-113098683D01*
X170439817Y-113253963D01*
X170642700Y-113338000D01*
X170862300Y-113338000D01*
X171065183Y-113253963D01*
X171220463Y-113098683D01*
X171304500Y-112895800D01*
X171304500Y-112676200D01*
X171220463Y-112473317D01*
X171065183Y-112318037D01*
X170862300Y-112234000D01*
X170642700Y-112234000D01*
X170439817Y-112318037D01*
X170284537Y-112473317D01*
X170200500Y-112676200D01*
X122079500Y-112676200D01*
X122079500Y-112281708D01*
X122112683Y-112267963D01*
X122267963Y-112112683D01*
X122352000Y-111909800D01*
X122352000Y-111690200D01*
X122343716Y-111670200D01*
X164908000Y-111670200D01*
X164908000Y-111889800D01*
X164992037Y-112092683D01*
X165147317Y-112247963D01*
X165350200Y-112332000D01*
X165569800Y-112332000D01*
X165772683Y-112247963D01*
X165927963Y-112092683D01*
X166012000Y-111889800D01*
X166012000Y-111670200D01*
X165927963Y-111467317D01*
X165772683Y-111312037D01*
X165569800Y-111228000D01*
X165350200Y-111228000D01*
X165147317Y-111312037D01*
X164992037Y-111467317D01*
X164908000Y-111670200D01*
X122343716Y-111670200D01*
X122267963Y-111487317D01*
X122112683Y-111332037D01*
X122079500Y-111318292D01*
X122079500Y-110890200D01*
X125148000Y-110890200D01*
X125148000Y-111109800D01*
X125232037Y-111312683D01*
X125387317Y-111467963D01*
X125590200Y-111552000D01*
X125809800Y-111552000D01*
X126012683Y-111467963D01*
X126167963Y-111312683D01*
X126252000Y-111109800D01*
X126252000Y-110890200D01*
X170158000Y-110890200D01*
X170158000Y-111109800D01*
X170242037Y-111312683D01*
X170397317Y-111467963D01*
X170600200Y-111552000D01*
X170819800Y-111552000D01*
X171022683Y-111467963D01*
X171177963Y-111312683D01*
X171262000Y-111109800D01*
X171262000Y-110890200D01*
X171177963Y-110687317D01*
X171022683Y-110532037D01*
X170819800Y-110448000D01*
X170600200Y-110448000D01*
X170397317Y-110532037D01*
X170242037Y-110687317D01*
X170158000Y-110890200D01*
X126252000Y-110890200D01*
X126167963Y-110687317D01*
X126130646Y-110650000D01*
X126217963Y-110562683D01*
X126302000Y-110359800D01*
X126302000Y-110140200D01*
X126217963Y-109937317D01*
X126062683Y-109782037D01*
X125859800Y-109698000D01*
X125640200Y-109698000D01*
X125437317Y-109782037D01*
X125282037Y-109937317D01*
X125198000Y-110140200D01*
X125198000Y-110359800D01*
X125282037Y-110562683D01*
X125319354Y-110600000D01*
X125232037Y-110687317D01*
X125148000Y-110890200D01*
X122079500Y-110890200D01*
X122079500Y-109776192D01*
X122500500Y-109776192D01*
X122500500Y-109995792D01*
X122584537Y-110198675D01*
X122739817Y-110353955D01*
X122942700Y-110437992D01*
X123162300Y-110437992D01*
X123365183Y-110353955D01*
X123520463Y-110198675D01*
X123604500Y-109995792D01*
X123604500Y-109776192D01*
X123520463Y-109573309D01*
X123365183Y-109418029D01*
X123162300Y-109333992D01*
X122942700Y-109333992D01*
X122739817Y-109418029D01*
X122584537Y-109573309D01*
X122500500Y-109776192D01*
X122079500Y-109776192D01*
X122079500Y-109013246D01*
X161057847Y-109088493D01*
G04 #@! TO.N,+1V2*
G36*
X106639813Y-117418037D02*
X106484533Y-117573317D01*
X106400496Y-117776200D01*
X106400496Y-117995800D01*
X106484533Y-118198683D01*
X106639813Y-118353963D01*
X106842696Y-118438000D01*
X107062296Y-118438000D01*
X107265179Y-118353963D01*
X107420459Y-118198683D01*
X107504496Y-117995800D01*
X107504496Y-117976200D01*
X107800500Y-117976200D01*
X107800500Y-118195800D01*
X107884537Y-118398683D01*
X108039817Y-118553963D01*
X108242700Y-118638000D01*
X108462300Y-118638000D01*
X108665183Y-118553963D01*
X108820463Y-118398683D01*
X108829775Y-118376200D01*
X116500500Y-118376200D01*
X116500500Y-118595800D01*
X116584537Y-118798683D01*
X116739817Y-118953963D01*
X116942700Y-119038000D01*
X117162300Y-119038000D01*
X117338054Y-118965200D01*
X131723000Y-118965200D01*
X131723000Y-119184800D01*
X131807037Y-119387683D01*
X131962317Y-119542963D01*
X132165200Y-119627000D01*
X132384800Y-119627000D01*
X132587683Y-119542963D01*
X132742963Y-119387683D01*
X132827000Y-119184800D01*
X132827000Y-118965200D01*
X132754515Y-118790204D01*
X168448000Y-118790204D01*
X168448000Y-119009804D01*
X168532037Y-119212687D01*
X168687317Y-119367967D01*
X168890200Y-119452004D01*
X169109800Y-119452004D01*
X169312683Y-119367967D01*
X169467963Y-119212687D01*
X169552000Y-119009804D01*
X169552000Y-118790204D01*
X169467963Y-118587321D01*
X169312683Y-118432041D01*
X169109800Y-118348004D01*
X168890200Y-118348004D01*
X168687317Y-118432041D01*
X168532037Y-118587321D01*
X168448000Y-118790204D01*
X132754515Y-118790204D01*
X132742963Y-118762317D01*
X132587683Y-118607037D01*
X132384800Y-118523000D01*
X132165200Y-118523000D01*
X131962317Y-118607037D01*
X131807037Y-118762317D01*
X131723000Y-118965200D01*
X117338054Y-118965200D01*
X117365183Y-118953963D01*
X117520463Y-118798683D01*
X117604500Y-118595800D01*
X117604500Y-118376200D01*
X117563079Y-118276200D01*
X122100500Y-118276200D01*
X122100500Y-118495800D01*
X122184537Y-118698683D01*
X122339817Y-118853963D01*
X122542700Y-118938000D01*
X122762300Y-118938000D01*
X122965183Y-118853963D01*
X123120463Y-118698683D01*
X123204500Y-118495800D01*
X123204500Y-118276200D01*
X123120463Y-118073317D01*
X122965183Y-117918037D01*
X122762300Y-117834000D01*
X122542700Y-117834000D01*
X122339817Y-117918037D01*
X122184537Y-118073317D01*
X122100500Y-118276200D01*
X117563079Y-118276200D01*
X117520463Y-118173317D01*
X117365183Y-118018037D01*
X117162300Y-117934000D01*
X116942700Y-117934000D01*
X116739817Y-118018037D01*
X116584537Y-118173317D01*
X116500500Y-118376200D01*
X108829775Y-118376200D01*
X108904500Y-118195800D01*
X108904500Y-117976200D01*
X108820463Y-117773317D01*
X108665183Y-117618037D01*
X108462300Y-117534000D01*
X108242700Y-117534000D01*
X108039817Y-117618037D01*
X107884537Y-117773317D01*
X107800500Y-117976200D01*
X107504496Y-117976200D01*
X107504496Y-117776200D01*
X107420459Y-117573317D01*
X107265179Y-117418037D01*
X107253019Y-117413000D01*
X121468000Y-117413000D01*
X121468000Y-117489800D01*
X121552037Y-117692683D01*
X121707317Y-117847963D01*
X121910200Y-117932000D01*
X122129800Y-117932000D01*
X122332683Y-117847963D01*
X122487963Y-117692683D01*
X122572000Y-117489800D01*
X122572000Y-117413000D01*
X145707624Y-117413000D01*
X145784537Y-117598683D01*
X145939817Y-117753963D01*
X146142700Y-117838000D01*
X146311035Y-117838000D01*
X146281708Y-117867327D01*
X146197671Y-118070210D01*
X146197671Y-118289810D01*
X146281708Y-118492693D01*
X146436988Y-118647973D01*
X146639871Y-118732010D01*
X146859471Y-118732010D01*
X147062354Y-118647973D01*
X147217634Y-118492693D01*
X147289083Y-118320200D01*
X178348000Y-118320200D01*
X178348000Y-118539800D01*
X178432037Y-118742683D01*
X178587317Y-118897963D01*
X178790200Y-118982000D01*
X179009800Y-118982000D01*
X179212683Y-118897963D01*
X179367963Y-118742683D01*
X179452000Y-118539800D01*
X179452000Y-118320200D01*
X179367963Y-118117317D01*
X179212683Y-117962037D01*
X179009800Y-117878000D01*
X178790200Y-117878000D01*
X178587317Y-117962037D01*
X178432037Y-118117317D01*
X178348000Y-118320200D01*
X147289083Y-118320200D01*
X147301671Y-118289810D01*
X147301671Y-118070210D01*
X147217634Y-117867327D01*
X147062354Y-117712047D01*
X146859471Y-117628010D01*
X146691136Y-117628010D01*
X146720463Y-117598683D01*
X146797376Y-117413000D01*
X191273854Y-117413000D01*
X191414817Y-117553963D01*
X191617700Y-117638000D01*
X191837300Y-117638000D01*
X192040183Y-117553963D01*
X192181146Y-117413000D01*
X192625500Y-117413000D01*
X192625500Y-119659000D01*
X186473549Y-119659000D01*
X186500173Y-119647972D01*
X186655453Y-119492692D01*
X186739490Y-119289809D01*
X186739490Y-119070209D01*
X186655453Y-118867326D01*
X186500173Y-118712046D01*
X186297290Y-118628009D01*
X186077690Y-118628009D01*
X185874807Y-118712046D01*
X185719527Y-118867326D01*
X185635490Y-119070209D01*
X185635490Y-119289809D01*
X185719527Y-119492692D01*
X185874807Y-119647972D01*
X185901431Y-119659000D01*
X182453023Y-119659000D01*
X182465183Y-119653963D01*
X182620463Y-119498683D01*
X182704500Y-119295800D01*
X182704500Y-119076200D01*
X182620463Y-118873317D01*
X182465183Y-118718037D01*
X182262300Y-118634000D01*
X182042700Y-118634000D01*
X181839817Y-118718037D01*
X181684537Y-118873317D01*
X181600500Y-119076200D01*
X181600500Y-119295800D01*
X181684537Y-119498683D01*
X181839817Y-119653963D01*
X181851977Y-119659000D01*
X110716768Y-119659000D01*
X110762000Y-119549800D01*
X110762000Y-119330200D01*
X110677963Y-119127317D01*
X110522683Y-118972037D01*
X110351644Y-118901190D01*
X111450500Y-118901190D01*
X111450500Y-119120790D01*
X111534537Y-119323673D01*
X111689817Y-119478953D01*
X111892700Y-119562990D01*
X112112300Y-119562990D01*
X112315183Y-119478953D01*
X112470463Y-119323673D01*
X112554500Y-119120790D01*
X112554500Y-118901190D01*
X112544149Y-118876200D01*
X113000500Y-118876200D01*
X113000500Y-119095800D01*
X113084537Y-119298683D01*
X113239817Y-119453963D01*
X113442700Y-119538000D01*
X113662300Y-119538000D01*
X113865183Y-119453963D01*
X114020463Y-119298683D01*
X114104500Y-119095800D01*
X114104500Y-118876200D01*
X114400500Y-118876200D01*
X114400500Y-119095800D01*
X114484537Y-119298683D01*
X114639817Y-119453963D01*
X114842700Y-119538000D01*
X115062300Y-119538000D01*
X115265183Y-119453963D01*
X115420463Y-119298683D01*
X115504500Y-119095800D01*
X115504500Y-118876200D01*
X115420463Y-118673317D01*
X115265183Y-118518037D01*
X115062300Y-118434000D01*
X114842700Y-118434000D01*
X114639817Y-118518037D01*
X114484537Y-118673317D01*
X114400500Y-118876200D01*
X114104500Y-118876200D01*
X114020463Y-118673317D01*
X113865183Y-118518037D01*
X113662300Y-118434000D01*
X113442700Y-118434000D01*
X113239817Y-118518037D01*
X113084537Y-118673317D01*
X113000500Y-118876200D01*
X112544149Y-118876200D01*
X112470463Y-118698307D01*
X112315183Y-118543027D01*
X112112300Y-118458990D01*
X111892700Y-118458990D01*
X111689817Y-118543027D01*
X111534537Y-118698307D01*
X111450500Y-118901190D01*
X110351644Y-118901190D01*
X110319800Y-118888000D01*
X110100200Y-118888000D01*
X109897317Y-118972037D01*
X109742037Y-119127317D01*
X109658000Y-119330200D01*
X109658000Y-119549800D01*
X109703232Y-119659000D01*
X100352000Y-119659000D01*
X100352000Y-117413000D01*
X106651973Y-117413000D01*
X106639813Y-117418037D01*
X106639813Y-117418037D01*
G37*
X106639813Y-117418037D02*
X106484533Y-117573317D01*
X106400496Y-117776200D01*
X106400496Y-117995800D01*
X106484533Y-118198683D01*
X106639813Y-118353963D01*
X106842696Y-118438000D01*
X107062296Y-118438000D01*
X107265179Y-118353963D01*
X107420459Y-118198683D01*
X107504496Y-117995800D01*
X107504496Y-117976200D01*
X107800500Y-117976200D01*
X107800500Y-118195800D01*
X107884537Y-118398683D01*
X108039817Y-118553963D01*
X108242700Y-118638000D01*
X108462300Y-118638000D01*
X108665183Y-118553963D01*
X108820463Y-118398683D01*
X108829775Y-118376200D01*
X116500500Y-118376200D01*
X116500500Y-118595800D01*
X116584537Y-118798683D01*
X116739817Y-118953963D01*
X116942700Y-119038000D01*
X117162300Y-119038000D01*
X117338054Y-118965200D01*
X131723000Y-118965200D01*
X131723000Y-119184800D01*
X131807037Y-119387683D01*
X131962317Y-119542963D01*
X132165200Y-119627000D01*
X132384800Y-119627000D01*
X132587683Y-119542963D01*
X132742963Y-119387683D01*
X132827000Y-119184800D01*
X132827000Y-118965200D01*
X132754515Y-118790204D01*
X168448000Y-118790204D01*
X168448000Y-119009804D01*
X168532037Y-119212687D01*
X168687317Y-119367967D01*
X168890200Y-119452004D01*
X169109800Y-119452004D01*
X169312683Y-119367967D01*
X169467963Y-119212687D01*
X169552000Y-119009804D01*
X169552000Y-118790204D01*
X169467963Y-118587321D01*
X169312683Y-118432041D01*
X169109800Y-118348004D01*
X168890200Y-118348004D01*
X168687317Y-118432041D01*
X168532037Y-118587321D01*
X168448000Y-118790204D01*
X132754515Y-118790204D01*
X132742963Y-118762317D01*
X132587683Y-118607037D01*
X132384800Y-118523000D01*
X132165200Y-118523000D01*
X131962317Y-118607037D01*
X131807037Y-118762317D01*
X131723000Y-118965200D01*
X117338054Y-118965200D01*
X117365183Y-118953963D01*
X117520463Y-118798683D01*
X117604500Y-118595800D01*
X117604500Y-118376200D01*
X117563079Y-118276200D01*
X122100500Y-118276200D01*
X122100500Y-118495800D01*
X122184537Y-118698683D01*
X122339817Y-118853963D01*
X122542700Y-118938000D01*
X122762300Y-118938000D01*
X122965183Y-118853963D01*
X123120463Y-118698683D01*
X123204500Y-118495800D01*
X123204500Y-118276200D01*
X123120463Y-118073317D01*
X122965183Y-117918037D01*
X122762300Y-117834000D01*
X122542700Y-117834000D01*
X122339817Y-117918037D01*
X122184537Y-118073317D01*
X122100500Y-118276200D01*
X117563079Y-118276200D01*
X117520463Y-118173317D01*
X117365183Y-118018037D01*
X117162300Y-117934000D01*
X116942700Y-117934000D01*
X116739817Y-118018037D01*
X116584537Y-118173317D01*
X116500500Y-118376200D01*
X108829775Y-118376200D01*
X108904500Y-118195800D01*
X108904500Y-117976200D01*
X108820463Y-117773317D01*
X108665183Y-117618037D01*
X108462300Y-117534000D01*
X108242700Y-117534000D01*
X108039817Y-117618037D01*
X107884537Y-117773317D01*
X107800500Y-117976200D01*
X107504496Y-117976200D01*
X107504496Y-117776200D01*
X107420459Y-117573317D01*
X107265179Y-117418037D01*
X107253019Y-117413000D01*
X121468000Y-117413000D01*
X121468000Y-117489800D01*
X121552037Y-117692683D01*
X121707317Y-117847963D01*
X121910200Y-117932000D01*
X122129800Y-117932000D01*
X122332683Y-117847963D01*
X122487963Y-117692683D01*
X122572000Y-117489800D01*
X122572000Y-117413000D01*
X145707624Y-117413000D01*
X145784537Y-117598683D01*
X145939817Y-117753963D01*
X146142700Y-117838000D01*
X146311035Y-117838000D01*
X146281708Y-117867327D01*
X146197671Y-118070210D01*
X146197671Y-118289810D01*
X146281708Y-118492693D01*
X146436988Y-118647973D01*
X146639871Y-118732010D01*
X146859471Y-118732010D01*
X147062354Y-118647973D01*
X147217634Y-118492693D01*
X147289083Y-118320200D01*
X178348000Y-118320200D01*
X178348000Y-118539800D01*
X178432037Y-118742683D01*
X178587317Y-118897963D01*
X178790200Y-118982000D01*
X179009800Y-118982000D01*
X179212683Y-118897963D01*
X179367963Y-118742683D01*
X179452000Y-118539800D01*
X179452000Y-118320200D01*
X179367963Y-118117317D01*
X179212683Y-117962037D01*
X179009800Y-117878000D01*
X178790200Y-117878000D01*
X178587317Y-117962037D01*
X178432037Y-118117317D01*
X178348000Y-118320200D01*
X147289083Y-118320200D01*
X147301671Y-118289810D01*
X147301671Y-118070210D01*
X147217634Y-117867327D01*
X147062354Y-117712047D01*
X146859471Y-117628010D01*
X146691136Y-117628010D01*
X146720463Y-117598683D01*
X146797376Y-117413000D01*
X191273854Y-117413000D01*
X191414817Y-117553963D01*
X191617700Y-117638000D01*
X191837300Y-117638000D01*
X192040183Y-117553963D01*
X192181146Y-117413000D01*
X192625500Y-117413000D01*
X192625500Y-119659000D01*
X186473549Y-119659000D01*
X186500173Y-119647972D01*
X186655453Y-119492692D01*
X186739490Y-119289809D01*
X186739490Y-119070209D01*
X186655453Y-118867326D01*
X186500173Y-118712046D01*
X186297290Y-118628009D01*
X186077690Y-118628009D01*
X185874807Y-118712046D01*
X185719527Y-118867326D01*
X185635490Y-119070209D01*
X185635490Y-119289809D01*
X185719527Y-119492692D01*
X185874807Y-119647972D01*
X185901431Y-119659000D01*
X182453023Y-119659000D01*
X182465183Y-119653963D01*
X182620463Y-119498683D01*
X182704500Y-119295800D01*
X182704500Y-119076200D01*
X182620463Y-118873317D01*
X182465183Y-118718037D01*
X182262300Y-118634000D01*
X182042700Y-118634000D01*
X181839817Y-118718037D01*
X181684537Y-118873317D01*
X181600500Y-119076200D01*
X181600500Y-119295800D01*
X181684537Y-119498683D01*
X181839817Y-119653963D01*
X181851977Y-119659000D01*
X110716768Y-119659000D01*
X110762000Y-119549800D01*
X110762000Y-119330200D01*
X110677963Y-119127317D01*
X110522683Y-118972037D01*
X110351644Y-118901190D01*
X111450500Y-118901190D01*
X111450500Y-119120790D01*
X111534537Y-119323673D01*
X111689817Y-119478953D01*
X111892700Y-119562990D01*
X112112300Y-119562990D01*
X112315183Y-119478953D01*
X112470463Y-119323673D01*
X112554500Y-119120790D01*
X112554500Y-118901190D01*
X112544149Y-118876200D01*
X113000500Y-118876200D01*
X113000500Y-119095800D01*
X113084537Y-119298683D01*
X113239817Y-119453963D01*
X113442700Y-119538000D01*
X113662300Y-119538000D01*
X113865183Y-119453963D01*
X114020463Y-119298683D01*
X114104500Y-119095800D01*
X114104500Y-118876200D01*
X114400500Y-118876200D01*
X114400500Y-119095800D01*
X114484537Y-119298683D01*
X114639817Y-119453963D01*
X114842700Y-119538000D01*
X115062300Y-119538000D01*
X115265183Y-119453963D01*
X115420463Y-119298683D01*
X115504500Y-119095800D01*
X115504500Y-118876200D01*
X115420463Y-118673317D01*
X115265183Y-118518037D01*
X115062300Y-118434000D01*
X114842700Y-118434000D01*
X114639817Y-118518037D01*
X114484537Y-118673317D01*
X114400500Y-118876200D01*
X114104500Y-118876200D01*
X114020463Y-118673317D01*
X113865183Y-118518037D01*
X113662300Y-118434000D01*
X113442700Y-118434000D01*
X113239817Y-118518037D01*
X113084537Y-118673317D01*
X113000500Y-118876200D01*
X112544149Y-118876200D01*
X112470463Y-118698307D01*
X112315183Y-118543027D01*
X112112300Y-118458990D01*
X111892700Y-118458990D01*
X111689817Y-118543027D01*
X111534537Y-118698307D01*
X111450500Y-118901190D01*
X110351644Y-118901190D01*
X110319800Y-118888000D01*
X110100200Y-118888000D01*
X109897317Y-118972037D01*
X109742037Y-119127317D01*
X109658000Y-119330200D01*
X109658000Y-119549800D01*
X109703232Y-119659000D01*
X100352000Y-119659000D01*
X100352000Y-117413000D01*
X106651973Y-117413000D01*
X106639813Y-117418037D01*
G04 #@! TO.N,/M2_DVDD*
G36*
X117584537Y-109073317D02*
X117500500Y-109276200D01*
X117500500Y-109495800D01*
X117584537Y-109698683D01*
X117739817Y-109853963D01*
X117942700Y-109938000D01*
X118162300Y-109938000D01*
X118365183Y-109853963D01*
X118520463Y-109698683D01*
X118604500Y-109495800D01*
X118604500Y-109276200D01*
X118520463Y-109073317D01*
X118460146Y-109013000D01*
X119916354Y-109013000D01*
X119882037Y-109047317D01*
X119798000Y-109250200D01*
X119798000Y-109250854D01*
X119665183Y-109118037D01*
X119462300Y-109034000D01*
X119242700Y-109034000D01*
X119039817Y-109118037D01*
X118884537Y-109273317D01*
X118800500Y-109476200D01*
X118800500Y-109695800D01*
X118884537Y-109898683D01*
X119039817Y-110053963D01*
X119242700Y-110138000D01*
X119462300Y-110138000D01*
X119665183Y-110053963D01*
X119820463Y-109898683D01*
X119904500Y-109695800D01*
X119904500Y-109695146D01*
X120037317Y-109827963D01*
X120240200Y-109912000D01*
X120459800Y-109912000D01*
X120662683Y-109827963D01*
X120817963Y-109672683D01*
X120902000Y-109469800D01*
X120902000Y-109250200D01*
X120817963Y-109047317D01*
X120783646Y-109013000D01*
X121525500Y-109013000D01*
X121525500Y-111316221D01*
X121487317Y-111332037D01*
X121332037Y-111487317D01*
X121248000Y-111690200D01*
X121248000Y-111909800D01*
X121332037Y-112112683D01*
X121487317Y-112267963D01*
X121525500Y-112283779D01*
X121525500Y-112820510D01*
X121437317Y-112857037D01*
X121282037Y-113012317D01*
X121198000Y-113215200D01*
X121198000Y-113434800D01*
X121282037Y-113637683D01*
X121437317Y-113792963D01*
X121525500Y-113829490D01*
X121525500Y-114424800D01*
X121387317Y-114482037D01*
X121232037Y-114637317D01*
X121148000Y-114840200D01*
X121148000Y-115059800D01*
X121232037Y-115262683D01*
X121387317Y-115417963D01*
X121525500Y-115475200D01*
X121525500Y-116859000D01*
X119533648Y-116859000D01*
X119593963Y-116798685D01*
X119678000Y-116595802D01*
X119678000Y-116376202D01*
X119593963Y-116173319D01*
X119438683Y-116018039D01*
X119235800Y-115934002D01*
X119016200Y-115934002D01*
X118813317Y-116018039D01*
X118658037Y-116173319D01*
X118574000Y-116376202D01*
X118574000Y-116595802D01*
X118658037Y-116798685D01*
X118718352Y-116859000D01*
X111379500Y-116859000D01*
X111379500Y-116089646D01*
X111470463Y-115998683D01*
X111554500Y-115795800D01*
X111554500Y-115726190D01*
X113600498Y-115726190D01*
X113600498Y-115945790D01*
X113684535Y-116148673D01*
X113839815Y-116303953D01*
X114042698Y-116387990D01*
X114262298Y-116387990D01*
X114465181Y-116303953D01*
X114620461Y-116148673D01*
X114662910Y-116046191D01*
X115729200Y-116046191D01*
X115729200Y-116265791D01*
X115813237Y-116468674D01*
X115968517Y-116623954D01*
X116171400Y-116707991D01*
X116391000Y-116707991D01*
X116593883Y-116623954D01*
X116749163Y-116468674D01*
X116754460Y-116455886D01*
X116952700Y-116538000D01*
X117172300Y-116538000D01*
X117375183Y-116453963D01*
X117530463Y-116298683D01*
X117614500Y-116095800D01*
X117614500Y-116092094D01*
X117813394Y-116092094D01*
X118016277Y-116008057D01*
X118171557Y-115852777D01*
X118255594Y-115649894D01*
X118255594Y-115430294D01*
X118171557Y-115227411D01*
X118016277Y-115072131D01*
X117813394Y-114988094D01*
X117593794Y-114988094D01*
X117390911Y-115072131D01*
X117235631Y-115227411D01*
X117151594Y-115430294D01*
X117151594Y-115434000D01*
X116952700Y-115434000D01*
X116749817Y-115518037D01*
X116594537Y-115673317D01*
X116589240Y-115686105D01*
X116391000Y-115603991D01*
X116171400Y-115603991D01*
X115968517Y-115688028D01*
X115813237Y-115843308D01*
X115729200Y-116046191D01*
X114662910Y-116046191D01*
X114704498Y-115945790D01*
X114704498Y-115726190D01*
X114620461Y-115523307D01*
X114465181Y-115368027D01*
X114262298Y-115283990D01*
X114042698Y-115283990D01*
X113839815Y-115368027D01*
X113684535Y-115523307D01*
X113600498Y-115726190D01*
X111554500Y-115726190D01*
X111554500Y-115576200D01*
X111470463Y-115373317D01*
X111379500Y-115282354D01*
X111379500Y-114876200D01*
X112600500Y-114876200D01*
X112600500Y-115095800D01*
X112684537Y-115298683D01*
X112839817Y-115453963D01*
X113042700Y-115538000D01*
X113262300Y-115538000D01*
X113465183Y-115453963D01*
X113620463Y-115298683D01*
X113704500Y-115095800D01*
X113704500Y-114876200D01*
X113663079Y-114776200D01*
X115100500Y-114776200D01*
X115100500Y-114995800D01*
X115184537Y-115198683D01*
X115339817Y-115353963D01*
X115542700Y-115438000D01*
X115762300Y-115438000D01*
X115965183Y-115353963D01*
X116120463Y-115198683D01*
X116204500Y-114995800D01*
X116204500Y-114776200D01*
X116120463Y-114573317D01*
X115965183Y-114418037D01*
X115762300Y-114334000D01*
X115542700Y-114334000D01*
X115339817Y-114418037D01*
X115184537Y-114573317D01*
X115100500Y-114776200D01*
X113663079Y-114776200D01*
X113620463Y-114673317D01*
X113465183Y-114518037D01*
X113262300Y-114434000D01*
X113042700Y-114434000D01*
X112839817Y-114518037D01*
X112684537Y-114673317D01*
X112600500Y-114876200D01*
X111379500Y-114876200D01*
X111379500Y-114856155D01*
X111404500Y-114795800D01*
X111404500Y-114576200D01*
X111379500Y-114515845D01*
X111379500Y-113842000D01*
X111552300Y-113842000D01*
X111755183Y-113757963D01*
X111910463Y-113602683D01*
X111994500Y-113399800D01*
X111994500Y-113180200D01*
X111988702Y-113166200D01*
X117930500Y-113166200D01*
X117930500Y-113385800D01*
X118014537Y-113588683D01*
X118169817Y-113743963D01*
X118372700Y-113828000D01*
X118490500Y-113828000D01*
X118490500Y-114035800D01*
X118574537Y-114238683D01*
X118729817Y-114393963D01*
X118932700Y-114478000D01*
X119079854Y-114478000D01*
X118984537Y-114573317D01*
X118900500Y-114776200D01*
X118900500Y-114995800D01*
X118984537Y-115198683D01*
X119139817Y-115353963D01*
X119342700Y-115438000D01*
X119562300Y-115438000D01*
X119765183Y-115353963D01*
X119920463Y-115198683D01*
X120004500Y-114995800D01*
X120004500Y-114776200D01*
X119920463Y-114573317D01*
X119765183Y-114418037D01*
X119562300Y-114334000D01*
X119415146Y-114334000D01*
X119510463Y-114238683D01*
X119594500Y-114035800D01*
X119594500Y-113816200D01*
X119510463Y-113613317D01*
X119355183Y-113458037D01*
X119152300Y-113374000D01*
X119034500Y-113374000D01*
X119034500Y-113166200D01*
X118950463Y-112963317D01*
X118795183Y-112808037D01*
X118592300Y-112724000D01*
X118372700Y-112724000D01*
X118169817Y-112808037D01*
X118014537Y-112963317D01*
X117930500Y-113166200D01*
X111988702Y-113166200D01*
X111910463Y-112977317D01*
X111755183Y-112822037D01*
X111552300Y-112738000D01*
X111379500Y-112738000D01*
X111379500Y-111334590D01*
X111565945Y-111334590D01*
X111706910Y-111276200D01*
X118400500Y-111276200D01*
X118400500Y-111495800D01*
X118484537Y-111698683D01*
X118639817Y-111853963D01*
X118842700Y-111938000D01*
X119062300Y-111938000D01*
X119137505Y-111906849D01*
X119032037Y-112012317D01*
X118948000Y-112215200D01*
X118948000Y-112434800D01*
X119032037Y-112637683D01*
X119187317Y-112792963D01*
X119390200Y-112877000D01*
X119609800Y-112877000D01*
X119812683Y-112792963D01*
X119967963Y-112637683D01*
X120052000Y-112434800D01*
X120052000Y-112215200D01*
X119967963Y-112012317D01*
X119829909Y-111874263D01*
X120026183Y-111792963D01*
X120181463Y-111637683D01*
X120265500Y-111434800D01*
X120265500Y-111215200D01*
X120181463Y-111012317D01*
X120026183Y-110857037D01*
X119823300Y-110773000D01*
X119603700Y-110773000D01*
X119400817Y-110857037D01*
X119302500Y-110955354D01*
X119265183Y-110918037D01*
X119062300Y-110834000D01*
X118842700Y-110834000D01*
X118639817Y-110918037D01*
X118484537Y-111073317D01*
X118400500Y-111276200D01*
X111706910Y-111276200D01*
X111768828Y-111250553D01*
X111924108Y-111095273D01*
X112008145Y-110892390D01*
X112008145Y-110672790D01*
X111924108Y-110469907D01*
X111768828Y-110314627D01*
X111565945Y-110230590D01*
X111379500Y-110230590D01*
X111379500Y-109826415D01*
X111919751Y-109826415D01*
X111919751Y-110046015D01*
X112003788Y-110248898D01*
X112159068Y-110404178D01*
X112361951Y-110488215D01*
X112581551Y-110488215D01*
X112784434Y-110404178D01*
X112902233Y-110286379D01*
X112949817Y-110333963D01*
X113152700Y-110418000D01*
X113372300Y-110418000D01*
X113575183Y-110333963D01*
X113730463Y-110178683D01*
X113814500Y-109975800D01*
X113814500Y-109886200D01*
X115440500Y-109886200D01*
X115440500Y-110105800D01*
X115524537Y-110308683D01*
X115679817Y-110463963D01*
X115882700Y-110548000D01*
X116102300Y-110548000D01*
X116275620Y-110476208D01*
X117100500Y-110476208D01*
X117100500Y-110695808D01*
X117184537Y-110898691D01*
X117339817Y-111053971D01*
X117542700Y-111138008D01*
X117762300Y-111138008D01*
X117965183Y-111053971D01*
X118120463Y-110898691D01*
X118204500Y-110695808D01*
X118204500Y-110476208D01*
X118120463Y-110273325D01*
X117965183Y-110118045D01*
X117762300Y-110034008D01*
X117542700Y-110034008D01*
X117339817Y-110118045D01*
X117184537Y-110273325D01*
X117100500Y-110476208D01*
X116275620Y-110476208D01*
X116305183Y-110463963D01*
X116460463Y-110308683D01*
X116544500Y-110105800D01*
X116544500Y-109886200D01*
X116460463Y-109683317D01*
X116305183Y-109528037D01*
X116102300Y-109444000D01*
X115882700Y-109444000D01*
X115679817Y-109528037D01*
X115524537Y-109683317D01*
X115440500Y-109886200D01*
X113814500Y-109886200D01*
X113814500Y-109756200D01*
X113730463Y-109553317D01*
X113575183Y-109398037D01*
X113372300Y-109314000D01*
X113152700Y-109314000D01*
X112949817Y-109398037D01*
X112832018Y-109515836D01*
X112784434Y-109468252D01*
X112581551Y-109384215D01*
X112361951Y-109384215D01*
X112159068Y-109468252D01*
X112003788Y-109623532D01*
X111919751Y-109826415D01*
X111379500Y-109826415D01*
X111379500Y-109013000D01*
X117644854Y-109013000D01*
X117584537Y-109073317D01*
X117584537Y-109073317D01*
G37*
X117584537Y-109073317D02*
X117500500Y-109276200D01*
X117500500Y-109495800D01*
X117584537Y-109698683D01*
X117739817Y-109853963D01*
X117942700Y-109938000D01*
X118162300Y-109938000D01*
X118365183Y-109853963D01*
X118520463Y-109698683D01*
X118604500Y-109495800D01*
X118604500Y-109276200D01*
X118520463Y-109073317D01*
X118460146Y-109013000D01*
X119916354Y-109013000D01*
X119882037Y-109047317D01*
X119798000Y-109250200D01*
X119798000Y-109250854D01*
X119665183Y-109118037D01*
X119462300Y-109034000D01*
X119242700Y-109034000D01*
X119039817Y-109118037D01*
X118884537Y-109273317D01*
X118800500Y-109476200D01*
X118800500Y-109695800D01*
X118884537Y-109898683D01*
X119039817Y-110053963D01*
X119242700Y-110138000D01*
X119462300Y-110138000D01*
X119665183Y-110053963D01*
X119820463Y-109898683D01*
X119904500Y-109695800D01*
X119904500Y-109695146D01*
X120037317Y-109827963D01*
X120240200Y-109912000D01*
X120459800Y-109912000D01*
X120662683Y-109827963D01*
X120817963Y-109672683D01*
X120902000Y-109469800D01*
X120902000Y-109250200D01*
X120817963Y-109047317D01*
X120783646Y-109013000D01*
X121525500Y-109013000D01*
X121525500Y-111316221D01*
X121487317Y-111332037D01*
X121332037Y-111487317D01*
X121248000Y-111690200D01*
X121248000Y-111909800D01*
X121332037Y-112112683D01*
X121487317Y-112267963D01*
X121525500Y-112283779D01*
X121525500Y-112820510D01*
X121437317Y-112857037D01*
X121282037Y-113012317D01*
X121198000Y-113215200D01*
X121198000Y-113434800D01*
X121282037Y-113637683D01*
X121437317Y-113792963D01*
X121525500Y-113829490D01*
X121525500Y-114424800D01*
X121387317Y-114482037D01*
X121232037Y-114637317D01*
X121148000Y-114840200D01*
X121148000Y-115059800D01*
X121232037Y-115262683D01*
X121387317Y-115417963D01*
X121525500Y-115475200D01*
X121525500Y-116859000D01*
X119533648Y-116859000D01*
X119593963Y-116798685D01*
X119678000Y-116595802D01*
X119678000Y-116376202D01*
X119593963Y-116173319D01*
X119438683Y-116018039D01*
X119235800Y-115934002D01*
X119016200Y-115934002D01*
X118813317Y-116018039D01*
X118658037Y-116173319D01*
X118574000Y-116376202D01*
X118574000Y-116595802D01*
X118658037Y-116798685D01*
X118718352Y-116859000D01*
X111379500Y-116859000D01*
X111379500Y-116089646D01*
X111470463Y-115998683D01*
X111554500Y-115795800D01*
X111554500Y-115726190D01*
X113600498Y-115726190D01*
X113600498Y-115945790D01*
X113684535Y-116148673D01*
X113839815Y-116303953D01*
X114042698Y-116387990D01*
X114262298Y-116387990D01*
X114465181Y-116303953D01*
X114620461Y-116148673D01*
X114662910Y-116046191D01*
X115729200Y-116046191D01*
X115729200Y-116265791D01*
X115813237Y-116468674D01*
X115968517Y-116623954D01*
X116171400Y-116707991D01*
X116391000Y-116707991D01*
X116593883Y-116623954D01*
X116749163Y-116468674D01*
X116754460Y-116455886D01*
X116952700Y-116538000D01*
X117172300Y-116538000D01*
X117375183Y-116453963D01*
X117530463Y-116298683D01*
X117614500Y-116095800D01*
X117614500Y-116092094D01*
X117813394Y-116092094D01*
X118016277Y-116008057D01*
X118171557Y-115852777D01*
X118255594Y-115649894D01*
X118255594Y-115430294D01*
X118171557Y-115227411D01*
X118016277Y-115072131D01*
X117813394Y-114988094D01*
X117593794Y-114988094D01*
X117390911Y-115072131D01*
X117235631Y-115227411D01*
X117151594Y-115430294D01*
X117151594Y-115434000D01*
X116952700Y-115434000D01*
X116749817Y-115518037D01*
X116594537Y-115673317D01*
X116589240Y-115686105D01*
X116391000Y-115603991D01*
X116171400Y-115603991D01*
X115968517Y-115688028D01*
X115813237Y-115843308D01*
X115729200Y-116046191D01*
X114662910Y-116046191D01*
X114704498Y-115945790D01*
X114704498Y-115726190D01*
X114620461Y-115523307D01*
X114465181Y-115368027D01*
X114262298Y-115283990D01*
X114042698Y-115283990D01*
X113839815Y-115368027D01*
X113684535Y-115523307D01*
X113600498Y-115726190D01*
X111554500Y-115726190D01*
X111554500Y-115576200D01*
X111470463Y-115373317D01*
X111379500Y-115282354D01*
X111379500Y-114876200D01*
X112600500Y-114876200D01*
X112600500Y-115095800D01*
X112684537Y-115298683D01*
X112839817Y-115453963D01*
X113042700Y-115538000D01*
X113262300Y-115538000D01*
X113465183Y-115453963D01*
X113620463Y-115298683D01*
X113704500Y-115095800D01*
X113704500Y-114876200D01*
X113663079Y-114776200D01*
X115100500Y-114776200D01*
X115100500Y-114995800D01*
X115184537Y-115198683D01*
X115339817Y-115353963D01*
X115542700Y-115438000D01*
X115762300Y-115438000D01*
X115965183Y-115353963D01*
X116120463Y-115198683D01*
X116204500Y-114995800D01*
X116204500Y-114776200D01*
X116120463Y-114573317D01*
X115965183Y-114418037D01*
X115762300Y-114334000D01*
X115542700Y-114334000D01*
X115339817Y-114418037D01*
X115184537Y-114573317D01*
X115100500Y-114776200D01*
X113663079Y-114776200D01*
X113620463Y-114673317D01*
X113465183Y-114518037D01*
X113262300Y-114434000D01*
X113042700Y-114434000D01*
X112839817Y-114518037D01*
X112684537Y-114673317D01*
X112600500Y-114876200D01*
X111379500Y-114876200D01*
X111379500Y-114856155D01*
X111404500Y-114795800D01*
X111404500Y-114576200D01*
X111379500Y-114515845D01*
X111379500Y-113842000D01*
X111552300Y-113842000D01*
X111755183Y-113757963D01*
X111910463Y-113602683D01*
X111994500Y-113399800D01*
X111994500Y-113180200D01*
X111988702Y-113166200D01*
X117930500Y-113166200D01*
X117930500Y-113385800D01*
X118014537Y-113588683D01*
X118169817Y-113743963D01*
X118372700Y-113828000D01*
X118490500Y-113828000D01*
X118490500Y-114035800D01*
X118574537Y-114238683D01*
X118729817Y-114393963D01*
X118932700Y-114478000D01*
X119079854Y-114478000D01*
X118984537Y-114573317D01*
X118900500Y-114776200D01*
X118900500Y-114995800D01*
X118984537Y-115198683D01*
X119139817Y-115353963D01*
X119342700Y-115438000D01*
X119562300Y-115438000D01*
X119765183Y-115353963D01*
X119920463Y-115198683D01*
X120004500Y-114995800D01*
X120004500Y-114776200D01*
X119920463Y-114573317D01*
X119765183Y-114418037D01*
X119562300Y-114334000D01*
X119415146Y-114334000D01*
X119510463Y-114238683D01*
X119594500Y-114035800D01*
X119594500Y-113816200D01*
X119510463Y-113613317D01*
X119355183Y-113458037D01*
X119152300Y-113374000D01*
X119034500Y-113374000D01*
X119034500Y-113166200D01*
X118950463Y-112963317D01*
X118795183Y-112808037D01*
X118592300Y-112724000D01*
X118372700Y-112724000D01*
X118169817Y-112808037D01*
X118014537Y-112963317D01*
X117930500Y-113166200D01*
X111988702Y-113166200D01*
X111910463Y-112977317D01*
X111755183Y-112822037D01*
X111552300Y-112738000D01*
X111379500Y-112738000D01*
X111379500Y-111334590D01*
X111565945Y-111334590D01*
X111706910Y-111276200D01*
X118400500Y-111276200D01*
X118400500Y-111495800D01*
X118484537Y-111698683D01*
X118639817Y-111853963D01*
X118842700Y-111938000D01*
X119062300Y-111938000D01*
X119137505Y-111906849D01*
X119032037Y-112012317D01*
X118948000Y-112215200D01*
X118948000Y-112434800D01*
X119032037Y-112637683D01*
X119187317Y-112792963D01*
X119390200Y-112877000D01*
X119609800Y-112877000D01*
X119812683Y-112792963D01*
X119967963Y-112637683D01*
X120052000Y-112434800D01*
X120052000Y-112215200D01*
X119967963Y-112012317D01*
X119829909Y-111874263D01*
X120026183Y-111792963D01*
X120181463Y-111637683D01*
X120265500Y-111434800D01*
X120265500Y-111215200D01*
X120181463Y-111012317D01*
X120026183Y-110857037D01*
X119823300Y-110773000D01*
X119603700Y-110773000D01*
X119400817Y-110857037D01*
X119302500Y-110955354D01*
X119265183Y-110918037D01*
X119062300Y-110834000D01*
X118842700Y-110834000D01*
X118639817Y-110918037D01*
X118484537Y-111073317D01*
X118400500Y-111276200D01*
X111706910Y-111276200D01*
X111768828Y-111250553D01*
X111924108Y-111095273D01*
X112008145Y-110892390D01*
X112008145Y-110672790D01*
X111924108Y-110469907D01*
X111768828Y-110314627D01*
X111565945Y-110230590D01*
X111379500Y-110230590D01*
X111379500Y-109826415D01*
X111919751Y-109826415D01*
X111919751Y-110046015D01*
X112003788Y-110248898D01*
X112159068Y-110404178D01*
X112361951Y-110488215D01*
X112581551Y-110488215D01*
X112784434Y-110404178D01*
X112902233Y-110286379D01*
X112949817Y-110333963D01*
X113152700Y-110418000D01*
X113372300Y-110418000D01*
X113575183Y-110333963D01*
X113730463Y-110178683D01*
X113814500Y-109975800D01*
X113814500Y-109886200D01*
X115440500Y-109886200D01*
X115440500Y-110105800D01*
X115524537Y-110308683D01*
X115679817Y-110463963D01*
X115882700Y-110548000D01*
X116102300Y-110548000D01*
X116275620Y-110476208D01*
X117100500Y-110476208D01*
X117100500Y-110695808D01*
X117184537Y-110898691D01*
X117339817Y-111053971D01*
X117542700Y-111138008D01*
X117762300Y-111138008D01*
X117965183Y-111053971D01*
X118120463Y-110898691D01*
X118204500Y-110695808D01*
X118204500Y-110476208D01*
X118120463Y-110273325D01*
X117965183Y-110118045D01*
X117762300Y-110034008D01*
X117542700Y-110034008D01*
X117339817Y-110118045D01*
X117184537Y-110273325D01*
X117100500Y-110476208D01*
X116275620Y-110476208D01*
X116305183Y-110463963D01*
X116460463Y-110308683D01*
X116544500Y-110105800D01*
X116544500Y-109886200D01*
X116460463Y-109683317D01*
X116305183Y-109528037D01*
X116102300Y-109444000D01*
X115882700Y-109444000D01*
X115679817Y-109528037D01*
X115524537Y-109683317D01*
X115440500Y-109886200D01*
X113814500Y-109886200D01*
X113814500Y-109756200D01*
X113730463Y-109553317D01*
X113575183Y-109398037D01*
X113372300Y-109314000D01*
X113152700Y-109314000D01*
X112949817Y-109398037D01*
X112832018Y-109515836D01*
X112784434Y-109468252D01*
X112581551Y-109384215D01*
X112361951Y-109384215D01*
X112159068Y-109468252D01*
X112003788Y-109623532D01*
X111919751Y-109826415D01*
X111379500Y-109826415D01*
X111379500Y-109013000D01*
X117644854Y-109013000D01*
X117584537Y-109073317D01*
G04 #@! TO.N,/M2_DOVDD*
G36*
X106282037Y-109212683D02*
X106437317Y-109367963D01*
X106640200Y-109452000D01*
X106859800Y-109452000D01*
X107062683Y-109367963D01*
X107217963Y-109212683D01*
X107300675Y-109013000D01*
X110825500Y-109013000D01*
X110825500Y-110987458D01*
X110672300Y-110924000D01*
X110452700Y-110924000D01*
X110249817Y-111008037D01*
X110094537Y-111163317D01*
X110010500Y-111366200D01*
X110010500Y-111585800D01*
X110094537Y-111788683D01*
X110249817Y-111943963D01*
X110452700Y-112028000D01*
X110672300Y-112028000D01*
X110825500Y-111964542D01*
X110825500Y-115161835D01*
X110689817Y-115218037D01*
X110534537Y-115373317D01*
X110450500Y-115576200D01*
X110450500Y-115795800D01*
X110534537Y-115998683D01*
X110689817Y-116153963D01*
X110825500Y-116210165D01*
X110825500Y-116859000D01*
X108421646Y-116859000D01*
X108517963Y-116762683D01*
X108602000Y-116559800D01*
X108602000Y-116340200D01*
X108517963Y-116137317D01*
X108362683Y-115982037D01*
X108159800Y-115898000D01*
X107940200Y-115898000D01*
X107737317Y-115982037D01*
X107582037Y-116137317D01*
X107498000Y-116340200D01*
X107498000Y-116559800D01*
X107582037Y-116762683D01*
X107678354Y-116859000D01*
X100352000Y-116859000D01*
X100352000Y-115315200D01*
X106398000Y-115315200D01*
X106398000Y-115534800D01*
X106482037Y-115737683D01*
X106637317Y-115892963D01*
X106840200Y-115977000D01*
X107059800Y-115977000D01*
X107262683Y-115892963D01*
X107417963Y-115737683D01*
X107502000Y-115534800D01*
X107502000Y-115315200D01*
X107417963Y-115112317D01*
X107262683Y-114957037D01*
X107059800Y-114873000D01*
X106840200Y-114873000D01*
X106637317Y-114957037D01*
X106482037Y-115112317D01*
X106398000Y-115315200D01*
X100352000Y-115315200D01*
X100352000Y-113740200D01*
X101723000Y-113740200D01*
X101723000Y-113959800D01*
X101807037Y-114162683D01*
X101962317Y-114317963D01*
X102165200Y-114402000D01*
X102384800Y-114402000D01*
X102587683Y-114317963D01*
X102742963Y-114162683D01*
X102827000Y-113959800D01*
X102827000Y-113740200D01*
X102742963Y-113537317D01*
X102731594Y-113525948D01*
X102915200Y-113602000D01*
X103134800Y-113602000D01*
X103337683Y-113517963D01*
X103492963Y-113362683D01*
X103577000Y-113159800D01*
X103577000Y-112940200D01*
X103492963Y-112737317D01*
X103337683Y-112582037D01*
X103134800Y-112498000D01*
X102915200Y-112498000D01*
X102712317Y-112582037D01*
X102557037Y-112737317D01*
X102473000Y-112940200D01*
X102473000Y-113159800D01*
X102557037Y-113362683D01*
X102568406Y-113374052D01*
X102384800Y-113298000D01*
X102165200Y-113298000D01*
X101962317Y-113382037D01*
X101807037Y-113537317D01*
X101723000Y-113740200D01*
X100352000Y-113740200D01*
X100352000Y-109890200D01*
X107523000Y-109890200D01*
X107523000Y-110109800D01*
X107607037Y-110312683D01*
X107762317Y-110467963D01*
X107965200Y-110552000D01*
X108184800Y-110552000D01*
X108387683Y-110467963D01*
X108542963Y-110312683D01*
X108627000Y-110109800D01*
X108627000Y-109890200D01*
X108542963Y-109687317D01*
X108387683Y-109532037D01*
X108266478Y-109481832D01*
X108623010Y-109481832D01*
X108623010Y-109701432D01*
X108707047Y-109904315D01*
X108862327Y-110059595D01*
X109065210Y-110143632D01*
X109284810Y-110143632D01*
X109487693Y-110059595D01*
X109642973Y-109904315D01*
X109727010Y-109701432D01*
X109727010Y-109481832D01*
X109642973Y-109278949D01*
X109487693Y-109123669D01*
X109284810Y-109039632D01*
X109065210Y-109039632D01*
X108862327Y-109123669D01*
X108707047Y-109278949D01*
X108623010Y-109481832D01*
X108266478Y-109481832D01*
X108184800Y-109448000D01*
X107965200Y-109448000D01*
X107762317Y-109532037D01*
X107607037Y-109687317D01*
X107523000Y-109890200D01*
X100352000Y-109890200D01*
X100352000Y-109013000D01*
X106199325Y-109013000D01*
X106282037Y-109212683D01*
X106282037Y-109212683D01*
G37*
X106282037Y-109212683D02*
X106437317Y-109367963D01*
X106640200Y-109452000D01*
X106859800Y-109452000D01*
X107062683Y-109367963D01*
X107217963Y-109212683D01*
X107300675Y-109013000D01*
X110825500Y-109013000D01*
X110825500Y-110987458D01*
X110672300Y-110924000D01*
X110452700Y-110924000D01*
X110249817Y-111008037D01*
X110094537Y-111163317D01*
X110010500Y-111366200D01*
X110010500Y-111585800D01*
X110094537Y-111788683D01*
X110249817Y-111943963D01*
X110452700Y-112028000D01*
X110672300Y-112028000D01*
X110825500Y-111964542D01*
X110825500Y-115161835D01*
X110689817Y-115218037D01*
X110534537Y-115373317D01*
X110450500Y-115576200D01*
X110450500Y-115795800D01*
X110534537Y-115998683D01*
X110689817Y-116153963D01*
X110825500Y-116210165D01*
X110825500Y-116859000D01*
X108421646Y-116859000D01*
X108517963Y-116762683D01*
X108602000Y-116559800D01*
X108602000Y-116340200D01*
X108517963Y-116137317D01*
X108362683Y-115982037D01*
X108159800Y-115898000D01*
X107940200Y-115898000D01*
X107737317Y-115982037D01*
X107582037Y-116137317D01*
X107498000Y-116340200D01*
X107498000Y-116559800D01*
X107582037Y-116762683D01*
X107678354Y-116859000D01*
X100352000Y-116859000D01*
X100352000Y-115315200D01*
X106398000Y-115315200D01*
X106398000Y-115534800D01*
X106482037Y-115737683D01*
X106637317Y-115892963D01*
X106840200Y-115977000D01*
X107059800Y-115977000D01*
X107262683Y-115892963D01*
X107417963Y-115737683D01*
X107502000Y-115534800D01*
X107502000Y-115315200D01*
X107417963Y-115112317D01*
X107262683Y-114957037D01*
X107059800Y-114873000D01*
X106840200Y-114873000D01*
X106637317Y-114957037D01*
X106482037Y-115112317D01*
X106398000Y-115315200D01*
X100352000Y-115315200D01*
X100352000Y-113740200D01*
X101723000Y-113740200D01*
X101723000Y-113959800D01*
X101807037Y-114162683D01*
X101962317Y-114317963D01*
X102165200Y-114402000D01*
X102384800Y-114402000D01*
X102587683Y-114317963D01*
X102742963Y-114162683D01*
X102827000Y-113959800D01*
X102827000Y-113740200D01*
X102742963Y-113537317D01*
X102731594Y-113525948D01*
X102915200Y-113602000D01*
X103134800Y-113602000D01*
X103337683Y-113517963D01*
X103492963Y-113362683D01*
X103577000Y-113159800D01*
X103577000Y-112940200D01*
X103492963Y-112737317D01*
X103337683Y-112582037D01*
X103134800Y-112498000D01*
X102915200Y-112498000D01*
X102712317Y-112582037D01*
X102557037Y-112737317D01*
X102473000Y-112940200D01*
X102473000Y-113159800D01*
X102557037Y-113362683D01*
X102568406Y-113374052D01*
X102384800Y-113298000D01*
X102165200Y-113298000D01*
X101962317Y-113382037D01*
X101807037Y-113537317D01*
X101723000Y-113740200D01*
X100352000Y-113740200D01*
X100352000Y-109890200D01*
X107523000Y-109890200D01*
X107523000Y-110109800D01*
X107607037Y-110312683D01*
X107762317Y-110467963D01*
X107965200Y-110552000D01*
X108184800Y-110552000D01*
X108387683Y-110467963D01*
X108542963Y-110312683D01*
X108627000Y-110109800D01*
X108627000Y-109890200D01*
X108542963Y-109687317D01*
X108387683Y-109532037D01*
X108266478Y-109481832D01*
X108623010Y-109481832D01*
X108623010Y-109701432D01*
X108707047Y-109904315D01*
X108862327Y-110059595D01*
X109065210Y-110143632D01*
X109284810Y-110143632D01*
X109487693Y-110059595D01*
X109642973Y-109904315D01*
X109727010Y-109701432D01*
X109727010Y-109481832D01*
X109642973Y-109278949D01*
X109487693Y-109123669D01*
X109284810Y-109039632D01*
X109065210Y-109039632D01*
X108862327Y-109123669D01*
X108707047Y-109278949D01*
X108623010Y-109481832D01*
X108266478Y-109481832D01*
X108184800Y-109448000D01*
X107965200Y-109448000D01*
X107762317Y-109532037D01*
X107607037Y-109687317D01*
X107523000Y-109890200D01*
X100352000Y-109890200D01*
X100352000Y-109013000D01*
X106199325Y-109013000D01*
X106282037Y-109212683D01*
G04 #@! TO.N,/M1_DVDD*
G36*
X185067792Y-109097462D02*
X185067792Y-109317062D01*
X185151829Y-109519945D01*
X185307109Y-109675225D01*
X185509992Y-109759262D01*
X185729592Y-109759262D01*
X185932475Y-109675225D01*
X186087755Y-109519945D01*
X186171792Y-109317062D01*
X186171792Y-109097462D01*
X186136807Y-109013000D01*
X188126678Y-109013000D01*
X188100500Y-109076200D01*
X188100500Y-109295800D01*
X188184537Y-109498683D01*
X188339817Y-109653963D01*
X188542700Y-109738000D01*
X188762300Y-109738000D01*
X188965183Y-109653963D01*
X189120463Y-109498683D01*
X189204500Y-109295800D01*
X189204500Y-109076200D01*
X189178322Y-109013000D01*
X192625500Y-109013000D01*
X192625500Y-116859000D01*
X192230954Y-116859000D01*
X192195463Y-116773317D01*
X192040183Y-116618037D01*
X191837300Y-116534000D01*
X191617700Y-116534000D01*
X191414817Y-116618037D01*
X191259537Y-116773317D01*
X191224046Y-116859000D01*
X189871080Y-116859000D01*
X189904512Y-116778288D01*
X189904512Y-116558688D01*
X189820475Y-116355805D01*
X189665195Y-116200525D01*
X189462312Y-116116488D01*
X189242712Y-116116488D01*
X189039829Y-116200525D01*
X188884549Y-116355805D01*
X188800512Y-116558688D01*
X188800512Y-116778288D01*
X188833944Y-116859000D01*
X187160146Y-116859000D01*
X187220463Y-116798683D01*
X187304500Y-116595800D01*
X187304500Y-116376200D01*
X187288675Y-116337996D01*
X187378524Y-116337996D01*
X187581407Y-116253959D01*
X187736687Y-116098679D01*
X187820724Y-115895796D01*
X187820724Y-115676196D01*
X187736687Y-115473313D01*
X187581407Y-115318033D01*
X187378524Y-115233996D01*
X187158924Y-115233996D01*
X186956041Y-115318033D01*
X186800761Y-115473313D01*
X186716724Y-115676196D01*
X186716724Y-115895796D01*
X186732549Y-115934000D01*
X186642700Y-115934000D01*
X186439817Y-116018037D01*
X186402500Y-116055354D01*
X186365183Y-116018037D01*
X186162300Y-115934000D01*
X185942700Y-115934000D01*
X185739817Y-116018037D01*
X185584537Y-116173317D01*
X185500500Y-116376200D01*
X185500500Y-116595800D01*
X185584537Y-116798683D01*
X185644854Y-116859000D01*
X183236900Y-116859000D01*
X183304500Y-116695800D01*
X183304500Y-116476200D01*
X183220463Y-116273317D01*
X183123344Y-116176198D01*
X183500500Y-116176198D01*
X183500500Y-116395798D01*
X183584537Y-116598681D01*
X183739817Y-116753961D01*
X183942700Y-116837998D01*
X184162300Y-116837998D01*
X184365183Y-116753961D01*
X184520463Y-116598681D01*
X184604500Y-116395798D01*
X184604500Y-116176198D01*
X184520463Y-115973315D01*
X184365183Y-115818035D01*
X184162300Y-115733998D01*
X183942700Y-115733998D01*
X183739817Y-115818035D01*
X183584537Y-115973315D01*
X183500500Y-116176198D01*
X183123344Y-116176198D01*
X183065183Y-116118037D01*
X182862300Y-116034000D01*
X182642700Y-116034000D01*
X182439817Y-116118037D01*
X182413379Y-116144476D01*
X182384021Y-116115118D01*
X182181138Y-116031081D01*
X181961538Y-116031081D01*
X181758655Y-116115118D01*
X181603375Y-116270398D01*
X181519338Y-116473281D01*
X181519338Y-116692881D01*
X181588147Y-116859000D01*
X180779500Y-116859000D01*
X180779500Y-115486517D01*
X180784537Y-115498677D01*
X180939817Y-115653957D01*
X181142700Y-115737994D01*
X181362300Y-115737994D01*
X181565183Y-115653957D01*
X181720463Y-115498677D01*
X181804500Y-115295794D01*
X181804500Y-115076194D01*
X181720463Y-114873311D01*
X181623350Y-114776198D01*
X183000500Y-114776198D01*
X183000500Y-114995798D01*
X183084537Y-115198681D01*
X183239817Y-115353961D01*
X183442700Y-115437998D01*
X183662300Y-115437998D01*
X183865183Y-115353961D01*
X184020463Y-115198681D01*
X184104500Y-114995798D01*
X184104500Y-114876200D01*
X184525495Y-114876200D01*
X184525495Y-115095800D01*
X184609532Y-115298683D01*
X184764812Y-115453963D01*
X184967695Y-115538000D01*
X185187295Y-115538000D01*
X185390178Y-115453963D01*
X185545458Y-115298683D01*
X185596192Y-115176200D01*
X191175500Y-115176200D01*
X191175500Y-115395800D01*
X191259537Y-115598683D01*
X191414817Y-115753963D01*
X191617700Y-115838000D01*
X191837300Y-115838000D01*
X192040183Y-115753963D01*
X192195463Y-115598683D01*
X192279500Y-115395800D01*
X192279500Y-115176200D01*
X192195463Y-114973317D01*
X192040183Y-114818037D01*
X191837300Y-114734000D01*
X191617700Y-114734000D01*
X191414817Y-114818037D01*
X191259537Y-114973317D01*
X191175500Y-115176200D01*
X185596192Y-115176200D01*
X185629495Y-115095800D01*
X185629495Y-114876200D01*
X185545458Y-114673317D01*
X185390178Y-114518037D01*
X185187295Y-114434000D01*
X184967695Y-114434000D01*
X184764812Y-114518037D01*
X184609532Y-114673317D01*
X184525495Y-114876200D01*
X184104500Y-114876200D01*
X184104500Y-114776198D01*
X184020463Y-114573315D01*
X183865183Y-114418035D01*
X183662300Y-114333998D01*
X183442700Y-114333998D01*
X183239817Y-114418035D01*
X183084537Y-114573315D01*
X183000500Y-114776198D01*
X181623350Y-114776198D01*
X181565183Y-114718031D01*
X181362300Y-114633994D01*
X181142700Y-114633994D01*
X181004500Y-114691238D01*
X181004500Y-114576200D01*
X180920463Y-114373317D01*
X180833878Y-114286732D01*
X188228210Y-114286732D01*
X188228210Y-114506332D01*
X188312247Y-114709215D01*
X188467527Y-114864495D01*
X188670410Y-114948532D01*
X188890010Y-114948532D01*
X189092893Y-114864495D01*
X189248173Y-114709215D01*
X189332210Y-114506332D01*
X189332210Y-114286732D01*
X189248173Y-114083849D01*
X189092893Y-113928569D01*
X188890010Y-113844532D01*
X188670410Y-113844532D01*
X188467527Y-113928569D01*
X188312247Y-114083849D01*
X188228210Y-114286732D01*
X180833878Y-114286732D01*
X180779500Y-114232354D01*
X180779500Y-113739646D01*
X180920463Y-113598683D01*
X181004500Y-113395800D01*
X181004500Y-113210200D01*
X187638000Y-113210200D01*
X187638000Y-113429800D01*
X187722037Y-113632683D01*
X187877317Y-113787963D01*
X188080200Y-113872000D01*
X188299800Y-113872000D01*
X188502683Y-113787963D01*
X188657963Y-113632683D01*
X188722780Y-113476200D01*
X191175500Y-113476200D01*
X191175500Y-113695800D01*
X191259537Y-113898683D01*
X191414817Y-114053963D01*
X191617700Y-114138000D01*
X191837300Y-114138000D01*
X192040183Y-114053963D01*
X192195463Y-113898683D01*
X192279500Y-113695800D01*
X192279500Y-113476200D01*
X192195463Y-113273317D01*
X192040183Y-113118037D01*
X191837300Y-113034000D01*
X191617700Y-113034000D01*
X191414817Y-113118037D01*
X191259537Y-113273317D01*
X191175500Y-113476200D01*
X188722780Y-113476200D01*
X188742000Y-113429800D01*
X188742000Y-113210200D01*
X188657963Y-113007317D01*
X188502683Y-112852037D01*
X188299800Y-112768000D01*
X188080200Y-112768000D01*
X187877317Y-112852037D01*
X187722037Y-113007317D01*
X187638000Y-113210200D01*
X181004500Y-113210200D01*
X181004500Y-113176200D01*
X180920463Y-112973317D01*
X180779500Y-112832354D01*
X180779500Y-112639667D01*
X180838920Y-112664280D01*
X181058520Y-112664280D01*
X181261403Y-112580243D01*
X181415442Y-112426204D01*
X189100500Y-112426204D01*
X189100500Y-112645804D01*
X189184537Y-112848687D01*
X189339817Y-113003967D01*
X189542700Y-113088004D01*
X189762300Y-113088004D01*
X189965183Y-113003967D01*
X190120463Y-112848687D01*
X190204500Y-112645804D01*
X190204500Y-112426204D01*
X190120463Y-112223321D01*
X189965183Y-112068041D01*
X189762300Y-111984004D01*
X189542700Y-111984004D01*
X189339817Y-112068041D01*
X189184537Y-112223321D01*
X189100500Y-112426204D01*
X181415442Y-112426204D01*
X181416683Y-112424963D01*
X181500720Y-112222080D01*
X181500720Y-112002480D01*
X181416683Y-111799597D01*
X181261403Y-111644317D01*
X181058520Y-111560280D01*
X180838920Y-111560280D01*
X180779500Y-111584893D01*
X180779500Y-111393642D01*
X180839821Y-111453963D01*
X181042704Y-111538000D01*
X181262304Y-111538000D01*
X181411502Y-111476200D01*
X187200500Y-111476200D01*
X187200500Y-111695800D01*
X187284537Y-111898683D01*
X187439817Y-112053963D01*
X187642700Y-112138000D01*
X187862300Y-112138000D01*
X188065183Y-112053963D01*
X188220463Y-111898683D01*
X188304500Y-111695800D01*
X188304500Y-111668626D01*
X188389837Y-111753963D01*
X188592720Y-111838000D01*
X188812320Y-111838000D01*
X189015203Y-111753963D01*
X189052510Y-111716656D01*
X189189817Y-111853963D01*
X189392700Y-111938000D01*
X189612300Y-111938000D01*
X189815183Y-111853963D01*
X189970463Y-111698683D01*
X189979775Y-111676200D01*
X191175500Y-111676200D01*
X191175500Y-111895800D01*
X191259537Y-112098683D01*
X191414817Y-112253963D01*
X191617700Y-112338000D01*
X191837300Y-112338000D01*
X192040183Y-112253963D01*
X192195463Y-112098683D01*
X192279500Y-111895800D01*
X192279500Y-111676200D01*
X192195463Y-111473317D01*
X192040183Y-111318037D01*
X191837300Y-111234000D01*
X191617700Y-111234000D01*
X191414817Y-111318037D01*
X191259537Y-111473317D01*
X191175500Y-111676200D01*
X189979775Y-111676200D01*
X190054500Y-111495800D01*
X190054500Y-111276200D01*
X189970463Y-111073317D01*
X189815183Y-110918037D01*
X189612300Y-110834000D01*
X189392700Y-110834000D01*
X189189817Y-110918037D01*
X189152510Y-110955344D01*
X189015203Y-110818037D01*
X188812320Y-110734000D01*
X188592720Y-110734000D01*
X188502500Y-110771371D01*
X188420463Y-110573317D01*
X188265183Y-110418037D01*
X188062300Y-110334000D01*
X187842700Y-110334000D01*
X187639817Y-110418037D01*
X187484537Y-110573317D01*
X187400500Y-110776200D01*
X187400500Y-110995800D01*
X187449475Y-111114036D01*
X187439817Y-111118037D01*
X187284537Y-111273317D01*
X187200500Y-111476200D01*
X181411502Y-111476200D01*
X181465187Y-111453963D01*
X181620467Y-111298683D01*
X181704504Y-111095800D01*
X181704504Y-110876200D01*
X181620467Y-110673317D01*
X181465187Y-110518037D01*
X181313822Y-110455340D01*
X181395471Y-110373691D01*
X181479508Y-110170808D01*
X181479508Y-109951208D01*
X181428711Y-109828573D01*
X181895084Y-109828573D01*
X181895084Y-110048173D01*
X181979121Y-110251056D01*
X182134401Y-110406336D01*
X182337284Y-110490373D01*
X182556884Y-110490373D01*
X182749813Y-110410459D01*
X182827317Y-110487963D01*
X183030200Y-110572000D01*
X183249800Y-110572000D01*
X183452683Y-110487963D01*
X183607963Y-110332683D01*
X183692000Y-110129800D01*
X183692000Y-109910200D01*
X183677917Y-109876200D01*
X191175500Y-109876200D01*
X191175500Y-110095800D01*
X191259537Y-110298683D01*
X191414817Y-110453963D01*
X191617700Y-110538000D01*
X191837300Y-110538000D01*
X192040183Y-110453963D01*
X192195463Y-110298683D01*
X192279500Y-110095800D01*
X192279500Y-109876200D01*
X192195463Y-109673317D01*
X192040183Y-109518037D01*
X191837300Y-109434000D01*
X191617700Y-109434000D01*
X191414817Y-109518037D01*
X191259537Y-109673317D01*
X191175500Y-109876200D01*
X183677917Y-109876200D01*
X183607963Y-109707317D01*
X183452683Y-109552037D01*
X183249800Y-109468000D01*
X183030200Y-109468000D01*
X182837271Y-109547914D01*
X182759767Y-109470410D01*
X182556884Y-109386373D01*
X182337284Y-109386373D01*
X182134401Y-109470410D01*
X181979121Y-109625690D01*
X181895084Y-109828573D01*
X181428711Y-109828573D01*
X181395471Y-109748325D01*
X181240191Y-109593045D01*
X181037308Y-109509008D01*
X180817708Y-109509008D01*
X180779500Y-109524834D01*
X180779500Y-109013000D01*
X185102777Y-109013000D01*
X185067792Y-109097462D01*
X185067792Y-109097462D01*
G37*
X185067792Y-109097462D02*
X185067792Y-109317062D01*
X185151829Y-109519945D01*
X185307109Y-109675225D01*
X185509992Y-109759262D01*
X185729592Y-109759262D01*
X185932475Y-109675225D01*
X186087755Y-109519945D01*
X186171792Y-109317062D01*
X186171792Y-109097462D01*
X186136807Y-109013000D01*
X188126678Y-109013000D01*
X188100500Y-109076200D01*
X188100500Y-109295800D01*
X188184537Y-109498683D01*
X188339817Y-109653963D01*
X188542700Y-109738000D01*
X188762300Y-109738000D01*
X188965183Y-109653963D01*
X189120463Y-109498683D01*
X189204500Y-109295800D01*
X189204500Y-109076200D01*
X189178322Y-109013000D01*
X192625500Y-109013000D01*
X192625500Y-116859000D01*
X192230954Y-116859000D01*
X192195463Y-116773317D01*
X192040183Y-116618037D01*
X191837300Y-116534000D01*
X191617700Y-116534000D01*
X191414817Y-116618037D01*
X191259537Y-116773317D01*
X191224046Y-116859000D01*
X189871080Y-116859000D01*
X189904512Y-116778288D01*
X189904512Y-116558688D01*
X189820475Y-116355805D01*
X189665195Y-116200525D01*
X189462312Y-116116488D01*
X189242712Y-116116488D01*
X189039829Y-116200525D01*
X188884549Y-116355805D01*
X188800512Y-116558688D01*
X188800512Y-116778288D01*
X188833944Y-116859000D01*
X187160146Y-116859000D01*
X187220463Y-116798683D01*
X187304500Y-116595800D01*
X187304500Y-116376200D01*
X187288675Y-116337996D01*
X187378524Y-116337996D01*
X187581407Y-116253959D01*
X187736687Y-116098679D01*
X187820724Y-115895796D01*
X187820724Y-115676196D01*
X187736687Y-115473313D01*
X187581407Y-115318033D01*
X187378524Y-115233996D01*
X187158924Y-115233996D01*
X186956041Y-115318033D01*
X186800761Y-115473313D01*
X186716724Y-115676196D01*
X186716724Y-115895796D01*
X186732549Y-115934000D01*
X186642700Y-115934000D01*
X186439817Y-116018037D01*
X186402500Y-116055354D01*
X186365183Y-116018037D01*
X186162300Y-115934000D01*
X185942700Y-115934000D01*
X185739817Y-116018037D01*
X185584537Y-116173317D01*
X185500500Y-116376200D01*
X185500500Y-116595800D01*
X185584537Y-116798683D01*
X185644854Y-116859000D01*
X183236900Y-116859000D01*
X183304500Y-116695800D01*
X183304500Y-116476200D01*
X183220463Y-116273317D01*
X183123344Y-116176198D01*
X183500500Y-116176198D01*
X183500500Y-116395798D01*
X183584537Y-116598681D01*
X183739817Y-116753961D01*
X183942700Y-116837998D01*
X184162300Y-116837998D01*
X184365183Y-116753961D01*
X184520463Y-116598681D01*
X184604500Y-116395798D01*
X184604500Y-116176198D01*
X184520463Y-115973315D01*
X184365183Y-115818035D01*
X184162300Y-115733998D01*
X183942700Y-115733998D01*
X183739817Y-115818035D01*
X183584537Y-115973315D01*
X183500500Y-116176198D01*
X183123344Y-116176198D01*
X183065183Y-116118037D01*
X182862300Y-116034000D01*
X182642700Y-116034000D01*
X182439817Y-116118037D01*
X182413379Y-116144476D01*
X182384021Y-116115118D01*
X182181138Y-116031081D01*
X181961538Y-116031081D01*
X181758655Y-116115118D01*
X181603375Y-116270398D01*
X181519338Y-116473281D01*
X181519338Y-116692881D01*
X181588147Y-116859000D01*
X180779500Y-116859000D01*
X180779500Y-115486517D01*
X180784537Y-115498677D01*
X180939817Y-115653957D01*
X181142700Y-115737994D01*
X181362300Y-115737994D01*
X181565183Y-115653957D01*
X181720463Y-115498677D01*
X181804500Y-115295794D01*
X181804500Y-115076194D01*
X181720463Y-114873311D01*
X181623350Y-114776198D01*
X183000500Y-114776198D01*
X183000500Y-114995798D01*
X183084537Y-115198681D01*
X183239817Y-115353961D01*
X183442700Y-115437998D01*
X183662300Y-115437998D01*
X183865183Y-115353961D01*
X184020463Y-115198681D01*
X184104500Y-114995798D01*
X184104500Y-114876200D01*
X184525495Y-114876200D01*
X184525495Y-115095800D01*
X184609532Y-115298683D01*
X184764812Y-115453963D01*
X184967695Y-115538000D01*
X185187295Y-115538000D01*
X185390178Y-115453963D01*
X185545458Y-115298683D01*
X185596192Y-115176200D01*
X191175500Y-115176200D01*
X191175500Y-115395800D01*
X191259537Y-115598683D01*
X191414817Y-115753963D01*
X191617700Y-115838000D01*
X191837300Y-115838000D01*
X192040183Y-115753963D01*
X192195463Y-115598683D01*
X192279500Y-115395800D01*
X192279500Y-115176200D01*
X192195463Y-114973317D01*
X192040183Y-114818037D01*
X191837300Y-114734000D01*
X191617700Y-114734000D01*
X191414817Y-114818037D01*
X191259537Y-114973317D01*
X191175500Y-115176200D01*
X185596192Y-115176200D01*
X185629495Y-115095800D01*
X185629495Y-114876200D01*
X185545458Y-114673317D01*
X185390178Y-114518037D01*
X185187295Y-114434000D01*
X184967695Y-114434000D01*
X184764812Y-114518037D01*
X184609532Y-114673317D01*
X184525495Y-114876200D01*
X184104500Y-114876200D01*
X184104500Y-114776198D01*
X184020463Y-114573315D01*
X183865183Y-114418035D01*
X183662300Y-114333998D01*
X183442700Y-114333998D01*
X183239817Y-114418035D01*
X183084537Y-114573315D01*
X183000500Y-114776198D01*
X181623350Y-114776198D01*
X181565183Y-114718031D01*
X181362300Y-114633994D01*
X181142700Y-114633994D01*
X181004500Y-114691238D01*
X181004500Y-114576200D01*
X180920463Y-114373317D01*
X180833878Y-114286732D01*
X188228210Y-114286732D01*
X188228210Y-114506332D01*
X188312247Y-114709215D01*
X188467527Y-114864495D01*
X188670410Y-114948532D01*
X188890010Y-114948532D01*
X189092893Y-114864495D01*
X189248173Y-114709215D01*
X189332210Y-114506332D01*
X189332210Y-114286732D01*
X189248173Y-114083849D01*
X189092893Y-113928569D01*
X188890010Y-113844532D01*
X188670410Y-113844532D01*
X188467527Y-113928569D01*
X188312247Y-114083849D01*
X188228210Y-114286732D01*
X180833878Y-114286732D01*
X180779500Y-114232354D01*
X180779500Y-113739646D01*
X180920463Y-113598683D01*
X181004500Y-113395800D01*
X181004500Y-113210200D01*
X187638000Y-113210200D01*
X187638000Y-113429800D01*
X187722037Y-113632683D01*
X187877317Y-113787963D01*
X188080200Y-113872000D01*
X188299800Y-113872000D01*
X188502683Y-113787963D01*
X188657963Y-113632683D01*
X188722780Y-113476200D01*
X191175500Y-113476200D01*
X191175500Y-113695800D01*
X191259537Y-113898683D01*
X191414817Y-114053963D01*
X191617700Y-114138000D01*
X191837300Y-114138000D01*
X192040183Y-114053963D01*
X192195463Y-113898683D01*
X192279500Y-113695800D01*
X192279500Y-113476200D01*
X192195463Y-113273317D01*
X192040183Y-113118037D01*
X191837300Y-113034000D01*
X191617700Y-113034000D01*
X191414817Y-113118037D01*
X191259537Y-113273317D01*
X191175500Y-113476200D01*
X188722780Y-113476200D01*
X188742000Y-113429800D01*
X188742000Y-113210200D01*
X188657963Y-113007317D01*
X188502683Y-112852037D01*
X188299800Y-112768000D01*
X188080200Y-112768000D01*
X187877317Y-112852037D01*
X187722037Y-113007317D01*
X187638000Y-113210200D01*
X181004500Y-113210200D01*
X181004500Y-113176200D01*
X180920463Y-112973317D01*
X180779500Y-112832354D01*
X180779500Y-112639667D01*
X180838920Y-112664280D01*
X181058520Y-112664280D01*
X181261403Y-112580243D01*
X181415442Y-112426204D01*
X189100500Y-112426204D01*
X189100500Y-112645804D01*
X189184537Y-112848687D01*
X189339817Y-113003967D01*
X189542700Y-113088004D01*
X189762300Y-113088004D01*
X189965183Y-113003967D01*
X190120463Y-112848687D01*
X190204500Y-112645804D01*
X190204500Y-112426204D01*
X190120463Y-112223321D01*
X189965183Y-112068041D01*
X189762300Y-111984004D01*
X189542700Y-111984004D01*
X189339817Y-112068041D01*
X189184537Y-112223321D01*
X189100500Y-112426204D01*
X181415442Y-112426204D01*
X181416683Y-112424963D01*
X181500720Y-112222080D01*
X181500720Y-112002480D01*
X181416683Y-111799597D01*
X181261403Y-111644317D01*
X181058520Y-111560280D01*
X180838920Y-111560280D01*
X180779500Y-111584893D01*
X180779500Y-111393642D01*
X180839821Y-111453963D01*
X181042704Y-111538000D01*
X181262304Y-111538000D01*
X181411502Y-111476200D01*
X187200500Y-111476200D01*
X187200500Y-111695800D01*
X187284537Y-111898683D01*
X187439817Y-112053963D01*
X187642700Y-112138000D01*
X187862300Y-112138000D01*
X188065183Y-112053963D01*
X188220463Y-111898683D01*
X188304500Y-111695800D01*
X188304500Y-111668626D01*
X188389837Y-111753963D01*
X188592720Y-111838000D01*
X188812320Y-111838000D01*
X189015203Y-111753963D01*
X189052510Y-111716656D01*
X189189817Y-111853963D01*
X189392700Y-111938000D01*
X189612300Y-111938000D01*
X189815183Y-111853963D01*
X189970463Y-111698683D01*
X189979775Y-111676200D01*
X191175500Y-111676200D01*
X191175500Y-111895800D01*
X191259537Y-112098683D01*
X191414817Y-112253963D01*
X191617700Y-112338000D01*
X191837300Y-112338000D01*
X192040183Y-112253963D01*
X192195463Y-112098683D01*
X192279500Y-111895800D01*
X192279500Y-111676200D01*
X192195463Y-111473317D01*
X192040183Y-111318037D01*
X191837300Y-111234000D01*
X191617700Y-111234000D01*
X191414817Y-111318037D01*
X191259537Y-111473317D01*
X191175500Y-111676200D01*
X189979775Y-111676200D01*
X190054500Y-111495800D01*
X190054500Y-111276200D01*
X189970463Y-111073317D01*
X189815183Y-110918037D01*
X189612300Y-110834000D01*
X189392700Y-110834000D01*
X189189817Y-110918037D01*
X189152510Y-110955344D01*
X189015203Y-110818037D01*
X188812320Y-110734000D01*
X188592720Y-110734000D01*
X188502500Y-110771371D01*
X188420463Y-110573317D01*
X188265183Y-110418037D01*
X188062300Y-110334000D01*
X187842700Y-110334000D01*
X187639817Y-110418037D01*
X187484537Y-110573317D01*
X187400500Y-110776200D01*
X187400500Y-110995800D01*
X187449475Y-111114036D01*
X187439817Y-111118037D01*
X187284537Y-111273317D01*
X187200500Y-111476200D01*
X181411502Y-111476200D01*
X181465187Y-111453963D01*
X181620467Y-111298683D01*
X181704504Y-111095800D01*
X181704504Y-110876200D01*
X181620467Y-110673317D01*
X181465187Y-110518037D01*
X181313822Y-110455340D01*
X181395471Y-110373691D01*
X181479508Y-110170808D01*
X181479508Y-109951208D01*
X181428711Y-109828573D01*
X181895084Y-109828573D01*
X181895084Y-110048173D01*
X181979121Y-110251056D01*
X182134401Y-110406336D01*
X182337284Y-110490373D01*
X182556884Y-110490373D01*
X182749813Y-110410459D01*
X182827317Y-110487963D01*
X183030200Y-110572000D01*
X183249800Y-110572000D01*
X183452683Y-110487963D01*
X183607963Y-110332683D01*
X183692000Y-110129800D01*
X183692000Y-109910200D01*
X183677917Y-109876200D01*
X191175500Y-109876200D01*
X191175500Y-110095800D01*
X191259537Y-110298683D01*
X191414817Y-110453963D01*
X191617700Y-110538000D01*
X191837300Y-110538000D01*
X192040183Y-110453963D01*
X192195463Y-110298683D01*
X192279500Y-110095800D01*
X192279500Y-109876200D01*
X192195463Y-109673317D01*
X192040183Y-109518037D01*
X191837300Y-109434000D01*
X191617700Y-109434000D01*
X191414817Y-109518037D01*
X191259537Y-109673317D01*
X191175500Y-109876200D01*
X183677917Y-109876200D01*
X183607963Y-109707317D01*
X183452683Y-109552037D01*
X183249800Y-109468000D01*
X183030200Y-109468000D01*
X182837271Y-109547914D01*
X182759767Y-109470410D01*
X182556884Y-109386373D01*
X182337284Y-109386373D01*
X182134401Y-109470410D01*
X181979121Y-109625690D01*
X181895084Y-109828573D01*
X181428711Y-109828573D01*
X181395471Y-109748325D01*
X181240191Y-109593045D01*
X181037308Y-109509008D01*
X180817708Y-109509008D01*
X180779500Y-109524834D01*
X180779500Y-109013000D01*
X185102777Y-109013000D01*
X185067792Y-109097462D01*
G04 #@! TO.N,/M1_DOVDD*
G36*
X180225500Y-112782546D02*
X180139817Y-112818037D01*
X179984537Y-112973317D01*
X179900500Y-113176200D01*
X179900500Y-113395800D01*
X179984537Y-113598683D01*
X180139817Y-113753963D01*
X180225500Y-113789454D01*
X180225500Y-114182546D01*
X180139817Y-114218037D01*
X179984537Y-114373317D01*
X179900500Y-114576200D01*
X179900500Y-114795800D01*
X179984537Y-114998683D01*
X180139817Y-115153963D01*
X180225500Y-115189454D01*
X180225500Y-116859000D01*
X178297646Y-116859000D01*
X178357963Y-116798683D01*
X178442000Y-116595800D01*
X178442000Y-116376200D01*
X178357963Y-116173317D01*
X178202683Y-116018037D01*
X177999800Y-115934000D01*
X177780200Y-115934000D01*
X177577317Y-116018037D01*
X177422037Y-116173317D01*
X177338000Y-116376200D01*
X177338000Y-116595800D01*
X177422037Y-116798683D01*
X177482354Y-116859000D01*
X174179500Y-116859000D01*
X174179500Y-115190200D01*
X175048000Y-115190200D01*
X175048000Y-115409800D01*
X175132037Y-115612683D01*
X175287317Y-115767963D01*
X175490200Y-115852000D01*
X175709800Y-115852000D01*
X175912683Y-115767963D01*
X176067963Y-115612683D01*
X176152000Y-115409800D01*
X176152000Y-115190200D01*
X176067963Y-114987317D01*
X175912683Y-114832037D01*
X175709800Y-114748000D01*
X175490200Y-114748000D01*
X175287317Y-114832037D01*
X175132037Y-114987317D01*
X175048000Y-115190200D01*
X174179500Y-115190200D01*
X174179500Y-113310200D01*
X174728000Y-113310200D01*
X174728000Y-113529800D01*
X174812037Y-113732683D01*
X174967317Y-113887963D01*
X175034831Y-113915928D01*
X174973000Y-114065200D01*
X174973000Y-114284800D01*
X175057037Y-114487683D01*
X175212317Y-114642963D01*
X175415200Y-114727000D01*
X175634800Y-114727000D01*
X175837683Y-114642963D01*
X175840425Y-114640221D01*
X176498000Y-114640221D01*
X176498000Y-114859821D01*
X176582037Y-115062704D01*
X176737317Y-115217984D01*
X176940200Y-115302021D01*
X177159800Y-115302021D01*
X177362683Y-115217984D01*
X177517963Y-115062704D01*
X177602000Y-114859821D01*
X177602000Y-114640221D01*
X177517963Y-114437338D01*
X177362683Y-114282058D01*
X177159800Y-114198021D01*
X176940200Y-114198021D01*
X176737317Y-114282058D01*
X176582037Y-114437338D01*
X176498000Y-114640221D01*
X175840425Y-114640221D01*
X175992963Y-114487683D01*
X176077000Y-114284800D01*
X176077000Y-114065200D01*
X176014868Y-113915200D01*
X178598000Y-113915200D01*
X178598000Y-114134800D01*
X178682037Y-114337683D01*
X178837317Y-114492963D01*
X179040200Y-114577000D01*
X179259800Y-114577000D01*
X179462683Y-114492963D01*
X179617963Y-114337683D01*
X179702000Y-114134800D01*
X179702000Y-113915200D01*
X179617963Y-113712317D01*
X179462683Y-113557037D01*
X179259800Y-113473000D01*
X179040200Y-113473000D01*
X178837317Y-113557037D01*
X178682037Y-113712317D01*
X178598000Y-113915200D01*
X176014868Y-113915200D01*
X175992963Y-113862317D01*
X175837683Y-113707037D01*
X175770169Y-113679072D01*
X175832000Y-113529800D01*
X175832000Y-113310200D01*
X175747963Y-113107317D01*
X175592683Y-112952037D01*
X175389800Y-112868000D01*
X175170200Y-112868000D01*
X174967317Y-112952037D01*
X174812037Y-113107317D01*
X174728000Y-113310200D01*
X174179500Y-113310200D01*
X174179500Y-111840200D01*
X177373000Y-111840200D01*
X177373000Y-112059800D01*
X177457037Y-112262683D01*
X177612317Y-112417963D01*
X177815200Y-112502000D01*
X178034800Y-112502000D01*
X178237683Y-112417963D01*
X178392963Y-112262683D01*
X178438809Y-112152000D01*
X178609800Y-112152000D01*
X178812683Y-112067963D01*
X178967963Y-111912683D01*
X179052000Y-111709800D01*
X179052000Y-111490200D01*
X178967963Y-111287317D01*
X178812683Y-111132037D01*
X178609800Y-111048000D01*
X178390200Y-111048000D01*
X178187317Y-111132037D01*
X178032037Y-111287317D01*
X177986191Y-111398000D01*
X177815200Y-111398000D01*
X177612317Y-111482037D01*
X177457037Y-111637317D01*
X177373000Y-111840200D01*
X174179500Y-111840200D01*
X174179500Y-109765200D01*
X174873000Y-109765200D01*
X174873000Y-109984800D01*
X174957037Y-110187683D01*
X175112317Y-110342963D01*
X175315200Y-110427000D01*
X175534800Y-110427000D01*
X175737683Y-110342963D01*
X175892963Y-110187683D01*
X175977000Y-109984800D01*
X175977000Y-109765200D01*
X175962503Y-109730200D01*
X176478000Y-109730200D01*
X176478000Y-109949800D01*
X176562037Y-110152683D01*
X176717317Y-110307963D01*
X176920200Y-110392000D01*
X177139800Y-110392000D01*
X177342683Y-110307963D01*
X177497963Y-110152683D01*
X177582000Y-109949800D01*
X177582000Y-109730200D01*
X177497963Y-109527317D01*
X177342683Y-109372037D01*
X177139800Y-109288000D01*
X176920200Y-109288000D01*
X176717317Y-109372037D01*
X176562037Y-109527317D01*
X176478000Y-109730200D01*
X175962503Y-109730200D01*
X175892963Y-109562317D01*
X175737683Y-109407037D01*
X175534800Y-109323000D01*
X175315200Y-109323000D01*
X175112317Y-109407037D01*
X174957037Y-109562317D01*
X174873000Y-109765200D01*
X174179500Y-109765200D01*
X174179500Y-109013000D01*
X180225500Y-109013000D01*
X180225500Y-112782546D01*
X180225500Y-112782546D01*
G37*
X180225500Y-112782546D02*
X180139817Y-112818037D01*
X179984537Y-112973317D01*
X179900500Y-113176200D01*
X179900500Y-113395800D01*
X179984537Y-113598683D01*
X180139817Y-113753963D01*
X180225500Y-113789454D01*
X180225500Y-114182546D01*
X180139817Y-114218037D01*
X179984537Y-114373317D01*
X179900500Y-114576200D01*
X179900500Y-114795800D01*
X179984537Y-114998683D01*
X180139817Y-115153963D01*
X180225500Y-115189454D01*
X180225500Y-116859000D01*
X178297646Y-116859000D01*
X178357963Y-116798683D01*
X178442000Y-116595800D01*
X178442000Y-116376200D01*
X178357963Y-116173317D01*
X178202683Y-116018037D01*
X177999800Y-115934000D01*
X177780200Y-115934000D01*
X177577317Y-116018037D01*
X177422037Y-116173317D01*
X177338000Y-116376200D01*
X177338000Y-116595800D01*
X177422037Y-116798683D01*
X177482354Y-116859000D01*
X174179500Y-116859000D01*
X174179500Y-115190200D01*
X175048000Y-115190200D01*
X175048000Y-115409800D01*
X175132037Y-115612683D01*
X175287317Y-115767963D01*
X175490200Y-115852000D01*
X175709800Y-115852000D01*
X175912683Y-115767963D01*
X176067963Y-115612683D01*
X176152000Y-115409800D01*
X176152000Y-115190200D01*
X176067963Y-114987317D01*
X175912683Y-114832037D01*
X175709800Y-114748000D01*
X175490200Y-114748000D01*
X175287317Y-114832037D01*
X175132037Y-114987317D01*
X175048000Y-115190200D01*
X174179500Y-115190200D01*
X174179500Y-113310200D01*
X174728000Y-113310200D01*
X174728000Y-113529800D01*
X174812037Y-113732683D01*
X174967317Y-113887963D01*
X175034831Y-113915928D01*
X174973000Y-114065200D01*
X174973000Y-114284800D01*
X175057037Y-114487683D01*
X175212317Y-114642963D01*
X175415200Y-114727000D01*
X175634800Y-114727000D01*
X175837683Y-114642963D01*
X175840425Y-114640221D01*
X176498000Y-114640221D01*
X176498000Y-114859821D01*
X176582037Y-115062704D01*
X176737317Y-115217984D01*
X176940200Y-115302021D01*
X177159800Y-115302021D01*
X177362683Y-115217984D01*
X177517963Y-115062704D01*
X177602000Y-114859821D01*
X177602000Y-114640221D01*
X177517963Y-114437338D01*
X177362683Y-114282058D01*
X177159800Y-114198021D01*
X176940200Y-114198021D01*
X176737317Y-114282058D01*
X176582037Y-114437338D01*
X176498000Y-114640221D01*
X175840425Y-114640221D01*
X175992963Y-114487683D01*
X176077000Y-114284800D01*
X176077000Y-114065200D01*
X176014868Y-113915200D01*
X178598000Y-113915200D01*
X178598000Y-114134800D01*
X178682037Y-114337683D01*
X178837317Y-114492963D01*
X179040200Y-114577000D01*
X179259800Y-114577000D01*
X179462683Y-114492963D01*
X179617963Y-114337683D01*
X179702000Y-114134800D01*
X179702000Y-113915200D01*
X179617963Y-113712317D01*
X179462683Y-113557037D01*
X179259800Y-113473000D01*
X179040200Y-113473000D01*
X178837317Y-113557037D01*
X178682037Y-113712317D01*
X178598000Y-113915200D01*
X176014868Y-113915200D01*
X175992963Y-113862317D01*
X175837683Y-113707037D01*
X175770169Y-113679072D01*
X175832000Y-113529800D01*
X175832000Y-113310200D01*
X175747963Y-113107317D01*
X175592683Y-112952037D01*
X175389800Y-112868000D01*
X175170200Y-112868000D01*
X174967317Y-112952037D01*
X174812037Y-113107317D01*
X174728000Y-113310200D01*
X174179500Y-113310200D01*
X174179500Y-111840200D01*
X177373000Y-111840200D01*
X177373000Y-112059800D01*
X177457037Y-112262683D01*
X177612317Y-112417963D01*
X177815200Y-112502000D01*
X178034800Y-112502000D01*
X178237683Y-112417963D01*
X178392963Y-112262683D01*
X178438809Y-112152000D01*
X178609800Y-112152000D01*
X178812683Y-112067963D01*
X178967963Y-111912683D01*
X179052000Y-111709800D01*
X179052000Y-111490200D01*
X178967963Y-111287317D01*
X178812683Y-111132037D01*
X178609800Y-111048000D01*
X178390200Y-111048000D01*
X178187317Y-111132037D01*
X178032037Y-111287317D01*
X177986191Y-111398000D01*
X177815200Y-111398000D01*
X177612317Y-111482037D01*
X177457037Y-111637317D01*
X177373000Y-111840200D01*
X174179500Y-111840200D01*
X174179500Y-109765200D01*
X174873000Y-109765200D01*
X174873000Y-109984800D01*
X174957037Y-110187683D01*
X175112317Y-110342963D01*
X175315200Y-110427000D01*
X175534800Y-110427000D01*
X175737683Y-110342963D01*
X175892963Y-110187683D01*
X175977000Y-109984800D01*
X175977000Y-109765200D01*
X175962503Y-109730200D01*
X176478000Y-109730200D01*
X176478000Y-109949800D01*
X176562037Y-110152683D01*
X176717317Y-110307963D01*
X176920200Y-110392000D01*
X177139800Y-110392000D01*
X177342683Y-110307963D01*
X177497963Y-110152683D01*
X177582000Y-109949800D01*
X177582000Y-109730200D01*
X177497963Y-109527317D01*
X177342683Y-109372037D01*
X177139800Y-109288000D01*
X176920200Y-109288000D01*
X176717317Y-109372037D01*
X176562037Y-109527317D01*
X176478000Y-109730200D01*
X175962503Y-109730200D01*
X175892963Y-109562317D01*
X175737683Y-109407037D01*
X175534800Y-109323000D01*
X175315200Y-109323000D01*
X175112317Y-109407037D01*
X174957037Y-109562317D01*
X174873000Y-109765200D01*
X174179500Y-109765200D01*
X174179500Y-109013000D01*
X180225500Y-109013000D01*
X180225500Y-112782546D01*
G04 #@! TD*
M02*
