G04 #@! TF.GenerationSoftware,KiCad,Pcbnew,5.0.2+dfsg1-1~bpo9+1*
G04 #@! TF.CreationDate,2019-10-08T18:25:51+02:00*
G04 #@! TF.ProjectId,OV9281,4f563932-3831-42e6-9b69-6361645f7063,rev?*
G04 #@! TF.SameCoordinates,Original*
G04 #@! TF.FileFunction,Drawing*
%FSLAX46Y46*%
G04 Gerber Fmt 4.6, Leading zero omitted, Abs format (unit mm)*
G04 Created by KiCad (PCBNEW 5.0.2+dfsg1-1~bpo9+1) date Tue 08 Oct 2019 06:25:51 PM CEST*
%MOMM*%
%LPD*%
G01*
G04 APERTURE LIST*
%ADD10C,0.200000*%
%ADD11C,0.150000*%
%ADD12C,0.300000*%
G04 APERTURE END LIST*
D10*
X248410000Y-122370000D02*
X258410000Y-122370000D01*
X248410000Y-120370000D02*
X258410000Y-120370000D01*
X248410000Y-118370000D02*
X258410000Y-118370000D01*
X248410000Y-116370000D02*
X258410000Y-116370000D01*
X248410000Y-114370000D02*
X258410000Y-114370000D01*
X248410000Y-112370000D02*
X258410000Y-112370000D01*
X248410000Y-110370000D02*
X258410000Y-110370000D01*
X248410000Y-108370000D02*
X258410000Y-108370000D01*
D11*
X241362380Y-116822380D02*
X241457619Y-116822380D01*
X241552857Y-116870000D01*
X241600476Y-116917619D01*
X241648095Y-117012857D01*
X241695714Y-117203333D01*
X241695714Y-117441428D01*
X241648095Y-117631904D01*
X241600476Y-117727142D01*
X241552857Y-117774761D01*
X241457619Y-117822380D01*
X241362380Y-117822380D01*
X241267142Y-117774761D01*
X241219523Y-117727142D01*
X241171904Y-117631904D01*
X241124285Y-117441428D01*
X241124285Y-117203333D01*
X241171904Y-117012857D01*
X241219523Y-116917619D01*
X241267142Y-116870000D01*
X241362380Y-116822380D01*
X242124285Y-117727142D02*
X242171904Y-117774761D01*
X242124285Y-117822380D01*
X242076666Y-117774761D01*
X242124285Y-117727142D01*
X242124285Y-117822380D01*
X242790952Y-116822380D02*
X242886190Y-116822380D01*
X242981428Y-116870000D01*
X243029047Y-116917619D01*
X243076666Y-117012857D01*
X243124285Y-117203333D01*
X243124285Y-117441428D01*
X243076666Y-117631904D01*
X243029047Y-117727142D01*
X242981428Y-117774761D01*
X242886190Y-117822380D01*
X242790952Y-117822380D01*
X242695714Y-117774761D01*
X242648095Y-117727142D01*
X242600476Y-117631904D01*
X242552857Y-117441428D01*
X242552857Y-117203333D01*
X242600476Y-117012857D01*
X242648095Y-116917619D01*
X242695714Y-116870000D01*
X242790952Y-116822380D01*
X244076666Y-117822380D02*
X243505238Y-117822380D01*
X243790952Y-117822380D02*
X243790952Y-116822380D01*
X243695714Y-116965238D01*
X243600476Y-117060476D01*
X243505238Y-117108095D01*
X244648095Y-117250952D02*
X244552857Y-117203333D01*
X244505238Y-117155714D01*
X244457619Y-117060476D01*
X244457619Y-117012857D01*
X244505238Y-116917619D01*
X244552857Y-116870000D01*
X244648095Y-116822380D01*
X244838571Y-116822380D01*
X244933809Y-116870000D01*
X244981428Y-116917619D01*
X245029047Y-117012857D01*
X245029047Y-117060476D01*
X244981428Y-117155714D01*
X244933809Y-117203333D01*
X244838571Y-117250952D01*
X244648095Y-117250952D01*
X244552857Y-117298571D01*
X244505238Y-117346190D01*
X244457619Y-117441428D01*
X244457619Y-117631904D01*
X244505238Y-117727142D01*
X244552857Y-117774761D01*
X244648095Y-117822380D01*
X244838571Y-117822380D01*
X244933809Y-117774761D01*
X244981428Y-117727142D01*
X245029047Y-117631904D01*
X245029047Y-117441428D01*
X244981428Y-117346190D01*
X244933809Y-117298571D01*
X244838571Y-117250952D01*
X245457619Y-117822380D02*
X245457619Y-117155714D01*
X245457619Y-117250952D02*
X245505238Y-117203333D01*
X245600476Y-117155714D01*
X245743333Y-117155714D01*
X245838571Y-117203333D01*
X245886190Y-117298571D01*
X245886190Y-117822380D01*
X245886190Y-117298571D02*
X245933809Y-117203333D01*
X246029047Y-117155714D01*
X246171904Y-117155714D01*
X246267142Y-117203333D01*
X246314761Y-117298571D01*
X246314761Y-117822380D01*
X246790952Y-117822380D02*
X246790952Y-117155714D01*
X246790952Y-117250952D02*
X246838571Y-117203333D01*
X246933809Y-117155714D01*
X247076666Y-117155714D01*
X247171904Y-117203333D01*
X247219523Y-117298571D01*
X247219523Y-117822380D01*
X247219523Y-117298571D02*
X247267142Y-117203333D01*
X247362380Y-117155714D01*
X247505238Y-117155714D01*
X247600476Y-117203333D01*
X247648095Y-117298571D01*
X247648095Y-117822380D01*
X241362380Y-112822380D02*
X241457619Y-112822380D01*
X241552857Y-112870000D01*
X241600476Y-112917619D01*
X241648095Y-113012857D01*
X241695714Y-113203333D01*
X241695714Y-113441428D01*
X241648095Y-113631904D01*
X241600476Y-113727142D01*
X241552857Y-113774761D01*
X241457619Y-113822380D01*
X241362380Y-113822380D01*
X241267142Y-113774761D01*
X241219523Y-113727142D01*
X241171904Y-113631904D01*
X241124285Y-113441428D01*
X241124285Y-113203333D01*
X241171904Y-113012857D01*
X241219523Y-112917619D01*
X241267142Y-112870000D01*
X241362380Y-112822380D01*
X242124285Y-113727142D02*
X242171904Y-113774761D01*
X242124285Y-113822380D01*
X242076666Y-113774761D01*
X242124285Y-113727142D01*
X242124285Y-113822380D01*
X242790952Y-112822380D02*
X242886190Y-112822380D01*
X242981428Y-112870000D01*
X243029047Y-112917619D01*
X243076666Y-113012857D01*
X243124285Y-113203333D01*
X243124285Y-113441428D01*
X243076666Y-113631904D01*
X243029047Y-113727142D01*
X242981428Y-113774761D01*
X242886190Y-113822380D01*
X242790952Y-113822380D01*
X242695714Y-113774761D01*
X242648095Y-113727142D01*
X242600476Y-113631904D01*
X242552857Y-113441428D01*
X242552857Y-113203333D01*
X242600476Y-113012857D01*
X242648095Y-112917619D01*
X242695714Y-112870000D01*
X242790952Y-112822380D01*
X244076666Y-113822380D02*
X243505238Y-113822380D01*
X243790952Y-113822380D02*
X243790952Y-112822380D01*
X243695714Y-112965238D01*
X243600476Y-113060476D01*
X243505238Y-113108095D01*
X244648095Y-113250952D02*
X244552857Y-113203333D01*
X244505238Y-113155714D01*
X244457619Y-113060476D01*
X244457619Y-113012857D01*
X244505238Y-112917619D01*
X244552857Y-112870000D01*
X244648095Y-112822380D01*
X244838571Y-112822380D01*
X244933809Y-112870000D01*
X244981428Y-112917619D01*
X245029047Y-113012857D01*
X245029047Y-113060476D01*
X244981428Y-113155714D01*
X244933809Y-113203333D01*
X244838571Y-113250952D01*
X244648095Y-113250952D01*
X244552857Y-113298571D01*
X244505238Y-113346190D01*
X244457619Y-113441428D01*
X244457619Y-113631904D01*
X244505238Y-113727142D01*
X244552857Y-113774761D01*
X244648095Y-113822380D01*
X244838571Y-113822380D01*
X244933809Y-113774761D01*
X244981428Y-113727142D01*
X245029047Y-113631904D01*
X245029047Y-113441428D01*
X244981428Y-113346190D01*
X244933809Y-113298571D01*
X244838571Y-113250952D01*
X245457619Y-113822380D02*
X245457619Y-113155714D01*
X245457619Y-113250952D02*
X245505238Y-113203333D01*
X245600476Y-113155714D01*
X245743333Y-113155714D01*
X245838571Y-113203333D01*
X245886190Y-113298571D01*
X245886190Y-113822380D01*
X245886190Y-113298571D02*
X245933809Y-113203333D01*
X246029047Y-113155714D01*
X246171904Y-113155714D01*
X246267142Y-113203333D01*
X246314761Y-113298571D01*
X246314761Y-113822380D01*
X246790952Y-113822380D02*
X246790952Y-113155714D01*
X246790952Y-113250952D02*
X246838571Y-113203333D01*
X246933809Y-113155714D01*
X247076666Y-113155714D01*
X247171904Y-113203333D01*
X247219523Y-113298571D01*
X247219523Y-113822380D01*
X247219523Y-113298571D02*
X247267142Y-113203333D01*
X247362380Y-113155714D01*
X247505238Y-113155714D01*
X247600476Y-113203333D01*
X247648095Y-113298571D01*
X247648095Y-113822380D01*
X241838571Y-110822380D02*
X241933809Y-110822380D01*
X242029047Y-110870000D01*
X242076666Y-110917619D01*
X242124285Y-111012857D01*
X242171904Y-111203333D01*
X242171904Y-111441428D01*
X242124285Y-111631904D01*
X242076666Y-111727142D01*
X242029047Y-111774761D01*
X241933809Y-111822380D01*
X241838571Y-111822380D01*
X241743333Y-111774761D01*
X241695714Y-111727142D01*
X241648095Y-111631904D01*
X241600476Y-111441428D01*
X241600476Y-111203333D01*
X241648095Y-111012857D01*
X241695714Y-110917619D01*
X241743333Y-110870000D01*
X241838571Y-110822380D01*
X242600476Y-111727142D02*
X242648095Y-111774761D01*
X242600476Y-111822380D01*
X242552857Y-111774761D01*
X242600476Y-111727142D01*
X242600476Y-111822380D01*
X243600476Y-111822380D02*
X243029047Y-111822380D01*
X243314761Y-111822380D02*
X243314761Y-110822380D01*
X243219523Y-110965238D01*
X243124285Y-111060476D01*
X243029047Y-111108095D01*
X243981428Y-110917619D02*
X244029047Y-110870000D01*
X244124285Y-110822380D01*
X244362380Y-110822380D01*
X244457619Y-110870000D01*
X244505238Y-110917619D01*
X244552857Y-111012857D01*
X244552857Y-111108095D01*
X244505238Y-111250952D01*
X243933809Y-111822380D01*
X244552857Y-111822380D01*
X244981428Y-111822380D02*
X244981428Y-111155714D01*
X244981428Y-111250952D02*
X245029047Y-111203333D01*
X245124285Y-111155714D01*
X245267142Y-111155714D01*
X245362380Y-111203333D01*
X245410000Y-111298571D01*
X245410000Y-111822380D01*
X245410000Y-111298571D02*
X245457619Y-111203333D01*
X245552857Y-111155714D01*
X245695714Y-111155714D01*
X245790952Y-111203333D01*
X245838571Y-111298571D01*
X245838571Y-111822380D01*
X246314761Y-111822380D02*
X246314761Y-111155714D01*
X246314761Y-111250952D02*
X246362380Y-111203333D01*
X246457619Y-111155714D01*
X246600476Y-111155714D01*
X246695714Y-111203333D01*
X246743333Y-111298571D01*
X246743333Y-111822380D01*
X246743333Y-111298571D02*
X246790952Y-111203333D01*
X246886190Y-111155714D01*
X247029047Y-111155714D01*
X247124285Y-111203333D01*
X247171904Y-111298571D01*
X247171904Y-111822380D01*
X241838571Y-118822380D02*
X241933809Y-118822380D01*
X242029047Y-118870000D01*
X242076666Y-118917619D01*
X242124285Y-119012857D01*
X242171904Y-119203333D01*
X242171904Y-119441428D01*
X242124285Y-119631904D01*
X242076666Y-119727142D01*
X242029047Y-119774761D01*
X241933809Y-119822380D01*
X241838571Y-119822380D01*
X241743333Y-119774761D01*
X241695714Y-119727142D01*
X241648095Y-119631904D01*
X241600476Y-119441428D01*
X241600476Y-119203333D01*
X241648095Y-119012857D01*
X241695714Y-118917619D01*
X241743333Y-118870000D01*
X241838571Y-118822380D01*
X242600476Y-119727142D02*
X242648095Y-119774761D01*
X242600476Y-119822380D01*
X242552857Y-119774761D01*
X242600476Y-119727142D01*
X242600476Y-119822380D01*
X243600476Y-119822380D02*
X243029047Y-119822380D01*
X243314761Y-119822380D02*
X243314761Y-118822380D01*
X243219523Y-118965238D01*
X243124285Y-119060476D01*
X243029047Y-119108095D01*
X243981428Y-118917619D02*
X244029047Y-118870000D01*
X244124285Y-118822380D01*
X244362380Y-118822380D01*
X244457619Y-118870000D01*
X244505238Y-118917619D01*
X244552857Y-119012857D01*
X244552857Y-119108095D01*
X244505238Y-119250952D01*
X243933809Y-119822380D01*
X244552857Y-119822380D01*
X244981428Y-119822380D02*
X244981428Y-119155714D01*
X244981428Y-119250952D02*
X245029047Y-119203333D01*
X245124285Y-119155714D01*
X245267142Y-119155714D01*
X245362380Y-119203333D01*
X245410000Y-119298571D01*
X245410000Y-119822380D01*
X245410000Y-119298571D02*
X245457619Y-119203333D01*
X245552857Y-119155714D01*
X245695714Y-119155714D01*
X245790952Y-119203333D01*
X245838571Y-119298571D01*
X245838571Y-119822380D01*
X246314761Y-119822380D02*
X246314761Y-119155714D01*
X246314761Y-119250952D02*
X246362380Y-119203333D01*
X246457619Y-119155714D01*
X246600476Y-119155714D01*
X246695714Y-119203333D01*
X246743333Y-119298571D01*
X246743333Y-119822380D01*
X246743333Y-119298571D02*
X246790952Y-119203333D01*
X246886190Y-119155714D01*
X247029047Y-119155714D01*
X247124285Y-119203333D01*
X247171904Y-119298571D01*
X247171904Y-119822380D01*
X242648095Y-115822380D02*
X242076666Y-115822380D01*
X242362380Y-115822380D02*
X242362380Y-114822380D01*
X242267142Y-114965238D01*
X242171904Y-115060476D01*
X242076666Y-115108095D01*
X243076666Y-115727142D02*
X243124285Y-115774761D01*
X243076666Y-115822380D01*
X243029047Y-115774761D01*
X243076666Y-115727142D01*
X243076666Y-115822380D01*
X243505238Y-114917619D02*
X243552857Y-114870000D01*
X243648095Y-114822380D01*
X243886190Y-114822380D01*
X243981428Y-114870000D01*
X244029047Y-114917619D01*
X244076666Y-115012857D01*
X244076666Y-115108095D01*
X244029047Y-115250952D01*
X243457619Y-115822380D01*
X244076666Y-115822380D01*
X244505238Y-115822380D02*
X244505238Y-115155714D01*
X244505238Y-115250952D02*
X244552857Y-115203333D01*
X244648095Y-115155714D01*
X244790952Y-115155714D01*
X244886190Y-115203333D01*
X244933809Y-115298571D01*
X244933809Y-115822380D01*
X244933809Y-115298571D02*
X244981428Y-115203333D01*
X245076666Y-115155714D01*
X245219523Y-115155714D01*
X245314761Y-115203333D01*
X245362380Y-115298571D01*
X245362380Y-115822380D01*
X245838571Y-115822380D02*
X245838571Y-115155714D01*
X245838571Y-115250952D02*
X245886190Y-115203333D01*
X245981428Y-115155714D01*
X246124285Y-115155714D01*
X246219523Y-115203333D01*
X246267142Y-115298571D01*
X246267142Y-115822380D01*
X246267142Y-115298571D02*
X246314761Y-115203333D01*
X246410000Y-115155714D01*
X246552857Y-115155714D01*
X246648095Y-115203333D01*
X246695714Y-115298571D01*
X246695714Y-115822380D01*
X241838571Y-122822380D02*
X241933809Y-122822380D01*
X242029047Y-122870000D01*
X242076666Y-122917619D01*
X242124285Y-123012857D01*
X242171904Y-123203333D01*
X242171904Y-123441428D01*
X242124285Y-123631904D01*
X242076666Y-123727142D01*
X242029047Y-123774761D01*
X241933809Y-123822380D01*
X241838571Y-123822380D01*
X241743333Y-123774761D01*
X241695714Y-123727142D01*
X241648095Y-123631904D01*
X241600476Y-123441428D01*
X241600476Y-123203333D01*
X241648095Y-123012857D01*
X241695714Y-122917619D01*
X241743333Y-122870000D01*
X241838571Y-122822380D01*
X242600476Y-123727142D02*
X242648095Y-123774761D01*
X242600476Y-123822380D01*
X242552857Y-123774761D01*
X242600476Y-123727142D01*
X242600476Y-123822380D01*
X243267142Y-122822380D02*
X243362380Y-122822380D01*
X243457619Y-122870000D01*
X243505238Y-122917619D01*
X243552857Y-123012857D01*
X243600476Y-123203333D01*
X243600476Y-123441428D01*
X243552857Y-123631904D01*
X243505238Y-123727142D01*
X243457619Y-123774761D01*
X243362380Y-123822380D01*
X243267142Y-123822380D01*
X243171904Y-123774761D01*
X243124285Y-123727142D01*
X243076666Y-123631904D01*
X243029047Y-123441428D01*
X243029047Y-123203333D01*
X243076666Y-123012857D01*
X243124285Y-122917619D01*
X243171904Y-122870000D01*
X243267142Y-122822380D01*
X243981428Y-122917619D02*
X244029047Y-122870000D01*
X244124285Y-122822380D01*
X244362380Y-122822380D01*
X244457619Y-122870000D01*
X244505238Y-122917619D01*
X244552857Y-123012857D01*
X244552857Y-123108095D01*
X244505238Y-123250952D01*
X243933809Y-123822380D01*
X244552857Y-123822380D01*
X244981428Y-123822380D02*
X244981428Y-123155714D01*
X244981428Y-123250952D02*
X245029047Y-123203333D01*
X245124285Y-123155714D01*
X245267142Y-123155714D01*
X245362380Y-123203333D01*
X245410000Y-123298571D01*
X245410000Y-123822380D01*
X245410000Y-123298571D02*
X245457619Y-123203333D01*
X245552857Y-123155714D01*
X245695714Y-123155714D01*
X245790952Y-123203333D01*
X245838571Y-123298571D01*
X245838571Y-123822380D01*
X246314761Y-123822380D02*
X246314761Y-123155714D01*
X246314761Y-123250952D02*
X246362380Y-123203333D01*
X246457619Y-123155714D01*
X246600476Y-123155714D01*
X246695714Y-123203333D01*
X246743333Y-123298571D01*
X246743333Y-123822380D01*
X246743333Y-123298571D02*
X246790952Y-123203333D01*
X246886190Y-123155714D01*
X247029047Y-123155714D01*
X247124285Y-123203333D01*
X247171904Y-123298571D01*
X247171904Y-123822380D01*
D10*
X248410000Y-104370000D02*
X258410000Y-104370000D01*
X258410000Y-104370000D02*
X258410000Y-124370000D01*
X258410000Y-124370000D02*
X248410000Y-124370000D01*
X248410000Y-124370000D02*
X248410000Y-122370000D01*
X227410000Y-104370000D02*
X227410000Y-124370000D01*
D11*
X228576666Y-107774761D02*
X228719523Y-107822380D01*
X228957619Y-107822380D01*
X229052857Y-107774761D01*
X229100476Y-107727142D01*
X229148095Y-107631904D01*
X229148095Y-107536666D01*
X229100476Y-107441428D01*
X229052857Y-107393809D01*
X228957619Y-107346190D01*
X228767142Y-107298571D01*
X228671904Y-107250952D01*
X228624285Y-107203333D01*
X228576666Y-107108095D01*
X228576666Y-107012857D01*
X228624285Y-106917619D01*
X228671904Y-106870000D01*
X228767142Y-106822380D01*
X229005238Y-106822380D01*
X229148095Y-106870000D01*
X229719523Y-107822380D02*
X229624285Y-107774761D01*
X229576666Y-107727142D01*
X229529047Y-107631904D01*
X229529047Y-107346190D01*
X229576666Y-107250952D01*
X229624285Y-107203333D01*
X229719523Y-107155714D01*
X229862380Y-107155714D01*
X229957619Y-107203333D01*
X230005238Y-107250952D01*
X230052857Y-107346190D01*
X230052857Y-107631904D01*
X230005238Y-107727142D01*
X229957619Y-107774761D01*
X229862380Y-107822380D01*
X229719523Y-107822380D01*
X230624285Y-107822380D02*
X230529047Y-107774761D01*
X230481428Y-107679523D01*
X230481428Y-106822380D01*
X231433809Y-107822380D02*
X231433809Y-106822380D01*
X231433809Y-107774761D02*
X231338571Y-107822380D01*
X231148095Y-107822380D01*
X231052857Y-107774761D01*
X231005238Y-107727142D01*
X230957619Y-107631904D01*
X230957619Y-107346190D01*
X231005238Y-107250952D01*
X231052857Y-107203333D01*
X231148095Y-107155714D01*
X231338571Y-107155714D01*
X231433809Y-107203333D01*
X232290952Y-107774761D02*
X232195714Y-107822380D01*
X232005238Y-107822380D01*
X231910000Y-107774761D01*
X231862380Y-107679523D01*
X231862380Y-107298571D01*
X231910000Y-107203333D01*
X232005238Y-107155714D01*
X232195714Y-107155714D01*
X232290952Y-107203333D01*
X232338571Y-107298571D01*
X232338571Y-107393809D01*
X231862380Y-107489047D01*
X232767142Y-107822380D02*
X232767142Y-107155714D01*
X232767142Y-107346190D02*
X232814761Y-107250952D01*
X232862380Y-107203333D01*
X232957619Y-107155714D01*
X233052857Y-107155714D01*
X234719523Y-107822380D02*
X234386190Y-107346190D01*
X234148095Y-107822380D02*
X234148095Y-106822380D01*
X234529047Y-106822380D01*
X234624285Y-106870000D01*
X234671904Y-106917619D01*
X234719523Y-107012857D01*
X234719523Y-107155714D01*
X234671904Y-107250952D01*
X234624285Y-107298571D01*
X234529047Y-107346190D01*
X234148095Y-107346190D01*
X235529047Y-107774761D02*
X235433809Y-107822380D01*
X235243333Y-107822380D01*
X235148095Y-107774761D01*
X235100476Y-107679523D01*
X235100476Y-107298571D01*
X235148095Y-107203333D01*
X235243333Y-107155714D01*
X235433809Y-107155714D01*
X235529047Y-107203333D01*
X235576666Y-107298571D01*
X235576666Y-107393809D01*
X235100476Y-107489047D01*
X235957619Y-107774761D02*
X236052857Y-107822380D01*
X236243333Y-107822380D01*
X236338571Y-107774761D01*
X236386190Y-107679523D01*
X236386190Y-107631904D01*
X236338571Y-107536666D01*
X236243333Y-107489047D01*
X236100476Y-107489047D01*
X236005238Y-107441428D01*
X235957619Y-107346190D01*
X235957619Y-107298571D01*
X236005238Y-107203333D01*
X236100476Y-107155714D01*
X236243333Y-107155714D01*
X236338571Y-107203333D01*
X236814761Y-107822380D02*
X236814761Y-107155714D01*
X236814761Y-106822380D02*
X236767142Y-106870000D01*
X236814761Y-106917619D01*
X236862380Y-106870000D01*
X236814761Y-106822380D01*
X236814761Y-106917619D01*
X237243333Y-107774761D02*
X237338571Y-107822380D01*
X237529047Y-107822380D01*
X237624285Y-107774761D01*
X237671904Y-107679523D01*
X237671904Y-107631904D01*
X237624285Y-107536666D01*
X237529047Y-107489047D01*
X237386190Y-107489047D01*
X237290952Y-107441428D01*
X237243333Y-107346190D01*
X237243333Y-107298571D01*
X237290952Y-107203333D01*
X237386190Y-107155714D01*
X237529047Y-107155714D01*
X237624285Y-107203333D01*
X237957619Y-107155714D02*
X238338571Y-107155714D01*
X238100476Y-106822380D02*
X238100476Y-107679523D01*
X238148095Y-107774761D01*
X238243333Y-107822380D01*
X238338571Y-107822380D01*
X230624285Y-113727142D02*
X230576666Y-113774761D01*
X230433809Y-113822380D01*
X230338571Y-113822380D01*
X230195714Y-113774761D01*
X230100476Y-113679523D01*
X230052857Y-113584285D01*
X230005238Y-113393809D01*
X230005238Y-113250952D01*
X230052857Y-113060476D01*
X230100476Y-112965238D01*
X230195714Y-112870000D01*
X230338571Y-112822380D01*
X230433809Y-112822380D01*
X230576666Y-112870000D01*
X230624285Y-112917619D01*
X231195714Y-113822380D02*
X231100476Y-113774761D01*
X231052857Y-113727142D01*
X231005238Y-113631904D01*
X231005238Y-113346190D01*
X231052857Y-113250952D01*
X231100476Y-113203333D01*
X231195714Y-113155714D01*
X231338571Y-113155714D01*
X231433809Y-113203333D01*
X231481428Y-113250952D01*
X231529047Y-113346190D01*
X231529047Y-113631904D01*
X231481428Y-113727142D01*
X231433809Y-113774761D01*
X231338571Y-113822380D01*
X231195714Y-113822380D01*
X231957619Y-113155714D02*
X231957619Y-114155714D01*
X231957619Y-113203333D02*
X232052857Y-113155714D01*
X232243333Y-113155714D01*
X232338571Y-113203333D01*
X232386190Y-113250952D01*
X232433809Y-113346190D01*
X232433809Y-113631904D01*
X232386190Y-113727142D01*
X232338571Y-113774761D01*
X232243333Y-113822380D01*
X232052857Y-113822380D01*
X231957619Y-113774761D01*
X232862380Y-113155714D02*
X232862380Y-114155714D01*
X232862380Y-113203333D02*
X232957619Y-113155714D01*
X233148095Y-113155714D01*
X233243333Y-113203333D01*
X233290952Y-113250952D01*
X233338571Y-113346190D01*
X233338571Y-113631904D01*
X233290952Y-113727142D01*
X233243333Y-113774761D01*
X233148095Y-113822380D01*
X232957619Y-113822380D01*
X232862380Y-113774761D01*
X234148095Y-113774761D02*
X234052857Y-113822380D01*
X233862380Y-113822380D01*
X233767142Y-113774761D01*
X233719523Y-113679523D01*
X233719523Y-113298571D01*
X233767142Y-113203333D01*
X233862380Y-113155714D01*
X234052857Y-113155714D01*
X234148095Y-113203333D01*
X234195714Y-113298571D01*
X234195714Y-113393809D01*
X233719523Y-113489047D01*
X234624285Y-113822380D02*
X234624285Y-113155714D01*
X234624285Y-113346190D02*
X234671904Y-113250952D01*
X234719523Y-113203333D01*
X234814761Y-113155714D01*
X234910000Y-113155714D01*
X230624285Y-109727142D02*
X230576666Y-109774761D01*
X230433809Y-109822380D01*
X230338571Y-109822380D01*
X230195714Y-109774761D01*
X230100476Y-109679523D01*
X230052857Y-109584285D01*
X230005238Y-109393809D01*
X230005238Y-109250952D01*
X230052857Y-109060476D01*
X230100476Y-108965238D01*
X230195714Y-108870000D01*
X230338571Y-108822380D01*
X230433809Y-108822380D01*
X230576666Y-108870000D01*
X230624285Y-108917619D01*
X231195714Y-109822380D02*
X231100476Y-109774761D01*
X231052857Y-109727142D01*
X231005238Y-109631904D01*
X231005238Y-109346190D01*
X231052857Y-109250952D01*
X231100476Y-109203333D01*
X231195714Y-109155714D01*
X231338571Y-109155714D01*
X231433809Y-109203333D01*
X231481428Y-109250952D01*
X231529047Y-109346190D01*
X231529047Y-109631904D01*
X231481428Y-109727142D01*
X231433809Y-109774761D01*
X231338571Y-109822380D01*
X231195714Y-109822380D01*
X231957619Y-109155714D02*
X231957619Y-110155714D01*
X231957619Y-109203333D02*
X232052857Y-109155714D01*
X232243333Y-109155714D01*
X232338571Y-109203333D01*
X232386190Y-109250952D01*
X232433809Y-109346190D01*
X232433809Y-109631904D01*
X232386190Y-109727142D01*
X232338571Y-109774761D01*
X232243333Y-109822380D01*
X232052857Y-109822380D01*
X231957619Y-109774761D01*
X232862380Y-109155714D02*
X232862380Y-110155714D01*
X232862380Y-109203333D02*
X232957619Y-109155714D01*
X233148095Y-109155714D01*
X233243333Y-109203333D01*
X233290952Y-109250952D01*
X233338571Y-109346190D01*
X233338571Y-109631904D01*
X233290952Y-109727142D01*
X233243333Y-109774761D01*
X233148095Y-109822380D01*
X232957619Y-109822380D01*
X232862380Y-109774761D01*
X234148095Y-109774761D02*
X234052857Y-109822380D01*
X233862380Y-109822380D01*
X233767142Y-109774761D01*
X233719523Y-109679523D01*
X233719523Y-109298571D01*
X233767142Y-109203333D01*
X233862380Y-109155714D01*
X234052857Y-109155714D01*
X234148095Y-109203333D01*
X234195714Y-109298571D01*
X234195714Y-109393809D01*
X233719523Y-109489047D01*
X234624285Y-109822380D02*
X234624285Y-109155714D01*
X234624285Y-109346190D02*
X234671904Y-109250952D01*
X234719523Y-109203333D01*
X234814761Y-109155714D01*
X234910000Y-109155714D01*
X230624285Y-117727142D02*
X230576666Y-117774761D01*
X230433809Y-117822380D01*
X230338571Y-117822380D01*
X230195714Y-117774761D01*
X230100476Y-117679523D01*
X230052857Y-117584285D01*
X230005238Y-117393809D01*
X230005238Y-117250952D01*
X230052857Y-117060476D01*
X230100476Y-116965238D01*
X230195714Y-116870000D01*
X230338571Y-116822380D01*
X230433809Y-116822380D01*
X230576666Y-116870000D01*
X230624285Y-116917619D01*
X231195714Y-117822380D02*
X231100476Y-117774761D01*
X231052857Y-117727142D01*
X231005238Y-117631904D01*
X231005238Y-117346190D01*
X231052857Y-117250952D01*
X231100476Y-117203333D01*
X231195714Y-117155714D01*
X231338571Y-117155714D01*
X231433809Y-117203333D01*
X231481428Y-117250952D01*
X231529047Y-117346190D01*
X231529047Y-117631904D01*
X231481428Y-117727142D01*
X231433809Y-117774761D01*
X231338571Y-117822380D01*
X231195714Y-117822380D01*
X231957619Y-117155714D02*
X231957619Y-118155714D01*
X231957619Y-117203333D02*
X232052857Y-117155714D01*
X232243333Y-117155714D01*
X232338571Y-117203333D01*
X232386190Y-117250952D01*
X232433809Y-117346190D01*
X232433809Y-117631904D01*
X232386190Y-117727142D01*
X232338571Y-117774761D01*
X232243333Y-117822380D01*
X232052857Y-117822380D01*
X231957619Y-117774761D01*
X232862380Y-117155714D02*
X232862380Y-118155714D01*
X232862380Y-117203333D02*
X232957619Y-117155714D01*
X233148095Y-117155714D01*
X233243333Y-117203333D01*
X233290952Y-117250952D01*
X233338571Y-117346190D01*
X233338571Y-117631904D01*
X233290952Y-117727142D01*
X233243333Y-117774761D01*
X233148095Y-117822380D01*
X232957619Y-117822380D01*
X232862380Y-117774761D01*
X234148095Y-117774761D02*
X234052857Y-117822380D01*
X233862380Y-117822380D01*
X233767142Y-117774761D01*
X233719523Y-117679523D01*
X233719523Y-117298571D01*
X233767142Y-117203333D01*
X233862380Y-117155714D01*
X234052857Y-117155714D01*
X234148095Y-117203333D01*
X234195714Y-117298571D01*
X234195714Y-117393809D01*
X233719523Y-117489047D01*
X234624285Y-117822380D02*
X234624285Y-117155714D01*
X234624285Y-117346190D02*
X234671904Y-117250952D01*
X234719523Y-117203333D01*
X234814761Y-117155714D01*
X234910000Y-117155714D01*
X230957619Y-115298571D02*
X230624285Y-115298571D01*
X230624285Y-115822380D02*
X230624285Y-114822380D01*
X231100476Y-114822380D01*
X232052857Y-115822380D02*
X231719523Y-115346190D01*
X231481428Y-115822380D02*
X231481428Y-114822380D01*
X231862380Y-114822380D01*
X231957619Y-114870000D01*
X232005238Y-114917619D01*
X232052857Y-115012857D01*
X232052857Y-115155714D01*
X232005238Y-115250952D01*
X231957619Y-115298571D01*
X231862380Y-115346190D01*
X231481428Y-115346190D01*
X232481428Y-115441428D02*
X233243333Y-115441428D01*
X234148095Y-115155714D02*
X234148095Y-115822380D01*
X233910000Y-114774761D02*
X233671904Y-115489047D01*
X234290952Y-115489047D01*
X228576666Y-123774761D02*
X228719523Y-123822380D01*
X228957619Y-123822380D01*
X229052857Y-123774761D01*
X229100476Y-123727142D01*
X229148095Y-123631904D01*
X229148095Y-123536666D01*
X229100476Y-123441428D01*
X229052857Y-123393809D01*
X228957619Y-123346190D01*
X228767142Y-123298571D01*
X228671904Y-123250952D01*
X228624285Y-123203333D01*
X228576666Y-123108095D01*
X228576666Y-123012857D01*
X228624285Y-122917619D01*
X228671904Y-122870000D01*
X228767142Y-122822380D01*
X229005238Y-122822380D01*
X229148095Y-122870000D01*
X229719523Y-123822380D02*
X229624285Y-123774761D01*
X229576666Y-123727142D01*
X229529047Y-123631904D01*
X229529047Y-123346190D01*
X229576666Y-123250952D01*
X229624285Y-123203333D01*
X229719523Y-123155714D01*
X229862380Y-123155714D01*
X229957619Y-123203333D01*
X230005238Y-123250952D01*
X230052857Y-123346190D01*
X230052857Y-123631904D01*
X230005238Y-123727142D01*
X229957619Y-123774761D01*
X229862380Y-123822380D01*
X229719523Y-123822380D01*
X230624285Y-123822380D02*
X230529047Y-123774761D01*
X230481428Y-123679523D01*
X230481428Y-122822380D01*
X231433809Y-123822380D02*
X231433809Y-122822380D01*
X231433809Y-123774761D02*
X231338571Y-123822380D01*
X231148095Y-123822380D01*
X231052857Y-123774761D01*
X231005238Y-123727142D01*
X230957619Y-123631904D01*
X230957619Y-123346190D01*
X231005238Y-123250952D01*
X231052857Y-123203333D01*
X231148095Y-123155714D01*
X231338571Y-123155714D01*
X231433809Y-123203333D01*
X232290952Y-123774761D02*
X232195714Y-123822380D01*
X232005238Y-123822380D01*
X231910000Y-123774761D01*
X231862380Y-123679523D01*
X231862380Y-123298571D01*
X231910000Y-123203333D01*
X232005238Y-123155714D01*
X232195714Y-123155714D01*
X232290952Y-123203333D01*
X232338571Y-123298571D01*
X232338571Y-123393809D01*
X231862380Y-123489047D01*
X232767142Y-123822380D02*
X232767142Y-123155714D01*
X232767142Y-123346190D02*
X232814761Y-123250952D01*
X232862380Y-123203333D01*
X232957619Y-123155714D01*
X233052857Y-123155714D01*
X234719523Y-123822380D02*
X234386190Y-123346190D01*
X234148095Y-123822380D02*
X234148095Y-122822380D01*
X234529047Y-122822380D01*
X234624285Y-122870000D01*
X234671904Y-122917619D01*
X234719523Y-123012857D01*
X234719523Y-123155714D01*
X234671904Y-123250952D01*
X234624285Y-123298571D01*
X234529047Y-123346190D01*
X234148095Y-123346190D01*
X235529047Y-123774761D02*
X235433809Y-123822380D01*
X235243333Y-123822380D01*
X235148095Y-123774761D01*
X235100476Y-123679523D01*
X235100476Y-123298571D01*
X235148095Y-123203333D01*
X235243333Y-123155714D01*
X235433809Y-123155714D01*
X235529047Y-123203333D01*
X235576666Y-123298571D01*
X235576666Y-123393809D01*
X235100476Y-123489047D01*
X235957619Y-123774761D02*
X236052857Y-123822380D01*
X236243333Y-123822380D01*
X236338571Y-123774761D01*
X236386190Y-123679523D01*
X236386190Y-123631904D01*
X236338571Y-123536666D01*
X236243333Y-123489047D01*
X236100476Y-123489047D01*
X236005238Y-123441428D01*
X235957619Y-123346190D01*
X235957619Y-123298571D01*
X236005238Y-123203333D01*
X236100476Y-123155714D01*
X236243333Y-123155714D01*
X236338571Y-123203333D01*
X236814761Y-123822380D02*
X236814761Y-123155714D01*
X236814761Y-122822380D02*
X236767142Y-122870000D01*
X236814761Y-122917619D01*
X236862380Y-122870000D01*
X236814761Y-122822380D01*
X236814761Y-122917619D01*
X237243333Y-123774761D02*
X237338571Y-123822380D01*
X237529047Y-123822380D01*
X237624285Y-123774761D01*
X237671904Y-123679523D01*
X237671904Y-123631904D01*
X237624285Y-123536666D01*
X237529047Y-123489047D01*
X237386190Y-123489047D01*
X237290952Y-123441428D01*
X237243333Y-123346190D01*
X237243333Y-123298571D01*
X237290952Y-123203333D01*
X237386190Y-123155714D01*
X237529047Y-123155714D01*
X237624285Y-123203333D01*
X237957619Y-123155714D02*
X238338571Y-123155714D01*
X238100476Y-122822380D02*
X238100476Y-123679523D01*
X238148095Y-123774761D01*
X238243333Y-123822380D01*
X238338571Y-123822380D01*
X230624285Y-121727142D02*
X230576666Y-121774761D01*
X230433809Y-121822380D01*
X230338571Y-121822380D01*
X230195714Y-121774761D01*
X230100476Y-121679523D01*
X230052857Y-121584285D01*
X230005238Y-121393809D01*
X230005238Y-121250952D01*
X230052857Y-121060476D01*
X230100476Y-120965238D01*
X230195714Y-120870000D01*
X230338571Y-120822380D01*
X230433809Y-120822380D01*
X230576666Y-120870000D01*
X230624285Y-120917619D01*
X231195714Y-121822380D02*
X231100476Y-121774761D01*
X231052857Y-121727142D01*
X231005238Y-121631904D01*
X231005238Y-121346190D01*
X231052857Y-121250952D01*
X231100476Y-121203333D01*
X231195714Y-121155714D01*
X231338571Y-121155714D01*
X231433809Y-121203333D01*
X231481428Y-121250952D01*
X231529047Y-121346190D01*
X231529047Y-121631904D01*
X231481428Y-121727142D01*
X231433809Y-121774761D01*
X231338571Y-121822380D01*
X231195714Y-121822380D01*
X231957619Y-121155714D02*
X231957619Y-122155714D01*
X231957619Y-121203333D02*
X232052857Y-121155714D01*
X232243333Y-121155714D01*
X232338571Y-121203333D01*
X232386190Y-121250952D01*
X232433809Y-121346190D01*
X232433809Y-121631904D01*
X232386190Y-121727142D01*
X232338571Y-121774761D01*
X232243333Y-121822380D01*
X232052857Y-121822380D01*
X231957619Y-121774761D01*
X232862380Y-121155714D02*
X232862380Y-122155714D01*
X232862380Y-121203333D02*
X232957619Y-121155714D01*
X233148095Y-121155714D01*
X233243333Y-121203333D01*
X233290952Y-121250952D01*
X233338571Y-121346190D01*
X233338571Y-121631904D01*
X233290952Y-121727142D01*
X233243333Y-121774761D01*
X233148095Y-121822380D01*
X232957619Y-121822380D01*
X232862380Y-121774761D01*
X234148095Y-121774761D02*
X234052857Y-121822380D01*
X233862380Y-121822380D01*
X233767142Y-121774761D01*
X233719523Y-121679523D01*
X233719523Y-121298571D01*
X233767142Y-121203333D01*
X233862380Y-121155714D01*
X234052857Y-121155714D01*
X234148095Y-121203333D01*
X234195714Y-121298571D01*
X234195714Y-121393809D01*
X233719523Y-121489047D01*
X234624285Y-121822380D02*
X234624285Y-121155714D01*
X234624285Y-121346190D02*
X234671904Y-121250952D01*
X234719523Y-121203333D01*
X234814761Y-121155714D01*
X234910000Y-121155714D01*
D10*
X239410000Y-104370000D02*
X239410000Y-124370000D01*
X248410000Y-104370000D02*
X248410000Y-124370000D01*
D11*
X241838571Y-106822380D02*
X241933809Y-106822380D01*
X242029047Y-106870000D01*
X242076666Y-106917619D01*
X242124285Y-107012857D01*
X242171904Y-107203333D01*
X242171904Y-107441428D01*
X242124285Y-107631904D01*
X242076666Y-107727142D01*
X242029047Y-107774761D01*
X241933809Y-107822380D01*
X241838571Y-107822380D01*
X241743333Y-107774761D01*
X241695714Y-107727142D01*
X241648095Y-107631904D01*
X241600476Y-107441428D01*
X241600476Y-107203333D01*
X241648095Y-107012857D01*
X241695714Y-106917619D01*
X241743333Y-106870000D01*
X241838571Y-106822380D01*
X242600476Y-107727142D02*
X242648095Y-107774761D01*
X242600476Y-107822380D01*
X242552857Y-107774761D01*
X242600476Y-107727142D01*
X242600476Y-107822380D01*
X243267142Y-106822380D02*
X243362380Y-106822380D01*
X243457619Y-106870000D01*
X243505238Y-106917619D01*
X243552857Y-107012857D01*
X243600476Y-107203333D01*
X243600476Y-107441428D01*
X243552857Y-107631904D01*
X243505238Y-107727142D01*
X243457619Y-107774761D01*
X243362380Y-107822380D01*
X243267142Y-107822380D01*
X243171904Y-107774761D01*
X243124285Y-107727142D01*
X243076666Y-107631904D01*
X243029047Y-107441428D01*
X243029047Y-107203333D01*
X243076666Y-107012857D01*
X243124285Y-106917619D01*
X243171904Y-106870000D01*
X243267142Y-106822380D01*
X243981428Y-106917619D02*
X244029047Y-106870000D01*
X244124285Y-106822380D01*
X244362380Y-106822380D01*
X244457619Y-106870000D01*
X244505238Y-106917619D01*
X244552857Y-107012857D01*
X244552857Y-107108095D01*
X244505238Y-107250952D01*
X243933809Y-107822380D01*
X244552857Y-107822380D01*
X244981428Y-107822380D02*
X244981428Y-107155714D01*
X244981428Y-107250952D02*
X245029047Y-107203333D01*
X245124285Y-107155714D01*
X245267142Y-107155714D01*
X245362380Y-107203333D01*
X245410000Y-107298571D01*
X245410000Y-107822380D01*
X245410000Y-107298571D02*
X245457619Y-107203333D01*
X245552857Y-107155714D01*
X245695714Y-107155714D01*
X245790952Y-107203333D01*
X245838571Y-107298571D01*
X245838571Y-107822380D01*
X246314761Y-107822380D02*
X246314761Y-107155714D01*
X246314761Y-107250952D02*
X246362380Y-107203333D01*
X246457619Y-107155714D01*
X246600476Y-107155714D01*
X246695714Y-107203333D01*
X246743333Y-107298571D01*
X246743333Y-107822380D01*
X246743333Y-107298571D02*
X246790952Y-107203333D01*
X246886190Y-107155714D01*
X247029047Y-107155714D01*
X247124285Y-107203333D01*
X247171904Y-107298571D01*
X247171904Y-107822380D01*
D10*
X215410000Y-104370000D02*
X215410000Y-124370000D01*
D11*
X217457619Y-106822380D02*
X218029047Y-106822380D01*
X217743333Y-107822380D02*
X217743333Y-106822380D01*
X218505238Y-107822380D02*
X218410000Y-107774761D01*
X218362380Y-107727142D01*
X218314761Y-107631904D01*
X218314761Y-107346190D01*
X218362380Y-107250952D01*
X218410000Y-107203333D01*
X218505238Y-107155714D01*
X218648095Y-107155714D01*
X218743333Y-107203333D01*
X218790952Y-107250952D01*
X218838571Y-107346190D01*
X218838571Y-107631904D01*
X218790952Y-107727142D01*
X218743333Y-107774761D01*
X218648095Y-107822380D01*
X218505238Y-107822380D01*
X219267142Y-107155714D02*
X219267142Y-108155714D01*
X219267142Y-107203333D02*
X219362380Y-107155714D01*
X219552857Y-107155714D01*
X219648095Y-107203333D01*
X219695714Y-107250952D01*
X219743333Y-107346190D01*
X219743333Y-107631904D01*
X219695714Y-107727142D01*
X219648095Y-107774761D01*
X219552857Y-107822380D01*
X219362380Y-107822380D01*
X219267142Y-107774761D01*
X220886190Y-107774761D02*
X221029047Y-107822380D01*
X221267142Y-107822380D01*
X221362380Y-107774761D01*
X221410000Y-107727142D01*
X221457619Y-107631904D01*
X221457619Y-107536666D01*
X221410000Y-107441428D01*
X221362380Y-107393809D01*
X221267142Y-107346190D01*
X221076666Y-107298571D01*
X220981428Y-107250952D01*
X220933809Y-107203333D01*
X220886190Y-107108095D01*
X220886190Y-107012857D01*
X220933809Y-106917619D01*
X220981428Y-106870000D01*
X221076666Y-106822380D01*
X221314761Y-106822380D01*
X221457619Y-106870000D01*
X222029047Y-107822380D02*
X221933809Y-107774761D01*
X221886190Y-107727142D01*
X221838571Y-107631904D01*
X221838571Y-107346190D01*
X221886190Y-107250952D01*
X221933809Y-107203333D01*
X222029047Y-107155714D01*
X222171904Y-107155714D01*
X222267142Y-107203333D01*
X222314761Y-107250952D01*
X222362380Y-107346190D01*
X222362380Y-107631904D01*
X222314761Y-107727142D01*
X222267142Y-107774761D01*
X222171904Y-107822380D01*
X222029047Y-107822380D01*
X222933809Y-107822380D02*
X222838571Y-107774761D01*
X222790952Y-107679523D01*
X222790952Y-106822380D01*
X223743333Y-107822380D02*
X223743333Y-106822380D01*
X223743333Y-107774761D02*
X223648095Y-107822380D01*
X223457619Y-107822380D01*
X223362380Y-107774761D01*
X223314761Y-107727142D01*
X223267142Y-107631904D01*
X223267142Y-107346190D01*
X223314761Y-107250952D01*
X223362380Y-107203333D01*
X223457619Y-107155714D01*
X223648095Y-107155714D01*
X223743333Y-107203333D01*
X224600476Y-107774761D02*
X224505238Y-107822380D01*
X224314761Y-107822380D01*
X224219523Y-107774761D01*
X224171904Y-107679523D01*
X224171904Y-107298571D01*
X224219523Y-107203333D01*
X224314761Y-107155714D01*
X224505238Y-107155714D01*
X224600476Y-107203333D01*
X224648095Y-107298571D01*
X224648095Y-107393809D01*
X224171904Y-107489047D01*
X225076666Y-107822380D02*
X225076666Y-107155714D01*
X225076666Y-107346190D02*
X225124285Y-107250952D01*
X225171904Y-107203333D01*
X225267142Y-107155714D01*
X225362380Y-107155714D01*
X217862380Y-108822380D02*
X218433809Y-108822380D01*
X218148095Y-109822380D02*
X218148095Y-108822380D01*
X218910000Y-109822380D02*
X218814761Y-109774761D01*
X218767142Y-109727142D01*
X218719523Y-109631904D01*
X218719523Y-109346190D01*
X218767142Y-109250952D01*
X218814761Y-109203333D01*
X218910000Y-109155714D01*
X219052857Y-109155714D01*
X219148095Y-109203333D01*
X219195714Y-109250952D01*
X219243333Y-109346190D01*
X219243333Y-109631904D01*
X219195714Y-109727142D01*
X219148095Y-109774761D01*
X219052857Y-109822380D01*
X218910000Y-109822380D01*
X219671904Y-109155714D02*
X219671904Y-110155714D01*
X219671904Y-109203333D02*
X219767142Y-109155714D01*
X219957619Y-109155714D01*
X220052857Y-109203333D01*
X220100476Y-109250952D01*
X220148095Y-109346190D01*
X220148095Y-109631904D01*
X220100476Y-109727142D01*
X220052857Y-109774761D01*
X219957619Y-109822380D01*
X219767142Y-109822380D01*
X219671904Y-109774761D01*
X221814761Y-109822380D02*
X221338571Y-109822380D01*
X221338571Y-108822380D01*
X222576666Y-109822380D02*
X222576666Y-109298571D01*
X222529047Y-109203333D01*
X222433809Y-109155714D01*
X222243333Y-109155714D01*
X222148095Y-109203333D01*
X222576666Y-109774761D02*
X222481428Y-109822380D01*
X222243333Y-109822380D01*
X222148095Y-109774761D01*
X222100476Y-109679523D01*
X222100476Y-109584285D01*
X222148095Y-109489047D01*
X222243333Y-109441428D01*
X222481428Y-109441428D01*
X222576666Y-109393809D01*
X222957619Y-109155714D02*
X223195714Y-109822380D01*
X223433809Y-109155714D02*
X223195714Y-109822380D01*
X223100476Y-110060476D01*
X223052857Y-110108095D01*
X222957619Y-110155714D01*
X224195714Y-109774761D02*
X224100476Y-109822380D01*
X223910000Y-109822380D01*
X223814761Y-109774761D01*
X223767142Y-109679523D01*
X223767142Y-109298571D01*
X223814761Y-109203333D01*
X223910000Y-109155714D01*
X224100476Y-109155714D01*
X224195714Y-109203333D01*
X224243333Y-109298571D01*
X224243333Y-109393809D01*
X223767142Y-109489047D01*
X224671904Y-109822380D02*
X224671904Y-109155714D01*
X224671904Y-109346190D02*
X224719523Y-109250952D01*
X224767142Y-109203333D01*
X224862380Y-109155714D01*
X224957619Y-109155714D01*
X217243333Y-111822380D02*
X217243333Y-110822380D01*
X217481428Y-110822380D01*
X217624285Y-110870000D01*
X217719523Y-110965238D01*
X217767142Y-111060476D01*
X217814761Y-111250952D01*
X217814761Y-111393809D01*
X217767142Y-111584285D01*
X217719523Y-111679523D01*
X217624285Y-111774761D01*
X217481428Y-111822380D01*
X217243333Y-111822380D01*
X218243333Y-111822380D02*
X218243333Y-111155714D01*
X218243333Y-110822380D02*
X218195714Y-110870000D01*
X218243333Y-110917619D01*
X218290952Y-110870000D01*
X218243333Y-110822380D01*
X218243333Y-110917619D01*
X219100476Y-111774761D02*
X219005238Y-111822380D01*
X218814761Y-111822380D01*
X218719523Y-111774761D01*
X218671904Y-111679523D01*
X218671904Y-111298571D01*
X218719523Y-111203333D01*
X218814761Y-111155714D01*
X219005238Y-111155714D01*
X219100476Y-111203333D01*
X219148095Y-111298571D01*
X219148095Y-111393809D01*
X218671904Y-111489047D01*
X219719523Y-111822380D02*
X219624285Y-111774761D01*
X219576666Y-111679523D01*
X219576666Y-110822380D01*
X220481428Y-111774761D02*
X220386190Y-111822380D01*
X220195714Y-111822380D01*
X220100476Y-111774761D01*
X220052857Y-111679523D01*
X220052857Y-111298571D01*
X220100476Y-111203333D01*
X220195714Y-111155714D01*
X220386190Y-111155714D01*
X220481428Y-111203333D01*
X220529047Y-111298571D01*
X220529047Y-111393809D01*
X220052857Y-111489047D01*
X221386190Y-111774761D02*
X221290952Y-111822380D01*
X221100476Y-111822380D01*
X221005238Y-111774761D01*
X220957619Y-111727142D01*
X220910000Y-111631904D01*
X220910000Y-111346190D01*
X220957619Y-111250952D01*
X221005238Y-111203333D01*
X221100476Y-111155714D01*
X221290952Y-111155714D01*
X221386190Y-111203333D01*
X221671904Y-111155714D02*
X222052857Y-111155714D01*
X221814761Y-110822380D02*
X221814761Y-111679523D01*
X221862380Y-111774761D01*
X221957619Y-111822380D01*
X222052857Y-111822380D01*
X222386190Y-111822380D02*
X222386190Y-111155714D01*
X222386190Y-111346190D02*
X222433809Y-111250952D01*
X222481428Y-111203333D01*
X222576666Y-111155714D01*
X222671904Y-111155714D01*
X223005238Y-111822380D02*
X223005238Y-111155714D01*
X223005238Y-110822380D02*
X222957619Y-110870000D01*
X223005238Y-110917619D01*
X223052857Y-110870000D01*
X223005238Y-110822380D01*
X223005238Y-110917619D01*
X223910000Y-111774761D02*
X223814761Y-111822380D01*
X223624285Y-111822380D01*
X223529047Y-111774761D01*
X223481428Y-111727142D01*
X223433809Y-111631904D01*
X223433809Y-111346190D01*
X223481428Y-111250952D01*
X223529047Y-111203333D01*
X223624285Y-111155714D01*
X223814761Y-111155714D01*
X223910000Y-111203333D01*
X225624285Y-111822380D02*
X225052857Y-111822380D01*
X225338571Y-111822380D02*
X225338571Y-110822380D01*
X225243333Y-110965238D01*
X225148095Y-111060476D01*
X225052857Y-111108095D01*
X217076666Y-112870000D02*
X216981428Y-112822380D01*
X216838571Y-112822380D01*
X216695714Y-112870000D01*
X216600476Y-112965238D01*
X216552857Y-113060476D01*
X216505238Y-113250952D01*
X216505238Y-113393809D01*
X216552857Y-113584285D01*
X216600476Y-113679523D01*
X216695714Y-113774761D01*
X216838571Y-113822380D01*
X216933809Y-113822380D01*
X217076666Y-113774761D01*
X217124285Y-113727142D01*
X217124285Y-113393809D01*
X216933809Y-113393809D01*
X217552857Y-113822380D02*
X217552857Y-113155714D01*
X217552857Y-113346190D02*
X217600476Y-113250952D01*
X217648095Y-113203333D01*
X217743333Y-113155714D01*
X217838571Y-113155714D01*
X218314761Y-113822380D02*
X218219523Y-113774761D01*
X218171904Y-113727142D01*
X218124285Y-113631904D01*
X218124285Y-113346190D01*
X218171904Y-113250952D01*
X218219523Y-113203333D01*
X218314761Y-113155714D01*
X218457619Y-113155714D01*
X218552857Y-113203333D01*
X218600476Y-113250952D01*
X218648095Y-113346190D01*
X218648095Y-113631904D01*
X218600476Y-113727142D01*
X218552857Y-113774761D01*
X218457619Y-113822380D01*
X218314761Y-113822380D01*
X219505238Y-113155714D02*
X219505238Y-113822380D01*
X219076666Y-113155714D02*
X219076666Y-113679523D01*
X219124285Y-113774761D01*
X219219523Y-113822380D01*
X219362380Y-113822380D01*
X219457619Y-113774761D01*
X219505238Y-113727142D01*
X219981428Y-113155714D02*
X219981428Y-113822380D01*
X219981428Y-113250952D02*
X220029047Y-113203333D01*
X220124285Y-113155714D01*
X220267142Y-113155714D01*
X220362380Y-113203333D01*
X220410000Y-113298571D01*
X220410000Y-113822380D01*
X221314761Y-113822380D02*
X221314761Y-112822380D01*
X221314761Y-113774761D02*
X221219523Y-113822380D01*
X221029047Y-113822380D01*
X220933809Y-113774761D01*
X220886190Y-113727142D01*
X220838571Y-113631904D01*
X220838571Y-113346190D01*
X220886190Y-113250952D01*
X220933809Y-113203333D01*
X221029047Y-113155714D01*
X221219523Y-113155714D01*
X221314761Y-113203333D01*
X222552857Y-113822380D02*
X222552857Y-112822380D01*
X222933809Y-112822380D01*
X223029047Y-112870000D01*
X223076666Y-112917619D01*
X223124285Y-113012857D01*
X223124285Y-113155714D01*
X223076666Y-113250952D01*
X223029047Y-113298571D01*
X222933809Y-113346190D01*
X222552857Y-113346190D01*
X223695714Y-113822380D02*
X223600476Y-113774761D01*
X223552857Y-113679523D01*
X223552857Y-112822380D01*
X224505238Y-113822380D02*
X224505238Y-113298571D01*
X224457619Y-113203333D01*
X224362380Y-113155714D01*
X224171904Y-113155714D01*
X224076666Y-113203333D01*
X224505238Y-113774761D02*
X224410000Y-113822380D01*
X224171904Y-113822380D01*
X224076666Y-113774761D01*
X224029047Y-113679523D01*
X224029047Y-113584285D01*
X224076666Y-113489047D01*
X224171904Y-113441428D01*
X224410000Y-113441428D01*
X224505238Y-113393809D01*
X224981428Y-113155714D02*
X224981428Y-113822380D01*
X224981428Y-113250952D02*
X225029047Y-113203333D01*
X225124285Y-113155714D01*
X225267142Y-113155714D01*
X225362380Y-113203333D01*
X225410000Y-113298571D01*
X225410000Y-113822380D01*
X226267142Y-113774761D02*
X226171904Y-113822380D01*
X225981428Y-113822380D01*
X225886190Y-113774761D01*
X225838571Y-113679523D01*
X225838571Y-113298571D01*
X225886190Y-113203333D01*
X225981428Y-113155714D01*
X226171904Y-113155714D01*
X226267142Y-113203333D01*
X226314761Y-113298571D01*
X226314761Y-113393809D01*
X225838571Y-113489047D01*
X217243333Y-115822380D02*
X217243333Y-114822380D01*
X217481428Y-114822380D01*
X217624285Y-114870000D01*
X217719523Y-114965238D01*
X217767142Y-115060476D01*
X217814761Y-115250952D01*
X217814761Y-115393809D01*
X217767142Y-115584285D01*
X217719523Y-115679523D01*
X217624285Y-115774761D01*
X217481428Y-115822380D01*
X217243333Y-115822380D01*
X218243333Y-115822380D02*
X218243333Y-115155714D01*
X218243333Y-114822380D02*
X218195714Y-114870000D01*
X218243333Y-114917619D01*
X218290952Y-114870000D01*
X218243333Y-114822380D01*
X218243333Y-114917619D01*
X219100476Y-115774761D02*
X219005238Y-115822380D01*
X218814761Y-115822380D01*
X218719523Y-115774761D01*
X218671904Y-115679523D01*
X218671904Y-115298571D01*
X218719523Y-115203333D01*
X218814761Y-115155714D01*
X219005238Y-115155714D01*
X219100476Y-115203333D01*
X219148095Y-115298571D01*
X219148095Y-115393809D01*
X218671904Y-115489047D01*
X219719523Y-115822380D02*
X219624285Y-115774761D01*
X219576666Y-115679523D01*
X219576666Y-114822380D01*
X220481428Y-115774761D02*
X220386190Y-115822380D01*
X220195714Y-115822380D01*
X220100476Y-115774761D01*
X220052857Y-115679523D01*
X220052857Y-115298571D01*
X220100476Y-115203333D01*
X220195714Y-115155714D01*
X220386190Y-115155714D01*
X220481428Y-115203333D01*
X220529047Y-115298571D01*
X220529047Y-115393809D01*
X220052857Y-115489047D01*
X221386190Y-115774761D02*
X221290952Y-115822380D01*
X221100476Y-115822380D01*
X221005238Y-115774761D01*
X220957619Y-115727142D01*
X220910000Y-115631904D01*
X220910000Y-115346190D01*
X220957619Y-115250952D01*
X221005238Y-115203333D01*
X221100476Y-115155714D01*
X221290952Y-115155714D01*
X221386190Y-115203333D01*
X221671904Y-115155714D02*
X222052857Y-115155714D01*
X221814761Y-114822380D02*
X221814761Y-115679523D01*
X221862380Y-115774761D01*
X221957619Y-115822380D01*
X222052857Y-115822380D01*
X222386190Y-115822380D02*
X222386190Y-115155714D01*
X222386190Y-115346190D02*
X222433809Y-115250952D01*
X222481428Y-115203333D01*
X222576666Y-115155714D01*
X222671904Y-115155714D01*
X223005238Y-115822380D02*
X223005238Y-115155714D01*
X223005238Y-114822380D02*
X222957619Y-114870000D01*
X223005238Y-114917619D01*
X223052857Y-114870000D01*
X223005238Y-114822380D01*
X223005238Y-114917619D01*
X223910000Y-115774761D02*
X223814761Y-115822380D01*
X223624285Y-115822380D01*
X223529047Y-115774761D01*
X223481428Y-115727142D01*
X223433809Y-115631904D01*
X223433809Y-115346190D01*
X223481428Y-115250952D01*
X223529047Y-115203333D01*
X223624285Y-115155714D01*
X223814761Y-115155714D01*
X223910000Y-115203333D01*
X225052857Y-114917619D02*
X225100476Y-114870000D01*
X225195714Y-114822380D01*
X225433809Y-114822380D01*
X225529047Y-114870000D01*
X225576666Y-114917619D01*
X225624285Y-115012857D01*
X225624285Y-115108095D01*
X225576666Y-115250952D01*
X225005238Y-115822380D01*
X225624285Y-115822380D01*
X216957619Y-117822380D02*
X216957619Y-116822380D01*
X217338571Y-116822380D01*
X217433809Y-116870000D01*
X217481428Y-116917619D01*
X217529047Y-117012857D01*
X217529047Y-117155714D01*
X217481428Y-117250952D01*
X217433809Y-117298571D01*
X217338571Y-117346190D01*
X216957619Y-117346190D01*
X218100476Y-117822380D02*
X218005238Y-117774761D01*
X217957619Y-117727142D01*
X217910000Y-117631904D01*
X217910000Y-117346190D01*
X217957619Y-117250952D01*
X218005238Y-117203333D01*
X218100476Y-117155714D01*
X218243333Y-117155714D01*
X218338571Y-117203333D01*
X218386190Y-117250952D01*
X218433809Y-117346190D01*
X218433809Y-117631904D01*
X218386190Y-117727142D01*
X218338571Y-117774761D01*
X218243333Y-117822380D01*
X218100476Y-117822380D01*
X218767142Y-117155714D02*
X218957619Y-117822380D01*
X219148095Y-117346190D01*
X219338571Y-117822380D01*
X219529047Y-117155714D01*
X220290952Y-117774761D02*
X220195714Y-117822380D01*
X220005238Y-117822380D01*
X219910000Y-117774761D01*
X219862380Y-117679523D01*
X219862380Y-117298571D01*
X219910000Y-117203333D01*
X220005238Y-117155714D01*
X220195714Y-117155714D01*
X220290952Y-117203333D01*
X220338571Y-117298571D01*
X220338571Y-117393809D01*
X219862380Y-117489047D01*
X220767142Y-117822380D02*
X220767142Y-117155714D01*
X220767142Y-117346190D02*
X220814761Y-117250952D01*
X220862380Y-117203333D01*
X220957619Y-117155714D01*
X221052857Y-117155714D01*
X222148095Y-117822380D02*
X222148095Y-116822380D01*
X222529047Y-116822380D01*
X222624285Y-116870000D01*
X222671904Y-116917619D01*
X222719523Y-117012857D01*
X222719523Y-117155714D01*
X222671904Y-117250952D01*
X222624285Y-117298571D01*
X222529047Y-117346190D01*
X222148095Y-117346190D01*
X223290952Y-117822380D02*
X223195714Y-117774761D01*
X223148095Y-117679523D01*
X223148095Y-116822380D01*
X224100476Y-117822380D02*
X224100476Y-117298571D01*
X224052857Y-117203333D01*
X223957619Y-117155714D01*
X223767142Y-117155714D01*
X223671904Y-117203333D01*
X224100476Y-117774761D02*
X224005238Y-117822380D01*
X223767142Y-117822380D01*
X223671904Y-117774761D01*
X223624285Y-117679523D01*
X223624285Y-117584285D01*
X223671904Y-117489047D01*
X223767142Y-117441428D01*
X224005238Y-117441428D01*
X224100476Y-117393809D01*
X224576666Y-117155714D02*
X224576666Y-117822380D01*
X224576666Y-117250952D02*
X224624285Y-117203333D01*
X224719523Y-117155714D01*
X224862380Y-117155714D01*
X224957619Y-117203333D01*
X225005238Y-117298571D01*
X225005238Y-117822380D01*
X225862380Y-117774761D02*
X225767142Y-117822380D01*
X225576666Y-117822380D01*
X225481428Y-117774761D01*
X225433809Y-117679523D01*
X225433809Y-117298571D01*
X225481428Y-117203333D01*
X225576666Y-117155714D01*
X225767142Y-117155714D01*
X225862380Y-117203333D01*
X225910000Y-117298571D01*
X225910000Y-117393809D01*
X225433809Y-117489047D01*
X217243333Y-119822380D02*
X217243333Y-118822380D01*
X217481428Y-118822380D01*
X217624285Y-118870000D01*
X217719523Y-118965238D01*
X217767142Y-119060476D01*
X217814761Y-119250952D01*
X217814761Y-119393809D01*
X217767142Y-119584285D01*
X217719523Y-119679523D01*
X217624285Y-119774761D01*
X217481428Y-119822380D01*
X217243333Y-119822380D01*
X218243333Y-119822380D02*
X218243333Y-119155714D01*
X218243333Y-118822380D02*
X218195714Y-118870000D01*
X218243333Y-118917619D01*
X218290952Y-118870000D01*
X218243333Y-118822380D01*
X218243333Y-118917619D01*
X219100476Y-119774761D02*
X219005238Y-119822380D01*
X218814761Y-119822380D01*
X218719523Y-119774761D01*
X218671904Y-119679523D01*
X218671904Y-119298571D01*
X218719523Y-119203333D01*
X218814761Y-119155714D01*
X219005238Y-119155714D01*
X219100476Y-119203333D01*
X219148095Y-119298571D01*
X219148095Y-119393809D01*
X218671904Y-119489047D01*
X219719523Y-119822380D02*
X219624285Y-119774761D01*
X219576666Y-119679523D01*
X219576666Y-118822380D01*
X220481428Y-119774761D02*
X220386190Y-119822380D01*
X220195714Y-119822380D01*
X220100476Y-119774761D01*
X220052857Y-119679523D01*
X220052857Y-119298571D01*
X220100476Y-119203333D01*
X220195714Y-119155714D01*
X220386190Y-119155714D01*
X220481428Y-119203333D01*
X220529047Y-119298571D01*
X220529047Y-119393809D01*
X220052857Y-119489047D01*
X221386190Y-119774761D02*
X221290952Y-119822380D01*
X221100476Y-119822380D01*
X221005238Y-119774761D01*
X220957619Y-119727142D01*
X220910000Y-119631904D01*
X220910000Y-119346190D01*
X220957619Y-119250952D01*
X221005238Y-119203333D01*
X221100476Y-119155714D01*
X221290952Y-119155714D01*
X221386190Y-119203333D01*
X221671904Y-119155714D02*
X222052857Y-119155714D01*
X221814761Y-118822380D02*
X221814761Y-119679523D01*
X221862380Y-119774761D01*
X221957619Y-119822380D01*
X222052857Y-119822380D01*
X222386190Y-119822380D02*
X222386190Y-119155714D01*
X222386190Y-119346190D02*
X222433809Y-119250952D01*
X222481428Y-119203333D01*
X222576666Y-119155714D01*
X222671904Y-119155714D01*
X223005238Y-119822380D02*
X223005238Y-119155714D01*
X223005238Y-118822380D02*
X222957619Y-118870000D01*
X223005238Y-118917619D01*
X223052857Y-118870000D01*
X223005238Y-118822380D01*
X223005238Y-118917619D01*
X223910000Y-119774761D02*
X223814761Y-119822380D01*
X223624285Y-119822380D01*
X223529047Y-119774761D01*
X223481428Y-119727142D01*
X223433809Y-119631904D01*
X223433809Y-119346190D01*
X223481428Y-119250952D01*
X223529047Y-119203333D01*
X223624285Y-119155714D01*
X223814761Y-119155714D01*
X223910000Y-119203333D01*
X225005238Y-118822380D02*
X225624285Y-118822380D01*
X225290952Y-119203333D01*
X225433809Y-119203333D01*
X225529047Y-119250952D01*
X225576666Y-119298571D01*
X225624285Y-119393809D01*
X225624285Y-119631904D01*
X225576666Y-119727142D01*
X225529047Y-119774761D01*
X225433809Y-119822380D01*
X225148095Y-119822380D01*
X225052857Y-119774761D01*
X225005238Y-119727142D01*
X216981428Y-121298571D02*
X217124285Y-121346190D01*
X217171904Y-121393809D01*
X217219523Y-121489047D01*
X217219523Y-121631904D01*
X217171904Y-121727142D01*
X217124285Y-121774761D01*
X217029047Y-121822380D01*
X216648095Y-121822380D01*
X216648095Y-120822380D01*
X216981428Y-120822380D01*
X217076666Y-120870000D01*
X217124285Y-120917619D01*
X217171904Y-121012857D01*
X217171904Y-121108095D01*
X217124285Y-121203333D01*
X217076666Y-121250952D01*
X216981428Y-121298571D01*
X216648095Y-121298571D01*
X217790952Y-121822380D02*
X217695714Y-121774761D01*
X217648095Y-121727142D01*
X217600476Y-121631904D01*
X217600476Y-121346190D01*
X217648095Y-121250952D01*
X217695714Y-121203333D01*
X217790952Y-121155714D01*
X217933809Y-121155714D01*
X218029047Y-121203333D01*
X218076666Y-121250952D01*
X218124285Y-121346190D01*
X218124285Y-121631904D01*
X218076666Y-121727142D01*
X218029047Y-121774761D01*
X217933809Y-121822380D01*
X217790952Y-121822380D01*
X218410000Y-121155714D02*
X218790952Y-121155714D01*
X218552857Y-120822380D02*
X218552857Y-121679523D01*
X218600476Y-121774761D01*
X218695714Y-121822380D01*
X218790952Y-121822380D01*
X218981428Y-121155714D02*
X219362380Y-121155714D01*
X219124285Y-120822380D02*
X219124285Y-121679523D01*
X219171904Y-121774761D01*
X219267142Y-121822380D01*
X219362380Y-121822380D01*
X219838571Y-121822380D02*
X219743333Y-121774761D01*
X219695714Y-121727142D01*
X219648095Y-121631904D01*
X219648095Y-121346190D01*
X219695714Y-121250952D01*
X219743333Y-121203333D01*
X219838571Y-121155714D01*
X219981428Y-121155714D01*
X220076666Y-121203333D01*
X220124285Y-121250952D01*
X220171904Y-121346190D01*
X220171904Y-121631904D01*
X220124285Y-121727142D01*
X220076666Y-121774761D01*
X219981428Y-121822380D01*
X219838571Y-121822380D01*
X220600476Y-121822380D02*
X220600476Y-121155714D01*
X220600476Y-121250952D02*
X220648095Y-121203333D01*
X220743333Y-121155714D01*
X220886190Y-121155714D01*
X220981428Y-121203333D01*
X221029047Y-121298571D01*
X221029047Y-121822380D01*
X221029047Y-121298571D02*
X221076666Y-121203333D01*
X221171904Y-121155714D01*
X221314761Y-121155714D01*
X221410000Y-121203333D01*
X221457619Y-121298571D01*
X221457619Y-121822380D01*
X223171904Y-121822380D02*
X222695714Y-121822380D01*
X222695714Y-120822380D01*
X223933809Y-121822380D02*
X223933809Y-121298571D01*
X223886190Y-121203333D01*
X223790952Y-121155714D01*
X223600476Y-121155714D01*
X223505238Y-121203333D01*
X223933809Y-121774761D02*
X223838571Y-121822380D01*
X223600476Y-121822380D01*
X223505238Y-121774761D01*
X223457619Y-121679523D01*
X223457619Y-121584285D01*
X223505238Y-121489047D01*
X223600476Y-121441428D01*
X223838571Y-121441428D01*
X223933809Y-121393809D01*
X224314761Y-121155714D02*
X224552857Y-121822380D01*
X224790952Y-121155714D02*
X224552857Y-121822380D01*
X224457619Y-122060476D01*
X224410000Y-122108095D01*
X224314761Y-122155714D01*
X225552857Y-121774761D02*
X225457619Y-121822380D01*
X225267142Y-121822380D01*
X225171904Y-121774761D01*
X225124285Y-121679523D01*
X225124285Y-121298571D01*
X225171904Y-121203333D01*
X225267142Y-121155714D01*
X225457619Y-121155714D01*
X225552857Y-121203333D01*
X225600476Y-121298571D01*
X225600476Y-121393809D01*
X225124285Y-121489047D01*
X226029047Y-121822380D02*
X226029047Y-121155714D01*
X226029047Y-121346190D02*
X226076666Y-121250952D01*
X226124285Y-121203333D01*
X226219523Y-121155714D01*
X226314761Y-121155714D01*
X216576666Y-123298571D02*
X216719523Y-123346190D01*
X216767142Y-123393809D01*
X216814761Y-123489047D01*
X216814761Y-123631904D01*
X216767142Y-123727142D01*
X216719523Y-123774761D01*
X216624285Y-123822380D01*
X216243333Y-123822380D01*
X216243333Y-122822380D01*
X216576666Y-122822380D01*
X216671904Y-122870000D01*
X216719523Y-122917619D01*
X216767142Y-123012857D01*
X216767142Y-123108095D01*
X216719523Y-123203333D01*
X216671904Y-123250952D01*
X216576666Y-123298571D01*
X216243333Y-123298571D01*
X217386190Y-123822380D02*
X217290952Y-123774761D01*
X217243333Y-123727142D01*
X217195714Y-123631904D01*
X217195714Y-123346190D01*
X217243333Y-123250952D01*
X217290952Y-123203333D01*
X217386190Y-123155714D01*
X217529047Y-123155714D01*
X217624285Y-123203333D01*
X217671904Y-123250952D01*
X217719523Y-123346190D01*
X217719523Y-123631904D01*
X217671904Y-123727142D01*
X217624285Y-123774761D01*
X217529047Y-123822380D01*
X217386190Y-123822380D01*
X218005238Y-123155714D02*
X218386190Y-123155714D01*
X218148095Y-122822380D02*
X218148095Y-123679523D01*
X218195714Y-123774761D01*
X218290952Y-123822380D01*
X218386190Y-123822380D01*
X218576666Y-123155714D02*
X218957619Y-123155714D01*
X218719523Y-122822380D02*
X218719523Y-123679523D01*
X218767142Y-123774761D01*
X218862380Y-123822380D01*
X218957619Y-123822380D01*
X219433809Y-123822380D02*
X219338571Y-123774761D01*
X219290952Y-123727142D01*
X219243333Y-123631904D01*
X219243333Y-123346190D01*
X219290952Y-123250952D01*
X219338571Y-123203333D01*
X219433809Y-123155714D01*
X219576666Y-123155714D01*
X219671904Y-123203333D01*
X219719523Y-123250952D01*
X219767142Y-123346190D01*
X219767142Y-123631904D01*
X219719523Y-123727142D01*
X219671904Y-123774761D01*
X219576666Y-123822380D01*
X219433809Y-123822380D01*
X220195714Y-123822380D02*
X220195714Y-123155714D01*
X220195714Y-123250952D02*
X220243333Y-123203333D01*
X220338571Y-123155714D01*
X220481428Y-123155714D01*
X220576666Y-123203333D01*
X220624285Y-123298571D01*
X220624285Y-123822380D01*
X220624285Y-123298571D02*
X220671904Y-123203333D01*
X220767142Y-123155714D01*
X220910000Y-123155714D01*
X221005238Y-123203333D01*
X221052857Y-123298571D01*
X221052857Y-123822380D01*
X222243333Y-123774761D02*
X222386190Y-123822380D01*
X222624285Y-123822380D01*
X222719523Y-123774761D01*
X222767142Y-123727142D01*
X222814761Y-123631904D01*
X222814761Y-123536666D01*
X222767142Y-123441428D01*
X222719523Y-123393809D01*
X222624285Y-123346190D01*
X222433809Y-123298571D01*
X222338571Y-123250952D01*
X222290952Y-123203333D01*
X222243333Y-123108095D01*
X222243333Y-123012857D01*
X222290952Y-122917619D01*
X222338571Y-122870000D01*
X222433809Y-122822380D01*
X222671904Y-122822380D01*
X222814761Y-122870000D01*
X223386190Y-123822380D02*
X223290952Y-123774761D01*
X223243333Y-123727142D01*
X223195714Y-123631904D01*
X223195714Y-123346190D01*
X223243333Y-123250952D01*
X223290952Y-123203333D01*
X223386190Y-123155714D01*
X223529047Y-123155714D01*
X223624285Y-123203333D01*
X223671904Y-123250952D01*
X223719523Y-123346190D01*
X223719523Y-123631904D01*
X223671904Y-123727142D01*
X223624285Y-123774761D01*
X223529047Y-123822380D01*
X223386190Y-123822380D01*
X224290952Y-123822380D02*
X224195714Y-123774761D01*
X224148095Y-123679523D01*
X224148095Y-122822380D01*
X225100476Y-123822380D02*
X225100476Y-122822380D01*
X225100476Y-123774761D02*
X225005238Y-123822380D01*
X224814761Y-123822380D01*
X224719523Y-123774761D01*
X224671904Y-123727142D01*
X224624285Y-123631904D01*
X224624285Y-123346190D01*
X224671904Y-123250952D01*
X224719523Y-123203333D01*
X224814761Y-123155714D01*
X225005238Y-123155714D01*
X225100476Y-123203333D01*
X225957619Y-123774761D02*
X225862380Y-123822380D01*
X225671904Y-123822380D01*
X225576666Y-123774761D01*
X225529047Y-123679523D01*
X225529047Y-123298571D01*
X225576666Y-123203333D01*
X225671904Y-123155714D01*
X225862380Y-123155714D01*
X225957619Y-123203333D01*
X226005238Y-123298571D01*
X226005238Y-123393809D01*
X225529047Y-123489047D01*
X226433809Y-123822380D02*
X226433809Y-123155714D01*
X226433809Y-123346190D02*
X226481428Y-123250952D01*
X226529047Y-123203333D01*
X226624285Y-123155714D01*
X226719523Y-123155714D01*
X230648095Y-105822380D02*
X230648095Y-104822380D01*
X230981428Y-105536666D01*
X231314761Y-104822380D01*
X231314761Y-105822380D01*
X232219523Y-105822380D02*
X232219523Y-105298571D01*
X232171904Y-105203333D01*
X232076666Y-105155714D01*
X231886190Y-105155714D01*
X231790952Y-105203333D01*
X232219523Y-105774761D02*
X232124285Y-105822380D01*
X231886190Y-105822380D01*
X231790952Y-105774761D01*
X231743333Y-105679523D01*
X231743333Y-105584285D01*
X231790952Y-105489047D01*
X231886190Y-105441428D01*
X232124285Y-105441428D01*
X232219523Y-105393809D01*
X232552857Y-105155714D02*
X232933809Y-105155714D01*
X232695714Y-104822380D02*
X232695714Y-105679523D01*
X232743333Y-105774761D01*
X232838571Y-105822380D01*
X232933809Y-105822380D01*
X233648095Y-105774761D02*
X233552857Y-105822380D01*
X233362380Y-105822380D01*
X233267142Y-105774761D01*
X233219523Y-105679523D01*
X233219523Y-105298571D01*
X233267142Y-105203333D01*
X233362380Y-105155714D01*
X233552857Y-105155714D01*
X233648095Y-105203333D01*
X233695714Y-105298571D01*
X233695714Y-105393809D01*
X233219523Y-105489047D01*
X234124285Y-105822380D02*
X234124285Y-105155714D01*
X234124285Y-105346190D02*
X234171904Y-105250952D01*
X234219523Y-105203333D01*
X234314761Y-105155714D01*
X234410000Y-105155714D01*
X234743333Y-105822380D02*
X234743333Y-105155714D01*
X234743333Y-104822380D02*
X234695714Y-104870000D01*
X234743333Y-104917619D01*
X234790952Y-104870000D01*
X234743333Y-104822380D01*
X234743333Y-104917619D01*
X235648095Y-105822380D02*
X235648095Y-105298571D01*
X235600476Y-105203333D01*
X235505238Y-105155714D01*
X235314761Y-105155714D01*
X235219523Y-105203333D01*
X235648095Y-105774761D02*
X235552857Y-105822380D01*
X235314761Y-105822380D01*
X235219523Y-105774761D01*
X235171904Y-105679523D01*
X235171904Y-105584285D01*
X235219523Y-105489047D01*
X235314761Y-105441428D01*
X235552857Y-105441428D01*
X235648095Y-105393809D01*
X236267142Y-105822380D02*
X236171904Y-105774761D01*
X236124285Y-105679523D01*
X236124285Y-104822380D01*
X240910000Y-104822380D02*
X241481428Y-104822380D01*
X241195714Y-105822380D02*
X241195714Y-104822380D01*
X241814761Y-105822380D02*
X241814761Y-104822380D01*
X242243333Y-105822380D02*
X242243333Y-105298571D01*
X242195714Y-105203333D01*
X242100476Y-105155714D01*
X241957619Y-105155714D01*
X241862380Y-105203333D01*
X241814761Y-105250952D01*
X242719523Y-105822380D02*
X242719523Y-105155714D01*
X242719523Y-104822380D02*
X242671904Y-104870000D01*
X242719523Y-104917619D01*
X242767142Y-104870000D01*
X242719523Y-104822380D01*
X242719523Y-104917619D01*
X243624285Y-105774761D02*
X243529047Y-105822380D01*
X243338571Y-105822380D01*
X243243333Y-105774761D01*
X243195714Y-105727142D01*
X243148095Y-105631904D01*
X243148095Y-105346190D01*
X243195714Y-105250952D01*
X243243333Y-105203333D01*
X243338571Y-105155714D01*
X243529047Y-105155714D01*
X243624285Y-105203333D01*
X244052857Y-105822380D02*
X244052857Y-104822380D01*
X244148095Y-105441428D02*
X244433809Y-105822380D01*
X244433809Y-105155714D02*
X244052857Y-105536666D01*
X244862380Y-105155714D02*
X244862380Y-105822380D01*
X244862380Y-105250952D02*
X244910000Y-105203333D01*
X245005238Y-105155714D01*
X245148095Y-105155714D01*
X245243333Y-105203333D01*
X245290952Y-105298571D01*
X245290952Y-105822380D01*
X246148095Y-105774761D02*
X246052857Y-105822380D01*
X245862380Y-105822380D01*
X245767142Y-105774761D01*
X245719523Y-105679523D01*
X245719523Y-105298571D01*
X245767142Y-105203333D01*
X245862380Y-105155714D01*
X246052857Y-105155714D01*
X246148095Y-105203333D01*
X246195714Y-105298571D01*
X246195714Y-105393809D01*
X245719523Y-105489047D01*
X246576666Y-105774761D02*
X246671904Y-105822380D01*
X246862380Y-105822380D01*
X246957619Y-105774761D01*
X247005238Y-105679523D01*
X247005238Y-105631904D01*
X246957619Y-105536666D01*
X246862380Y-105489047D01*
X246719523Y-105489047D01*
X246624285Y-105441428D01*
X246576666Y-105346190D01*
X246576666Y-105298571D01*
X246624285Y-105203333D01*
X246719523Y-105155714D01*
X246862380Y-105155714D01*
X246957619Y-105203333D01*
X247386190Y-105774761D02*
X247481428Y-105822380D01*
X247671904Y-105822380D01*
X247767142Y-105774761D01*
X247814761Y-105679523D01*
X247814761Y-105631904D01*
X247767142Y-105536666D01*
X247671904Y-105489047D01*
X247529047Y-105489047D01*
X247433809Y-105441428D01*
X247386190Y-105346190D01*
X247386190Y-105298571D01*
X247433809Y-105203333D01*
X247529047Y-105155714D01*
X247671904Y-105155714D01*
X247767142Y-105203333D01*
X250933809Y-105727142D02*
X250886190Y-105774761D01*
X250743333Y-105822380D01*
X250648095Y-105822380D01*
X250505238Y-105774761D01*
X250410000Y-105679523D01*
X250362380Y-105584285D01*
X250314761Y-105393809D01*
X250314761Y-105250952D01*
X250362380Y-105060476D01*
X250410000Y-104965238D01*
X250505238Y-104870000D01*
X250648095Y-104822380D01*
X250743333Y-104822380D01*
X250886190Y-104870000D01*
X250933809Y-104917619D01*
X251505238Y-105822380D02*
X251410000Y-105774761D01*
X251362380Y-105727142D01*
X251314761Y-105631904D01*
X251314761Y-105346190D01*
X251362380Y-105250952D01*
X251410000Y-105203333D01*
X251505238Y-105155714D01*
X251648095Y-105155714D01*
X251743333Y-105203333D01*
X251790952Y-105250952D01*
X251838571Y-105346190D01*
X251838571Y-105631904D01*
X251790952Y-105727142D01*
X251743333Y-105774761D01*
X251648095Y-105822380D01*
X251505238Y-105822380D01*
X252267142Y-105155714D02*
X252267142Y-105822380D01*
X252267142Y-105250952D02*
X252314761Y-105203333D01*
X252410000Y-105155714D01*
X252552857Y-105155714D01*
X252648095Y-105203333D01*
X252695714Y-105298571D01*
X252695714Y-105822380D01*
X253124285Y-105774761D02*
X253219523Y-105822380D01*
X253410000Y-105822380D01*
X253505238Y-105774761D01*
X253552857Y-105679523D01*
X253552857Y-105631904D01*
X253505238Y-105536666D01*
X253410000Y-105489047D01*
X253267142Y-105489047D01*
X253171904Y-105441428D01*
X253124285Y-105346190D01*
X253124285Y-105298571D01*
X253171904Y-105203333D01*
X253267142Y-105155714D01*
X253410000Y-105155714D01*
X253505238Y-105203333D01*
X253838571Y-105155714D02*
X254219523Y-105155714D01*
X253981428Y-104822380D02*
X253981428Y-105679523D01*
X254029047Y-105774761D01*
X254124285Y-105822380D01*
X254219523Y-105822380D01*
X254981428Y-105822380D02*
X254981428Y-105298571D01*
X254933809Y-105203333D01*
X254838571Y-105155714D01*
X254648095Y-105155714D01*
X254552857Y-105203333D01*
X254981428Y-105774761D02*
X254886190Y-105822380D01*
X254648095Y-105822380D01*
X254552857Y-105774761D01*
X254505238Y-105679523D01*
X254505238Y-105584285D01*
X254552857Y-105489047D01*
X254648095Y-105441428D01*
X254886190Y-105441428D01*
X254981428Y-105393809D01*
X255457619Y-105155714D02*
X255457619Y-105822380D01*
X255457619Y-105250952D02*
X255505238Y-105203333D01*
X255600476Y-105155714D01*
X255743333Y-105155714D01*
X255838571Y-105203333D01*
X255886190Y-105298571D01*
X255886190Y-105822380D01*
X256219523Y-105155714D02*
X256600476Y-105155714D01*
X256362380Y-104822380D02*
X256362380Y-105679523D01*
X256410000Y-105774761D01*
X256505238Y-105822380D01*
X256600476Y-105822380D01*
X212695714Y-107822380D02*
X212124285Y-107822380D01*
X212410000Y-107822380D02*
X212410000Y-106822380D01*
X212314761Y-106965238D01*
X212219523Y-107060476D01*
X212124285Y-107108095D01*
X212695714Y-109822380D02*
X212124285Y-109822380D01*
X212410000Y-109822380D02*
X212410000Y-108822380D01*
X212314761Y-108965238D01*
X212219523Y-109060476D01*
X212124285Y-109108095D01*
X212695714Y-111822380D02*
X212124285Y-111822380D01*
X212410000Y-111822380D02*
X212410000Y-110822380D01*
X212314761Y-110965238D01*
X212219523Y-111060476D01*
X212124285Y-111108095D01*
X212695714Y-113822380D02*
X212124285Y-113822380D01*
X212410000Y-113822380D02*
X212410000Y-112822380D01*
X212314761Y-112965238D01*
X212219523Y-113060476D01*
X212124285Y-113108095D01*
X212695714Y-115822380D02*
X212124285Y-115822380D01*
X212410000Y-115822380D02*
X212410000Y-114822380D01*
X212314761Y-114965238D01*
X212219523Y-115060476D01*
X212124285Y-115108095D01*
X212695714Y-117822380D02*
X212124285Y-117822380D01*
X212410000Y-117822380D02*
X212410000Y-116822380D01*
X212314761Y-116965238D01*
X212219523Y-117060476D01*
X212124285Y-117108095D01*
X212695714Y-119822380D02*
X212124285Y-119822380D01*
X212410000Y-119822380D02*
X212410000Y-118822380D01*
X212314761Y-118965238D01*
X212219523Y-119060476D01*
X212124285Y-119108095D01*
X212695714Y-121822380D02*
X212124285Y-121822380D01*
X212410000Y-121822380D02*
X212410000Y-120822380D01*
X212314761Y-120965238D01*
X212219523Y-121060476D01*
X212124285Y-121108095D01*
X212695714Y-123822380D02*
X212124285Y-123822380D01*
X212410000Y-123822380D02*
X212410000Y-122822380D01*
X212314761Y-122965238D01*
X212219523Y-123060476D01*
X212124285Y-123108095D01*
X211148095Y-105822380D02*
X210671904Y-105822380D01*
X210671904Y-104822380D01*
X211910000Y-105822380D02*
X211910000Y-105298571D01*
X211862380Y-105203333D01*
X211767142Y-105155714D01*
X211576666Y-105155714D01*
X211481428Y-105203333D01*
X211910000Y-105774761D02*
X211814761Y-105822380D01*
X211576666Y-105822380D01*
X211481428Y-105774761D01*
X211433809Y-105679523D01*
X211433809Y-105584285D01*
X211481428Y-105489047D01*
X211576666Y-105441428D01*
X211814761Y-105441428D01*
X211910000Y-105393809D01*
X212290952Y-105155714D02*
X212529047Y-105822380D01*
X212767142Y-105155714D02*
X212529047Y-105822380D01*
X212433809Y-106060476D01*
X212386190Y-106108095D01*
X212290952Y-106155714D01*
X213529047Y-105774761D02*
X213433809Y-105822380D01*
X213243333Y-105822380D01*
X213148095Y-105774761D01*
X213100476Y-105679523D01*
X213100476Y-105298571D01*
X213148095Y-105203333D01*
X213243333Y-105155714D01*
X213433809Y-105155714D01*
X213529047Y-105203333D01*
X213576666Y-105298571D01*
X213576666Y-105393809D01*
X213100476Y-105489047D01*
X214005238Y-105822380D02*
X214005238Y-105155714D01*
X214005238Y-105346190D02*
X214052857Y-105250952D01*
X214100476Y-105203333D01*
X214195714Y-105155714D01*
X214290952Y-105155714D01*
X219576666Y-105822380D02*
X219576666Y-104822380D01*
X220148095Y-105822380D01*
X220148095Y-104822380D01*
X221052857Y-105822380D02*
X221052857Y-105298571D01*
X221005238Y-105203333D01*
X220910000Y-105155714D01*
X220719523Y-105155714D01*
X220624285Y-105203333D01*
X221052857Y-105774761D02*
X220957619Y-105822380D01*
X220719523Y-105822380D01*
X220624285Y-105774761D01*
X220576666Y-105679523D01*
X220576666Y-105584285D01*
X220624285Y-105489047D01*
X220719523Y-105441428D01*
X220957619Y-105441428D01*
X221052857Y-105393809D01*
X221529047Y-105822380D02*
X221529047Y-105155714D01*
X221529047Y-105250952D02*
X221576666Y-105203333D01*
X221671904Y-105155714D01*
X221814761Y-105155714D01*
X221910000Y-105203333D01*
X221957619Y-105298571D01*
X221957619Y-105822380D01*
X221957619Y-105298571D02*
X222005238Y-105203333D01*
X222100476Y-105155714D01*
X222243333Y-105155714D01*
X222338571Y-105203333D01*
X222386190Y-105298571D01*
X222386190Y-105822380D01*
X223243333Y-105774761D02*
X223148095Y-105822380D01*
X222957619Y-105822380D01*
X222862380Y-105774761D01*
X222814761Y-105679523D01*
X222814761Y-105298571D01*
X222862380Y-105203333D01*
X222957619Y-105155714D01*
X223148095Y-105155714D01*
X223243333Y-105203333D01*
X223290952Y-105298571D01*
X223290952Y-105393809D01*
X222814761Y-105489047D01*
X241362380Y-120822380D02*
X241457619Y-120822380D01*
X241552857Y-120870000D01*
X241600476Y-120917619D01*
X241648095Y-121012857D01*
X241695714Y-121203333D01*
X241695714Y-121441428D01*
X241648095Y-121631904D01*
X241600476Y-121727142D01*
X241552857Y-121774761D01*
X241457619Y-121822380D01*
X241362380Y-121822380D01*
X241267142Y-121774761D01*
X241219523Y-121727142D01*
X241171904Y-121631904D01*
X241124285Y-121441428D01*
X241124285Y-121203333D01*
X241171904Y-121012857D01*
X241219523Y-120917619D01*
X241267142Y-120870000D01*
X241362380Y-120822380D01*
X242124285Y-121727142D02*
X242171904Y-121774761D01*
X242124285Y-121822380D01*
X242076666Y-121774761D01*
X242124285Y-121727142D01*
X242124285Y-121822380D01*
X242790952Y-120822380D02*
X242886190Y-120822380D01*
X242981428Y-120870000D01*
X243029047Y-120917619D01*
X243076666Y-121012857D01*
X243124285Y-121203333D01*
X243124285Y-121441428D01*
X243076666Y-121631904D01*
X243029047Y-121727142D01*
X242981428Y-121774761D01*
X242886190Y-121822380D01*
X242790952Y-121822380D01*
X242695714Y-121774761D01*
X242648095Y-121727142D01*
X242600476Y-121631904D01*
X242552857Y-121441428D01*
X242552857Y-121203333D01*
X242600476Y-121012857D01*
X242648095Y-120917619D01*
X242695714Y-120870000D01*
X242790952Y-120822380D01*
X243457619Y-120822380D02*
X244076666Y-120822380D01*
X243743333Y-121203333D01*
X243886190Y-121203333D01*
X243981428Y-121250952D01*
X244029047Y-121298571D01*
X244076666Y-121393809D01*
X244076666Y-121631904D01*
X244029047Y-121727142D01*
X243981428Y-121774761D01*
X243886190Y-121822380D01*
X243600476Y-121822380D01*
X243505238Y-121774761D01*
X243457619Y-121727142D01*
X244981428Y-120822380D02*
X244505238Y-120822380D01*
X244457619Y-121298571D01*
X244505238Y-121250952D01*
X244600476Y-121203333D01*
X244838571Y-121203333D01*
X244933809Y-121250952D01*
X244981428Y-121298571D01*
X245029047Y-121393809D01*
X245029047Y-121631904D01*
X244981428Y-121727142D01*
X244933809Y-121774761D01*
X244838571Y-121822380D01*
X244600476Y-121822380D01*
X244505238Y-121774761D01*
X244457619Y-121727142D01*
X245457619Y-121822380D02*
X245457619Y-121155714D01*
X245457619Y-121250952D02*
X245505238Y-121203333D01*
X245600476Y-121155714D01*
X245743333Y-121155714D01*
X245838571Y-121203333D01*
X245886190Y-121298571D01*
X245886190Y-121822380D01*
X245886190Y-121298571D02*
X245933809Y-121203333D01*
X246029047Y-121155714D01*
X246171904Y-121155714D01*
X246267142Y-121203333D01*
X246314761Y-121298571D01*
X246314761Y-121822380D01*
X246790952Y-121822380D02*
X246790952Y-121155714D01*
X246790952Y-121250952D02*
X246838571Y-121203333D01*
X246933809Y-121155714D01*
X247076666Y-121155714D01*
X247171904Y-121203333D01*
X247219523Y-121298571D01*
X247219523Y-121822380D01*
X247219523Y-121298571D02*
X247267142Y-121203333D01*
X247362380Y-121155714D01*
X247505238Y-121155714D01*
X247600476Y-121203333D01*
X247648095Y-121298571D01*
X247648095Y-121822380D01*
D10*
X209410000Y-106370000D02*
X208410000Y-106370000D01*
X208410000Y-108370000D02*
X248410000Y-108370000D01*
D11*
X241362380Y-108822380D02*
X241457619Y-108822380D01*
X241552857Y-108870000D01*
X241600476Y-108917619D01*
X241648095Y-109012857D01*
X241695714Y-109203333D01*
X241695714Y-109441428D01*
X241648095Y-109631904D01*
X241600476Y-109727142D01*
X241552857Y-109774761D01*
X241457619Y-109822380D01*
X241362380Y-109822380D01*
X241267142Y-109774761D01*
X241219523Y-109727142D01*
X241171904Y-109631904D01*
X241124285Y-109441428D01*
X241124285Y-109203333D01*
X241171904Y-109012857D01*
X241219523Y-108917619D01*
X241267142Y-108870000D01*
X241362380Y-108822380D01*
X242124285Y-109727142D02*
X242171904Y-109774761D01*
X242124285Y-109822380D01*
X242076666Y-109774761D01*
X242124285Y-109727142D01*
X242124285Y-109822380D01*
X242790952Y-108822380D02*
X242886190Y-108822380D01*
X242981428Y-108870000D01*
X243029047Y-108917619D01*
X243076666Y-109012857D01*
X243124285Y-109203333D01*
X243124285Y-109441428D01*
X243076666Y-109631904D01*
X243029047Y-109727142D01*
X242981428Y-109774761D01*
X242886190Y-109822380D01*
X242790952Y-109822380D01*
X242695714Y-109774761D01*
X242648095Y-109727142D01*
X242600476Y-109631904D01*
X242552857Y-109441428D01*
X242552857Y-109203333D01*
X242600476Y-109012857D01*
X242648095Y-108917619D01*
X242695714Y-108870000D01*
X242790952Y-108822380D01*
X243457619Y-108822380D02*
X244076666Y-108822380D01*
X243743333Y-109203333D01*
X243886190Y-109203333D01*
X243981428Y-109250952D01*
X244029047Y-109298571D01*
X244076666Y-109393809D01*
X244076666Y-109631904D01*
X244029047Y-109727142D01*
X243981428Y-109774761D01*
X243886190Y-109822380D01*
X243600476Y-109822380D01*
X243505238Y-109774761D01*
X243457619Y-109727142D01*
X244981428Y-108822380D02*
X244505238Y-108822380D01*
X244457619Y-109298571D01*
X244505238Y-109250952D01*
X244600476Y-109203333D01*
X244838571Y-109203333D01*
X244933809Y-109250952D01*
X244981428Y-109298571D01*
X245029047Y-109393809D01*
X245029047Y-109631904D01*
X244981428Y-109727142D01*
X244933809Y-109774761D01*
X244838571Y-109822380D01*
X244600476Y-109822380D01*
X244505238Y-109774761D01*
X244457619Y-109727142D01*
X245457619Y-109822380D02*
X245457619Y-109155714D01*
X245457619Y-109250952D02*
X245505238Y-109203333D01*
X245600476Y-109155714D01*
X245743333Y-109155714D01*
X245838571Y-109203333D01*
X245886190Y-109298571D01*
X245886190Y-109822380D01*
X245886190Y-109298571D02*
X245933809Y-109203333D01*
X246029047Y-109155714D01*
X246171904Y-109155714D01*
X246267142Y-109203333D01*
X246314761Y-109298571D01*
X246314761Y-109822380D01*
X246790952Y-109822380D02*
X246790952Y-109155714D01*
X246790952Y-109250952D02*
X246838571Y-109203333D01*
X246933809Y-109155714D01*
X247076666Y-109155714D01*
X247171904Y-109203333D01*
X247219523Y-109298571D01*
X247219523Y-109822380D01*
X247219523Y-109298571D02*
X247267142Y-109203333D01*
X247362380Y-109155714D01*
X247505238Y-109155714D01*
X247600476Y-109203333D01*
X247648095Y-109298571D01*
X247648095Y-109822380D01*
D10*
X248410000Y-106370000D02*
X258410000Y-106370000D01*
D11*
X252886190Y-111155714D02*
X252886190Y-111822380D01*
X252648095Y-110774761D02*
X252410000Y-111489047D01*
X253029047Y-111489047D01*
X253410000Y-111727142D02*
X253457619Y-111774761D01*
X253410000Y-111822380D01*
X253362380Y-111774761D01*
X253410000Y-111727142D01*
X253410000Y-111822380D01*
X253838571Y-110917619D02*
X253886190Y-110870000D01*
X253981428Y-110822380D01*
X254219523Y-110822380D01*
X254314761Y-110870000D01*
X254362380Y-110917619D01*
X254410000Y-111012857D01*
X254410000Y-111108095D01*
X254362380Y-111250952D01*
X253790952Y-111822380D01*
X254410000Y-111822380D01*
X252886190Y-115155714D02*
X252886190Y-115822380D01*
X252648095Y-114774761D02*
X252410000Y-115489047D01*
X253029047Y-115489047D01*
X253410000Y-115727142D02*
X253457619Y-115774761D01*
X253410000Y-115822380D01*
X253362380Y-115774761D01*
X253410000Y-115727142D01*
X253410000Y-115822380D01*
X253838571Y-114917619D02*
X253886190Y-114870000D01*
X253981428Y-114822380D01*
X254219523Y-114822380D01*
X254314761Y-114870000D01*
X254362380Y-114917619D01*
X254410000Y-115012857D01*
X254410000Y-115108095D01*
X254362380Y-115250952D01*
X253790952Y-115822380D01*
X254410000Y-115822380D01*
X252886190Y-119155714D02*
X252886190Y-119822380D01*
X252648095Y-118774761D02*
X252410000Y-119489047D01*
X253029047Y-119489047D01*
X253410000Y-119727142D02*
X253457619Y-119774761D01*
X253410000Y-119822380D01*
X253362380Y-119774761D01*
X253410000Y-119727142D01*
X253410000Y-119822380D01*
X253838571Y-118917619D02*
X253886190Y-118870000D01*
X253981428Y-118822380D01*
X254219523Y-118822380D01*
X254314761Y-118870000D01*
X254362380Y-118917619D01*
X254410000Y-119012857D01*
X254410000Y-119108095D01*
X254362380Y-119250952D01*
X253790952Y-119822380D01*
X254410000Y-119822380D01*
X252362380Y-106822380D02*
X252981428Y-106822380D01*
X252648095Y-107203333D01*
X252790952Y-107203333D01*
X252886190Y-107250952D01*
X252933809Y-107298571D01*
X252981428Y-107393809D01*
X252981428Y-107631904D01*
X252933809Y-107727142D01*
X252886190Y-107774761D01*
X252790952Y-107822380D01*
X252505238Y-107822380D01*
X252410000Y-107774761D01*
X252362380Y-107727142D01*
X253410000Y-107727142D02*
X253457619Y-107774761D01*
X253410000Y-107822380D01*
X253362380Y-107774761D01*
X253410000Y-107727142D01*
X253410000Y-107822380D01*
X254362380Y-106822380D02*
X253886190Y-106822380D01*
X253838571Y-107298571D01*
X253886190Y-107250952D01*
X253981428Y-107203333D01*
X254219523Y-107203333D01*
X254314761Y-107250952D01*
X254362380Y-107298571D01*
X254410000Y-107393809D01*
X254410000Y-107631904D01*
X254362380Y-107727142D01*
X254314761Y-107774761D01*
X254219523Y-107822380D01*
X253981428Y-107822380D01*
X253886190Y-107774761D01*
X253838571Y-107727142D01*
X252362380Y-122822380D02*
X252981428Y-122822380D01*
X252648095Y-123203333D01*
X252790952Y-123203333D01*
X252886190Y-123250952D01*
X252933809Y-123298571D01*
X252981428Y-123393809D01*
X252981428Y-123631904D01*
X252933809Y-123727142D01*
X252886190Y-123774761D01*
X252790952Y-123822380D01*
X252505238Y-123822380D01*
X252410000Y-123774761D01*
X252362380Y-123727142D01*
X253410000Y-123727142D02*
X253457619Y-123774761D01*
X253410000Y-123822380D01*
X253362380Y-123774761D01*
X253410000Y-123727142D01*
X253410000Y-123822380D01*
X254362380Y-122822380D02*
X253886190Y-122822380D01*
X253838571Y-123298571D01*
X253886190Y-123250952D01*
X253981428Y-123203333D01*
X254219523Y-123203333D01*
X254314761Y-123250952D01*
X254362380Y-123298571D01*
X254410000Y-123393809D01*
X254410000Y-123631904D01*
X254362380Y-123727142D01*
X254314761Y-123774761D01*
X254219523Y-123822380D01*
X253981428Y-123822380D01*
X253886190Y-123774761D01*
X253838571Y-123727142D01*
D10*
X208410000Y-110370000D02*
X248410000Y-110370000D01*
X208410000Y-112370000D02*
X248410000Y-112370000D01*
X208410000Y-114370000D02*
X248410000Y-114370000D01*
X208410000Y-116370000D02*
X248410000Y-116370000D01*
X208410000Y-118370000D02*
X248410000Y-118370000D01*
X208410000Y-120370000D02*
X248410000Y-120370000D01*
X208410000Y-122370000D02*
X248410000Y-122370000D01*
X208410000Y-124370000D02*
X248410000Y-124370000D01*
X208410000Y-104370000D02*
X208410000Y-124370000D01*
X208410000Y-104370000D02*
X248410000Y-104370000D01*
X209410000Y-106370000D02*
X248410000Y-106370000D01*
D12*
X143928571Y-73278571D02*
X143071428Y-73278571D01*
X143500000Y-73278571D02*
X143500000Y-71778571D01*
X143357142Y-71992857D01*
X143214285Y-72135714D01*
X143071428Y-72207142D01*
X144857142Y-71778571D02*
X145000000Y-71778571D01*
X145142857Y-71850000D01*
X145214285Y-71921428D01*
X145285714Y-72064285D01*
X145357142Y-72350000D01*
X145357142Y-72707142D01*
X145285714Y-72992857D01*
X145214285Y-73135714D01*
X145142857Y-73207142D01*
X145000000Y-73278571D01*
X144857142Y-73278571D01*
X144714285Y-73207142D01*
X144642857Y-73135714D01*
X144571428Y-72992857D01*
X144500000Y-72707142D01*
X144500000Y-72350000D01*
X144571428Y-72064285D01*
X144642857Y-71921428D01*
X144714285Y-71850000D01*
X144857142Y-71778571D01*
X146285714Y-71778571D02*
X146428571Y-71778571D01*
X146571428Y-71850000D01*
X146642857Y-71921428D01*
X146714285Y-72064285D01*
X146785714Y-72350000D01*
X146785714Y-72707142D01*
X146714285Y-72992857D01*
X146642857Y-73135714D01*
X146571428Y-73207142D01*
X146428571Y-73278571D01*
X146285714Y-73278571D01*
X146142857Y-73207142D01*
X146071428Y-73135714D01*
X146000000Y-72992857D01*
X145928571Y-72707142D01*
X145928571Y-72350000D01*
X146000000Y-72064285D01*
X146071428Y-71921428D01*
X146142857Y-71850000D01*
X146285714Y-71778571D01*
X147428571Y-73135714D02*
X147500000Y-73207142D01*
X147428571Y-73278571D01*
X147357142Y-73207142D01*
X147428571Y-73135714D01*
X147428571Y-73278571D01*
X148428571Y-71778571D02*
X148571428Y-71778571D01*
X148714285Y-71850000D01*
X148785714Y-71921428D01*
X148857142Y-72064285D01*
X148928571Y-72350000D01*
X148928571Y-72707142D01*
X148857142Y-72992857D01*
X148785714Y-73135714D01*
X148714285Y-73207142D01*
X148571428Y-73278571D01*
X148428571Y-73278571D01*
X148285714Y-73207142D01*
X148214285Y-73135714D01*
X148142857Y-72992857D01*
X148071428Y-72707142D01*
X148071428Y-72350000D01*
X148142857Y-72064285D01*
X148214285Y-71921428D01*
X148285714Y-71850000D01*
X148428571Y-71778571D01*
X149857142Y-71778571D02*
X150000000Y-71778571D01*
X150142857Y-71850000D01*
X150214285Y-71921428D01*
X150285714Y-72064285D01*
X150357142Y-72350000D01*
X150357142Y-72707142D01*
X150285714Y-72992857D01*
X150214285Y-73135714D01*
X150142857Y-73207142D01*
X150000000Y-73278571D01*
X149857142Y-73278571D01*
X149714285Y-73207142D01*
X149642857Y-73135714D01*
X149571428Y-72992857D01*
X149500000Y-72707142D01*
X149500000Y-72350000D01*
X149571428Y-72064285D01*
X149642857Y-71921428D01*
X149714285Y-71850000D01*
X149857142Y-71778571D01*
X151285714Y-71778571D02*
X151428571Y-71778571D01*
X151571428Y-71850000D01*
X151642857Y-71921428D01*
X151714285Y-72064285D01*
X151785714Y-72350000D01*
X151785714Y-72707142D01*
X151714285Y-72992857D01*
X151642857Y-73135714D01*
X151571428Y-73207142D01*
X151428571Y-73278571D01*
X151285714Y-73278571D01*
X151142857Y-73207142D01*
X151071428Y-73135714D01*
X151000000Y-72992857D01*
X150928571Y-72707142D01*
X150928571Y-72350000D01*
X151000000Y-72064285D01*
X151071428Y-71921428D01*
X151142857Y-71850000D01*
X151285714Y-71778571D01*
X153571428Y-73278571D02*
X153571428Y-72278571D01*
X153571428Y-72421428D02*
X153642857Y-72350000D01*
X153785714Y-72278571D01*
X154000000Y-72278571D01*
X154142857Y-72350000D01*
X154214285Y-72492857D01*
X154214285Y-73278571D01*
X154214285Y-72492857D02*
X154285714Y-72350000D01*
X154428571Y-72278571D01*
X154642857Y-72278571D01*
X154785714Y-72350000D01*
X154857142Y-72492857D01*
X154857142Y-73278571D01*
X155571428Y-73278571D02*
X155571428Y-72278571D01*
X155571428Y-72421428D02*
X155642857Y-72350000D01*
X155785714Y-72278571D01*
X156000000Y-72278571D01*
X156142857Y-72350000D01*
X156214285Y-72492857D01*
X156214285Y-73278571D01*
X156214285Y-72492857D02*
X156285714Y-72350000D01*
X156428571Y-72278571D01*
X156642857Y-72278571D01*
X156785714Y-72350000D01*
X156857142Y-72492857D01*
X156857142Y-73278571D01*
X100000000Y-74700000D02*
X200000000Y-74700000D01*
X100000000Y-100000000D02*
X100000000Y-74113579D01*
X200000000Y-100000000D02*
X200000000Y-74113579D01*
X200000000Y-74700000D02*
X198873496Y-75286421D01*
X200000000Y-74700000D02*
X198873496Y-74113579D01*
X100000000Y-74700000D02*
X101126504Y-75286421D01*
X100000000Y-74700000D02*
X101126504Y-74113579D01*
X76121428Y-118714285D02*
X76050000Y-118642857D01*
X75978571Y-118500000D01*
X75978571Y-118142857D01*
X76050000Y-118000000D01*
X76121428Y-117928571D01*
X76264285Y-117857142D01*
X76407142Y-117857142D01*
X76621428Y-117928571D01*
X77478571Y-118785714D01*
X77478571Y-117857142D01*
X75978571Y-116500000D02*
X75978571Y-117214285D01*
X76692857Y-117285714D01*
X76621428Y-117214285D01*
X76550000Y-117071428D01*
X76550000Y-116714285D01*
X76621428Y-116571428D01*
X76692857Y-116500000D01*
X76835714Y-116428571D01*
X77192857Y-116428571D01*
X77335714Y-116500000D01*
X77407142Y-116571428D01*
X77478571Y-116714285D01*
X77478571Y-117071428D01*
X77407142Y-117214285D01*
X77335714Y-117285714D01*
X77335714Y-115785714D02*
X77407142Y-115714285D01*
X77478571Y-115785714D01*
X77407142Y-115857142D01*
X77335714Y-115785714D01*
X77478571Y-115785714D01*
X75978571Y-114785714D02*
X75978571Y-114642857D01*
X76050000Y-114500000D01*
X76121428Y-114428571D01*
X76264285Y-114357142D01*
X76550000Y-114285714D01*
X76907142Y-114285714D01*
X77192857Y-114357142D01*
X77335714Y-114428571D01*
X77407142Y-114500000D01*
X77478571Y-114642857D01*
X77478571Y-114785714D01*
X77407142Y-114928571D01*
X77335714Y-115000000D01*
X77192857Y-115071428D01*
X76907142Y-115142857D01*
X76550000Y-115142857D01*
X76264285Y-115071428D01*
X76121428Y-115000000D01*
X76050000Y-114928571D01*
X75978571Y-114785714D01*
X75978571Y-113357142D02*
X75978571Y-113214285D01*
X76050000Y-113071428D01*
X76121428Y-113000000D01*
X76264285Y-112928571D01*
X76550000Y-112857142D01*
X76907142Y-112857142D01*
X77192857Y-112928571D01*
X77335714Y-113000000D01*
X77407142Y-113071428D01*
X77478571Y-113214285D01*
X77478571Y-113357142D01*
X77407142Y-113500000D01*
X77335714Y-113571428D01*
X77192857Y-113642857D01*
X76907142Y-113714285D01*
X76550000Y-113714285D01*
X76264285Y-113642857D01*
X76121428Y-113571428D01*
X76050000Y-113500000D01*
X75978571Y-113357142D01*
X75978571Y-111928571D02*
X75978571Y-111785714D01*
X76050000Y-111642857D01*
X76121428Y-111571428D01*
X76264285Y-111500000D01*
X76550000Y-111428571D01*
X76907142Y-111428571D01*
X77192857Y-111500000D01*
X77335714Y-111571428D01*
X77407142Y-111642857D01*
X77478571Y-111785714D01*
X77478571Y-111928571D01*
X77407142Y-112071428D01*
X77335714Y-112142857D01*
X77192857Y-112214285D01*
X76907142Y-112285714D01*
X76550000Y-112285714D01*
X76264285Y-112214285D01*
X76121428Y-112142857D01*
X76050000Y-112071428D01*
X75978571Y-111928571D01*
X77478571Y-109642857D02*
X76478571Y-109642857D01*
X76621428Y-109642857D02*
X76550000Y-109571428D01*
X76478571Y-109428571D01*
X76478571Y-109214285D01*
X76550000Y-109071428D01*
X76692857Y-109000000D01*
X77478571Y-109000000D01*
X76692857Y-109000000D02*
X76550000Y-108928571D01*
X76478571Y-108785714D01*
X76478571Y-108571428D01*
X76550000Y-108428571D01*
X76692857Y-108357142D01*
X77478571Y-108357142D01*
X77478571Y-107642857D02*
X76478571Y-107642857D01*
X76621428Y-107642857D02*
X76550000Y-107571428D01*
X76478571Y-107428571D01*
X76478571Y-107214285D01*
X76550000Y-107071428D01*
X76692857Y-107000000D01*
X77478571Y-107000000D01*
X76692857Y-107000000D02*
X76550000Y-106928571D01*
X76478571Y-106785714D01*
X76478571Y-106571428D01*
X76550000Y-106428571D01*
X76692857Y-106357142D01*
X77478571Y-106357142D01*
X78900000Y-125000000D02*
X78900000Y-100000000D01*
X100000000Y-125000000D02*
X78313579Y-125000000D01*
X100000000Y-100000000D02*
X78313579Y-100000000D01*
X78900000Y-100000000D02*
X79486421Y-101126504D01*
X78900000Y-100000000D02*
X78313579Y-101126504D01*
X78900000Y-125000000D02*
X79486421Y-123873496D01*
X78900000Y-125000000D02*
X78313579Y-123873496D01*
M02*
