G04 #@! TF.GenerationSoftware,KiCad,Pcbnew,5.0.2+dfsg1-1~bpo9+1*
G04 #@! TF.CreationDate,2019-10-09T09:51:35+02:00*
G04 #@! TF.ProjectId,OV9281-Dual-Camera-Board-Rev.1.1,4f563932-3831-42d4-9475-616c2d43616d,rev?*
G04 #@! TF.SameCoordinates,Original*
G04 #@! TF.FileFunction,Copper,L2,Inr*
G04 #@! TF.FilePolarity,Positive*
%FSLAX46Y46*%
G04 Gerber Fmt 4.6, Leading zero omitted, Abs format (unit mm)*
G04 Created by KiCad (PCBNEW 5.0.2+dfsg1-1~bpo9+1) date Wed 09 Oct 2019 09:51:35 AM CEST*
%MOMM*%
%LPD*%
G01*
G04 APERTURE LIST*
G04 #@! TA.AperFunction,ViaPad*
%ADD10C,0.550000*%
G04 #@! TD*
G04 #@! TA.AperFunction,Conductor*
%ADD11C,0.254000*%
G04 #@! TD*
G04 APERTURE END LIST*
D10*
G04 #@! TO.N,GND*
X184028000Y-123590000D03*
X108802500Y-106680000D03*
X111252500Y-102386000D03*
X120402500Y-104536000D03*
X112002500Y-119010990D03*
X128102500Y-114036000D03*
X158252500Y-121136000D03*
X156752500Y-121136000D03*
X155252500Y-121136000D03*
X153752500Y-121086000D03*
X149252500Y-120986000D03*
X147752500Y-120986000D03*
X179128000Y-121240000D03*
X169552500Y-109986000D03*
X180202500Y-105136000D03*
X178352504Y-121686000D03*
X187852500Y-121586000D03*
X185752500Y-104986006D03*
X119302500Y-123136000D03*
X112452502Y-107986000D03*
X108250000Y-123750000D03*
X111150000Y-121550000D03*
X111150000Y-123850000D03*
G04 #@! TO.N,+3V3*
X119102500Y-120986000D03*
X126802500Y-123436000D03*
X138052500Y-120736000D03*
X138652500Y-121436000D03*
X190152500Y-122586000D03*
X168052500Y-122385998D03*
X186552500Y-121636000D03*
X128652500Y-108386000D03*
X114152500Y-122936000D03*
X121552500Y-102086000D03*
X128652500Y-101786000D03*
X114900000Y-102100000D03*
X187880000Y-123990000D03*
G04 #@! TO.N,+2V8*
X126652500Y-115186000D03*
X173102511Y-112185989D03*
G04 #@! TO.N,+1V8*
X112752500Y-106034577D03*
X110102500Y-104736000D03*
X189752500Y-105036000D03*
X168352500Y-105436000D03*
X187602494Y-106286000D03*
X126852500Y-108186000D03*
X117252500Y-108086000D03*
X130152500Y-108286000D03*
X189752492Y-104086000D03*
X102786456Y-108319956D03*
X172525000Y-105750000D03*
G04 #@! TO.N,+1V2*
X175502500Y-118936000D03*
X170752498Y-118186000D03*
X103684998Y-117750000D03*
X101470000Y-117750000D03*
X172280000Y-118760000D03*
X177120000Y-119000000D03*
G04 #@! TO.N,/CAM_L_D1_P*
X166300000Y-106610000D03*
G04 #@! TO.N,/CAM_L_D1_N*
X166300000Y-107400000D03*
G04 #@! TO.N,/CAM_R_D1_N*
X121160000Y-104950000D03*
G04 #@! TO.N,/CAM_R_D1_P*
X121170000Y-105670000D03*
G04 #@! TO.N,/CAM_L_CLK_P*
X161380000Y-108630000D03*
G04 #@! TO.N,/CAM_L_CLK_N*
X160860000Y-108090000D03*
G04 #@! TO.N,/CAM_R_CLK_N*
X114580000Y-107470000D03*
G04 #@! TO.N,/CAM_R_CLK_P*
X115160000Y-107960000D03*
G04 #@! TO.N,/CAM_L_D0_N*
X162710000Y-108860000D03*
G04 #@! TO.N,/CAM_L_D0_P*
X163230000Y-109400000D03*
G04 #@! TO.N,/CAM_R_D0_N*
X113990000Y-106270000D03*
G04 #@! TO.N,/CAM_R_D0_P*
X114570000Y-106760000D03*
G04 #@! TO.N,/CAM_RST*
X146252500Y-117286000D03*
X165460000Y-111780000D03*
G04 #@! TO.N,/M1_DOVDD*
X183140000Y-110020000D03*
X185619792Y-109207262D03*
X179652500Y-111324036D03*
X187268724Y-115785996D03*
X179937771Y-115671263D03*
X175452500Y-110586000D03*
X178300000Y-109800000D03*
X178462497Y-110572533D03*
X177775528Y-111199472D03*
G04 #@! TO.N,/M1_AGND*
X187752500Y-111586000D03*
X188190000Y-113320000D03*
X191727500Y-109986000D03*
X191727500Y-111786000D03*
X191727500Y-113586000D03*
X191727500Y-115286000D03*
X191727500Y-117086000D03*
X182152500Y-119186000D03*
X188652500Y-109186000D03*
X186187490Y-119180009D03*
X175525000Y-114175000D03*
X177925000Y-111950000D03*
X175425000Y-109875000D03*
G04 #@! TO.N,/M1_DVDD*
X181460000Y-114020000D03*
X188921426Y-113033159D03*
X185102283Y-109972274D03*
X187544926Y-109679941D03*
X185052500Y-116386002D03*
X181177496Y-116561004D03*
X181700000Y-110100000D03*
X178900000Y-118430000D03*
X189430000Y-115300000D03*
G04 #@! TO.N,/M1_AVDD*
X187952500Y-110886000D03*
X179150000Y-114025000D03*
X189352512Y-116668488D03*
X180452500Y-113286000D03*
X177050000Y-114750021D03*
G04 #@! TO.N,/M1_DGND*
X186752500Y-116486000D03*
X182071338Y-116583081D03*
X183552500Y-114885998D03*
X181252500Y-115185994D03*
X181152504Y-110986000D03*
X182752500Y-116586000D03*
X182447084Y-109938373D03*
X177890000Y-116486000D03*
X177030000Y-109840000D03*
G04 #@! TO.N,/M1_VN3*
X188702520Y-111286000D03*
G04 #@! TO.N,/M1_VH*
X189502500Y-111386000D03*
G04 #@! TO.N,/M1_CAM_SCL_1V8*
X180452500Y-114686000D03*
X175600000Y-115300000D03*
X125700000Y-111000000D03*
G04 #@! TO.N,/M1_VN2*
X189652500Y-112536004D03*
G04 #@! TO.N,/M1_SID*
X180948720Y-112112280D03*
X178500000Y-111600000D03*
X173124998Y-109725000D03*
G04 #@! TO.N,/M1_MCLK*
X180927508Y-110061008D03*
G04 #@! TO.N,/M1_PVDD*
X186052500Y-116486000D03*
G04 #@! TO.N,/M1_VN1*
X188780210Y-114396532D03*
G04 #@! TO.N,/M1_VSYNC_1V8*
X170752500Y-112786000D03*
X173080000Y-113220000D03*
G04 #@! TO.N,/CAM_NRST_1V8*
X125052500Y-103886000D03*
X185077495Y-114986000D03*
G04 #@! TO.N,/M1_CAM_SDA_1V8*
X184052500Y-116285998D03*
X169000000Y-118900004D03*
X125750000Y-110250000D03*
X132575000Y-116450000D03*
X132275000Y-119075000D03*
G04 #@! TO.N,/M2_DOVDD*
X113262500Y-109866000D03*
X115992500Y-109996000D03*
X110052500Y-112686000D03*
X108352500Y-111686000D03*
X110852500Y-114686000D03*
X117703594Y-115540094D03*
X110652500Y-109286000D03*
X102675000Y-110450000D03*
X103675000Y-111700000D03*
X105000000Y-110250000D03*
G04 #@! TO.N,/M2_AGND*
X122652500Y-118386000D03*
X118482500Y-113276000D03*
X123052500Y-109885992D03*
X118052500Y-109386000D03*
X119352500Y-109586000D03*
X120350000Y-109360000D03*
X103025000Y-113050000D03*
X121800000Y-111800000D03*
X121750000Y-113325000D03*
X121700000Y-114950000D03*
X102275000Y-113850000D03*
G04 #@! TO.N,/M2_DVDD*
X111462500Y-114020000D03*
X119872500Y-113286000D03*
X111652500Y-109786000D03*
X118752500Y-110286000D03*
X115170706Y-109267794D03*
X111952500Y-114986000D03*
X115046165Y-115835990D03*
X110210000Y-119440000D03*
X120520000Y-115490000D03*
G04 #@! TO.N,/M2_AVDD*
X111442500Y-113290000D03*
X119126000Y-116486002D03*
X117652500Y-110586008D03*
X106950000Y-115425000D03*
X108050000Y-116450000D03*
G04 #@! TO.N,/M2_DGND*
X112471751Y-109936215D03*
X114952500Y-118986000D03*
X113552500Y-118986000D03*
X106952496Y-117886000D03*
X108352500Y-118086000D03*
X117052500Y-118486000D03*
X117062500Y-115986000D03*
X111456145Y-110782590D03*
X106750000Y-108900000D03*
X113152500Y-114986000D03*
X109175010Y-109591632D03*
X108075000Y-110000000D03*
G04 #@! TO.N,/M2_VN3*
X118952500Y-111386000D03*
G04 #@! TO.N,/M2_VH*
X119713500Y-111325000D03*
G04 #@! TO.N,/M2_CAM_SCL_1V8*
X111002500Y-115686000D03*
G04 #@! TO.N,/M2_VN2*
X119500000Y-112325000D03*
G04 #@! TO.N,/M2_SID*
X103725000Y-108150000D03*
G04 #@! TO.N,/M2_MCLK_M*
X110562500Y-111476000D03*
X177352500Y-101186000D03*
X178352500Y-105286000D03*
G04 #@! TO.N,/M2_PVDD*
X116281200Y-116155991D03*
G04 #@! TO.N,/M2_VN1*
X119042500Y-113926000D03*
G04 #@! TO.N,/M2_VSYNC_1V8*
X127252500Y-104186000D03*
X124430000Y-114510000D03*
G04 #@! TO.N,/M2_CAM_SDA_1V8*
X114152498Y-115835990D03*
G04 #@! TO.N,/M2_VSYNC*
X145752500Y-116486000D03*
X163070000Y-113279998D03*
G04 #@! TO.N,/M1_VSYNC*
X164065647Y-113709265D03*
X146749671Y-118180010D03*
G04 #@! TO.N,/CAM_RST_1V8*
X170710000Y-111000000D03*
X170900000Y-109500000D03*
G04 #@! TO.N,/M1_VSYNC_1V8_M*
X175280000Y-113420000D03*
X125240000Y-116790000D03*
G04 #@! TO.N,/M2_VSYNC_1V8_M*
X115652500Y-114886000D03*
X119452500Y-114886000D03*
X122020000Y-117380000D03*
G04 #@! TD*
D11*
G04 #@! TO.N,/M2_DGND*
G36*
X117625500Y-109032354D02*
X117584537Y-109073317D01*
X117500500Y-109276200D01*
X117500500Y-109495800D01*
X117584537Y-109698683D01*
X117625500Y-109739646D01*
X117625500Y-110034008D01*
X117542700Y-110034008D01*
X117339817Y-110118045D01*
X117184537Y-110273325D01*
X117100500Y-110476208D01*
X117100500Y-110695808D01*
X117184537Y-110898691D01*
X117339817Y-111053971D01*
X117542700Y-111138008D01*
X117625500Y-111138008D01*
X117625500Y-114988094D01*
X117593794Y-114988094D01*
X117390911Y-115072131D01*
X117235631Y-115227411D01*
X117151594Y-115430294D01*
X117151594Y-115649894D01*
X117235631Y-115852777D01*
X117390911Y-116008057D01*
X117593794Y-116092094D01*
X117625500Y-116092094D01*
X117625500Y-119459000D01*
X112335136Y-119459000D01*
X112470463Y-119323673D01*
X112554500Y-119120790D01*
X112554500Y-118901190D01*
X112470463Y-118698307D01*
X112315183Y-118543027D01*
X112112300Y-118458990D01*
X111892700Y-118458990D01*
X111689817Y-118543027D01*
X111534537Y-118698307D01*
X111450500Y-118901190D01*
X111450500Y-119120790D01*
X111534537Y-119323673D01*
X111669864Y-119459000D01*
X110762000Y-119459000D01*
X110762000Y-119330200D01*
X110677963Y-119127317D01*
X110522683Y-118972037D01*
X110319800Y-118888000D01*
X110100200Y-118888000D01*
X109897317Y-118972037D01*
X109742037Y-119127317D01*
X109658000Y-119330200D01*
X109658000Y-119459000D01*
X106179500Y-119459000D01*
X106179500Y-116340200D01*
X107498000Y-116340200D01*
X107498000Y-116559800D01*
X107582037Y-116762683D01*
X107737317Y-116917963D01*
X107940200Y-117002000D01*
X108159800Y-117002000D01*
X108362683Y-116917963D01*
X108517963Y-116762683D01*
X108602000Y-116559800D01*
X108602000Y-116340200D01*
X108517963Y-116137317D01*
X108362683Y-115982037D01*
X108159800Y-115898000D01*
X107940200Y-115898000D01*
X107737317Y-115982037D01*
X107582037Y-116137317D01*
X107498000Y-116340200D01*
X106179500Y-116340200D01*
X106179500Y-115315200D01*
X106398000Y-115315200D01*
X106398000Y-115534800D01*
X106482037Y-115737683D01*
X106637317Y-115892963D01*
X106840200Y-115977000D01*
X107059800Y-115977000D01*
X107262683Y-115892963D01*
X107417963Y-115737683D01*
X107502000Y-115534800D01*
X107502000Y-115315200D01*
X107417963Y-115112317D01*
X107262683Y-114957037D01*
X107059800Y-114873000D01*
X106840200Y-114873000D01*
X106637317Y-114957037D01*
X106482037Y-115112317D01*
X106398000Y-115315200D01*
X106179500Y-115315200D01*
X106179500Y-114576200D01*
X110300500Y-114576200D01*
X110300500Y-114795800D01*
X110384537Y-114998683D01*
X110539817Y-115153963D01*
X110692161Y-115217066D01*
X110689817Y-115218037D01*
X110534537Y-115373317D01*
X110450500Y-115576200D01*
X110450500Y-115795800D01*
X110534537Y-115998683D01*
X110689817Y-116153963D01*
X110892700Y-116238000D01*
X111112300Y-116238000D01*
X111315183Y-116153963D01*
X111470463Y-115998683D01*
X111554500Y-115795800D01*
X111554500Y-115726190D01*
X113600498Y-115726190D01*
X113600498Y-115945790D01*
X113684535Y-116148673D01*
X113839815Y-116303953D01*
X114042698Y-116387990D01*
X114262298Y-116387990D01*
X114465181Y-116303953D01*
X114599332Y-116169803D01*
X114733482Y-116303953D01*
X114936365Y-116387990D01*
X115155965Y-116387990D01*
X115358848Y-116303953D01*
X115514128Y-116148673D01*
X115556577Y-116046191D01*
X115729200Y-116046191D01*
X115729200Y-116265791D01*
X115813237Y-116468674D01*
X115968517Y-116623954D01*
X116171400Y-116707991D01*
X116391000Y-116707991D01*
X116593883Y-116623954D01*
X116749163Y-116468674D01*
X116833200Y-116265791D01*
X116833200Y-116046191D01*
X116749163Y-115843308D01*
X116593883Y-115688028D01*
X116391000Y-115603991D01*
X116171400Y-115603991D01*
X115968517Y-115688028D01*
X115813237Y-115843308D01*
X115729200Y-116046191D01*
X115556577Y-116046191D01*
X115598165Y-115945790D01*
X115598165Y-115726190D01*
X115514128Y-115523307D01*
X115358848Y-115368027D01*
X115155965Y-115283990D01*
X114936365Y-115283990D01*
X114733482Y-115368027D01*
X114599332Y-115502178D01*
X114465181Y-115368027D01*
X114262298Y-115283990D01*
X114042698Y-115283990D01*
X113839815Y-115368027D01*
X113684535Y-115523307D01*
X113600498Y-115726190D01*
X111554500Y-115726190D01*
X111554500Y-115576200D01*
X111470463Y-115373317D01*
X111315183Y-115218037D01*
X111162839Y-115154934D01*
X111165183Y-115153963D01*
X111320463Y-114998683D01*
X111404500Y-114795800D01*
X111404500Y-114576200D01*
X111402760Y-114572000D01*
X111572300Y-114572000D01*
X111595438Y-114562416D01*
X111484537Y-114673317D01*
X111400500Y-114876200D01*
X111400500Y-115095800D01*
X111484537Y-115298683D01*
X111639817Y-115453963D01*
X111842700Y-115538000D01*
X112062300Y-115538000D01*
X112265183Y-115453963D01*
X112420463Y-115298683D01*
X112504500Y-115095800D01*
X112504500Y-114876200D01*
X112463079Y-114776200D01*
X115100500Y-114776200D01*
X115100500Y-114995800D01*
X115184537Y-115198683D01*
X115339817Y-115353963D01*
X115542700Y-115438000D01*
X115762300Y-115438000D01*
X115965183Y-115353963D01*
X116120463Y-115198683D01*
X116204500Y-114995800D01*
X116204500Y-114776200D01*
X116120463Y-114573317D01*
X115965183Y-114418037D01*
X115762300Y-114334000D01*
X115542700Y-114334000D01*
X115339817Y-114418037D01*
X115184537Y-114573317D01*
X115100500Y-114776200D01*
X112463079Y-114776200D01*
X112420463Y-114673317D01*
X112265183Y-114518037D01*
X112062300Y-114434000D01*
X111842700Y-114434000D01*
X111819562Y-114443584D01*
X111930463Y-114332683D01*
X112014500Y-114129800D01*
X112014500Y-113910200D01*
X111930463Y-113707317D01*
X111868146Y-113645000D01*
X111910463Y-113602683D01*
X111994500Y-113399800D01*
X111994500Y-113180200D01*
X111910463Y-112977317D01*
X111755183Y-112822037D01*
X111552300Y-112738000D01*
X111332700Y-112738000D01*
X111129817Y-112822037D01*
X110974537Y-112977317D01*
X110890500Y-113180200D01*
X110890500Y-113399800D01*
X110974537Y-113602683D01*
X111036854Y-113665000D01*
X110994537Y-113707317D01*
X110910500Y-113910200D01*
X110910500Y-114129800D01*
X110912240Y-114134000D01*
X110742700Y-114134000D01*
X110539817Y-114218037D01*
X110384537Y-114373317D01*
X110300500Y-114576200D01*
X106179500Y-114576200D01*
X106179500Y-112576200D01*
X109500500Y-112576200D01*
X109500500Y-112795800D01*
X109584537Y-112998683D01*
X109739817Y-113153963D01*
X109942700Y-113238000D01*
X110162300Y-113238000D01*
X110365183Y-113153963D01*
X110520463Y-112998683D01*
X110604500Y-112795800D01*
X110604500Y-112576200D01*
X110520463Y-112373317D01*
X110365183Y-112218037D01*
X110162300Y-112134000D01*
X109942700Y-112134000D01*
X109739817Y-112218037D01*
X109584537Y-112373317D01*
X109500500Y-112576200D01*
X106179500Y-112576200D01*
X106179500Y-111576200D01*
X107800500Y-111576200D01*
X107800500Y-111795800D01*
X107884537Y-111998683D01*
X108039817Y-112153963D01*
X108242700Y-112238000D01*
X108462300Y-112238000D01*
X108665183Y-112153963D01*
X108820463Y-111998683D01*
X108904500Y-111795800D01*
X108904500Y-111576200D01*
X108820463Y-111373317D01*
X108813346Y-111366200D01*
X110010500Y-111366200D01*
X110010500Y-111585800D01*
X110094537Y-111788683D01*
X110249817Y-111943963D01*
X110452700Y-112028000D01*
X110672300Y-112028000D01*
X110875183Y-111943963D01*
X111030463Y-111788683D01*
X111114500Y-111585800D01*
X111114500Y-111366200D01*
X111030463Y-111163317D01*
X110875183Y-111008037D01*
X110672300Y-110924000D01*
X110452700Y-110924000D01*
X110249817Y-111008037D01*
X110094537Y-111163317D01*
X110010500Y-111366200D01*
X108813346Y-111366200D01*
X108665183Y-111218037D01*
X108462300Y-111134000D01*
X108242700Y-111134000D01*
X108039817Y-111218037D01*
X107884537Y-111373317D01*
X107800500Y-111576200D01*
X106179500Y-111576200D01*
X106179500Y-109176200D01*
X110100500Y-109176200D01*
X110100500Y-109395800D01*
X110184537Y-109598683D01*
X110339817Y-109753963D01*
X110542700Y-109838000D01*
X110762300Y-109838000D01*
X110965183Y-109753963D01*
X111042946Y-109676200D01*
X111100500Y-109676200D01*
X111100500Y-109895800D01*
X111184537Y-110098683D01*
X111339817Y-110253963D01*
X111542700Y-110338000D01*
X111762300Y-110338000D01*
X111965183Y-110253963D01*
X112120463Y-110098683D01*
X112204500Y-109895800D01*
X112204500Y-109756200D01*
X112710500Y-109756200D01*
X112710500Y-109975800D01*
X112794537Y-110178683D01*
X112949817Y-110333963D01*
X113152700Y-110418000D01*
X113372300Y-110418000D01*
X113575183Y-110333963D01*
X113730463Y-110178683D01*
X113814500Y-109975800D01*
X113814500Y-109756200D01*
X113730463Y-109553317D01*
X113575183Y-109398037D01*
X113372300Y-109314000D01*
X113152700Y-109314000D01*
X112949817Y-109398037D01*
X112794537Y-109553317D01*
X112710500Y-109756200D01*
X112204500Y-109756200D01*
X112204500Y-109676200D01*
X112120463Y-109473317D01*
X111965183Y-109318037D01*
X111762300Y-109234000D01*
X111542700Y-109234000D01*
X111339817Y-109318037D01*
X111184537Y-109473317D01*
X111100500Y-109676200D01*
X111042946Y-109676200D01*
X111120463Y-109598683D01*
X111204500Y-109395800D01*
X111204500Y-109176200D01*
X111196959Y-109157994D01*
X114618706Y-109157994D01*
X114618706Y-109377594D01*
X114702743Y-109580477D01*
X114858023Y-109735757D01*
X115060906Y-109819794D01*
X115280506Y-109819794D01*
X115483389Y-109735757D01*
X115516552Y-109702594D01*
X115440500Y-109886200D01*
X115440500Y-110105800D01*
X115524537Y-110308683D01*
X115679817Y-110463963D01*
X115882700Y-110548000D01*
X116102300Y-110548000D01*
X116305183Y-110463963D01*
X116460463Y-110308683D01*
X116544500Y-110105800D01*
X116544500Y-109886200D01*
X116460463Y-109683317D01*
X116305183Y-109528037D01*
X116102300Y-109444000D01*
X115882700Y-109444000D01*
X115679817Y-109528037D01*
X115646654Y-109561200D01*
X115722706Y-109377594D01*
X115722706Y-109157994D01*
X115638669Y-108955111D01*
X115483389Y-108799831D01*
X115280506Y-108715794D01*
X115060906Y-108715794D01*
X114858023Y-108799831D01*
X114702743Y-108955111D01*
X114618706Y-109157994D01*
X111196959Y-109157994D01*
X111120463Y-108973317D01*
X110965183Y-108818037D01*
X110762300Y-108734000D01*
X110542700Y-108734000D01*
X110339817Y-108818037D01*
X110184537Y-108973317D01*
X110100500Y-109176200D01*
X106179500Y-109176200D01*
X106179500Y-108713000D01*
X117625500Y-108713000D01*
X117625500Y-109032354D01*
X117625500Y-109032354D01*
G37*
X117625500Y-109032354D02*
X117584537Y-109073317D01*
X117500500Y-109276200D01*
X117500500Y-109495800D01*
X117584537Y-109698683D01*
X117625500Y-109739646D01*
X117625500Y-110034008D01*
X117542700Y-110034008D01*
X117339817Y-110118045D01*
X117184537Y-110273325D01*
X117100500Y-110476208D01*
X117100500Y-110695808D01*
X117184537Y-110898691D01*
X117339817Y-111053971D01*
X117542700Y-111138008D01*
X117625500Y-111138008D01*
X117625500Y-114988094D01*
X117593794Y-114988094D01*
X117390911Y-115072131D01*
X117235631Y-115227411D01*
X117151594Y-115430294D01*
X117151594Y-115649894D01*
X117235631Y-115852777D01*
X117390911Y-116008057D01*
X117593794Y-116092094D01*
X117625500Y-116092094D01*
X117625500Y-119459000D01*
X112335136Y-119459000D01*
X112470463Y-119323673D01*
X112554500Y-119120790D01*
X112554500Y-118901190D01*
X112470463Y-118698307D01*
X112315183Y-118543027D01*
X112112300Y-118458990D01*
X111892700Y-118458990D01*
X111689817Y-118543027D01*
X111534537Y-118698307D01*
X111450500Y-118901190D01*
X111450500Y-119120790D01*
X111534537Y-119323673D01*
X111669864Y-119459000D01*
X110762000Y-119459000D01*
X110762000Y-119330200D01*
X110677963Y-119127317D01*
X110522683Y-118972037D01*
X110319800Y-118888000D01*
X110100200Y-118888000D01*
X109897317Y-118972037D01*
X109742037Y-119127317D01*
X109658000Y-119330200D01*
X109658000Y-119459000D01*
X106179500Y-119459000D01*
X106179500Y-116340200D01*
X107498000Y-116340200D01*
X107498000Y-116559800D01*
X107582037Y-116762683D01*
X107737317Y-116917963D01*
X107940200Y-117002000D01*
X108159800Y-117002000D01*
X108362683Y-116917963D01*
X108517963Y-116762683D01*
X108602000Y-116559800D01*
X108602000Y-116340200D01*
X108517963Y-116137317D01*
X108362683Y-115982037D01*
X108159800Y-115898000D01*
X107940200Y-115898000D01*
X107737317Y-115982037D01*
X107582037Y-116137317D01*
X107498000Y-116340200D01*
X106179500Y-116340200D01*
X106179500Y-115315200D01*
X106398000Y-115315200D01*
X106398000Y-115534800D01*
X106482037Y-115737683D01*
X106637317Y-115892963D01*
X106840200Y-115977000D01*
X107059800Y-115977000D01*
X107262683Y-115892963D01*
X107417963Y-115737683D01*
X107502000Y-115534800D01*
X107502000Y-115315200D01*
X107417963Y-115112317D01*
X107262683Y-114957037D01*
X107059800Y-114873000D01*
X106840200Y-114873000D01*
X106637317Y-114957037D01*
X106482037Y-115112317D01*
X106398000Y-115315200D01*
X106179500Y-115315200D01*
X106179500Y-114576200D01*
X110300500Y-114576200D01*
X110300500Y-114795800D01*
X110384537Y-114998683D01*
X110539817Y-115153963D01*
X110692161Y-115217066D01*
X110689817Y-115218037D01*
X110534537Y-115373317D01*
X110450500Y-115576200D01*
X110450500Y-115795800D01*
X110534537Y-115998683D01*
X110689817Y-116153963D01*
X110892700Y-116238000D01*
X111112300Y-116238000D01*
X111315183Y-116153963D01*
X111470463Y-115998683D01*
X111554500Y-115795800D01*
X111554500Y-115726190D01*
X113600498Y-115726190D01*
X113600498Y-115945790D01*
X113684535Y-116148673D01*
X113839815Y-116303953D01*
X114042698Y-116387990D01*
X114262298Y-116387990D01*
X114465181Y-116303953D01*
X114599332Y-116169803D01*
X114733482Y-116303953D01*
X114936365Y-116387990D01*
X115155965Y-116387990D01*
X115358848Y-116303953D01*
X115514128Y-116148673D01*
X115556577Y-116046191D01*
X115729200Y-116046191D01*
X115729200Y-116265791D01*
X115813237Y-116468674D01*
X115968517Y-116623954D01*
X116171400Y-116707991D01*
X116391000Y-116707991D01*
X116593883Y-116623954D01*
X116749163Y-116468674D01*
X116833200Y-116265791D01*
X116833200Y-116046191D01*
X116749163Y-115843308D01*
X116593883Y-115688028D01*
X116391000Y-115603991D01*
X116171400Y-115603991D01*
X115968517Y-115688028D01*
X115813237Y-115843308D01*
X115729200Y-116046191D01*
X115556577Y-116046191D01*
X115598165Y-115945790D01*
X115598165Y-115726190D01*
X115514128Y-115523307D01*
X115358848Y-115368027D01*
X115155965Y-115283990D01*
X114936365Y-115283990D01*
X114733482Y-115368027D01*
X114599332Y-115502178D01*
X114465181Y-115368027D01*
X114262298Y-115283990D01*
X114042698Y-115283990D01*
X113839815Y-115368027D01*
X113684535Y-115523307D01*
X113600498Y-115726190D01*
X111554500Y-115726190D01*
X111554500Y-115576200D01*
X111470463Y-115373317D01*
X111315183Y-115218037D01*
X111162839Y-115154934D01*
X111165183Y-115153963D01*
X111320463Y-114998683D01*
X111404500Y-114795800D01*
X111404500Y-114576200D01*
X111402760Y-114572000D01*
X111572300Y-114572000D01*
X111595438Y-114562416D01*
X111484537Y-114673317D01*
X111400500Y-114876200D01*
X111400500Y-115095800D01*
X111484537Y-115298683D01*
X111639817Y-115453963D01*
X111842700Y-115538000D01*
X112062300Y-115538000D01*
X112265183Y-115453963D01*
X112420463Y-115298683D01*
X112504500Y-115095800D01*
X112504500Y-114876200D01*
X112463079Y-114776200D01*
X115100500Y-114776200D01*
X115100500Y-114995800D01*
X115184537Y-115198683D01*
X115339817Y-115353963D01*
X115542700Y-115438000D01*
X115762300Y-115438000D01*
X115965183Y-115353963D01*
X116120463Y-115198683D01*
X116204500Y-114995800D01*
X116204500Y-114776200D01*
X116120463Y-114573317D01*
X115965183Y-114418037D01*
X115762300Y-114334000D01*
X115542700Y-114334000D01*
X115339817Y-114418037D01*
X115184537Y-114573317D01*
X115100500Y-114776200D01*
X112463079Y-114776200D01*
X112420463Y-114673317D01*
X112265183Y-114518037D01*
X112062300Y-114434000D01*
X111842700Y-114434000D01*
X111819562Y-114443584D01*
X111930463Y-114332683D01*
X112014500Y-114129800D01*
X112014500Y-113910200D01*
X111930463Y-113707317D01*
X111868146Y-113645000D01*
X111910463Y-113602683D01*
X111994500Y-113399800D01*
X111994500Y-113180200D01*
X111910463Y-112977317D01*
X111755183Y-112822037D01*
X111552300Y-112738000D01*
X111332700Y-112738000D01*
X111129817Y-112822037D01*
X110974537Y-112977317D01*
X110890500Y-113180200D01*
X110890500Y-113399800D01*
X110974537Y-113602683D01*
X111036854Y-113665000D01*
X110994537Y-113707317D01*
X110910500Y-113910200D01*
X110910500Y-114129800D01*
X110912240Y-114134000D01*
X110742700Y-114134000D01*
X110539817Y-114218037D01*
X110384537Y-114373317D01*
X110300500Y-114576200D01*
X106179500Y-114576200D01*
X106179500Y-112576200D01*
X109500500Y-112576200D01*
X109500500Y-112795800D01*
X109584537Y-112998683D01*
X109739817Y-113153963D01*
X109942700Y-113238000D01*
X110162300Y-113238000D01*
X110365183Y-113153963D01*
X110520463Y-112998683D01*
X110604500Y-112795800D01*
X110604500Y-112576200D01*
X110520463Y-112373317D01*
X110365183Y-112218037D01*
X110162300Y-112134000D01*
X109942700Y-112134000D01*
X109739817Y-112218037D01*
X109584537Y-112373317D01*
X109500500Y-112576200D01*
X106179500Y-112576200D01*
X106179500Y-111576200D01*
X107800500Y-111576200D01*
X107800500Y-111795800D01*
X107884537Y-111998683D01*
X108039817Y-112153963D01*
X108242700Y-112238000D01*
X108462300Y-112238000D01*
X108665183Y-112153963D01*
X108820463Y-111998683D01*
X108904500Y-111795800D01*
X108904500Y-111576200D01*
X108820463Y-111373317D01*
X108813346Y-111366200D01*
X110010500Y-111366200D01*
X110010500Y-111585800D01*
X110094537Y-111788683D01*
X110249817Y-111943963D01*
X110452700Y-112028000D01*
X110672300Y-112028000D01*
X110875183Y-111943963D01*
X111030463Y-111788683D01*
X111114500Y-111585800D01*
X111114500Y-111366200D01*
X111030463Y-111163317D01*
X110875183Y-111008037D01*
X110672300Y-110924000D01*
X110452700Y-110924000D01*
X110249817Y-111008037D01*
X110094537Y-111163317D01*
X110010500Y-111366200D01*
X108813346Y-111366200D01*
X108665183Y-111218037D01*
X108462300Y-111134000D01*
X108242700Y-111134000D01*
X108039817Y-111218037D01*
X107884537Y-111373317D01*
X107800500Y-111576200D01*
X106179500Y-111576200D01*
X106179500Y-109176200D01*
X110100500Y-109176200D01*
X110100500Y-109395800D01*
X110184537Y-109598683D01*
X110339817Y-109753963D01*
X110542700Y-109838000D01*
X110762300Y-109838000D01*
X110965183Y-109753963D01*
X111042946Y-109676200D01*
X111100500Y-109676200D01*
X111100500Y-109895800D01*
X111184537Y-110098683D01*
X111339817Y-110253963D01*
X111542700Y-110338000D01*
X111762300Y-110338000D01*
X111965183Y-110253963D01*
X112120463Y-110098683D01*
X112204500Y-109895800D01*
X112204500Y-109756200D01*
X112710500Y-109756200D01*
X112710500Y-109975800D01*
X112794537Y-110178683D01*
X112949817Y-110333963D01*
X113152700Y-110418000D01*
X113372300Y-110418000D01*
X113575183Y-110333963D01*
X113730463Y-110178683D01*
X113814500Y-109975800D01*
X113814500Y-109756200D01*
X113730463Y-109553317D01*
X113575183Y-109398037D01*
X113372300Y-109314000D01*
X113152700Y-109314000D01*
X112949817Y-109398037D01*
X112794537Y-109553317D01*
X112710500Y-109756200D01*
X112204500Y-109756200D01*
X112204500Y-109676200D01*
X112120463Y-109473317D01*
X111965183Y-109318037D01*
X111762300Y-109234000D01*
X111542700Y-109234000D01*
X111339817Y-109318037D01*
X111184537Y-109473317D01*
X111100500Y-109676200D01*
X111042946Y-109676200D01*
X111120463Y-109598683D01*
X111204500Y-109395800D01*
X111204500Y-109176200D01*
X111196959Y-109157994D01*
X114618706Y-109157994D01*
X114618706Y-109377594D01*
X114702743Y-109580477D01*
X114858023Y-109735757D01*
X115060906Y-109819794D01*
X115280506Y-109819794D01*
X115483389Y-109735757D01*
X115516552Y-109702594D01*
X115440500Y-109886200D01*
X115440500Y-110105800D01*
X115524537Y-110308683D01*
X115679817Y-110463963D01*
X115882700Y-110548000D01*
X116102300Y-110548000D01*
X116305183Y-110463963D01*
X116460463Y-110308683D01*
X116544500Y-110105800D01*
X116544500Y-109886200D01*
X116460463Y-109683317D01*
X116305183Y-109528037D01*
X116102300Y-109444000D01*
X115882700Y-109444000D01*
X115679817Y-109528037D01*
X115646654Y-109561200D01*
X115722706Y-109377594D01*
X115722706Y-109157994D01*
X115638669Y-108955111D01*
X115483389Y-108799831D01*
X115280506Y-108715794D01*
X115060906Y-108715794D01*
X114858023Y-108799831D01*
X114702743Y-108955111D01*
X114618706Y-109157994D01*
X111196959Y-109157994D01*
X111120463Y-108973317D01*
X110965183Y-108818037D01*
X110762300Y-108734000D01*
X110542700Y-108734000D01*
X110339817Y-108818037D01*
X110184537Y-108973317D01*
X110100500Y-109176200D01*
X106179500Y-109176200D01*
X106179500Y-108713000D01*
X117625500Y-108713000D01*
X117625500Y-109032354D01*
G04 #@! TO.N,/M2_AGND*
G36*
X102473773Y-108787919D02*
X102676656Y-108871956D01*
X102896256Y-108871956D01*
X103099139Y-108787919D01*
X103174058Y-108713000D01*
X105625500Y-108713000D01*
X105625500Y-119886000D01*
X105635167Y-119934601D01*
X105662697Y-119975803D01*
X105703899Y-120003333D01*
X105752500Y-120013000D01*
X118052500Y-120013000D01*
X118101101Y-120003333D01*
X118142303Y-119975803D01*
X118169833Y-119934601D01*
X118179500Y-119886000D01*
X118179500Y-117270200D01*
X121468000Y-117270200D01*
X121468000Y-117489800D01*
X121552037Y-117692683D01*
X121707317Y-117847963D01*
X121910200Y-117932000D01*
X122129800Y-117932000D01*
X122332683Y-117847963D01*
X122487963Y-117692683D01*
X122572000Y-117489800D01*
X122572000Y-117270200D01*
X122487963Y-117067317D01*
X122332683Y-116912037D01*
X122129800Y-116828000D01*
X121910200Y-116828000D01*
X121707317Y-116912037D01*
X121552037Y-117067317D01*
X121468000Y-117270200D01*
X118179500Y-117270200D01*
X118179500Y-116376202D01*
X118574000Y-116376202D01*
X118574000Y-116595802D01*
X118658037Y-116798685D01*
X118813317Y-116953965D01*
X119016200Y-117038002D01*
X119235800Y-117038002D01*
X119438683Y-116953965D01*
X119593963Y-116798685D01*
X119678000Y-116595802D01*
X119678000Y-116376202D01*
X119593963Y-116173319D01*
X119438683Y-116018039D01*
X119235800Y-115934002D01*
X119016200Y-115934002D01*
X118813317Y-116018039D01*
X118658037Y-116173319D01*
X118574000Y-116376202D01*
X118179500Y-116376202D01*
X118179500Y-115833601D01*
X118255594Y-115649894D01*
X118255594Y-115430294D01*
X118179500Y-115246587D01*
X118179500Y-110756163D01*
X118204500Y-110695808D01*
X118204500Y-110476208D01*
X118179500Y-110415853D01*
X118179500Y-110176200D01*
X118200500Y-110176200D01*
X118200500Y-110395800D01*
X118284537Y-110598683D01*
X118439817Y-110753963D01*
X118642700Y-110838000D01*
X118833043Y-110838000D01*
X118639817Y-110918037D01*
X118484537Y-111073317D01*
X118400500Y-111276200D01*
X118400500Y-111495800D01*
X118484537Y-111698683D01*
X118639817Y-111853963D01*
X118842700Y-111938000D01*
X119062300Y-111938000D01*
X119137505Y-111906849D01*
X119032037Y-112012317D01*
X118948000Y-112215200D01*
X118948000Y-112434800D01*
X119032037Y-112637683D01*
X119187317Y-112792963D01*
X119390200Y-112877000D01*
X119500854Y-112877000D01*
X119404537Y-112973317D01*
X119320500Y-113176200D01*
X119320500Y-113395800D01*
X119344435Y-113453585D01*
X119152300Y-113374000D01*
X118932700Y-113374000D01*
X118729817Y-113458037D01*
X118574537Y-113613317D01*
X118490500Y-113816200D01*
X118490500Y-114035800D01*
X118574537Y-114238683D01*
X118729817Y-114393963D01*
X118932700Y-114478000D01*
X119079854Y-114478000D01*
X118984537Y-114573317D01*
X118900500Y-114776200D01*
X118900500Y-114995800D01*
X118984537Y-115198683D01*
X119139817Y-115353963D01*
X119342700Y-115438000D01*
X119562300Y-115438000D01*
X119701841Y-115380200D01*
X119968000Y-115380200D01*
X119968000Y-115599800D01*
X120052037Y-115802683D01*
X120207317Y-115957963D01*
X120410200Y-116042000D01*
X120629800Y-116042000D01*
X120832683Y-115957963D01*
X120987963Y-115802683D01*
X121072000Y-115599800D01*
X121072000Y-115380200D01*
X120987963Y-115177317D01*
X120832683Y-115022037D01*
X120629800Y-114938000D01*
X120410200Y-114938000D01*
X120207317Y-115022037D01*
X120052037Y-115177317D01*
X119968000Y-115380200D01*
X119701841Y-115380200D01*
X119765183Y-115353963D01*
X119920463Y-115198683D01*
X120004500Y-114995800D01*
X120004500Y-114776200D01*
X119920463Y-114573317D01*
X119765183Y-114418037D01*
X119562300Y-114334000D01*
X119415146Y-114334000D01*
X119510463Y-114238683D01*
X119594500Y-114035800D01*
X119594500Y-113816200D01*
X119570565Y-113758415D01*
X119762700Y-113838000D01*
X119982300Y-113838000D01*
X120185183Y-113753963D01*
X120340463Y-113598683D01*
X120424500Y-113395800D01*
X120424500Y-113176200D01*
X120340463Y-112973317D01*
X120185183Y-112818037D01*
X119982300Y-112734000D01*
X119871646Y-112734000D01*
X119967963Y-112637683D01*
X120052000Y-112434800D01*
X120052000Y-112215200D01*
X119967963Y-112012317D01*
X119829909Y-111874263D01*
X120026183Y-111792963D01*
X120181463Y-111637683D01*
X120265500Y-111434800D01*
X120265500Y-111215200D01*
X120181463Y-111012317D01*
X120026183Y-110857037D01*
X119823300Y-110773000D01*
X119603700Y-110773000D01*
X119400817Y-110857037D01*
X119302500Y-110955354D01*
X119265183Y-110918037D01*
X119062300Y-110834000D01*
X118871957Y-110834000D01*
X119065183Y-110753963D01*
X119220463Y-110598683D01*
X119304500Y-110395800D01*
X119304500Y-110176200D01*
X119220463Y-109973317D01*
X119065183Y-109818037D01*
X118862300Y-109734000D01*
X118642700Y-109734000D01*
X118439817Y-109818037D01*
X118284537Y-109973317D01*
X118200500Y-110176200D01*
X118179500Y-110176200D01*
X118179500Y-108713000D01*
X124025500Y-108713000D01*
X124025500Y-114133854D01*
X123962037Y-114197317D01*
X123878000Y-114400200D01*
X123878000Y-114619800D01*
X123962037Y-114822683D01*
X124025500Y-114886146D01*
X124025500Y-122159000D01*
X104777000Y-122159000D01*
X104777000Y-121646533D01*
X104691534Y-121440200D01*
X110598000Y-121440200D01*
X110598000Y-121659800D01*
X110682037Y-121862683D01*
X110837317Y-122017963D01*
X111040200Y-122102000D01*
X111259800Y-122102000D01*
X111462683Y-122017963D01*
X111617963Y-121862683D01*
X111702000Y-121659800D01*
X111702000Y-121440200D01*
X111617963Y-121237317D01*
X111462683Y-121082037D01*
X111259800Y-120998000D01*
X111040200Y-120998000D01*
X110837317Y-121082037D01*
X110682037Y-121237317D01*
X110598000Y-121440200D01*
X104691534Y-121440200D01*
X104506467Y-120993411D01*
X104389256Y-120876200D01*
X118550500Y-120876200D01*
X118550500Y-121095800D01*
X118634537Y-121298683D01*
X118789817Y-121453963D01*
X118992700Y-121538000D01*
X119212300Y-121538000D01*
X119415183Y-121453963D01*
X119570463Y-121298683D01*
X119654500Y-121095800D01*
X119654500Y-120876200D01*
X119570463Y-120673317D01*
X119415183Y-120518037D01*
X119212300Y-120434000D01*
X118992700Y-120434000D01*
X118789817Y-120518037D01*
X118634537Y-120673317D01*
X118550500Y-120876200D01*
X104389256Y-120876200D01*
X104006589Y-120493533D01*
X103353467Y-120223000D01*
X102646533Y-120223000D01*
X101993411Y-120493533D01*
X101493533Y-120993411D01*
X101223000Y-121646533D01*
X101223000Y-122159000D01*
X100352000Y-122159000D01*
X100352000Y-117640200D01*
X100918000Y-117640200D01*
X100918000Y-117859800D01*
X101002037Y-118062683D01*
X101157317Y-118217963D01*
X101360200Y-118302000D01*
X101579800Y-118302000D01*
X101782683Y-118217963D01*
X101937963Y-118062683D01*
X102022000Y-117859800D01*
X102022000Y-117640200D01*
X103132998Y-117640200D01*
X103132998Y-117859800D01*
X103217035Y-118062683D01*
X103372315Y-118217963D01*
X103575198Y-118302000D01*
X103794798Y-118302000D01*
X103997681Y-118217963D01*
X104152961Y-118062683D01*
X104236998Y-117859800D01*
X104236998Y-117640200D01*
X104152961Y-117437317D01*
X103997681Y-117282037D01*
X103794798Y-117198000D01*
X103575198Y-117198000D01*
X103372315Y-117282037D01*
X103217035Y-117437317D01*
X103132998Y-117640200D01*
X102022000Y-117640200D01*
X101937963Y-117437317D01*
X101782683Y-117282037D01*
X101579800Y-117198000D01*
X101360200Y-117198000D01*
X101157317Y-117282037D01*
X101002037Y-117437317D01*
X100918000Y-117640200D01*
X100352000Y-117640200D01*
X100352000Y-111590200D01*
X103123000Y-111590200D01*
X103123000Y-111809800D01*
X103207037Y-112012683D01*
X103362317Y-112167963D01*
X103565200Y-112252000D01*
X103784800Y-112252000D01*
X103987683Y-112167963D01*
X104142963Y-112012683D01*
X104227000Y-111809800D01*
X104227000Y-111590200D01*
X104142963Y-111387317D01*
X103987683Y-111232037D01*
X103784800Y-111148000D01*
X103565200Y-111148000D01*
X103362317Y-111232037D01*
X103207037Y-111387317D01*
X103123000Y-111590200D01*
X100352000Y-111590200D01*
X100352000Y-110340200D01*
X102123000Y-110340200D01*
X102123000Y-110559800D01*
X102207037Y-110762683D01*
X102362317Y-110917963D01*
X102565200Y-111002000D01*
X102784800Y-111002000D01*
X102987683Y-110917963D01*
X103142963Y-110762683D01*
X103227000Y-110559800D01*
X103227000Y-110340200D01*
X103144158Y-110140200D01*
X104448000Y-110140200D01*
X104448000Y-110359800D01*
X104532037Y-110562683D01*
X104687317Y-110717963D01*
X104890200Y-110802000D01*
X105109800Y-110802000D01*
X105312683Y-110717963D01*
X105467963Y-110562683D01*
X105552000Y-110359800D01*
X105552000Y-110140200D01*
X105467963Y-109937317D01*
X105312683Y-109782037D01*
X105109800Y-109698000D01*
X104890200Y-109698000D01*
X104687317Y-109782037D01*
X104532037Y-109937317D01*
X104448000Y-110140200D01*
X103144158Y-110140200D01*
X103142963Y-110137317D01*
X102987683Y-109982037D01*
X102784800Y-109898000D01*
X102565200Y-109898000D01*
X102362317Y-109982037D01*
X102207037Y-110137317D01*
X102123000Y-110340200D01*
X100352000Y-110340200D01*
X100352000Y-108713000D01*
X102398854Y-108713000D01*
X102473773Y-108787919D01*
X102473773Y-108787919D01*
G37*
X102473773Y-108787919D02*
X102676656Y-108871956D01*
X102896256Y-108871956D01*
X103099139Y-108787919D01*
X103174058Y-108713000D01*
X105625500Y-108713000D01*
X105625500Y-119886000D01*
X105635167Y-119934601D01*
X105662697Y-119975803D01*
X105703899Y-120003333D01*
X105752500Y-120013000D01*
X118052500Y-120013000D01*
X118101101Y-120003333D01*
X118142303Y-119975803D01*
X118169833Y-119934601D01*
X118179500Y-119886000D01*
X118179500Y-117270200D01*
X121468000Y-117270200D01*
X121468000Y-117489800D01*
X121552037Y-117692683D01*
X121707317Y-117847963D01*
X121910200Y-117932000D01*
X122129800Y-117932000D01*
X122332683Y-117847963D01*
X122487963Y-117692683D01*
X122572000Y-117489800D01*
X122572000Y-117270200D01*
X122487963Y-117067317D01*
X122332683Y-116912037D01*
X122129800Y-116828000D01*
X121910200Y-116828000D01*
X121707317Y-116912037D01*
X121552037Y-117067317D01*
X121468000Y-117270200D01*
X118179500Y-117270200D01*
X118179500Y-116376202D01*
X118574000Y-116376202D01*
X118574000Y-116595802D01*
X118658037Y-116798685D01*
X118813317Y-116953965D01*
X119016200Y-117038002D01*
X119235800Y-117038002D01*
X119438683Y-116953965D01*
X119593963Y-116798685D01*
X119678000Y-116595802D01*
X119678000Y-116376202D01*
X119593963Y-116173319D01*
X119438683Y-116018039D01*
X119235800Y-115934002D01*
X119016200Y-115934002D01*
X118813317Y-116018039D01*
X118658037Y-116173319D01*
X118574000Y-116376202D01*
X118179500Y-116376202D01*
X118179500Y-115833601D01*
X118255594Y-115649894D01*
X118255594Y-115430294D01*
X118179500Y-115246587D01*
X118179500Y-110756163D01*
X118204500Y-110695808D01*
X118204500Y-110476208D01*
X118179500Y-110415853D01*
X118179500Y-110176200D01*
X118200500Y-110176200D01*
X118200500Y-110395800D01*
X118284537Y-110598683D01*
X118439817Y-110753963D01*
X118642700Y-110838000D01*
X118833043Y-110838000D01*
X118639817Y-110918037D01*
X118484537Y-111073317D01*
X118400500Y-111276200D01*
X118400500Y-111495800D01*
X118484537Y-111698683D01*
X118639817Y-111853963D01*
X118842700Y-111938000D01*
X119062300Y-111938000D01*
X119137505Y-111906849D01*
X119032037Y-112012317D01*
X118948000Y-112215200D01*
X118948000Y-112434800D01*
X119032037Y-112637683D01*
X119187317Y-112792963D01*
X119390200Y-112877000D01*
X119500854Y-112877000D01*
X119404537Y-112973317D01*
X119320500Y-113176200D01*
X119320500Y-113395800D01*
X119344435Y-113453585D01*
X119152300Y-113374000D01*
X118932700Y-113374000D01*
X118729817Y-113458037D01*
X118574537Y-113613317D01*
X118490500Y-113816200D01*
X118490500Y-114035800D01*
X118574537Y-114238683D01*
X118729817Y-114393963D01*
X118932700Y-114478000D01*
X119079854Y-114478000D01*
X118984537Y-114573317D01*
X118900500Y-114776200D01*
X118900500Y-114995800D01*
X118984537Y-115198683D01*
X119139817Y-115353963D01*
X119342700Y-115438000D01*
X119562300Y-115438000D01*
X119701841Y-115380200D01*
X119968000Y-115380200D01*
X119968000Y-115599800D01*
X120052037Y-115802683D01*
X120207317Y-115957963D01*
X120410200Y-116042000D01*
X120629800Y-116042000D01*
X120832683Y-115957963D01*
X120987963Y-115802683D01*
X121072000Y-115599800D01*
X121072000Y-115380200D01*
X120987963Y-115177317D01*
X120832683Y-115022037D01*
X120629800Y-114938000D01*
X120410200Y-114938000D01*
X120207317Y-115022037D01*
X120052037Y-115177317D01*
X119968000Y-115380200D01*
X119701841Y-115380200D01*
X119765183Y-115353963D01*
X119920463Y-115198683D01*
X120004500Y-114995800D01*
X120004500Y-114776200D01*
X119920463Y-114573317D01*
X119765183Y-114418037D01*
X119562300Y-114334000D01*
X119415146Y-114334000D01*
X119510463Y-114238683D01*
X119594500Y-114035800D01*
X119594500Y-113816200D01*
X119570565Y-113758415D01*
X119762700Y-113838000D01*
X119982300Y-113838000D01*
X120185183Y-113753963D01*
X120340463Y-113598683D01*
X120424500Y-113395800D01*
X120424500Y-113176200D01*
X120340463Y-112973317D01*
X120185183Y-112818037D01*
X119982300Y-112734000D01*
X119871646Y-112734000D01*
X119967963Y-112637683D01*
X120052000Y-112434800D01*
X120052000Y-112215200D01*
X119967963Y-112012317D01*
X119829909Y-111874263D01*
X120026183Y-111792963D01*
X120181463Y-111637683D01*
X120265500Y-111434800D01*
X120265500Y-111215200D01*
X120181463Y-111012317D01*
X120026183Y-110857037D01*
X119823300Y-110773000D01*
X119603700Y-110773000D01*
X119400817Y-110857037D01*
X119302500Y-110955354D01*
X119265183Y-110918037D01*
X119062300Y-110834000D01*
X118871957Y-110834000D01*
X119065183Y-110753963D01*
X119220463Y-110598683D01*
X119304500Y-110395800D01*
X119304500Y-110176200D01*
X119220463Y-109973317D01*
X119065183Y-109818037D01*
X118862300Y-109734000D01*
X118642700Y-109734000D01*
X118439817Y-109818037D01*
X118284537Y-109973317D01*
X118200500Y-110176200D01*
X118179500Y-110176200D01*
X118179500Y-108713000D01*
X124025500Y-108713000D01*
X124025500Y-114133854D01*
X123962037Y-114197317D01*
X123878000Y-114400200D01*
X123878000Y-114619800D01*
X123962037Y-114822683D01*
X124025500Y-114886146D01*
X124025500Y-122159000D01*
X104777000Y-122159000D01*
X104777000Y-121646533D01*
X104691534Y-121440200D01*
X110598000Y-121440200D01*
X110598000Y-121659800D01*
X110682037Y-121862683D01*
X110837317Y-122017963D01*
X111040200Y-122102000D01*
X111259800Y-122102000D01*
X111462683Y-122017963D01*
X111617963Y-121862683D01*
X111702000Y-121659800D01*
X111702000Y-121440200D01*
X111617963Y-121237317D01*
X111462683Y-121082037D01*
X111259800Y-120998000D01*
X111040200Y-120998000D01*
X110837317Y-121082037D01*
X110682037Y-121237317D01*
X110598000Y-121440200D01*
X104691534Y-121440200D01*
X104506467Y-120993411D01*
X104389256Y-120876200D01*
X118550500Y-120876200D01*
X118550500Y-121095800D01*
X118634537Y-121298683D01*
X118789817Y-121453963D01*
X118992700Y-121538000D01*
X119212300Y-121538000D01*
X119415183Y-121453963D01*
X119570463Y-121298683D01*
X119654500Y-121095800D01*
X119654500Y-120876200D01*
X119570463Y-120673317D01*
X119415183Y-120518037D01*
X119212300Y-120434000D01*
X118992700Y-120434000D01*
X118789817Y-120518037D01*
X118634537Y-120673317D01*
X118550500Y-120876200D01*
X104389256Y-120876200D01*
X104006589Y-120493533D01*
X103353467Y-120223000D01*
X102646533Y-120223000D01*
X101993411Y-120493533D01*
X101493533Y-120993411D01*
X101223000Y-121646533D01*
X101223000Y-122159000D01*
X100352000Y-122159000D01*
X100352000Y-117640200D01*
X100918000Y-117640200D01*
X100918000Y-117859800D01*
X101002037Y-118062683D01*
X101157317Y-118217963D01*
X101360200Y-118302000D01*
X101579800Y-118302000D01*
X101782683Y-118217963D01*
X101937963Y-118062683D01*
X102022000Y-117859800D01*
X102022000Y-117640200D01*
X103132998Y-117640200D01*
X103132998Y-117859800D01*
X103217035Y-118062683D01*
X103372315Y-118217963D01*
X103575198Y-118302000D01*
X103794798Y-118302000D01*
X103997681Y-118217963D01*
X104152961Y-118062683D01*
X104236998Y-117859800D01*
X104236998Y-117640200D01*
X104152961Y-117437317D01*
X103997681Y-117282037D01*
X103794798Y-117198000D01*
X103575198Y-117198000D01*
X103372315Y-117282037D01*
X103217035Y-117437317D01*
X103132998Y-117640200D01*
X102022000Y-117640200D01*
X101937963Y-117437317D01*
X101782683Y-117282037D01*
X101579800Y-117198000D01*
X101360200Y-117198000D01*
X101157317Y-117282037D01*
X101002037Y-117437317D01*
X100918000Y-117640200D01*
X100352000Y-117640200D01*
X100352000Y-111590200D01*
X103123000Y-111590200D01*
X103123000Y-111809800D01*
X103207037Y-112012683D01*
X103362317Y-112167963D01*
X103565200Y-112252000D01*
X103784800Y-112252000D01*
X103987683Y-112167963D01*
X104142963Y-112012683D01*
X104227000Y-111809800D01*
X104227000Y-111590200D01*
X104142963Y-111387317D01*
X103987683Y-111232037D01*
X103784800Y-111148000D01*
X103565200Y-111148000D01*
X103362317Y-111232037D01*
X103207037Y-111387317D01*
X103123000Y-111590200D01*
X100352000Y-111590200D01*
X100352000Y-110340200D01*
X102123000Y-110340200D01*
X102123000Y-110559800D01*
X102207037Y-110762683D01*
X102362317Y-110917963D01*
X102565200Y-111002000D01*
X102784800Y-111002000D01*
X102987683Y-110917963D01*
X103142963Y-110762683D01*
X103227000Y-110559800D01*
X103227000Y-110340200D01*
X103144158Y-110140200D01*
X104448000Y-110140200D01*
X104448000Y-110359800D01*
X104532037Y-110562683D01*
X104687317Y-110717963D01*
X104890200Y-110802000D01*
X105109800Y-110802000D01*
X105312683Y-110717963D01*
X105467963Y-110562683D01*
X105552000Y-110359800D01*
X105552000Y-110140200D01*
X105467963Y-109937317D01*
X105312683Y-109782037D01*
X105109800Y-109698000D01*
X104890200Y-109698000D01*
X104687317Y-109782037D01*
X104532037Y-109937317D01*
X104448000Y-110140200D01*
X103144158Y-110140200D01*
X103142963Y-110137317D01*
X102987683Y-109982037D01*
X102784800Y-109898000D01*
X102565200Y-109898000D01*
X102362317Y-109982037D01*
X102207037Y-110137317D01*
X102123000Y-110340200D01*
X100352000Y-110340200D01*
X100352000Y-108713000D01*
X102398854Y-108713000D01*
X102473773Y-108787919D01*
G04 #@! TO.N,GND*
G36*
X199648001Y-106659000D02*
X188010140Y-106659000D01*
X188070457Y-106598683D01*
X188154494Y-106395800D01*
X188154494Y-106176200D01*
X188070457Y-105973317D01*
X187915177Y-105818037D01*
X187712294Y-105734000D01*
X187492694Y-105734000D01*
X187289811Y-105818037D01*
X187134531Y-105973317D01*
X187050494Y-106176200D01*
X187050494Y-106395800D01*
X187134531Y-106598683D01*
X187194848Y-106659000D01*
X170852500Y-106659000D01*
X170803899Y-106668667D01*
X170762697Y-106696197D01*
X170735167Y-106737399D01*
X170725500Y-106786000D01*
X170725500Y-108974800D01*
X170587317Y-109032037D01*
X170432037Y-109187317D01*
X170348000Y-109390200D01*
X170348000Y-109609800D01*
X170432037Y-109812683D01*
X170587317Y-109967963D01*
X170725500Y-110025200D01*
X170725500Y-110448000D01*
X170600200Y-110448000D01*
X170397317Y-110532037D01*
X170242037Y-110687317D01*
X170158000Y-110890200D01*
X170158000Y-111109800D01*
X170242037Y-111312683D01*
X170397317Y-111467963D01*
X170600200Y-111552000D01*
X170725500Y-111552000D01*
X170725500Y-112234000D01*
X170642700Y-112234000D01*
X170439817Y-112318037D01*
X170284537Y-112473317D01*
X170200500Y-112676200D01*
X170200500Y-112895800D01*
X170284537Y-113098683D01*
X170439817Y-113253963D01*
X170642700Y-113338000D01*
X170725500Y-113338000D01*
X170725500Y-117634000D01*
X170642698Y-117634000D01*
X170439815Y-117718037D01*
X170284535Y-117873317D01*
X170200498Y-118076200D01*
X170200498Y-118295800D01*
X170284535Y-118498683D01*
X170439815Y-118653963D01*
X170642698Y-118738000D01*
X170725500Y-118738000D01*
X170725500Y-120386000D01*
X170735167Y-120434601D01*
X170762697Y-120475803D01*
X170803899Y-120503333D01*
X170852500Y-120513000D01*
X195973944Y-120513000D01*
X195493533Y-120993411D01*
X195223000Y-121646533D01*
X195223000Y-122353467D01*
X195493533Y-123006589D01*
X195993411Y-123506467D01*
X196646533Y-123777000D01*
X197353467Y-123777000D01*
X198006589Y-123506467D01*
X198506467Y-123006589D01*
X198777000Y-122353467D01*
X198777000Y-121646533D01*
X198506467Y-120993411D01*
X198026056Y-120513000D01*
X199648000Y-120513000D01*
X199648000Y-124648000D01*
X100352000Y-124648000D01*
X100352000Y-122713000D01*
X101371924Y-122713000D01*
X101493533Y-123006589D01*
X101993411Y-123506467D01*
X102646533Y-123777000D01*
X103353467Y-123777000D01*
X104006589Y-123506467D01*
X104506467Y-123006589D01*
X104628076Y-122713000D01*
X113647389Y-122713000D01*
X113600500Y-122826200D01*
X113600500Y-123045800D01*
X113684537Y-123248683D01*
X113839817Y-123403963D01*
X114042700Y-123488000D01*
X114262300Y-123488000D01*
X114465183Y-123403963D01*
X114542946Y-123326200D01*
X126250500Y-123326200D01*
X126250500Y-123545800D01*
X126334537Y-123748683D01*
X126489817Y-123903963D01*
X126692700Y-123988000D01*
X126912300Y-123988000D01*
X127115183Y-123903963D01*
X127138946Y-123880200D01*
X187328000Y-123880200D01*
X187328000Y-124099800D01*
X187412037Y-124302683D01*
X187567317Y-124457963D01*
X187770200Y-124542000D01*
X187989800Y-124542000D01*
X188192683Y-124457963D01*
X188347963Y-124302683D01*
X188432000Y-124099800D01*
X188432000Y-123880200D01*
X188347963Y-123677317D01*
X188192683Y-123522037D01*
X187989800Y-123438000D01*
X187770200Y-123438000D01*
X187567317Y-123522037D01*
X187412037Y-123677317D01*
X187328000Y-123880200D01*
X127138946Y-123880200D01*
X127270463Y-123748683D01*
X127354500Y-123545800D01*
X127354500Y-123326200D01*
X127270463Y-123123317D01*
X127115183Y-122968037D01*
X126912300Y-122884000D01*
X126692700Y-122884000D01*
X126489817Y-122968037D01*
X126334537Y-123123317D01*
X126250500Y-123326200D01*
X114542946Y-123326200D01*
X114620463Y-123248683D01*
X114704500Y-123045800D01*
X114704500Y-122826200D01*
X114657611Y-122713000D01*
X124452500Y-122713000D01*
X124501101Y-122703333D01*
X124542303Y-122675803D01*
X124569833Y-122634601D01*
X124579500Y-122586000D01*
X124579500Y-122276198D01*
X167500500Y-122276198D01*
X167500500Y-122495798D01*
X167584537Y-122698681D01*
X167739817Y-122853961D01*
X167942700Y-122937998D01*
X168162300Y-122937998D01*
X168365183Y-122853961D01*
X168520463Y-122698681D01*
X168604500Y-122495798D01*
X168604500Y-122476200D01*
X189600500Y-122476200D01*
X189600500Y-122695800D01*
X189684537Y-122898683D01*
X189839817Y-123053963D01*
X190042700Y-123138000D01*
X190262300Y-123138000D01*
X190465183Y-123053963D01*
X190620463Y-122898683D01*
X190704500Y-122695800D01*
X190704500Y-122476200D01*
X190620463Y-122273317D01*
X190465183Y-122118037D01*
X190262300Y-122034000D01*
X190042700Y-122034000D01*
X189839817Y-122118037D01*
X189684537Y-122273317D01*
X189600500Y-122476200D01*
X168604500Y-122476200D01*
X168604500Y-122276198D01*
X168520463Y-122073315D01*
X168365183Y-121918035D01*
X168162300Y-121833998D01*
X167942700Y-121833998D01*
X167739817Y-121918035D01*
X167584537Y-122073315D01*
X167500500Y-122276198D01*
X124579500Y-122276198D01*
X124579500Y-120626200D01*
X137500500Y-120626200D01*
X137500500Y-120845800D01*
X137584537Y-121048683D01*
X137739817Y-121203963D01*
X137942700Y-121288000D01*
X138116323Y-121288000D01*
X138100500Y-121326200D01*
X138100500Y-121545800D01*
X138184537Y-121748683D01*
X138339817Y-121903963D01*
X138542700Y-121988000D01*
X138762300Y-121988000D01*
X138965183Y-121903963D01*
X139120463Y-121748683D01*
X139204500Y-121545800D01*
X139204500Y-121526200D01*
X186000500Y-121526200D01*
X186000500Y-121745800D01*
X186084537Y-121948683D01*
X186239817Y-122103963D01*
X186442700Y-122188000D01*
X186662300Y-122188000D01*
X186865183Y-122103963D01*
X187020463Y-121948683D01*
X187104500Y-121745800D01*
X187104500Y-121526200D01*
X187020463Y-121323317D01*
X186865183Y-121168037D01*
X186662300Y-121084000D01*
X186442700Y-121084000D01*
X186239817Y-121168037D01*
X186084537Y-121323317D01*
X186000500Y-121526200D01*
X139204500Y-121526200D01*
X139204500Y-121326200D01*
X139120463Y-121123317D01*
X138965183Y-120968037D01*
X138762300Y-120884000D01*
X138588677Y-120884000D01*
X138604500Y-120845800D01*
X138604500Y-120626200D01*
X138520463Y-120423317D01*
X138365183Y-120268037D01*
X138162300Y-120184000D01*
X137942700Y-120184000D01*
X137739817Y-120268037D01*
X137584537Y-120423317D01*
X137500500Y-120626200D01*
X124579500Y-120626200D01*
X124579500Y-118965200D01*
X131723000Y-118965200D01*
X131723000Y-119184800D01*
X131807037Y-119387683D01*
X131962317Y-119542963D01*
X132165200Y-119627000D01*
X132384800Y-119627000D01*
X132587683Y-119542963D01*
X132742963Y-119387683D01*
X132827000Y-119184800D01*
X132827000Y-118965200D01*
X132754515Y-118790204D01*
X168448000Y-118790204D01*
X168448000Y-119009804D01*
X168532037Y-119212687D01*
X168687317Y-119367967D01*
X168890200Y-119452004D01*
X169109800Y-119452004D01*
X169312683Y-119367967D01*
X169467963Y-119212687D01*
X169552000Y-119009804D01*
X169552000Y-118790204D01*
X169467963Y-118587321D01*
X169312683Y-118432041D01*
X169109800Y-118348004D01*
X168890200Y-118348004D01*
X168687317Y-118432041D01*
X168532037Y-118587321D01*
X168448000Y-118790204D01*
X132754515Y-118790204D01*
X132742963Y-118762317D01*
X132587683Y-118607037D01*
X132384800Y-118523000D01*
X132165200Y-118523000D01*
X131962317Y-118607037D01*
X131807037Y-118762317D01*
X131723000Y-118965200D01*
X124579500Y-118965200D01*
X124579500Y-116680200D01*
X124688000Y-116680200D01*
X124688000Y-116899800D01*
X124772037Y-117102683D01*
X124927317Y-117257963D01*
X125130200Y-117342000D01*
X125349800Y-117342000D01*
X125552683Y-117257963D01*
X125707963Y-117102683D01*
X125792000Y-116899800D01*
X125792000Y-116680200D01*
X125707963Y-116477317D01*
X125570846Y-116340200D01*
X132023000Y-116340200D01*
X132023000Y-116559800D01*
X132107037Y-116762683D01*
X132262317Y-116917963D01*
X132465200Y-117002000D01*
X132684800Y-117002000D01*
X132887683Y-116917963D01*
X133042963Y-116762683D01*
X133127000Y-116559800D01*
X133127000Y-116376200D01*
X145200500Y-116376200D01*
X145200500Y-116595800D01*
X145284537Y-116798683D01*
X145439817Y-116953963D01*
X145642700Y-117038000D01*
X145757744Y-117038000D01*
X145700500Y-117176200D01*
X145700500Y-117395800D01*
X145784537Y-117598683D01*
X145939817Y-117753963D01*
X146142700Y-117838000D01*
X146311035Y-117838000D01*
X146281708Y-117867327D01*
X146197671Y-118070210D01*
X146197671Y-118289810D01*
X146281708Y-118492693D01*
X146436988Y-118647973D01*
X146639871Y-118732010D01*
X146859471Y-118732010D01*
X147062354Y-118647973D01*
X147217634Y-118492693D01*
X147301671Y-118289810D01*
X147301671Y-118070210D01*
X147217634Y-117867327D01*
X147062354Y-117712047D01*
X146859471Y-117628010D01*
X146691136Y-117628010D01*
X146720463Y-117598683D01*
X146804500Y-117395800D01*
X146804500Y-117176200D01*
X146720463Y-116973317D01*
X146565183Y-116818037D01*
X146362300Y-116734000D01*
X146247256Y-116734000D01*
X146304500Y-116595800D01*
X146304500Y-116376200D01*
X146220463Y-116173317D01*
X146065183Y-116018037D01*
X145862300Y-115934000D01*
X145642700Y-115934000D01*
X145439817Y-116018037D01*
X145284537Y-116173317D01*
X145200500Y-116376200D01*
X133127000Y-116376200D01*
X133127000Y-116340200D01*
X133042963Y-116137317D01*
X132887683Y-115982037D01*
X132684800Y-115898000D01*
X132465200Y-115898000D01*
X132262317Y-115982037D01*
X132107037Y-116137317D01*
X132023000Y-116340200D01*
X125570846Y-116340200D01*
X125552683Y-116322037D01*
X125349800Y-116238000D01*
X125130200Y-116238000D01*
X124927317Y-116322037D01*
X124772037Y-116477317D01*
X124688000Y-116680200D01*
X124579500Y-116680200D01*
X124579500Y-115076200D01*
X126100500Y-115076200D01*
X126100500Y-115295800D01*
X126184537Y-115498683D01*
X126339817Y-115653963D01*
X126542700Y-115738000D01*
X126762300Y-115738000D01*
X126965183Y-115653963D01*
X127120463Y-115498683D01*
X127204500Y-115295800D01*
X127204500Y-115076200D01*
X127120463Y-114873317D01*
X126965183Y-114718037D01*
X126762300Y-114634000D01*
X126542700Y-114634000D01*
X126339817Y-114718037D01*
X126184537Y-114873317D01*
X126100500Y-115076200D01*
X124579500Y-115076200D01*
X124579500Y-115045556D01*
X124742683Y-114977963D01*
X124897963Y-114822683D01*
X124982000Y-114619800D01*
X124982000Y-114400200D01*
X124897963Y-114197317D01*
X124742683Y-114042037D01*
X124579500Y-113974444D01*
X124579500Y-113170198D01*
X162518000Y-113170198D01*
X162518000Y-113389798D01*
X162602037Y-113592681D01*
X162757317Y-113747961D01*
X162960200Y-113831998D01*
X163179800Y-113831998D01*
X163382683Y-113747961D01*
X163513647Y-113616997D01*
X163513647Y-113819065D01*
X163597684Y-114021948D01*
X163752964Y-114177228D01*
X163955847Y-114261265D01*
X164175447Y-114261265D01*
X164378330Y-114177228D01*
X164533610Y-114021948D01*
X164617647Y-113819065D01*
X164617647Y-113599465D01*
X164533610Y-113396582D01*
X164378330Y-113241302D01*
X164175447Y-113157265D01*
X163955847Y-113157265D01*
X163752964Y-113241302D01*
X163622000Y-113372266D01*
X163622000Y-113170198D01*
X163537963Y-112967315D01*
X163382683Y-112812035D01*
X163179800Y-112727998D01*
X162960200Y-112727998D01*
X162757317Y-112812035D01*
X162602037Y-112967315D01*
X162518000Y-113170198D01*
X124579500Y-113170198D01*
X124579500Y-111670200D01*
X164908000Y-111670200D01*
X164908000Y-111889800D01*
X164992037Y-112092683D01*
X165147317Y-112247963D01*
X165350200Y-112332000D01*
X165569800Y-112332000D01*
X165772683Y-112247963D01*
X165927963Y-112092683D01*
X166012000Y-111889800D01*
X166012000Y-111670200D01*
X165927963Y-111467317D01*
X165772683Y-111312037D01*
X165569800Y-111228000D01*
X165350200Y-111228000D01*
X165147317Y-111312037D01*
X164992037Y-111467317D01*
X164908000Y-111670200D01*
X124579500Y-111670200D01*
X124579500Y-110890200D01*
X125148000Y-110890200D01*
X125148000Y-111109800D01*
X125232037Y-111312683D01*
X125387317Y-111467963D01*
X125590200Y-111552000D01*
X125809800Y-111552000D01*
X126012683Y-111467963D01*
X126167963Y-111312683D01*
X126252000Y-111109800D01*
X126252000Y-110890200D01*
X126167963Y-110687317D01*
X126130646Y-110650000D01*
X126217963Y-110562683D01*
X126302000Y-110359800D01*
X126302000Y-110140200D01*
X126217963Y-109937317D01*
X126062683Y-109782037D01*
X125859800Y-109698000D01*
X125640200Y-109698000D01*
X125437317Y-109782037D01*
X125282037Y-109937317D01*
X125198000Y-110140200D01*
X125198000Y-110359800D01*
X125282037Y-110562683D01*
X125319354Y-110600000D01*
X125232037Y-110687317D01*
X125148000Y-110890200D01*
X124579500Y-110890200D01*
X124579500Y-108286000D01*
X124569833Y-108237399D01*
X124542303Y-108196197D01*
X124501101Y-108168667D01*
X124452500Y-108159000D01*
X117804500Y-108159000D01*
X117804500Y-108076200D01*
X126300500Y-108076200D01*
X126300500Y-108295800D01*
X126384537Y-108498683D01*
X126539817Y-108653963D01*
X126742700Y-108738000D01*
X126962300Y-108738000D01*
X127165183Y-108653963D01*
X127320463Y-108498683D01*
X127404500Y-108295800D01*
X127404500Y-108276200D01*
X128100500Y-108276200D01*
X128100500Y-108495800D01*
X128184537Y-108698683D01*
X128339817Y-108853963D01*
X128542700Y-108938000D01*
X128762300Y-108938000D01*
X128965183Y-108853963D01*
X129120463Y-108698683D01*
X129204500Y-108495800D01*
X129204500Y-108276200D01*
X129163079Y-108176200D01*
X129600500Y-108176200D01*
X129600500Y-108395800D01*
X129684537Y-108598683D01*
X129839817Y-108753963D01*
X130042700Y-108838000D01*
X130262300Y-108838000D01*
X130465183Y-108753963D01*
X130620463Y-108598683D01*
X130704500Y-108395800D01*
X130704500Y-108176200D01*
X130623315Y-107980200D01*
X160308000Y-107980200D01*
X160308000Y-108199800D01*
X160392037Y-108402683D01*
X160547317Y-108557963D01*
X160750200Y-108642000D01*
X160828000Y-108642000D01*
X160828000Y-108739800D01*
X160912037Y-108942683D01*
X161067317Y-109097963D01*
X161270200Y-109182000D01*
X161489800Y-109182000D01*
X161692683Y-109097963D01*
X161847963Y-108942683D01*
X161927692Y-108750200D01*
X162158000Y-108750200D01*
X162158000Y-108969800D01*
X162242037Y-109172683D01*
X162397317Y-109327963D01*
X162600200Y-109412000D01*
X162678000Y-109412000D01*
X162678000Y-109509800D01*
X162762037Y-109712683D01*
X162917317Y-109867963D01*
X163120200Y-109952000D01*
X163339800Y-109952000D01*
X163542683Y-109867963D01*
X163697963Y-109712683D01*
X163782000Y-109509800D01*
X163782000Y-109290200D01*
X163697963Y-109087317D01*
X163542683Y-108932037D01*
X163339800Y-108848000D01*
X163262000Y-108848000D01*
X163262000Y-108750200D01*
X163177963Y-108547317D01*
X163022683Y-108392037D01*
X162819800Y-108308000D01*
X162600200Y-108308000D01*
X162397317Y-108392037D01*
X162242037Y-108547317D01*
X162158000Y-108750200D01*
X161927692Y-108750200D01*
X161932000Y-108739800D01*
X161932000Y-108520200D01*
X161847963Y-108317317D01*
X161692683Y-108162037D01*
X161489800Y-108078000D01*
X161412000Y-108078000D01*
X161412000Y-107980200D01*
X161327963Y-107777317D01*
X161172683Y-107622037D01*
X160969800Y-107538000D01*
X160750200Y-107538000D01*
X160547317Y-107622037D01*
X160392037Y-107777317D01*
X160308000Y-107980200D01*
X130623315Y-107980200D01*
X130620463Y-107973317D01*
X130465183Y-107818037D01*
X130262300Y-107734000D01*
X130042700Y-107734000D01*
X129839817Y-107818037D01*
X129684537Y-107973317D01*
X129600500Y-108176200D01*
X129163079Y-108176200D01*
X129120463Y-108073317D01*
X128965183Y-107918037D01*
X128762300Y-107834000D01*
X128542700Y-107834000D01*
X128339817Y-107918037D01*
X128184537Y-108073317D01*
X128100500Y-108276200D01*
X127404500Y-108276200D01*
X127404500Y-108076200D01*
X127320463Y-107873317D01*
X127165183Y-107718037D01*
X126962300Y-107634000D01*
X126742700Y-107634000D01*
X126539817Y-107718037D01*
X126384537Y-107873317D01*
X126300500Y-108076200D01*
X117804500Y-108076200D01*
X117804500Y-107976200D01*
X117720463Y-107773317D01*
X117565183Y-107618037D01*
X117362300Y-107534000D01*
X117142700Y-107534000D01*
X116939817Y-107618037D01*
X116784537Y-107773317D01*
X116700500Y-107976200D01*
X116700500Y-108159000D01*
X115675052Y-108159000D01*
X115712000Y-108069800D01*
X115712000Y-107850200D01*
X115627963Y-107647317D01*
X115472683Y-107492037D01*
X115269800Y-107408000D01*
X115132000Y-107408000D01*
X115132000Y-107360200D01*
X115047963Y-107157317D01*
X115000646Y-107110000D01*
X115037963Y-107072683D01*
X115122000Y-106869800D01*
X115122000Y-106650200D01*
X115059868Y-106500200D01*
X165748000Y-106500200D01*
X165748000Y-106719800D01*
X165832037Y-106922683D01*
X165914354Y-107005000D01*
X165832037Y-107087317D01*
X165748000Y-107290200D01*
X165748000Y-107509800D01*
X165832037Y-107712683D01*
X165987317Y-107867963D01*
X166190200Y-107952000D01*
X166409800Y-107952000D01*
X166612683Y-107867963D01*
X166767963Y-107712683D01*
X166852000Y-107509800D01*
X166852000Y-107290200D01*
X166767963Y-107087317D01*
X166685646Y-107005000D01*
X166767963Y-106922683D01*
X166852000Y-106719800D01*
X166852000Y-106500200D01*
X166767963Y-106297317D01*
X166612683Y-106142037D01*
X166409800Y-106058000D01*
X166190200Y-106058000D01*
X165987317Y-106142037D01*
X165832037Y-106297317D01*
X165748000Y-106500200D01*
X115059868Y-106500200D01*
X115037963Y-106447317D01*
X114882683Y-106292037D01*
X114679800Y-106208000D01*
X114542000Y-106208000D01*
X114542000Y-106160200D01*
X114457963Y-105957317D01*
X114302683Y-105802037D01*
X114099800Y-105718000D01*
X113880200Y-105718000D01*
X113677317Y-105802037D01*
X113522037Y-105957317D01*
X113438000Y-106160200D01*
X113438000Y-106379800D01*
X113522037Y-106582683D01*
X113677317Y-106737963D01*
X113880200Y-106822000D01*
X114018000Y-106822000D01*
X114018000Y-106869800D01*
X114102037Y-107072683D01*
X114149354Y-107120000D01*
X114112037Y-107157317D01*
X114028000Y-107360200D01*
X114028000Y-107579800D01*
X114112037Y-107782683D01*
X114267317Y-107937963D01*
X114470200Y-108022000D01*
X114608000Y-108022000D01*
X114608000Y-108069800D01*
X114644948Y-108159000D01*
X104277000Y-108159000D01*
X104277000Y-108040200D01*
X104192963Y-107837317D01*
X104037683Y-107682037D01*
X103834800Y-107598000D01*
X103615200Y-107598000D01*
X103412317Y-107682037D01*
X103257037Y-107837317D01*
X103206491Y-107959345D01*
X103099139Y-107851993D01*
X102896256Y-107767956D01*
X102676656Y-107767956D01*
X102473773Y-107851993D01*
X102318493Y-108007273D01*
X102255646Y-108159000D01*
X100352000Y-108159000D01*
X100352000Y-105924777D01*
X112200500Y-105924777D01*
X112200500Y-106144377D01*
X112284537Y-106347260D01*
X112439817Y-106502540D01*
X112642700Y-106586577D01*
X112862300Y-106586577D01*
X113065183Y-106502540D01*
X113220463Y-106347260D01*
X113304500Y-106144377D01*
X113304500Y-105924777D01*
X113220463Y-105721894D01*
X113065183Y-105566614D01*
X112862300Y-105482577D01*
X112642700Y-105482577D01*
X112439817Y-105566614D01*
X112284537Y-105721894D01*
X112200500Y-105924777D01*
X100352000Y-105924777D01*
X100352000Y-102646533D01*
X101223000Y-102646533D01*
X101223000Y-103353467D01*
X101493533Y-104006589D01*
X101993411Y-104506467D01*
X102646533Y-104777000D01*
X103353467Y-104777000D01*
X103717529Y-104626200D01*
X109550500Y-104626200D01*
X109550500Y-104845800D01*
X109634537Y-105048683D01*
X109789817Y-105203963D01*
X109992700Y-105288000D01*
X110212300Y-105288000D01*
X110415183Y-105203963D01*
X110570463Y-105048683D01*
X110654500Y-104845800D01*
X110654500Y-104840200D01*
X120608000Y-104840200D01*
X120608000Y-105059800D01*
X120692037Y-105262683D01*
X120744354Y-105315000D01*
X120702037Y-105357317D01*
X120618000Y-105560200D01*
X120618000Y-105779800D01*
X120702037Y-105982683D01*
X120857317Y-106137963D01*
X121060200Y-106222000D01*
X121279800Y-106222000D01*
X121482683Y-106137963D01*
X121637963Y-105982683D01*
X121722000Y-105779800D01*
X121722000Y-105560200D01*
X121637963Y-105357317D01*
X121606846Y-105326200D01*
X167800500Y-105326200D01*
X167800500Y-105545800D01*
X167884537Y-105748683D01*
X168039817Y-105903963D01*
X168242700Y-105988000D01*
X168462300Y-105988000D01*
X168665183Y-105903963D01*
X168820463Y-105748683D01*
X168865398Y-105640200D01*
X171973000Y-105640200D01*
X171973000Y-105859800D01*
X172057037Y-106062683D01*
X172212317Y-106217963D01*
X172415200Y-106302000D01*
X172634800Y-106302000D01*
X172837683Y-106217963D01*
X172992963Y-106062683D01*
X173077000Y-105859800D01*
X173077000Y-105640200D01*
X172992963Y-105437317D01*
X172837683Y-105282037D01*
X172634800Y-105198000D01*
X172415200Y-105198000D01*
X172212317Y-105282037D01*
X172057037Y-105437317D01*
X171973000Y-105640200D01*
X168865398Y-105640200D01*
X168904500Y-105545800D01*
X168904500Y-105326200D01*
X168842368Y-105176200D01*
X177800500Y-105176200D01*
X177800500Y-105395800D01*
X177884537Y-105598683D01*
X178039817Y-105753963D01*
X178242700Y-105838000D01*
X178462300Y-105838000D01*
X178665183Y-105753963D01*
X178820463Y-105598683D01*
X178904500Y-105395800D01*
X178904500Y-105176200D01*
X178820463Y-104973317D01*
X178665183Y-104818037D01*
X178462300Y-104734000D01*
X178242700Y-104734000D01*
X178039817Y-104818037D01*
X177884537Y-104973317D01*
X177800500Y-105176200D01*
X168842368Y-105176200D01*
X168820463Y-105123317D01*
X168665183Y-104968037D01*
X168462300Y-104884000D01*
X168242700Y-104884000D01*
X168039817Y-104968037D01*
X167884537Y-105123317D01*
X167800500Y-105326200D01*
X121606846Y-105326200D01*
X121585646Y-105305000D01*
X121627963Y-105262683D01*
X121712000Y-105059800D01*
X121712000Y-104840200D01*
X121627963Y-104637317D01*
X121472683Y-104482037D01*
X121269800Y-104398000D01*
X121050200Y-104398000D01*
X120847317Y-104482037D01*
X120692037Y-104637317D01*
X120608000Y-104840200D01*
X110654500Y-104840200D01*
X110654500Y-104626200D01*
X110570463Y-104423317D01*
X110415183Y-104268037D01*
X110212300Y-104184000D01*
X109992700Y-104184000D01*
X109789817Y-104268037D01*
X109634537Y-104423317D01*
X109550500Y-104626200D01*
X103717529Y-104626200D01*
X104006589Y-104506467D01*
X104506467Y-104006589D01*
X104601897Y-103776200D01*
X124500500Y-103776200D01*
X124500500Y-103995800D01*
X124584537Y-104198683D01*
X124739817Y-104353963D01*
X124942700Y-104438000D01*
X125162300Y-104438000D01*
X125365183Y-104353963D01*
X125520463Y-104198683D01*
X125571197Y-104076200D01*
X126700500Y-104076200D01*
X126700500Y-104295800D01*
X126784537Y-104498683D01*
X126939817Y-104653963D01*
X127142700Y-104738000D01*
X127362300Y-104738000D01*
X127565183Y-104653963D01*
X127720463Y-104498683D01*
X127804500Y-104295800D01*
X127804500Y-104076200D01*
X127763079Y-103976200D01*
X189200492Y-103976200D01*
X189200492Y-104195800D01*
X189284529Y-104398683D01*
X189439809Y-104553963D01*
X189456802Y-104561002D01*
X189439817Y-104568037D01*
X189284537Y-104723317D01*
X189200500Y-104926200D01*
X189200500Y-105145800D01*
X189284537Y-105348683D01*
X189439817Y-105503963D01*
X189642700Y-105588000D01*
X189862300Y-105588000D01*
X190065183Y-105503963D01*
X190220463Y-105348683D01*
X190304500Y-105145800D01*
X190304500Y-104926200D01*
X190220463Y-104723317D01*
X190065183Y-104568037D01*
X190048190Y-104560998D01*
X190065175Y-104553963D01*
X190220455Y-104398683D01*
X190304492Y-104195800D01*
X190304492Y-103976200D01*
X190220455Y-103773317D01*
X190065175Y-103618037D01*
X189862292Y-103534000D01*
X189642692Y-103534000D01*
X189439809Y-103618037D01*
X189284529Y-103773317D01*
X189200492Y-103976200D01*
X127763079Y-103976200D01*
X127720463Y-103873317D01*
X127565183Y-103718037D01*
X127362300Y-103634000D01*
X127142700Y-103634000D01*
X126939817Y-103718037D01*
X126784537Y-103873317D01*
X126700500Y-104076200D01*
X125571197Y-104076200D01*
X125604500Y-103995800D01*
X125604500Y-103776200D01*
X125520463Y-103573317D01*
X125365183Y-103418037D01*
X125162300Y-103334000D01*
X124942700Y-103334000D01*
X124739817Y-103418037D01*
X124584537Y-103573317D01*
X124500500Y-103776200D01*
X104601897Y-103776200D01*
X104777000Y-103353467D01*
X104777000Y-102646533D01*
X104506467Y-101993411D01*
X104503256Y-101990200D01*
X114348000Y-101990200D01*
X114348000Y-102209800D01*
X114432037Y-102412683D01*
X114587317Y-102567963D01*
X114790200Y-102652000D01*
X115009800Y-102652000D01*
X115022998Y-102646533D01*
X195223000Y-102646533D01*
X195223000Y-103353467D01*
X195493533Y-104006589D01*
X195993411Y-104506467D01*
X196646533Y-104777000D01*
X197353467Y-104777000D01*
X198006589Y-104506467D01*
X198506467Y-104006589D01*
X198777000Y-103353467D01*
X198777000Y-102646533D01*
X198506467Y-101993411D01*
X198006589Y-101493533D01*
X197353467Y-101223000D01*
X196646533Y-101223000D01*
X195993411Y-101493533D01*
X195493533Y-101993411D01*
X195223000Y-102646533D01*
X115022998Y-102646533D01*
X115212683Y-102567963D01*
X115367963Y-102412683D01*
X115452000Y-102209800D01*
X115452000Y-101990200D01*
X115446202Y-101976200D01*
X121000500Y-101976200D01*
X121000500Y-102195800D01*
X121084537Y-102398683D01*
X121239817Y-102553963D01*
X121442700Y-102638000D01*
X121662300Y-102638000D01*
X121865183Y-102553963D01*
X122020463Y-102398683D01*
X122104500Y-102195800D01*
X122104500Y-101976200D01*
X122020463Y-101773317D01*
X121923346Y-101676200D01*
X128100500Y-101676200D01*
X128100500Y-101895800D01*
X128184537Y-102098683D01*
X128339817Y-102253963D01*
X128542700Y-102338000D01*
X128762300Y-102338000D01*
X128965183Y-102253963D01*
X129120463Y-102098683D01*
X129204500Y-101895800D01*
X129204500Y-101676200D01*
X129120463Y-101473317D01*
X128965183Y-101318037D01*
X128762300Y-101234000D01*
X128542700Y-101234000D01*
X128339817Y-101318037D01*
X128184537Y-101473317D01*
X128100500Y-101676200D01*
X121923346Y-101676200D01*
X121865183Y-101618037D01*
X121662300Y-101534000D01*
X121442700Y-101534000D01*
X121239817Y-101618037D01*
X121084537Y-101773317D01*
X121000500Y-101976200D01*
X115446202Y-101976200D01*
X115367963Y-101787317D01*
X115212683Y-101632037D01*
X115009800Y-101548000D01*
X114790200Y-101548000D01*
X114587317Y-101632037D01*
X114432037Y-101787317D01*
X114348000Y-101990200D01*
X104503256Y-101990200D01*
X104006589Y-101493533D01*
X103353467Y-101223000D01*
X102646533Y-101223000D01*
X101993411Y-101493533D01*
X101493533Y-101993411D01*
X101223000Y-102646533D01*
X100352000Y-102646533D01*
X100352000Y-101076200D01*
X176800500Y-101076200D01*
X176800500Y-101295800D01*
X176884537Y-101498683D01*
X177039817Y-101653963D01*
X177242700Y-101738000D01*
X177462300Y-101738000D01*
X177665183Y-101653963D01*
X177820463Y-101498683D01*
X177904500Y-101295800D01*
X177904500Y-101076200D01*
X177820463Y-100873317D01*
X177665183Y-100718037D01*
X177462300Y-100634000D01*
X177242700Y-100634000D01*
X177039817Y-100718037D01*
X176884537Y-100873317D01*
X176800500Y-101076200D01*
X100352000Y-101076200D01*
X100352000Y-100352000D01*
X199648001Y-100352000D01*
X199648001Y-106659000D01*
X199648001Y-106659000D01*
G37*
X199648001Y-106659000D02*
X188010140Y-106659000D01*
X188070457Y-106598683D01*
X188154494Y-106395800D01*
X188154494Y-106176200D01*
X188070457Y-105973317D01*
X187915177Y-105818037D01*
X187712294Y-105734000D01*
X187492694Y-105734000D01*
X187289811Y-105818037D01*
X187134531Y-105973317D01*
X187050494Y-106176200D01*
X187050494Y-106395800D01*
X187134531Y-106598683D01*
X187194848Y-106659000D01*
X170852500Y-106659000D01*
X170803899Y-106668667D01*
X170762697Y-106696197D01*
X170735167Y-106737399D01*
X170725500Y-106786000D01*
X170725500Y-108974800D01*
X170587317Y-109032037D01*
X170432037Y-109187317D01*
X170348000Y-109390200D01*
X170348000Y-109609800D01*
X170432037Y-109812683D01*
X170587317Y-109967963D01*
X170725500Y-110025200D01*
X170725500Y-110448000D01*
X170600200Y-110448000D01*
X170397317Y-110532037D01*
X170242037Y-110687317D01*
X170158000Y-110890200D01*
X170158000Y-111109800D01*
X170242037Y-111312683D01*
X170397317Y-111467963D01*
X170600200Y-111552000D01*
X170725500Y-111552000D01*
X170725500Y-112234000D01*
X170642700Y-112234000D01*
X170439817Y-112318037D01*
X170284537Y-112473317D01*
X170200500Y-112676200D01*
X170200500Y-112895800D01*
X170284537Y-113098683D01*
X170439817Y-113253963D01*
X170642700Y-113338000D01*
X170725500Y-113338000D01*
X170725500Y-117634000D01*
X170642698Y-117634000D01*
X170439815Y-117718037D01*
X170284535Y-117873317D01*
X170200498Y-118076200D01*
X170200498Y-118295800D01*
X170284535Y-118498683D01*
X170439815Y-118653963D01*
X170642698Y-118738000D01*
X170725500Y-118738000D01*
X170725500Y-120386000D01*
X170735167Y-120434601D01*
X170762697Y-120475803D01*
X170803899Y-120503333D01*
X170852500Y-120513000D01*
X195973944Y-120513000D01*
X195493533Y-120993411D01*
X195223000Y-121646533D01*
X195223000Y-122353467D01*
X195493533Y-123006589D01*
X195993411Y-123506467D01*
X196646533Y-123777000D01*
X197353467Y-123777000D01*
X198006589Y-123506467D01*
X198506467Y-123006589D01*
X198777000Y-122353467D01*
X198777000Y-121646533D01*
X198506467Y-120993411D01*
X198026056Y-120513000D01*
X199648000Y-120513000D01*
X199648000Y-124648000D01*
X100352000Y-124648000D01*
X100352000Y-122713000D01*
X101371924Y-122713000D01*
X101493533Y-123006589D01*
X101993411Y-123506467D01*
X102646533Y-123777000D01*
X103353467Y-123777000D01*
X104006589Y-123506467D01*
X104506467Y-123006589D01*
X104628076Y-122713000D01*
X113647389Y-122713000D01*
X113600500Y-122826200D01*
X113600500Y-123045800D01*
X113684537Y-123248683D01*
X113839817Y-123403963D01*
X114042700Y-123488000D01*
X114262300Y-123488000D01*
X114465183Y-123403963D01*
X114542946Y-123326200D01*
X126250500Y-123326200D01*
X126250500Y-123545800D01*
X126334537Y-123748683D01*
X126489817Y-123903963D01*
X126692700Y-123988000D01*
X126912300Y-123988000D01*
X127115183Y-123903963D01*
X127138946Y-123880200D01*
X187328000Y-123880200D01*
X187328000Y-124099800D01*
X187412037Y-124302683D01*
X187567317Y-124457963D01*
X187770200Y-124542000D01*
X187989800Y-124542000D01*
X188192683Y-124457963D01*
X188347963Y-124302683D01*
X188432000Y-124099800D01*
X188432000Y-123880200D01*
X188347963Y-123677317D01*
X188192683Y-123522037D01*
X187989800Y-123438000D01*
X187770200Y-123438000D01*
X187567317Y-123522037D01*
X187412037Y-123677317D01*
X187328000Y-123880200D01*
X127138946Y-123880200D01*
X127270463Y-123748683D01*
X127354500Y-123545800D01*
X127354500Y-123326200D01*
X127270463Y-123123317D01*
X127115183Y-122968037D01*
X126912300Y-122884000D01*
X126692700Y-122884000D01*
X126489817Y-122968037D01*
X126334537Y-123123317D01*
X126250500Y-123326200D01*
X114542946Y-123326200D01*
X114620463Y-123248683D01*
X114704500Y-123045800D01*
X114704500Y-122826200D01*
X114657611Y-122713000D01*
X124452500Y-122713000D01*
X124501101Y-122703333D01*
X124542303Y-122675803D01*
X124569833Y-122634601D01*
X124579500Y-122586000D01*
X124579500Y-122276198D01*
X167500500Y-122276198D01*
X167500500Y-122495798D01*
X167584537Y-122698681D01*
X167739817Y-122853961D01*
X167942700Y-122937998D01*
X168162300Y-122937998D01*
X168365183Y-122853961D01*
X168520463Y-122698681D01*
X168604500Y-122495798D01*
X168604500Y-122476200D01*
X189600500Y-122476200D01*
X189600500Y-122695800D01*
X189684537Y-122898683D01*
X189839817Y-123053963D01*
X190042700Y-123138000D01*
X190262300Y-123138000D01*
X190465183Y-123053963D01*
X190620463Y-122898683D01*
X190704500Y-122695800D01*
X190704500Y-122476200D01*
X190620463Y-122273317D01*
X190465183Y-122118037D01*
X190262300Y-122034000D01*
X190042700Y-122034000D01*
X189839817Y-122118037D01*
X189684537Y-122273317D01*
X189600500Y-122476200D01*
X168604500Y-122476200D01*
X168604500Y-122276198D01*
X168520463Y-122073315D01*
X168365183Y-121918035D01*
X168162300Y-121833998D01*
X167942700Y-121833998D01*
X167739817Y-121918035D01*
X167584537Y-122073315D01*
X167500500Y-122276198D01*
X124579500Y-122276198D01*
X124579500Y-120626200D01*
X137500500Y-120626200D01*
X137500500Y-120845800D01*
X137584537Y-121048683D01*
X137739817Y-121203963D01*
X137942700Y-121288000D01*
X138116323Y-121288000D01*
X138100500Y-121326200D01*
X138100500Y-121545800D01*
X138184537Y-121748683D01*
X138339817Y-121903963D01*
X138542700Y-121988000D01*
X138762300Y-121988000D01*
X138965183Y-121903963D01*
X139120463Y-121748683D01*
X139204500Y-121545800D01*
X139204500Y-121526200D01*
X186000500Y-121526200D01*
X186000500Y-121745800D01*
X186084537Y-121948683D01*
X186239817Y-122103963D01*
X186442700Y-122188000D01*
X186662300Y-122188000D01*
X186865183Y-122103963D01*
X187020463Y-121948683D01*
X187104500Y-121745800D01*
X187104500Y-121526200D01*
X187020463Y-121323317D01*
X186865183Y-121168037D01*
X186662300Y-121084000D01*
X186442700Y-121084000D01*
X186239817Y-121168037D01*
X186084537Y-121323317D01*
X186000500Y-121526200D01*
X139204500Y-121526200D01*
X139204500Y-121326200D01*
X139120463Y-121123317D01*
X138965183Y-120968037D01*
X138762300Y-120884000D01*
X138588677Y-120884000D01*
X138604500Y-120845800D01*
X138604500Y-120626200D01*
X138520463Y-120423317D01*
X138365183Y-120268037D01*
X138162300Y-120184000D01*
X137942700Y-120184000D01*
X137739817Y-120268037D01*
X137584537Y-120423317D01*
X137500500Y-120626200D01*
X124579500Y-120626200D01*
X124579500Y-118965200D01*
X131723000Y-118965200D01*
X131723000Y-119184800D01*
X131807037Y-119387683D01*
X131962317Y-119542963D01*
X132165200Y-119627000D01*
X132384800Y-119627000D01*
X132587683Y-119542963D01*
X132742963Y-119387683D01*
X132827000Y-119184800D01*
X132827000Y-118965200D01*
X132754515Y-118790204D01*
X168448000Y-118790204D01*
X168448000Y-119009804D01*
X168532037Y-119212687D01*
X168687317Y-119367967D01*
X168890200Y-119452004D01*
X169109800Y-119452004D01*
X169312683Y-119367967D01*
X169467963Y-119212687D01*
X169552000Y-119009804D01*
X169552000Y-118790204D01*
X169467963Y-118587321D01*
X169312683Y-118432041D01*
X169109800Y-118348004D01*
X168890200Y-118348004D01*
X168687317Y-118432041D01*
X168532037Y-118587321D01*
X168448000Y-118790204D01*
X132754515Y-118790204D01*
X132742963Y-118762317D01*
X132587683Y-118607037D01*
X132384800Y-118523000D01*
X132165200Y-118523000D01*
X131962317Y-118607037D01*
X131807037Y-118762317D01*
X131723000Y-118965200D01*
X124579500Y-118965200D01*
X124579500Y-116680200D01*
X124688000Y-116680200D01*
X124688000Y-116899800D01*
X124772037Y-117102683D01*
X124927317Y-117257963D01*
X125130200Y-117342000D01*
X125349800Y-117342000D01*
X125552683Y-117257963D01*
X125707963Y-117102683D01*
X125792000Y-116899800D01*
X125792000Y-116680200D01*
X125707963Y-116477317D01*
X125570846Y-116340200D01*
X132023000Y-116340200D01*
X132023000Y-116559800D01*
X132107037Y-116762683D01*
X132262317Y-116917963D01*
X132465200Y-117002000D01*
X132684800Y-117002000D01*
X132887683Y-116917963D01*
X133042963Y-116762683D01*
X133127000Y-116559800D01*
X133127000Y-116376200D01*
X145200500Y-116376200D01*
X145200500Y-116595800D01*
X145284537Y-116798683D01*
X145439817Y-116953963D01*
X145642700Y-117038000D01*
X145757744Y-117038000D01*
X145700500Y-117176200D01*
X145700500Y-117395800D01*
X145784537Y-117598683D01*
X145939817Y-117753963D01*
X146142700Y-117838000D01*
X146311035Y-117838000D01*
X146281708Y-117867327D01*
X146197671Y-118070210D01*
X146197671Y-118289810D01*
X146281708Y-118492693D01*
X146436988Y-118647973D01*
X146639871Y-118732010D01*
X146859471Y-118732010D01*
X147062354Y-118647973D01*
X147217634Y-118492693D01*
X147301671Y-118289810D01*
X147301671Y-118070210D01*
X147217634Y-117867327D01*
X147062354Y-117712047D01*
X146859471Y-117628010D01*
X146691136Y-117628010D01*
X146720463Y-117598683D01*
X146804500Y-117395800D01*
X146804500Y-117176200D01*
X146720463Y-116973317D01*
X146565183Y-116818037D01*
X146362300Y-116734000D01*
X146247256Y-116734000D01*
X146304500Y-116595800D01*
X146304500Y-116376200D01*
X146220463Y-116173317D01*
X146065183Y-116018037D01*
X145862300Y-115934000D01*
X145642700Y-115934000D01*
X145439817Y-116018037D01*
X145284537Y-116173317D01*
X145200500Y-116376200D01*
X133127000Y-116376200D01*
X133127000Y-116340200D01*
X133042963Y-116137317D01*
X132887683Y-115982037D01*
X132684800Y-115898000D01*
X132465200Y-115898000D01*
X132262317Y-115982037D01*
X132107037Y-116137317D01*
X132023000Y-116340200D01*
X125570846Y-116340200D01*
X125552683Y-116322037D01*
X125349800Y-116238000D01*
X125130200Y-116238000D01*
X124927317Y-116322037D01*
X124772037Y-116477317D01*
X124688000Y-116680200D01*
X124579500Y-116680200D01*
X124579500Y-115076200D01*
X126100500Y-115076200D01*
X126100500Y-115295800D01*
X126184537Y-115498683D01*
X126339817Y-115653963D01*
X126542700Y-115738000D01*
X126762300Y-115738000D01*
X126965183Y-115653963D01*
X127120463Y-115498683D01*
X127204500Y-115295800D01*
X127204500Y-115076200D01*
X127120463Y-114873317D01*
X126965183Y-114718037D01*
X126762300Y-114634000D01*
X126542700Y-114634000D01*
X126339817Y-114718037D01*
X126184537Y-114873317D01*
X126100500Y-115076200D01*
X124579500Y-115076200D01*
X124579500Y-115045556D01*
X124742683Y-114977963D01*
X124897963Y-114822683D01*
X124982000Y-114619800D01*
X124982000Y-114400200D01*
X124897963Y-114197317D01*
X124742683Y-114042037D01*
X124579500Y-113974444D01*
X124579500Y-113170198D01*
X162518000Y-113170198D01*
X162518000Y-113389798D01*
X162602037Y-113592681D01*
X162757317Y-113747961D01*
X162960200Y-113831998D01*
X163179800Y-113831998D01*
X163382683Y-113747961D01*
X163513647Y-113616997D01*
X163513647Y-113819065D01*
X163597684Y-114021948D01*
X163752964Y-114177228D01*
X163955847Y-114261265D01*
X164175447Y-114261265D01*
X164378330Y-114177228D01*
X164533610Y-114021948D01*
X164617647Y-113819065D01*
X164617647Y-113599465D01*
X164533610Y-113396582D01*
X164378330Y-113241302D01*
X164175447Y-113157265D01*
X163955847Y-113157265D01*
X163752964Y-113241302D01*
X163622000Y-113372266D01*
X163622000Y-113170198D01*
X163537963Y-112967315D01*
X163382683Y-112812035D01*
X163179800Y-112727998D01*
X162960200Y-112727998D01*
X162757317Y-112812035D01*
X162602037Y-112967315D01*
X162518000Y-113170198D01*
X124579500Y-113170198D01*
X124579500Y-111670200D01*
X164908000Y-111670200D01*
X164908000Y-111889800D01*
X164992037Y-112092683D01*
X165147317Y-112247963D01*
X165350200Y-112332000D01*
X165569800Y-112332000D01*
X165772683Y-112247963D01*
X165927963Y-112092683D01*
X166012000Y-111889800D01*
X166012000Y-111670200D01*
X165927963Y-111467317D01*
X165772683Y-111312037D01*
X165569800Y-111228000D01*
X165350200Y-111228000D01*
X165147317Y-111312037D01*
X164992037Y-111467317D01*
X164908000Y-111670200D01*
X124579500Y-111670200D01*
X124579500Y-110890200D01*
X125148000Y-110890200D01*
X125148000Y-111109800D01*
X125232037Y-111312683D01*
X125387317Y-111467963D01*
X125590200Y-111552000D01*
X125809800Y-111552000D01*
X126012683Y-111467963D01*
X126167963Y-111312683D01*
X126252000Y-111109800D01*
X126252000Y-110890200D01*
X126167963Y-110687317D01*
X126130646Y-110650000D01*
X126217963Y-110562683D01*
X126302000Y-110359800D01*
X126302000Y-110140200D01*
X126217963Y-109937317D01*
X126062683Y-109782037D01*
X125859800Y-109698000D01*
X125640200Y-109698000D01*
X125437317Y-109782037D01*
X125282037Y-109937317D01*
X125198000Y-110140200D01*
X125198000Y-110359800D01*
X125282037Y-110562683D01*
X125319354Y-110600000D01*
X125232037Y-110687317D01*
X125148000Y-110890200D01*
X124579500Y-110890200D01*
X124579500Y-108286000D01*
X124569833Y-108237399D01*
X124542303Y-108196197D01*
X124501101Y-108168667D01*
X124452500Y-108159000D01*
X117804500Y-108159000D01*
X117804500Y-108076200D01*
X126300500Y-108076200D01*
X126300500Y-108295800D01*
X126384537Y-108498683D01*
X126539817Y-108653963D01*
X126742700Y-108738000D01*
X126962300Y-108738000D01*
X127165183Y-108653963D01*
X127320463Y-108498683D01*
X127404500Y-108295800D01*
X127404500Y-108276200D01*
X128100500Y-108276200D01*
X128100500Y-108495800D01*
X128184537Y-108698683D01*
X128339817Y-108853963D01*
X128542700Y-108938000D01*
X128762300Y-108938000D01*
X128965183Y-108853963D01*
X129120463Y-108698683D01*
X129204500Y-108495800D01*
X129204500Y-108276200D01*
X129163079Y-108176200D01*
X129600500Y-108176200D01*
X129600500Y-108395800D01*
X129684537Y-108598683D01*
X129839817Y-108753963D01*
X130042700Y-108838000D01*
X130262300Y-108838000D01*
X130465183Y-108753963D01*
X130620463Y-108598683D01*
X130704500Y-108395800D01*
X130704500Y-108176200D01*
X130623315Y-107980200D01*
X160308000Y-107980200D01*
X160308000Y-108199800D01*
X160392037Y-108402683D01*
X160547317Y-108557963D01*
X160750200Y-108642000D01*
X160828000Y-108642000D01*
X160828000Y-108739800D01*
X160912037Y-108942683D01*
X161067317Y-109097963D01*
X161270200Y-109182000D01*
X161489800Y-109182000D01*
X161692683Y-109097963D01*
X161847963Y-108942683D01*
X161927692Y-108750200D01*
X162158000Y-108750200D01*
X162158000Y-108969800D01*
X162242037Y-109172683D01*
X162397317Y-109327963D01*
X162600200Y-109412000D01*
X162678000Y-109412000D01*
X162678000Y-109509800D01*
X162762037Y-109712683D01*
X162917317Y-109867963D01*
X163120200Y-109952000D01*
X163339800Y-109952000D01*
X163542683Y-109867963D01*
X163697963Y-109712683D01*
X163782000Y-109509800D01*
X163782000Y-109290200D01*
X163697963Y-109087317D01*
X163542683Y-108932037D01*
X163339800Y-108848000D01*
X163262000Y-108848000D01*
X163262000Y-108750200D01*
X163177963Y-108547317D01*
X163022683Y-108392037D01*
X162819800Y-108308000D01*
X162600200Y-108308000D01*
X162397317Y-108392037D01*
X162242037Y-108547317D01*
X162158000Y-108750200D01*
X161927692Y-108750200D01*
X161932000Y-108739800D01*
X161932000Y-108520200D01*
X161847963Y-108317317D01*
X161692683Y-108162037D01*
X161489800Y-108078000D01*
X161412000Y-108078000D01*
X161412000Y-107980200D01*
X161327963Y-107777317D01*
X161172683Y-107622037D01*
X160969800Y-107538000D01*
X160750200Y-107538000D01*
X160547317Y-107622037D01*
X160392037Y-107777317D01*
X160308000Y-107980200D01*
X130623315Y-107980200D01*
X130620463Y-107973317D01*
X130465183Y-107818037D01*
X130262300Y-107734000D01*
X130042700Y-107734000D01*
X129839817Y-107818037D01*
X129684537Y-107973317D01*
X129600500Y-108176200D01*
X129163079Y-108176200D01*
X129120463Y-108073317D01*
X128965183Y-107918037D01*
X128762300Y-107834000D01*
X128542700Y-107834000D01*
X128339817Y-107918037D01*
X128184537Y-108073317D01*
X128100500Y-108276200D01*
X127404500Y-108276200D01*
X127404500Y-108076200D01*
X127320463Y-107873317D01*
X127165183Y-107718037D01*
X126962300Y-107634000D01*
X126742700Y-107634000D01*
X126539817Y-107718037D01*
X126384537Y-107873317D01*
X126300500Y-108076200D01*
X117804500Y-108076200D01*
X117804500Y-107976200D01*
X117720463Y-107773317D01*
X117565183Y-107618037D01*
X117362300Y-107534000D01*
X117142700Y-107534000D01*
X116939817Y-107618037D01*
X116784537Y-107773317D01*
X116700500Y-107976200D01*
X116700500Y-108159000D01*
X115675052Y-108159000D01*
X115712000Y-108069800D01*
X115712000Y-107850200D01*
X115627963Y-107647317D01*
X115472683Y-107492037D01*
X115269800Y-107408000D01*
X115132000Y-107408000D01*
X115132000Y-107360200D01*
X115047963Y-107157317D01*
X115000646Y-107110000D01*
X115037963Y-107072683D01*
X115122000Y-106869800D01*
X115122000Y-106650200D01*
X115059868Y-106500200D01*
X165748000Y-106500200D01*
X165748000Y-106719800D01*
X165832037Y-106922683D01*
X165914354Y-107005000D01*
X165832037Y-107087317D01*
X165748000Y-107290200D01*
X165748000Y-107509800D01*
X165832037Y-107712683D01*
X165987317Y-107867963D01*
X166190200Y-107952000D01*
X166409800Y-107952000D01*
X166612683Y-107867963D01*
X166767963Y-107712683D01*
X166852000Y-107509800D01*
X166852000Y-107290200D01*
X166767963Y-107087317D01*
X166685646Y-107005000D01*
X166767963Y-106922683D01*
X166852000Y-106719800D01*
X166852000Y-106500200D01*
X166767963Y-106297317D01*
X166612683Y-106142037D01*
X166409800Y-106058000D01*
X166190200Y-106058000D01*
X165987317Y-106142037D01*
X165832037Y-106297317D01*
X165748000Y-106500200D01*
X115059868Y-106500200D01*
X115037963Y-106447317D01*
X114882683Y-106292037D01*
X114679800Y-106208000D01*
X114542000Y-106208000D01*
X114542000Y-106160200D01*
X114457963Y-105957317D01*
X114302683Y-105802037D01*
X114099800Y-105718000D01*
X113880200Y-105718000D01*
X113677317Y-105802037D01*
X113522037Y-105957317D01*
X113438000Y-106160200D01*
X113438000Y-106379800D01*
X113522037Y-106582683D01*
X113677317Y-106737963D01*
X113880200Y-106822000D01*
X114018000Y-106822000D01*
X114018000Y-106869800D01*
X114102037Y-107072683D01*
X114149354Y-107120000D01*
X114112037Y-107157317D01*
X114028000Y-107360200D01*
X114028000Y-107579800D01*
X114112037Y-107782683D01*
X114267317Y-107937963D01*
X114470200Y-108022000D01*
X114608000Y-108022000D01*
X114608000Y-108069800D01*
X114644948Y-108159000D01*
X104277000Y-108159000D01*
X104277000Y-108040200D01*
X104192963Y-107837317D01*
X104037683Y-107682037D01*
X103834800Y-107598000D01*
X103615200Y-107598000D01*
X103412317Y-107682037D01*
X103257037Y-107837317D01*
X103206491Y-107959345D01*
X103099139Y-107851993D01*
X102896256Y-107767956D01*
X102676656Y-107767956D01*
X102473773Y-107851993D01*
X102318493Y-108007273D01*
X102255646Y-108159000D01*
X100352000Y-108159000D01*
X100352000Y-105924777D01*
X112200500Y-105924777D01*
X112200500Y-106144377D01*
X112284537Y-106347260D01*
X112439817Y-106502540D01*
X112642700Y-106586577D01*
X112862300Y-106586577D01*
X113065183Y-106502540D01*
X113220463Y-106347260D01*
X113304500Y-106144377D01*
X113304500Y-105924777D01*
X113220463Y-105721894D01*
X113065183Y-105566614D01*
X112862300Y-105482577D01*
X112642700Y-105482577D01*
X112439817Y-105566614D01*
X112284537Y-105721894D01*
X112200500Y-105924777D01*
X100352000Y-105924777D01*
X100352000Y-102646533D01*
X101223000Y-102646533D01*
X101223000Y-103353467D01*
X101493533Y-104006589D01*
X101993411Y-104506467D01*
X102646533Y-104777000D01*
X103353467Y-104777000D01*
X103717529Y-104626200D01*
X109550500Y-104626200D01*
X109550500Y-104845800D01*
X109634537Y-105048683D01*
X109789817Y-105203963D01*
X109992700Y-105288000D01*
X110212300Y-105288000D01*
X110415183Y-105203963D01*
X110570463Y-105048683D01*
X110654500Y-104845800D01*
X110654500Y-104840200D01*
X120608000Y-104840200D01*
X120608000Y-105059800D01*
X120692037Y-105262683D01*
X120744354Y-105315000D01*
X120702037Y-105357317D01*
X120618000Y-105560200D01*
X120618000Y-105779800D01*
X120702037Y-105982683D01*
X120857317Y-106137963D01*
X121060200Y-106222000D01*
X121279800Y-106222000D01*
X121482683Y-106137963D01*
X121637963Y-105982683D01*
X121722000Y-105779800D01*
X121722000Y-105560200D01*
X121637963Y-105357317D01*
X121606846Y-105326200D01*
X167800500Y-105326200D01*
X167800500Y-105545800D01*
X167884537Y-105748683D01*
X168039817Y-105903963D01*
X168242700Y-105988000D01*
X168462300Y-105988000D01*
X168665183Y-105903963D01*
X168820463Y-105748683D01*
X168865398Y-105640200D01*
X171973000Y-105640200D01*
X171973000Y-105859800D01*
X172057037Y-106062683D01*
X172212317Y-106217963D01*
X172415200Y-106302000D01*
X172634800Y-106302000D01*
X172837683Y-106217963D01*
X172992963Y-106062683D01*
X173077000Y-105859800D01*
X173077000Y-105640200D01*
X172992963Y-105437317D01*
X172837683Y-105282037D01*
X172634800Y-105198000D01*
X172415200Y-105198000D01*
X172212317Y-105282037D01*
X172057037Y-105437317D01*
X171973000Y-105640200D01*
X168865398Y-105640200D01*
X168904500Y-105545800D01*
X168904500Y-105326200D01*
X168842368Y-105176200D01*
X177800500Y-105176200D01*
X177800500Y-105395800D01*
X177884537Y-105598683D01*
X178039817Y-105753963D01*
X178242700Y-105838000D01*
X178462300Y-105838000D01*
X178665183Y-105753963D01*
X178820463Y-105598683D01*
X178904500Y-105395800D01*
X178904500Y-105176200D01*
X178820463Y-104973317D01*
X178665183Y-104818037D01*
X178462300Y-104734000D01*
X178242700Y-104734000D01*
X178039817Y-104818037D01*
X177884537Y-104973317D01*
X177800500Y-105176200D01*
X168842368Y-105176200D01*
X168820463Y-105123317D01*
X168665183Y-104968037D01*
X168462300Y-104884000D01*
X168242700Y-104884000D01*
X168039817Y-104968037D01*
X167884537Y-105123317D01*
X167800500Y-105326200D01*
X121606846Y-105326200D01*
X121585646Y-105305000D01*
X121627963Y-105262683D01*
X121712000Y-105059800D01*
X121712000Y-104840200D01*
X121627963Y-104637317D01*
X121472683Y-104482037D01*
X121269800Y-104398000D01*
X121050200Y-104398000D01*
X120847317Y-104482037D01*
X120692037Y-104637317D01*
X120608000Y-104840200D01*
X110654500Y-104840200D01*
X110654500Y-104626200D01*
X110570463Y-104423317D01*
X110415183Y-104268037D01*
X110212300Y-104184000D01*
X109992700Y-104184000D01*
X109789817Y-104268037D01*
X109634537Y-104423317D01*
X109550500Y-104626200D01*
X103717529Y-104626200D01*
X104006589Y-104506467D01*
X104506467Y-104006589D01*
X104601897Y-103776200D01*
X124500500Y-103776200D01*
X124500500Y-103995800D01*
X124584537Y-104198683D01*
X124739817Y-104353963D01*
X124942700Y-104438000D01*
X125162300Y-104438000D01*
X125365183Y-104353963D01*
X125520463Y-104198683D01*
X125571197Y-104076200D01*
X126700500Y-104076200D01*
X126700500Y-104295800D01*
X126784537Y-104498683D01*
X126939817Y-104653963D01*
X127142700Y-104738000D01*
X127362300Y-104738000D01*
X127565183Y-104653963D01*
X127720463Y-104498683D01*
X127804500Y-104295800D01*
X127804500Y-104076200D01*
X127763079Y-103976200D01*
X189200492Y-103976200D01*
X189200492Y-104195800D01*
X189284529Y-104398683D01*
X189439809Y-104553963D01*
X189456802Y-104561002D01*
X189439817Y-104568037D01*
X189284537Y-104723317D01*
X189200500Y-104926200D01*
X189200500Y-105145800D01*
X189284537Y-105348683D01*
X189439817Y-105503963D01*
X189642700Y-105588000D01*
X189862300Y-105588000D01*
X190065183Y-105503963D01*
X190220463Y-105348683D01*
X190304500Y-105145800D01*
X190304500Y-104926200D01*
X190220463Y-104723317D01*
X190065183Y-104568037D01*
X190048190Y-104560998D01*
X190065175Y-104553963D01*
X190220455Y-104398683D01*
X190304492Y-104195800D01*
X190304492Y-103976200D01*
X190220455Y-103773317D01*
X190065175Y-103618037D01*
X189862292Y-103534000D01*
X189642692Y-103534000D01*
X189439809Y-103618037D01*
X189284529Y-103773317D01*
X189200492Y-103976200D01*
X127763079Y-103976200D01*
X127720463Y-103873317D01*
X127565183Y-103718037D01*
X127362300Y-103634000D01*
X127142700Y-103634000D01*
X126939817Y-103718037D01*
X126784537Y-103873317D01*
X126700500Y-104076200D01*
X125571197Y-104076200D01*
X125604500Y-103995800D01*
X125604500Y-103776200D01*
X125520463Y-103573317D01*
X125365183Y-103418037D01*
X125162300Y-103334000D01*
X124942700Y-103334000D01*
X124739817Y-103418037D01*
X124584537Y-103573317D01*
X124500500Y-103776200D01*
X104601897Y-103776200D01*
X104777000Y-103353467D01*
X104777000Y-102646533D01*
X104506467Y-101993411D01*
X104503256Y-101990200D01*
X114348000Y-101990200D01*
X114348000Y-102209800D01*
X114432037Y-102412683D01*
X114587317Y-102567963D01*
X114790200Y-102652000D01*
X115009800Y-102652000D01*
X115022998Y-102646533D01*
X195223000Y-102646533D01*
X195223000Y-103353467D01*
X195493533Y-104006589D01*
X195993411Y-104506467D01*
X196646533Y-104777000D01*
X197353467Y-104777000D01*
X198006589Y-104506467D01*
X198506467Y-104006589D01*
X198777000Y-103353467D01*
X198777000Y-102646533D01*
X198506467Y-101993411D01*
X198006589Y-101493533D01*
X197353467Y-101223000D01*
X196646533Y-101223000D01*
X195993411Y-101493533D01*
X195493533Y-101993411D01*
X195223000Y-102646533D01*
X115022998Y-102646533D01*
X115212683Y-102567963D01*
X115367963Y-102412683D01*
X115452000Y-102209800D01*
X115452000Y-101990200D01*
X115446202Y-101976200D01*
X121000500Y-101976200D01*
X121000500Y-102195800D01*
X121084537Y-102398683D01*
X121239817Y-102553963D01*
X121442700Y-102638000D01*
X121662300Y-102638000D01*
X121865183Y-102553963D01*
X122020463Y-102398683D01*
X122104500Y-102195800D01*
X122104500Y-101976200D01*
X122020463Y-101773317D01*
X121923346Y-101676200D01*
X128100500Y-101676200D01*
X128100500Y-101895800D01*
X128184537Y-102098683D01*
X128339817Y-102253963D01*
X128542700Y-102338000D01*
X128762300Y-102338000D01*
X128965183Y-102253963D01*
X129120463Y-102098683D01*
X129204500Y-101895800D01*
X129204500Y-101676200D01*
X129120463Y-101473317D01*
X128965183Y-101318037D01*
X128762300Y-101234000D01*
X128542700Y-101234000D01*
X128339817Y-101318037D01*
X128184537Y-101473317D01*
X128100500Y-101676200D01*
X121923346Y-101676200D01*
X121865183Y-101618037D01*
X121662300Y-101534000D01*
X121442700Y-101534000D01*
X121239817Y-101618037D01*
X121084537Y-101773317D01*
X121000500Y-101976200D01*
X115446202Y-101976200D01*
X115367963Y-101787317D01*
X115212683Y-101632037D01*
X115009800Y-101548000D01*
X114790200Y-101548000D01*
X114587317Y-101632037D01*
X114432037Y-101787317D01*
X114348000Y-101990200D01*
X104503256Y-101990200D01*
X104006589Y-101493533D01*
X103353467Y-101223000D01*
X102646533Y-101223000D01*
X101993411Y-101493533D01*
X101493533Y-101993411D01*
X101223000Y-102646533D01*
X100352000Y-102646533D01*
X100352000Y-101076200D01*
X176800500Y-101076200D01*
X176800500Y-101295800D01*
X176884537Y-101498683D01*
X177039817Y-101653963D01*
X177242700Y-101738000D01*
X177462300Y-101738000D01*
X177665183Y-101653963D01*
X177820463Y-101498683D01*
X177904500Y-101295800D01*
X177904500Y-101076200D01*
X177820463Y-100873317D01*
X177665183Y-100718037D01*
X177462300Y-100634000D01*
X177242700Y-100634000D01*
X177039817Y-100718037D01*
X176884537Y-100873317D01*
X176800500Y-101076200D01*
X100352000Y-101076200D01*
X100352000Y-100352000D01*
X199648001Y-100352000D01*
X199648001Y-106659000D01*
G04 #@! TO.N,/M1_AGND*
G36*
X176025500Y-114944854D02*
X175912683Y-114832037D01*
X175709800Y-114748000D01*
X175490200Y-114748000D01*
X175287317Y-114832037D01*
X175132037Y-114987317D01*
X175048000Y-115190200D01*
X175048000Y-115409800D01*
X175132037Y-115612683D01*
X175287317Y-115767963D01*
X175490200Y-115852000D01*
X175709800Y-115852000D01*
X175912683Y-115767963D01*
X176025500Y-115655146D01*
X176025500Y-118083795D01*
X176035167Y-118132396D01*
X176062697Y-118173598D01*
X176103899Y-118201128D01*
X176152475Y-118210795D01*
X178393134Y-118211236D01*
X178348000Y-118320200D01*
X178348000Y-118539800D01*
X178432037Y-118742683D01*
X178587317Y-118897963D01*
X178790200Y-118982000D01*
X179009800Y-118982000D01*
X179212683Y-118897963D01*
X179367963Y-118742683D01*
X179452000Y-118539800D01*
X179452000Y-118320200D01*
X179406948Y-118211436D01*
X187352475Y-118213000D01*
X187401078Y-118203342D01*
X187442285Y-118175820D01*
X187469823Y-118134624D01*
X187479500Y-118086000D01*
X187479500Y-116558688D01*
X188800512Y-116558688D01*
X188800512Y-116778288D01*
X188884549Y-116981171D01*
X189039829Y-117136451D01*
X189242712Y-117220488D01*
X189462312Y-117220488D01*
X189665195Y-117136451D01*
X189820475Y-116981171D01*
X189904512Y-116778288D01*
X189904512Y-116558688D01*
X189820475Y-116355805D01*
X189665195Y-116200525D01*
X189462312Y-116116488D01*
X189242712Y-116116488D01*
X189039829Y-116200525D01*
X188884549Y-116355805D01*
X188800512Y-116558688D01*
X187479500Y-116558688D01*
X187479500Y-116296170D01*
X187581407Y-116253959D01*
X187736687Y-116098679D01*
X187820724Y-115895796D01*
X187820724Y-115676196D01*
X187736687Y-115473313D01*
X187581407Y-115318033D01*
X187479500Y-115275822D01*
X187479500Y-114286732D01*
X188228210Y-114286732D01*
X188228210Y-114506332D01*
X188312247Y-114709215D01*
X188467527Y-114864495D01*
X188670410Y-114948532D01*
X188890010Y-114948532D01*
X189079178Y-114870176D01*
X188962037Y-114987317D01*
X188878000Y-115190200D01*
X188878000Y-115409800D01*
X188962037Y-115612683D01*
X189117317Y-115767963D01*
X189320200Y-115852000D01*
X189539800Y-115852000D01*
X189742683Y-115767963D01*
X189897963Y-115612683D01*
X189982000Y-115409800D01*
X189982000Y-115190200D01*
X189897963Y-114987317D01*
X189742683Y-114832037D01*
X189539800Y-114748000D01*
X189320200Y-114748000D01*
X189131032Y-114826356D01*
X189248173Y-114709215D01*
X189332210Y-114506332D01*
X189332210Y-114286732D01*
X189248173Y-114083849D01*
X189092893Y-113928569D01*
X188890010Y-113844532D01*
X188670410Y-113844532D01*
X188467527Y-113928569D01*
X188312247Y-114083849D01*
X188228210Y-114286732D01*
X187479500Y-114286732D01*
X187479500Y-112923359D01*
X188369426Y-112923359D01*
X188369426Y-113142959D01*
X188453463Y-113345842D01*
X188608743Y-113501122D01*
X188811626Y-113585159D01*
X189031226Y-113585159D01*
X189234109Y-113501122D01*
X189389389Y-113345842D01*
X189473426Y-113142959D01*
X189473426Y-113059310D01*
X189542700Y-113088004D01*
X189762300Y-113088004D01*
X189965183Y-113003967D01*
X190120463Y-112848687D01*
X190204500Y-112645804D01*
X190204500Y-112426204D01*
X190120463Y-112223321D01*
X189965183Y-112068041D01*
X189762300Y-111984004D01*
X189542700Y-111984004D01*
X189339817Y-112068041D01*
X189184537Y-112223321D01*
X189100500Y-112426204D01*
X189100500Y-112509853D01*
X189031226Y-112481159D01*
X188811626Y-112481159D01*
X188608743Y-112565196D01*
X188453463Y-112720476D01*
X188369426Y-112923359D01*
X187479500Y-112923359D01*
X187479500Y-111186523D01*
X187484537Y-111198683D01*
X187639817Y-111353963D01*
X187842700Y-111438000D01*
X188062300Y-111438000D01*
X188152520Y-111400629D01*
X188234557Y-111598683D01*
X188389837Y-111753963D01*
X188592720Y-111838000D01*
X188812320Y-111838000D01*
X189015203Y-111753963D01*
X189052510Y-111716656D01*
X189189817Y-111853963D01*
X189392700Y-111938000D01*
X189612300Y-111938000D01*
X189815183Y-111853963D01*
X189970463Y-111698683D01*
X190054500Y-111495800D01*
X190054500Y-111276200D01*
X189970463Y-111073317D01*
X189815183Y-110918037D01*
X189612300Y-110834000D01*
X189392700Y-110834000D01*
X189189817Y-110918037D01*
X189152510Y-110955344D01*
X189015203Y-110818037D01*
X188812320Y-110734000D01*
X188592720Y-110734000D01*
X188502500Y-110771371D01*
X188420463Y-110573317D01*
X188265183Y-110418037D01*
X188062300Y-110334000D01*
X187842700Y-110334000D01*
X187639817Y-110418037D01*
X187484537Y-110573317D01*
X187479500Y-110585477D01*
X187479500Y-110231941D01*
X187654726Y-110231941D01*
X187857609Y-110147904D01*
X188012889Y-109992624D01*
X188096926Y-109789741D01*
X188096926Y-109570141D01*
X188012889Y-109367258D01*
X187857609Y-109211978D01*
X187654726Y-109127941D01*
X187479500Y-109127941D01*
X187479500Y-107213000D01*
X199648001Y-107213000D01*
X199648000Y-119959000D01*
X171279500Y-119959000D01*
X171279500Y-118650200D01*
X171728000Y-118650200D01*
X171728000Y-118869800D01*
X171812037Y-119072683D01*
X171967317Y-119227963D01*
X172170200Y-119312000D01*
X172389800Y-119312000D01*
X172592683Y-119227963D01*
X172747963Y-119072683D01*
X172832000Y-118869800D01*
X172832000Y-118826200D01*
X174950500Y-118826200D01*
X174950500Y-119045800D01*
X175034537Y-119248683D01*
X175189817Y-119403963D01*
X175392700Y-119488000D01*
X175612300Y-119488000D01*
X175815183Y-119403963D01*
X175970463Y-119248683D01*
X176054500Y-119045800D01*
X176054500Y-118890200D01*
X176568000Y-118890200D01*
X176568000Y-119109800D01*
X176652037Y-119312683D01*
X176807317Y-119467963D01*
X177010200Y-119552000D01*
X177229800Y-119552000D01*
X177432683Y-119467963D01*
X177587963Y-119312683D01*
X177672000Y-119109800D01*
X177672000Y-118890200D01*
X177587963Y-118687317D01*
X177432683Y-118532037D01*
X177229800Y-118448000D01*
X177010200Y-118448000D01*
X176807317Y-118532037D01*
X176652037Y-118687317D01*
X176568000Y-118890200D01*
X176054500Y-118890200D01*
X176054500Y-118826200D01*
X175970463Y-118623317D01*
X175815183Y-118468037D01*
X175612300Y-118384000D01*
X175392700Y-118384000D01*
X175189817Y-118468037D01*
X175034537Y-118623317D01*
X174950500Y-118826200D01*
X172832000Y-118826200D01*
X172832000Y-118650200D01*
X172747963Y-118447317D01*
X172592683Y-118292037D01*
X172389800Y-118208000D01*
X172170200Y-118208000D01*
X171967317Y-118292037D01*
X171812037Y-118447317D01*
X171728000Y-118650200D01*
X171279500Y-118650200D01*
X171279500Y-118356150D01*
X171304498Y-118295800D01*
X171304498Y-118076200D01*
X171279500Y-118015850D01*
X171279500Y-113110200D01*
X172528000Y-113110200D01*
X172528000Y-113329800D01*
X172612037Y-113532683D01*
X172767317Y-113687963D01*
X172970200Y-113772000D01*
X173189800Y-113772000D01*
X173392683Y-113687963D01*
X173547963Y-113532683D01*
X173632000Y-113329800D01*
X173632000Y-113310200D01*
X174728000Y-113310200D01*
X174728000Y-113529800D01*
X174812037Y-113732683D01*
X174967317Y-113887963D01*
X175170200Y-113972000D01*
X175389800Y-113972000D01*
X175592683Y-113887963D01*
X175747963Y-113732683D01*
X175832000Y-113529800D01*
X175832000Y-113310200D01*
X175747963Y-113107317D01*
X175592683Y-112952037D01*
X175389800Y-112868000D01*
X175170200Y-112868000D01*
X174967317Y-112952037D01*
X174812037Y-113107317D01*
X174728000Y-113310200D01*
X173632000Y-113310200D01*
X173632000Y-113110200D01*
X173547963Y-112907317D01*
X173392683Y-112752037D01*
X173285540Y-112707657D01*
X173415194Y-112653952D01*
X173570474Y-112498672D01*
X173654511Y-112295789D01*
X173654511Y-112076189D01*
X173570474Y-111873306D01*
X173415194Y-111718026D01*
X173212311Y-111633989D01*
X172992711Y-111633989D01*
X172789828Y-111718026D01*
X172634548Y-111873306D01*
X172550511Y-112076189D01*
X172550511Y-112295789D01*
X172634548Y-112498672D01*
X172789828Y-112653952D01*
X172896971Y-112698332D01*
X172767317Y-112752037D01*
X172612037Y-112907317D01*
X172528000Y-113110200D01*
X171279500Y-113110200D01*
X171279500Y-112956155D01*
X171304500Y-112895800D01*
X171304500Y-112676200D01*
X171279500Y-112615845D01*
X171279500Y-110476200D01*
X174900500Y-110476200D01*
X174900500Y-110695800D01*
X174984537Y-110898683D01*
X175139817Y-111053963D01*
X175342700Y-111138000D01*
X175562300Y-111138000D01*
X175765183Y-111053963D01*
X175920463Y-110898683D01*
X176004500Y-110695800D01*
X176004500Y-110476200D01*
X175920463Y-110273317D01*
X175765183Y-110118037D01*
X175562300Y-110034000D01*
X175342700Y-110034000D01*
X175139817Y-110118037D01*
X174984537Y-110273317D01*
X174900500Y-110476200D01*
X171279500Y-110476200D01*
X171279500Y-109901146D01*
X171367963Y-109812683D01*
X171449763Y-109615200D01*
X172572998Y-109615200D01*
X172572998Y-109834800D01*
X172657035Y-110037683D01*
X172812315Y-110192963D01*
X173015198Y-110277000D01*
X173234798Y-110277000D01*
X173437681Y-110192963D01*
X173592961Y-110037683D01*
X173676998Y-109834800D01*
X173676998Y-109615200D01*
X173592961Y-109412317D01*
X173437681Y-109257037D01*
X173234798Y-109173000D01*
X173015198Y-109173000D01*
X172812315Y-109257037D01*
X172657035Y-109412317D01*
X172572998Y-109615200D01*
X171449763Y-109615200D01*
X171452000Y-109609800D01*
X171452000Y-109390200D01*
X171367963Y-109187317D01*
X171279500Y-109098854D01*
X171279500Y-107213000D01*
X176025500Y-107213000D01*
X176025500Y-114944854D01*
X176025500Y-114944854D01*
G37*
X176025500Y-114944854D02*
X175912683Y-114832037D01*
X175709800Y-114748000D01*
X175490200Y-114748000D01*
X175287317Y-114832037D01*
X175132037Y-114987317D01*
X175048000Y-115190200D01*
X175048000Y-115409800D01*
X175132037Y-115612683D01*
X175287317Y-115767963D01*
X175490200Y-115852000D01*
X175709800Y-115852000D01*
X175912683Y-115767963D01*
X176025500Y-115655146D01*
X176025500Y-118083795D01*
X176035167Y-118132396D01*
X176062697Y-118173598D01*
X176103899Y-118201128D01*
X176152475Y-118210795D01*
X178393134Y-118211236D01*
X178348000Y-118320200D01*
X178348000Y-118539800D01*
X178432037Y-118742683D01*
X178587317Y-118897963D01*
X178790200Y-118982000D01*
X179009800Y-118982000D01*
X179212683Y-118897963D01*
X179367963Y-118742683D01*
X179452000Y-118539800D01*
X179452000Y-118320200D01*
X179406948Y-118211436D01*
X187352475Y-118213000D01*
X187401078Y-118203342D01*
X187442285Y-118175820D01*
X187469823Y-118134624D01*
X187479500Y-118086000D01*
X187479500Y-116558688D01*
X188800512Y-116558688D01*
X188800512Y-116778288D01*
X188884549Y-116981171D01*
X189039829Y-117136451D01*
X189242712Y-117220488D01*
X189462312Y-117220488D01*
X189665195Y-117136451D01*
X189820475Y-116981171D01*
X189904512Y-116778288D01*
X189904512Y-116558688D01*
X189820475Y-116355805D01*
X189665195Y-116200525D01*
X189462312Y-116116488D01*
X189242712Y-116116488D01*
X189039829Y-116200525D01*
X188884549Y-116355805D01*
X188800512Y-116558688D01*
X187479500Y-116558688D01*
X187479500Y-116296170D01*
X187581407Y-116253959D01*
X187736687Y-116098679D01*
X187820724Y-115895796D01*
X187820724Y-115676196D01*
X187736687Y-115473313D01*
X187581407Y-115318033D01*
X187479500Y-115275822D01*
X187479500Y-114286732D01*
X188228210Y-114286732D01*
X188228210Y-114506332D01*
X188312247Y-114709215D01*
X188467527Y-114864495D01*
X188670410Y-114948532D01*
X188890010Y-114948532D01*
X189079178Y-114870176D01*
X188962037Y-114987317D01*
X188878000Y-115190200D01*
X188878000Y-115409800D01*
X188962037Y-115612683D01*
X189117317Y-115767963D01*
X189320200Y-115852000D01*
X189539800Y-115852000D01*
X189742683Y-115767963D01*
X189897963Y-115612683D01*
X189982000Y-115409800D01*
X189982000Y-115190200D01*
X189897963Y-114987317D01*
X189742683Y-114832037D01*
X189539800Y-114748000D01*
X189320200Y-114748000D01*
X189131032Y-114826356D01*
X189248173Y-114709215D01*
X189332210Y-114506332D01*
X189332210Y-114286732D01*
X189248173Y-114083849D01*
X189092893Y-113928569D01*
X188890010Y-113844532D01*
X188670410Y-113844532D01*
X188467527Y-113928569D01*
X188312247Y-114083849D01*
X188228210Y-114286732D01*
X187479500Y-114286732D01*
X187479500Y-112923359D01*
X188369426Y-112923359D01*
X188369426Y-113142959D01*
X188453463Y-113345842D01*
X188608743Y-113501122D01*
X188811626Y-113585159D01*
X189031226Y-113585159D01*
X189234109Y-113501122D01*
X189389389Y-113345842D01*
X189473426Y-113142959D01*
X189473426Y-113059310D01*
X189542700Y-113088004D01*
X189762300Y-113088004D01*
X189965183Y-113003967D01*
X190120463Y-112848687D01*
X190204500Y-112645804D01*
X190204500Y-112426204D01*
X190120463Y-112223321D01*
X189965183Y-112068041D01*
X189762300Y-111984004D01*
X189542700Y-111984004D01*
X189339817Y-112068041D01*
X189184537Y-112223321D01*
X189100500Y-112426204D01*
X189100500Y-112509853D01*
X189031226Y-112481159D01*
X188811626Y-112481159D01*
X188608743Y-112565196D01*
X188453463Y-112720476D01*
X188369426Y-112923359D01*
X187479500Y-112923359D01*
X187479500Y-111186523D01*
X187484537Y-111198683D01*
X187639817Y-111353963D01*
X187842700Y-111438000D01*
X188062300Y-111438000D01*
X188152520Y-111400629D01*
X188234557Y-111598683D01*
X188389837Y-111753963D01*
X188592720Y-111838000D01*
X188812320Y-111838000D01*
X189015203Y-111753963D01*
X189052510Y-111716656D01*
X189189817Y-111853963D01*
X189392700Y-111938000D01*
X189612300Y-111938000D01*
X189815183Y-111853963D01*
X189970463Y-111698683D01*
X190054500Y-111495800D01*
X190054500Y-111276200D01*
X189970463Y-111073317D01*
X189815183Y-110918037D01*
X189612300Y-110834000D01*
X189392700Y-110834000D01*
X189189817Y-110918037D01*
X189152510Y-110955344D01*
X189015203Y-110818037D01*
X188812320Y-110734000D01*
X188592720Y-110734000D01*
X188502500Y-110771371D01*
X188420463Y-110573317D01*
X188265183Y-110418037D01*
X188062300Y-110334000D01*
X187842700Y-110334000D01*
X187639817Y-110418037D01*
X187484537Y-110573317D01*
X187479500Y-110585477D01*
X187479500Y-110231941D01*
X187654726Y-110231941D01*
X187857609Y-110147904D01*
X188012889Y-109992624D01*
X188096926Y-109789741D01*
X188096926Y-109570141D01*
X188012889Y-109367258D01*
X187857609Y-109211978D01*
X187654726Y-109127941D01*
X187479500Y-109127941D01*
X187479500Y-107213000D01*
X199648001Y-107213000D01*
X199648000Y-119959000D01*
X171279500Y-119959000D01*
X171279500Y-118650200D01*
X171728000Y-118650200D01*
X171728000Y-118869800D01*
X171812037Y-119072683D01*
X171967317Y-119227963D01*
X172170200Y-119312000D01*
X172389800Y-119312000D01*
X172592683Y-119227963D01*
X172747963Y-119072683D01*
X172832000Y-118869800D01*
X172832000Y-118826200D01*
X174950500Y-118826200D01*
X174950500Y-119045800D01*
X175034537Y-119248683D01*
X175189817Y-119403963D01*
X175392700Y-119488000D01*
X175612300Y-119488000D01*
X175815183Y-119403963D01*
X175970463Y-119248683D01*
X176054500Y-119045800D01*
X176054500Y-118890200D01*
X176568000Y-118890200D01*
X176568000Y-119109800D01*
X176652037Y-119312683D01*
X176807317Y-119467963D01*
X177010200Y-119552000D01*
X177229800Y-119552000D01*
X177432683Y-119467963D01*
X177587963Y-119312683D01*
X177672000Y-119109800D01*
X177672000Y-118890200D01*
X177587963Y-118687317D01*
X177432683Y-118532037D01*
X177229800Y-118448000D01*
X177010200Y-118448000D01*
X176807317Y-118532037D01*
X176652037Y-118687317D01*
X176568000Y-118890200D01*
X176054500Y-118890200D01*
X176054500Y-118826200D01*
X175970463Y-118623317D01*
X175815183Y-118468037D01*
X175612300Y-118384000D01*
X175392700Y-118384000D01*
X175189817Y-118468037D01*
X175034537Y-118623317D01*
X174950500Y-118826200D01*
X172832000Y-118826200D01*
X172832000Y-118650200D01*
X172747963Y-118447317D01*
X172592683Y-118292037D01*
X172389800Y-118208000D01*
X172170200Y-118208000D01*
X171967317Y-118292037D01*
X171812037Y-118447317D01*
X171728000Y-118650200D01*
X171279500Y-118650200D01*
X171279500Y-118356150D01*
X171304498Y-118295800D01*
X171304498Y-118076200D01*
X171279500Y-118015850D01*
X171279500Y-113110200D01*
X172528000Y-113110200D01*
X172528000Y-113329800D01*
X172612037Y-113532683D01*
X172767317Y-113687963D01*
X172970200Y-113772000D01*
X173189800Y-113772000D01*
X173392683Y-113687963D01*
X173547963Y-113532683D01*
X173632000Y-113329800D01*
X173632000Y-113310200D01*
X174728000Y-113310200D01*
X174728000Y-113529800D01*
X174812037Y-113732683D01*
X174967317Y-113887963D01*
X175170200Y-113972000D01*
X175389800Y-113972000D01*
X175592683Y-113887963D01*
X175747963Y-113732683D01*
X175832000Y-113529800D01*
X175832000Y-113310200D01*
X175747963Y-113107317D01*
X175592683Y-112952037D01*
X175389800Y-112868000D01*
X175170200Y-112868000D01*
X174967317Y-112952037D01*
X174812037Y-113107317D01*
X174728000Y-113310200D01*
X173632000Y-113310200D01*
X173632000Y-113110200D01*
X173547963Y-112907317D01*
X173392683Y-112752037D01*
X173285540Y-112707657D01*
X173415194Y-112653952D01*
X173570474Y-112498672D01*
X173654511Y-112295789D01*
X173654511Y-112076189D01*
X173570474Y-111873306D01*
X173415194Y-111718026D01*
X173212311Y-111633989D01*
X172992711Y-111633989D01*
X172789828Y-111718026D01*
X172634548Y-111873306D01*
X172550511Y-112076189D01*
X172550511Y-112295789D01*
X172634548Y-112498672D01*
X172789828Y-112653952D01*
X172896971Y-112698332D01*
X172767317Y-112752037D01*
X172612037Y-112907317D01*
X172528000Y-113110200D01*
X171279500Y-113110200D01*
X171279500Y-112956155D01*
X171304500Y-112895800D01*
X171304500Y-112676200D01*
X171279500Y-112615845D01*
X171279500Y-110476200D01*
X174900500Y-110476200D01*
X174900500Y-110695800D01*
X174984537Y-110898683D01*
X175139817Y-111053963D01*
X175342700Y-111138000D01*
X175562300Y-111138000D01*
X175765183Y-111053963D01*
X175920463Y-110898683D01*
X176004500Y-110695800D01*
X176004500Y-110476200D01*
X175920463Y-110273317D01*
X175765183Y-110118037D01*
X175562300Y-110034000D01*
X175342700Y-110034000D01*
X175139817Y-110118037D01*
X174984537Y-110273317D01*
X174900500Y-110476200D01*
X171279500Y-110476200D01*
X171279500Y-109901146D01*
X171367963Y-109812683D01*
X171449763Y-109615200D01*
X172572998Y-109615200D01*
X172572998Y-109834800D01*
X172657035Y-110037683D01*
X172812315Y-110192963D01*
X173015198Y-110277000D01*
X173234798Y-110277000D01*
X173437681Y-110192963D01*
X173592961Y-110037683D01*
X173676998Y-109834800D01*
X173676998Y-109615200D01*
X173592961Y-109412317D01*
X173437681Y-109257037D01*
X173234798Y-109173000D01*
X173015198Y-109173000D01*
X172812315Y-109257037D01*
X172657035Y-109412317D01*
X172572998Y-109615200D01*
X171449763Y-109615200D01*
X171452000Y-109609800D01*
X171452000Y-109390200D01*
X171367963Y-109187317D01*
X171279500Y-109098854D01*
X171279500Y-107213000D01*
X176025500Y-107213000D01*
X176025500Y-114944854D01*
G04 #@! TO.N,/M1_DGND*
G36*
X186925500Y-115348574D02*
X186800761Y-115473313D01*
X186716724Y-115676196D01*
X186716724Y-115895796D01*
X186800761Y-116098679D01*
X186925500Y-116223418D01*
X186925500Y-117659000D01*
X176579500Y-117659000D01*
X176579500Y-116451204D01*
X180625496Y-116451204D01*
X180625496Y-116670804D01*
X180709533Y-116873687D01*
X180864813Y-117028967D01*
X181067696Y-117113004D01*
X181287296Y-117113004D01*
X181490179Y-117028967D01*
X181645459Y-116873687D01*
X181729496Y-116670804D01*
X181729496Y-116451204D01*
X181645459Y-116248321D01*
X181573336Y-116176198D01*
X183500500Y-116176198D01*
X183500500Y-116395798D01*
X183584537Y-116598681D01*
X183739817Y-116753961D01*
X183942700Y-116837998D01*
X184162300Y-116837998D01*
X184365183Y-116753961D01*
X184520463Y-116598681D01*
X184531788Y-116571339D01*
X184584537Y-116698685D01*
X184739817Y-116853965D01*
X184942700Y-116938002D01*
X185162300Y-116938002D01*
X185365183Y-116853965D01*
X185520463Y-116698685D01*
X185531790Y-116671340D01*
X185584537Y-116798683D01*
X185739817Y-116953963D01*
X185942700Y-117038000D01*
X186162300Y-117038000D01*
X186365183Y-116953963D01*
X186520463Y-116798683D01*
X186604500Y-116595800D01*
X186604500Y-116376200D01*
X186520463Y-116173317D01*
X186365183Y-116018037D01*
X186162300Y-115934000D01*
X185942700Y-115934000D01*
X185739817Y-116018037D01*
X185584537Y-116173317D01*
X185573210Y-116200662D01*
X185520463Y-116073319D01*
X185365183Y-115918039D01*
X185162300Y-115834002D01*
X184942700Y-115834002D01*
X184739817Y-115918039D01*
X184584537Y-116073319D01*
X184573212Y-116100661D01*
X184520463Y-115973315D01*
X184365183Y-115818035D01*
X184162300Y-115733998D01*
X183942700Y-115733998D01*
X183739817Y-115818035D01*
X183584537Y-115973315D01*
X183500500Y-116176198D01*
X181573336Y-116176198D01*
X181490179Y-116093041D01*
X181287296Y-116009004D01*
X181067696Y-116009004D01*
X180864813Y-116093041D01*
X180709533Y-116248321D01*
X180625496Y-116451204D01*
X176579500Y-116451204D01*
X176579500Y-115561463D01*
X179385771Y-115561463D01*
X179385771Y-115781063D01*
X179469808Y-115983946D01*
X179625088Y-116139226D01*
X179827971Y-116223263D01*
X180047571Y-116223263D01*
X180250454Y-116139226D01*
X180405734Y-115983946D01*
X180489771Y-115781063D01*
X180489771Y-115561463D01*
X180405734Y-115358580D01*
X180250454Y-115203300D01*
X180047571Y-115119263D01*
X179827971Y-115119263D01*
X179625088Y-115203300D01*
X179469808Y-115358580D01*
X179385771Y-115561463D01*
X176579500Y-115561463D01*
X176579500Y-115056579D01*
X176582037Y-115062704D01*
X176737317Y-115217984D01*
X176940200Y-115302021D01*
X177159800Y-115302021D01*
X177362683Y-115217984D01*
X177517963Y-115062704D01*
X177602000Y-114859821D01*
X177602000Y-114640221D01*
X177517963Y-114437338D01*
X177362683Y-114282058D01*
X177159800Y-114198021D01*
X176940200Y-114198021D01*
X176737317Y-114282058D01*
X176582037Y-114437338D01*
X176579500Y-114443463D01*
X176579500Y-113915200D01*
X178598000Y-113915200D01*
X178598000Y-114134800D01*
X178682037Y-114337683D01*
X178837317Y-114492963D01*
X179040200Y-114577000D01*
X179259800Y-114577000D01*
X179261731Y-114576200D01*
X179900500Y-114576200D01*
X179900500Y-114795800D01*
X179984537Y-114998683D01*
X180139817Y-115153963D01*
X180342700Y-115238000D01*
X180562300Y-115238000D01*
X180765183Y-115153963D01*
X180920463Y-114998683D01*
X180971197Y-114876200D01*
X184525495Y-114876200D01*
X184525495Y-115095800D01*
X184609532Y-115298683D01*
X184764812Y-115453963D01*
X184967695Y-115538000D01*
X185187295Y-115538000D01*
X185390178Y-115453963D01*
X185545458Y-115298683D01*
X185629495Y-115095800D01*
X185629495Y-114876200D01*
X185545458Y-114673317D01*
X185390178Y-114518037D01*
X185187295Y-114434000D01*
X184967695Y-114434000D01*
X184764812Y-114518037D01*
X184609532Y-114673317D01*
X184525495Y-114876200D01*
X180971197Y-114876200D01*
X181004500Y-114795800D01*
X181004500Y-114576200D01*
X180920463Y-114373317D01*
X180765183Y-114218037D01*
X180562300Y-114134000D01*
X180342700Y-114134000D01*
X180139817Y-114218037D01*
X179984537Y-114373317D01*
X179900500Y-114576200D01*
X179261731Y-114576200D01*
X179462683Y-114492963D01*
X179617963Y-114337683D01*
X179702000Y-114134800D01*
X179702000Y-113915200D01*
X179699929Y-113910200D01*
X180908000Y-113910200D01*
X180908000Y-114129800D01*
X180992037Y-114332683D01*
X181147317Y-114487963D01*
X181350200Y-114572000D01*
X181569800Y-114572000D01*
X181772683Y-114487963D01*
X181927963Y-114332683D01*
X182012000Y-114129800D01*
X182012000Y-113910200D01*
X181927963Y-113707317D01*
X181772683Y-113552037D01*
X181569800Y-113468000D01*
X181350200Y-113468000D01*
X181147317Y-113552037D01*
X180992037Y-113707317D01*
X180908000Y-113910200D01*
X179699929Y-113910200D01*
X179617963Y-113712317D01*
X179462683Y-113557037D01*
X179259800Y-113473000D01*
X179040200Y-113473000D01*
X178837317Y-113557037D01*
X178682037Y-113712317D01*
X178598000Y-113915200D01*
X176579500Y-113915200D01*
X176579500Y-113176200D01*
X179900500Y-113176200D01*
X179900500Y-113395800D01*
X179984537Y-113598683D01*
X180139817Y-113753963D01*
X180342700Y-113838000D01*
X180562300Y-113838000D01*
X180765183Y-113753963D01*
X180920463Y-113598683D01*
X181004500Y-113395800D01*
X181004500Y-113176200D01*
X180920463Y-112973317D01*
X180765183Y-112818037D01*
X180562300Y-112734000D01*
X180342700Y-112734000D01*
X180139817Y-112818037D01*
X179984537Y-112973317D01*
X179900500Y-113176200D01*
X176579500Y-113176200D01*
X176579500Y-111089672D01*
X177223528Y-111089672D01*
X177223528Y-111309272D01*
X177307565Y-111512155D01*
X177449917Y-111654507D01*
X177373000Y-111840200D01*
X177373000Y-112059800D01*
X177457037Y-112262683D01*
X177612317Y-112417963D01*
X177815200Y-112502000D01*
X178034800Y-112502000D01*
X178237683Y-112417963D01*
X178392963Y-112262683D01*
X178438809Y-112152000D01*
X178609800Y-112152000D01*
X178812683Y-112067963D01*
X178878166Y-112002480D01*
X180396720Y-112002480D01*
X180396720Y-112222080D01*
X180480757Y-112424963D01*
X180636037Y-112580243D01*
X180838920Y-112664280D01*
X181058520Y-112664280D01*
X181261403Y-112580243D01*
X181416683Y-112424963D01*
X181500720Y-112222080D01*
X181500720Y-112002480D01*
X181416683Y-111799597D01*
X181261403Y-111644317D01*
X181058520Y-111560280D01*
X180838920Y-111560280D01*
X180636037Y-111644317D01*
X180480757Y-111799597D01*
X180396720Y-112002480D01*
X178878166Y-112002480D01*
X178967963Y-111912683D01*
X179052000Y-111709800D01*
X179052000Y-111490200D01*
X178967963Y-111287317D01*
X178894882Y-111214236D01*
X179100500Y-111214236D01*
X179100500Y-111433836D01*
X179184537Y-111636719D01*
X179339817Y-111791999D01*
X179542700Y-111876036D01*
X179762300Y-111876036D01*
X179965183Y-111791999D01*
X180120463Y-111636719D01*
X180204500Y-111433836D01*
X180204500Y-111214236D01*
X180120463Y-111011353D01*
X179965183Y-110856073D01*
X179762300Y-110772036D01*
X179542700Y-110772036D01*
X179339817Y-110856073D01*
X179184537Y-111011353D01*
X179100500Y-111214236D01*
X178894882Y-111214236D01*
X178812683Y-111132037D01*
X178683432Y-111078499D01*
X178775180Y-111040496D01*
X178930460Y-110885216D01*
X179014497Y-110682333D01*
X179014497Y-110462733D01*
X178930460Y-110259850D01*
X178775180Y-110104570D01*
X178771888Y-110103207D01*
X178834848Y-109951208D01*
X180375508Y-109951208D01*
X180375508Y-110170808D01*
X180459545Y-110373691D01*
X180614825Y-110528971D01*
X180817708Y-110613008D01*
X181037308Y-110613008D01*
X181240191Y-110528971D01*
X181294258Y-110474904D01*
X181387317Y-110567963D01*
X181590200Y-110652000D01*
X181809800Y-110652000D01*
X182012683Y-110567963D01*
X182167963Y-110412683D01*
X182252000Y-110209800D01*
X182252000Y-109990200D01*
X182218863Y-109910200D01*
X182588000Y-109910200D01*
X182588000Y-110129800D01*
X182672037Y-110332683D01*
X182827317Y-110487963D01*
X183030200Y-110572000D01*
X183249800Y-110572000D01*
X183452683Y-110487963D01*
X183607963Y-110332683D01*
X183692000Y-110129800D01*
X183692000Y-109910200D01*
X183672232Y-109862474D01*
X184550283Y-109862474D01*
X184550283Y-110082074D01*
X184634320Y-110284957D01*
X184789600Y-110440237D01*
X184992483Y-110524274D01*
X185212083Y-110524274D01*
X185414966Y-110440237D01*
X185570246Y-110284957D01*
X185654283Y-110082074D01*
X185654283Y-109862474D01*
X185611531Y-109759262D01*
X185729592Y-109759262D01*
X185932475Y-109675225D01*
X186087755Y-109519945D01*
X186171792Y-109317062D01*
X186171792Y-109097462D01*
X186087755Y-108894579D01*
X185932475Y-108739299D01*
X185729592Y-108655262D01*
X185509992Y-108655262D01*
X185307109Y-108739299D01*
X185151829Y-108894579D01*
X185067792Y-109097462D01*
X185067792Y-109317062D01*
X185110544Y-109420274D01*
X184992483Y-109420274D01*
X184789600Y-109504311D01*
X184634320Y-109659591D01*
X184550283Y-109862474D01*
X183672232Y-109862474D01*
X183607963Y-109707317D01*
X183452683Y-109552037D01*
X183249800Y-109468000D01*
X183030200Y-109468000D01*
X182827317Y-109552037D01*
X182672037Y-109707317D01*
X182588000Y-109910200D01*
X182218863Y-109910200D01*
X182167963Y-109787317D01*
X182012683Y-109632037D01*
X181809800Y-109548000D01*
X181590200Y-109548000D01*
X181387317Y-109632037D01*
X181333250Y-109686104D01*
X181240191Y-109593045D01*
X181037308Y-109509008D01*
X180817708Y-109509008D01*
X180614825Y-109593045D01*
X180459545Y-109748325D01*
X180375508Y-109951208D01*
X178834848Y-109951208D01*
X178852000Y-109909800D01*
X178852000Y-109690200D01*
X178767963Y-109487317D01*
X178612683Y-109332037D01*
X178409800Y-109248000D01*
X178190200Y-109248000D01*
X177987317Y-109332037D01*
X177832037Y-109487317D01*
X177748000Y-109690200D01*
X177748000Y-109909800D01*
X177832037Y-110112683D01*
X177987317Y-110267963D01*
X177990609Y-110269326D01*
X177910497Y-110462733D01*
X177910497Y-110657897D01*
X177885328Y-110647472D01*
X177665728Y-110647472D01*
X177462845Y-110731509D01*
X177307565Y-110886789D01*
X177223528Y-111089672D01*
X176579500Y-111089672D01*
X176579500Y-107213000D01*
X186925500Y-107213000D01*
X186925500Y-115348574D01*
X186925500Y-115348574D01*
G37*
X186925500Y-115348574D02*
X186800761Y-115473313D01*
X186716724Y-115676196D01*
X186716724Y-115895796D01*
X186800761Y-116098679D01*
X186925500Y-116223418D01*
X186925500Y-117659000D01*
X176579500Y-117659000D01*
X176579500Y-116451204D01*
X180625496Y-116451204D01*
X180625496Y-116670804D01*
X180709533Y-116873687D01*
X180864813Y-117028967D01*
X181067696Y-117113004D01*
X181287296Y-117113004D01*
X181490179Y-117028967D01*
X181645459Y-116873687D01*
X181729496Y-116670804D01*
X181729496Y-116451204D01*
X181645459Y-116248321D01*
X181573336Y-116176198D01*
X183500500Y-116176198D01*
X183500500Y-116395798D01*
X183584537Y-116598681D01*
X183739817Y-116753961D01*
X183942700Y-116837998D01*
X184162300Y-116837998D01*
X184365183Y-116753961D01*
X184520463Y-116598681D01*
X184531788Y-116571339D01*
X184584537Y-116698685D01*
X184739817Y-116853965D01*
X184942700Y-116938002D01*
X185162300Y-116938002D01*
X185365183Y-116853965D01*
X185520463Y-116698685D01*
X185531790Y-116671340D01*
X185584537Y-116798683D01*
X185739817Y-116953963D01*
X185942700Y-117038000D01*
X186162300Y-117038000D01*
X186365183Y-116953963D01*
X186520463Y-116798683D01*
X186604500Y-116595800D01*
X186604500Y-116376200D01*
X186520463Y-116173317D01*
X186365183Y-116018037D01*
X186162300Y-115934000D01*
X185942700Y-115934000D01*
X185739817Y-116018037D01*
X185584537Y-116173317D01*
X185573210Y-116200662D01*
X185520463Y-116073319D01*
X185365183Y-115918039D01*
X185162300Y-115834002D01*
X184942700Y-115834002D01*
X184739817Y-115918039D01*
X184584537Y-116073319D01*
X184573212Y-116100661D01*
X184520463Y-115973315D01*
X184365183Y-115818035D01*
X184162300Y-115733998D01*
X183942700Y-115733998D01*
X183739817Y-115818035D01*
X183584537Y-115973315D01*
X183500500Y-116176198D01*
X181573336Y-116176198D01*
X181490179Y-116093041D01*
X181287296Y-116009004D01*
X181067696Y-116009004D01*
X180864813Y-116093041D01*
X180709533Y-116248321D01*
X180625496Y-116451204D01*
X176579500Y-116451204D01*
X176579500Y-115561463D01*
X179385771Y-115561463D01*
X179385771Y-115781063D01*
X179469808Y-115983946D01*
X179625088Y-116139226D01*
X179827971Y-116223263D01*
X180047571Y-116223263D01*
X180250454Y-116139226D01*
X180405734Y-115983946D01*
X180489771Y-115781063D01*
X180489771Y-115561463D01*
X180405734Y-115358580D01*
X180250454Y-115203300D01*
X180047571Y-115119263D01*
X179827971Y-115119263D01*
X179625088Y-115203300D01*
X179469808Y-115358580D01*
X179385771Y-115561463D01*
X176579500Y-115561463D01*
X176579500Y-115056579D01*
X176582037Y-115062704D01*
X176737317Y-115217984D01*
X176940200Y-115302021D01*
X177159800Y-115302021D01*
X177362683Y-115217984D01*
X177517963Y-115062704D01*
X177602000Y-114859821D01*
X177602000Y-114640221D01*
X177517963Y-114437338D01*
X177362683Y-114282058D01*
X177159800Y-114198021D01*
X176940200Y-114198021D01*
X176737317Y-114282058D01*
X176582037Y-114437338D01*
X176579500Y-114443463D01*
X176579500Y-113915200D01*
X178598000Y-113915200D01*
X178598000Y-114134800D01*
X178682037Y-114337683D01*
X178837317Y-114492963D01*
X179040200Y-114577000D01*
X179259800Y-114577000D01*
X179261731Y-114576200D01*
X179900500Y-114576200D01*
X179900500Y-114795800D01*
X179984537Y-114998683D01*
X180139817Y-115153963D01*
X180342700Y-115238000D01*
X180562300Y-115238000D01*
X180765183Y-115153963D01*
X180920463Y-114998683D01*
X180971197Y-114876200D01*
X184525495Y-114876200D01*
X184525495Y-115095800D01*
X184609532Y-115298683D01*
X184764812Y-115453963D01*
X184967695Y-115538000D01*
X185187295Y-115538000D01*
X185390178Y-115453963D01*
X185545458Y-115298683D01*
X185629495Y-115095800D01*
X185629495Y-114876200D01*
X185545458Y-114673317D01*
X185390178Y-114518037D01*
X185187295Y-114434000D01*
X184967695Y-114434000D01*
X184764812Y-114518037D01*
X184609532Y-114673317D01*
X184525495Y-114876200D01*
X180971197Y-114876200D01*
X181004500Y-114795800D01*
X181004500Y-114576200D01*
X180920463Y-114373317D01*
X180765183Y-114218037D01*
X180562300Y-114134000D01*
X180342700Y-114134000D01*
X180139817Y-114218037D01*
X179984537Y-114373317D01*
X179900500Y-114576200D01*
X179261731Y-114576200D01*
X179462683Y-114492963D01*
X179617963Y-114337683D01*
X179702000Y-114134800D01*
X179702000Y-113915200D01*
X179699929Y-113910200D01*
X180908000Y-113910200D01*
X180908000Y-114129800D01*
X180992037Y-114332683D01*
X181147317Y-114487963D01*
X181350200Y-114572000D01*
X181569800Y-114572000D01*
X181772683Y-114487963D01*
X181927963Y-114332683D01*
X182012000Y-114129800D01*
X182012000Y-113910200D01*
X181927963Y-113707317D01*
X181772683Y-113552037D01*
X181569800Y-113468000D01*
X181350200Y-113468000D01*
X181147317Y-113552037D01*
X180992037Y-113707317D01*
X180908000Y-113910200D01*
X179699929Y-113910200D01*
X179617963Y-113712317D01*
X179462683Y-113557037D01*
X179259800Y-113473000D01*
X179040200Y-113473000D01*
X178837317Y-113557037D01*
X178682037Y-113712317D01*
X178598000Y-113915200D01*
X176579500Y-113915200D01*
X176579500Y-113176200D01*
X179900500Y-113176200D01*
X179900500Y-113395800D01*
X179984537Y-113598683D01*
X180139817Y-113753963D01*
X180342700Y-113838000D01*
X180562300Y-113838000D01*
X180765183Y-113753963D01*
X180920463Y-113598683D01*
X181004500Y-113395800D01*
X181004500Y-113176200D01*
X180920463Y-112973317D01*
X180765183Y-112818037D01*
X180562300Y-112734000D01*
X180342700Y-112734000D01*
X180139817Y-112818037D01*
X179984537Y-112973317D01*
X179900500Y-113176200D01*
X176579500Y-113176200D01*
X176579500Y-111089672D01*
X177223528Y-111089672D01*
X177223528Y-111309272D01*
X177307565Y-111512155D01*
X177449917Y-111654507D01*
X177373000Y-111840200D01*
X177373000Y-112059800D01*
X177457037Y-112262683D01*
X177612317Y-112417963D01*
X177815200Y-112502000D01*
X178034800Y-112502000D01*
X178237683Y-112417963D01*
X178392963Y-112262683D01*
X178438809Y-112152000D01*
X178609800Y-112152000D01*
X178812683Y-112067963D01*
X178878166Y-112002480D01*
X180396720Y-112002480D01*
X180396720Y-112222080D01*
X180480757Y-112424963D01*
X180636037Y-112580243D01*
X180838920Y-112664280D01*
X181058520Y-112664280D01*
X181261403Y-112580243D01*
X181416683Y-112424963D01*
X181500720Y-112222080D01*
X181500720Y-112002480D01*
X181416683Y-111799597D01*
X181261403Y-111644317D01*
X181058520Y-111560280D01*
X180838920Y-111560280D01*
X180636037Y-111644317D01*
X180480757Y-111799597D01*
X180396720Y-112002480D01*
X178878166Y-112002480D01*
X178967963Y-111912683D01*
X179052000Y-111709800D01*
X179052000Y-111490200D01*
X178967963Y-111287317D01*
X178894882Y-111214236D01*
X179100500Y-111214236D01*
X179100500Y-111433836D01*
X179184537Y-111636719D01*
X179339817Y-111791999D01*
X179542700Y-111876036D01*
X179762300Y-111876036D01*
X179965183Y-111791999D01*
X180120463Y-111636719D01*
X180204500Y-111433836D01*
X180204500Y-111214236D01*
X180120463Y-111011353D01*
X179965183Y-110856073D01*
X179762300Y-110772036D01*
X179542700Y-110772036D01*
X179339817Y-110856073D01*
X179184537Y-111011353D01*
X179100500Y-111214236D01*
X178894882Y-111214236D01*
X178812683Y-111132037D01*
X178683432Y-111078499D01*
X178775180Y-111040496D01*
X178930460Y-110885216D01*
X179014497Y-110682333D01*
X179014497Y-110462733D01*
X178930460Y-110259850D01*
X178775180Y-110104570D01*
X178771888Y-110103207D01*
X178834848Y-109951208D01*
X180375508Y-109951208D01*
X180375508Y-110170808D01*
X180459545Y-110373691D01*
X180614825Y-110528971D01*
X180817708Y-110613008D01*
X181037308Y-110613008D01*
X181240191Y-110528971D01*
X181294258Y-110474904D01*
X181387317Y-110567963D01*
X181590200Y-110652000D01*
X181809800Y-110652000D01*
X182012683Y-110567963D01*
X182167963Y-110412683D01*
X182252000Y-110209800D01*
X182252000Y-109990200D01*
X182218863Y-109910200D01*
X182588000Y-109910200D01*
X182588000Y-110129800D01*
X182672037Y-110332683D01*
X182827317Y-110487963D01*
X183030200Y-110572000D01*
X183249800Y-110572000D01*
X183452683Y-110487963D01*
X183607963Y-110332683D01*
X183692000Y-110129800D01*
X183692000Y-109910200D01*
X183672232Y-109862474D01*
X184550283Y-109862474D01*
X184550283Y-110082074D01*
X184634320Y-110284957D01*
X184789600Y-110440237D01*
X184992483Y-110524274D01*
X185212083Y-110524274D01*
X185414966Y-110440237D01*
X185570246Y-110284957D01*
X185654283Y-110082074D01*
X185654283Y-109862474D01*
X185611531Y-109759262D01*
X185729592Y-109759262D01*
X185932475Y-109675225D01*
X186087755Y-109519945D01*
X186171792Y-109317062D01*
X186171792Y-109097462D01*
X186087755Y-108894579D01*
X185932475Y-108739299D01*
X185729592Y-108655262D01*
X185509992Y-108655262D01*
X185307109Y-108739299D01*
X185151829Y-108894579D01*
X185067792Y-109097462D01*
X185067792Y-109317062D01*
X185110544Y-109420274D01*
X184992483Y-109420274D01*
X184789600Y-109504311D01*
X184634320Y-109659591D01*
X184550283Y-109862474D01*
X183672232Y-109862474D01*
X183607963Y-109707317D01*
X183452683Y-109552037D01*
X183249800Y-109468000D01*
X183030200Y-109468000D01*
X182827317Y-109552037D01*
X182672037Y-109707317D01*
X182588000Y-109910200D01*
X182218863Y-109910200D01*
X182167963Y-109787317D01*
X182012683Y-109632037D01*
X181809800Y-109548000D01*
X181590200Y-109548000D01*
X181387317Y-109632037D01*
X181333250Y-109686104D01*
X181240191Y-109593045D01*
X181037308Y-109509008D01*
X180817708Y-109509008D01*
X180614825Y-109593045D01*
X180459545Y-109748325D01*
X180375508Y-109951208D01*
X178834848Y-109951208D01*
X178852000Y-109909800D01*
X178852000Y-109690200D01*
X178767963Y-109487317D01*
X178612683Y-109332037D01*
X178409800Y-109248000D01*
X178190200Y-109248000D01*
X177987317Y-109332037D01*
X177832037Y-109487317D01*
X177748000Y-109690200D01*
X177748000Y-109909800D01*
X177832037Y-110112683D01*
X177987317Y-110267963D01*
X177990609Y-110269326D01*
X177910497Y-110462733D01*
X177910497Y-110657897D01*
X177885328Y-110647472D01*
X177665728Y-110647472D01*
X177462845Y-110731509D01*
X177307565Y-110886789D01*
X177223528Y-111089672D01*
X176579500Y-111089672D01*
X176579500Y-107213000D01*
X186925500Y-107213000D01*
X186925500Y-115348574D01*
G04 #@! TD*
M02*
