G04 #@! TF.GenerationSoftware,KiCad,Pcbnew,5.0.2+dfsg1-1~bpo9+1*
G04 #@! TF.CreationDate,2019-10-09T09:51:36+02:00*
G04 #@! TF.ProjectId,OV9281-Dual-Camera-Board-Rev.1.1,4f563932-3831-42d4-9475-616c2d43616d,rev?*
G04 #@! TF.SameCoordinates,Original*
G04 #@! TF.FileFunction,Other,User*
%FSLAX46Y46*%
G04 Gerber Fmt 4.6, Leading zero omitted, Abs format (unit mm)*
G04 Created by KiCad (PCBNEW 5.0.2+dfsg1-1~bpo9+1) date Wed 09 Oct 2019 09:51:36 AM CEST*
%MOMM*%
%LPD*%
G01*
G04 APERTURE LIST*
%ADD10C,0.150000*%
%ADD11C,0.050000*%
G04 APERTURE END LIST*
D10*
G04 #@! TO.C,J3*
X165850000Y-114700000D02*
X134150000Y-114700000D01*
X165850000Y-123700000D02*
X165850000Y-114700000D01*
X134150000Y-123700000D02*
X165850000Y-123700000D01*
X134150000Y-114700000D02*
X134150000Y-123700000D01*
D11*
G04 #@! TO.C,R12*
X175630000Y-111940000D02*
X175630000Y-112880000D01*
X175630000Y-112880000D02*
X173770000Y-112880000D01*
X173770000Y-112880000D02*
X173770000Y-111940000D01*
X173770000Y-111940000D02*
X175630000Y-111940000D01*
G04 #@! TO.C,R22*
X124860000Y-116130000D02*
X123000000Y-116130000D01*
X124860000Y-115190000D02*
X124860000Y-116130000D01*
X123000000Y-115190000D02*
X124860000Y-115190000D01*
X123000000Y-116130000D02*
X123000000Y-115190000D01*
G04 #@! TO.C,R6*
X124870000Y-116330000D02*
X124870000Y-117270000D01*
X124870000Y-117270000D02*
X123010000Y-117270000D01*
X123010000Y-117270000D02*
X123010000Y-116330000D01*
X123010000Y-116330000D02*
X124870000Y-116330000D01*
G04 #@! TO.C,IC1*
X111906000Y-123799000D02*
X111906000Y-120149000D01*
X111906000Y-120149000D02*
X116106000Y-120149000D01*
X116106000Y-120149000D02*
X116106000Y-123799000D01*
X116106000Y-123799000D02*
X111906000Y-123799000D01*
G04 #@! TO.C,C3*
X188808000Y-123490000D02*
X186948000Y-123490000D01*
X188808000Y-119690000D02*
X186948000Y-119690000D01*
X186948000Y-123490000D02*
X186948000Y-119690000D01*
X188808000Y-123490000D02*
X188808000Y-119690000D01*
G04 #@! TO.C,C1*
X116726000Y-120174000D02*
X118586000Y-120174000D01*
X116726000Y-123974000D02*
X118586000Y-123974000D01*
X118586000Y-120174000D02*
X118586000Y-123974000D01*
X116726000Y-120174000D02*
X116726000Y-123974000D01*
G04 #@! TO.C,C2*
X118064000Y-101994000D02*
X119924000Y-101994000D01*
X118064000Y-105794000D02*
X119924000Y-105794000D01*
X119924000Y-101994000D02*
X119924000Y-105794000D01*
X118064000Y-101994000D02*
X118064000Y-105794000D01*
G04 #@! TO.C,C6*
X181438000Y-123190000D02*
X180018000Y-123190000D01*
X181438000Y-120830000D02*
X181438000Y-123050000D01*
X180018000Y-120690000D02*
X181438000Y-120690000D01*
X180018000Y-123050000D02*
X180018000Y-120830000D01*
X181438000Y-123050000D02*
X181438000Y-123190000D01*
X180018000Y-123050000D02*
X180018000Y-123190000D01*
X180018000Y-120830000D02*
X180018000Y-120690000D01*
X181438000Y-120830000D02*
X181438000Y-120690000D01*
G04 #@! TO.C,C5*
X111977797Y-105290280D02*
X110557797Y-105290280D01*
X111977797Y-102930280D02*
X111977797Y-105150280D01*
X110557797Y-102790280D02*
X111977797Y-102790280D01*
X110557797Y-105150280D02*
X110557797Y-102930280D01*
X111977797Y-105150280D02*
X111977797Y-105290280D01*
X110557797Y-105150280D02*
X110557797Y-105290280D01*
X110557797Y-102930280D02*
X110557797Y-102790280D01*
X111977797Y-102930280D02*
X111977797Y-102790280D01*
G04 #@! TO.C,C4*
X110666000Y-123474000D02*
X109246000Y-123474000D01*
X110666000Y-121114000D02*
X110666000Y-123334000D01*
X109246000Y-120974000D02*
X110666000Y-120974000D01*
X109246000Y-123334000D02*
X109246000Y-121114000D01*
X110666000Y-123334000D02*
X110666000Y-123474000D01*
X109246000Y-123334000D02*
X109246000Y-123474000D01*
X109246000Y-121114000D02*
X109246000Y-120974000D01*
X110666000Y-121114000D02*
X110666000Y-120974000D01*
G04 #@! TO.C,IC3*
X181928000Y-123515000D02*
X181928000Y-119865000D01*
X181928000Y-119865000D02*
X186128000Y-119865000D01*
X186128000Y-119865000D02*
X186128000Y-123515000D01*
X186128000Y-123515000D02*
X181928000Y-123515000D01*
G04 #@! TO.C,R1*
X129242999Y-117651751D02*
X127382999Y-117651751D01*
X129242999Y-116711751D02*
X129242999Y-117651751D01*
X127382999Y-116711751D02*
X129242999Y-116711751D01*
X127382999Y-117651751D02*
X127382999Y-116711751D01*
G04 #@! TO.C,R2*
X129242999Y-119263501D02*
X127382999Y-119263501D01*
X129242999Y-118323501D02*
X129242999Y-119263501D01*
X127382999Y-118323501D02*
X129242999Y-118323501D01*
X127382999Y-119263501D02*
X127382999Y-118323501D01*
G04 #@! TO.C,R3*
X129242999Y-120875251D02*
X127382999Y-120875251D01*
X129242999Y-119935251D02*
X129242999Y-120875251D01*
X127382999Y-119935251D02*
X129242999Y-119935251D01*
X127382999Y-120875251D02*
X127382999Y-119935251D01*
G04 #@! TO.C,R4*
X129242999Y-122487001D02*
X127382999Y-122487001D01*
X129242999Y-121547001D02*
X129242999Y-122487001D01*
X127382999Y-121547001D02*
X129242999Y-121547001D01*
X127382999Y-122487001D02*
X127382999Y-121547001D01*
G04 #@! TO.C,R5*
X129200000Y-123914000D02*
X127340000Y-123914000D01*
X129200000Y-122974000D02*
X129200000Y-123914000D01*
X127340000Y-122974000D02*
X129200000Y-122974000D01*
X127340000Y-123914000D02*
X127340000Y-122974000D01*
G04 #@! TO.C,Q1*
X183339900Y-102108000D02*
X186989900Y-102108000D01*
X183339900Y-102108000D02*
X183339900Y-106008000D01*
X186989900Y-106008000D02*
X183339900Y-106008000D01*
X186989900Y-102108000D02*
X186989900Y-106008000D01*
G04 #@! TO.C,U4*
X170202500Y-113836000D02*
X170202500Y-109736000D01*
X170202500Y-109736000D02*
X166402500Y-109736000D01*
X166402500Y-109736000D02*
X166402500Y-113836000D01*
X166402500Y-113836000D02*
X170202500Y-113836000D01*
G04 #@! TO.C,U3*
X130260000Y-109200000D02*
X126460000Y-109200000D01*
X130260000Y-113300000D02*
X130260000Y-109200000D01*
X126460000Y-113300000D02*
X130260000Y-113300000D01*
X126460000Y-109200000D02*
X126460000Y-113300000D01*
G04 #@! TO.C,L2*
X171150000Y-111180000D02*
X174950000Y-111180000D01*
X171150000Y-109320000D02*
X174950000Y-109320000D01*
X174950000Y-111180000D02*
X174950000Y-109320000D01*
X171150000Y-111180000D02*
X171150000Y-109320000D01*
G04 #@! TO.C,L1*
X171420000Y-118440000D02*
X171420000Y-116580000D01*
X175220000Y-118440000D02*
X175220000Y-116580000D01*
X171420000Y-116580000D02*
X175220000Y-116580000D01*
X171420000Y-118440000D02*
X175220000Y-118440000D01*
G04 #@! TO.C,L3*
X171125000Y-115880000D02*
X174925000Y-115880000D01*
X171125000Y-114020000D02*
X174925000Y-114020000D01*
X174925000Y-115880000D02*
X174925000Y-114020000D01*
X171125000Y-115880000D02*
X171125000Y-114020000D01*
G04 #@! TO.C,L4*
X101710000Y-118680000D02*
X101710000Y-116820000D01*
X105510000Y-118680000D02*
X105510000Y-116820000D01*
X101710000Y-116820000D02*
X105510000Y-116820000D01*
X101710000Y-118680000D02*
X105510000Y-118680000D01*
G04 #@! TO.C,L5*
X100725000Y-111405000D02*
X104525000Y-111405000D01*
X100725000Y-109545000D02*
X104525000Y-109545000D01*
X104525000Y-111405000D02*
X104525000Y-109545000D01*
X100725000Y-111405000D02*
X100725000Y-109545000D01*
G04 #@! TO.C,L6*
X101710000Y-116060000D02*
X101710000Y-114200000D01*
X105510000Y-116060000D02*
X105510000Y-114200000D01*
X101710000Y-114200000D02*
X105510000Y-114200000D01*
X101710000Y-116060000D02*
X105510000Y-116060000D01*
G04 #@! TO.C,C25*
X123510000Y-109730000D02*
X123650000Y-109730000D01*
X123510000Y-108310000D02*
X123650000Y-108310000D01*
X121290000Y-108310000D02*
X121150000Y-108310000D01*
X121290000Y-109730000D02*
X121150000Y-109730000D01*
X121290000Y-108310000D02*
X123510000Y-108310000D01*
X123650000Y-108310000D02*
X123650000Y-109730000D01*
X123510000Y-109730000D02*
X121290000Y-109730000D01*
X121150000Y-109730000D02*
X121150000Y-108310000D01*
G04 #@! TO.C,C35*
X118400000Y-109270000D02*
X118400000Y-107850000D01*
X120760000Y-109270000D02*
X118540000Y-109270000D01*
X120900000Y-107850000D02*
X120900000Y-109270000D01*
X118540000Y-107850000D02*
X120760000Y-107850000D01*
X118540000Y-109270000D02*
X118400000Y-109270000D01*
X118540000Y-107850000D02*
X118400000Y-107850000D01*
X120760000Y-107850000D02*
X120900000Y-107850000D01*
X120760000Y-109270000D02*
X120900000Y-109270000D01*
G04 #@! TO.C,C33*
X186820000Y-106732000D02*
X186820000Y-108152000D01*
X184460000Y-106732000D02*
X186680000Y-106732000D01*
X184320000Y-108152000D02*
X184320000Y-106732000D01*
X186680000Y-108152000D02*
X184460000Y-108152000D01*
X186680000Y-106732000D02*
X186820000Y-106732000D01*
X186680000Y-108152000D02*
X186820000Y-108152000D01*
X184460000Y-108152000D02*
X184320000Y-108152000D01*
X184460000Y-106732000D02*
X184320000Y-106732000D01*
G04 #@! TO.C,C24*
X122210000Y-113260000D02*
X122350000Y-113260000D01*
X122210000Y-111840000D02*
X122350000Y-111840000D01*
X119990000Y-111840000D02*
X119850000Y-111840000D01*
X119990000Y-113260000D02*
X119850000Y-113260000D01*
X119990000Y-111840000D02*
X122210000Y-111840000D01*
X122350000Y-111840000D02*
X122350000Y-113260000D01*
X122210000Y-113260000D02*
X119990000Y-113260000D01*
X119850000Y-113260000D02*
X119850000Y-111840000D01*
G04 #@! TO.C,C27*
X107680000Y-119190000D02*
X106260000Y-119190000D01*
X107680000Y-116830000D02*
X107680000Y-119050000D01*
X106260000Y-116690000D02*
X107680000Y-116690000D01*
X106260000Y-119050000D02*
X106260000Y-116830000D01*
X107680000Y-119050000D02*
X107680000Y-119190000D01*
X106260000Y-119050000D02*
X106260000Y-119190000D01*
X106260000Y-116830000D02*
X106260000Y-116690000D01*
X107680000Y-116830000D02*
X107680000Y-116690000D01*
G04 #@! TO.C,C28*
X107585000Y-110735000D02*
X107725000Y-110735000D01*
X107585000Y-109315000D02*
X107725000Y-109315000D01*
X105365000Y-109315000D02*
X105225000Y-109315000D01*
X105365000Y-110735000D02*
X105225000Y-110735000D01*
X105365000Y-109315000D02*
X107585000Y-109315000D01*
X107725000Y-109315000D02*
X107725000Y-110735000D01*
X107585000Y-110735000D02*
X105365000Y-110735000D01*
X105225000Y-110735000D02*
X105225000Y-109315000D01*
G04 #@! TO.C,C36*
X107660000Y-116650000D02*
X106240000Y-116650000D01*
X107660000Y-114290000D02*
X107660000Y-116510000D01*
X106240000Y-114150000D02*
X107660000Y-114150000D01*
X106240000Y-116510000D02*
X106240000Y-114290000D01*
X107660000Y-116510000D02*
X107660000Y-116650000D01*
X106240000Y-116510000D02*
X106240000Y-116650000D01*
X106240000Y-114290000D02*
X106240000Y-114150000D01*
X107660000Y-114290000D02*
X107660000Y-114150000D01*
G04 #@! TO.C,C38*
X122210000Y-111785000D02*
X122350000Y-111785000D01*
X122210000Y-110365000D02*
X122350000Y-110365000D01*
X119990000Y-110365000D02*
X119850000Y-110365000D01*
X119990000Y-111785000D02*
X119850000Y-111785000D01*
X119990000Y-110365000D02*
X122210000Y-110365000D01*
X122350000Y-110365000D02*
X122350000Y-111785000D01*
X122210000Y-111785000D02*
X119990000Y-111785000D01*
X119850000Y-111785000D02*
X119850000Y-110365000D01*
G04 #@! TO.C,C12*
X177730000Y-118069738D02*
X176310000Y-118069738D01*
X177730000Y-115709738D02*
X177730000Y-117929738D01*
X176310000Y-115569738D02*
X177730000Y-115569738D01*
X176310000Y-117929738D02*
X176310000Y-115709738D01*
X177730000Y-117929738D02*
X177730000Y-118069738D01*
X176310000Y-117929738D02*
X176310000Y-118069738D01*
X176310000Y-115709738D02*
X176310000Y-115569738D01*
X177730000Y-115709738D02*
X177730000Y-115569738D01*
G04 #@! TO.C,C7*
X192075000Y-115084281D02*
X192215000Y-115084281D01*
X192075000Y-113664281D02*
X192215000Y-113664281D01*
X189855000Y-113664281D02*
X189715000Y-113664281D01*
X189855000Y-115084281D02*
X189715000Y-115084281D01*
X189855000Y-113664281D02*
X192075000Y-113664281D01*
X192215000Y-113664281D02*
X192215000Y-115084281D01*
X192075000Y-115084281D02*
X189855000Y-115084281D01*
X189715000Y-115084281D02*
X189715000Y-113664281D01*
G04 #@! TO.C,C10*
X189715000Y-109755000D02*
X189715000Y-108335000D01*
X192075000Y-109755000D02*
X189855000Y-109755000D01*
X192215000Y-108335000D02*
X192215000Y-109755000D01*
X189855000Y-108335000D02*
X192075000Y-108335000D01*
X189855000Y-109755000D02*
X189715000Y-109755000D01*
X189855000Y-108335000D02*
X189715000Y-108335000D01*
X192075000Y-108335000D02*
X192215000Y-108335000D01*
X192075000Y-109755000D02*
X192215000Y-109755000D01*
G04 #@! TO.C,C13*
X177730000Y-108750000D02*
X177730000Y-108610000D01*
X176310000Y-108750000D02*
X176310000Y-108610000D01*
X176310000Y-110970000D02*
X176310000Y-111110000D01*
X177730000Y-110970000D02*
X177730000Y-111110000D01*
X176310000Y-110970000D02*
X176310000Y-108750000D01*
X176310000Y-108610000D02*
X177730000Y-108610000D01*
X177730000Y-108750000D02*
X177730000Y-110970000D01*
X177730000Y-111110000D02*
X176310000Y-111110000D01*
G04 #@! TO.C,C22*
X119775000Y-114835000D02*
X119775000Y-113415000D01*
X122135000Y-114835000D02*
X119915000Y-114835000D01*
X122275000Y-113415000D02*
X122275000Y-114835000D01*
X119915000Y-113415000D02*
X122135000Y-113415000D01*
X119915000Y-114835000D02*
X119775000Y-114835000D01*
X119915000Y-113415000D02*
X119775000Y-113415000D01*
X122135000Y-113415000D02*
X122275000Y-113415000D01*
X122135000Y-114835000D02*
X122275000Y-114835000D01*
G04 #@! TO.C,C18*
X179160000Y-112265000D02*
X179160000Y-112125000D01*
X177740000Y-112265000D02*
X177740000Y-112125000D01*
X177740000Y-114485000D02*
X177740000Y-114625000D01*
X179160000Y-114485000D02*
X179160000Y-114625000D01*
X177740000Y-114485000D02*
X177740000Y-112265000D01*
X177740000Y-112125000D02*
X179160000Y-112125000D01*
X179160000Y-112265000D02*
X179160000Y-114485000D01*
X179160000Y-114625000D02*
X177740000Y-114625000D01*
G04 #@! TO.C,C19*
X189715000Y-116860710D02*
X189715000Y-115440710D01*
X192075000Y-116860710D02*
X189855000Y-116860710D01*
X192215000Y-115440710D02*
X192215000Y-116860710D01*
X189855000Y-115440710D02*
X192075000Y-115440710D01*
X189855000Y-116860710D02*
X189715000Y-116860710D01*
X189855000Y-115440710D02*
X189715000Y-115440710D01*
X192075000Y-115440710D02*
X192215000Y-115440710D01*
X192075000Y-116860710D02*
X192215000Y-116860710D01*
G04 #@! TO.C,C21*
X192045000Y-111531427D02*
X192185000Y-111531427D01*
X192045000Y-110111427D02*
X192185000Y-110111427D01*
X189825000Y-110111427D02*
X189685000Y-110111427D01*
X189825000Y-111531427D02*
X189685000Y-111531427D01*
X189825000Y-110111427D02*
X192045000Y-110111427D01*
X192185000Y-110111427D02*
X192185000Y-111531427D01*
X192045000Y-111531427D02*
X189825000Y-111531427D01*
X189685000Y-111531427D02*
X189685000Y-110111427D01*
G04 #@! TO.C,C8*
X189695000Y-113307854D02*
X189695000Y-111887854D01*
X192055000Y-113307854D02*
X189835000Y-113307854D01*
X192195000Y-111887854D02*
X192195000Y-113307854D01*
X189835000Y-111887854D02*
X192055000Y-111887854D01*
X189835000Y-113307854D02*
X189695000Y-113307854D01*
X189835000Y-111887854D02*
X189695000Y-111887854D01*
X192055000Y-111887854D02*
X192195000Y-111887854D01*
X192055000Y-113307854D02*
X192195000Y-113307854D01*
G04 #@! TO.C,R7*
X174819000Y-108214000D02*
X174819000Y-109154000D01*
X174819000Y-109154000D02*
X172959000Y-109154000D01*
X172959000Y-109154000D02*
X172959000Y-108214000D01*
X172959000Y-108214000D02*
X174819000Y-108214000D01*
G04 #@! TO.C,R20*
X178622500Y-107956000D02*
X178622500Y-107016000D01*
X178622500Y-107016000D02*
X180482500Y-107016000D01*
X180482500Y-107016000D02*
X180482500Y-107956000D01*
X180482500Y-107956000D02*
X178622500Y-107956000D01*
G04 #@! TO.C,R19*
X188016000Y-105788000D02*
X188016000Y-103928000D01*
X188956000Y-105788000D02*
X188016000Y-105788000D01*
X188956000Y-103928000D02*
X188956000Y-105788000D01*
X188016000Y-103928000D02*
X188956000Y-103928000D01*
G04 #@! TO.C,R9*
X189192000Y-118714000D02*
X188252000Y-118714000D01*
X188252000Y-118714000D02*
X188252000Y-116854000D01*
X188252000Y-116854000D02*
X189192000Y-116854000D01*
X189192000Y-116854000D02*
X189192000Y-118714000D01*
G04 #@! TO.C,R10*
X183378902Y-116854000D02*
X183378902Y-118714000D01*
X182438902Y-116854000D02*
X183378902Y-116854000D01*
X182438902Y-118714000D02*
X182438902Y-116854000D01*
X183378902Y-118714000D02*
X182438902Y-118714000D01*
G04 #@! TO.C,R11*
X180985628Y-116854000D02*
X181925628Y-116854000D01*
X181925628Y-116854000D02*
X181925628Y-118714000D01*
X181925628Y-118714000D02*
X180985628Y-118714000D01*
X180985628Y-118714000D02*
X180985628Y-116854000D01*
G04 #@! TO.C,R18*
X180886000Y-105578000D02*
X180886000Y-103718000D01*
X181826000Y-105578000D02*
X180886000Y-105578000D01*
X181826000Y-103718000D02*
X181826000Y-105578000D01*
X180886000Y-103718000D02*
X181826000Y-103718000D01*
G04 #@! TO.C,R13*
X119596000Y-118710000D02*
X118656000Y-118710000D01*
X118656000Y-118710000D02*
X118656000Y-116850000D01*
X118656000Y-116850000D02*
X119596000Y-116850000D01*
X119596000Y-116850000D02*
X119596000Y-118710000D01*
G04 #@! TO.C,R15*
X111544000Y-116850000D02*
X112484000Y-116850000D01*
X112484000Y-116850000D02*
X112484000Y-118710000D01*
X112484000Y-118710000D02*
X111544000Y-118710000D01*
X111544000Y-118710000D02*
X111544000Y-116850000D01*
G04 #@! TO.C,R16*
X103192000Y-108562000D02*
X105052000Y-108562000D01*
X103192000Y-109502000D02*
X103192000Y-108562000D01*
X105052000Y-109502000D02*
X103192000Y-109502000D01*
X105052000Y-108562000D02*
X105052000Y-109502000D01*
G04 #@! TO.C,R17*
X103182000Y-107752000D02*
X103182000Y-106812000D01*
X103182000Y-106812000D02*
X105042000Y-106812000D01*
X105042000Y-106812000D02*
X105042000Y-107752000D01*
X105042000Y-107752000D02*
X103182000Y-107752000D01*
G04 #@! TO.C,R8*
X174886150Y-107524000D02*
X173026150Y-107524000D01*
X174886150Y-106584000D02*
X174886150Y-107524000D01*
X173026150Y-106584000D02*
X174886150Y-106584000D01*
X173026150Y-107524000D02*
X173026150Y-106584000D01*
G04 #@! TO.C,C37*
X109620000Y-115570000D02*
X108680000Y-115570000D01*
X108680000Y-115570000D02*
X108680000Y-113710000D01*
X108680000Y-113710000D02*
X109620000Y-113710000D01*
X109620000Y-113710000D02*
X109620000Y-115570000D01*
G04 #@! TO.C,C9*
X183892176Y-118714000D02*
X183892176Y-116854000D01*
X184832176Y-118714000D02*
X183892176Y-118714000D01*
X184832176Y-116854000D02*
X184832176Y-118714000D01*
X183892176Y-116854000D02*
X184832176Y-116854000D01*
G04 #@! TO.C,C32*
X115811200Y-116850000D02*
X116751200Y-116850000D01*
X116751200Y-116850000D02*
X116751200Y-118710000D01*
X116751200Y-118710000D02*
X115811200Y-118710000D01*
X115811200Y-118710000D02*
X115811200Y-116850000D01*
G04 #@! TO.C,C31*
X117233600Y-118710000D02*
X117233600Y-116850000D01*
X118173600Y-118710000D02*
X117233600Y-118710000D01*
X118173600Y-116850000D02*
X118173600Y-118710000D01*
X117233600Y-116850000D02*
X118173600Y-116850000D01*
G04 #@! TO.C,C20*
X180195000Y-114430000D02*
X179255000Y-114430000D01*
X179255000Y-114430000D02*
X179255000Y-112570000D01*
X179255000Y-112570000D02*
X180195000Y-112570000D01*
X180195000Y-112570000D02*
X180195000Y-114430000D01*
G04 #@! TO.C,C30*
X109620000Y-110200000D02*
X109620000Y-112060000D01*
X108680000Y-110200000D02*
X109620000Y-110200000D01*
X108680000Y-112060000D02*
X108680000Y-110200000D01*
X109620000Y-112060000D02*
X108680000Y-112060000D01*
G04 #@! TO.C,C29*
X109620000Y-119090000D02*
X108680000Y-119090000D01*
X108680000Y-119090000D02*
X108680000Y-117230000D01*
X108680000Y-117230000D02*
X109620000Y-117230000D01*
X109620000Y-117230000D02*
X109620000Y-119090000D01*
G04 #@! TO.C,C17*
X185345450Y-118714000D02*
X185345450Y-116854000D01*
X186285450Y-118714000D02*
X185345450Y-118714000D01*
X186285450Y-116854000D02*
X186285450Y-118714000D01*
X185345450Y-116854000D02*
X186285450Y-116854000D01*
G04 #@! TO.C,C23*
X114388800Y-118710000D02*
X114388800Y-116850000D01*
X115328800Y-118710000D02*
X114388800Y-118710000D01*
X115328800Y-116850000D02*
X115328800Y-118710000D01*
X114388800Y-116850000D02*
X115328800Y-116850000D01*
G04 #@! TO.C,C14*
X179763525Y-117969738D02*
X178823525Y-117969738D01*
X178823525Y-117969738D02*
X178823525Y-116109738D01*
X178823525Y-116109738D02*
X179763525Y-116109738D01*
X179763525Y-116109738D02*
X179763525Y-117969738D01*
G04 #@! TO.C,C15*
X179763525Y-109120000D02*
X179763525Y-110980000D01*
X178823525Y-109120000D02*
X179763525Y-109120000D01*
X178823525Y-110980000D02*
X178823525Y-109120000D01*
X179763525Y-110980000D02*
X178823525Y-110980000D01*
G04 #@! TO.C,C34*
X109380000Y-105970000D02*
X109240000Y-105970000D01*
X109380000Y-107390000D02*
X109240000Y-107390000D01*
X111600000Y-107390000D02*
X111740000Y-107390000D01*
X111600000Y-105970000D02*
X111740000Y-105970000D01*
X111600000Y-107390000D02*
X109380000Y-107390000D01*
X109240000Y-107390000D02*
X109240000Y-105970000D01*
X109380000Y-105970000D02*
X111600000Y-105970000D01*
X111740000Y-105970000D02*
X111740000Y-107390000D01*
G04 #@! TO.C,IC2*
X112767797Y-105615280D02*
X112767797Y-101965280D01*
X112767797Y-101965280D02*
X116967797Y-101965280D01*
X116967797Y-101965280D02*
X116967797Y-105615280D01*
X116967797Y-105615280D02*
X112767797Y-105615280D01*
G04 #@! TO.C,C16*
X186798724Y-116854000D02*
X187738724Y-116854000D01*
X187738724Y-116854000D02*
X187738724Y-118714000D01*
X187738724Y-118714000D02*
X186798724Y-118714000D01*
X186798724Y-118714000D02*
X186798724Y-116854000D01*
G04 #@! TO.C,R14*
X113906400Y-116850000D02*
X113906400Y-118710000D01*
X112966400Y-116850000D02*
X113906400Y-116850000D01*
X112966400Y-118710000D02*
X112966400Y-116850000D01*
X113906400Y-118710000D02*
X112966400Y-118710000D01*
G04 #@! TO.C,R21*
X109982500Y-108656000D02*
X108122500Y-108656000D01*
X109982500Y-107716000D02*
X109982500Y-108656000D01*
X108122500Y-107716000D02*
X109982500Y-107716000D01*
X108122500Y-108656000D02*
X108122500Y-107716000D01*
G04 #@! TO.C,Y2*
X117410000Y-110410000D02*
X117410000Y-114660000D01*
X112110000Y-110410000D02*
X117410000Y-110410000D01*
X112110000Y-114660000D02*
X112110000Y-110410000D01*
X117410000Y-114660000D02*
X112110000Y-114660000D01*
G04 #@! TO.C,Y1*
X187422500Y-114636000D02*
X182122500Y-114636000D01*
X182122500Y-114636000D02*
X182122500Y-110386000D01*
X182122500Y-110386000D02*
X187422500Y-110386000D01*
X187422500Y-110386000D02*
X187422500Y-114636000D01*
G04 #@! TD*
M02*
