M48
;DRILL file {KiCad 5.0.2+dfsg1-1~bpo9+1} date Tue 08 Oct 2019 06:25:58 PM CEST
;FORMAT={-:-/ absolute / metric / decimal}
FMAT,2
METRIC,TZ
T1C0.150
T2C3.000
%
G90
G05
T1
X101.47Y-117.75
X102.275Y-113.85
X102.675Y-110.45
X102.786Y-108.32
X103.025Y-113.05
X103.675Y-111.7
X103.685Y-117.75
X103.725Y-108.15
X105.Y-110.25
X106.75Y-108.9
X106.95Y-115.425
X106.952Y-117.886
X108.05Y-116.45
X108.075Y-110.
X108.25Y-123.75
X108.352Y-111.686
X108.352Y-118.086
X108.802Y-106.68
X109.175Y-109.592
X110.052Y-112.686
X110.102Y-104.736
X110.21Y-119.44
X110.562Y-111.476
X110.652Y-109.286
X110.852Y-114.686
X111.002Y-115.686
X111.15Y-121.55
X111.15Y-123.85
X111.252Y-102.386
X111.442Y-113.29
X111.456Y-110.783
X111.462Y-114.02
X111.652Y-109.786
X111.953Y-114.986
X112.002Y-119.011
X112.453Y-107.986
X112.472Y-109.936
X112.752Y-106.035
X113.152Y-114.986
X113.262Y-109.866
X113.552Y-118.986
X113.99Y-106.27
X114.152Y-115.836
X114.152Y-122.936
X114.57Y-106.76
X114.58Y-107.47
X114.9Y-102.1
X114.953Y-118.986
X115.046Y-115.836
X115.16Y-107.96
X115.171Y-109.268
X115.652Y-114.886
X115.992Y-109.996
X116.281Y-116.156
X117.052Y-118.486
X117.062Y-115.986
X117.252Y-108.086
X117.652Y-110.586
X117.704Y-115.54
X118.052Y-109.386
X118.483Y-113.276
X118.752Y-110.286
X118.953Y-111.386
X119.042Y-113.926
X119.102Y-120.986
X119.126Y-116.486
X119.302Y-123.136
X119.352Y-109.586
X119.453Y-114.886
X119.5Y-112.325
X119.713Y-111.325
X119.872Y-113.286
X120.35Y-109.36
X120.402Y-104.536
X120.52Y-115.49
X121.16Y-104.95
X121.17Y-105.67
X121.552Y-102.086
X121.7Y-114.95
X121.75Y-113.325
X121.8Y-111.8
X122.02Y-117.38
X122.652Y-118.386
X123.052Y-109.886
X124.43Y-114.51
X125.052Y-103.886
X125.24Y-116.79
X125.7Y-111.
X125.75Y-110.25
X126.652Y-115.186
X126.802Y-123.436
X126.852Y-108.186
X127.252Y-104.186
X128.102Y-114.036
X128.653Y-101.786
X128.653Y-108.386
X130.153Y-108.286
X132.275Y-119.075
X132.575Y-116.45
X138.052Y-120.736
X138.653Y-121.436
X145.752Y-116.486
X146.252Y-117.286
X146.75Y-118.18
X147.752Y-120.986
X149.252Y-120.986
X153.752Y-121.086
X155.252Y-121.136
X156.752Y-121.136
X158.252Y-121.136
X160.86Y-108.09
X161.38Y-108.63
X162.71Y-108.86
X163.07Y-113.28
X163.23Y-109.4
X164.066Y-113.709
X165.46Y-111.78
X166.3Y-106.61
X166.3Y-107.4
X168.052Y-122.386
X168.352Y-105.436
X169.Y-118.9
X169.552Y-109.986
X170.71Y-111.
X170.752Y-118.186
X170.752Y-112.786
X170.9Y-109.5
X172.28Y-118.76
X172.525Y-105.75
X173.08Y-113.22
X173.103Y-112.186
X173.125Y-109.725
X175.28Y-113.42
X175.425Y-109.875
X175.452Y-110.586
X175.502Y-118.936
X175.525Y-114.175
X175.6Y-115.3
X177.03Y-109.84
X177.05Y-114.75
X177.12Y-119.
X177.352Y-101.186
X177.776Y-111.199
X177.89Y-116.486
X177.925Y-111.95
X178.3Y-109.8
X178.352Y-105.286
X178.353Y-121.686
X178.462Y-110.573
X178.5Y-111.6
X178.9Y-118.43
X179.128Y-121.24
X179.15Y-114.025
X179.653Y-111.324
X179.938Y-115.671
X180.202Y-105.136
X180.452Y-113.286
X180.452Y-114.686
X180.928Y-110.061
X180.949Y-112.112
X181.153Y-110.986
X181.177Y-116.561
X181.252Y-115.186
X181.46Y-114.02
X181.7Y-110.1
X182.071Y-116.583
X182.153Y-119.186
X182.447Y-109.938
X182.752Y-116.586
X183.14Y-110.02
X183.552Y-114.886
X184.028Y-123.59
X184.052Y-116.286
X185.052Y-116.386
X185.077Y-114.986
X185.102Y-109.972
X185.62Y-109.207
X185.752Y-104.986
X186.052Y-116.486
X186.187Y-119.18
X186.552Y-121.636
X186.752Y-116.486
X187.269Y-115.786
X187.545Y-109.68
X187.602Y-106.286
X187.752Y-111.586
X187.852Y-121.586
X187.88Y-123.99
X187.952Y-110.886
X188.19Y-113.32
X188.653Y-109.186
X188.703Y-111.286
X188.78Y-114.397
X188.921Y-113.033
X189.353Y-116.668
X189.43Y-115.3
X189.502Y-111.386
X189.653Y-112.536
X189.752Y-104.086
X189.752Y-105.036
X190.153Y-122.586
X191.727Y-109.986
X191.727Y-111.786
X191.727Y-113.586
X191.727Y-115.286
X191.727Y-117.086
T2
X103.Y-103.
X197.Y-122.
X197.Y-103.
X103.Y-122.
T0
M30
