M48
;DRILL file {KiCad 5.0.2+dfsg1-1~bpo9+1} date Wed 11 Sep 2019 09:46:51 AM CEST
;FORMAT={-:-/ absolute / metric / decimal}
FMAT,2
METRIC,TZ
T1C0.200
T2C0.250
T3C2.500
%
G90
G05
T1
X156.06Y-117.11
X156.06Y-117.71
X158.24Y-117.19
X158.24Y-117.79
X165.29Y-106.88
X165.29Y-107.48
X181.44Y-113.29
X181.46Y-114.02
X181.56Y-111.79
X181.76Y-110.36
X182.27Y-114.98
X182.43Y-109.94
X183.06Y-115.24
X183.14Y-110.02
X183.79Y-115.1
X184.26Y-115.89
X185.07Y-109.96
X185.86Y-109.54
X186.19Y-115.97
X186.87Y-109.54
X186.88Y-115.46
X186.99Y-114.82
X187.68Y-111.63
X187.7Y-110.97
X187.71Y-110.18
X187.73Y-114.66
X187.88Y-113.29
X188.51Y-113.19
T2
X118.72Y-103.13
X124.12Y-108.18
X131.12Y-107.23
X131.97Y-104.73
X131.97Y-108.43
X171.42Y-102.77
X176.02Y-104.02
X180.19Y-103.65
X185.09Y-102.1
X185.09Y-106.
X191.24Y-102.95
T3
X103.Y-103.
X103.Y-122.
X197.Y-103.
X197.Y-122.
T0
M30
