G04 #@! TF.GenerationSoftware,KiCad,Pcbnew,5.0.2+dfsg1-1~bpo9+1*
G04 #@! TF.CreationDate,2019-09-20T17:36:01+02:00*
G04 #@! TF.ProjectId,OV9281,4f563932-3831-42e6-9b69-6361645f7063,rev?*
G04 #@! TF.SameCoordinates,Original*
G04 #@! TF.FileFunction,Copper,L2,Inr*
G04 #@! TF.FilePolarity,Positive*
%FSLAX46Y46*%
G04 Gerber Fmt 4.6, Leading zero omitted, Abs format (unit mm)*
G04 Created by KiCad (PCBNEW 5.0.2+dfsg1-1~bpo9+1) date Fri 20 Sep 2019 05:36:01 PM CEST*
%MOMM*%
%LPD*%
G01*
G04 APERTURE LIST*
G04 #@! TA.AperFunction,ViaPad*
%ADD10C,0.550000*%
G04 #@! TD*
G04 #@! TA.AperFunction,Conductor*
%ADD11C,0.254000*%
G04 #@! TD*
G04 APERTURE END LIST*
D10*
G04 #@! TO.N,GND*
X190178000Y-120540000D03*
X184028000Y-123590000D03*
X119302500Y-123136000D03*
X108802500Y-106680000D03*
X111252500Y-102386000D03*
X120402500Y-104536000D03*
X112002500Y-119010990D03*
X128102500Y-114036000D03*
X158252500Y-121136000D03*
X156752500Y-121136000D03*
X155252500Y-121136000D03*
X153752500Y-121086000D03*
X149252500Y-120986000D03*
X147752500Y-120986000D03*
X181452500Y-119136000D03*
X179128000Y-121240000D03*
X169552500Y-109986000D03*
X180202500Y-105136000D03*
X106852502Y-123086000D03*
X112952500Y-107586000D03*
X105659361Y-122944832D03*
X185552500Y-105285998D03*
G04 #@! TO.N,+3V3*
X119102500Y-120986000D03*
X114152500Y-122936000D03*
X126802500Y-123436000D03*
X138052500Y-120736000D03*
X138652500Y-121436000D03*
X190152500Y-122586000D03*
X168052500Y-122385998D03*
X186552500Y-121636000D03*
X128652500Y-108386000D03*
X121152500Y-101486000D03*
X128652500Y-101585994D03*
G04 #@! TO.N,+2V8*
X173352500Y-111936000D03*
X102521736Y-113785335D03*
X101452500Y-114886000D03*
G04 #@! TO.N,+1V8*
X112752500Y-106034577D03*
X110102500Y-104736000D03*
X188502500Y-103086000D03*
X189752500Y-105036000D03*
X172552500Y-105336000D03*
X168352500Y-105436000D03*
X187602494Y-106286000D03*
X126852500Y-108186000D03*
X117252500Y-108086000D03*
X102352500Y-107886000D03*
G04 #@! TO.N,+1V2*
X102552500Y-117286000D03*
X175502500Y-118936000D03*
X170452500Y-117486000D03*
G04 #@! TO.N,/CAM_L_D1_P*
X165532500Y-106926000D03*
G04 #@! TO.N,/CAM_L_D1_N*
X165942500Y-107646000D03*
G04 #@! TO.N,/CAM_R_D1_N*
X125102500Y-104996000D03*
G04 #@! TO.N,/CAM_R_D1_P*
X125112500Y-105736000D03*
G04 #@! TO.N,/CAM_L_CLK_P*
X156012500Y-117836000D03*
G04 #@! TO.N,/CAM_L_CLK_N*
X156022500Y-116966000D03*
G04 #@! TO.N,/CAM_R_CLK_N*
X114542500Y-107546000D03*
G04 #@! TO.N,/CAM_R_CLK_P*
X115042500Y-108136000D03*
G04 #@! TO.N,/CAM_L_D0_N*
X158242500Y-117056000D03*
G04 #@! TO.N,/CAM_L_D0_P*
X158212500Y-117916000D03*
G04 #@! TO.N,/CAM_R_D0_N*
X114102500Y-106266000D03*
G04 #@! TO.N,/CAM_R_D0_P*
X114632500Y-106836000D03*
G04 #@! TO.N,/M1_DOVDD*
X186990000Y-114820000D03*
X183140000Y-110020000D03*
X180225000Y-112525000D03*
X185619792Y-109207262D03*
G04 #@! TO.N,/M1_AGND*
X187752500Y-111586000D03*
X188190000Y-113320000D03*
X188602500Y-110386000D03*
G04 #@! TO.N,/M1_DVDD*
X183060000Y-115240000D03*
X181760000Y-110360000D03*
X181460000Y-114020000D03*
X188921426Y-113033159D03*
X186172500Y-108596000D03*
X185090009Y-109960000D03*
G04 #@! TO.N,/M1_AVDD*
X187730000Y-114660000D03*
X187952500Y-110886000D03*
X181440000Y-113290000D03*
G04 #@! TO.N,/M1_DGND*
X186822500Y-115596000D03*
X183790000Y-115100000D03*
X182430000Y-109940000D03*
X182270000Y-114980000D03*
X183920000Y-116010000D03*
X181609254Y-111291699D03*
G04 #@! TO.N,/M1_VN3*
X188702520Y-111286000D03*
G04 #@! TO.N,/M1_VH*
X189502500Y-111386000D03*
G04 #@! TO.N,/M1_VN2*
X189652500Y-112536004D03*
G04 #@! TO.N,/M1_SID*
X181025000Y-112036000D03*
G04 #@! TO.N,/M1_MCLK*
X180825000Y-111300000D03*
G04 #@! TO.N,/M1_PVDD*
X185852500Y-115636000D03*
G04 #@! TO.N,/M1_VN1*
X188752500Y-114436000D03*
G04 #@! TO.N,/M2_DOVDD*
X116992500Y-114820000D03*
X113262500Y-109866000D03*
X115992500Y-109996000D03*
X110352521Y-112473811D03*
G04 #@! TO.N,/M2_AGND*
X103852500Y-113686000D03*
X122652500Y-118386000D03*
X118482500Y-113276000D03*
X123052500Y-109885992D03*
X123152500Y-111586000D03*
X123152500Y-113286000D03*
X123152500Y-114985994D03*
X123152500Y-116786000D03*
X101436159Y-113161289D03*
X118234294Y-109767794D03*
G04 #@! TO.N,/M2_DVDD*
X111462500Y-114020000D03*
X113062500Y-115240000D03*
X119872500Y-113286000D03*
X118712500Y-110946000D03*
X115152500Y-109286000D03*
X111652500Y-109786000D03*
X114952500Y-114886000D03*
G04 #@! TO.N,/M2_AVDD*
X117702500Y-110970000D03*
X111442500Y-113290000D03*
X119126000Y-116486002D03*
X108152500Y-115130000D03*
G04 #@! TO.N,/M2_DGND*
X112471751Y-109936215D03*
X109152500Y-109586000D03*
X114952500Y-118986000D03*
X113552500Y-118986000D03*
X106952496Y-117886000D03*
X108352500Y-118086000D03*
X113852500Y-114886000D03*
X117052500Y-118486000D03*
X108052500Y-110186000D03*
X108052502Y-109286000D03*
X117062500Y-115986000D03*
X111456145Y-110782590D03*
G04 #@! TO.N,/M2_VN3*
X118525000Y-111806000D03*
G04 #@! TO.N,/M2_VH*
X120295000Y-110786000D03*
G04 #@! TO.N,/M2_CAM_SCL_1V8*
X111002500Y-115686000D03*
G04 #@! TO.N,/M2_VN2*
X120265000Y-112536000D03*
G04 #@! TO.N,/M2_SID*
X108745000Y-112636000D03*
G04 #@! TO.N,/M2_MCLK_M*
X110562500Y-111476000D03*
G04 #@! TO.N,/M2_PVDD*
X116277500Y-115750000D03*
G04 #@! TO.N,/M2_VN1*
X119042500Y-113926000D03*
G04 #@! TO.N,/M2_CAM_SDA_1V8*
X114352500Y-115536000D03*
G04 #@! TD*
D11*
G04 #@! TO.N,/M2_DGND*
G36*
X114600500Y-109176200D02*
X114600500Y-109395800D01*
X114684537Y-109598683D01*
X114839817Y-109753963D01*
X115042700Y-109838000D01*
X115262300Y-109838000D01*
X115465183Y-109753963D01*
X115516552Y-109702594D01*
X115440500Y-109886200D01*
X115440500Y-110105800D01*
X115524537Y-110308683D01*
X115679817Y-110463963D01*
X115882700Y-110548000D01*
X116102300Y-110548000D01*
X116305183Y-110463963D01*
X116460463Y-110308683D01*
X116544500Y-110105800D01*
X116544500Y-109886200D01*
X116460463Y-109683317D01*
X116305183Y-109528037D01*
X116102300Y-109444000D01*
X115882700Y-109444000D01*
X115679817Y-109528037D01*
X115628448Y-109579406D01*
X115704500Y-109395800D01*
X115704500Y-109176200D01*
X115636900Y-109013000D01*
X117325500Y-109013000D01*
X117325500Y-110566354D01*
X117234537Y-110657317D01*
X117150500Y-110860200D01*
X117150500Y-111079800D01*
X117234537Y-111282683D01*
X117325500Y-111373646D01*
X117325500Y-114372354D01*
X117305183Y-114352037D01*
X117102300Y-114268000D01*
X116882700Y-114268000D01*
X116679817Y-114352037D01*
X116524537Y-114507317D01*
X116440500Y-114710200D01*
X116440500Y-114929800D01*
X116524537Y-115132683D01*
X116679817Y-115287963D01*
X116882700Y-115372000D01*
X117102300Y-115372000D01*
X117305183Y-115287963D01*
X117325500Y-115267646D01*
X117325500Y-119159000D01*
X112538673Y-119159000D01*
X112554500Y-119120790D01*
X112554500Y-118901190D01*
X112470463Y-118698307D01*
X112315183Y-118543027D01*
X112112300Y-118458990D01*
X111892700Y-118458990D01*
X111689817Y-118543027D01*
X111534537Y-118698307D01*
X111450500Y-118901190D01*
X111450500Y-119120790D01*
X111466327Y-119159000D01*
X106479500Y-119159000D01*
X106479500Y-115020200D01*
X107600500Y-115020200D01*
X107600500Y-115239800D01*
X107684537Y-115442683D01*
X107839817Y-115597963D01*
X108042700Y-115682000D01*
X108262300Y-115682000D01*
X108465183Y-115597963D01*
X108486946Y-115576200D01*
X110450500Y-115576200D01*
X110450500Y-115795800D01*
X110534537Y-115998683D01*
X110689817Y-116153963D01*
X110892700Y-116238000D01*
X111112300Y-116238000D01*
X111315183Y-116153963D01*
X111470463Y-115998683D01*
X111554500Y-115795800D01*
X111554500Y-115576200D01*
X111470463Y-115373317D01*
X111315183Y-115218037D01*
X111112300Y-115134000D01*
X110892700Y-115134000D01*
X110689817Y-115218037D01*
X110534537Y-115373317D01*
X110450500Y-115576200D01*
X108486946Y-115576200D01*
X108620463Y-115442683D01*
X108704500Y-115239800D01*
X108704500Y-115130200D01*
X112510500Y-115130200D01*
X112510500Y-115349800D01*
X112594537Y-115552683D01*
X112749817Y-115707963D01*
X112952700Y-115792000D01*
X113172300Y-115792000D01*
X113375183Y-115707963D01*
X113530463Y-115552683D01*
X113582854Y-115426200D01*
X113800500Y-115426200D01*
X113800500Y-115645800D01*
X113884537Y-115848683D01*
X114039817Y-116003963D01*
X114242700Y-116088000D01*
X114462300Y-116088000D01*
X114665183Y-116003963D01*
X114820463Y-115848683D01*
X114904500Y-115645800D01*
X114904500Y-115640200D01*
X115725500Y-115640200D01*
X115725500Y-115859800D01*
X115809537Y-116062683D01*
X115964817Y-116217963D01*
X116167700Y-116302000D01*
X116387300Y-116302000D01*
X116590183Y-116217963D01*
X116745463Y-116062683D01*
X116829500Y-115859800D01*
X116829500Y-115640200D01*
X116745463Y-115437317D01*
X116590183Y-115282037D01*
X116387300Y-115198000D01*
X116167700Y-115198000D01*
X115964817Y-115282037D01*
X115809537Y-115437317D01*
X115725500Y-115640200D01*
X114904500Y-115640200D01*
X114904500Y-115438000D01*
X115062300Y-115438000D01*
X115265183Y-115353963D01*
X115420463Y-115198683D01*
X115504500Y-114995800D01*
X115504500Y-114776200D01*
X115420463Y-114573317D01*
X115265183Y-114418037D01*
X115062300Y-114334000D01*
X114842700Y-114334000D01*
X114639817Y-114418037D01*
X114484537Y-114573317D01*
X114400500Y-114776200D01*
X114400500Y-114984000D01*
X114242700Y-114984000D01*
X114039817Y-115068037D01*
X113884537Y-115223317D01*
X113800500Y-115426200D01*
X113582854Y-115426200D01*
X113614500Y-115349800D01*
X113614500Y-115130200D01*
X113530463Y-114927317D01*
X113375183Y-114772037D01*
X113172300Y-114688000D01*
X112952700Y-114688000D01*
X112749817Y-114772037D01*
X112594537Y-114927317D01*
X112510500Y-115130200D01*
X108704500Y-115130200D01*
X108704500Y-115020200D01*
X108620463Y-114817317D01*
X108465183Y-114662037D01*
X108262300Y-114578000D01*
X108042700Y-114578000D01*
X107839817Y-114662037D01*
X107684537Y-114817317D01*
X107600500Y-115020200D01*
X106479500Y-115020200D01*
X106479500Y-112526200D01*
X108193000Y-112526200D01*
X108193000Y-112745800D01*
X108277037Y-112948683D01*
X108432317Y-113103963D01*
X108635200Y-113188000D01*
X108854800Y-113188000D01*
X108873630Y-113180200D01*
X110890500Y-113180200D01*
X110890500Y-113399800D01*
X110974537Y-113602683D01*
X111036854Y-113665000D01*
X110994537Y-113707317D01*
X110910500Y-113910200D01*
X110910500Y-114129800D01*
X110994537Y-114332683D01*
X111149817Y-114487963D01*
X111352700Y-114572000D01*
X111572300Y-114572000D01*
X111775183Y-114487963D01*
X111930463Y-114332683D01*
X112014500Y-114129800D01*
X112014500Y-113910200D01*
X111930463Y-113707317D01*
X111868146Y-113645000D01*
X111910463Y-113602683D01*
X111994500Y-113399800D01*
X111994500Y-113180200D01*
X111910463Y-112977317D01*
X111755183Y-112822037D01*
X111552300Y-112738000D01*
X111332700Y-112738000D01*
X111129817Y-112822037D01*
X110974537Y-112977317D01*
X110890500Y-113180200D01*
X108873630Y-113180200D01*
X109057683Y-113103963D01*
X109212963Y-112948683D01*
X109297000Y-112745800D01*
X109297000Y-112526200D01*
X109229820Y-112364011D01*
X109800521Y-112364011D01*
X109800521Y-112583611D01*
X109884558Y-112786494D01*
X110039838Y-112941774D01*
X110242721Y-113025811D01*
X110462321Y-113025811D01*
X110665204Y-112941774D01*
X110820484Y-112786494D01*
X110904521Y-112583611D01*
X110904521Y-112364011D01*
X110820484Y-112161128D01*
X110682946Y-112023590D01*
X110875183Y-111943963D01*
X111030463Y-111788683D01*
X111114500Y-111585800D01*
X111114500Y-111366200D01*
X111030463Y-111163317D01*
X110875183Y-111008037D01*
X110672300Y-110924000D01*
X110452700Y-110924000D01*
X110249817Y-111008037D01*
X110094537Y-111163317D01*
X110010500Y-111366200D01*
X110010500Y-111585800D01*
X110094537Y-111788683D01*
X110232075Y-111926221D01*
X110039838Y-112005848D01*
X109884558Y-112161128D01*
X109800521Y-112364011D01*
X109229820Y-112364011D01*
X109212963Y-112323317D01*
X109057683Y-112168037D01*
X108854800Y-112084000D01*
X108635200Y-112084000D01*
X108432317Y-112168037D01*
X108277037Y-112323317D01*
X108193000Y-112526200D01*
X106479500Y-112526200D01*
X106479500Y-109676200D01*
X111100500Y-109676200D01*
X111100500Y-109895800D01*
X111184537Y-110098683D01*
X111339817Y-110253963D01*
X111542700Y-110338000D01*
X111762300Y-110338000D01*
X111965183Y-110253963D01*
X112120463Y-110098683D01*
X112204500Y-109895800D01*
X112204500Y-109756200D01*
X112710500Y-109756200D01*
X112710500Y-109975800D01*
X112794537Y-110178683D01*
X112949817Y-110333963D01*
X113152700Y-110418000D01*
X113372300Y-110418000D01*
X113575183Y-110333963D01*
X113730463Y-110178683D01*
X113814500Y-109975800D01*
X113814500Y-109756200D01*
X113730463Y-109553317D01*
X113575183Y-109398037D01*
X113372300Y-109314000D01*
X113152700Y-109314000D01*
X112949817Y-109398037D01*
X112794537Y-109553317D01*
X112710500Y-109756200D01*
X112204500Y-109756200D01*
X112204500Y-109676200D01*
X112120463Y-109473317D01*
X111965183Y-109318037D01*
X111762300Y-109234000D01*
X111542700Y-109234000D01*
X111339817Y-109318037D01*
X111184537Y-109473317D01*
X111100500Y-109676200D01*
X106479500Y-109676200D01*
X106479500Y-109013000D01*
X114668100Y-109013000D01*
X114600500Y-109176200D01*
X114600500Y-109176200D01*
G37*
X114600500Y-109176200D02*
X114600500Y-109395800D01*
X114684537Y-109598683D01*
X114839817Y-109753963D01*
X115042700Y-109838000D01*
X115262300Y-109838000D01*
X115465183Y-109753963D01*
X115516552Y-109702594D01*
X115440500Y-109886200D01*
X115440500Y-110105800D01*
X115524537Y-110308683D01*
X115679817Y-110463963D01*
X115882700Y-110548000D01*
X116102300Y-110548000D01*
X116305183Y-110463963D01*
X116460463Y-110308683D01*
X116544500Y-110105800D01*
X116544500Y-109886200D01*
X116460463Y-109683317D01*
X116305183Y-109528037D01*
X116102300Y-109444000D01*
X115882700Y-109444000D01*
X115679817Y-109528037D01*
X115628448Y-109579406D01*
X115704500Y-109395800D01*
X115704500Y-109176200D01*
X115636900Y-109013000D01*
X117325500Y-109013000D01*
X117325500Y-110566354D01*
X117234537Y-110657317D01*
X117150500Y-110860200D01*
X117150500Y-111079800D01*
X117234537Y-111282683D01*
X117325500Y-111373646D01*
X117325500Y-114372354D01*
X117305183Y-114352037D01*
X117102300Y-114268000D01*
X116882700Y-114268000D01*
X116679817Y-114352037D01*
X116524537Y-114507317D01*
X116440500Y-114710200D01*
X116440500Y-114929800D01*
X116524537Y-115132683D01*
X116679817Y-115287963D01*
X116882700Y-115372000D01*
X117102300Y-115372000D01*
X117305183Y-115287963D01*
X117325500Y-115267646D01*
X117325500Y-119159000D01*
X112538673Y-119159000D01*
X112554500Y-119120790D01*
X112554500Y-118901190D01*
X112470463Y-118698307D01*
X112315183Y-118543027D01*
X112112300Y-118458990D01*
X111892700Y-118458990D01*
X111689817Y-118543027D01*
X111534537Y-118698307D01*
X111450500Y-118901190D01*
X111450500Y-119120790D01*
X111466327Y-119159000D01*
X106479500Y-119159000D01*
X106479500Y-115020200D01*
X107600500Y-115020200D01*
X107600500Y-115239800D01*
X107684537Y-115442683D01*
X107839817Y-115597963D01*
X108042700Y-115682000D01*
X108262300Y-115682000D01*
X108465183Y-115597963D01*
X108486946Y-115576200D01*
X110450500Y-115576200D01*
X110450500Y-115795800D01*
X110534537Y-115998683D01*
X110689817Y-116153963D01*
X110892700Y-116238000D01*
X111112300Y-116238000D01*
X111315183Y-116153963D01*
X111470463Y-115998683D01*
X111554500Y-115795800D01*
X111554500Y-115576200D01*
X111470463Y-115373317D01*
X111315183Y-115218037D01*
X111112300Y-115134000D01*
X110892700Y-115134000D01*
X110689817Y-115218037D01*
X110534537Y-115373317D01*
X110450500Y-115576200D01*
X108486946Y-115576200D01*
X108620463Y-115442683D01*
X108704500Y-115239800D01*
X108704500Y-115130200D01*
X112510500Y-115130200D01*
X112510500Y-115349800D01*
X112594537Y-115552683D01*
X112749817Y-115707963D01*
X112952700Y-115792000D01*
X113172300Y-115792000D01*
X113375183Y-115707963D01*
X113530463Y-115552683D01*
X113582854Y-115426200D01*
X113800500Y-115426200D01*
X113800500Y-115645800D01*
X113884537Y-115848683D01*
X114039817Y-116003963D01*
X114242700Y-116088000D01*
X114462300Y-116088000D01*
X114665183Y-116003963D01*
X114820463Y-115848683D01*
X114904500Y-115645800D01*
X114904500Y-115640200D01*
X115725500Y-115640200D01*
X115725500Y-115859800D01*
X115809537Y-116062683D01*
X115964817Y-116217963D01*
X116167700Y-116302000D01*
X116387300Y-116302000D01*
X116590183Y-116217963D01*
X116745463Y-116062683D01*
X116829500Y-115859800D01*
X116829500Y-115640200D01*
X116745463Y-115437317D01*
X116590183Y-115282037D01*
X116387300Y-115198000D01*
X116167700Y-115198000D01*
X115964817Y-115282037D01*
X115809537Y-115437317D01*
X115725500Y-115640200D01*
X114904500Y-115640200D01*
X114904500Y-115438000D01*
X115062300Y-115438000D01*
X115265183Y-115353963D01*
X115420463Y-115198683D01*
X115504500Y-114995800D01*
X115504500Y-114776200D01*
X115420463Y-114573317D01*
X115265183Y-114418037D01*
X115062300Y-114334000D01*
X114842700Y-114334000D01*
X114639817Y-114418037D01*
X114484537Y-114573317D01*
X114400500Y-114776200D01*
X114400500Y-114984000D01*
X114242700Y-114984000D01*
X114039817Y-115068037D01*
X113884537Y-115223317D01*
X113800500Y-115426200D01*
X113582854Y-115426200D01*
X113614500Y-115349800D01*
X113614500Y-115130200D01*
X113530463Y-114927317D01*
X113375183Y-114772037D01*
X113172300Y-114688000D01*
X112952700Y-114688000D01*
X112749817Y-114772037D01*
X112594537Y-114927317D01*
X112510500Y-115130200D01*
X108704500Y-115130200D01*
X108704500Y-115020200D01*
X108620463Y-114817317D01*
X108465183Y-114662037D01*
X108262300Y-114578000D01*
X108042700Y-114578000D01*
X107839817Y-114662037D01*
X107684537Y-114817317D01*
X107600500Y-115020200D01*
X106479500Y-115020200D01*
X106479500Y-112526200D01*
X108193000Y-112526200D01*
X108193000Y-112745800D01*
X108277037Y-112948683D01*
X108432317Y-113103963D01*
X108635200Y-113188000D01*
X108854800Y-113188000D01*
X108873630Y-113180200D01*
X110890500Y-113180200D01*
X110890500Y-113399800D01*
X110974537Y-113602683D01*
X111036854Y-113665000D01*
X110994537Y-113707317D01*
X110910500Y-113910200D01*
X110910500Y-114129800D01*
X110994537Y-114332683D01*
X111149817Y-114487963D01*
X111352700Y-114572000D01*
X111572300Y-114572000D01*
X111775183Y-114487963D01*
X111930463Y-114332683D01*
X112014500Y-114129800D01*
X112014500Y-113910200D01*
X111930463Y-113707317D01*
X111868146Y-113645000D01*
X111910463Y-113602683D01*
X111994500Y-113399800D01*
X111994500Y-113180200D01*
X111910463Y-112977317D01*
X111755183Y-112822037D01*
X111552300Y-112738000D01*
X111332700Y-112738000D01*
X111129817Y-112822037D01*
X110974537Y-112977317D01*
X110890500Y-113180200D01*
X108873630Y-113180200D01*
X109057683Y-113103963D01*
X109212963Y-112948683D01*
X109297000Y-112745800D01*
X109297000Y-112526200D01*
X109229820Y-112364011D01*
X109800521Y-112364011D01*
X109800521Y-112583611D01*
X109884558Y-112786494D01*
X110039838Y-112941774D01*
X110242721Y-113025811D01*
X110462321Y-113025811D01*
X110665204Y-112941774D01*
X110820484Y-112786494D01*
X110904521Y-112583611D01*
X110904521Y-112364011D01*
X110820484Y-112161128D01*
X110682946Y-112023590D01*
X110875183Y-111943963D01*
X111030463Y-111788683D01*
X111114500Y-111585800D01*
X111114500Y-111366200D01*
X111030463Y-111163317D01*
X110875183Y-111008037D01*
X110672300Y-110924000D01*
X110452700Y-110924000D01*
X110249817Y-111008037D01*
X110094537Y-111163317D01*
X110010500Y-111366200D01*
X110010500Y-111585800D01*
X110094537Y-111788683D01*
X110232075Y-111926221D01*
X110039838Y-112005848D01*
X109884558Y-112161128D01*
X109800521Y-112364011D01*
X109229820Y-112364011D01*
X109212963Y-112323317D01*
X109057683Y-112168037D01*
X108854800Y-112084000D01*
X108635200Y-112084000D01*
X108432317Y-112168037D01*
X108277037Y-112323317D01*
X108193000Y-112526200D01*
X106479500Y-112526200D01*
X106479500Y-109676200D01*
X111100500Y-109676200D01*
X111100500Y-109895800D01*
X111184537Y-110098683D01*
X111339817Y-110253963D01*
X111542700Y-110338000D01*
X111762300Y-110338000D01*
X111965183Y-110253963D01*
X112120463Y-110098683D01*
X112204500Y-109895800D01*
X112204500Y-109756200D01*
X112710500Y-109756200D01*
X112710500Y-109975800D01*
X112794537Y-110178683D01*
X112949817Y-110333963D01*
X113152700Y-110418000D01*
X113372300Y-110418000D01*
X113575183Y-110333963D01*
X113730463Y-110178683D01*
X113814500Y-109975800D01*
X113814500Y-109756200D01*
X113730463Y-109553317D01*
X113575183Y-109398037D01*
X113372300Y-109314000D01*
X113152700Y-109314000D01*
X112949817Y-109398037D01*
X112794537Y-109553317D01*
X112710500Y-109756200D01*
X112204500Y-109756200D01*
X112204500Y-109676200D01*
X112120463Y-109473317D01*
X111965183Y-109318037D01*
X111762300Y-109234000D01*
X111542700Y-109234000D01*
X111339817Y-109318037D01*
X111184537Y-109473317D01*
X111100500Y-109676200D01*
X106479500Y-109676200D01*
X106479500Y-109013000D01*
X114668100Y-109013000D01*
X114600500Y-109176200D01*
G04 #@! TO.N,/M2_AGND*
G36*
X105625501Y-109017218D02*
X105625500Y-119886000D01*
X105635167Y-119934601D01*
X105662697Y-119975803D01*
X105703899Y-120003333D01*
X105752500Y-120013000D01*
X118052500Y-120013000D01*
X118101101Y-120003333D01*
X118142303Y-119975803D01*
X118169833Y-119934601D01*
X118179500Y-119886000D01*
X118179500Y-116376202D01*
X118574000Y-116376202D01*
X118574000Y-116595802D01*
X118658037Y-116798685D01*
X118813317Y-116953965D01*
X119016200Y-117038002D01*
X119235800Y-117038002D01*
X119438683Y-116953965D01*
X119593963Y-116798685D01*
X119678000Y-116595802D01*
X119678000Y-116376202D01*
X119593963Y-116173319D01*
X119438683Y-116018039D01*
X119235800Y-115934002D01*
X119016200Y-115934002D01*
X118813317Y-116018039D01*
X118658037Y-116173319D01*
X118574000Y-116376202D01*
X118179500Y-116376202D01*
X118179500Y-113816200D01*
X118490500Y-113816200D01*
X118490500Y-114035800D01*
X118574537Y-114238683D01*
X118729817Y-114393963D01*
X118932700Y-114478000D01*
X119152300Y-114478000D01*
X119355183Y-114393963D01*
X119510463Y-114238683D01*
X119594500Y-114035800D01*
X119594500Y-113816200D01*
X119570565Y-113758415D01*
X119762700Y-113838000D01*
X119982300Y-113838000D01*
X120185183Y-113753963D01*
X120340463Y-113598683D01*
X120424500Y-113395800D01*
X120424500Y-113176200D01*
X120386038Y-113083345D01*
X120577683Y-113003963D01*
X120732963Y-112848683D01*
X120817000Y-112645800D01*
X120817000Y-112426200D01*
X120732963Y-112223317D01*
X120577683Y-112068037D01*
X120374800Y-111984000D01*
X120155200Y-111984000D01*
X119952317Y-112068037D01*
X119797037Y-112223317D01*
X119713000Y-112426200D01*
X119713000Y-112645800D01*
X119751462Y-112738655D01*
X119559817Y-112818037D01*
X119404537Y-112973317D01*
X119320500Y-113176200D01*
X119320500Y-113395800D01*
X119344435Y-113453585D01*
X119152300Y-113374000D01*
X118932700Y-113374000D01*
X118729817Y-113458037D01*
X118574537Y-113613317D01*
X118490500Y-113816200D01*
X118179500Y-113816200D01*
X118179500Y-112241146D01*
X118212317Y-112273963D01*
X118415200Y-112358000D01*
X118634800Y-112358000D01*
X118837683Y-112273963D01*
X118992963Y-112118683D01*
X119077000Y-111915800D01*
X119077000Y-111696200D01*
X118992963Y-111493317D01*
X118946288Y-111446642D01*
X119025183Y-111413963D01*
X119180463Y-111258683D01*
X119264500Y-111055800D01*
X119264500Y-110836200D01*
X119198226Y-110676200D01*
X119743000Y-110676200D01*
X119743000Y-110895800D01*
X119827037Y-111098683D01*
X119982317Y-111253963D01*
X120185200Y-111338000D01*
X120404800Y-111338000D01*
X120607683Y-111253963D01*
X120762963Y-111098683D01*
X120847000Y-110895800D01*
X120847000Y-110676200D01*
X120762963Y-110473317D01*
X120607683Y-110318037D01*
X120404800Y-110234000D01*
X120185200Y-110234000D01*
X119982317Y-110318037D01*
X119827037Y-110473317D01*
X119743000Y-110676200D01*
X119198226Y-110676200D01*
X119180463Y-110633317D01*
X119025183Y-110478037D01*
X118822300Y-110394000D01*
X118602700Y-110394000D01*
X118399817Y-110478037D01*
X118244537Y-110633317D01*
X118202529Y-110734732D01*
X118179500Y-110679134D01*
X118179500Y-109013000D01*
X123725500Y-109013000D01*
X123725500Y-121859047D01*
X100352000Y-121867672D01*
X100352000Y-120876200D01*
X118550500Y-120876200D01*
X118550500Y-121095800D01*
X118634537Y-121298683D01*
X118789817Y-121453963D01*
X118992700Y-121538000D01*
X119212300Y-121538000D01*
X119415183Y-121453963D01*
X119570463Y-121298683D01*
X119654500Y-121095800D01*
X119654500Y-120876200D01*
X119570463Y-120673317D01*
X119415183Y-120518037D01*
X119212300Y-120434000D01*
X118992700Y-120434000D01*
X118789817Y-120518037D01*
X118634537Y-120673317D01*
X118550500Y-120876200D01*
X100352000Y-120876200D01*
X100352000Y-117176200D01*
X102000500Y-117176200D01*
X102000500Y-117395800D01*
X102084537Y-117598683D01*
X102239817Y-117753963D01*
X102442700Y-117838000D01*
X102662300Y-117838000D01*
X102865183Y-117753963D01*
X103020463Y-117598683D01*
X103104500Y-117395800D01*
X103104500Y-117176200D01*
X103020463Y-116973317D01*
X102865183Y-116818037D01*
X102662300Y-116734000D01*
X102442700Y-116734000D01*
X102239817Y-116818037D01*
X102084537Y-116973317D01*
X102000500Y-117176200D01*
X100352000Y-117176200D01*
X100352000Y-114776200D01*
X100900500Y-114776200D01*
X100900500Y-114995800D01*
X100984537Y-115198683D01*
X101139817Y-115353963D01*
X101342700Y-115438000D01*
X101562300Y-115438000D01*
X101765183Y-115353963D01*
X101920463Y-115198683D01*
X102004500Y-114995800D01*
X102004500Y-114776200D01*
X101920463Y-114573317D01*
X101765183Y-114418037D01*
X101562300Y-114334000D01*
X101342700Y-114334000D01*
X101139817Y-114418037D01*
X100984537Y-114573317D01*
X100900500Y-114776200D01*
X100352000Y-114776200D01*
X100352000Y-113675535D01*
X101969736Y-113675535D01*
X101969736Y-113895135D01*
X102053773Y-114098018D01*
X102209053Y-114253298D01*
X102411936Y-114337335D01*
X102631536Y-114337335D01*
X102834419Y-114253298D01*
X102989699Y-114098018D01*
X103073736Y-113895135D01*
X103073736Y-113675535D01*
X102989699Y-113472652D01*
X102834419Y-113317372D01*
X102631536Y-113233335D01*
X102411936Y-113233335D01*
X102209053Y-113317372D01*
X102053773Y-113472652D01*
X101969736Y-113675535D01*
X100352000Y-113675535D01*
X100352000Y-109009188D01*
X105625501Y-109017218D01*
X105625501Y-109017218D01*
G37*
X105625501Y-109017218D02*
X105625500Y-119886000D01*
X105635167Y-119934601D01*
X105662697Y-119975803D01*
X105703899Y-120003333D01*
X105752500Y-120013000D01*
X118052500Y-120013000D01*
X118101101Y-120003333D01*
X118142303Y-119975803D01*
X118169833Y-119934601D01*
X118179500Y-119886000D01*
X118179500Y-116376202D01*
X118574000Y-116376202D01*
X118574000Y-116595802D01*
X118658037Y-116798685D01*
X118813317Y-116953965D01*
X119016200Y-117038002D01*
X119235800Y-117038002D01*
X119438683Y-116953965D01*
X119593963Y-116798685D01*
X119678000Y-116595802D01*
X119678000Y-116376202D01*
X119593963Y-116173319D01*
X119438683Y-116018039D01*
X119235800Y-115934002D01*
X119016200Y-115934002D01*
X118813317Y-116018039D01*
X118658037Y-116173319D01*
X118574000Y-116376202D01*
X118179500Y-116376202D01*
X118179500Y-113816200D01*
X118490500Y-113816200D01*
X118490500Y-114035800D01*
X118574537Y-114238683D01*
X118729817Y-114393963D01*
X118932700Y-114478000D01*
X119152300Y-114478000D01*
X119355183Y-114393963D01*
X119510463Y-114238683D01*
X119594500Y-114035800D01*
X119594500Y-113816200D01*
X119570565Y-113758415D01*
X119762700Y-113838000D01*
X119982300Y-113838000D01*
X120185183Y-113753963D01*
X120340463Y-113598683D01*
X120424500Y-113395800D01*
X120424500Y-113176200D01*
X120386038Y-113083345D01*
X120577683Y-113003963D01*
X120732963Y-112848683D01*
X120817000Y-112645800D01*
X120817000Y-112426200D01*
X120732963Y-112223317D01*
X120577683Y-112068037D01*
X120374800Y-111984000D01*
X120155200Y-111984000D01*
X119952317Y-112068037D01*
X119797037Y-112223317D01*
X119713000Y-112426200D01*
X119713000Y-112645800D01*
X119751462Y-112738655D01*
X119559817Y-112818037D01*
X119404537Y-112973317D01*
X119320500Y-113176200D01*
X119320500Y-113395800D01*
X119344435Y-113453585D01*
X119152300Y-113374000D01*
X118932700Y-113374000D01*
X118729817Y-113458037D01*
X118574537Y-113613317D01*
X118490500Y-113816200D01*
X118179500Y-113816200D01*
X118179500Y-112241146D01*
X118212317Y-112273963D01*
X118415200Y-112358000D01*
X118634800Y-112358000D01*
X118837683Y-112273963D01*
X118992963Y-112118683D01*
X119077000Y-111915800D01*
X119077000Y-111696200D01*
X118992963Y-111493317D01*
X118946288Y-111446642D01*
X119025183Y-111413963D01*
X119180463Y-111258683D01*
X119264500Y-111055800D01*
X119264500Y-110836200D01*
X119198226Y-110676200D01*
X119743000Y-110676200D01*
X119743000Y-110895800D01*
X119827037Y-111098683D01*
X119982317Y-111253963D01*
X120185200Y-111338000D01*
X120404800Y-111338000D01*
X120607683Y-111253963D01*
X120762963Y-111098683D01*
X120847000Y-110895800D01*
X120847000Y-110676200D01*
X120762963Y-110473317D01*
X120607683Y-110318037D01*
X120404800Y-110234000D01*
X120185200Y-110234000D01*
X119982317Y-110318037D01*
X119827037Y-110473317D01*
X119743000Y-110676200D01*
X119198226Y-110676200D01*
X119180463Y-110633317D01*
X119025183Y-110478037D01*
X118822300Y-110394000D01*
X118602700Y-110394000D01*
X118399817Y-110478037D01*
X118244537Y-110633317D01*
X118202529Y-110734732D01*
X118179500Y-110679134D01*
X118179500Y-109013000D01*
X123725500Y-109013000D01*
X123725500Y-121859047D01*
X100352000Y-121867672D01*
X100352000Y-120876200D01*
X118550500Y-120876200D01*
X118550500Y-121095800D01*
X118634537Y-121298683D01*
X118789817Y-121453963D01*
X118992700Y-121538000D01*
X119212300Y-121538000D01*
X119415183Y-121453963D01*
X119570463Y-121298683D01*
X119654500Y-121095800D01*
X119654500Y-120876200D01*
X119570463Y-120673317D01*
X119415183Y-120518037D01*
X119212300Y-120434000D01*
X118992700Y-120434000D01*
X118789817Y-120518037D01*
X118634537Y-120673317D01*
X118550500Y-120876200D01*
X100352000Y-120876200D01*
X100352000Y-117176200D01*
X102000500Y-117176200D01*
X102000500Y-117395800D01*
X102084537Y-117598683D01*
X102239817Y-117753963D01*
X102442700Y-117838000D01*
X102662300Y-117838000D01*
X102865183Y-117753963D01*
X103020463Y-117598683D01*
X103104500Y-117395800D01*
X103104500Y-117176200D01*
X103020463Y-116973317D01*
X102865183Y-116818037D01*
X102662300Y-116734000D01*
X102442700Y-116734000D01*
X102239817Y-116818037D01*
X102084537Y-116973317D01*
X102000500Y-117176200D01*
X100352000Y-117176200D01*
X100352000Y-114776200D01*
X100900500Y-114776200D01*
X100900500Y-114995800D01*
X100984537Y-115198683D01*
X101139817Y-115353963D01*
X101342700Y-115438000D01*
X101562300Y-115438000D01*
X101765183Y-115353963D01*
X101920463Y-115198683D01*
X102004500Y-114995800D01*
X102004500Y-114776200D01*
X101920463Y-114573317D01*
X101765183Y-114418037D01*
X101562300Y-114334000D01*
X101342700Y-114334000D01*
X101139817Y-114418037D01*
X100984537Y-114573317D01*
X100900500Y-114776200D01*
X100352000Y-114776200D01*
X100352000Y-113675535D01*
X101969736Y-113675535D01*
X101969736Y-113895135D01*
X102053773Y-114098018D01*
X102209053Y-114253298D01*
X102411936Y-114337335D01*
X102631536Y-114337335D01*
X102834419Y-114253298D01*
X102989699Y-114098018D01*
X103073736Y-113895135D01*
X103073736Y-113675535D01*
X102989699Y-113472652D01*
X102834419Y-113317372D01*
X102631536Y-113233335D01*
X102411936Y-113233335D01*
X102209053Y-113317372D01*
X102053773Y-113472652D01*
X101969736Y-113675535D01*
X100352000Y-113675535D01*
X100352000Y-109009188D01*
X105625501Y-109017218D01*
G04 #@! TO.N,GND*
G36*
X199648001Y-105459000D02*
X190110146Y-105459000D01*
X190220463Y-105348683D01*
X190304500Y-105145800D01*
X190304500Y-104926200D01*
X190220463Y-104723317D01*
X190065183Y-104568037D01*
X189862300Y-104484000D01*
X189642700Y-104484000D01*
X189439817Y-104568037D01*
X189284537Y-104723317D01*
X189200500Y-104926200D01*
X189200500Y-105145800D01*
X189284537Y-105348683D01*
X189394854Y-105459000D01*
X173099032Y-105459000D01*
X173104500Y-105445800D01*
X173104500Y-105226200D01*
X173020463Y-105023317D01*
X172865183Y-104868037D01*
X172662300Y-104784000D01*
X172442700Y-104784000D01*
X172239817Y-104868037D01*
X172084537Y-105023317D01*
X172000500Y-105226200D01*
X172000500Y-105445800D01*
X172005968Y-105459000D01*
X169952500Y-105459000D01*
X169903899Y-105468667D01*
X169862697Y-105496197D01*
X169835167Y-105537399D01*
X169825500Y-105586000D01*
X169825500Y-121086000D01*
X169835167Y-121134601D01*
X169862697Y-121175803D01*
X169903899Y-121203333D01*
X169952500Y-121213000D01*
X186194854Y-121213000D01*
X186084537Y-121323317D01*
X186000500Y-121526200D01*
X186000500Y-121745800D01*
X186084537Y-121948683D01*
X186239817Y-122103963D01*
X186442700Y-122188000D01*
X186662300Y-122188000D01*
X186865183Y-122103963D01*
X187020463Y-121948683D01*
X187104500Y-121745800D01*
X187104500Y-121526200D01*
X187020463Y-121323317D01*
X186910146Y-121213000D01*
X199648000Y-121213000D01*
X199648000Y-124648000D01*
X100352000Y-124648000D01*
X100352000Y-122713000D01*
X113647389Y-122713000D01*
X113600500Y-122826200D01*
X113600500Y-123045800D01*
X113684537Y-123248683D01*
X113839817Y-123403963D01*
X114042700Y-123488000D01*
X114262300Y-123488000D01*
X114465183Y-123403963D01*
X114542946Y-123326200D01*
X126250500Y-123326200D01*
X126250500Y-123545800D01*
X126334537Y-123748683D01*
X126489817Y-123903963D01*
X126692700Y-123988000D01*
X126912300Y-123988000D01*
X127115183Y-123903963D01*
X127270463Y-123748683D01*
X127354500Y-123545800D01*
X127354500Y-123326200D01*
X127270463Y-123123317D01*
X127115183Y-122968037D01*
X126912300Y-122884000D01*
X126692700Y-122884000D01*
X126489817Y-122968037D01*
X126334537Y-123123317D01*
X126250500Y-123326200D01*
X114542946Y-123326200D01*
X114620463Y-123248683D01*
X114704500Y-123045800D01*
X114704500Y-122826200D01*
X114657611Y-122713000D01*
X124452500Y-122713000D01*
X124501101Y-122703333D01*
X124542303Y-122675803D01*
X124569833Y-122634601D01*
X124579500Y-122586000D01*
X124579500Y-122276198D01*
X167500500Y-122276198D01*
X167500500Y-122495798D01*
X167584537Y-122698681D01*
X167739817Y-122853961D01*
X167942700Y-122937998D01*
X168162300Y-122937998D01*
X168365183Y-122853961D01*
X168520463Y-122698681D01*
X168604500Y-122495798D01*
X168604500Y-122476200D01*
X189600500Y-122476200D01*
X189600500Y-122695800D01*
X189684537Y-122898683D01*
X189839817Y-123053963D01*
X190042700Y-123138000D01*
X190262300Y-123138000D01*
X190465183Y-123053963D01*
X190620463Y-122898683D01*
X190704500Y-122695800D01*
X190704500Y-122476200D01*
X190620463Y-122273317D01*
X190465183Y-122118037D01*
X190262300Y-122034000D01*
X190042700Y-122034000D01*
X189839817Y-122118037D01*
X189684537Y-122273317D01*
X189600500Y-122476200D01*
X168604500Y-122476200D01*
X168604500Y-122276198D01*
X168520463Y-122073315D01*
X168365183Y-121918035D01*
X168162300Y-121833998D01*
X167942700Y-121833998D01*
X167739817Y-121918035D01*
X167584537Y-122073315D01*
X167500500Y-122276198D01*
X124579500Y-122276198D01*
X124579500Y-120626200D01*
X137500500Y-120626200D01*
X137500500Y-120845800D01*
X137584537Y-121048683D01*
X137739817Y-121203963D01*
X137942700Y-121288000D01*
X138116323Y-121288000D01*
X138100500Y-121326200D01*
X138100500Y-121545800D01*
X138184537Y-121748683D01*
X138339817Y-121903963D01*
X138542700Y-121988000D01*
X138762300Y-121988000D01*
X138965183Y-121903963D01*
X139120463Y-121748683D01*
X139204500Y-121545800D01*
X139204500Y-121326200D01*
X139120463Y-121123317D01*
X138965183Y-120968037D01*
X138762300Y-120884000D01*
X138588677Y-120884000D01*
X138604500Y-120845800D01*
X138604500Y-120626200D01*
X138520463Y-120423317D01*
X138365183Y-120268037D01*
X138162300Y-120184000D01*
X137942700Y-120184000D01*
X137739817Y-120268037D01*
X137584537Y-120423317D01*
X137500500Y-120626200D01*
X124579500Y-120626200D01*
X124579500Y-117726200D01*
X155460500Y-117726200D01*
X155460500Y-117945800D01*
X155544537Y-118148683D01*
X155699817Y-118303963D01*
X155902700Y-118388000D01*
X156122300Y-118388000D01*
X156325183Y-118303963D01*
X156480463Y-118148683D01*
X156564500Y-117945800D01*
X156564500Y-117806200D01*
X157660500Y-117806200D01*
X157660500Y-118025800D01*
X157744537Y-118228683D01*
X157899817Y-118383963D01*
X158102700Y-118468000D01*
X158322300Y-118468000D01*
X158525183Y-118383963D01*
X158680463Y-118228683D01*
X158764500Y-118025800D01*
X158764500Y-117806200D01*
X158680463Y-117603317D01*
X158578146Y-117501000D01*
X158710463Y-117368683D01*
X158794500Y-117165800D01*
X158794500Y-116946200D01*
X158710463Y-116743317D01*
X158555183Y-116588037D01*
X158352300Y-116504000D01*
X158132700Y-116504000D01*
X157929817Y-116588037D01*
X157774537Y-116743317D01*
X157690500Y-116946200D01*
X157690500Y-117165800D01*
X157774537Y-117368683D01*
X157876854Y-117471000D01*
X157744537Y-117603317D01*
X157660500Y-117806200D01*
X156564500Y-117806200D01*
X156564500Y-117726200D01*
X156480463Y-117523317D01*
X156363146Y-117406000D01*
X156490463Y-117278683D01*
X156574500Y-117075800D01*
X156574500Y-116856200D01*
X156490463Y-116653317D01*
X156335183Y-116498037D01*
X156132300Y-116414000D01*
X155912700Y-116414000D01*
X155709817Y-116498037D01*
X155554537Y-116653317D01*
X155470500Y-116856200D01*
X155470500Y-117075800D01*
X155554537Y-117278683D01*
X155671854Y-117396000D01*
X155544537Y-117523317D01*
X155460500Y-117726200D01*
X124579500Y-117726200D01*
X124579500Y-108286000D01*
X124569833Y-108237399D01*
X124542303Y-108196197D01*
X124501101Y-108168667D01*
X124452500Y-108159000D01*
X117804500Y-108159000D01*
X117804500Y-108076200D01*
X126300500Y-108076200D01*
X126300500Y-108295800D01*
X126384537Y-108498683D01*
X126539817Y-108653963D01*
X126742700Y-108738000D01*
X126962300Y-108738000D01*
X127165183Y-108653963D01*
X127320463Y-108498683D01*
X127404500Y-108295800D01*
X127404500Y-108276200D01*
X128100500Y-108276200D01*
X128100500Y-108495800D01*
X128184537Y-108698683D01*
X128339817Y-108853963D01*
X128542700Y-108938000D01*
X128762300Y-108938000D01*
X128965183Y-108853963D01*
X129120463Y-108698683D01*
X129204500Y-108495800D01*
X129204500Y-108276200D01*
X129120463Y-108073317D01*
X128965183Y-107918037D01*
X128762300Y-107834000D01*
X128542700Y-107834000D01*
X128339817Y-107918037D01*
X128184537Y-108073317D01*
X128100500Y-108276200D01*
X127404500Y-108276200D01*
X127404500Y-108076200D01*
X127320463Y-107873317D01*
X127165183Y-107718037D01*
X126962300Y-107634000D01*
X126742700Y-107634000D01*
X126539817Y-107718037D01*
X126384537Y-107873317D01*
X126300500Y-108076200D01*
X117804500Y-108076200D01*
X117804500Y-107976200D01*
X117720463Y-107773317D01*
X117565183Y-107618037D01*
X117362300Y-107534000D01*
X117142700Y-107534000D01*
X116939817Y-107618037D01*
X116784537Y-107773317D01*
X116700500Y-107976200D01*
X116700500Y-108159000D01*
X115594500Y-108159000D01*
X115594500Y-108026200D01*
X115510463Y-107823317D01*
X115355183Y-107668037D01*
X115152300Y-107584000D01*
X115094500Y-107584000D01*
X115094500Y-107436200D01*
X115012035Y-107237111D01*
X115100463Y-107148683D01*
X115184500Y-106945800D01*
X115184500Y-106816200D01*
X164980500Y-106816200D01*
X164980500Y-107035800D01*
X165064537Y-107238683D01*
X165219817Y-107393963D01*
X165415792Y-107475139D01*
X165390500Y-107536200D01*
X165390500Y-107755800D01*
X165474537Y-107958683D01*
X165629817Y-108113963D01*
X165832700Y-108198000D01*
X166052300Y-108198000D01*
X166255183Y-108113963D01*
X166410463Y-107958683D01*
X166494500Y-107755800D01*
X166494500Y-107536200D01*
X166410463Y-107333317D01*
X166255183Y-107178037D01*
X166059208Y-107096861D01*
X166084500Y-107035800D01*
X166084500Y-106816200D01*
X166000463Y-106613317D01*
X165845183Y-106458037D01*
X165642300Y-106374000D01*
X165422700Y-106374000D01*
X165219817Y-106458037D01*
X165064537Y-106613317D01*
X164980500Y-106816200D01*
X115184500Y-106816200D01*
X115184500Y-106726200D01*
X115100463Y-106523317D01*
X114945183Y-106368037D01*
X114742300Y-106284000D01*
X114654500Y-106284000D01*
X114654500Y-106156200D01*
X114570463Y-105953317D01*
X114415183Y-105798037D01*
X114212300Y-105714000D01*
X113992700Y-105714000D01*
X113789817Y-105798037D01*
X113634537Y-105953317D01*
X113550500Y-106156200D01*
X113550500Y-106375800D01*
X113634537Y-106578683D01*
X113789817Y-106733963D01*
X113992700Y-106818000D01*
X114080500Y-106818000D01*
X114080500Y-106945800D01*
X114162965Y-107144889D01*
X114074537Y-107233317D01*
X113990500Y-107436200D01*
X113990500Y-107655800D01*
X114074537Y-107858683D01*
X114229817Y-108013963D01*
X114432700Y-108098000D01*
X114490500Y-108098000D01*
X114490500Y-108159000D01*
X102836900Y-108159000D01*
X102904500Y-107995800D01*
X102904500Y-107776200D01*
X102820463Y-107573317D01*
X102665183Y-107418037D01*
X102462300Y-107334000D01*
X102242700Y-107334000D01*
X102039817Y-107418037D01*
X101884537Y-107573317D01*
X101800500Y-107776200D01*
X101800500Y-107995800D01*
X101868100Y-108159000D01*
X100352000Y-108159000D01*
X100352000Y-105924777D01*
X112200500Y-105924777D01*
X112200500Y-106144377D01*
X112284537Y-106347260D01*
X112439817Y-106502540D01*
X112642700Y-106586577D01*
X112862300Y-106586577D01*
X113065183Y-106502540D01*
X113220463Y-106347260D01*
X113304500Y-106144377D01*
X113304500Y-105924777D01*
X113220463Y-105721894D01*
X113065183Y-105566614D01*
X112862300Y-105482577D01*
X112642700Y-105482577D01*
X112439817Y-105566614D01*
X112284537Y-105721894D01*
X112200500Y-105924777D01*
X100352000Y-105924777D01*
X100352000Y-104626200D01*
X109550500Y-104626200D01*
X109550500Y-104845800D01*
X109634537Y-105048683D01*
X109789817Y-105203963D01*
X109992700Y-105288000D01*
X110212300Y-105288000D01*
X110415183Y-105203963D01*
X110570463Y-105048683D01*
X110637765Y-104886200D01*
X124550500Y-104886200D01*
X124550500Y-105105800D01*
X124634537Y-105308683D01*
X124696854Y-105371000D01*
X124644537Y-105423317D01*
X124560500Y-105626200D01*
X124560500Y-105845800D01*
X124644537Y-106048683D01*
X124799817Y-106203963D01*
X125002700Y-106288000D01*
X125222300Y-106288000D01*
X125425183Y-106203963D01*
X125580463Y-106048683D01*
X125664500Y-105845800D01*
X125664500Y-105626200D01*
X125580463Y-105423317D01*
X125518146Y-105361000D01*
X125552946Y-105326200D01*
X167800500Y-105326200D01*
X167800500Y-105545800D01*
X167884537Y-105748683D01*
X168039817Y-105903963D01*
X168242700Y-105988000D01*
X168462300Y-105988000D01*
X168665183Y-105903963D01*
X168820463Y-105748683D01*
X168904500Y-105545800D01*
X168904500Y-105326200D01*
X168820463Y-105123317D01*
X168665183Y-104968037D01*
X168462300Y-104884000D01*
X168242700Y-104884000D01*
X168039817Y-104968037D01*
X167884537Y-105123317D01*
X167800500Y-105326200D01*
X125552946Y-105326200D01*
X125570463Y-105308683D01*
X125654500Y-105105800D01*
X125654500Y-104886200D01*
X125570463Y-104683317D01*
X125415183Y-104528037D01*
X125212300Y-104444000D01*
X124992700Y-104444000D01*
X124789817Y-104528037D01*
X124634537Y-104683317D01*
X124550500Y-104886200D01*
X110637765Y-104886200D01*
X110654500Y-104845800D01*
X110654500Y-104626200D01*
X110570463Y-104423317D01*
X110415183Y-104268037D01*
X110212300Y-104184000D01*
X109992700Y-104184000D01*
X109789817Y-104268037D01*
X109634537Y-104423317D01*
X109550500Y-104626200D01*
X100352000Y-104626200D01*
X100352000Y-102976200D01*
X187950500Y-102976200D01*
X187950500Y-103195800D01*
X188034537Y-103398683D01*
X188189817Y-103553963D01*
X188392700Y-103638000D01*
X188612300Y-103638000D01*
X188815183Y-103553963D01*
X188970463Y-103398683D01*
X189054500Y-103195800D01*
X189054500Y-102976200D01*
X188970463Y-102773317D01*
X188815183Y-102618037D01*
X188612300Y-102534000D01*
X188392700Y-102534000D01*
X188189817Y-102618037D01*
X188034537Y-102773317D01*
X187950500Y-102976200D01*
X100352000Y-102976200D01*
X100352000Y-101376200D01*
X120600500Y-101376200D01*
X120600500Y-101595800D01*
X120684537Y-101798683D01*
X120839817Y-101953963D01*
X121042700Y-102038000D01*
X121262300Y-102038000D01*
X121465183Y-101953963D01*
X121620463Y-101798683D01*
X121704500Y-101595800D01*
X121704500Y-101476194D01*
X128100500Y-101476194D01*
X128100500Y-101695794D01*
X128184537Y-101898677D01*
X128339817Y-102053957D01*
X128542700Y-102137994D01*
X128762300Y-102137994D01*
X128965183Y-102053957D01*
X129120463Y-101898677D01*
X129204500Y-101695794D01*
X129204500Y-101476194D01*
X129120463Y-101273311D01*
X128965183Y-101118031D01*
X128762300Y-101033994D01*
X128542700Y-101033994D01*
X128339817Y-101118031D01*
X128184537Y-101273311D01*
X128100500Y-101476194D01*
X121704500Y-101476194D01*
X121704500Y-101376200D01*
X121620463Y-101173317D01*
X121465183Y-101018037D01*
X121262300Y-100934000D01*
X121042700Y-100934000D01*
X120839817Y-101018037D01*
X120684537Y-101173317D01*
X120600500Y-101376200D01*
X100352000Y-101376200D01*
X100352000Y-100352000D01*
X199648001Y-100352000D01*
X199648001Y-105459000D01*
X199648001Y-105459000D01*
G37*
X199648001Y-105459000D02*
X190110146Y-105459000D01*
X190220463Y-105348683D01*
X190304500Y-105145800D01*
X190304500Y-104926200D01*
X190220463Y-104723317D01*
X190065183Y-104568037D01*
X189862300Y-104484000D01*
X189642700Y-104484000D01*
X189439817Y-104568037D01*
X189284537Y-104723317D01*
X189200500Y-104926200D01*
X189200500Y-105145800D01*
X189284537Y-105348683D01*
X189394854Y-105459000D01*
X173099032Y-105459000D01*
X173104500Y-105445800D01*
X173104500Y-105226200D01*
X173020463Y-105023317D01*
X172865183Y-104868037D01*
X172662300Y-104784000D01*
X172442700Y-104784000D01*
X172239817Y-104868037D01*
X172084537Y-105023317D01*
X172000500Y-105226200D01*
X172000500Y-105445800D01*
X172005968Y-105459000D01*
X169952500Y-105459000D01*
X169903899Y-105468667D01*
X169862697Y-105496197D01*
X169835167Y-105537399D01*
X169825500Y-105586000D01*
X169825500Y-121086000D01*
X169835167Y-121134601D01*
X169862697Y-121175803D01*
X169903899Y-121203333D01*
X169952500Y-121213000D01*
X186194854Y-121213000D01*
X186084537Y-121323317D01*
X186000500Y-121526200D01*
X186000500Y-121745800D01*
X186084537Y-121948683D01*
X186239817Y-122103963D01*
X186442700Y-122188000D01*
X186662300Y-122188000D01*
X186865183Y-122103963D01*
X187020463Y-121948683D01*
X187104500Y-121745800D01*
X187104500Y-121526200D01*
X187020463Y-121323317D01*
X186910146Y-121213000D01*
X199648000Y-121213000D01*
X199648000Y-124648000D01*
X100352000Y-124648000D01*
X100352000Y-122713000D01*
X113647389Y-122713000D01*
X113600500Y-122826200D01*
X113600500Y-123045800D01*
X113684537Y-123248683D01*
X113839817Y-123403963D01*
X114042700Y-123488000D01*
X114262300Y-123488000D01*
X114465183Y-123403963D01*
X114542946Y-123326200D01*
X126250500Y-123326200D01*
X126250500Y-123545800D01*
X126334537Y-123748683D01*
X126489817Y-123903963D01*
X126692700Y-123988000D01*
X126912300Y-123988000D01*
X127115183Y-123903963D01*
X127270463Y-123748683D01*
X127354500Y-123545800D01*
X127354500Y-123326200D01*
X127270463Y-123123317D01*
X127115183Y-122968037D01*
X126912300Y-122884000D01*
X126692700Y-122884000D01*
X126489817Y-122968037D01*
X126334537Y-123123317D01*
X126250500Y-123326200D01*
X114542946Y-123326200D01*
X114620463Y-123248683D01*
X114704500Y-123045800D01*
X114704500Y-122826200D01*
X114657611Y-122713000D01*
X124452500Y-122713000D01*
X124501101Y-122703333D01*
X124542303Y-122675803D01*
X124569833Y-122634601D01*
X124579500Y-122586000D01*
X124579500Y-122276198D01*
X167500500Y-122276198D01*
X167500500Y-122495798D01*
X167584537Y-122698681D01*
X167739817Y-122853961D01*
X167942700Y-122937998D01*
X168162300Y-122937998D01*
X168365183Y-122853961D01*
X168520463Y-122698681D01*
X168604500Y-122495798D01*
X168604500Y-122476200D01*
X189600500Y-122476200D01*
X189600500Y-122695800D01*
X189684537Y-122898683D01*
X189839817Y-123053963D01*
X190042700Y-123138000D01*
X190262300Y-123138000D01*
X190465183Y-123053963D01*
X190620463Y-122898683D01*
X190704500Y-122695800D01*
X190704500Y-122476200D01*
X190620463Y-122273317D01*
X190465183Y-122118037D01*
X190262300Y-122034000D01*
X190042700Y-122034000D01*
X189839817Y-122118037D01*
X189684537Y-122273317D01*
X189600500Y-122476200D01*
X168604500Y-122476200D01*
X168604500Y-122276198D01*
X168520463Y-122073315D01*
X168365183Y-121918035D01*
X168162300Y-121833998D01*
X167942700Y-121833998D01*
X167739817Y-121918035D01*
X167584537Y-122073315D01*
X167500500Y-122276198D01*
X124579500Y-122276198D01*
X124579500Y-120626200D01*
X137500500Y-120626200D01*
X137500500Y-120845800D01*
X137584537Y-121048683D01*
X137739817Y-121203963D01*
X137942700Y-121288000D01*
X138116323Y-121288000D01*
X138100500Y-121326200D01*
X138100500Y-121545800D01*
X138184537Y-121748683D01*
X138339817Y-121903963D01*
X138542700Y-121988000D01*
X138762300Y-121988000D01*
X138965183Y-121903963D01*
X139120463Y-121748683D01*
X139204500Y-121545800D01*
X139204500Y-121326200D01*
X139120463Y-121123317D01*
X138965183Y-120968037D01*
X138762300Y-120884000D01*
X138588677Y-120884000D01*
X138604500Y-120845800D01*
X138604500Y-120626200D01*
X138520463Y-120423317D01*
X138365183Y-120268037D01*
X138162300Y-120184000D01*
X137942700Y-120184000D01*
X137739817Y-120268037D01*
X137584537Y-120423317D01*
X137500500Y-120626200D01*
X124579500Y-120626200D01*
X124579500Y-117726200D01*
X155460500Y-117726200D01*
X155460500Y-117945800D01*
X155544537Y-118148683D01*
X155699817Y-118303963D01*
X155902700Y-118388000D01*
X156122300Y-118388000D01*
X156325183Y-118303963D01*
X156480463Y-118148683D01*
X156564500Y-117945800D01*
X156564500Y-117806200D01*
X157660500Y-117806200D01*
X157660500Y-118025800D01*
X157744537Y-118228683D01*
X157899817Y-118383963D01*
X158102700Y-118468000D01*
X158322300Y-118468000D01*
X158525183Y-118383963D01*
X158680463Y-118228683D01*
X158764500Y-118025800D01*
X158764500Y-117806200D01*
X158680463Y-117603317D01*
X158578146Y-117501000D01*
X158710463Y-117368683D01*
X158794500Y-117165800D01*
X158794500Y-116946200D01*
X158710463Y-116743317D01*
X158555183Y-116588037D01*
X158352300Y-116504000D01*
X158132700Y-116504000D01*
X157929817Y-116588037D01*
X157774537Y-116743317D01*
X157690500Y-116946200D01*
X157690500Y-117165800D01*
X157774537Y-117368683D01*
X157876854Y-117471000D01*
X157744537Y-117603317D01*
X157660500Y-117806200D01*
X156564500Y-117806200D01*
X156564500Y-117726200D01*
X156480463Y-117523317D01*
X156363146Y-117406000D01*
X156490463Y-117278683D01*
X156574500Y-117075800D01*
X156574500Y-116856200D01*
X156490463Y-116653317D01*
X156335183Y-116498037D01*
X156132300Y-116414000D01*
X155912700Y-116414000D01*
X155709817Y-116498037D01*
X155554537Y-116653317D01*
X155470500Y-116856200D01*
X155470500Y-117075800D01*
X155554537Y-117278683D01*
X155671854Y-117396000D01*
X155544537Y-117523317D01*
X155460500Y-117726200D01*
X124579500Y-117726200D01*
X124579500Y-108286000D01*
X124569833Y-108237399D01*
X124542303Y-108196197D01*
X124501101Y-108168667D01*
X124452500Y-108159000D01*
X117804500Y-108159000D01*
X117804500Y-108076200D01*
X126300500Y-108076200D01*
X126300500Y-108295800D01*
X126384537Y-108498683D01*
X126539817Y-108653963D01*
X126742700Y-108738000D01*
X126962300Y-108738000D01*
X127165183Y-108653963D01*
X127320463Y-108498683D01*
X127404500Y-108295800D01*
X127404500Y-108276200D01*
X128100500Y-108276200D01*
X128100500Y-108495800D01*
X128184537Y-108698683D01*
X128339817Y-108853963D01*
X128542700Y-108938000D01*
X128762300Y-108938000D01*
X128965183Y-108853963D01*
X129120463Y-108698683D01*
X129204500Y-108495800D01*
X129204500Y-108276200D01*
X129120463Y-108073317D01*
X128965183Y-107918037D01*
X128762300Y-107834000D01*
X128542700Y-107834000D01*
X128339817Y-107918037D01*
X128184537Y-108073317D01*
X128100500Y-108276200D01*
X127404500Y-108276200D01*
X127404500Y-108076200D01*
X127320463Y-107873317D01*
X127165183Y-107718037D01*
X126962300Y-107634000D01*
X126742700Y-107634000D01*
X126539817Y-107718037D01*
X126384537Y-107873317D01*
X126300500Y-108076200D01*
X117804500Y-108076200D01*
X117804500Y-107976200D01*
X117720463Y-107773317D01*
X117565183Y-107618037D01*
X117362300Y-107534000D01*
X117142700Y-107534000D01*
X116939817Y-107618037D01*
X116784537Y-107773317D01*
X116700500Y-107976200D01*
X116700500Y-108159000D01*
X115594500Y-108159000D01*
X115594500Y-108026200D01*
X115510463Y-107823317D01*
X115355183Y-107668037D01*
X115152300Y-107584000D01*
X115094500Y-107584000D01*
X115094500Y-107436200D01*
X115012035Y-107237111D01*
X115100463Y-107148683D01*
X115184500Y-106945800D01*
X115184500Y-106816200D01*
X164980500Y-106816200D01*
X164980500Y-107035800D01*
X165064537Y-107238683D01*
X165219817Y-107393963D01*
X165415792Y-107475139D01*
X165390500Y-107536200D01*
X165390500Y-107755800D01*
X165474537Y-107958683D01*
X165629817Y-108113963D01*
X165832700Y-108198000D01*
X166052300Y-108198000D01*
X166255183Y-108113963D01*
X166410463Y-107958683D01*
X166494500Y-107755800D01*
X166494500Y-107536200D01*
X166410463Y-107333317D01*
X166255183Y-107178037D01*
X166059208Y-107096861D01*
X166084500Y-107035800D01*
X166084500Y-106816200D01*
X166000463Y-106613317D01*
X165845183Y-106458037D01*
X165642300Y-106374000D01*
X165422700Y-106374000D01*
X165219817Y-106458037D01*
X165064537Y-106613317D01*
X164980500Y-106816200D01*
X115184500Y-106816200D01*
X115184500Y-106726200D01*
X115100463Y-106523317D01*
X114945183Y-106368037D01*
X114742300Y-106284000D01*
X114654500Y-106284000D01*
X114654500Y-106156200D01*
X114570463Y-105953317D01*
X114415183Y-105798037D01*
X114212300Y-105714000D01*
X113992700Y-105714000D01*
X113789817Y-105798037D01*
X113634537Y-105953317D01*
X113550500Y-106156200D01*
X113550500Y-106375800D01*
X113634537Y-106578683D01*
X113789817Y-106733963D01*
X113992700Y-106818000D01*
X114080500Y-106818000D01*
X114080500Y-106945800D01*
X114162965Y-107144889D01*
X114074537Y-107233317D01*
X113990500Y-107436200D01*
X113990500Y-107655800D01*
X114074537Y-107858683D01*
X114229817Y-108013963D01*
X114432700Y-108098000D01*
X114490500Y-108098000D01*
X114490500Y-108159000D01*
X102836900Y-108159000D01*
X102904500Y-107995800D01*
X102904500Y-107776200D01*
X102820463Y-107573317D01*
X102665183Y-107418037D01*
X102462300Y-107334000D01*
X102242700Y-107334000D01*
X102039817Y-107418037D01*
X101884537Y-107573317D01*
X101800500Y-107776200D01*
X101800500Y-107995800D01*
X101868100Y-108159000D01*
X100352000Y-108159000D01*
X100352000Y-105924777D01*
X112200500Y-105924777D01*
X112200500Y-106144377D01*
X112284537Y-106347260D01*
X112439817Y-106502540D01*
X112642700Y-106586577D01*
X112862300Y-106586577D01*
X113065183Y-106502540D01*
X113220463Y-106347260D01*
X113304500Y-106144377D01*
X113304500Y-105924777D01*
X113220463Y-105721894D01*
X113065183Y-105566614D01*
X112862300Y-105482577D01*
X112642700Y-105482577D01*
X112439817Y-105566614D01*
X112284537Y-105721894D01*
X112200500Y-105924777D01*
X100352000Y-105924777D01*
X100352000Y-104626200D01*
X109550500Y-104626200D01*
X109550500Y-104845800D01*
X109634537Y-105048683D01*
X109789817Y-105203963D01*
X109992700Y-105288000D01*
X110212300Y-105288000D01*
X110415183Y-105203963D01*
X110570463Y-105048683D01*
X110637765Y-104886200D01*
X124550500Y-104886200D01*
X124550500Y-105105800D01*
X124634537Y-105308683D01*
X124696854Y-105371000D01*
X124644537Y-105423317D01*
X124560500Y-105626200D01*
X124560500Y-105845800D01*
X124644537Y-106048683D01*
X124799817Y-106203963D01*
X125002700Y-106288000D01*
X125222300Y-106288000D01*
X125425183Y-106203963D01*
X125580463Y-106048683D01*
X125664500Y-105845800D01*
X125664500Y-105626200D01*
X125580463Y-105423317D01*
X125518146Y-105361000D01*
X125552946Y-105326200D01*
X167800500Y-105326200D01*
X167800500Y-105545800D01*
X167884537Y-105748683D01*
X168039817Y-105903963D01*
X168242700Y-105988000D01*
X168462300Y-105988000D01*
X168665183Y-105903963D01*
X168820463Y-105748683D01*
X168904500Y-105545800D01*
X168904500Y-105326200D01*
X168820463Y-105123317D01*
X168665183Y-104968037D01*
X168462300Y-104884000D01*
X168242700Y-104884000D01*
X168039817Y-104968037D01*
X167884537Y-105123317D01*
X167800500Y-105326200D01*
X125552946Y-105326200D01*
X125570463Y-105308683D01*
X125654500Y-105105800D01*
X125654500Y-104886200D01*
X125570463Y-104683317D01*
X125415183Y-104528037D01*
X125212300Y-104444000D01*
X124992700Y-104444000D01*
X124789817Y-104528037D01*
X124634537Y-104683317D01*
X124550500Y-104886200D01*
X110637765Y-104886200D01*
X110654500Y-104845800D01*
X110654500Y-104626200D01*
X110570463Y-104423317D01*
X110415183Y-104268037D01*
X110212300Y-104184000D01*
X109992700Y-104184000D01*
X109789817Y-104268037D01*
X109634537Y-104423317D01*
X109550500Y-104626200D01*
X100352000Y-104626200D01*
X100352000Y-102976200D01*
X187950500Y-102976200D01*
X187950500Y-103195800D01*
X188034537Y-103398683D01*
X188189817Y-103553963D01*
X188392700Y-103638000D01*
X188612300Y-103638000D01*
X188815183Y-103553963D01*
X188970463Y-103398683D01*
X189054500Y-103195800D01*
X189054500Y-102976200D01*
X188970463Y-102773317D01*
X188815183Y-102618037D01*
X188612300Y-102534000D01*
X188392700Y-102534000D01*
X188189817Y-102618037D01*
X188034537Y-102773317D01*
X187950500Y-102976200D01*
X100352000Y-102976200D01*
X100352000Y-101376200D01*
X120600500Y-101376200D01*
X120600500Y-101595800D01*
X120684537Y-101798683D01*
X120839817Y-101953963D01*
X121042700Y-102038000D01*
X121262300Y-102038000D01*
X121465183Y-101953963D01*
X121620463Y-101798683D01*
X121704500Y-101595800D01*
X121704500Y-101476194D01*
X128100500Y-101476194D01*
X128100500Y-101695794D01*
X128184537Y-101898677D01*
X128339817Y-102053957D01*
X128542700Y-102137994D01*
X128762300Y-102137994D01*
X128965183Y-102053957D01*
X129120463Y-101898677D01*
X129204500Y-101695794D01*
X129204500Y-101476194D01*
X129120463Y-101273311D01*
X128965183Y-101118031D01*
X128762300Y-101033994D01*
X128542700Y-101033994D01*
X128339817Y-101118031D01*
X128184537Y-101273311D01*
X128100500Y-101476194D01*
X121704500Y-101476194D01*
X121704500Y-101376200D01*
X121620463Y-101173317D01*
X121465183Y-101018037D01*
X121262300Y-100934000D01*
X121042700Y-100934000D01*
X120839817Y-101018037D01*
X120684537Y-101173317D01*
X120600500Y-101376200D01*
X100352000Y-101376200D01*
X100352000Y-100352000D01*
X199648001Y-100352000D01*
X199648001Y-105459000D01*
G04 #@! TO.N,/M1_AGND*
G36*
X174925501Y-107193560D02*
X174925500Y-118063396D01*
X174935167Y-118111997D01*
X174962697Y-118153199D01*
X175003899Y-118180729D01*
X175052500Y-118190396D01*
X187352500Y-118190396D01*
X187401101Y-118180729D01*
X187442303Y-118153199D01*
X187469833Y-118111997D01*
X187479500Y-118063396D01*
X187479500Y-115153720D01*
X187620200Y-115212000D01*
X187839800Y-115212000D01*
X188042683Y-115127963D01*
X188197963Y-114972683D01*
X188282000Y-114769800D01*
X188282000Y-114742558D01*
X188284537Y-114748683D01*
X188439817Y-114903963D01*
X188642700Y-114988000D01*
X188862300Y-114988000D01*
X189065183Y-114903963D01*
X189220463Y-114748683D01*
X189304500Y-114545800D01*
X189304500Y-114326200D01*
X189220463Y-114123317D01*
X189065183Y-113968037D01*
X188862300Y-113884000D01*
X188642700Y-113884000D01*
X188439817Y-113968037D01*
X188284537Y-114123317D01*
X188200500Y-114326200D01*
X188200500Y-114353442D01*
X188197963Y-114347317D01*
X188042683Y-114192037D01*
X187839800Y-114108000D01*
X187620200Y-114108000D01*
X187479500Y-114166280D01*
X187479500Y-112923359D01*
X188369426Y-112923359D01*
X188369426Y-113142959D01*
X188453463Y-113345842D01*
X188608743Y-113501122D01*
X188811626Y-113585159D01*
X189031226Y-113585159D01*
X189234109Y-113501122D01*
X189389389Y-113345842D01*
X189473426Y-113142959D01*
X189473426Y-113059310D01*
X189542700Y-113088004D01*
X189762300Y-113088004D01*
X189965183Y-113003967D01*
X190120463Y-112848687D01*
X190204500Y-112645804D01*
X190204500Y-112426204D01*
X190120463Y-112223321D01*
X189965183Y-112068041D01*
X189762300Y-111984004D01*
X189542700Y-111984004D01*
X189339817Y-112068041D01*
X189184537Y-112223321D01*
X189100500Y-112426204D01*
X189100500Y-112509853D01*
X189031226Y-112481159D01*
X188811626Y-112481159D01*
X188608743Y-112565196D01*
X188453463Y-112720476D01*
X188369426Y-112923359D01*
X187479500Y-112923359D01*
X187479500Y-111186523D01*
X187484537Y-111198683D01*
X187639817Y-111353963D01*
X187842700Y-111438000D01*
X188062300Y-111438000D01*
X188152520Y-111400629D01*
X188234557Y-111598683D01*
X188389837Y-111753963D01*
X188592720Y-111838000D01*
X188812320Y-111838000D01*
X189015203Y-111753963D01*
X189052510Y-111716656D01*
X189189817Y-111853963D01*
X189392700Y-111938000D01*
X189612300Y-111938000D01*
X189815183Y-111853963D01*
X189970463Y-111698683D01*
X190054500Y-111495800D01*
X190054500Y-111276200D01*
X189970463Y-111073317D01*
X189815183Y-110918037D01*
X189612300Y-110834000D01*
X189392700Y-110834000D01*
X189189817Y-110918037D01*
X189152510Y-110955344D01*
X189015203Y-110818037D01*
X188812320Y-110734000D01*
X188592720Y-110734000D01*
X188502500Y-110771371D01*
X188420463Y-110573317D01*
X188265183Y-110418037D01*
X188062300Y-110334000D01*
X187842700Y-110334000D01*
X187639817Y-110418037D01*
X187484537Y-110573317D01*
X187479500Y-110585477D01*
X187479500Y-107190396D01*
X199648001Y-107190396D01*
X199648000Y-120036106D01*
X190387866Y-120029449D01*
X190287800Y-119988000D01*
X190068200Y-119988000D01*
X189968861Y-120029148D01*
X171273376Y-120015708D01*
X171274508Y-118826200D01*
X174950500Y-118826200D01*
X174950500Y-119045800D01*
X175034537Y-119248683D01*
X175189817Y-119403963D01*
X175392700Y-119488000D01*
X175612300Y-119488000D01*
X175815183Y-119403963D01*
X175970463Y-119248683D01*
X176054500Y-119045800D01*
X176054500Y-119026200D01*
X180900500Y-119026200D01*
X180900500Y-119245800D01*
X180984537Y-119448683D01*
X181139817Y-119603963D01*
X181342700Y-119688000D01*
X181562300Y-119688000D01*
X181765183Y-119603963D01*
X181920463Y-119448683D01*
X182004500Y-119245800D01*
X182004500Y-119026200D01*
X181920463Y-118823317D01*
X181765183Y-118668037D01*
X181562300Y-118584000D01*
X181342700Y-118584000D01*
X181139817Y-118668037D01*
X180984537Y-118823317D01*
X180900500Y-119026200D01*
X176054500Y-119026200D01*
X176054500Y-118826200D01*
X175970463Y-118623317D01*
X175815183Y-118468037D01*
X175612300Y-118384000D01*
X175392700Y-118384000D01*
X175189817Y-118468037D01*
X175034537Y-118623317D01*
X174950500Y-118826200D01*
X171274508Y-118826200D01*
X171281176Y-111826200D01*
X172800500Y-111826200D01*
X172800500Y-112045800D01*
X172884537Y-112248683D01*
X173039817Y-112403963D01*
X173242700Y-112488000D01*
X173462300Y-112488000D01*
X173665183Y-112403963D01*
X173820463Y-112248683D01*
X173904500Y-112045800D01*
X173904500Y-111826200D01*
X173820463Y-111623317D01*
X173665183Y-111468037D01*
X173462300Y-111384000D01*
X173242700Y-111384000D01*
X173039817Y-111468037D01*
X172884537Y-111623317D01*
X172800500Y-111826200D01*
X171281176Y-111826200D01*
X171285624Y-107157642D01*
X174925501Y-107193560D01*
X174925501Y-107193560D01*
G37*
X174925501Y-107193560D02*
X174925500Y-118063396D01*
X174935167Y-118111997D01*
X174962697Y-118153199D01*
X175003899Y-118180729D01*
X175052500Y-118190396D01*
X187352500Y-118190396D01*
X187401101Y-118180729D01*
X187442303Y-118153199D01*
X187469833Y-118111997D01*
X187479500Y-118063396D01*
X187479500Y-115153720D01*
X187620200Y-115212000D01*
X187839800Y-115212000D01*
X188042683Y-115127963D01*
X188197963Y-114972683D01*
X188282000Y-114769800D01*
X188282000Y-114742558D01*
X188284537Y-114748683D01*
X188439817Y-114903963D01*
X188642700Y-114988000D01*
X188862300Y-114988000D01*
X189065183Y-114903963D01*
X189220463Y-114748683D01*
X189304500Y-114545800D01*
X189304500Y-114326200D01*
X189220463Y-114123317D01*
X189065183Y-113968037D01*
X188862300Y-113884000D01*
X188642700Y-113884000D01*
X188439817Y-113968037D01*
X188284537Y-114123317D01*
X188200500Y-114326200D01*
X188200500Y-114353442D01*
X188197963Y-114347317D01*
X188042683Y-114192037D01*
X187839800Y-114108000D01*
X187620200Y-114108000D01*
X187479500Y-114166280D01*
X187479500Y-112923359D01*
X188369426Y-112923359D01*
X188369426Y-113142959D01*
X188453463Y-113345842D01*
X188608743Y-113501122D01*
X188811626Y-113585159D01*
X189031226Y-113585159D01*
X189234109Y-113501122D01*
X189389389Y-113345842D01*
X189473426Y-113142959D01*
X189473426Y-113059310D01*
X189542700Y-113088004D01*
X189762300Y-113088004D01*
X189965183Y-113003967D01*
X190120463Y-112848687D01*
X190204500Y-112645804D01*
X190204500Y-112426204D01*
X190120463Y-112223321D01*
X189965183Y-112068041D01*
X189762300Y-111984004D01*
X189542700Y-111984004D01*
X189339817Y-112068041D01*
X189184537Y-112223321D01*
X189100500Y-112426204D01*
X189100500Y-112509853D01*
X189031226Y-112481159D01*
X188811626Y-112481159D01*
X188608743Y-112565196D01*
X188453463Y-112720476D01*
X188369426Y-112923359D01*
X187479500Y-112923359D01*
X187479500Y-111186523D01*
X187484537Y-111198683D01*
X187639817Y-111353963D01*
X187842700Y-111438000D01*
X188062300Y-111438000D01*
X188152520Y-111400629D01*
X188234557Y-111598683D01*
X188389837Y-111753963D01*
X188592720Y-111838000D01*
X188812320Y-111838000D01*
X189015203Y-111753963D01*
X189052510Y-111716656D01*
X189189817Y-111853963D01*
X189392700Y-111938000D01*
X189612300Y-111938000D01*
X189815183Y-111853963D01*
X189970463Y-111698683D01*
X190054500Y-111495800D01*
X190054500Y-111276200D01*
X189970463Y-111073317D01*
X189815183Y-110918037D01*
X189612300Y-110834000D01*
X189392700Y-110834000D01*
X189189817Y-110918037D01*
X189152510Y-110955344D01*
X189015203Y-110818037D01*
X188812320Y-110734000D01*
X188592720Y-110734000D01*
X188502500Y-110771371D01*
X188420463Y-110573317D01*
X188265183Y-110418037D01*
X188062300Y-110334000D01*
X187842700Y-110334000D01*
X187639817Y-110418037D01*
X187484537Y-110573317D01*
X187479500Y-110585477D01*
X187479500Y-107190396D01*
X199648001Y-107190396D01*
X199648000Y-120036106D01*
X190387866Y-120029449D01*
X190287800Y-119988000D01*
X190068200Y-119988000D01*
X189968861Y-120029148D01*
X171273376Y-120015708D01*
X171274508Y-118826200D01*
X174950500Y-118826200D01*
X174950500Y-119045800D01*
X175034537Y-119248683D01*
X175189817Y-119403963D01*
X175392700Y-119488000D01*
X175612300Y-119488000D01*
X175815183Y-119403963D01*
X175970463Y-119248683D01*
X176054500Y-119045800D01*
X176054500Y-119026200D01*
X180900500Y-119026200D01*
X180900500Y-119245800D01*
X180984537Y-119448683D01*
X181139817Y-119603963D01*
X181342700Y-119688000D01*
X181562300Y-119688000D01*
X181765183Y-119603963D01*
X181920463Y-119448683D01*
X182004500Y-119245800D01*
X182004500Y-119026200D01*
X181920463Y-118823317D01*
X181765183Y-118668037D01*
X181562300Y-118584000D01*
X181342700Y-118584000D01*
X181139817Y-118668037D01*
X180984537Y-118823317D01*
X180900500Y-119026200D01*
X176054500Y-119026200D01*
X176054500Y-118826200D01*
X175970463Y-118623317D01*
X175815183Y-118468037D01*
X175612300Y-118384000D01*
X175392700Y-118384000D01*
X175189817Y-118468037D01*
X175034537Y-118623317D01*
X174950500Y-118826200D01*
X171274508Y-118826200D01*
X171281176Y-111826200D01*
X172800500Y-111826200D01*
X172800500Y-112045800D01*
X172884537Y-112248683D01*
X173039817Y-112403963D01*
X173242700Y-112488000D01*
X173462300Y-112488000D01*
X173665183Y-112403963D01*
X173820463Y-112248683D01*
X173904500Y-112045800D01*
X173904500Y-111826200D01*
X173820463Y-111623317D01*
X173665183Y-111468037D01*
X173462300Y-111384000D01*
X173242700Y-111384000D01*
X173039817Y-111468037D01*
X172884537Y-111623317D01*
X172800500Y-111826200D01*
X171281176Y-111826200D01*
X171285624Y-107157642D01*
X174925501Y-107193560D01*
G04 #@! TO.N,/M1_DGND*
G36*
X186134886Y-108044000D02*
X186062700Y-108044000D01*
X185859817Y-108128037D01*
X185704537Y-108283317D01*
X185620500Y-108486200D01*
X185620500Y-108655262D01*
X185509992Y-108655262D01*
X185307109Y-108739299D01*
X185151829Y-108894579D01*
X185067792Y-109097462D01*
X185067792Y-109317062D01*
X185105460Y-109408000D01*
X184980209Y-109408000D01*
X184777326Y-109492037D01*
X184622046Y-109647317D01*
X184538009Y-109850200D01*
X184538009Y-110069800D01*
X184622046Y-110272683D01*
X184777326Y-110427963D01*
X184980209Y-110512000D01*
X185199809Y-110512000D01*
X185402692Y-110427963D01*
X185557972Y-110272683D01*
X185642009Y-110069800D01*
X185642009Y-109850200D01*
X185604341Y-109759262D01*
X185729592Y-109759262D01*
X185932475Y-109675225D01*
X186087755Y-109519945D01*
X186147932Y-109374665D01*
X186205121Y-115207975D01*
X186165183Y-115168037D01*
X185962300Y-115084000D01*
X185742700Y-115084000D01*
X185539817Y-115168037D01*
X185384537Y-115323317D01*
X185300500Y-115526200D01*
X185300500Y-115745800D01*
X185384537Y-115948683D01*
X185539817Y-116103963D01*
X185742700Y-116188000D01*
X185962300Y-116188000D01*
X186165183Y-116103963D01*
X186213432Y-116055714D01*
X186224243Y-117158390D01*
X175928878Y-117109597D01*
X175919129Y-115130200D01*
X182508000Y-115130200D01*
X182508000Y-115349800D01*
X182592037Y-115552683D01*
X182747317Y-115707963D01*
X182950200Y-115792000D01*
X183169800Y-115792000D01*
X183372683Y-115707963D01*
X183527963Y-115552683D01*
X183612000Y-115349800D01*
X183612000Y-115130200D01*
X183527963Y-114927317D01*
X183372683Y-114772037D01*
X183169800Y-114688000D01*
X182950200Y-114688000D01*
X182747317Y-114772037D01*
X182592037Y-114927317D01*
X182508000Y-115130200D01*
X175919129Y-115130200D01*
X175909523Y-113180200D01*
X180888000Y-113180200D01*
X180888000Y-113399800D01*
X180972037Y-113602683D01*
X181034354Y-113665000D01*
X180992037Y-113707317D01*
X180908000Y-113910200D01*
X180908000Y-114129800D01*
X180992037Y-114332683D01*
X181147317Y-114487963D01*
X181350200Y-114572000D01*
X181569800Y-114572000D01*
X181772683Y-114487963D01*
X181927963Y-114332683D01*
X182012000Y-114129800D01*
X182012000Y-113910200D01*
X181927963Y-113707317D01*
X181865646Y-113645000D01*
X181907963Y-113602683D01*
X181992000Y-113399800D01*
X181992000Y-113180200D01*
X181907963Y-112977317D01*
X181752683Y-112822037D01*
X181549800Y-112738000D01*
X181330200Y-112738000D01*
X181127317Y-112822037D01*
X180972037Y-112977317D01*
X180888000Y-113180200D01*
X175909523Y-113180200D01*
X175905754Y-112415200D01*
X179673000Y-112415200D01*
X179673000Y-112634800D01*
X179757037Y-112837683D01*
X179912317Y-112992963D01*
X180115200Y-113077000D01*
X180334800Y-113077000D01*
X180537683Y-112992963D01*
X180692963Y-112837683D01*
X180777000Y-112634800D01*
X180777000Y-112530756D01*
X180915200Y-112588000D01*
X181134800Y-112588000D01*
X181337683Y-112503963D01*
X181492963Y-112348683D01*
X181577000Y-112145800D01*
X181577000Y-111926200D01*
X181492963Y-111723317D01*
X181337683Y-111568037D01*
X181315297Y-111558764D01*
X181377000Y-111409800D01*
X181377000Y-111190200D01*
X181292963Y-110987317D01*
X181137683Y-110832037D01*
X180934800Y-110748000D01*
X180715200Y-110748000D01*
X180512317Y-110832037D01*
X180357037Y-110987317D01*
X180273000Y-111190200D01*
X180273000Y-111409800D01*
X180357037Y-111612683D01*
X180512317Y-111767963D01*
X180534703Y-111777236D01*
X180473000Y-111926200D01*
X180473000Y-112030244D01*
X180334800Y-111973000D01*
X180115200Y-111973000D01*
X179912317Y-112057037D01*
X179757037Y-112212317D01*
X179673000Y-112415200D01*
X175905754Y-112415200D01*
X175895089Y-110250200D01*
X181208000Y-110250200D01*
X181208000Y-110469800D01*
X181292037Y-110672683D01*
X181447317Y-110827963D01*
X181650200Y-110912000D01*
X181869800Y-110912000D01*
X182072683Y-110827963D01*
X182227963Y-110672683D01*
X182312000Y-110469800D01*
X182312000Y-110250200D01*
X182227963Y-110047317D01*
X182090846Y-109910200D01*
X182588000Y-109910200D01*
X182588000Y-110129800D01*
X182672037Y-110332683D01*
X182827317Y-110487963D01*
X183030200Y-110572000D01*
X183249800Y-110572000D01*
X183452683Y-110487963D01*
X183607963Y-110332683D01*
X183692000Y-110129800D01*
X183692000Y-109910200D01*
X183607963Y-109707317D01*
X183452683Y-109552037D01*
X183249800Y-109468000D01*
X183030200Y-109468000D01*
X182827317Y-109552037D01*
X182672037Y-109707317D01*
X182588000Y-109910200D01*
X182090846Y-109910200D01*
X182072683Y-109892037D01*
X181869800Y-109808000D01*
X181650200Y-109808000D01*
X181447317Y-109892037D01*
X181292037Y-110047317D01*
X181208000Y-110250200D01*
X175895089Y-110250200D01*
X175880127Y-107213000D01*
X186126739Y-107213000D01*
X186134886Y-108044000D01*
X186134886Y-108044000D01*
G37*
X186134886Y-108044000D02*
X186062700Y-108044000D01*
X185859817Y-108128037D01*
X185704537Y-108283317D01*
X185620500Y-108486200D01*
X185620500Y-108655262D01*
X185509992Y-108655262D01*
X185307109Y-108739299D01*
X185151829Y-108894579D01*
X185067792Y-109097462D01*
X185067792Y-109317062D01*
X185105460Y-109408000D01*
X184980209Y-109408000D01*
X184777326Y-109492037D01*
X184622046Y-109647317D01*
X184538009Y-109850200D01*
X184538009Y-110069800D01*
X184622046Y-110272683D01*
X184777326Y-110427963D01*
X184980209Y-110512000D01*
X185199809Y-110512000D01*
X185402692Y-110427963D01*
X185557972Y-110272683D01*
X185642009Y-110069800D01*
X185642009Y-109850200D01*
X185604341Y-109759262D01*
X185729592Y-109759262D01*
X185932475Y-109675225D01*
X186087755Y-109519945D01*
X186147932Y-109374665D01*
X186205121Y-115207975D01*
X186165183Y-115168037D01*
X185962300Y-115084000D01*
X185742700Y-115084000D01*
X185539817Y-115168037D01*
X185384537Y-115323317D01*
X185300500Y-115526200D01*
X185300500Y-115745800D01*
X185384537Y-115948683D01*
X185539817Y-116103963D01*
X185742700Y-116188000D01*
X185962300Y-116188000D01*
X186165183Y-116103963D01*
X186213432Y-116055714D01*
X186224243Y-117158390D01*
X175928878Y-117109597D01*
X175919129Y-115130200D01*
X182508000Y-115130200D01*
X182508000Y-115349800D01*
X182592037Y-115552683D01*
X182747317Y-115707963D01*
X182950200Y-115792000D01*
X183169800Y-115792000D01*
X183372683Y-115707963D01*
X183527963Y-115552683D01*
X183612000Y-115349800D01*
X183612000Y-115130200D01*
X183527963Y-114927317D01*
X183372683Y-114772037D01*
X183169800Y-114688000D01*
X182950200Y-114688000D01*
X182747317Y-114772037D01*
X182592037Y-114927317D01*
X182508000Y-115130200D01*
X175919129Y-115130200D01*
X175909523Y-113180200D01*
X180888000Y-113180200D01*
X180888000Y-113399800D01*
X180972037Y-113602683D01*
X181034354Y-113665000D01*
X180992037Y-113707317D01*
X180908000Y-113910200D01*
X180908000Y-114129800D01*
X180992037Y-114332683D01*
X181147317Y-114487963D01*
X181350200Y-114572000D01*
X181569800Y-114572000D01*
X181772683Y-114487963D01*
X181927963Y-114332683D01*
X182012000Y-114129800D01*
X182012000Y-113910200D01*
X181927963Y-113707317D01*
X181865646Y-113645000D01*
X181907963Y-113602683D01*
X181992000Y-113399800D01*
X181992000Y-113180200D01*
X181907963Y-112977317D01*
X181752683Y-112822037D01*
X181549800Y-112738000D01*
X181330200Y-112738000D01*
X181127317Y-112822037D01*
X180972037Y-112977317D01*
X180888000Y-113180200D01*
X175909523Y-113180200D01*
X175905754Y-112415200D01*
X179673000Y-112415200D01*
X179673000Y-112634800D01*
X179757037Y-112837683D01*
X179912317Y-112992963D01*
X180115200Y-113077000D01*
X180334800Y-113077000D01*
X180537683Y-112992963D01*
X180692963Y-112837683D01*
X180777000Y-112634800D01*
X180777000Y-112530756D01*
X180915200Y-112588000D01*
X181134800Y-112588000D01*
X181337683Y-112503963D01*
X181492963Y-112348683D01*
X181577000Y-112145800D01*
X181577000Y-111926200D01*
X181492963Y-111723317D01*
X181337683Y-111568037D01*
X181315297Y-111558764D01*
X181377000Y-111409800D01*
X181377000Y-111190200D01*
X181292963Y-110987317D01*
X181137683Y-110832037D01*
X180934800Y-110748000D01*
X180715200Y-110748000D01*
X180512317Y-110832037D01*
X180357037Y-110987317D01*
X180273000Y-111190200D01*
X180273000Y-111409800D01*
X180357037Y-111612683D01*
X180512317Y-111767963D01*
X180534703Y-111777236D01*
X180473000Y-111926200D01*
X180473000Y-112030244D01*
X180334800Y-111973000D01*
X180115200Y-111973000D01*
X179912317Y-112057037D01*
X179757037Y-112212317D01*
X179673000Y-112415200D01*
X175905754Y-112415200D01*
X175895089Y-110250200D01*
X181208000Y-110250200D01*
X181208000Y-110469800D01*
X181292037Y-110672683D01*
X181447317Y-110827963D01*
X181650200Y-110912000D01*
X181869800Y-110912000D01*
X182072683Y-110827963D01*
X182227963Y-110672683D01*
X182312000Y-110469800D01*
X182312000Y-110250200D01*
X182227963Y-110047317D01*
X182090846Y-109910200D01*
X182588000Y-109910200D01*
X182588000Y-110129800D01*
X182672037Y-110332683D01*
X182827317Y-110487963D01*
X183030200Y-110572000D01*
X183249800Y-110572000D01*
X183452683Y-110487963D01*
X183607963Y-110332683D01*
X183692000Y-110129800D01*
X183692000Y-109910200D01*
X183607963Y-109707317D01*
X183452683Y-109552037D01*
X183249800Y-109468000D01*
X183030200Y-109468000D01*
X182827317Y-109552037D01*
X182672037Y-109707317D01*
X182588000Y-109910200D01*
X182090846Y-109910200D01*
X182072683Y-109892037D01*
X181869800Y-109808000D01*
X181650200Y-109808000D01*
X181447317Y-109892037D01*
X181292037Y-110047317D01*
X181208000Y-110250200D01*
X175895089Y-110250200D01*
X175880127Y-107213000D01*
X186126739Y-107213000D01*
X186134886Y-108044000D01*
G04 #@! TD*
M02*
