G04 #@! TF.GenerationSoftware,KiCad,Pcbnew,5.0.2+dfsg1-1~bpo9+1*
G04 #@! TF.CreationDate,2019-09-11T09:46:49+02:00*
G04 #@! TF.ProjectId,OV9281,4f563932-3831-42e6-9b69-6361645f7063,rev?*
G04 #@! TF.SameCoordinates,Original*
G04 #@! TF.FileFunction,Soldermask,Bot*
G04 #@! TF.FilePolarity,Negative*
%FSLAX46Y46*%
G04 Gerber Fmt 4.6, Leading zero omitted, Abs format (unit mm)*
G04 Created by KiCad (PCBNEW 5.0.2+dfsg1-1~bpo9+1) date Wed 11 Sep 2019 09:46:49 AM CEST*
%MOMM*%
%LPD*%
G01*
G04 APERTURE LIST*
%ADD10C,0.100000*%
G04 APERTURE END LIST*
D10*
G36*
X187043837Y-110616763D02*
X187075867Y-110630030D01*
X187104694Y-110649292D01*
X187129208Y-110673806D01*
X187148470Y-110702633D01*
X187161737Y-110734663D01*
X187168500Y-110768665D01*
X187168500Y-110803335D01*
X187161737Y-110837337D01*
X187148470Y-110869367D01*
X187129208Y-110898194D01*
X187104694Y-110922708D01*
X187090683Y-110932070D01*
X187071746Y-110947612D01*
X187056200Y-110966554D01*
X187044649Y-110988165D01*
X187037536Y-111011614D01*
X187035134Y-111036000D01*
X187037536Y-111060386D01*
X187044649Y-111083835D01*
X187056200Y-111105446D01*
X187071746Y-111124388D01*
X187090683Y-111139930D01*
X187104694Y-111149292D01*
X187129208Y-111173806D01*
X187148470Y-111202633D01*
X187161737Y-111234663D01*
X187168500Y-111268665D01*
X187168500Y-111303335D01*
X187161737Y-111337337D01*
X187148470Y-111369367D01*
X187129208Y-111398194D01*
X187104694Y-111422708D01*
X187090683Y-111432070D01*
X187071746Y-111447612D01*
X187056200Y-111466554D01*
X187044649Y-111488165D01*
X187037536Y-111511614D01*
X187035134Y-111536000D01*
X187037536Y-111560386D01*
X187044649Y-111583835D01*
X187056200Y-111605446D01*
X187071746Y-111624388D01*
X187090683Y-111639930D01*
X187104694Y-111649292D01*
X187129208Y-111673806D01*
X187148470Y-111702633D01*
X187161737Y-111734663D01*
X187168500Y-111768665D01*
X187168500Y-111803335D01*
X187161737Y-111837337D01*
X187148470Y-111869367D01*
X187129208Y-111898194D01*
X187104694Y-111922708D01*
X187090683Y-111932070D01*
X187071746Y-111947612D01*
X187056200Y-111966554D01*
X187044649Y-111988165D01*
X187037536Y-112011614D01*
X187035134Y-112036000D01*
X187037536Y-112060386D01*
X187044649Y-112083835D01*
X187056200Y-112105446D01*
X187071746Y-112124388D01*
X187090683Y-112139930D01*
X187104694Y-112149292D01*
X187129208Y-112173806D01*
X187148470Y-112202633D01*
X187161737Y-112234663D01*
X187168500Y-112268665D01*
X187168500Y-112303335D01*
X187161737Y-112337337D01*
X187148470Y-112369367D01*
X187129208Y-112398194D01*
X187104694Y-112422708D01*
X187090683Y-112432070D01*
X187071746Y-112447612D01*
X187056200Y-112466554D01*
X187044649Y-112488165D01*
X187037536Y-112511614D01*
X187035134Y-112536000D01*
X187037536Y-112560386D01*
X187044649Y-112583835D01*
X187056200Y-112605446D01*
X187071746Y-112624388D01*
X187090683Y-112639930D01*
X187104694Y-112649292D01*
X187129208Y-112673806D01*
X187148470Y-112702633D01*
X187161737Y-112734663D01*
X187168500Y-112768665D01*
X187168500Y-112803335D01*
X187161737Y-112837337D01*
X187148470Y-112869367D01*
X187129208Y-112898194D01*
X187104694Y-112922708D01*
X187090683Y-112932070D01*
X187071746Y-112947612D01*
X187056200Y-112966554D01*
X187044649Y-112988165D01*
X187037536Y-113011614D01*
X187035134Y-113036000D01*
X187037536Y-113060386D01*
X187044649Y-113083835D01*
X187056200Y-113105446D01*
X187071746Y-113124388D01*
X187090683Y-113139930D01*
X187104694Y-113149292D01*
X187129208Y-113173806D01*
X187148470Y-113202633D01*
X187161737Y-113234663D01*
X187168500Y-113268665D01*
X187168500Y-113303335D01*
X187161737Y-113337337D01*
X187148470Y-113369367D01*
X187129208Y-113398194D01*
X187104694Y-113422708D01*
X187090683Y-113432070D01*
X187071746Y-113447612D01*
X187056200Y-113466554D01*
X187044649Y-113488165D01*
X187037536Y-113511614D01*
X187035134Y-113536000D01*
X187037536Y-113560386D01*
X187044649Y-113583835D01*
X187056200Y-113605446D01*
X187071746Y-113624388D01*
X187090683Y-113639930D01*
X187104694Y-113649292D01*
X187129208Y-113673806D01*
X187148470Y-113702633D01*
X187161737Y-113734663D01*
X187168500Y-113768665D01*
X187168500Y-113803335D01*
X187161737Y-113837337D01*
X187148470Y-113869367D01*
X187129208Y-113898194D01*
X187104694Y-113922708D01*
X187090683Y-113932070D01*
X187071746Y-113947612D01*
X187056200Y-113966554D01*
X187044649Y-113988165D01*
X187037536Y-114011614D01*
X187035134Y-114036000D01*
X187037536Y-114060386D01*
X187044649Y-114083835D01*
X187056200Y-114105446D01*
X187071746Y-114124388D01*
X187090683Y-114139930D01*
X187104694Y-114149292D01*
X187129208Y-114173806D01*
X187148470Y-114202633D01*
X187161737Y-114234663D01*
X187168500Y-114268665D01*
X187168500Y-114303335D01*
X187161737Y-114337337D01*
X187148470Y-114369367D01*
X187129208Y-114398194D01*
X187104694Y-114422708D01*
X187075867Y-114441970D01*
X187043837Y-114455237D01*
X187009835Y-114462000D01*
X186975165Y-114462000D01*
X186941163Y-114455237D01*
X186909133Y-114441970D01*
X186880306Y-114422708D01*
X186855792Y-114398194D01*
X186836530Y-114369367D01*
X186823263Y-114337337D01*
X186816500Y-114303335D01*
X186816500Y-114268665D01*
X186823263Y-114234663D01*
X186836530Y-114202633D01*
X186855792Y-114173806D01*
X186880306Y-114149292D01*
X186894317Y-114139930D01*
X186913254Y-114124388D01*
X186928800Y-114105446D01*
X186940351Y-114083835D01*
X186947464Y-114060386D01*
X186949866Y-114036000D01*
X186947464Y-114011614D01*
X186940351Y-113988165D01*
X186928800Y-113966554D01*
X186913254Y-113947612D01*
X186894317Y-113932070D01*
X186880306Y-113922708D01*
X186855792Y-113898194D01*
X186836530Y-113869367D01*
X186823263Y-113837337D01*
X186816500Y-113803335D01*
X186816500Y-113768665D01*
X186823263Y-113734663D01*
X186836530Y-113702633D01*
X186855792Y-113673806D01*
X186880306Y-113649292D01*
X186894317Y-113639930D01*
X186913254Y-113624388D01*
X186928800Y-113605446D01*
X186940351Y-113583835D01*
X186947464Y-113560386D01*
X186949866Y-113536000D01*
X186947464Y-113511614D01*
X186940351Y-113488165D01*
X186928800Y-113466554D01*
X186913254Y-113447612D01*
X186894317Y-113432070D01*
X186880306Y-113422708D01*
X186855792Y-113398194D01*
X186836530Y-113369367D01*
X186823263Y-113337337D01*
X186816500Y-113303335D01*
X186816500Y-113268665D01*
X186823263Y-113234663D01*
X186836530Y-113202633D01*
X186855792Y-113173806D01*
X186880306Y-113149292D01*
X186894317Y-113139930D01*
X186913254Y-113124388D01*
X186928800Y-113105446D01*
X186940351Y-113083835D01*
X186947464Y-113060386D01*
X186949866Y-113036000D01*
X186947464Y-113011614D01*
X186940351Y-112988165D01*
X186928800Y-112966554D01*
X186913254Y-112947612D01*
X186894317Y-112932070D01*
X186880306Y-112922708D01*
X186855792Y-112898194D01*
X186836530Y-112869367D01*
X186823263Y-112837337D01*
X186816500Y-112803335D01*
X186816500Y-112768665D01*
X186823263Y-112734663D01*
X186836530Y-112702633D01*
X186855792Y-112673806D01*
X186880306Y-112649292D01*
X186894317Y-112639930D01*
X186913254Y-112624388D01*
X186928800Y-112605446D01*
X186940351Y-112583835D01*
X186947464Y-112560386D01*
X186949866Y-112536000D01*
X186947464Y-112511614D01*
X186940351Y-112488165D01*
X186928800Y-112466554D01*
X186913254Y-112447612D01*
X186894317Y-112432070D01*
X186880306Y-112422708D01*
X186855792Y-112398194D01*
X186836530Y-112369367D01*
X186823263Y-112337337D01*
X186816500Y-112303335D01*
X186816500Y-112268665D01*
X186823263Y-112234663D01*
X186836530Y-112202633D01*
X186855792Y-112173806D01*
X186880306Y-112149292D01*
X186894317Y-112139930D01*
X186913254Y-112124388D01*
X186928800Y-112105446D01*
X186940351Y-112083835D01*
X186947464Y-112060386D01*
X186949866Y-112036000D01*
X186947464Y-112011614D01*
X186940351Y-111988165D01*
X186928800Y-111966554D01*
X186913254Y-111947612D01*
X186894317Y-111932070D01*
X186880306Y-111922708D01*
X186855792Y-111898194D01*
X186836530Y-111869367D01*
X186823263Y-111837337D01*
X186816500Y-111803335D01*
X186816500Y-111768665D01*
X186823263Y-111734663D01*
X186836530Y-111702633D01*
X186855792Y-111673806D01*
X186880306Y-111649292D01*
X186894317Y-111639930D01*
X186913254Y-111624388D01*
X186928800Y-111605446D01*
X186940351Y-111583835D01*
X186947464Y-111560386D01*
X186949866Y-111536000D01*
X186947464Y-111511614D01*
X186940351Y-111488165D01*
X186928800Y-111466554D01*
X186913254Y-111447612D01*
X186894317Y-111432070D01*
X186880306Y-111422708D01*
X186855792Y-111398194D01*
X186836530Y-111369367D01*
X186823263Y-111337337D01*
X186816500Y-111303335D01*
X186816500Y-111268665D01*
X186823263Y-111234663D01*
X186836530Y-111202633D01*
X186855792Y-111173806D01*
X186880306Y-111149292D01*
X186894317Y-111139930D01*
X186913254Y-111124388D01*
X186928800Y-111105446D01*
X186940351Y-111083835D01*
X186947464Y-111060386D01*
X186949866Y-111036000D01*
X186947464Y-111011614D01*
X186940351Y-110988165D01*
X186928800Y-110966554D01*
X186913254Y-110947612D01*
X186894317Y-110932070D01*
X186880306Y-110922708D01*
X186855792Y-110898194D01*
X186836530Y-110869367D01*
X186823263Y-110837337D01*
X186816500Y-110803335D01*
X186816500Y-110768665D01*
X186823263Y-110734663D01*
X186836530Y-110702633D01*
X186855792Y-110673806D01*
X186880306Y-110649292D01*
X186909133Y-110630030D01*
X186941163Y-110616763D01*
X186975165Y-110610000D01*
X187009835Y-110610000D01*
X187043837Y-110616763D01*
X187043837Y-110616763D01*
G37*
G36*
X116403837Y-110616763D02*
X116435867Y-110630030D01*
X116464694Y-110649292D01*
X116489208Y-110673806D01*
X116508470Y-110702633D01*
X116521737Y-110734663D01*
X116528500Y-110768665D01*
X116528500Y-110803335D01*
X116521737Y-110837337D01*
X116508470Y-110869367D01*
X116489208Y-110898194D01*
X116464694Y-110922708D01*
X116450683Y-110932070D01*
X116431746Y-110947612D01*
X116416200Y-110966554D01*
X116404649Y-110988165D01*
X116397536Y-111011614D01*
X116395134Y-111036000D01*
X116397536Y-111060386D01*
X116404649Y-111083835D01*
X116416200Y-111105446D01*
X116431746Y-111124388D01*
X116450683Y-111139930D01*
X116464694Y-111149292D01*
X116489208Y-111173806D01*
X116508470Y-111202633D01*
X116521737Y-111234663D01*
X116528500Y-111268665D01*
X116528500Y-111303335D01*
X116521737Y-111337337D01*
X116508470Y-111369367D01*
X116489208Y-111398194D01*
X116464694Y-111422708D01*
X116450683Y-111432070D01*
X116431746Y-111447612D01*
X116416200Y-111466554D01*
X116404649Y-111488165D01*
X116397536Y-111511614D01*
X116395134Y-111536000D01*
X116397536Y-111560386D01*
X116404649Y-111583835D01*
X116416200Y-111605446D01*
X116431746Y-111624388D01*
X116450683Y-111639930D01*
X116464694Y-111649292D01*
X116489208Y-111673806D01*
X116508470Y-111702633D01*
X116521737Y-111734663D01*
X116528500Y-111768665D01*
X116528500Y-111803335D01*
X116521737Y-111837337D01*
X116508470Y-111869367D01*
X116489208Y-111898194D01*
X116464694Y-111922708D01*
X116450683Y-111932070D01*
X116431746Y-111947612D01*
X116416200Y-111966554D01*
X116404649Y-111988165D01*
X116397536Y-112011614D01*
X116395134Y-112036000D01*
X116397536Y-112060386D01*
X116404649Y-112083835D01*
X116416200Y-112105446D01*
X116431746Y-112124388D01*
X116450683Y-112139930D01*
X116464694Y-112149292D01*
X116489208Y-112173806D01*
X116508470Y-112202633D01*
X116521737Y-112234663D01*
X116528500Y-112268665D01*
X116528500Y-112303335D01*
X116521737Y-112337337D01*
X116508470Y-112369367D01*
X116489208Y-112398194D01*
X116464694Y-112422708D01*
X116450683Y-112432070D01*
X116431746Y-112447612D01*
X116416200Y-112466554D01*
X116404649Y-112488165D01*
X116397536Y-112511614D01*
X116395134Y-112536000D01*
X116397536Y-112560386D01*
X116404649Y-112583835D01*
X116416200Y-112605446D01*
X116431746Y-112624388D01*
X116450683Y-112639930D01*
X116464694Y-112649292D01*
X116489208Y-112673806D01*
X116508470Y-112702633D01*
X116521737Y-112734663D01*
X116528500Y-112768665D01*
X116528500Y-112803335D01*
X116521737Y-112837337D01*
X116508470Y-112869367D01*
X116489208Y-112898194D01*
X116464694Y-112922708D01*
X116450683Y-112932070D01*
X116431746Y-112947612D01*
X116416200Y-112966554D01*
X116404649Y-112988165D01*
X116397536Y-113011614D01*
X116395134Y-113036000D01*
X116397536Y-113060386D01*
X116404649Y-113083835D01*
X116416200Y-113105446D01*
X116431746Y-113124388D01*
X116450683Y-113139930D01*
X116464694Y-113149292D01*
X116489208Y-113173806D01*
X116508470Y-113202633D01*
X116521737Y-113234663D01*
X116528500Y-113268665D01*
X116528500Y-113303335D01*
X116521737Y-113337337D01*
X116508470Y-113369367D01*
X116489208Y-113398194D01*
X116464694Y-113422708D01*
X116450683Y-113432070D01*
X116431746Y-113447612D01*
X116416200Y-113466554D01*
X116404649Y-113488165D01*
X116397536Y-113511614D01*
X116395134Y-113536000D01*
X116397536Y-113560386D01*
X116404649Y-113583835D01*
X116416200Y-113605446D01*
X116431746Y-113624388D01*
X116450683Y-113639930D01*
X116464694Y-113649292D01*
X116489208Y-113673806D01*
X116508470Y-113702633D01*
X116521737Y-113734663D01*
X116528500Y-113768665D01*
X116528500Y-113803335D01*
X116521737Y-113837337D01*
X116508470Y-113869367D01*
X116489208Y-113898194D01*
X116464694Y-113922708D01*
X116450683Y-113932070D01*
X116431746Y-113947612D01*
X116416200Y-113966554D01*
X116404649Y-113988165D01*
X116397536Y-114011614D01*
X116395134Y-114036000D01*
X116397536Y-114060386D01*
X116404649Y-114083835D01*
X116416200Y-114105446D01*
X116431746Y-114124388D01*
X116450683Y-114139930D01*
X116464694Y-114149292D01*
X116489208Y-114173806D01*
X116508470Y-114202633D01*
X116521737Y-114234663D01*
X116528500Y-114268665D01*
X116528500Y-114303335D01*
X116521737Y-114337337D01*
X116508470Y-114369367D01*
X116489208Y-114398194D01*
X116464694Y-114422708D01*
X116435867Y-114441970D01*
X116403837Y-114455237D01*
X116369835Y-114462000D01*
X116335165Y-114462000D01*
X116301163Y-114455237D01*
X116269133Y-114441970D01*
X116240306Y-114422708D01*
X116215792Y-114398194D01*
X116196530Y-114369367D01*
X116183263Y-114337337D01*
X116176500Y-114303335D01*
X116176500Y-114268665D01*
X116183263Y-114234663D01*
X116196530Y-114202633D01*
X116215792Y-114173806D01*
X116240306Y-114149292D01*
X116254317Y-114139930D01*
X116273254Y-114124388D01*
X116288800Y-114105446D01*
X116300351Y-114083835D01*
X116307464Y-114060386D01*
X116309866Y-114036000D01*
X116307464Y-114011614D01*
X116300351Y-113988165D01*
X116288800Y-113966554D01*
X116273254Y-113947612D01*
X116254317Y-113932070D01*
X116240306Y-113922708D01*
X116215792Y-113898194D01*
X116196530Y-113869367D01*
X116183263Y-113837337D01*
X116176500Y-113803335D01*
X116176500Y-113768665D01*
X116183263Y-113734663D01*
X116196530Y-113702633D01*
X116215792Y-113673806D01*
X116240306Y-113649292D01*
X116254317Y-113639930D01*
X116273254Y-113624388D01*
X116288800Y-113605446D01*
X116300351Y-113583835D01*
X116307464Y-113560386D01*
X116309866Y-113536000D01*
X116307464Y-113511614D01*
X116300351Y-113488165D01*
X116288800Y-113466554D01*
X116273254Y-113447612D01*
X116254317Y-113432070D01*
X116240306Y-113422708D01*
X116215792Y-113398194D01*
X116196530Y-113369367D01*
X116183263Y-113337337D01*
X116176500Y-113303335D01*
X116176500Y-113268665D01*
X116183263Y-113234663D01*
X116196530Y-113202633D01*
X116215792Y-113173806D01*
X116240306Y-113149292D01*
X116254317Y-113139930D01*
X116273254Y-113124388D01*
X116288800Y-113105446D01*
X116300351Y-113083835D01*
X116307464Y-113060386D01*
X116309866Y-113036000D01*
X116307464Y-113011614D01*
X116300351Y-112988165D01*
X116288800Y-112966554D01*
X116273254Y-112947612D01*
X116254317Y-112932070D01*
X116240306Y-112922708D01*
X116215792Y-112898194D01*
X116196530Y-112869367D01*
X116183263Y-112837337D01*
X116176500Y-112803335D01*
X116176500Y-112768665D01*
X116183263Y-112734663D01*
X116196530Y-112702633D01*
X116215792Y-112673806D01*
X116240306Y-112649292D01*
X116254317Y-112639930D01*
X116273254Y-112624388D01*
X116288800Y-112605446D01*
X116300351Y-112583835D01*
X116307464Y-112560386D01*
X116309866Y-112536000D01*
X116307464Y-112511614D01*
X116300351Y-112488165D01*
X116288800Y-112466554D01*
X116273254Y-112447612D01*
X116254317Y-112432070D01*
X116240306Y-112422708D01*
X116215792Y-112398194D01*
X116196530Y-112369367D01*
X116183263Y-112337337D01*
X116176500Y-112303335D01*
X116176500Y-112268665D01*
X116183263Y-112234663D01*
X116196530Y-112202633D01*
X116215792Y-112173806D01*
X116240306Y-112149292D01*
X116254317Y-112139930D01*
X116273254Y-112124388D01*
X116288800Y-112105446D01*
X116300351Y-112083835D01*
X116307464Y-112060386D01*
X116309866Y-112036000D01*
X116307464Y-112011614D01*
X116300351Y-111988165D01*
X116288800Y-111966554D01*
X116273254Y-111947612D01*
X116254317Y-111932070D01*
X116240306Y-111922708D01*
X116215792Y-111898194D01*
X116196530Y-111869367D01*
X116183263Y-111837337D01*
X116176500Y-111803335D01*
X116176500Y-111768665D01*
X116183263Y-111734663D01*
X116196530Y-111702633D01*
X116215792Y-111673806D01*
X116240306Y-111649292D01*
X116254317Y-111639930D01*
X116273254Y-111624388D01*
X116288800Y-111605446D01*
X116300351Y-111583835D01*
X116307464Y-111560386D01*
X116309866Y-111536000D01*
X116307464Y-111511614D01*
X116300351Y-111488165D01*
X116288800Y-111466554D01*
X116273254Y-111447612D01*
X116254317Y-111432070D01*
X116240306Y-111422708D01*
X116215792Y-111398194D01*
X116196530Y-111369367D01*
X116183263Y-111337337D01*
X116176500Y-111303335D01*
X116176500Y-111268665D01*
X116183263Y-111234663D01*
X116196530Y-111202633D01*
X116215792Y-111173806D01*
X116240306Y-111149292D01*
X116254317Y-111139930D01*
X116273254Y-111124388D01*
X116288800Y-111105446D01*
X116300351Y-111083835D01*
X116307464Y-111060386D01*
X116309866Y-111036000D01*
X116307464Y-111011614D01*
X116300351Y-110988165D01*
X116288800Y-110966554D01*
X116273254Y-110947612D01*
X116254317Y-110932070D01*
X116240306Y-110922708D01*
X116215792Y-110898194D01*
X116196530Y-110869367D01*
X116183263Y-110837337D01*
X116176500Y-110803335D01*
X116176500Y-110768665D01*
X116183263Y-110734663D01*
X116196530Y-110702633D01*
X116215792Y-110673806D01*
X116240306Y-110649292D01*
X116269133Y-110630030D01*
X116301163Y-110616763D01*
X116335165Y-110610000D01*
X116369835Y-110610000D01*
X116403837Y-110616763D01*
X116403837Y-110616763D01*
G37*
G36*
X115763837Y-110616763D02*
X115795867Y-110630030D01*
X115824694Y-110649292D01*
X115849208Y-110673806D01*
X115868470Y-110702633D01*
X115881737Y-110734663D01*
X115888500Y-110768665D01*
X115888500Y-110803335D01*
X115881737Y-110837337D01*
X115868470Y-110869367D01*
X115849208Y-110898194D01*
X115824694Y-110922708D01*
X115810683Y-110932070D01*
X115791746Y-110947612D01*
X115776200Y-110966554D01*
X115764649Y-110988165D01*
X115757536Y-111011614D01*
X115755134Y-111036000D01*
X115757536Y-111060386D01*
X115764649Y-111083835D01*
X115776200Y-111105446D01*
X115791746Y-111124388D01*
X115810683Y-111139930D01*
X115824694Y-111149292D01*
X115849208Y-111173806D01*
X115868470Y-111202633D01*
X115881737Y-111234663D01*
X115888500Y-111268665D01*
X115888500Y-111303335D01*
X115881737Y-111337337D01*
X115868470Y-111369367D01*
X115849208Y-111398194D01*
X115824694Y-111422708D01*
X115810683Y-111432070D01*
X115791746Y-111447612D01*
X115776200Y-111466554D01*
X115764649Y-111488165D01*
X115757536Y-111511614D01*
X115755134Y-111536000D01*
X115757536Y-111560386D01*
X115764649Y-111583835D01*
X115776200Y-111605446D01*
X115791746Y-111624388D01*
X115810683Y-111639930D01*
X115824694Y-111649292D01*
X115849208Y-111673806D01*
X115868470Y-111702633D01*
X115881737Y-111734663D01*
X115888500Y-111768665D01*
X115888500Y-111803335D01*
X115881737Y-111837337D01*
X115868470Y-111869367D01*
X115849208Y-111898194D01*
X115824694Y-111922708D01*
X115810683Y-111932070D01*
X115791746Y-111947612D01*
X115776200Y-111966554D01*
X115764649Y-111988165D01*
X115757536Y-112011614D01*
X115755134Y-112036000D01*
X115757536Y-112060386D01*
X115764649Y-112083835D01*
X115776200Y-112105446D01*
X115791746Y-112124388D01*
X115810683Y-112139930D01*
X115824694Y-112149292D01*
X115849208Y-112173806D01*
X115868470Y-112202633D01*
X115881737Y-112234663D01*
X115888500Y-112268665D01*
X115888500Y-112303335D01*
X115881737Y-112337337D01*
X115868470Y-112369367D01*
X115849208Y-112398194D01*
X115824694Y-112422708D01*
X115810683Y-112432070D01*
X115791746Y-112447612D01*
X115776200Y-112466554D01*
X115764649Y-112488165D01*
X115757536Y-112511614D01*
X115755134Y-112536000D01*
X115757536Y-112560386D01*
X115764649Y-112583835D01*
X115776200Y-112605446D01*
X115791746Y-112624388D01*
X115810683Y-112639930D01*
X115824694Y-112649292D01*
X115849208Y-112673806D01*
X115868470Y-112702633D01*
X115881737Y-112734663D01*
X115888500Y-112768665D01*
X115888500Y-112803335D01*
X115881737Y-112837337D01*
X115868470Y-112869367D01*
X115849208Y-112898194D01*
X115824694Y-112922708D01*
X115810683Y-112932070D01*
X115791746Y-112947612D01*
X115776200Y-112966554D01*
X115764649Y-112988165D01*
X115757536Y-113011614D01*
X115755134Y-113036000D01*
X115757536Y-113060386D01*
X115764649Y-113083835D01*
X115776200Y-113105446D01*
X115791746Y-113124388D01*
X115810683Y-113139930D01*
X115824694Y-113149292D01*
X115849208Y-113173806D01*
X115868470Y-113202633D01*
X115881737Y-113234663D01*
X115888500Y-113268665D01*
X115888500Y-113303335D01*
X115881737Y-113337337D01*
X115868470Y-113369367D01*
X115849208Y-113398194D01*
X115824694Y-113422708D01*
X115810683Y-113432070D01*
X115791746Y-113447612D01*
X115776200Y-113466554D01*
X115764649Y-113488165D01*
X115757536Y-113511614D01*
X115755134Y-113536000D01*
X115757536Y-113560386D01*
X115764649Y-113583835D01*
X115776200Y-113605446D01*
X115791746Y-113624388D01*
X115810683Y-113639930D01*
X115824694Y-113649292D01*
X115849208Y-113673806D01*
X115868470Y-113702633D01*
X115881737Y-113734663D01*
X115888500Y-113768665D01*
X115888500Y-113803335D01*
X115881737Y-113837337D01*
X115868470Y-113869367D01*
X115849208Y-113898194D01*
X115824694Y-113922708D01*
X115810683Y-113932070D01*
X115791746Y-113947612D01*
X115776200Y-113966554D01*
X115764649Y-113988165D01*
X115757536Y-114011614D01*
X115755134Y-114036000D01*
X115757536Y-114060386D01*
X115764649Y-114083835D01*
X115776200Y-114105446D01*
X115791746Y-114124388D01*
X115810683Y-114139930D01*
X115824694Y-114149292D01*
X115849208Y-114173806D01*
X115868470Y-114202633D01*
X115881737Y-114234663D01*
X115888500Y-114268665D01*
X115888500Y-114303335D01*
X115881737Y-114337337D01*
X115868470Y-114369367D01*
X115849208Y-114398194D01*
X115824694Y-114422708D01*
X115795867Y-114441970D01*
X115763837Y-114455237D01*
X115729835Y-114462000D01*
X115695165Y-114462000D01*
X115661163Y-114455237D01*
X115629133Y-114441970D01*
X115600306Y-114422708D01*
X115575792Y-114398194D01*
X115556530Y-114369367D01*
X115543263Y-114337337D01*
X115536500Y-114303335D01*
X115536500Y-114268665D01*
X115543263Y-114234663D01*
X115556530Y-114202633D01*
X115575792Y-114173806D01*
X115600306Y-114149292D01*
X115614317Y-114139930D01*
X115633254Y-114124388D01*
X115648800Y-114105446D01*
X115660351Y-114083835D01*
X115667464Y-114060386D01*
X115669866Y-114036000D01*
X115667464Y-114011614D01*
X115660351Y-113988165D01*
X115648800Y-113966554D01*
X115633254Y-113947612D01*
X115614317Y-113932070D01*
X115600306Y-113922708D01*
X115575792Y-113898194D01*
X115556530Y-113869367D01*
X115543263Y-113837337D01*
X115536500Y-113803335D01*
X115536500Y-113768665D01*
X115543263Y-113734663D01*
X115556530Y-113702633D01*
X115575792Y-113673806D01*
X115600306Y-113649292D01*
X115614317Y-113639930D01*
X115633254Y-113624388D01*
X115648800Y-113605446D01*
X115660351Y-113583835D01*
X115667464Y-113560386D01*
X115669866Y-113536000D01*
X115667464Y-113511614D01*
X115660351Y-113488165D01*
X115648800Y-113466554D01*
X115633254Y-113447612D01*
X115614317Y-113432070D01*
X115600306Y-113422708D01*
X115575792Y-113398194D01*
X115556530Y-113369367D01*
X115543263Y-113337337D01*
X115536500Y-113303335D01*
X115536500Y-113268665D01*
X115543263Y-113234663D01*
X115556530Y-113202633D01*
X115575792Y-113173806D01*
X115600306Y-113149292D01*
X115614317Y-113139930D01*
X115633254Y-113124388D01*
X115648800Y-113105446D01*
X115660351Y-113083835D01*
X115667464Y-113060386D01*
X115669866Y-113036000D01*
X115667464Y-113011614D01*
X115660351Y-112988165D01*
X115648800Y-112966554D01*
X115633254Y-112947612D01*
X115614317Y-112932070D01*
X115600306Y-112922708D01*
X115575792Y-112898194D01*
X115556530Y-112869367D01*
X115543263Y-112837337D01*
X115536500Y-112803335D01*
X115536500Y-112768665D01*
X115543263Y-112734663D01*
X115556530Y-112702633D01*
X115575792Y-112673806D01*
X115600306Y-112649292D01*
X115614317Y-112639930D01*
X115633254Y-112624388D01*
X115648800Y-112605446D01*
X115660351Y-112583835D01*
X115667464Y-112560386D01*
X115669866Y-112536000D01*
X115667464Y-112511614D01*
X115660351Y-112488165D01*
X115648800Y-112466554D01*
X115633254Y-112447612D01*
X115614317Y-112432070D01*
X115600306Y-112422708D01*
X115575792Y-112398194D01*
X115556530Y-112369367D01*
X115543263Y-112337337D01*
X115536500Y-112303335D01*
X115536500Y-112268665D01*
X115543263Y-112234663D01*
X115556530Y-112202633D01*
X115575792Y-112173806D01*
X115600306Y-112149292D01*
X115614317Y-112139930D01*
X115633254Y-112124388D01*
X115648800Y-112105446D01*
X115660351Y-112083835D01*
X115667464Y-112060386D01*
X115669866Y-112036000D01*
X115667464Y-112011614D01*
X115660351Y-111988165D01*
X115648800Y-111966554D01*
X115633254Y-111947612D01*
X115614317Y-111932070D01*
X115600306Y-111922708D01*
X115575792Y-111898194D01*
X115556530Y-111869367D01*
X115543263Y-111837337D01*
X115536500Y-111803335D01*
X115536500Y-111768665D01*
X115543263Y-111734663D01*
X115556530Y-111702633D01*
X115575792Y-111673806D01*
X115600306Y-111649292D01*
X115614317Y-111639930D01*
X115633254Y-111624388D01*
X115648800Y-111605446D01*
X115660351Y-111583835D01*
X115667464Y-111560386D01*
X115669866Y-111536000D01*
X115667464Y-111511614D01*
X115660351Y-111488165D01*
X115648800Y-111466554D01*
X115633254Y-111447612D01*
X115614317Y-111432070D01*
X115600306Y-111422708D01*
X115575792Y-111398194D01*
X115556530Y-111369367D01*
X115543263Y-111337337D01*
X115536500Y-111303335D01*
X115536500Y-111268665D01*
X115543263Y-111234663D01*
X115556530Y-111202633D01*
X115575792Y-111173806D01*
X115600306Y-111149292D01*
X115614317Y-111139930D01*
X115633254Y-111124388D01*
X115648800Y-111105446D01*
X115660351Y-111083835D01*
X115667464Y-111060386D01*
X115669866Y-111036000D01*
X115667464Y-111011614D01*
X115660351Y-110988165D01*
X115648800Y-110966554D01*
X115633254Y-110947612D01*
X115614317Y-110932070D01*
X115600306Y-110922708D01*
X115575792Y-110898194D01*
X115556530Y-110869367D01*
X115543263Y-110837337D01*
X115536500Y-110803335D01*
X115536500Y-110768665D01*
X115543263Y-110734663D01*
X115556530Y-110702633D01*
X115575792Y-110673806D01*
X115600306Y-110649292D01*
X115629133Y-110630030D01*
X115661163Y-110616763D01*
X115695165Y-110610000D01*
X115729835Y-110610000D01*
X115763837Y-110616763D01*
X115763837Y-110616763D01*
G37*
G36*
X115123837Y-110616763D02*
X115155867Y-110630030D01*
X115184694Y-110649292D01*
X115209208Y-110673806D01*
X115228470Y-110702633D01*
X115241737Y-110734663D01*
X115248500Y-110768665D01*
X115248500Y-110803335D01*
X115241737Y-110837337D01*
X115228470Y-110869367D01*
X115209208Y-110898194D01*
X115184694Y-110922708D01*
X115170683Y-110932070D01*
X115151746Y-110947612D01*
X115136200Y-110966554D01*
X115124649Y-110988165D01*
X115117536Y-111011614D01*
X115115134Y-111036000D01*
X115117536Y-111060386D01*
X115124649Y-111083835D01*
X115136200Y-111105446D01*
X115151746Y-111124388D01*
X115170683Y-111139930D01*
X115184694Y-111149292D01*
X115209208Y-111173806D01*
X115228470Y-111202633D01*
X115241737Y-111234663D01*
X115248500Y-111268665D01*
X115248500Y-111303335D01*
X115241737Y-111337337D01*
X115228470Y-111369367D01*
X115209208Y-111398194D01*
X115184694Y-111422708D01*
X115170683Y-111432070D01*
X115151746Y-111447612D01*
X115136200Y-111466554D01*
X115124649Y-111488165D01*
X115117536Y-111511614D01*
X115115134Y-111536000D01*
X115117536Y-111560386D01*
X115124649Y-111583835D01*
X115136200Y-111605446D01*
X115151746Y-111624388D01*
X115170683Y-111639930D01*
X115184694Y-111649292D01*
X115209208Y-111673806D01*
X115228470Y-111702633D01*
X115241737Y-111734663D01*
X115248500Y-111768665D01*
X115248500Y-111803335D01*
X115241737Y-111837337D01*
X115228470Y-111869367D01*
X115209208Y-111898194D01*
X115184694Y-111922708D01*
X115170683Y-111932070D01*
X115151746Y-111947612D01*
X115136200Y-111966554D01*
X115124649Y-111988165D01*
X115117536Y-112011614D01*
X115115134Y-112036000D01*
X115117536Y-112060386D01*
X115124649Y-112083835D01*
X115136200Y-112105446D01*
X115151746Y-112124388D01*
X115170683Y-112139930D01*
X115184694Y-112149292D01*
X115209208Y-112173806D01*
X115228470Y-112202633D01*
X115241737Y-112234663D01*
X115248500Y-112268665D01*
X115248500Y-112303335D01*
X115241737Y-112337337D01*
X115228470Y-112369367D01*
X115209208Y-112398194D01*
X115184694Y-112422708D01*
X115170683Y-112432070D01*
X115151746Y-112447612D01*
X115136200Y-112466554D01*
X115124649Y-112488165D01*
X115117536Y-112511614D01*
X115115134Y-112536000D01*
X115117536Y-112560386D01*
X115124649Y-112583835D01*
X115136200Y-112605446D01*
X115151746Y-112624388D01*
X115170683Y-112639930D01*
X115184694Y-112649292D01*
X115209208Y-112673806D01*
X115228470Y-112702633D01*
X115241737Y-112734663D01*
X115248500Y-112768665D01*
X115248500Y-112803335D01*
X115241737Y-112837337D01*
X115228470Y-112869367D01*
X115209208Y-112898194D01*
X115184694Y-112922708D01*
X115170683Y-112932070D01*
X115151746Y-112947612D01*
X115136200Y-112966554D01*
X115124649Y-112988165D01*
X115117536Y-113011614D01*
X115115134Y-113036000D01*
X115117536Y-113060386D01*
X115124649Y-113083835D01*
X115136200Y-113105446D01*
X115151746Y-113124388D01*
X115170683Y-113139930D01*
X115184694Y-113149292D01*
X115209208Y-113173806D01*
X115228470Y-113202633D01*
X115241737Y-113234663D01*
X115248500Y-113268665D01*
X115248500Y-113303335D01*
X115241737Y-113337337D01*
X115228470Y-113369367D01*
X115209208Y-113398194D01*
X115184694Y-113422708D01*
X115170683Y-113432070D01*
X115151746Y-113447612D01*
X115136200Y-113466554D01*
X115124649Y-113488165D01*
X115117536Y-113511614D01*
X115115134Y-113536000D01*
X115117536Y-113560386D01*
X115124649Y-113583835D01*
X115136200Y-113605446D01*
X115151746Y-113624388D01*
X115170683Y-113639930D01*
X115184694Y-113649292D01*
X115209208Y-113673806D01*
X115228470Y-113702633D01*
X115241737Y-113734663D01*
X115248500Y-113768665D01*
X115248500Y-113803335D01*
X115241737Y-113837337D01*
X115228470Y-113869367D01*
X115209208Y-113898194D01*
X115184694Y-113922708D01*
X115170683Y-113932070D01*
X115151746Y-113947612D01*
X115136200Y-113966554D01*
X115124649Y-113988165D01*
X115117536Y-114011614D01*
X115115134Y-114036000D01*
X115117536Y-114060386D01*
X115124649Y-114083835D01*
X115136200Y-114105446D01*
X115151746Y-114124388D01*
X115170683Y-114139930D01*
X115184694Y-114149292D01*
X115209208Y-114173806D01*
X115228470Y-114202633D01*
X115241737Y-114234663D01*
X115248500Y-114268665D01*
X115248500Y-114303335D01*
X115241737Y-114337337D01*
X115228470Y-114369367D01*
X115209208Y-114398194D01*
X115184694Y-114422708D01*
X115155867Y-114441970D01*
X115123837Y-114455237D01*
X115089835Y-114462000D01*
X115055165Y-114462000D01*
X115021163Y-114455237D01*
X114989133Y-114441970D01*
X114960306Y-114422708D01*
X114935792Y-114398194D01*
X114916530Y-114369367D01*
X114903263Y-114337337D01*
X114896500Y-114303335D01*
X114896500Y-114268665D01*
X114903263Y-114234663D01*
X114916530Y-114202633D01*
X114935792Y-114173806D01*
X114960306Y-114149292D01*
X114974317Y-114139930D01*
X114993254Y-114124388D01*
X115008800Y-114105446D01*
X115020351Y-114083835D01*
X115027464Y-114060386D01*
X115029866Y-114036000D01*
X115027464Y-114011614D01*
X115020351Y-113988165D01*
X115008800Y-113966554D01*
X114993254Y-113947612D01*
X114974317Y-113932070D01*
X114960306Y-113922708D01*
X114935792Y-113898194D01*
X114916530Y-113869367D01*
X114903263Y-113837337D01*
X114896500Y-113803335D01*
X114896500Y-113768665D01*
X114903263Y-113734663D01*
X114916530Y-113702633D01*
X114935792Y-113673806D01*
X114960306Y-113649292D01*
X114974317Y-113639930D01*
X114993254Y-113624388D01*
X115008800Y-113605446D01*
X115020351Y-113583835D01*
X115027464Y-113560386D01*
X115029866Y-113536000D01*
X115027464Y-113511614D01*
X115020351Y-113488165D01*
X115008800Y-113466554D01*
X114993254Y-113447612D01*
X114974317Y-113432070D01*
X114960306Y-113422708D01*
X114935792Y-113398194D01*
X114916530Y-113369367D01*
X114903263Y-113337337D01*
X114896500Y-113303335D01*
X114896500Y-113268665D01*
X114903263Y-113234663D01*
X114916530Y-113202633D01*
X114935792Y-113173806D01*
X114960306Y-113149292D01*
X114974317Y-113139930D01*
X114993254Y-113124388D01*
X115008800Y-113105446D01*
X115020351Y-113083835D01*
X115027464Y-113060386D01*
X115029866Y-113036000D01*
X115027464Y-113011614D01*
X115020351Y-112988165D01*
X115008800Y-112966554D01*
X114993254Y-112947612D01*
X114974317Y-112932070D01*
X114960306Y-112922708D01*
X114935792Y-112898194D01*
X114916530Y-112869367D01*
X114903263Y-112837337D01*
X114896500Y-112803335D01*
X114896500Y-112768665D01*
X114903263Y-112734663D01*
X114916530Y-112702633D01*
X114935792Y-112673806D01*
X114960306Y-112649292D01*
X114974317Y-112639930D01*
X114993254Y-112624388D01*
X115008800Y-112605446D01*
X115020351Y-112583835D01*
X115027464Y-112560386D01*
X115029866Y-112536000D01*
X115027464Y-112511614D01*
X115020351Y-112488165D01*
X115008800Y-112466554D01*
X114993254Y-112447612D01*
X114974317Y-112432070D01*
X114960306Y-112422708D01*
X114935792Y-112398194D01*
X114916530Y-112369367D01*
X114903263Y-112337337D01*
X114896500Y-112303335D01*
X114896500Y-112268665D01*
X114903263Y-112234663D01*
X114916530Y-112202633D01*
X114935792Y-112173806D01*
X114960306Y-112149292D01*
X114974317Y-112139930D01*
X114993254Y-112124388D01*
X115008800Y-112105446D01*
X115020351Y-112083835D01*
X115027464Y-112060386D01*
X115029866Y-112036000D01*
X115027464Y-112011614D01*
X115020351Y-111988165D01*
X115008800Y-111966554D01*
X114993254Y-111947612D01*
X114974317Y-111932070D01*
X114960306Y-111922708D01*
X114935792Y-111898194D01*
X114916530Y-111869367D01*
X114903263Y-111837337D01*
X114896500Y-111803335D01*
X114896500Y-111768665D01*
X114903263Y-111734663D01*
X114916530Y-111702633D01*
X114935792Y-111673806D01*
X114960306Y-111649292D01*
X114974317Y-111639930D01*
X114993254Y-111624388D01*
X115008800Y-111605446D01*
X115020351Y-111583835D01*
X115027464Y-111560386D01*
X115029866Y-111536000D01*
X115027464Y-111511614D01*
X115020351Y-111488165D01*
X115008800Y-111466554D01*
X114993254Y-111447612D01*
X114974317Y-111432070D01*
X114960306Y-111422708D01*
X114935792Y-111398194D01*
X114916530Y-111369367D01*
X114903263Y-111337337D01*
X114896500Y-111303335D01*
X114896500Y-111268665D01*
X114903263Y-111234663D01*
X114916530Y-111202633D01*
X114935792Y-111173806D01*
X114960306Y-111149292D01*
X114974317Y-111139930D01*
X114993254Y-111124388D01*
X115008800Y-111105446D01*
X115020351Y-111083835D01*
X115027464Y-111060386D01*
X115029866Y-111036000D01*
X115027464Y-111011614D01*
X115020351Y-110988165D01*
X115008800Y-110966554D01*
X114993254Y-110947612D01*
X114974317Y-110932070D01*
X114960306Y-110922708D01*
X114935792Y-110898194D01*
X114916530Y-110869367D01*
X114903263Y-110837337D01*
X114896500Y-110803335D01*
X114896500Y-110768665D01*
X114903263Y-110734663D01*
X114916530Y-110702633D01*
X114935792Y-110673806D01*
X114960306Y-110649292D01*
X114989133Y-110630030D01*
X115021163Y-110616763D01*
X115055165Y-110610000D01*
X115089835Y-110610000D01*
X115123837Y-110616763D01*
X115123837Y-110616763D01*
G37*
G36*
X114483837Y-110616763D02*
X114515867Y-110630030D01*
X114544694Y-110649292D01*
X114569208Y-110673806D01*
X114588470Y-110702633D01*
X114601737Y-110734663D01*
X114608500Y-110768665D01*
X114608500Y-110803335D01*
X114601737Y-110837337D01*
X114588470Y-110869367D01*
X114569208Y-110898194D01*
X114544694Y-110922708D01*
X114530683Y-110932070D01*
X114511746Y-110947612D01*
X114496200Y-110966554D01*
X114484649Y-110988165D01*
X114477536Y-111011614D01*
X114475134Y-111036000D01*
X114477536Y-111060386D01*
X114484649Y-111083835D01*
X114496200Y-111105446D01*
X114511746Y-111124388D01*
X114530683Y-111139930D01*
X114544694Y-111149292D01*
X114569208Y-111173806D01*
X114588470Y-111202633D01*
X114601737Y-111234663D01*
X114608500Y-111268665D01*
X114608500Y-111303335D01*
X114601737Y-111337337D01*
X114588470Y-111369367D01*
X114569208Y-111398194D01*
X114544694Y-111422708D01*
X114530683Y-111432070D01*
X114511746Y-111447612D01*
X114496200Y-111466554D01*
X114484649Y-111488165D01*
X114477536Y-111511614D01*
X114475134Y-111536000D01*
X114477536Y-111560386D01*
X114484649Y-111583835D01*
X114496200Y-111605446D01*
X114511746Y-111624388D01*
X114530683Y-111639930D01*
X114544694Y-111649292D01*
X114569208Y-111673806D01*
X114588470Y-111702633D01*
X114601737Y-111734663D01*
X114608500Y-111768665D01*
X114608500Y-111803335D01*
X114601737Y-111837337D01*
X114588470Y-111869367D01*
X114569208Y-111898194D01*
X114544694Y-111922708D01*
X114530683Y-111932070D01*
X114511746Y-111947612D01*
X114496200Y-111966554D01*
X114484649Y-111988165D01*
X114477536Y-112011614D01*
X114475134Y-112036000D01*
X114477536Y-112060386D01*
X114484649Y-112083835D01*
X114496200Y-112105446D01*
X114511746Y-112124388D01*
X114530683Y-112139930D01*
X114544694Y-112149292D01*
X114569208Y-112173806D01*
X114588470Y-112202633D01*
X114601737Y-112234663D01*
X114608500Y-112268665D01*
X114608500Y-112303335D01*
X114601737Y-112337337D01*
X114588470Y-112369367D01*
X114569208Y-112398194D01*
X114544694Y-112422708D01*
X114530683Y-112432070D01*
X114511746Y-112447612D01*
X114496200Y-112466554D01*
X114484649Y-112488165D01*
X114477536Y-112511614D01*
X114475134Y-112536000D01*
X114477536Y-112560386D01*
X114484649Y-112583835D01*
X114496200Y-112605446D01*
X114511746Y-112624388D01*
X114530683Y-112639930D01*
X114544694Y-112649292D01*
X114569208Y-112673806D01*
X114588470Y-112702633D01*
X114601737Y-112734663D01*
X114608500Y-112768665D01*
X114608500Y-112803335D01*
X114601737Y-112837337D01*
X114588470Y-112869367D01*
X114569208Y-112898194D01*
X114544694Y-112922708D01*
X114530683Y-112932070D01*
X114511746Y-112947612D01*
X114496200Y-112966554D01*
X114484649Y-112988165D01*
X114477536Y-113011614D01*
X114475134Y-113036000D01*
X114477536Y-113060386D01*
X114484649Y-113083835D01*
X114496200Y-113105446D01*
X114511746Y-113124388D01*
X114530683Y-113139930D01*
X114544694Y-113149292D01*
X114569208Y-113173806D01*
X114588470Y-113202633D01*
X114601737Y-113234663D01*
X114608500Y-113268665D01*
X114608500Y-113303335D01*
X114601737Y-113337337D01*
X114588470Y-113369367D01*
X114569208Y-113398194D01*
X114544694Y-113422708D01*
X114530683Y-113432070D01*
X114511746Y-113447612D01*
X114496200Y-113466554D01*
X114484649Y-113488165D01*
X114477536Y-113511614D01*
X114475134Y-113536000D01*
X114477536Y-113560386D01*
X114484649Y-113583835D01*
X114496200Y-113605446D01*
X114511746Y-113624388D01*
X114530683Y-113639930D01*
X114544694Y-113649292D01*
X114569208Y-113673806D01*
X114588470Y-113702633D01*
X114601737Y-113734663D01*
X114608500Y-113768665D01*
X114608500Y-113803335D01*
X114601737Y-113837337D01*
X114588470Y-113869367D01*
X114569208Y-113898194D01*
X114544694Y-113922708D01*
X114530683Y-113932070D01*
X114511746Y-113947612D01*
X114496200Y-113966554D01*
X114484649Y-113988165D01*
X114477536Y-114011614D01*
X114475134Y-114036000D01*
X114477536Y-114060386D01*
X114484649Y-114083835D01*
X114496200Y-114105446D01*
X114511746Y-114124388D01*
X114530683Y-114139930D01*
X114544694Y-114149292D01*
X114569208Y-114173806D01*
X114588470Y-114202633D01*
X114601737Y-114234663D01*
X114608500Y-114268665D01*
X114608500Y-114303335D01*
X114601737Y-114337337D01*
X114588470Y-114369367D01*
X114569208Y-114398194D01*
X114544694Y-114422708D01*
X114515867Y-114441970D01*
X114483837Y-114455237D01*
X114449835Y-114462000D01*
X114415165Y-114462000D01*
X114381163Y-114455237D01*
X114349133Y-114441970D01*
X114320306Y-114422708D01*
X114295792Y-114398194D01*
X114276530Y-114369367D01*
X114263263Y-114337337D01*
X114256500Y-114303335D01*
X114256500Y-114268665D01*
X114263263Y-114234663D01*
X114276530Y-114202633D01*
X114295792Y-114173806D01*
X114320306Y-114149292D01*
X114334317Y-114139930D01*
X114353254Y-114124388D01*
X114368800Y-114105446D01*
X114380351Y-114083835D01*
X114387464Y-114060386D01*
X114389866Y-114036000D01*
X114387464Y-114011614D01*
X114380351Y-113988165D01*
X114368800Y-113966554D01*
X114353254Y-113947612D01*
X114334317Y-113932070D01*
X114320306Y-113922708D01*
X114295792Y-113898194D01*
X114276530Y-113869367D01*
X114263263Y-113837337D01*
X114256500Y-113803335D01*
X114256500Y-113768665D01*
X114263263Y-113734663D01*
X114276530Y-113702633D01*
X114295792Y-113673806D01*
X114320306Y-113649292D01*
X114334317Y-113639930D01*
X114353254Y-113624388D01*
X114368800Y-113605446D01*
X114380351Y-113583835D01*
X114387464Y-113560386D01*
X114389866Y-113536000D01*
X114387464Y-113511614D01*
X114380351Y-113488165D01*
X114368800Y-113466554D01*
X114353254Y-113447612D01*
X114334317Y-113432070D01*
X114320306Y-113422708D01*
X114295792Y-113398194D01*
X114276530Y-113369367D01*
X114263263Y-113337337D01*
X114256500Y-113303335D01*
X114256500Y-113268665D01*
X114263263Y-113234663D01*
X114276530Y-113202633D01*
X114295792Y-113173806D01*
X114320306Y-113149292D01*
X114334317Y-113139930D01*
X114353254Y-113124388D01*
X114368800Y-113105446D01*
X114380351Y-113083835D01*
X114387464Y-113060386D01*
X114389866Y-113036000D01*
X114387464Y-113011614D01*
X114380351Y-112988165D01*
X114368800Y-112966554D01*
X114353254Y-112947612D01*
X114334317Y-112932070D01*
X114320306Y-112922708D01*
X114295792Y-112898194D01*
X114276530Y-112869367D01*
X114263263Y-112837337D01*
X114256500Y-112803335D01*
X114256500Y-112768665D01*
X114263263Y-112734663D01*
X114276530Y-112702633D01*
X114295792Y-112673806D01*
X114320306Y-112649292D01*
X114334317Y-112639930D01*
X114353254Y-112624388D01*
X114368800Y-112605446D01*
X114380351Y-112583835D01*
X114387464Y-112560386D01*
X114389866Y-112536000D01*
X114387464Y-112511614D01*
X114380351Y-112488165D01*
X114368800Y-112466554D01*
X114353254Y-112447612D01*
X114334317Y-112432070D01*
X114320306Y-112422708D01*
X114295792Y-112398194D01*
X114276530Y-112369367D01*
X114263263Y-112337337D01*
X114256500Y-112303335D01*
X114256500Y-112268665D01*
X114263263Y-112234663D01*
X114276530Y-112202633D01*
X114295792Y-112173806D01*
X114320306Y-112149292D01*
X114334317Y-112139930D01*
X114353254Y-112124388D01*
X114368800Y-112105446D01*
X114380351Y-112083835D01*
X114387464Y-112060386D01*
X114389866Y-112036000D01*
X114387464Y-112011614D01*
X114380351Y-111988165D01*
X114368800Y-111966554D01*
X114353254Y-111947612D01*
X114334317Y-111932070D01*
X114320306Y-111922708D01*
X114295792Y-111898194D01*
X114276530Y-111869367D01*
X114263263Y-111837337D01*
X114256500Y-111803335D01*
X114256500Y-111768665D01*
X114263263Y-111734663D01*
X114276530Y-111702633D01*
X114295792Y-111673806D01*
X114320306Y-111649292D01*
X114334317Y-111639930D01*
X114353254Y-111624388D01*
X114368800Y-111605446D01*
X114380351Y-111583835D01*
X114387464Y-111560386D01*
X114389866Y-111536000D01*
X114387464Y-111511614D01*
X114380351Y-111488165D01*
X114368800Y-111466554D01*
X114353254Y-111447612D01*
X114334317Y-111432070D01*
X114320306Y-111422708D01*
X114295792Y-111398194D01*
X114276530Y-111369367D01*
X114263263Y-111337337D01*
X114256500Y-111303335D01*
X114256500Y-111268665D01*
X114263263Y-111234663D01*
X114276530Y-111202633D01*
X114295792Y-111173806D01*
X114320306Y-111149292D01*
X114334317Y-111139930D01*
X114353254Y-111124388D01*
X114368800Y-111105446D01*
X114380351Y-111083835D01*
X114387464Y-111060386D01*
X114389866Y-111036000D01*
X114387464Y-111011614D01*
X114380351Y-110988165D01*
X114368800Y-110966554D01*
X114353254Y-110947612D01*
X114334317Y-110932070D01*
X114320306Y-110922708D01*
X114295792Y-110898194D01*
X114276530Y-110869367D01*
X114263263Y-110837337D01*
X114256500Y-110803335D01*
X114256500Y-110768665D01*
X114263263Y-110734663D01*
X114276530Y-110702633D01*
X114295792Y-110673806D01*
X114320306Y-110649292D01*
X114349133Y-110630030D01*
X114381163Y-110616763D01*
X114415165Y-110610000D01*
X114449835Y-110610000D01*
X114483837Y-110616763D01*
X114483837Y-110616763D01*
G37*
G36*
X113843837Y-110616763D02*
X113875867Y-110630030D01*
X113904694Y-110649292D01*
X113929208Y-110673806D01*
X113948470Y-110702633D01*
X113961737Y-110734663D01*
X113968500Y-110768665D01*
X113968500Y-110803335D01*
X113961737Y-110837337D01*
X113948470Y-110869367D01*
X113929208Y-110898194D01*
X113904694Y-110922708D01*
X113890683Y-110932070D01*
X113871746Y-110947612D01*
X113856200Y-110966554D01*
X113844649Y-110988165D01*
X113837536Y-111011614D01*
X113835134Y-111036000D01*
X113837536Y-111060386D01*
X113844649Y-111083835D01*
X113856200Y-111105446D01*
X113871746Y-111124388D01*
X113890683Y-111139930D01*
X113904694Y-111149292D01*
X113929208Y-111173806D01*
X113948470Y-111202633D01*
X113961737Y-111234663D01*
X113968500Y-111268665D01*
X113968500Y-111303335D01*
X113961737Y-111337337D01*
X113948470Y-111369367D01*
X113929208Y-111398194D01*
X113904694Y-111422708D01*
X113890683Y-111432070D01*
X113871746Y-111447612D01*
X113856200Y-111466554D01*
X113844649Y-111488165D01*
X113837536Y-111511614D01*
X113835134Y-111536000D01*
X113837536Y-111560386D01*
X113844649Y-111583835D01*
X113856200Y-111605446D01*
X113871746Y-111624388D01*
X113890683Y-111639930D01*
X113904694Y-111649292D01*
X113929208Y-111673806D01*
X113948470Y-111702633D01*
X113961737Y-111734663D01*
X113968500Y-111768665D01*
X113968500Y-111803335D01*
X113961737Y-111837337D01*
X113948470Y-111869367D01*
X113929208Y-111898194D01*
X113904694Y-111922708D01*
X113890683Y-111932070D01*
X113871746Y-111947612D01*
X113856200Y-111966554D01*
X113844649Y-111988165D01*
X113837536Y-112011614D01*
X113835134Y-112036000D01*
X113837536Y-112060386D01*
X113844649Y-112083835D01*
X113856200Y-112105446D01*
X113871746Y-112124388D01*
X113890683Y-112139930D01*
X113904694Y-112149292D01*
X113929208Y-112173806D01*
X113948470Y-112202633D01*
X113961737Y-112234663D01*
X113968500Y-112268665D01*
X113968500Y-112303335D01*
X113961737Y-112337337D01*
X113948470Y-112369367D01*
X113929208Y-112398194D01*
X113904694Y-112422708D01*
X113890683Y-112432070D01*
X113871746Y-112447612D01*
X113856200Y-112466554D01*
X113844649Y-112488165D01*
X113837536Y-112511614D01*
X113835134Y-112536000D01*
X113837536Y-112560386D01*
X113844649Y-112583835D01*
X113856200Y-112605446D01*
X113871746Y-112624388D01*
X113890683Y-112639930D01*
X113904694Y-112649292D01*
X113929208Y-112673806D01*
X113948470Y-112702633D01*
X113961737Y-112734663D01*
X113968500Y-112768665D01*
X113968500Y-112803335D01*
X113961737Y-112837337D01*
X113948470Y-112869367D01*
X113929208Y-112898194D01*
X113904694Y-112922708D01*
X113890683Y-112932070D01*
X113871746Y-112947612D01*
X113856200Y-112966554D01*
X113844649Y-112988165D01*
X113837536Y-113011614D01*
X113835134Y-113036000D01*
X113837536Y-113060386D01*
X113844649Y-113083835D01*
X113856200Y-113105446D01*
X113871746Y-113124388D01*
X113890683Y-113139930D01*
X113904694Y-113149292D01*
X113929208Y-113173806D01*
X113948470Y-113202633D01*
X113961737Y-113234663D01*
X113968500Y-113268665D01*
X113968500Y-113303335D01*
X113961737Y-113337337D01*
X113948470Y-113369367D01*
X113929208Y-113398194D01*
X113904694Y-113422708D01*
X113890683Y-113432070D01*
X113871746Y-113447612D01*
X113856200Y-113466554D01*
X113844649Y-113488165D01*
X113837536Y-113511614D01*
X113835134Y-113536000D01*
X113837536Y-113560386D01*
X113844649Y-113583835D01*
X113856200Y-113605446D01*
X113871746Y-113624388D01*
X113890683Y-113639930D01*
X113904694Y-113649292D01*
X113929208Y-113673806D01*
X113948470Y-113702633D01*
X113961737Y-113734663D01*
X113968500Y-113768665D01*
X113968500Y-113803335D01*
X113961737Y-113837337D01*
X113948470Y-113869367D01*
X113929208Y-113898194D01*
X113904694Y-113922708D01*
X113890683Y-113932070D01*
X113871746Y-113947612D01*
X113856200Y-113966554D01*
X113844649Y-113988165D01*
X113837536Y-114011614D01*
X113835134Y-114036000D01*
X113837536Y-114060386D01*
X113844649Y-114083835D01*
X113856200Y-114105446D01*
X113871746Y-114124388D01*
X113890683Y-114139930D01*
X113904694Y-114149292D01*
X113929208Y-114173806D01*
X113948470Y-114202633D01*
X113961737Y-114234663D01*
X113968500Y-114268665D01*
X113968500Y-114303335D01*
X113961737Y-114337337D01*
X113948470Y-114369367D01*
X113929208Y-114398194D01*
X113904694Y-114422708D01*
X113875867Y-114441970D01*
X113843837Y-114455237D01*
X113809835Y-114462000D01*
X113775165Y-114462000D01*
X113741163Y-114455237D01*
X113709133Y-114441970D01*
X113680306Y-114422708D01*
X113655792Y-114398194D01*
X113636530Y-114369367D01*
X113623263Y-114337337D01*
X113616500Y-114303335D01*
X113616500Y-114268665D01*
X113623263Y-114234663D01*
X113636530Y-114202633D01*
X113655792Y-114173806D01*
X113680306Y-114149292D01*
X113694317Y-114139930D01*
X113713254Y-114124388D01*
X113728800Y-114105446D01*
X113740351Y-114083835D01*
X113747464Y-114060386D01*
X113749866Y-114036000D01*
X113747464Y-114011614D01*
X113740351Y-113988165D01*
X113728800Y-113966554D01*
X113713254Y-113947612D01*
X113694317Y-113932070D01*
X113680306Y-113922708D01*
X113655792Y-113898194D01*
X113636530Y-113869367D01*
X113623263Y-113837337D01*
X113616500Y-113803335D01*
X113616500Y-113768665D01*
X113623263Y-113734663D01*
X113636530Y-113702633D01*
X113655792Y-113673806D01*
X113680306Y-113649292D01*
X113694317Y-113639930D01*
X113713254Y-113624388D01*
X113728800Y-113605446D01*
X113740351Y-113583835D01*
X113747464Y-113560386D01*
X113749866Y-113536000D01*
X113747464Y-113511614D01*
X113740351Y-113488165D01*
X113728800Y-113466554D01*
X113713254Y-113447612D01*
X113694317Y-113432070D01*
X113680306Y-113422708D01*
X113655792Y-113398194D01*
X113636530Y-113369367D01*
X113623263Y-113337337D01*
X113616500Y-113303335D01*
X113616500Y-113268665D01*
X113623263Y-113234663D01*
X113636530Y-113202633D01*
X113655792Y-113173806D01*
X113680306Y-113149292D01*
X113694317Y-113139930D01*
X113713254Y-113124388D01*
X113728800Y-113105446D01*
X113740351Y-113083835D01*
X113747464Y-113060386D01*
X113749866Y-113036000D01*
X113747464Y-113011614D01*
X113740351Y-112988165D01*
X113728800Y-112966554D01*
X113713254Y-112947612D01*
X113694317Y-112932070D01*
X113680306Y-112922708D01*
X113655792Y-112898194D01*
X113636530Y-112869367D01*
X113623263Y-112837337D01*
X113616500Y-112803335D01*
X113616500Y-112768665D01*
X113623263Y-112734663D01*
X113636530Y-112702633D01*
X113655792Y-112673806D01*
X113680306Y-112649292D01*
X113694317Y-112639930D01*
X113713254Y-112624388D01*
X113728800Y-112605446D01*
X113740351Y-112583835D01*
X113747464Y-112560386D01*
X113749866Y-112536000D01*
X113747464Y-112511614D01*
X113740351Y-112488165D01*
X113728800Y-112466554D01*
X113713254Y-112447612D01*
X113694317Y-112432070D01*
X113680306Y-112422708D01*
X113655792Y-112398194D01*
X113636530Y-112369367D01*
X113623263Y-112337337D01*
X113616500Y-112303335D01*
X113616500Y-112268665D01*
X113623263Y-112234663D01*
X113636530Y-112202633D01*
X113655792Y-112173806D01*
X113680306Y-112149292D01*
X113694317Y-112139930D01*
X113713254Y-112124388D01*
X113728800Y-112105446D01*
X113740351Y-112083835D01*
X113747464Y-112060386D01*
X113749866Y-112036000D01*
X113747464Y-112011614D01*
X113740351Y-111988165D01*
X113728800Y-111966554D01*
X113713254Y-111947612D01*
X113694317Y-111932070D01*
X113680306Y-111922708D01*
X113655792Y-111898194D01*
X113636530Y-111869367D01*
X113623263Y-111837337D01*
X113616500Y-111803335D01*
X113616500Y-111768665D01*
X113623263Y-111734663D01*
X113636530Y-111702633D01*
X113655792Y-111673806D01*
X113680306Y-111649292D01*
X113694317Y-111639930D01*
X113713254Y-111624388D01*
X113728800Y-111605446D01*
X113740351Y-111583835D01*
X113747464Y-111560386D01*
X113749866Y-111536000D01*
X113747464Y-111511614D01*
X113740351Y-111488165D01*
X113728800Y-111466554D01*
X113713254Y-111447612D01*
X113694317Y-111432070D01*
X113680306Y-111422708D01*
X113655792Y-111398194D01*
X113636530Y-111369367D01*
X113623263Y-111337337D01*
X113616500Y-111303335D01*
X113616500Y-111268665D01*
X113623263Y-111234663D01*
X113636530Y-111202633D01*
X113655792Y-111173806D01*
X113680306Y-111149292D01*
X113694317Y-111139930D01*
X113713254Y-111124388D01*
X113728800Y-111105446D01*
X113740351Y-111083835D01*
X113747464Y-111060386D01*
X113749866Y-111036000D01*
X113747464Y-111011614D01*
X113740351Y-110988165D01*
X113728800Y-110966554D01*
X113713254Y-110947612D01*
X113694317Y-110932070D01*
X113680306Y-110922708D01*
X113655792Y-110898194D01*
X113636530Y-110869367D01*
X113623263Y-110837337D01*
X113616500Y-110803335D01*
X113616500Y-110768665D01*
X113623263Y-110734663D01*
X113636530Y-110702633D01*
X113655792Y-110673806D01*
X113680306Y-110649292D01*
X113709133Y-110630030D01*
X113741163Y-110616763D01*
X113775165Y-110610000D01*
X113809835Y-110610000D01*
X113843837Y-110616763D01*
X113843837Y-110616763D01*
G37*
G36*
X113203837Y-110616763D02*
X113235867Y-110630030D01*
X113264694Y-110649292D01*
X113289208Y-110673806D01*
X113308470Y-110702633D01*
X113321737Y-110734663D01*
X113328500Y-110768665D01*
X113328500Y-110803335D01*
X113321737Y-110837337D01*
X113308470Y-110869367D01*
X113289208Y-110898194D01*
X113264694Y-110922708D01*
X113250683Y-110932070D01*
X113231746Y-110947612D01*
X113216200Y-110966554D01*
X113204649Y-110988165D01*
X113197536Y-111011614D01*
X113195134Y-111036000D01*
X113197536Y-111060386D01*
X113204649Y-111083835D01*
X113216200Y-111105446D01*
X113231746Y-111124388D01*
X113250683Y-111139930D01*
X113264694Y-111149292D01*
X113289208Y-111173806D01*
X113308470Y-111202633D01*
X113321737Y-111234663D01*
X113328500Y-111268665D01*
X113328500Y-111303335D01*
X113321737Y-111337337D01*
X113308470Y-111369367D01*
X113289208Y-111398194D01*
X113264694Y-111422708D01*
X113250683Y-111432070D01*
X113231746Y-111447612D01*
X113216200Y-111466554D01*
X113204649Y-111488165D01*
X113197536Y-111511614D01*
X113195134Y-111536000D01*
X113197536Y-111560386D01*
X113204649Y-111583835D01*
X113216200Y-111605446D01*
X113231746Y-111624388D01*
X113250683Y-111639930D01*
X113264694Y-111649292D01*
X113289208Y-111673806D01*
X113308470Y-111702633D01*
X113321737Y-111734663D01*
X113328500Y-111768665D01*
X113328500Y-111803335D01*
X113321737Y-111837337D01*
X113308470Y-111869367D01*
X113289208Y-111898194D01*
X113264694Y-111922708D01*
X113250683Y-111932070D01*
X113231746Y-111947612D01*
X113216200Y-111966554D01*
X113204649Y-111988165D01*
X113197536Y-112011614D01*
X113195134Y-112036000D01*
X113197536Y-112060386D01*
X113204649Y-112083835D01*
X113216200Y-112105446D01*
X113231746Y-112124388D01*
X113250683Y-112139930D01*
X113264694Y-112149292D01*
X113289208Y-112173806D01*
X113308470Y-112202633D01*
X113321737Y-112234663D01*
X113328500Y-112268665D01*
X113328500Y-112303335D01*
X113321737Y-112337337D01*
X113308470Y-112369367D01*
X113289208Y-112398194D01*
X113264694Y-112422708D01*
X113250683Y-112432070D01*
X113231746Y-112447612D01*
X113216200Y-112466554D01*
X113204649Y-112488165D01*
X113197536Y-112511614D01*
X113195134Y-112536000D01*
X113197536Y-112560386D01*
X113204649Y-112583835D01*
X113216200Y-112605446D01*
X113231746Y-112624388D01*
X113250683Y-112639930D01*
X113264694Y-112649292D01*
X113289208Y-112673806D01*
X113308470Y-112702633D01*
X113321737Y-112734663D01*
X113328500Y-112768665D01*
X113328500Y-112803335D01*
X113321737Y-112837337D01*
X113308470Y-112869367D01*
X113289208Y-112898194D01*
X113264694Y-112922708D01*
X113250683Y-112932070D01*
X113231746Y-112947612D01*
X113216200Y-112966554D01*
X113204649Y-112988165D01*
X113197536Y-113011614D01*
X113195134Y-113036000D01*
X113197536Y-113060386D01*
X113204649Y-113083835D01*
X113216200Y-113105446D01*
X113231746Y-113124388D01*
X113250683Y-113139930D01*
X113264694Y-113149292D01*
X113289208Y-113173806D01*
X113308470Y-113202633D01*
X113321737Y-113234663D01*
X113328500Y-113268665D01*
X113328500Y-113303335D01*
X113321737Y-113337337D01*
X113308470Y-113369367D01*
X113289208Y-113398194D01*
X113264694Y-113422708D01*
X113250683Y-113432070D01*
X113231746Y-113447612D01*
X113216200Y-113466554D01*
X113204649Y-113488165D01*
X113197536Y-113511614D01*
X113195134Y-113536000D01*
X113197536Y-113560386D01*
X113204649Y-113583835D01*
X113216200Y-113605446D01*
X113231746Y-113624388D01*
X113250683Y-113639930D01*
X113264694Y-113649292D01*
X113289208Y-113673806D01*
X113308470Y-113702633D01*
X113321737Y-113734663D01*
X113328500Y-113768665D01*
X113328500Y-113803335D01*
X113321737Y-113837337D01*
X113308470Y-113869367D01*
X113289208Y-113898194D01*
X113264694Y-113922708D01*
X113250683Y-113932070D01*
X113231746Y-113947612D01*
X113216200Y-113966554D01*
X113204649Y-113988165D01*
X113197536Y-114011614D01*
X113195134Y-114036000D01*
X113197536Y-114060386D01*
X113204649Y-114083835D01*
X113216200Y-114105446D01*
X113231746Y-114124388D01*
X113250683Y-114139930D01*
X113264694Y-114149292D01*
X113289208Y-114173806D01*
X113308470Y-114202633D01*
X113321737Y-114234663D01*
X113328500Y-114268665D01*
X113328500Y-114303335D01*
X113321737Y-114337337D01*
X113308470Y-114369367D01*
X113289208Y-114398194D01*
X113264694Y-114422708D01*
X113235867Y-114441970D01*
X113203837Y-114455237D01*
X113169835Y-114462000D01*
X113135165Y-114462000D01*
X113101163Y-114455237D01*
X113069133Y-114441970D01*
X113040306Y-114422708D01*
X113015792Y-114398194D01*
X112996530Y-114369367D01*
X112983263Y-114337337D01*
X112976500Y-114303335D01*
X112976500Y-114268665D01*
X112983263Y-114234663D01*
X112996530Y-114202633D01*
X113015792Y-114173806D01*
X113040306Y-114149292D01*
X113054317Y-114139930D01*
X113073254Y-114124388D01*
X113088800Y-114105446D01*
X113100351Y-114083835D01*
X113107464Y-114060386D01*
X113109866Y-114036000D01*
X113107464Y-114011614D01*
X113100351Y-113988165D01*
X113088800Y-113966554D01*
X113073254Y-113947612D01*
X113054317Y-113932070D01*
X113040306Y-113922708D01*
X113015792Y-113898194D01*
X112996530Y-113869367D01*
X112983263Y-113837337D01*
X112976500Y-113803335D01*
X112976500Y-113768665D01*
X112983263Y-113734663D01*
X112996530Y-113702633D01*
X113015792Y-113673806D01*
X113040306Y-113649292D01*
X113054317Y-113639930D01*
X113073254Y-113624388D01*
X113088800Y-113605446D01*
X113100351Y-113583835D01*
X113107464Y-113560386D01*
X113109866Y-113536000D01*
X113107464Y-113511614D01*
X113100351Y-113488165D01*
X113088800Y-113466554D01*
X113073254Y-113447612D01*
X113054317Y-113432070D01*
X113040306Y-113422708D01*
X113015792Y-113398194D01*
X112996530Y-113369367D01*
X112983263Y-113337337D01*
X112976500Y-113303335D01*
X112976500Y-113268665D01*
X112983263Y-113234663D01*
X112996530Y-113202633D01*
X113015792Y-113173806D01*
X113040306Y-113149292D01*
X113054317Y-113139930D01*
X113073254Y-113124388D01*
X113088800Y-113105446D01*
X113100351Y-113083835D01*
X113107464Y-113060386D01*
X113109866Y-113036000D01*
X113107464Y-113011614D01*
X113100351Y-112988165D01*
X113088800Y-112966554D01*
X113073254Y-112947612D01*
X113054317Y-112932070D01*
X113040306Y-112922708D01*
X113015792Y-112898194D01*
X112996530Y-112869367D01*
X112983263Y-112837337D01*
X112976500Y-112803335D01*
X112976500Y-112768665D01*
X112983263Y-112734663D01*
X112996530Y-112702633D01*
X113015792Y-112673806D01*
X113040306Y-112649292D01*
X113054317Y-112639930D01*
X113073254Y-112624388D01*
X113088800Y-112605446D01*
X113100351Y-112583835D01*
X113107464Y-112560386D01*
X113109866Y-112536000D01*
X113107464Y-112511614D01*
X113100351Y-112488165D01*
X113088800Y-112466554D01*
X113073254Y-112447612D01*
X113054317Y-112432070D01*
X113040306Y-112422708D01*
X113015792Y-112398194D01*
X112996530Y-112369367D01*
X112983263Y-112337337D01*
X112976500Y-112303335D01*
X112976500Y-112268665D01*
X112983263Y-112234663D01*
X112996530Y-112202633D01*
X113015792Y-112173806D01*
X113040306Y-112149292D01*
X113054317Y-112139930D01*
X113073254Y-112124388D01*
X113088800Y-112105446D01*
X113100351Y-112083835D01*
X113107464Y-112060386D01*
X113109866Y-112036000D01*
X113107464Y-112011614D01*
X113100351Y-111988165D01*
X113088800Y-111966554D01*
X113073254Y-111947612D01*
X113054317Y-111932070D01*
X113040306Y-111922708D01*
X113015792Y-111898194D01*
X112996530Y-111869367D01*
X112983263Y-111837337D01*
X112976500Y-111803335D01*
X112976500Y-111768665D01*
X112983263Y-111734663D01*
X112996530Y-111702633D01*
X113015792Y-111673806D01*
X113040306Y-111649292D01*
X113054317Y-111639930D01*
X113073254Y-111624388D01*
X113088800Y-111605446D01*
X113100351Y-111583835D01*
X113107464Y-111560386D01*
X113109866Y-111536000D01*
X113107464Y-111511614D01*
X113100351Y-111488165D01*
X113088800Y-111466554D01*
X113073254Y-111447612D01*
X113054317Y-111432070D01*
X113040306Y-111422708D01*
X113015792Y-111398194D01*
X112996530Y-111369367D01*
X112983263Y-111337337D01*
X112976500Y-111303335D01*
X112976500Y-111268665D01*
X112983263Y-111234663D01*
X112996530Y-111202633D01*
X113015792Y-111173806D01*
X113040306Y-111149292D01*
X113054317Y-111139930D01*
X113073254Y-111124388D01*
X113088800Y-111105446D01*
X113100351Y-111083835D01*
X113107464Y-111060386D01*
X113109866Y-111036000D01*
X113107464Y-111011614D01*
X113100351Y-110988165D01*
X113088800Y-110966554D01*
X113073254Y-110947612D01*
X113054317Y-110932070D01*
X113040306Y-110922708D01*
X113015792Y-110898194D01*
X112996530Y-110869367D01*
X112983263Y-110837337D01*
X112976500Y-110803335D01*
X112976500Y-110768665D01*
X112983263Y-110734663D01*
X112996530Y-110702633D01*
X113015792Y-110673806D01*
X113040306Y-110649292D01*
X113069133Y-110630030D01*
X113101163Y-110616763D01*
X113135165Y-110610000D01*
X113169835Y-110610000D01*
X113203837Y-110616763D01*
X113203837Y-110616763D01*
G37*
G36*
X112563837Y-110616763D02*
X112595867Y-110630030D01*
X112624694Y-110649292D01*
X112649208Y-110673806D01*
X112668470Y-110702633D01*
X112681737Y-110734663D01*
X112688500Y-110768665D01*
X112688500Y-110803335D01*
X112681737Y-110837337D01*
X112668470Y-110869367D01*
X112649208Y-110898194D01*
X112624694Y-110922708D01*
X112610683Y-110932070D01*
X112591746Y-110947612D01*
X112576200Y-110966554D01*
X112564649Y-110988165D01*
X112557536Y-111011614D01*
X112555134Y-111036000D01*
X112557536Y-111060386D01*
X112564649Y-111083835D01*
X112576200Y-111105446D01*
X112591746Y-111124388D01*
X112610683Y-111139930D01*
X112624694Y-111149292D01*
X112649208Y-111173806D01*
X112668470Y-111202633D01*
X112681737Y-111234663D01*
X112688500Y-111268665D01*
X112688500Y-111303335D01*
X112681737Y-111337337D01*
X112668470Y-111369367D01*
X112649208Y-111398194D01*
X112624694Y-111422708D01*
X112610683Y-111432070D01*
X112591746Y-111447612D01*
X112576200Y-111466554D01*
X112564649Y-111488165D01*
X112557536Y-111511614D01*
X112555134Y-111536000D01*
X112557536Y-111560386D01*
X112564649Y-111583835D01*
X112576200Y-111605446D01*
X112591746Y-111624388D01*
X112610683Y-111639930D01*
X112624694Y-111649292D01*
X112649208Y-111673806D01*
X112668470Y-111702633D01*
X112681737Y-111734663D01*
X112688500Y-111768665D01*
X112688500Y-111803335D01*
X112681737Y-111837337D01*
X112668470Y-111869367D01*
X112649208Y-111898194D01*
X112624694Y-111922708D01*
X112610683Y-111932070D01*
X112591746Y-111947612D01*
X112576200Y-111966554D01*
X112564649Y-111988165D01*
X112557536Y-112011614D01*
X112555134Y-112036000D01*
X112557536Y-112060386D01*
X112564649Y-112083835D01*
X112576200Y-112105446D01*
X112591746Y-112124388D01*
X112610683Y-112139930D01*
X112624694Y-112149292D01*
X112649208Y-112173806D01*
X112668470Y-112202633D01*
X112681737Y-112234663D01*
X112688500Y-112268665D01*
X112688500Y-112303335D01*
X112681737Y-112337337D01*
X112668470Y-112369367D01*
X112649208Y-112398194D01*
X112624694Y-112422708D01*
X112610683Y-112432070D01*
X112591746Y-112447612D01*
X112576200Y-112466554D01*
X112564649Y-112488165D01*
X112557536Y-112511614D01*
X112555134Y-112536000D01*
X112557536Y-112560386D01*
X112564649Y-112583835D01*
X112576200Y-112605446D01*
X112591746Y-112624388D01*
X112610683Y-112639930D01*
X112624694Y-112649292D01*
X112649208Y-112673806D01*
X112668470Y-112702633D01*
X112681737Y-112734663D01*
X112688500Y-112768665D01*
X112688500Y-112803335D01*
X112681737Y-112837337D01*
X112668470Y-112869367D01*
X112649208Y-112898194D01*
X112624694Y-112922708D01*
X112610683Y-112932070D01*
X112591746Y-112947612D01*
X112576200Y-112966554D01*
X112564649Y-112988165D01*
X112557536Y-113011614D01*
X112555134Y-113036000D01*
X112557536Y-113060386D01*
X112564649Y-113083835D01*
X112576200Y-113105446D01*
X112591746Y-113124388D01*
X112610683Y-113139930D01*
X112624694Y-113149292D01*
X112649208Y-113173806D01*
X112668470Y-113202633D01*
X112681737Y-113234663D01*
X112688500Y-113268665D01*
X112688500Y-113303335D01*
X112681737Y-113337337D01*
X112668470Y-113369367D01*
X112649208Y-113398194D01*
X112624694Y-113422708D01*
X112610683Y-113432070D01*
X112591746Y-113447612D01*
X112576200Y-113466554D01*
X112564649Y-113488165D01*
X112557536Y-113511614D01*
X112555134Y-113536000D01*
X112557536Y-113560386D01*
X112564649Y-113583835D01*
X112576200Y-113605446D01*
X112591746Y-113624388D01*
X112610683Y-113639930D01*
X112624694Y-113649292D01*
X112649208Y-113673806D01*
X112668470Y-113702633D01*
X112681737Y-113734663D01*
X112688500Y-113768665D01*
X112688500Y-113803335D01*
X112681737Y-113837337D01*
X112668470Y-113869367D01*
X112649208Y-113898194D01*
X112624694Y-113922708D01*
X112610683Y-113932070D01*
X112591746Y-113947612D01*
X112576200Y-113966554D01*
X112564649Y-113988165D01*
X112557536Y-114011614D01*
X112555134Y-114036000D01*
X112557536Y-114060386D01*
X112564649Y-114083835D01*
X112576200Y-114105446D01*
X112591746Y-114124388D01*
X112610683Y-114139930D01*
X112624694Y-114149292D01*
X112649208Y-114173806D01*
X112668470Y-114202633D01*
X112681737Y-114234663D01*
X112688500Y-114268665D01*
X112688500Y-114303335D01*
X112681737Y-114337337D01*
X112668470Y-114369367D01*
X112649208Y-114398194D01*
X112624694Y-114422708D01*
X112595867Y-114441970D01*
X112563837Y-114455237D01*
X112529835Y-114462000D01*
X112495165Y-114462000D01*
X112461163Y-114455237D01*
X112429133Y-114441970D01*
X112400306Y-114422708D01*
X112375792Y-114398194D01*
X112356530Y-114369367D01*
X112343263Y-114337337D01*
X112336500Y-114303335D01*
X112336500Y-114268665D01*
X112343263Y-114234663D01*
X112356530Y-114202633D01*
X112375792Y-114173806D01*
X112400306Y-114149292D01*
X112414317Y-114139930D01*
X112433254Y-114124388D01*
X112448800Y-114105446D01*
X112460351Y-114083835D01*
X112467464Y-114060386D01*
X112469866Y-114036000D01*
X112467464Y-114011614D01*
X112460351Y-113988165D01*
X112448800Y-113966554D01*
X112433254Y-113947612D01*
X112414317Y-113932070D01*
X112400306Y-113922708D01*
X112375792Y-113898194D01*
X112356530Y-113869367D01*
X112343263Y-113837337D01*
X112336500Y-113803335D01*
X112336500Y-113768665D01*
X112343263Y-113734663D01*
X112356530Y-113702633D01*
X112375792Y-113673806D01*
X112400306Y-113649292D01*
X112414317Y-113639930D01*
X112433254Y-113624388D01*
X112448800Y-113605446D01*
X112460351Y-113583835D01*
X112467464Y-113560386D01*
X112469866Y-113536000D01*
X112467464Y-113511614D01*
X112460351Y-113488165D01*
X112448800Y-113466554D01*
X112433254Y-113447612D01*
X112414317Y-113432070D01*
X112400306Y-113422708D01*
X112375792Y-113398194D01*
X112356530Y-113369367D01*
X112343263Y-113337337D01*
X112336500Y-113303335D01*
X112336500Y-113268665D01*
X112343263Y-113234663D01*
X112356530Y-113202633D01*
X112375792Y-113173806D01*
X112400306Y-113149292D01*
X112414317Y-113139930D01*
X112433254Y-113124388D01*
X112448800Y-113105446D01*
X112460351Y-113083835D01*
X112467464Y-113060386D01*
X112469866Y-113036000D01*
X112467464Y-113011614D01*
X112460351Y-112988165D01*
X112448800Y-112966554D01*
X112433254Y-112947612D01*
X112414317Y-112932070D01*
X112400306Y-112922708D01*
X112375792Y-112898194D01*
X112356530Y-112869367D01*
X112343263Y-112837337D01*
X112336500Y-112803335D01*
X112336500Y-112768665D01*
X112343263Y-112734663D01*
X112356530Y-112702633D01*
X112375792Y-112673806D01*
X112400306Y-112649292D01*
X112414317Y-112639930D01*
X112433254Y-112624388D01*
X112448800Y-112605446D01*
X112460351Y-112583835D01*
X112467464Y-112560386D01*
X112469866Y-112536000D01*
X112467464Y-112511614D01*
X112460351Y-112488165D01*
X112448800Y-112466554D01*
X112433254Y-112447612D01*
X112414317Y-112432070D01*
X112400306Y-112422708D01*
X112375792Y-112398194D01*
X112356530Y-112369367D01*
X112343263Y-112337337D01*
X112336500Y-112303335D01*
X112336500Y-112268665D01*
X112343263Y-112234663D01*
X112356530Y-112202633D01*
X112375792Y-112173806D01*
X112400306Y-112149292D01*
X112414317Y-112139930D01*
X112433254Y-112124388D01*
X112448800Y-112105446D01*
X112460351Y-112083835D01*
X112467464Y-112060386D01*
X112469866Y-112036000D01*
X112467464Y-112011614D01*
X112460351Y-111988165D01*
X112448800Y-111966554D01*
X112433254Y-111947612D01*
X112414317Y-111932070D01*
X112400306Y-111922708D01*
X112375792Y-111898194D01*
X112356530Y-111869367D01*
X112343263Y-111837337D01*
X112336500Y-111803335D01*
X112336500Y-111768665D01*
X112343263Y-111734663D01*
X112356530Y-111702633D01*
X112375792Y-111673806D01*
X112400306Y-111649292D01*
X112414317Y-111639930D01*
X112433254Y-111624388D01*
X112448800Y-111605446D01*
X112460351Y-111583835D01*
X112467464Y-111560386D01*
X112469866Y-111536000D01*
X112467464Y-111511614D01*
X112460351Y-111488165D01*
X112448800Y-111466554D01*
X112433254Y-111447612D01*
X112414317Y-111432070D01*
X112400306Y-111422708D01*
X112375792Y-111398194D01*
X112356530Y-111369367D01*
X112343263Y-111337337D01*
X112336500Y-111303335D01*
X112336500Y-111268665D01*
X112343263Y-111234663D01*
X112356530Y-111202633D01*
X112375792Y-111173806D01*
X112400306Y-111149292D01*
X112414317Y-111139930D01*
X112433254Y-111124388D01*
X112448800Y-111105446D01*
X112460351Y-111083835D01*
X112467464Y-111060386D01*
X112469866Y-111036000D01*
X112467464Y-111011614D01*
X112460351Y-110988165D01*
X112448800Y-110966554D01*
X112433254Y-110947612D01*
X112414317Y-110932070D01*
X112400306Y-110922708D01*
X112375792Y-110898194D01*
X112356530Y-110869367D01*
X112343263Y-110837337D01*
X112336500Y-110803335D01*
X112336500Y-110768665D01*
X112343263Y-110734663D01*
X112356530Y-110702633D01*
X112375792Y-110673806D01*
X112400306Y-110649292D01*
X112429133Y-110630030D01*
X112461163Y-110616763D01*
X112495165Y-110610000D01*
X112529835Y-110610000D01*
X112563837Y-110616763D01*
X112563837Y-110616763D01*
G37*
G36*
X117043837Y-110616763D02*
X117075867Y-110630030D01*
X117104694Y-110649292D01*
X117129208Y-110673806D01*
X117148470Y-110702633D01*
X117161737Y-110734663D01*
X117168500Y-110768665D01*
X117168500Y-110803335D01*
X117161737Y-110837337D01*
X117148470Y-110869367D01*
X117129208Y-110898194D01*
X117104694Y-110922708D01*
X117090683Y-110932070D01*
X117071746Y-110947612D01*
X117056200Y-110966554D01*
X117044649Y-110988165D01*
X117037536Y-111011614D01*
X117035134Y-111036000D01*
X117037536Y-111060386D01*
X117044649Y-111083835D01*
X117056200Y-111105446D01*
X117071746Y-111124388D01*
X117090683Y-111139930D01*
X117104694Y-111149292D01*
X117129208Y-111173806D01*
X117148470Y-111202633D01*
X117161737Y-111234663D01*
X117168500Y-111268665D01*
X117168500Y-111303335D01*
X117161737Y-111337337D01*
X117148470Y-111369367D01*
X117129208Y-111398194D01*
X117104694Y-111422708D01*
X117090683Y-111432070D01*
X117071746Y-111447612D01*
X117056200Y-111466554D01*
X117044649Y-111488165D01*
X117037536Y-111511614D01*
X117035134Y-111536000D01*
X117037536Y-111560386D01*
X117044649Y-111583835D01*
X117056200Y-111605446D01*
X117071746Y-111624388D01*
X117090683Y-111639930D01*
X117104694Y-111649292D01*
X117129208Y-111673806D01*
X117148470Y-111702633D01*
X117161737Y-111734663D01*
X117168500Y-111768665D01*
X117168500Y-111803335D01*
X117161737Y-111837337D01*
X117148470Y-111869367D01*
X117129208Y-111898194D01*
X117104694Y-111922708D01*
X117090683Y-111932070D01*
X117071746Y-111947612D01*
X117056200Y-111966554D01*
X117044649Y-111988165D01*
X117037536Y-112011614D01*
X117035134Y-112036000D01*
X117037536Y-112060386D01*
X117044649Y-112083835D01*
X117056200Y-112105446D01*
X117071746Y-112124388D01*
X117090683Y-112139930D01*
X117104694Y-112149292D01*
X117129208Y-112173806D01*
X117148470Y-112202633D01*
X117161737Y-112234663D01*
X117168500Y-112268665D01*
X117168500Y-112303335D01*
X117161737Y-112337337D01*
X117148470Y-112369367D01*
X117129208Y-112398194D01*
X117104694Y-112422708D01*
X117090683Y-112432070D01*
X117071746Y-112447612D01*
X117056200Y-112466554D01*
X117044649Y-112488165D01*
X117037536Y-112511614D01*
X117035134Y-112536000D01*
X117037536Y-112560386D01*
X117044649Y-112583835D01*
X117056200Y-112605446D01*
X117071746Y-112624388D01*
X117090683Y-112639930D01*
X117104694Y-112649292D01*
X117129208Y-112673806D01*
X117148470Y-112702633D01*
X117161737Y-112734663D01*
X117168500Y-112768665D01*
X117168500Y-112803335D01*
X117161737Y-112837337D01*
X117148470Y-112869367D01*
X117129208Y-112898194D01*
X117104694Y-112922708D01*
X117090683Y-112932070D01*
X117071746Y-112947612D01*
X117056200Y-112966554D01*
X117044649Y-112988165D01*
X117037536Y-113011614D01*
X117035134Y-113036000D01*
X117037536Y-113060386D01*
X117044649Y-113083835D01*
X117056200Y-113105446D01*
X117071746Y-113124388D01*
X117090683Y-113139930D01*
X117104694Y-113149292D01*
X117129208Y-113173806D01*
X117148470Y-113202633D01*
X117161737Y-113234663D01*
X117168500Y-113268665D01*
X117168500Y-113303335D01*
X117161737Y-113337337D01*
X117148470Y-113369367D01*
X117129208Y-113398194D01*
X117104694Y-113422708D01*
X117090683Y-113432070D01*
X117071746Y-113447612D01*
X117056200Y-113466554D01*
X117044649Y-113488165D01*
X117037536Y-113511614D01*
X117035134Y-113536000D01*
X117037536Y-113560386D01*
X117044649Y-113583835D01*
X117056200Y-113605446D01*
X117071746Y-113624388D01*
X117090683Y-113639930D01*
X117104694Y-113649292D01*
X117129208Y-113673806D01*
X117148470Y-113702633D01*
X117161737Y-113734663D01*
X117168500Y-113768665D01*
X117168500Y-113803335D01*
X117161737Y-113837337D01*
X117148470Y-113869367D01*
X117129208Y-113898194D01*
X117104694Y-113922708D01*
X117090683Y-113932070D01*
X117071746Y-113947612D01*
X117056200Y-113966554D01*
X117044649Y-113988165D01*
X117037536Y-114011614D01*
X117035134Y-114036000D01*
X117037536Y-114060386D01*
X117044649Y-114083835D01*
X117056200Y-114105446D01*
X117071746Y-114124388D01*
X117090683Y-114139930D01*
X117104694Y-114149292D01*
X117129208Y-114173806D01*
X117148470Y-114202633D01*
X117161737Y-114234663D01*
X117168500Y-114268665D01*
X117168500Y-114303335D01*
X117161737Y-114337337D01*
X117148470Y-114369367D01*
X117129208Y-114398194D01*
X117104694Y-114422708D01*
X117075867Y-114441970D01*
X117043837Y-114455237D01*
X117009835Y-114462000D01*
X116975165Y-114462000D01*
X116941163Y-114455237D01*
X116909133Y-114441970D01*
X116880306Y-114422708D01*
X116855792Y-114398194D01*
X116836530Y-114369367D01*
X116823263Y-114337337D01*
X116816500Y-114303335D01*
X116816500Y-114268665D01*
X116823263Y-114234663D01*
X116836530Y-114202633D01*
X116855792Y-114173806D01*
X116880306Y-114149292D01*
X116894317Y-114139930D01*
X116913254Y-114124388D01*
X116928800Y-114105446D01*
X116940351Y-114083835D01*
X116947464Y-114060386D01*
X116949866Y-114036000D01*
X116947464Y-114011614D01*
X116940351Y-113988165D01*
X116928800Y-113966554D01*
X116913254Y-113947612D01*
X116894317Y-113932070D01*
X116880306Y-113922708D01*
X116855792Y-113898194D01*
X116836530Y-113869367D01*
X116823263Y-113837337D01*
X116816500Y-113803335D01*
X116816500Y-113768665D01*
X116823263Y-113734663D01*
X116836530Y-113702633D01*
X116855792Y-113673806D01*
X116880306Y-113649292D01*
X116894317Y-113639930D01*
X116913254Y-113624388D01*
X116928800Y-113605446D01*
X116940351Y-113583835D01*
X116947464Y-113560386D01*
X116949866Y-113536000D01*
X116947464Y-113511614D01*
X116940351Y-113488165D01*
X116928800Y-113466554D01*
X116913254Y-113447612D01*
X116894317Y-113432070D01*
X116880306Y-113422708D01*
X116855792Y-113398194D01*
X116836530Y-113369367D01*
X116823263Y-113337337D01*
X116816500Y-113303335D01*
X116816500Y-113268665D01*
X116823263Y-113234663D01*
X116836530Y-113202633D01*
X116855792Y-113173806D01*
X116880306Y-113149292D01*
X116894317Y-113139930D01*
X116913254Y-113124388D01*
X116928800Y-113105446D01*
X116940351Y-113083835D01*
X116947464Y-113060386D01*
X116949866Y-113036000D01*
X116947464Y-113011614D01*
X116940351Y-112988165D01*
X116928800Y-112966554D01*
X116913254Y-112947612D01*
X116894317Y-112932070D01*
X116880306Y-112922708D01*
X116855792Y-112898194D01*
X116836530Y-112869367D01*
X116823263Y-112837337D01*
X116816500Y-112803335D01*
X116816500Y-112768665D01*
X116823263Y-112734663D01*
X116836530Y-112702633D01*
X116855792Y-112673806D01*
X116880306Y-112649292D01*
X116894317Y-112639930D01*
X116913254Y-112624388D01*
X116928800Y-112605446D01*
X116940351Y-112583835D01*
X116947464Y-112560386D01*
X116949866Y-112536000D01*
X116947464Y-112511614D01*
X116940351Y-112488165D01*
X116928800Y-112466554D01*
X116913254Y-112447612D01*
X116894317Y-112432070D01*
X116880306Y-112422708D01*
X116855792Y-112398194D01*
X116836530Y-112369367D01*
X116823263Y-112337337D01*
X116816500Y-112303335D01*
X116816500Y-112268665D01*
X116823263Y-112234663D01*
X116836530Y-112202633D01*
X116855792Y-112173806D01*
X116880306Y-112149292D01*
X116894317Y-112139930D01*
X116913254Y-112124388D01*
X116928800Y-112105446D01*
X116940351Y-112083835D01*
X116947464Y-112060386D01*
X116949866Y-112036000D01*
X116947464Y-112011614D01*
X116940351Y-111988165D01*
X116928800Y-111966554D01*
X116913254Y-111947612D01*
X116894317Y-111932070D01*
X116880306Y-111922708D01*
X116855792Y-111898194D01*
X116836530Y-111869367D01*
X116823263Y-111837337D01*
X116816500Y-111803335D01*
X116816500Y-111768665D01*
X116823263Y-111734663D01*
X116836530Y-111702633D01*
X116855792Y-111673806D01*
X116880306Y-111649292D01*
X116894317Y-111639930D01*
X116913254Y-111624388D01*
X116928800Y-111605446D01*
X116940351Y-111583835D01*
X116947464Y-111560386D01*
X116949866Y-111536000D01*
X116947464Y-111511614D01*
X116940351Y-111488165D01*
X116928800Y-111466554D01*
X116913254Y-111447612D01*
X116894317Y-111432070D01*
X116880306Y-111422708D01*
X116855792Y-111398194D01*
X116836530Y-111369367D01*
X116823263Y-111337337D01*
X116816500Y-111303335D01*
X116816500Y-111268665D01*
X116823263Y-111234663D01*
X116836530Y-111202633D01*
X116855792Y-111173806D01*
X116880306Y-111149292D01*
X116894317Y-111139930D01*
X116913254Y-111124388D01*
X116928800Y-111105446D01*
X116940351Y-111083835D01*
X116947464Y-111060386D01*
X116949866Y-111036000D01*
X116947464Y-111011614D01*
X116940351Y-110988165D01*
X116928800Y-110966554D01*
X116913254Y-110947612D01*
X116894317Y-110932070D01*
X116880306Y-110922708D01*
X116855792Y-110898194D01*
X116836530Y-110869367D01*
X116823263Y-110837337D01*
X116816500Y-110803335D01*
X116816500Y-110768665D01*
X116823263Y-110734663D01*
X116836530Y-110702633D01*
X116855792Y-110673806D01*
X116880306Y-110649292D01*
X116909133Y-110630030D01*
X116941163Y-110616763D01*
X116975165Y-110610000D01*
X117009835Y-110610000D01*
X117043837Y-110616763D01*
X117043837Y-110616763D01*
G37*
G36*
X186403837Y-110616763D02*
X186435867Y-110630030D01*
X186464694Y-110649292D01*
X186489208Y-110673806D01*
X186508470Y-110702633D01*
X186521737Y-110734663D01*
X186528500Y-110768665D01*
X186528500Y-110803335D01*
X186521737Y-110837337D01*
X186508470Y-110869367D01*
X186489208Y-110898194D01*
X186464694Y-110922708D01*
X186450683Y-110932070D01*
X186431746Y-110947612D01*
X186416200Y-110966554D01*
X186404649Y-110988165D01*
X186397536Y-111011614D01*
X186395134Y-111036000D01*
X186397536Y-111060386D01*
X186404649Y-111083835D01*
X186416200Y-111105446D01*
X186431746Y-111124388D01*
X186450683Y-111139930D01*
X186464694Y-111149292D01*
X186489208Y-111173806D01*
X186508470Y-111202633D01*
X186521737Y-111234663D01*
X186528500Y-111268665D01*
X186528500Y-111303335D01*
X186521737Y-111337337D01*
X186508470Y-111369367D01*
X186489208Y-111398194D01*
X186464694Y-111422708D01*
X186450683Y-111432070D01*
X186431746Y-111447612D01*
X186416200Y-111466554D01*
X186404649Y-111488165D01*
X186397536Y-111511614D01*
X186395134Y-111536000D01*
X186397536Y-111560386D01*
X186404649Y-111583835D01*
X186416200Y-111605446D01*
X186431746Y-111624388D01*
X186450683Y-111639930D01*
X186464694Y-111649292D01*
X186489208Y-111673806D01*
X186508470Y-111702633D01*
X186521737Y-111734663D01*
X186528500Y-111768665D01*
X186528500Y-111803335D01*
X186521737Y-111837337D01*
X186508470Y-111869367D01*
X186489208Y-111898194D01*
X186464694Y-111922708D01*
X186450683Y-111932070D01*
X186431746Y-111947612D01*
X186416200Y-111966554D01*
X186404649Y-111988165D01*
X186397536Y-112011614D01*
X186395134Y-112036000D01*
X186397536Y-112060386D01*
X186404649Y-112083835D01*
X186416200Y-112105446D01*
X186431746Y-112124388D01*
X186450683Y-112139930D01*
X186464694Y-112149292D01*
X186489208Y-112173806D01*
X186508470Y-112202633D01*
X186521737Y-112234663D01*
X186528500Y-112268665D01*
X186528500Y-112303335D01*
X186521737Y-112337337D01*
X186508470Y-112369367D01*
X186489208Y-112398194D01*
X186464694Y-112422708D01*
X186450683Y-112432070D01*
X186431746Y-112447612D01*
X186416200Y-112466554D01*
X186404649Y-112488165D01*
X186397536Y-112511614D01*
X186395134Y-112536000D01*
X186397536Y-112560386D01*
X186404649Y-112583835D01*
X186416200Y-112605446D01*
X186431746Y-112624388D01*
X186450683Y-112639930D01*
X186464694Y-112649292D01*
X186489208Y-112673806D01*
X186508470Y-112702633D01*
X186521737Y-112734663D01*
X186528500Y-112768665D01*
X186528500Y-112803335D01*
X186521737Y-112837337D01*
X186508470Y-112869367D01*
X186489208Y-112898194D01*
X186464694Y-112922708D01*
X186450683Y-112932070D01*
X186431746Y-112947612D01*
X186416200Y-112966554D01*
X186404649Y-112988165D01*
X186397536Y-113011614D01*
X186395134Y-113036000D01*
X186397536Y-113060386D01*
X186404649Y-113083835D01*
X186416200Y-113105446D01*
X186431746Y-113124388D01*
X186450683Y-113139930D01*
X186464694Y-113149292D01*
X186489208Y-113173806D01*
X186508470Y-113202633D01*
X186521737Y-113234663D01*
X186528500Y-113268665D01*
X186528500Y-113303335D01*
X186521737Y-113337337D01*
X186508470Y-113369367D01*
X186489208Y-113398194D01*
X186464694Y-113422708D01*
X186450683Y-113432070D01*
X186431746Y-113447612D01*
X186416200Y-113466554D01*
X186404649Y-113488165D01*
X186397536Y-113511614D01*
X186395134Y-113536000D01*
X186397536Y-113560386D01*
X186404649Y-113583835D01*
X186416200Y-113605446D01*
X186431746Y-113624388D01*
X186450683Y-113639930D01*
X186464694Y-113649292D01*
X186489208Y-113673806D01*
X186508470Y-113702633D01*
X186521737Y-113734663D01*
X186528500Y-113768665D01*
X186528500Y-113803335D01*
X186521737Y-113837337D01*
X186508470Y-113869367D01*
X186489208Y-113898194D01*
X186464694Y-113922708D01*
X186450683Y-113932070D01*
X186431746Y-113947612D01*
X186416200Y-113966554D01*
X186404649Y-113988165D01*
X186397536Y-114011614D01*
X186395134Y-114036000D01*
X186397536Y-114060386D01*
X186404649Y-114083835D01*
X186416200Y-114105446D01*
X186431746Y-114124388D01*
X186450683Y-114139930D01*
X186464694Y-114149292D01*
X186489208Y-114173806D01*
X186508470Y-114202633D01*
X186521737Y-114234663D01*
X186528500Y-114268665D01*
X186528500Y-114303335D01*
X186521737Y-114337337D01*
X186508470Y-114369367D01*
X186489208Y-114398194D01*
X186464694Y-114422708D01*
X186435867Y-114441970D01*
X186403837Y-114455237D01*
X186369835Y-114462000D01*
X186335165Y-114462000D01*
X186301163Y-114455237D01*
X186269133Y-114441970D01*
X186240306Y-114422708D01*
X186215792Y-114398194D01*
X186196530Y-114369367D01*
X186183263Y-114337337D01*
X186176500Y-114303335D01*
X186176500Y-114268665D01*
X186183263Y-114234663D01*
X186196530Y-114202633D01*
X186215792Y-114173806D01*
X186240306Y-114149292D01*
X186254317Y-114139930D01*
X186273254Y-114124388D01*
X186288800Y-114105446D01*
X186300351Y-114083835D01*
X186307464Y-114060386D01*
X186309866Y-114036000D01*
X186307464Y-114011614D01*
X186300351Y-113988165D01*
X186288800Y-113966554D01*
X186273254Y-113947612D01*
X186254317Y-113932070D01*
X186240306Y-113922708D01*
X186215792Y-113898194D01*
X186196530Y-113869367D01*
X186183263Y-113837337D01*
X186176500Y-113803335D01*
X186176500Y-113768665D01*
X186183263Y-113734663D01*
X186196530Y-113702633D01*
X186215792Y-113673806D01*
X186240306Y-113649292D01*
X186254317Y-113639930D01*
X186273254Y-113624388D01*
X186288800Y-113605446D01*
X186300351Y-113583835D01*
X186307464Y-113560386D01*
X186309866Y-113536000D01*
X186307464Y-113511614D01*
X186300351Y-113488165D01*
X186288800Y-113466554D01*
X186273254Y-113447612D01*
X186254317Y-113432070D01*
X186240306Y-113422708D01*
X186215792Y-113398194D01*
X186196530Y-113369367D01*
X186183263Y-113337337D01*
X186176500Y-113303335D01*
X186176500Y-113268665D01*
X186183263Y-113234663D01*
X186196530Y-113202633D01*
X186215792Y-113173806D01*
X186240306Y-113149292D01*
X186254317Y-113139930D01*
X186273254Y-113124388D01*
X186288800Y-113105446D01*
X186300351Y-113083835D01*
X186307464Y-113060386D01*
X186309866Y-113036000D01*
X186307464Y-113011614D01*
X186300351Y-112988165D01*
X186288800Y-112966554D01*
X186273254Y-112947612D01*
X186254317Y-112932070D01*
X186240306Y-112922708D01*
X186215792Y-112898194D01*
X186196530Y-112869367D01*
X186183263Y-112837337D01*
X186176500Y-112803335D01*
X186176500Y-112768665D01*
X186183263Y-112734663D01*
X186196530Y-112702633D01*
X186215792Y-112673806D01*
X186240306Y-112649292D01*
X186254317Y-112639930D01*
X186273254Y-112624388D01*
X186288800Y-112605446D01*
X186300351Y-112583835D01*
X186307464Y-112560386D01*
X186309866Y-112536000D01*
X186307464Y-112511614D01*
X186300351Y-112488165D01*
X186288800Y-112466554D01*
X186273254Y-112447612D01*
X186254317Y-112432070D01*
X186240306Y-112422708D01*
X186215792Y-112398194D01*
X186196530Y-112369367D01*
X186183263Y-112337337D01*
X186176500Y-112303335D01*
X186176500Y-112268665D01*
X186183263Y-112234663D01*
X186196530Y-112202633D01*
X186215792Y-112173806D01*
X186240306Y-112149292D01*
X186254317Y-112139930D01*
X186273254Y-112124388D01*
X186288800Y-112105446D01*
X186300351Y-112083835D01*
X186307464Y-112060386D01*
X186309866Y-112036000D01*
X186307464Y-112011614D01*
X186300351Y-111988165D01*
X186288800Y-111966554D01*
X186273254Y-111947612D01*
X186254317Y-111932070D01*
X186240306Y-111922708D01*
X186215792Y-111898194D01*
X186196530Y-111869367D01*
X186183263Y-111837337D01*
X186176500Y-111803335D01*
X186176500Y-111768665D01*
X186183263Y-111734663D01*
X186196530Y-111702633D01*
X186215792Y-111673806D01*
X186240306Y-111649292D01*
X186254317Y-111639930D01*
X186273254Y-111624388D01*
X186288800Y-111605446D01*
X186300351Y-111583835D01*
X186307464Y-111560386D01*
X186309866Y-111536000D01*
X186307464Y-111511614D01*
X186300351Y-111488165D01*
X186288800Y-111466554D01*
X186273254Y-111447612D01*
X186254317Y-111432070D01*
X186240306Y-111422708D01*
X186215792Y-111398194D01*
X186196530Y-111369367D01*
X186183263Y-111337337D01*
X186176500Y-111303335D01*
X186176500Y-111268665D01*
X186183263Y-111234663D01*
X186196530Y-111202633D01*
X186215792Y-111173806D01*
X186240306Y-111149292D01*
X186254317Y-111139930D01*
X186273254Y-111124388D01*
X186288800Y-111105446D01*
X186300351Y-111083835D01*
X186307464Y-111060386D01*
X186309866Y-111036000D01*
X186307464Y-111011614D01*
X186300351Y-110988165D01*
X186288800Y-110966554D01*
X186273254Y-110947612D01*
X186254317Y-110932070D01*
X186240306Y-110922708D01*
X186215792Y-110898194D01*
X186196530Y-110869367D01*
X186183263Y-110837337D01*
X186176500Y-110803335D01*
X186176500Y-110768665D01*
X186183263Y-110734663D01*
X186196530Y-110702633D01*
X186215792Y-110673806D01*
X186240306Y-110649292D01*
X186269133Y-110630030D01*
X186301163Y-110616763D01*
X186335165Y-110610000D01*
X186369835Y-110610000D01*
X186403837Y-110616763D01*
X186403837Y-110616763D01*
G37*
G36*
X185763837Y-110616763D02*
X185795867Y-110630030D01*
X185824694Y-110649292D01*
X185849208Y-110673806D01*
X185868470Y-110702633D01*
X185881737Y-110734663D01*
X185888500Y-110768665D01*
X185888500Y-110803335D01*
X185881737Y-110837337D01*
X185868470Y-110869367D01*
X185849208Y-110898194D01*
X185824694Y-110922708D01*
X185810683Y-110932070D01*
X185791746Y-110947612D01*
X185776200Y-110966554D01*
X185764649Y-110988165D01*
X185757536Y-111011614D01*
X185755134Y-111036000D01*
X185757536Y-111060386D01*
X185764649Y-111083835D01*
X185776200Y-111105446D01*
X185791746Y-111124388D01*
X185810683Y-111139930D01*
X185824694Y-111149292D01*
X185849208Y-111173806D01*
X185868470Y-111202633D01*
X185881737Y-111234663D01*
X185888500Y-111268665D01*
X185888500Y-111303335D01*
X185881737Y-111337337D01*
X185868470Y-111369367D01*
X185849208Y-111398194D01*
X185824694Y-111422708D01*
X185810683Y-111432070D01*
X185791746Y-111447612D01*
X185776200Y-111466554D01*
X185764649Y-111488165D01*
X185757536Y-111511614D01*
X185755134Y-111536000D01*
X185757536Y-111560386D01*
X185764649Y-111583835D01*
X185776200Y-111605446D01*
X185791746Y-111624388D01*
X185810683Y-111639930D01*
X185824694Y-111649292D01*
X185849208Y-111673806D01*
X185868470Y-111702633D01*
X185881737Y-111734663D01*
X185888500Y-111768665D01*
X185888500Y-111803335D01*
X185881737Y-111837337D01*
X185868470Y-111869367D01*
X185849208Y-111898194D01*
X185824694Y-111922708D01*
X185810683Y-111932070D01*
X185791746Y-111947612D01*
X185776200Y-111966554D01*
X185764649Y-111988165D01*
X185757536Y-112011614D01*
X185755134Y-112036000D01*
X185757536Y-112060386D01*
X185764649Y-112083835D01*
X185776200Y-112105446D01*
X185791746Y-112124388D01*
X185810683Y-112139930D01*
X185824694Y-112149292D01*
X185849208Y-112173806D01*
X185868470Y-112202633D01*
X185881737Y-112234663D01*
X185888500Y-112268665D01*
X185888500Y-112303335D01*
X185881737Y-112337337D01*
X185868470Y-112369367D01*
X185849208Y-112398194D01*
X185824694Y-112422708D01*
X185810683Y-112432070D01*
X185791746Y-112447612D01*
X185776200Y-112466554D01*
X185764649Y-112488165D01*
X185757536Y-112511614D01*
X185755134Y-112536000D01*
X185757536Y-112560386D01*
X185764649Y-112583835D01*
X185776200Y-112605446D01*
X185791746Y-112624388D01*
X185810683Y-112639930D01*
X185824694Y-112649292D01*
X185849208Y-112673806D01*
X185868470Y-112702633D01*
X185881737Y-112734663D01*
X185888500Y-112768665D01*
X185888500Y-112803335D01*
X185881737Y-112837337D01*
X185868470Y-112869367D01*
X185849208Y-112898194D01*
X185824694Y-112922708D01*
X185810683Y-112932070D01*
X185791746Y-112947612D01*
X185776200Y-112966554D01*
X185764649Y-112988165D01*
X185757536Y-113011614D01*
X185755134Y-113036000D01*
X185757536Y-113060386D01*
X185764649Y-113083835D01*
X185776200Y-113105446D01*
X185791746Y-113124388D01*
X185810683Y-113139930D01*
X185824694Y-113149292D01*
X185849208Y-113173806D01*
X185868470Y-113202633D01*
X185881737Y-113234663D01*
X185888500Y-113268665D01*
X185888500Y-113303335D01*
X185881737Y-113337337D01*
X185868470Y-113369367D01*
X185849208Y-113398194D01*
X185824694Y-113422708D01*
X185810683Y-113432070D01*
X185791746Y-113447612D01*
X185776200Y-113466554D01*
X185764649Y-113488165D01*
X185757536Y-113511614D01*
X185755134Y-113536000D01*
X185757536Y-113560386D01*
X185764649Y-113583835D01*
X185776200Y-113605446D01*
X185791746Y-113624388D01*
X185810683Y-113639930D01*
X185824694Y-113649292D01*
X185849208Y-113673806D01*
X185868470Y-113702633D01*
X185881737Y-113734663D01*
X185888500Y-113768665D01*
X185888500Y-113803335D01*
X185881737Y-113837337D01*
X185868470Y-113869367D01*
X185849208Y-113898194D01*
X185824694Y-113922708D01*
X185810683Y-113932070D01*
X185791746Y-113947612D01*
X185776200Y-113966554D01*
X185764649Y-113988165D01*
X185757536Y-114011614D01*
X185755134Y-114036000D01*
X185757536Y-114060386D01*
X185764649Y-114083835D01*
X185776200Y-114105446D01*
X185791746Y-114124388D01*
X185810683Y-114139930D01*
X185824694Y-114149292D01*
X185849208Y-114173806D01*
X185868470Y-114202633D01*
X185881737Y-114234663D01*
X185888500Y-114268665D01*
X185888500Y-114303335D01*
X185881737Y-114337337D01*
X185868470Y-114369367D01*
X185849208Y-114398194D01*
X185824694Y-114422708D01*
X185795867Y-114441970D01*
X185763837Y-114455237D01*
X185729835Y-114462000D01*
X185695165Y-114462000D01*
X185661163Y-114455237D01*
X185629133Y-114441970D01*
X185600306Y-114422708D01*
X185575792Y-114398194D01*
X185556530Y-114369367D01*
X185543263Y-114337337D01*
X185536500Y-114303335D01*
X185536500Y-114268665D01*
X185543263Y-114234663D01*
X185556530Y-114202633D01*
X185575792Y-114173806D01*
X185600306Y-114149292D01*
X185614317Y-114139930D01*
X185633254Y-114124388D01*
X185648800Y-114105446D01*
X185660351Y-114083835D01*
X185667464Y-114060386D01*
X185669866Y-114036000D01*
X185667464Y-114011614D01*
X185660351Y-113988165D01*
X185648800Y-113966554D01*
X185633254Y-113947612D01*
X185614317Y-113932070D01*
X185600306Y-113922708D01*
X185575792Y-113898194D01*
X185556530Y-113869367D01*
X185543263Y-113837337D01*
X185536500Y-113803335D01*
X185536500Y-113768665D01*
X185543263Y-113734663D01*
X185556530Y-113702633D01*
X185575792Y-113673806D01*
X185600306Y-113649292D01*
X185614317Y-113639930D01*
X185633254Y-113624388D01*
X185648800Y-113605446D01*
X185660351Y-113583835D01*
X185667464Y-113560386D01*
X185669866Y-113536000D01*
X185667464Y-113511614D01*
X185660351Y-113488165D01*
X185648800Y-113466554D01*
X185633254Y-113447612D01*
X185614317Y-113432070D01*
X185600306Y-113422708D01*
X185575792Y-113398194D01*
X185556530Y-113369367D01*
X185543263Y-113337337D01*
X185536500Y-113303335D01*
X185536500Y-113268665D01*
X185543263Y-113234663D01*
X185556530Y-113202633D01*
X185575792Y-113173806D01*
X185600306Y-113149292D01*
X185614317Y-113139930D01*
X185633254Y-113124388D01*
X185648800Y-113105446D01*
X185660351Y-113083835D01*
X185667464Y-113060386D01*
X185669866Y-113036000D01*
X185667464Y-113011614D01*
X185660351Y-112988165D01*
X185648800Y-112966554D01*
X185633254Y-112947612D01*
X185614317Y-112932070D01*
X185600306Y-112922708D01*
X185575792Y-112898194D01*
X185556530Y-112869367D01*
X185543263Y-112837337D01*
X185536500Y-112803335D01*
X185536500Y-112768665D01*
X185543263Y-112734663D01*
X185556530Y-112702633D01*
X185575792Y-112673806D01*
X185600306Y-112649292D01*
X185614317Y-112639930D01*
X185633254Y-112624388D01*
X185648800Y-112605446D01*
X185660351Y-112583835D01*
X185667464Y-112560386D01*
X185669866Y-112536000D01*
X185667464Y-112511614D01*
X185660351Y-112488165D01*
X185648800Y-112466554D01*
X185633254Y-112447612D01*
X185614317Y-112432070D01*
X185600306Y-112422708D01*
X185575792Y-112398194D01*
X185556530Y-112369367D01*
X185543263Y-112337337D01*
X185536500Y-112303335D01*
X185536500Y-112268665D01*
X185543263Y-112234663D01*
X185556530Y-112202633D01*
X185575792Y-112173806D01*
X185600306Y-112149292D01*
X185614317Y-112139930D01*
X185633254Y-112124388D01*
X185648800Y-112105446D01*
X185660351Y-112083835D01*
X185667464Y-112060386D01*
X185669866Y-112036000D01*
X185667464Y-112011614D01*
X185660351Y-111988165D01*
X185648800Y-111966554D01*
X185633254Y-111947612D01*
X185614317Y-111932070D01*
X185600306Y-111922708D01*
X185575792Y-111898194D01*
X185556530Y-111869367D01*
X185543263Y-111837337D01*
X185536500Y-111803335D01*
X185536500Y-111768665D01*
X185543263Y-111734663D01*
X185556530Y-111702633D01*
X185575792Y-111673806D01*
X185600306Y-111649292D01*
X185614317Y-111639930D01*
X185633254Y-111624388D01*
X185648800Y-111605446D01*
X185660351Y-111583835D01*
X185667464Y-111560386D01*
X185669866Y-111536000D01*
X185667464Y-111511614D01*
X185660351Y-111488165D01*
X185648800Y-111466554D01*
X185633254Y-111447612D01*
X185614317Y-111432070D01*
X185600306Y-111422708D01*
X185575792Y-111398194D01*
X185556530Y-111369367D01*
X185543263Y-111337337D01*
X185536500Y-111303335D01*
X185536500Y-111268665D01*
X185543263Y-111234663D01*
X185556530Y-111202633D01*
X185575792Y-111173806D01*
X185600306Y-111149292D01*
X185614317Y-111139930D01*
X185633254Y-111124388D01*
X185648800Y-111105446D01*
X185660351Y-111083835D01*
X185667464Y-111060386D01*
X185669866Y-111036000D01*
X185667464Y-111011614D01*
X185660351Y-110988165D01*
X185648800Y-110966554D01*
X185633254Y-110947612D01*
X185614317Y-110932070D01*
X185600306Y-110922708D01*
X185575792Y-110898194D01*
X185556530Y-110869367D01*
X185543263Y-110837337D01*
X185536500Y-110803335D01*
X185536500Y-110768665D01*
X185543263Y-110734663D01*
X185556530Y-110702633D01*
X185575792Y-110673806D01*
X185600306Y-110649292D01*
X185629133Y-110630030D01*
X185661163Y-110616763D01*
X185695165Y-110610000D01*
X185729835Y-110610000D01*
X185763837Y-110616763D01*
X185763837Y-110616763D01*
G37*
G36*
X185123837Y-110616763D02*
X185155867Y-110630030D01*
X185184694Y-110649292D01*
X185209208Y-110673806D01*
X185228470Y-110702633D01*
X185241737Y-110734663D01*
X185248500Y-110768665D01*
X185248500Y-110803335D01*
X185241737Y-110837337D01*
X185228470Y-110869367D01*
X185209208Y-110898194D01*
X185184694Y-110922708D01*
X185170683Y-110932070D01*
X185151746Y-110947612D01*
X185136200Y-110966554D01*
X185124649Y-110988165D01*
X185117536Y-111011614D01*
X185115134Y-111036000D01*
X185117536Y-111060386D01*
X185124649Y-111083835D01*
X185136200Y-111105446D01*
X185151746Y-111124388D01*
X185170683Y-111139930D01*
X185184694Y-111149292D01*
X185209208Y-111173806D01*
X185228470Y-111202633D01*
X185241737Y-111234663D01*
X185248500Y-111268665D01*
X185248500Y-111303335D01*
X185241737Y-111337337D01*
X185228470Y-111369367D01*
X185209208Y-111398194D01*
X185184694Y-111422708D01*
X185170683Y-111432070D01*
X185151746Y-111447612D01*
X185136200Y-111466554D01*
X185124649Y-111488165D01*
X185117536Y-111511614D01*
X185115134Y-111536000D01*
X185117536Y-111560386D01*
X185124649Y-111583835D01*
X185136200Y-111605446D01*
X185151746Y-111624388D01*
X185170683Y-111639930D01*
X185184694Y-111649292D01*
X185209208Y-111673806D01*
X185228470Y-111702633D01*
X185241737Y-111734663D01*
X185248500Y-111768665D01*
X185248500Y-111803335D01*
X185241737Y-111837337D01*
X185228470Y-111869367D01*
X185209208Y-111898194D01*
X185184694Y-111922708D01*
X185170683Y-111932070D01*
X185151746Y-111947612D01*
X185136200Y-111966554D01*
X185124649Y-111988165D01*
X185117536Y-112011614D01*
X185115134Y-112036000D01*
X185117536Y-112060386D01*
X185124649Y-112083835D01*
X185136200Y-112105446D01*
X185151746Y-112124388D01*
X185170683Y-112139930D01*
X185184694Y-112149292D01*
X185209208Y-112173806D01*
X185228470Y-112202633D01*
X185241737Y-112234663D01*
X185248500Y-112268665D01*
X185248500Y-112303335D01*
X185241737Y-112337337D01*
X185228470Y-112369367D01*
X185209208Y-112398194D01*
X185184694Y-112422708D01*
X185170683Y-112432070D01*
X185151746Y-112447612D01*
X185136200Y-112466554D01*
X185124649Y-112488165D01*
X185117536Y-112511614D01*
X185115134Y-112536000D01*
X185117536Y-112560386D01*
X185124649Y-112583835D01*
X185136200Y-112605446D01*
X185151746Y-112624388D01*
X185170683Y-112639930D01*
X185184694Y-112649292D01*
X185209208Y-112673806D01*
X185228470Y-112702633D01*
X185241737Y-112734663D01*
X185248500Y-112768665D01*
X185248500Y-112803335D01*
X185241737Y-112837337D01*
X185228470Y-112869367D01*
X185209208Y-112898194D01*
X185184694Y-112922708D01*
X185170683Y-112932070D01*
X185151746Y-112947612D01*
X185136200Y-112966554D01*
X185124649Y-112988165D01*
X185117536Y-113011614D01*
X185115134Y-113036000D01*
X185117536Y-113060386D01*
X185124649Y-113083835D01*
X185136200Y-113105446D01*
X185151746Y-113124388D01*
X185170683Y-113139930D01*
X185184694Y-113149292D01*
X185209208Y-113173806D01*
X185228470Y-113202633D01*
X185241737Y-113234663D01*
X185248500Y-113268665D01*
X185248500Y-113303335D01*
X185241737Y-113337337D01*
X185228470Y-113369367D01*
X185209208Y-113398194D01*
X185184694Y-113422708D01*
X185170683Y-113432070D01*
X185151746Y-113447612D01*
X185136200Y-113466554D01*
X185124649Y-113488165D01*
X185117536Y-113511614D01*
X185115134Y-113536000D01*
X185117536Y-113560386D01*
X185124649Y-113583835D01*
X185136200Y-113605446D01*
X185151746Y-113624388D01*
X185170683Y-113639930D01*
X185184694Y-113649292D01*
X185209208Y-113673806D01*
X185228470Y-113702633D01*
X185241737Y-113734663D01*
X185248500Y-113768665D01*
X185248500Y-113803335D01*
X185241737Y-113837337D01*
X185228470Y-113869367D01*
X185209208Y-113898194D01*
X185184694Y-113922708D01*
X185170683Y-113932070D01*
X185151746Y-113947612D01*
X185136200Y-113966554D01*
X185124649Y-113988165D01*
X185117536Y-114011614D01*
X185115134Y-114036000D01*
X185117536Y-114060386D01*
X185124649Y-114083835D01*
X185136200Y-114105446D01*
X185151746Y-114124388D01*
X185170683Y-114139930D01*
X185184694Y-114149292D01*
X185209208Y-114173806D01*
X185228470Y-114202633D01*
X185241737Y-114234663D01*
X185248500Y-114268665D01*
X185248500Y-114303335D01*
X185241737Y-114337337D01*
X185228470Y-114369367D01*
X185209208Y-114398194D01*
X185184694Y-114422708D01*
X185155867Y-114441970D01*
X185123837Y-114455237D01*
X185089835Y-114462000D01*
X185055165Y-114462000D01*
X185021163Y-114455237D01*
X184989133Y-114441970D01*
X184960306Y-114422708D01*
X184935792Y-114398194D01*
X184916530Y-114369367D01*
X184903263Y-114337337D01*
X184896500Y-114303335D01*
X184896500Y-114268665D01*
X184903263Y-114234663D01*
X184916530Y-114202633D01*
X184935792Y-114173806D01*
X184960306Y-114149292D01*
X184974317Y-114139930D01*
X184993254Y-114124388D01*
X185008800Y-114105446D01*
X185020351Y-114083835D01*
X185027464Y-114060386D01*
X185029866Y-114036000D01*
X185027464Y-114011614D01*
X185020351Y-113988165D01*
X185008800Y-113966554D01*
X184993254Y-113947612D01*
X184974317Y-113932070D01*
X184960306Y-113922708D01*
X184935792Y-113898194D01*
X184916530Y-113869367D01*
X184903263Y-113837337D01*
X184896500Y-113803335D01*
X184896500Y-113768665D01*
X184903263Y-113734663D01*
X184916530Y-113702633D01*
X184935792Y-113673806D01*
X184960306Y-113649292D01*
X184974317Y-113639930D01*
X184993254Y-113624388D01*
X185008800Y-113605446D01*
X185020351Y-113583835D01*
X185027464Y-113560386D01*
X185029866Y-113536000D01*
X185027464Y-113511614D01*
X185020351Y-113488165D01*
X185008800Y-113466554D01*
X184993254Y-113447612D01*
X184974317Y-113432070D01*
X184960306Y-113422708D01*
X184935792Y-113398194D01*
X184916530Y-113369367D01*
X184903263Y-113337337D01*
X184896500Y-113303335D01*
X184896500Y-113268665D01*
X184903263Y-113234663D01*
X184916530Y-113202633D01*
X184935792Y-113173806D01*
X184960306Y-113149292D01*
X184974317Y-113139930D01*
X184993254Y-113124388D01*
X185008800Y-113105446D01*
X185020351Y-113083835D01*
X185027464Y-113060386D01*
X185029866Y-113036000D01*
X185027464Y-113011614D01*
X185020351Y-112988165D01*
X185008800Y-112966554D01*
X184993254Y-112947612D01*
X184974317Y-112932070D01*
X184960306Y-112922708D01*
X184935792Y-112898194D01*
X184916530Y-112869367D01*
X184903263Y-112837337D01*
X184896500Y-112803335D01*
X184896500Y-112768665D01*
X184903263Y-112734663D01*
X184916530Y-112702633D01*
X184935792Y-112673806D01*
X184960306Y-112649292D01*
X184974317Y-112639930D01*
X184993254Y-112624388D01*
X185008800Y-112605446D01*
X185020351Y-112583835D01*
X185027464Y-112560386D01*
X185029866Y-112536000D01*
X185027464Y-112511614D01*
X185020351Y-112488165D01*
X185008800Y-112466554D01*
X184993254Y-112447612D01*
X184974317Y-112432070D01*
X184960306Y-112422708D01*
X184935792Y-112398194D01*
X184916530Y-112369367D01*
X184903263Y-112337337D01*
X184896500Y-112303335D01*
X184896500Y-112268665D01*
X184903263Y-112234663D01*
X184916530Y-112202633D01*
X184935792Y-112173806D01*
X184960306Y-112149292D01*
X184974317Y-112139930D01*
X184993254Y-112124388D01*
X185008800Y-112105446D01*
X185020351Y-112083835D01*
X185027464Y-112060386D01*
X185029866Y-112036000D01*
X185027464Y-112011614D01*
X185020351Y-111988165D01*
X185008800Y-111966554D01*
X184993254Y-111947612D01*
X184974317Y-111932070D01*
X184960306Y-111922708D01*
X184935792Y-111898194D01*
X184916530Y-111869367D01*
X184903263Y-111837337D01*
X184896500Y-111803335D01*
X184896500Y-111768665D01*
X184903263Y-111734663D01*
X184916530Y-111702633D01*
X184935792Y-111673806D01*
X184960306Y-111649292D01*
X184974317Y-111639930D01*
X184993254Y-111624388D01*
X185008800Y-111605446D01*
X185020351Y-111583835D01*
X185027464Y-111560386D01*
X185029866Y-111536000D01*
X185027464Y-111511614D01*
X185020351Y-111488165D01*
X185008800Y-111466554D01*
X184993254Y-111447612D01*
X184974317Y-111432070D01*
X184960306Y-111422708D01*
X184935792Y-111398194D01*
X184916530Y-111369367D01*
X184903263Y-111337337D01*
X184896500Y-111303335D01*
X184896500Y-111268665D01*
X184903263Y-111234663D01*
X184916530Y-111202633D01*
X184935792Y-111173806D01*
X184960306Y-111149292D01*
X184974317Y-111139930D01*
X184993254Y-111124388D01*
X185008800Y-111105446D01*
X185020351Y-111083835D01*
X185027464Y-111060386D01*
X185029866Y-111036000D01*
X185027464Y-111011614D01*
X185020351Y-110988165D01*
X185008800Y-110966554D01*
X184993254Y-110947612D01*
X184974317Y-110932070D01*
X184960306Y-110922708D01*
X184935792Y-110898194D01*
X184916530Y-110869367D01*
X184903263Y-110837337D01*
X184896500Y-110803335D01*
X184896500Y-110768665D01*
X184903263Y-110734663D01*
X184916530Y-110702633D01*
X184935792Y-110673806D01*
X184960306Y-110649292D01*
X184989133Y-110630030D01*
X185021163Y-110616763D01*
X185055165Y-110610000D01*
X185089835Y-110610000D01*
X185123837Y-110616763D01*
X185123837Y-110616763D01*
G37*
G36*
X184483837Y-110616763D02*
X184515867Y-110630030D01*
X184544694Y-110649292D01*
X184569208Y-110673806D01*
X184588470Y-110702633D01*
X184601737Y-110734663D01*
X184608500Y-110768665D01*
X184608500Y-110803335D01*
X184601737Y-110837337D01*
X184588470Y-110869367D01*
X184569208Y-110898194D01*
X184544694Y-110922708D01*
X184530683Y-110932070D01*
X184511746Y-110947612D01*
X184496200Y-110966554D01*
X184484649Y-110988165D01*
X184477536Y-111011614D01*
X184475134Y-111036000D01*
X184477536Y-111060386D01*
X184484649Y-111083835D01*
X184496200Y-111105446D01*
X184511746Y-111124388D01*
X184530683Y-111139930D01*
X184544694Y-111149292D01*
X184569208Y-111173806D01*
X184588470Y-111202633D01*
X184601737Y-111234663D01*
X184608500Y-111268665D01*
X184608500Y-111303335D01*
X184601737Y-111337337D01*
X184588470Y-111369367D01*
X184569208Y-111398194D01*
X184544694Y-111422708D01*
X184530683Y-111432070D01*
X184511746Y-111447612D01*
X184496200Y-111466554D01*
X184484649Y-111488165D01*
X184477536Y-111511614D01*
X184475134Y-111536000D01*
X184477536Y-111560386D01*
X184484649Y-111583835D01*
X184496200Y-111605446D01*
X184511746Y-111624388D01*
X184530683Y-111639930D01*
X184544694Y-111649292D01*
X184569208Y-111673806D01*
X184588470Y-111702633D01*
X184601737Y-111734663D01*
X184608500Y-111768665D01*
X184608500Y-111803335D01*
X184601737Y-111837337D01*
X184588470Y-111869367D01*
X184569208Y-111898194D01*
X184544694Y-111922708D01*
X184530683Y-111932070D01*
X184511746Y-111947612D01*
X184496200Y-111966554D01*
X184484649Y-111988165D01*
X184477536Y-112011614D01*
X184475134Y-112036000D01*
X184477536Y-112060386D01*
X184484649Y-112083835D01*
X184496200Y-112105446D01*
X184511746Y-112124388D01*
X184530683Y-112139930D01*
X184544694Y-112149292D01*
X184569208Y-112173806D01*
X184588470Y-112202633D01*
X184601737Y-112234663D01*
X184608500Y-112268665D01*
X184608500Y-112303335D01*
X184601737Y-112337337D01*
X184588470Y-112369367D01*
X184569208Y-112398194D01*
X184544694Y-112422708D01*
X184530683Y-112432070D01*
X184511746Y-112447612D01*
X184496200Y-112466554D01*
X184484649Y-112488165D01*
X184477536Y-112511614D01*
X184475134Y-112536000D01*
X184477536Y-112560386D01*
X184484649Y-112583835D01*
X184496200Y-112605446D01*
X184511746Y-112624388D01*
X184530683Y-112639930D01*
X184544694Y-112649292D01*
X184569208Y-112673806D01*
X184588470Y-112702633D01*
X184601737Y-112734663D01*
X184608500Y-112768665D01*
X184608500Y-112803335D01*
X184601737Y-112837337D01*
X184588470Y-112869367D01*
X184569208Y-112898194D01*
X184544694Y-112922708D01*
X184530683Y-112932070D01*
X184511746Y-112947612D01*
X184496200Y-112966554D01*
X184484649Y-112988165D01*
X184477536Y-113011614D01*
X184475134Y-113036000D01*
X184477536Y-113060386D01*
X184484649Y-113083835D01*
X184496200Y-113105446D01*
X184511746Y-113124388D01*
X184530683Y-113139930D01*
X184544694Y-113149292D01*
X184569208Y-113173806D01*
X184588470Y-113202633D01*
X184601737Y-113234663D01*
X184608500Y-113268665D01*
X184608500Y-113303335D01*
X184601737Y-113337337D01*
X184588470Y-113369367D01*
X184569208Y-113398194D01*
X184544694Y-113422708D01*
X184530683Y-113432070D01*
X184511746Y-113447612D01*
X184496200Y-113466554D01*
X184484649Y-113488165D01*
X184477536Y-113511614D01*
X184475134Y-113536000D01*
X184477536Y-113560386D01*
X184484649Y-113583835D01*
X184496200Y-113605446D01*
X184511746Y-113624388D01*
X184530683Y-113639930D01*
X184544694Y-113649292D01*
X184569208Y-113673806D01*
X184588470Y-113702633D01*
X184601737Y-113734663D01*
X184608500Y-113768665D01*
X184608500Y-113803335D01*
X184601737Y-113837337D01*
X184588470Y-113869367D01*
X184569208Y-113898194D01*
X184544694Y-113922708D01*
X184530683Y-113932070D01*
X184511746Y-113947612D01*
X184496200Y-113966554D01*
X184484649Y-113988165D01*
X184477536Y-114011614D01*
X184475134Y-114036000D01*
X184477536Y-114060386D01*
X184484649Y-114083835D01*
X184496200Y-114105446D01*
X184511746Y-114124388D01*
X184530683Y-114139930D01*
X184544694Y-114149292D01*
X184569208Y-114173806D01*
X184588470Y-114202633D01*
X184601737Y-114234663D01*
X184608500Y-114268665D01*
X184608500Y-114303335D01*
X184601737Y-114337337D01*
X184588470Y-114369367D01*
X184569208Y-114398194D01*
X184544694Y-114422708D01*
X184515867Y-114441970D01*
X184483837Y-114455237D01*
X184449835Y-114462000D01*
X184415165Y-114462000D01*
X184381163Y-114455237D01*
X184349133Y-114441970D01*
X184320306Y-114422708D01*
X184295792Y-114398194D01*
X184276530Y-114369367D01*
X184263263Y-114337337D01*
X184256500Y-114303335D01*
X184256500Y-114268665D01*
X184263263Y-114234663D01*
X184276530Y-114202633D01*
X184295792Y-114173806D01*
X184320306Y-114149292D01*
X184334317Y-114139930D01*
X184353254Y-114124388D01*
X184368800Y-114105446D01*
X184380351Y-114083835D01*
X184387464Y-114060386D01*
X184389866Y-114036000D01*
X184387464Y-114011614D01*
X184380351Y-113988165D01*
X184368800Y-113966554D01*
X184353254Y-113947612D01*
X184334317Y-113932070D01*
X184320306Y-113922708D01*
X184295792Y-113898194D01*
X184276530Y-113869367D01*
X184263263Y-113837337D01*
X184256500Y-113803335D01*
X184256500Y-113768665D01*
X184263263Y-113734663D01*
X184276530Y-113702633D01*
X184295792Y-113673806D01*
X184320306Y-113649292D01*
X184334317Y-113639930D01*
X184353254Y-113624388D01*
X184368800Y-113605446D01*
X184380351Y-113583835D01*
X184387464Y-113560386D01*
X184389866Y-113536000D01*
X184387464Y-113511614D01*
X184380351Y-113488165D01*
X184368800Y-113466554D01*
X184353254Y-113447612D01*
X184334317Y-113432070D01*
X184320306Y-113422708D01*
X184295792Y-113398194D01*
X184276530Y-113369367D01*
X184263263Y-113337337D01*
X184256500Y-113303335D01*
X184256500Y-113268665D01*
X184263263Y-113234663D01*
X184276530Y-113202633D01*
X184295792Y-113173806D01*
X184320306Y-113149292D01*
X184334317Y-113139930D01*
X184353254Y-113124388D01*
X184368800Y-113105446D01*
X184380351Y-113083835D01*
X184387464Y-113060386D01*
X184389866Y-113036000D01*
X184387464Y-113011614D01*
X184380351Y-112988165D01*
X184368800Y-112966554D01*
X184353254Y-112947612D01*
X184334317Y-112932070D01*
X184320306Y-112922708D01*
X184295792Y-112898194D01*
X184276530Y-112869367D01*
X184263263Y-112837337D01*
X184256500Y-112803335D01*
X184256500Y-112768665D01*
X184263263Y-112734663D01*
X184276530Y-112702633D01*
X184295792Y-112673806D01*
X184320306Y-112649292D01*
X184334317Y-112639930D01*
X184353254Y-112624388D01*
X184368800Y-112605446D01*
X184380351Y-112583835D01*
X184387464Y-112560386D01*
X184389866Y-112536000D01*
X184387464Y-112511614D01*
X184380351Y-112488165D01*
X184368800Y-112466554D01*
X184353254Y-112447612D01*
X184334317Y-112432070D01*
X184320306Y-112422708D01*
X184295792Y-112398194D01*
X184276530Y-112369367D01*
X184263263Y-112337337D01*
X184256500Y-112303335D01*
X184256500Y-112268665D01*
X184263263Y-112234663D01*
X184276530Y-112202633D01*
X184295792Y-112173806D01*
X184320306Y-112149292D01*
X184334317Y-112139930D01*
X184353254Y-112124388D01*
X184368800Y-112105446D01*
X184380351Y-112083835D01*
X184387464Y-112060386D01*
X184389866Y-112036000D01*
X184387464Y-112011614D01*
X184380351Y-111988165D01*
X184368800Y-111966554D01*
X184353254Y-111947612D01*
X184334317Y-111932070D01*
X184320306Y-111922708D01*
X184295792Y-111898194D01*
X184276530Y-111869367D01*
X184263263Y-111837337D01*
X184256500Y-111803335D01*
X184256500Y-111768665D01*
X184263263Y-111734663D01*
X184276530Y-111702633D01*
X184295792Y-111673806D01*
X184320306Y-111649292D01*
X184334317Y-111639930D01*
X184353254Y-111624388D01*
X184368800Y-111605446D01*
X184380351Y-111583835D01*
X184387464Y-111560386D01*
X184389866Y-111536000D01*
X184387464Y-111511614D01*
X184380351Y-111488165D01*
X184368800Y-111466554D01*
X184353254Y-111447612D01*
X184334317Y-111432070D01*
X184320306Y-111422708D01*
X184295792Y-111398194D01*
X184276530Y-111369367D01*
X184263263Y-111337337D01*
X184256500Y-111303335D01*
X184256500Y-111268665D01*
X184263263Y-111234663D01*
X184276530Y-111202633D01*
X184295792Y-111173806D01*
X184320306Y-111149292D01*
X184334317Y-111139930D01*
X184353254Y-111124388D01*
X184368800Y-111105446D01*
X184380351Y-111083835D01*
X184387464Y-111060386D01*
X184389866Y-111036000D01*
X184387464Y-111011614D01*
X184380351Y-110988165D01*
X184368800Y-110966554D01*
X184353254Y-110947612D01*
X184334317Y-110932070D01*
X184320306Y-110922708D01*
X184295792Y-110898194D01*
X184276530Y-110869367D01*
X184263263Y-110837337D01*
X184256500Y-110803335D01*
X184256500Y-110768665D01*
X184263263Y-110734663D01*
X184276530Y-110702633D01*
X184295792Y-110673806D01*
X184320306Y-110649292D01*
X184349133Y-110630030D01*
X184381163Y-110616763D01*
X184415165Y-110610000D01*
X184449835Y-110610000D01*
X184483837Y-110616763D01*
X184483837Y-110616763D01*
G37*
G36*
X183843837Y-110616763D02*
X183875867Y-110630030D01*
X183904694Y-110649292D01*
X183929208Y-110673806D01*
X183948470Y-110702633D01*
X183961737Y-110734663D01*
X183968500Y-110768665D01*
X183968500Y-110803335D01*
X183961737Y-110837337D01*
X183948470Y-110869367D01*
X183929208Y-110898194D01*
X183904694Y-110922708D01*
X183890683Y-110932070D01*
X183871746Y-110947612D01*
X183856200Y-110966554D01*
X183844649Y-110988165D01*
X183837536Y-111011614D01*
X183835134Y-111036000D01*
X183837536Y-111060386D01*
X183844649Y-111083835D01*
X183856200Y-111105446D01*
X183871746Y-111124388D01*
X183890683Y-111139930D01*
X183904694Y-111149292D01*
X183929208Y-111173806D01*
X183948470Y-111202633D01*
X183961737Y-111234663D01*
X183968500Y-111268665D01*
X183968500Y-111303335D01*
X183961737Y-111337337D01*
X183948470Y-111369367D01*
X183929208Y-111398194D01*
X183904694Y-111422708D01*
X183890683Y-111432070D01*
X183871746Y-111447612D01*
X183856200Y-111466554D01*
X183844649Y-111488165D01*
X183837536Y-111511614D01*
X183835134Y-111536000D01*
X183837536Y-111560386D01*
X183844649Y-111583835D01*
X183856200Y-111605446D01*
X183871746Y-111624388D01*
X183890683Y-111639930D01*
X183904694Y-111649292D01*
X183929208Y-111673806D01*
X183948470Y-111702633D01*
X183961737Y-111734663D01*
X183968500Y-111768665D01*
X183968500Y-111803335D01*
X183961737Y-111837337D01*
X183948470Y-111869367D01*
X183929208Y-111898194D01*
X183904694Y-111922708D01*
X183890683Y-111932070D01*
X183871746Y-111947612D01*
X183856200Y-111966554D01*
X183844649Y-111988165D01*
X183837536Y-112011614D01*
X183835134Y-112036000D01*
X183837536Y-112060386D01*
X183844649Y-112083835D01*
X183856200Y-112105446D01*
X183871746Y-112124388D01*
X183890683Y-112139930D01*
X183904694Y-112149292D01*
X183929208Y-112173806D01*
X183948470Y-112202633D01*
X183961737Y-112234663D01*
X183968500Y-112268665D01*
X183968500Y-112303335D01*
X183961737Y-112337337D01*
X183948470Y-112369367D01*
X183929208Y-112398194D01*
X183904694Y-112422708D01*
X183890683Y-112432070D01*
X183871746Y-112447612D01*
X183856200Y-112466554D01*
X183844649Y-112488165D01*
X183837536Y-112511614D01*
X183835134Y-112536000D01*
X183837536Y-112560386D01*
X183844649Y-112583835D01*
X183856200Y-112605446D01*
X183871746Y-112624388D01*
X183890683Y-112639930D01*
X183904694Y-112649292D01*
X183929208Y-112673806D01*
X183948470Y-112702633D01*
X183961737Y-112734663D01*
X183968500Y-112768665D01*
X183968500Y-112803335D01*
X183961737Y-112837337D01*
X183948470Y-112869367D01*
X183929208Y-112898194D01*
X183904694Y-112922708D01*
X183890683Y-112932070D01*
X183871746Y-112947612D01*
X183856200Y-112966554D01*
X183844649Y-112988165D01*
X183837536Y-113011614D01*
X183835134Y-113036000D01*
X183837536Y-113060386D01*
X183844649Y-113083835D01*
X183856200Y-113105446D01*
X183871746Y-113124388D01*
X183890683Y-113139930D01*
X183904694Y-113149292D01*
X183929208Y-113173806D01*
X183948470Y-113202633D01*
X183961737Y-113234663D01*
X183968500Y-113268665D01*
X183968500Y-113303335D01*
X183961737Y-113337337D01*
X183948470Y-113369367D01*
X183929208Y-113398194D01*
X183904694Y-113422708D01*
X183890683Y-113432070D01*
X183871746Y-113447612D01*
X183856200Y-113466554D01*
X183844649Y-113488165D01*
X183837536Y-113511614D01*
X183835134Y-113536000D01*
X183837536Y-113560386D01*
X183844649Y-113583835D01*
X183856200Y-113605446D01*
X183871746Y-113624388D01*
X183890683Y-113639930D01*
X183904694Y-113649292D01*
X183929208Y-113673806D01*
X183948470Y-113702633D01*
X183961737Y-113734663D01*
X183968500Y-113768665D01*
X183968500Y-113803335D01*
X183961737Y-113837337D01*
X183948470Y-113869367D01*
X183929208Y-113898194D01*
X183904694Y-113922708D01*
X183890683Y-113932070D01*
X183871746Y-113947612D01*
X183856200Y-113966554D01*
X183844649Y-113988165D01*
X183837536Y-114011614D01*
X183835134Y-114036000D01*
X183837536Y-114060386D01*
X183844649Y-114083835D01*
X183856200Y-114105446D01*
X183871746Y-114124388D01*
X183890683Y-114139930D01*
X183904694Y-114149292D01*
X183929208Y-114173806D01*
X183948470Y-114202633D01*
X183961737Y-114234663D01*
X183968500Y-114268665D01*
X183968500Y-114303335D01*
X183961737Y-114337337D01*
X183948470Y-114369367D01*
X183929208Y-114398194D01*
X183904694Y-114422708D01*
X183875867Y-114441970D01*
X183843837Y-114455237D01*
X183809835Y-114462000D01*
X183775165Y-114462000D01*
X183741163Y-114455237D01*
X183709133Y-114441970D01*
X183680306Y-114422708D01*
X183655792Y-114398194D01*
X183636530Y-114369367D01*
X183623263Y-114337337D01*
X183616500Y-114303335D01*
X183616500Y-114268665D01*
X183623263Y-114234663D01*
X183636530Y-114202633D01*
X183655792Y-114173806D01*
X183680306Y-114149292D01*
X183694317Y-114139930D01*
X183713254Y-114124388D01*
X183728800Y-114105446D01*
X183740351Y-114083835D01*
X183747464Y-114060386D01*
X183749866Y-114036000D01*
X183747464Y-114011614D01*
X183740351Y-113988165D01*
X183728800Y-113966554D01*
X183713254Y-113947612D01*
X183694317Y-113932070D01*
X183680306Y-113922708D01*
X183655792Y-113898194D01*
X183636530Y-113869367D01*
X183623263Y-113837337D01*
X183616500Y-113803335D01*
X183616500Y-113768665D01*
X183623263Y-113734663D01*
X183636530Y-113702633D01*
X183655792Y-113673806D01*
X183680306Y-113649292D01*
X183694317Y-113639930D01*
X183713254Y-113624388D01*
X183728800Y-113605446D01*
X183740351Y-113583835D01*
X183747464Y-113560386D01*
X183749866Y-113536000D01*
X183747464Y-113511614D01*
X183740351Y-113488165D01*
X183728800Y-113466554D01*
X183713254Y-113447612D01*
X183694317Y-113432070D01*
X183680306Y-113422708D01*
X183655792Y-113398194D01*
X183636530Y-113369367D01*
X183623263Y-113337337D01*
X183616500Y-113303335D01*
X183616500Y-113268665D01*
X183623263Y-113234663D01*
X183636530Y-113202633D01*
X183655792Y-113173806D01*
X183680306Y-113149292D01*
X183694317Y-113139930D01*
X183713254Y-113124388D01*
X183728800Y-113105446D01*
X183740351Y-113083835D01*
X183747464Y-113060386D01*
X183749866Y-113036000D01*
X183747464Y-113011614D01*
X183740351Y-112988165D01*
X183728800Y-112966554D01*
X183713254Y-112947612D01*
X183694317Y-112932070D01*
X183680306Y-112922708D01*
X183655792Y-112898194D01*
X183636530Y-112869367D01*
X183623263Y-112837337D01*
X183616500Y-112803335D01*
X183616500Y-112768665D01*
X183623263Y-112734663D01*
X183636530Y-112702633D01*
X183655792Y-112673806D01*
X183680306Y-112649292D01*
X183694317Y-112639930D01*
X183713254Y-112624388D01*
X183728800Y-112605446D01*
X183740351Y-112583835D01*
X183747464Y-112560386D01*
X183749866Y-112536000D01*
X183747464Y-112511614D01*
X183740351Y-112488165D01*
X183728800Y-112466554D01*
X183713254Y-112447612D01*
X183694317Y-112432070D01*
X183680306Y-112422708D01*
X183655792Y-112398194D01*
X183636530Y-112369367D01*
X183623263Y-112337337D01*
X183616500Y-112303335D01*
X183616500Y-112268665D01*
X183623263Y-112234663D01*
X183636530Y-112202633D01*
X183655792Y-112173806D01*
X183680306Y-112149292D01*
X183694317Y-112139930D01*
X183713254Y-112124388D01*
X183728800Y-112105446D01*
X183740351Y-112083835D01*
X183747464Y-112060386D01*
X183749866Y-112036000D01*
X183747464Y-112011614D01*
X183740351Y-111988165D01*
X183728800Y-111966554D01*
X183713254Y-111947612D01*
X183694317Y-111932070D01*
X183680306Y-111922708D01*
X183655792Y-111898194D01*
X183636530Y-111869367D01*
X183623263Y-111837337D01*
X183616500Y-111803335D01*
X183616500Y-111768665D01*
X183623263Y-111734663D01*
X183636530Y-111702633D01*
X183655792Y-111673806D01*
X183680306Y-111649292D01*
X183694317Y-111639930D01*
X183713254Y-111624388D01*
X183728800Y-111605446D01*
X183740351Y-111583835D01*
X183747464Y-111560386D01*
X183749866Y-111536000D01*
X183747464Y-111511614D01*
X183740351Y-111488165D01*
X183728800Y-111466554D01*
X183713254Y-111447612D01*
X183694317Y-111432070D01*
X183680306Y-111422708D01*
X183655792Y-111398194D01*
X183636530Y-111369367D01*
X183623263Y-111337337D01*
X183616500Y-111303335D01*
X183616500Y-111268665D01*
X183623263Y-111234663D01*
X183636530Y-111202633D01*
X183655792Y-111173806D01*
X183680306Y-111149292D01*
X183694317Y-111139930D01*
X183713254Y-111124388D01*
X183728800Y-111105446D01*
X183740351Y-111083835D01*
X183747464Y-111060386D01*
X183749866Y-111036000D01*
X183747464Y-111011614D01*
X183740351Y-110988165D01*
X183728800Y-110966554D01*
X183713254Y-110947612D01*
X183694317Y-110932070D01*
X183680306Y-110922708D01*
X183655792Y-110898194D01*
X183636530Y-110869367D01*
X183623263Y-110837337D01*
X183616500Y-110803335D01*
X183616500Y-110768665D01*
X183623263Y-110734663D01*
X183636530Y-110702633D01*
X183655792Y-110673806D01*
X183680306Y-110649292D01*
X183709133Y-110630030D01*
X183741163Y-110616763D01*
X183775165Y-110610000D01*
X183809835Y-110610000D01*
X183843837Y-110616763D01*
X183843837Y-110616763D01*
G37*
G36*
X183203837Y-110616763D02*
X183235867Y-110630030D01*
X183264694Y-110649292D01*
X183289208Y-110673806D01*
X183308470Y-110702633D01*
X183321737Y-110734663D01*
X183328500Y-110768665D01*
X183328500Y-110803335D01*
X183321737Y-110837337D01*
X183308470Y-110869367D01*
X183289208Y-110898194D01*
X183264694Y-110922708D01*
X183250683Y-110932070D01*
X183231746Y-110947612D01*
X183216200Y-110966554D01*
X183204649Y-110988165D01*
X183197536Y-111011614D01*
X183195134Y-111036000D01*
X183197536Y-111060386D01*
X183204649Y-111083835D01*
X183216200Y-111105446D01*
X183231746Y-111124388D01*
X183250683Y-111139930D01*
X183264694Y-111149292D01*
X183289208Y-111173806D01*
X183308470Y-111202633D01*
X183321737Y-111234663D01*
X183328500Y-111268665D01*
X183328500Y-111303335D01*
X183321737Y-111337337D01*
X183308470Y-111369367D01*
X183289208Y-111398194D01*
X183264694Y-111422708D01*
X183250683Y-111432070D01*
X183231746Y-111447612D01*
X183216200Y-111466554D01*
X183204649Y-111488165D01*
X183197536Y-111511614D01*
X183195134Y-111536000D01*
X183197536Y-111560386D01*
X183204649Y-111583835D01*
X183216200Y-111605446D01*
X183231746Y-111624388D01*
X183250683Y-111639930D01*
X183264694Y-111649292D01*
X183289208Y-111673806D01*
X183308470Y-111702633D01*
X183321737Y-111734663D01*
X183328500Y-111768665D01*
X183328500Y-111803335D01*
X183321737Y-111837337D01*
X183308470Y-111869367D01*
X183289208Y-111898194D01*
X183264694Y-111922708D01*
X183250683Y-111932070D01*
X183231746Y-111947612D01*
X183216200Y-111966554D01*
X183204649Y-111988165D01*
X183197536Y-112011614D01*
X183195134Y-112036000D01*
X183197536Y-112060386D01*
X183204649Y-112083835D01*
X183216200Y-112105446D01*
X183231746Y-112124388D01*
X183250683Y-112139930D01*
X183264694Y-112149292D01*
X183289208Y-112173806D01*
X183308470Y-112202633D01*
X183321737Y-112234663D01*
X183328500Y-112268665D01*
X183328500Y-112303335D01*
X183321737Y-112337337D01*
X183308470Y-112369367D01*
X183289208Y-112398194D01*
X183264694Y-112422708D01*
X183250683Y-112432070D01*
X183231746Y-112447612D01*
X183216200Y-112466554D01*
X183204649Y-112488165D01*
X183197536Y-112511614D01*
X183195134Y-112536000D01*
X183197536Y-112560386D01*
X183204649Y-112583835D01*
X183216200Y-112605446D01*
X183231746Y-112624388D01*
X183250683Y-112639930D01*
X183264694Y-112649292D01*
X183289208Y-112673806D01*
X183308470Y-112702633D01*
X183321737Y-112734663D01*
X183328500Y-112768665D01*
X183328500Y-112803335D01*
X183321737Y-112837337D01*
X183308470Y-112869367D01*
X183289208Y-112898194D01*
X183264694Y-112922708D01*
X183250683Y-112932070D01*
X183231746Y-112947612D01*
X183216200Y-112966554D01*
X183204649Y-112988165D01*
X183197536Y-113011614D01*
X183195134Y-113036000D01*
X183197536Y-113060386D01*
X183204649Y-113083835D01*
X183216200Y-113105446D01*
X183231746Y-113124388D01*
X183250683Y-113139930D01*
X183264694Y-113149292D01*
X183289208Y-113173806D01*
X183308470Y-113202633D01*
X183321737Y-113234663D01*
X183328500Y-113268665D01*
X183328500Y-113303335D01*
X183321737Y-113337337D01*
X183308470Y-113369367D01*
X183289208Y-113398194D01*
X183264694Y-113422708D01*
X183250683Y-113432070D01*
X183231746Y-113447612D01*
X183216200Y-113466554D01*
X183204649Y-113488165D01*
X183197536Y-113511614D01*
X183195134Y-113536000D01*
X183197536Y-113560386D01*
X183204649Y-113583835D01*
X183216200Y-113605446D01*
X183231746Y-113624388D01*
X183250683Y-113639930D01*
X183264694Y-113649292D01*
X183289208Y-113673806D01*
X183308470Y-113702633D01*
X183321737Y-113734663D01*
X183328500Y-113768665D01*
X183328500Y-113803335D01*
X183321737Y-113837337D01*
X183308470Y-113869367D01*
X183289208Y-113898194D01*
X183264694Y-113922708D01*
X183250683Y-113932070D01*
X183231746Y-113947612D01*
X183216200Y-113966554D01*
X183204649Y-113988165D01*
X183197536Y-114011614D01*
X183195134Y-114036000D01*
X183197536Y-114060386D01*
X183204649Y-114083835D01*
X183216200Y-114105446D01*
X183231746Y-114124388D01*
X183250683Y-114139930D01*
X183264694Y-114149292D01*
X183289208Y-114173806D01*
X183308470Y-114202633D01*
X183321737Y-114234663D01*
X183328500Y-114268665D01*
X183328500Y-114303335D01*
X183321737Y-114337337D01*
X183308470Y-114369367D01*
X183289208Y-114398194D01*
X183264694Y-114422708D01*
X183235867Y-114441970D01*
X183203837Y-114455237D01*
X183169835Y-114462000D01*
X183135165Y-114462000D01*
X183101163Y-114455237D01*
X183069133Y-114441970D01*
X183040306Y-114422708D01*
X183015792Y-114398194D01*
X182996530Y-114369367D01*
X182983263Y-114337337D01*
X182976500Y-114303335D01*
X182976500Y-114268665D01*
X182983263Y-114234663D01*
X182996530Y-114202633D01*
X183015792Y-114173806D01*
X183040306Y-114149292D01*
X183054317Y-114139930D01*
X183073254Y-114124388D01*
X183088800Y-114105446D01*
X183100351Y-114083835D01*
X183107464Y-114060386D01*
X183109866Y-114036000D01*
X183107464Y-114011614D01*
X183100351Y-113988165D01*
X183088800Y-113966554D01*
X183073254Y-113947612D01*
X183054317Y-113932070D01*
X183040306Y-113922708D01*
X183015792Y-113898194D01*
X182996530Y-113869367D01*
X182983263Y-113837337D01*
X182976500Y-113803335D01*
X182976500Y-113768665D01*
X182983263Y-113734663D01*
X182996530Y-113702633D01*
X183015792Y-113673806D01*
X183040306Y-113649292D01*
X183054317Y-113639930D01*
X183073254Y-113624388D01*
X183088800Y-113605446D01*
X183100351Y-113583835D01*
X183107464Y-113560386D01*
X183109866Y-113536000D01*
X183107464Y-113511614D01*
X183100351Y-113488165D01*
X183088800Y-113466554D01*
X183073254Y-113447612D01*
X183054317Y-113432070D01*
X183040306Y-113422708D01*
X183015792Y-113398194D01*
X182996530Y-113369367D01*
X182983263Y-113337337D01*
X182976500Y-113303335D01*
X182976500Y-113268665D01*
X182983263Y-113234663D01*
X182996530Y-113202633D01*
X183015792Y-113173806D01*
X183040306Y-113149292D01*
X183054317Y-113139930D01*
X183073254Y-113124388D01*
X183088800Y-113105446D01*
X183100351Y-113083835D01*
X183107464Y-113060386D01*
X183109866Y-113036000D01*
X183107464Y-113011614D01*
X183100351Y-112988165D01*
X183088800Y-112966554D01*
X183073254Y-112947612D01*
X183054317Y-112932070D01*
X183040306Y-112922708D01*
X183015792Y-112898194D01*
X182996530Y-112869367D01*
X182983263Y-112837337D01*
X182976500Y-112803335D01*
X182976500Y-112768665D01*
X182983263Y-112734663D01*
X182996530Y-112702633D01*
X183015792Y-112673806D01*
X183040306Y-112649292D01*
X183054317Y-112639930D01*
X183073254Y-112624388D01*
X183088800Y-112605446D01*
X183100351Y-112583835D01*
X183107464Y-112560386D01*
X183109866Y-112536000D01*
X183107464Y-112511614D01*
X183100351Y-112488165D01*
X183088800Y-112466554D01*
X183073254Y-112447612D01*
X183054317Y-112432070D01*
X183040306Y-112422708D01*
X183015792Y-112398194D01*
X182996530Y-112369367D01*
X182983263Y-112337337D01*
X182976500Y-112303335D01*
X182976500Y-112268665D01*
X182983263Y-112234663D01*
X182996530Y-112202633D01*
X183015792Y-112173806D01*
X183040306Y-112149292D01*
X183054317Y-112139930D01*
X183073254Y-112124388D01*
X183088800Y-112105446D01*
X183100351Y-112083835D01*
X183107464Y-112060386D01*
X183109866Y-112036000D01*
X183107464Y-112011614D01*
X183100351Y-111988165D01*
X183088800Y-111966554D01*
X183073254Y-111947612D01*
X183054317Y-111932070D01*
X183040306Y-111922708D01*
X183015792Y-111898194D01*
X182996530Y-111869367D01*
X182983263Y-111837337D01*
X182976500Y-111803335D01*
X182976500Y-111768665D01*
X182983263Y-111734663D01*
X182996530Y-111702633D01*
X183015792Y-111673806D01*
X183040306Y-111649292D01*
X183054317Y-111639930D01*
X183073254Y-111624388D01*
X183088800Y-111605446D01*
X183100351Y-111583835D01*
X183107464Y-111560386D01*
X183109866Y-111536000D01*
X183107464Y-111511614D01*
X183100351Y-111488165D01*
X183088800Y-111466554D01*
X183073254Y-111447612D01*
X183054317Y-111432070D01*
X183040306Y-111422708D01*
X183015792Y-111398194D01*
X182996530Y-111369367D01*
X182983263Y-111337337D01*
X182976500Y-111303335D01*
X182976500Y-111268665D01*
X182983263Y-111234663D01*
X182996530Y-111202633D01*
X183015792Y-111173806D01*
X183040306Y-111149292D01*
X183054317Y-111139930D01*
X183073254Y-111124388D01*
X183088800Y-111105446D01*
X183100351Y-111083835D01*
X183107464Y-111060386D01*
X183109866Y-111036000D01*
X183107464Y-111011614D01*
X183100351Y-110988165D01*
X183088800Y-110966554D01*
X183073254Y-110947612D01*
X183054317Y-110932070D01*
X183040306Y-110922708D01*
X183015792Y-110898194D01*
X182996530Y-110869367D01*
X182983263Y-110837337D01*
X182976500Y-110803335D01*
X182976500Y-110768665D01*
X182983263Y-110734663D01*
X182996530Y-110702633D01*
X183015792Y-110673806D01*
X183040306Y-110649292D01*
X183069133Y-110630030D01*
X183101163Y-110616763D01*
X183135165Y-110610000D01*
X183169835Y-110610000D01*
X183203837Y-110616763D01*
X183203837Y-110616763D01*
G37*
G36*
X182563837Y-110616763D02*
X182595867Y-110630030D01*
X182624694Y-110649292D01*
X182649208Y-110673806D01*
X182668470Y-110702633D01*
X182681737Y-110734663D01*
X182688500Y-110768665D01*
X182688500Y-110803335D01*
X182681737Y-110837337D01*
X182668470Y-110869367D01*
X182649208Y-110898194D01*
X182624694Y-110922708D01*
X182610683Y-110932070D01*
X182591746Y-110947612D01*
X182576200Y-110966554D01*
X182564649Y-110988165D01*
X182557536Y-111011614D01*
X182555134Y-111036000D01*
X182557536Y-111060386D01*
X182564649Y-111083835D01*
X182576200Y-111105446D01*
X182591746Y-111124388D01*
X182610683Y-111139930D01*
X182624694Y-111149292D01*
X182649208Y-111173806D01*
X182668470Y-111202633D01*
X182681737Y-111234663D01*
X182688500Y-111268665D01*
X182688500Y-111303335D01*
X182681737Y-111337337D01*
X182668470Y-111369367D01*
X182649208Y-111398194D01*
X182624694Y-111422708D01*
X182610683Y-111432070D01*
X182591746Y-111447612D01*
X182576200Y-111466554D01*
X182564649Y-111488165D01*
X182557536Y-111511614D01*
X182555134Y-111536000D01*
X182557536Y-111560386D01*
X182564649Y-111583835D01*
X182576200Y-111605446D01*
X182591746Y-111624388D01*
X182610683Y-111639930D01*
X182624694Y-111649292D01*
X182649208Y-111673806D01*
X182668470Y-111702633D01*
X182681737Y-111734663D01*
X182688500Y-111768665D01*
X182688500Y-111803335D01*
X182681737Y-111837337D01*
X182668470Y-111869367D01*
X182649208Y-111898194D01*
X182624694Y-111922708D01*
X182610683Y-111932070D01*
X182591746Y-111947612D01*
X182576200Y-111966554D01*
X182564649Y-111988165D01*
X182557536Y-112011614D01*
X182555134Y-112036000D01*
X182557536Y-112060386D01*
X182564649Y-112083835D01*
X182576200Y-112105446D01*
X182591746Y-112124388D01*
X182610683Y-112139930D01*
X182624694Y-112149292D01*
X182649208Y-112173806D01*
X182668470Y-112202633D01*
X182681737Y-112234663D01*
X182688500Y-112268665D01*
X182688500Y-112303335D01*
X182681737Y-112337337D01*
X182668470Y-112369367D01*
X182649208Y-112398194D01*
X182624694Y-112422708D01*
X182610683Y-112432070D01*
X182591746Y-112447612D01*
X182576200Y-112466554D01*
X182564649Y-112488165D01*
X182557536Y-112511614D01*
X182555134Y-112536000D01*
X182557536Y-112560386D01*
X182564649Y-112583835D01*
X182576200Y-112605446D01*
X182591746Y-112624388D01*
X182610683Y-112639930D01*
X182624694Y-112649292D01*
X182649208Y-112673806D01*
X182668470Y-112702633D01*
X182681737Y-112734663D01*
X182688500Y-112768665D01*
X182688500Y-112803335D01*
X182681737Y-112837337D01*
X182668470Y-112869367D01*
X182649208Y-112898194D01*
X182624694Y-112922708D01*
X182610683Y-112932070D01*
X182591746Y-112947612D01*
X182576200Y-112966554D01*
X182564649Y-112988165D01*
X182557536Y-113011614D01*
X182555134Y-113036000D01*
X182557536Y-113060386D01*
X182564649Y-113083835D01*
X182576200Y-113105446D01*
X182591746Y-113124388D01*
X182610683Y-113139930D01*
X182624694Y-113149292D01*
X182649208Y-113173806D01*
X182668470Y-113202633D01*
X182681737Y-113234663D01*
X182688500Y-113268665D01*
X182688500Y-113303335D01*
X182681737Y-113337337D01*
X182668470Y-113369367D01*
X182649208Y-113398194D01*
X182624694Y-113422708D01*
X182610683Y-113432070D01*
X182591746Y-113447612D01*
X182576200Y-113466554D01*
X182564649Y-113488165D01*
X182557536Y-113511614D01*
X182555134Y-113536000D01*
X182557536Y-113560386D01*
X182564649Y-113583835D01*
X182576200Y-113605446D01*
X182591746Y-113624388D01*
X182610683Y-113639930D01*
X182624694Y-113649292D01*
X182649208Y-113673806D01*
X182668470Y-113702633D01*
X182681737Y-113734663D01*
X182688500Y-113768665D01*
X182688500Y-113803335D01*
X182681737Y-113837337D01*
X182668470Y-113869367D01*
X182649208Y-113898194D01*
X182624694Y-113922708D01*
X182610683Y-113932070D01*
X182591746Y-113947612D01*
X182576200Y-113966554D01*
X182564649Y-113988165D01*
X182557536Y-114011614D01*
X182555134Y-114036000D01*
X182557536Y-114060386D01*
X182564649Y-114083835D01*
X182576200Y-114105446D01*
X182591746Y-114124388D01*
X182610683Y-114139930D01*
X182624694Y-114149292D01*
X182649208Y-114173806D01*
X182668470Y-114202633D01*
X182681737Y-114234663D01*
X182688500Y-114268665D01*
X182688500Y-114303335D01*
X182681737Y-114337337D01*
X182668470Y-114369367D01*
X182649208Y-114398194D01*
X182624694Y-114422708D01*
X182595867Y-114441970D01*
X182563837Y-114455237D01*
X182529835Y-114462000D01*
X182495165Y-114462000D01*
X182461163Y-114455237D01*
X182429133Y-114441970D01*
X182400306Y-114422708D01*
X182375792Y-114398194D01*
X182356530Y-114369367D01*
X182343263Y-114337337D01*
X182336500Y-114303335D01*
X182336500Y-114268665D01*
X182343263Y-114234663D01*
X182356530Y-114202633D01*
X182375792Y-114173806D01*
X182400306Y-114149292D01*
X182414317Y-114139930D01*
X182433254Y-114124388D01*
X182448800Y-114105446D01*
X182460351Y-114083835D01*
X182467464Y-114060386D01*
X182469866Y-114036000D01*
X182467464Y-114011614D01*
X182460351Y-113988165D01*
X182448800Y-113966554D01*
X182433254Y-113947612D01*
X182414317Y-113932070D01*
X182400306Y-113922708D01*
X182375792Y-113898194D01*
X182356530Y-113869367D01*
X182343263Y-113837337D01*
X182336500Y-113803335D01*
X182336500Y-113768665D01*
X182343263Y-113734663D01*
X182356530Y-113702633D01*
X182375792Y-113673806D01*
X182400306Y-113649292D01*
X182414317Y-113639930D01*
X182433254Y-113624388D01*
X182448800Y-113605446D01*
X182460351Y-113583835D01*
X182467464Y-113560386D01*
X182469866Y-113536000D01*
X182467464Y-113511614D01*
X182460351Y-113488165D01*
X182448800Y-113466554D01*
X182433254Y-113447612D01*
X182414317Y-113432070D01*
X182400306Y-113422708D01*
X182375792Y-113398194D01*
X182356530Y-113369367D01*
X182343263Y-113337337D01*
X182336500Y-113303335D01*
X182336500Y-113268665D01*
X182343263Y-113234663D01*
X182356530Y-113202633D01*
X182375792Y-113173806D01*
X182400306Y-113149292D01*
X182414317Y-113139930D01*
X182433254Y-113124388D01*
X182448800Y-113105446D01*
X182460351Y-113083835D01*
X182467464Y-113060386D01*
X182469866Y-113036000D01*
X182467464Y-113011614D01*
X182460351Y-112988165D01*
X182448800Y-112966554D01*
X182433254Y-112947612D01*
X182414317Y-112932070D01*
X182400306Y-112922708D01*
X182375792Y-112898194D01*
X182356530Y-112869367D01*
X182343263Y-112837337D01*
X182336500Y-112803335D01*
X182336500Y-112768665D01*
X182343263Y-112734663D01*
X182356530Y-112702633D01*
X182375792Y-112673806D01*
X182400306Y-112649292D01*
X182414317Y-112639930D01*
X182433254Y-112624388D01*
X182448800Y-112605446D01*
X182460351Y-112583835D01*
X182467464Y-112560386D01*
X182469866Y-112536000D01*
X182467464Y-112511614D01*
X182460351Y-112488165D01*
X182448800Y-112466554D01*
X182433254Y-112447612D01*
X182414317Y-112432070D01*
X182400306Y-112422708D01*
X182375792Y-112398194D01*
X182356530Y-112369367D01*
X182343263Y-112337337D01*
X182336500Y-112303335D01*
X182336500Y-112268665D01*
X182343263Y-112234663D01*
X182356530Y-112202633D01*
X182375792Y-112173806D01*
X182400306Y-112149292D01*
X182414317Y-112139930D01*
X182433254Y-112124388D01*
X182448800Y-112105446D01*
X182460351Y-112083835D01*
X182467464Y-112060386D01*
X182469866Y-112036000D01*
X182467464Y-112011614D01*
X182460351Y-111988165D01*
X182448800Y-111966554D01*
X182433254Y-111947612D01*
X182414317Y-111932070D01*
X182400306Y-111922708D01*
X182375792Y-111898194D01*
X182356530Y-111869367D01*
X182343263Y-111837337D01*
X182336500Y-111803335D01*
X182336500Y-111768665D01*
X182343263Y-111734663D01*
X182356530Y-111702633D01*
X182375792Y-111673806D01*
X182400306Y-111649292D01*
X182414317Y-111639930D01*
X182433254Y-111624388D01*
X182448800Y-111605446D01*
X182460351Y-111583835D01*
X182467464Y-111560386D01*
X182469866Y-111536000D01*
X182467464Y-111511614D01*
X182460351Y-111488165D01*
X182448800Y-111466554D01*
X182433254Y-111447612D01*
X182414317Y-111432070D01*
X182400306Y-111422708D01*
X182375792Y-111398194D01*
X182356530Y-111369367D01*
X182343263Y-111337337D01*
X182336500Y-111303335D01*
X182336500Y-111268665D01*
X182343263Y-111234663D01*
X182356530Y-111202633D01*
X182375792Y-111173806D01*
X182400306Y-111149292D01*
X182414317Y-111139930D01*
X182433254Y-111124388D01*
X182448800Y-111105446D01*
X182460351Y-111083835D01*
X182467464Y-111060386D01*
X182469866Y-111036000D01*
X182467464Y-111011614D01*
X182460351Y-110988165D01*
X182448800Y-110966554D01*
X182433254Y-110947612D01*
X182414317Y-110932070D01*
X182400306Y-110922708D01*
X182375792Y-110898194D01*
X182356530Y-110869367D01*
X182343263Y-110837337D01*
X182336500Y-110803335D01*
X182336500Y-110768665D01*
X182343263Y-110734663D01*
X182356530Y-110702633D01*
X182375792Y-110673806D01*
X182400306Y-110649292D01*
X182429133Y-110630030D01*
X182461163Y-110616763D01*
X182495165Y-110610000D01*
X182529835Y-110610000D01*
X182563837Y-110616763D01*
X182563837Y-110616763D01*
G37*
M02*
