M48
;DRILL file {KiCad 5.0.2+dfsg1-1~bpo9+1} date Fri 20 Sep 2019 05:36:03 PM CEST
;FORMAT={-:-/ absolute / metric / decimal}
FMAT,2
METRIC,TZ
T1C0.150
%
G90
G05
T1
X101.436Y-113.161
X101.453Y-114.886
X102.352Y-107.886
X102.522Y-113.785
X102.552Y-117.286
X103.852Y-113.686
X105.659Y-122.945
X106.853Y-123.086
X106.952Y-117.886
X108.052Y-110.186
X108.053Y-109.286
X108.152Y-115.13
X108.352Y-118.086
X108.745Y-112.636
X108.802Y-106.68
X109.152Y-109.586
X110.102Y-104.736
X110.353Y-112.474
X110.562Y-111.476
X111.002Y-115.686
X111.252Y-102.386
X111.442Y-113.29
X111.456Y-110.783
X111.462Y-114.02
X111.652Y-109.786
X112.002Y-119.011
X112.472Y-109.936
X112.752Y-106.035
X112.953Y-107.586
X113.062Y-115.24
X113.262Y-109.866
X113.552Y-118.986
X113.852Y-114.886
X114.102Y-106.266
X114.152Y-122.936
X114.352Y-115.536
X114.542Y-107.546
X114.632Y-106.836
X114.953Y-114.886
X114.953Y-118.986
X115.042Y-108.136
X115.152Y-109.286
X115.992Y-109.996
X116.277Y-115.75
X116.992Y-114.82
X117.052Y-118.486
X117.062Y-115.986
X117.252Y-108.086
X117.703Y-110.97
X118.234Y-109.768
X118.483Y-113.276
X118.525Y-111.806
X118.712Y-110.946
X119.042Y-113.926
X119.102Y-120.986
X119.126Y-116.486
X119.302Y-123.136
X119.872Y-113.286
X120.265Y-112.536
X120.295Y-110.786
X120.402Y-104.536
X121.152Y-101.486
X122.652Y-118.386
X123.052Y-109.886
X123.152Y-111.586
X123.152Y-113.286
X123.152Y-114.986
X123.152Y-116.786
X125.102Y-104.996
X125.112Y-105.736
X126.802Y-123.436
X126.852Y-108.186
X128.102Y-114.036
X128.653Y-101.586
X128.653Y-108.386
X138.052Y-120.736
X138.653Y-121.436
X147.752Y-120.986
X149.252Y-120.986
X153.752Y-121.086
X155.252Y-121.136
X156.012Y-117.836
X156.022Y-116.966
X156.752Y-121.136
X158.213Y-117.916
X158.243Y-117.056
X158.252Y-121.136
X165.532Y-106.926
X165.942Y-107.646
X168.052Y-122.386
X168.352Y-105.436
X169.552Y-109.986
X170.452Y-117.486
X172.552Y-105.336
X173.352Y-111.936
X175.502Y-118.936
X179.128Y-121.24
X180.202Y-105.136
X180.225Y-112.525
X180.825Y-111.3
X181.025Y-112.036
X181.44Y-113.29
X181.452Y-119.136
X181.46Y-114.02
X181.609Y-111.292
X181.76Y-110.36
X182.27Y-114.98
X182.43Y-109.94
X183.06Y-115.24
X183.14Y-110.02
X183.79Y-115.1
X183.92Y-116.01
X184.028Y-123.59
X185.09Y-109.96
X185.552Y-105.286
X185.62Y-109.207
X185.852Y-115.636
X186.172Y-108.596
X186.552Y-121.636
X186.822Y-115.596
X186.99Y-114.82
X187.602Y-106.286
X187.73Y-114.66
X187.752Y-111.586
X187.952Y-110.886
X188.19Y-113.32
X188.502Y-103.086
X188.602Y-110.386
X188.703Y-111.286
X188.752Y-114.436
X188.921Y-113.033
X189.502Y-111.386
X189.653Y-112.536
X189.752Y-105.036
X190.153Y-122.586
X190.178Y-120.54
T0
M30
