G04 #@! TF.GenerationSoftware,KiCad,Pcbnew,5.0.2+dfsg1-1~bpo9+1*
G04 #@! TF.CreationDate,2019-09-12T14:57:23+02:00*
G04 #@! TF.ProjectId,OV9281,4f563932-3831-42e6-9b69-6361645f7063,rev?*
G04 #@! TF.SameCoordinates,Original*
G04 #@! TF.FileFunction,Copper,L4,Bot*
G04 #@! TF.FilePolarity,Positive*
%FSLAX46Y46*%
G04 Gerber Fmt 4.6, Leading zero omitted, Abs format (unit mm)*
G04 Created by KiCad (PCBNEW 5.0.2+dfsg1-1~bpo9+1) date Thu 12 Sep 2019 02:57:23 PM CEST*
%MOMM*%
%LPD*%
G01*
G04 APERTURE LIST*
G04 #@! TA.AperFunction,BGAPad,CuDef*
%ADD10C,0.250000*%
G04 #@! TD*
G04 #@! TA.AperFunction,ViaPad*
%ADD11C,2.510000*%
G04 #@! TD*
G04 #@! TA.AperFunction,ViaPad*
%ADD12C,0.600000*%
G04 #@! TD*
G04 #@! TA.AperFunction,ViaPad*
%ADD13C,0.500000*%
G04 #@! TD*
G04 #@! TA.AperFunction,Conductor*
%ADD14C,0.110000*%
G04 #@! TD*
G04 #@! TA.AperFunction,Conductor*
%ADD15C,0.127000*%
G04 #@! TD*
G04 #@! TA.AperFunction,Conductor*
%ADD16C,0.100000*%
G04 #@! TD*
G04 APERTURE END LIST*
D10*
G04 #@! TO.P,U1,H6*
G04 #@! TO.N,/M1_DOVDD*
X185712500Y-110786000D03*
G04 #@! TO.P,U1,H8*
G04 #@! TO.N,N/C*
X186992500Y-110786000D03*
G04 #@! TO.P,U1,H4*
G04 #@! TO.N,/CAM_L_CLK_N*
X184432500Y-110786000D03*
G04 #@! TO.P,U1,H5*
G04 #@! TO.N,/M1_DVDD*
X185072500Y-110786000D03*
G04 #@! TO.P,U1,H7*
G04 #@! TO.N,/M1_AGND*
X186352500Y-110786000D03*
G04 #@! TO.P,U1,H1*
G04 #@! TO.N,N/C*
X182512500Y-110786000D03*
G04 #@! TO.P,U1,H2*
G04 #@! TO.N,/M1_DOVDD*
X183152500Y-110786000D03*
G04 #@! TO.P,U1,H3*
G04 #@! TO.N,/CAM_L_D0_N*
X183792500Y-110786000D03*
G04 #@! TO.P,U1,G6*
G04 #@! TO.N,/M1_DVDD*
X185712500Y-111286000D03*
G04 #@! TO.P,U1,G8*
G04 #@! TO.N,/M1_AVDD*
X186992500Y-111286000D03*
G04 #@! TO.P,U1,G4*
G04 #@! TO.N,/CAM_L_CLK_P*
X184432500Y-111286000D03*
G04 #@! TO.P,U1,G5*
G04 #@! TO.N,/CAM_L_D1_P*
X185072500Y-111286000D03*
G04 #@! TO.P,U1,G7*
G04 #@! TO.N,/M1_AVDD*
X186352500Y-111286000D03*
G04 #@! TO.P,U1,G1*
G04 #@! TO.N,/M1_DVDD*
X182512500Y-111286000D03*
G04 #@! TO.P,U1,G2*
G04 #@! TO.N,/M1_DGND*
X183152500Y-111286000D03*
G04 #@! TO.P,U1,G3*
G04 #@! TO.N,/CAM_L_D0_P*
X183792500Y-111286000D03*
G04 #@! TO.P,U1,F6*
G04 #@! TO.N,/M1_DGND*
X185712500Y-111786000D03*
G04 #@! TO.P,U1,F8*
G04 #@! TO.N,/M1_AGND*
X186992500Y-111786000D03*
G04 #@! TO.P,U1,F4*
G04 #@! TO.N,/M1_DGND*
X184432500Y-111786000D03*
G04 #@! TO.P,U1,F5*
G04 #@! TO.N,/CAM_L_D1_N*
X185072500Y-111786000D03*
G04 #@! TO.P,U1,F7*
G04 #@! TO.N,/M1_VN3*
X186352500Y-111786000D03*
G04 #@! TO.P,U1,F1*
G04 #@! TO.N,/M1_DGND*
X182512500Y-111786000D03*
G04 #@! TO.P,U1,F2*
G04 #@! TO.N,/M1_DVDD*
X183152500Y-111786000D03*
G04 #@! TO.P,U1,F3*
X183792500Y-111786000D03*
G04 #@! TO.P,U1,E6*
G04 #@! TO.N,Net-(U1-PadE6)*
X185712500Y-112286000D03*
G04 #@! TO.P,U1,E8*
G04 #@! TO.N,/M1_VH*
X186992500Y-112286000D03*
G04 #@! TO.P,U1,E4*
G04 #@! TO.N,/M1_CAM_SCL_1V8*
X184432500Y-112286000D03*
G04 #@! TO.P,U1,E5*
G04 #@! TO.N,/M1_DGND*
X185072500Y-112286000D03*
G04 #@! TO.P,U1,E7*
G04 #@! TO.N,/M1_VN2*
X186352500Y-112286000D03*
G04 #@! TO.P,U1,E1*
G04 #@! TO.N,/M1_SID*
X182512500Y-112286000D03*
G04 #@! TO.P,U1,E2*
G04 #@! TO.N,/M1_MCLK*
X183152500Y-112286000D03*
G04 #@! TO.P,U1,E3*
G04 #@! TO.N,/M1_DGND*
X183792500Y-112286000D03*
G04 #@! TO.P,U1,D6*
G04 #@! TO.N,Net-(U1-PadD6)*
X185712500Y-112786000D03*
G04 #@! TO.P,U1,D8*
G04 #@! TO.N,/M1_DVDD*
X186992500Y-112786000D03*
G04 #@! TO.P,U1,D4*
G04 #@! TO.N,Net-(U1-PadD4)*
X184432500Y-112786000D03*
G04 #@! TO.P,U1,D5*
G04 #@! TO.N,/M1_PVDD*
X185072500Y-112786000D03*
G04 #@! TO.P,U1,D7*
G04 #@! TO.N,/M1_VN1*
X186352500Y-112786000D03*
G04 #@! TO.P,U1,D1*
G04 #@! TO.N,Net-(U1-PadD1)*
X182512500Y-112786000D03*
G04 #@! TO.P,U1,D2*
G04 #@! TO.N,/M1_AGND*
X183152500Y-112786000D03*
G04 #@! TO.P,U1,D3*
G04 #@! TO.N,/M1_DOVDD*
X183792500Y-112786000D03*
G04 #@! TO.P,U1,C6*
G04 #@! TO.N,Net-(U1-PadC6)*
X185712500Y-113286000D03*
G04 #@! TO.P,U1,C8*
G04 #@! TO.N,/M1_AGND*
X186992500Y-113286000D03*
G04 #@! TO.P,U1,C4*
G04 #@! TO.N,Net-(U1-PadC4)*
X184432500Y-113286000D03*
G04 #@! TO.P,U1,C5*
G04 #@! TO.N,/M1_DVDD*
X185072500Y-113286000D03*
G04 #@! TO.P,U1,C7*
G04 #@! TO.N,Net-(U1-PadC7)*
X186352500Y-113286000D03*
G04 #@! TO.P,U1,C1*
G04 #@! TO.N,/M1_AVDD*
X182512500Y-113286000D03*
G04 #@! TO.P,U1,C2*
G04 #@! TO.N,Net-(U1-PadC2)*
X183152500Y-113286000D03*
G04 #@! TO.P,U1,C3*
G04 #@! TO.N,Net-(U1-PadC3)*
X183792500Y-113286000D03*
G04 #@! TO.P,U1,B6*
G04 #@! TO.N,Net-(U1-PadB6)*
X185712500Y-113786000D03*
G04 #@! TO.P,U1,B8*
G04 #@! TO.N,/M1_AVDD*
X186992500Y-113786000D03*
G04 #@! TO.P,U1,B4*
G04 #@! TO.N,Net-(U1-PadB4)*
X184432500Y-113786000D03*
G04 #@! TO.P,U1,B5*
G04 #@! TO.N,/M1_VSYNC_1V8*
X185072500Y-113786000D03*
G04 #@! TO.P,U1,B7*
G04 #@! TO.N,/M1_DOVDD*
X186352500Y-113786000D03*
G04 #@! TO.P,U1,B1*
G04 #@! TO.N,/M1_DVDD*
X182512500Y-113786000D03*
G04 #@! TO.P,U1,B2*
G04 #@! TO.N,/M1_DGND*
X183152500Y-113786000D03*
G04 #@! TO.P,U1,B3*
G04 #@! TO.N,/M1_DVDD*
X183792500Y-113786000D03*
G04 #@! TO.P,U1,A8*
G04 #@! TO.N,N/C*
X186992500Y-114286000D03*
G04 #@! TO.P,U1,A7*
G04 #@! TO.N,/M1_DGND*
X186352500Y-114286000D03*
G04 #@! TO.P,U1,A6*
G04 #@! TO.N,Net-(U1-PadA6)*
X185712500Y-114286000D03*
G04 #@! TO.P,U1,A5*
G04 #@! TO.N,/CAM_NRST_1V8*
X185072500Y-114286000D03*
G04 #@! TO.P,U1,A4*
G04 #@! TO.N,/M1_CAM_SDA_1V8*
X184432500Y-114286000D03*
G04 #@! TO.P,U1,A3*
G04 #@! TO.N,/M1_DGND*
X183792500Y-114286000D03*
G04 #@! TO.P,U1,A2*
G04 #@! TO.N,/M1_DVDD*
X183152500Y-114286000D03*
G04 #@! TO.P,U1,A1*
G04 #@! TO.N,N/C*
X182512500Y-114286000D03*
G04 #@! TD*
G04 #@! TO.P,U2,H6*
G04 #@! TO.N,/M2_DOVDD*
X115712500Y-110786000D03*
G04 #@! TO.P,U2,H8*
G04 #@! TO.N,N/C*
X116992500Y-110786000D03*
G04 #@! TO.P,U2,H4*
G04 #@! TO.N,/CAM_R_CLK_N*
X114432500Y-110786000D03*
G04 #@! TO.P,U2,H5*
G04 #@! TO.N,/M2_DVDD*
X115072500Y-110786000D03*
G04 #@! TO.P,U2,H7*
G04 #@! TO.N,/M2_AGND*
X116352500Y-110786000D03*
G04 #@! TO.P,U2,H1*
G04 #@! TO.N,N/C*
X112512500Y-110786000D03*
G04 #@! TO.P,U2,H2*
G04 #@! TO.N,/M2_DOVDD*
X113152500Y-110786000D03*
G04 #@! TO.P,U2,H3*
G04 #@! TO.N,/CAM_R_D0_N*
X113792500Y-110786000D03*
G04 #@! TO.P,U2,G6*
G04 #@! TO.N,/M2_DVDD*
X115712500Y-111286000D03*
G04 #@! TO.P,U2,G8*
G04 #@! TO.N,/M2_AVDD*
X116992500Y-111286000D03*
G04 #@! TO.P,U2,G4*
G04 #@! TO.N,/CAM_R_CLK_P*
X114432500Y-111286000D03*
G04 #@! TO.P,U2,G5*
G04 #@! TO.N,/CAM_R_D1_P*
X115072500Y-111286000D03*
G04 #@! TO.P,U2,G7*
G04 #@! TO.N,/M2_AVDD*
X116352500Y-111286000D03*
G04 #@! TO.P,U2,G1*
G04 #@! TO.N,/M2_DVDD*
X112512500Y-111286000D03*
G04 #@! TO.P,U2,G2*
G04 #@! TO.N,/M2_DGND*
X113152500Y-111286000D03*
G04 #@! TO.P,U2,G3*
G04 #@! TO.N,/CAM_R_D0_P*
X113792500Y-111286000D03*
G04 #@! TO.P,U2,F6*
G04 #@! TO.N,/M2_DGND*
X115712500Y-111786000D03*
G04 #@! TO.P,U2,F8*
G04 #@! TO.N,/M2_AGND*
X116992500Y-111786000D03*
G04 #@! TO.P,U2,F4*
G04 #@! TO.N,/M2_DGND*
X114432500Y-111786000D03*
G04 #@! TO.P,U2,F5*
G04 #@! TO.N,/CAM_R_D1_N*
X115072500Y-111786000D03*
G04 #@! TO.P,U2,F7*
G04 #@! TO.N,/M2_VN3*
X116352500Y-111786000D03*
G04 #@! TO.P,U2,F1*
G04 #@! TO.N,/M2_DGND*
X112512500Y-111786000D03*
G04 #@! TO.P,U2,F2*
G04 #@! TO.N,/M2_DVDD*
X113152500Y-111786000D03*
G04 #@! TO.P,U2,F3*
X113792500Y-111786000D03*
G04 #@! TO.P,U2,E6*
G04 #@! TO.N,Net-(U2-PadE6)*
X115712500Y-112286000D03*
G04 #@! TO.P,U2,E8*
G04 #@! TO.N,/M2_VH*
X116992500Y-112286000D03*
G04 #@! TO.P,U2,E4*
G04 #@! TO.N,/M2_CAM_SCL_1V8*
X114432500Y-112286000D03*
G04 #@! TO.P,U2,E5*
G04 #@! TO.N,/M2_DGND*
X115072500Y-112286000D03*
G04 #@! TO.P,U2,E7*
G04 #@! TO.N,/M2_VN2*
X116352500Y-112286000D03*
G04 #@! TO.P,U2,E1*
G04 #@! TO.N,/M2_SID*
X112512500Y-112286000D03*
G04 #@! TO.P,U2,E2*
G04 #@! TO.N,/M2_MCLK_M*
X113152500Y-112286000D03*
G04 #@! TO.P,U2,E3*
G04 #@! TO.N,/M2_DGND*
X113792500Y-112286000D03*
G04 #@! TO.P,U2,D6*
G04 #@! TO.N,Net-(U2-PadD6)*
X115712500Y-112786000D03*
G04 #@! TO.P,U2,D8*
G04 #@! TO.N,/M2_DVDD*
X116992500Y-112786000D03*
G04 #@! TO.P,U2,D4*
G04 #@! TO.N,Net-(U2-PadD4)*
X114432500Y-112786000D03*
G04 #@! TO.P,U2,D5*
G04 #@! TO.N,/M2_PVDD*
X115072500Y-112786000D03*
G04 #@! TO.P,U2,D7*
G04 #@! TO.N,/M2_VN1*
X116352500Y-112786000D03*
G04 #@! TO.P,U2,D1*
G04 #@! TO.N,Net-(U2-PadD1)*
X112512500Y-112786000D03*
G04 #@! TO.P,U2,D2*
G04 #@! TO.N,/M2_AGND*
X113152500Y-112786000D03*
G04 #@! TO.P,U2,D3*
G04 #@! TO.N,/M2_DOVDD*
X113792500Y-112786000D03*
G04 #@! TO.P,U2,C6*
G04 #@! TO.N,Net-(U2-PadC6)*
X115712500Y-113286000D03*
G04 #@! TO.P,U2,C8*
G04 #@! TO.N,/M2_AGND*
X116992500Y-113286000D03*
G04 #@! TO.P,U2,C4*
G04 #@! TO.N,Net-(U2-PadC4)*
X114432500Y-113286000D03*
G04 #@! TO.P,U2,C5*
G04 #@! TO.N,/M2_DVDD*
X115072500Y-113286000D03*
G04 #@! TO.P,U2,C7*
G04 #@! TO.N,Net-(U2-PadC7)*
X116352500Y-113286000D03*
G04 #@! TO.P,U2,C1*
G04 #@! TO.N,/M2_AVDD*
X112512500Y-113286000D03*
G04 #@! TO.P,U2,C2*
G04 #@! TO.N,Net-(U2-PadC2)*
X113152500Y-113286000D03*
G04 #@! TO.P,U2,C3*
G04 #@! TO.N,Net-(U2-PadC3)*
X113792500Y-113286000D03*
G04 #@! TO.P,U2,B6*
G04 #@! TO.N,Net-(U2-PadB6)*
X115712500Y-113786000D03*
G04 #@! TO.P,U2,B8*
G04 #@! TO.N,/M2_AVDD*
X116992500Y-113786000D03*
G04 #@! TO.P,U2,B4*
G04 #@! TO.N,Net-(U2-PadB4)*
X114432500Y-113786000D03*
G04 #@! TO.P,U2,B5*
G04 #@! TO.N,/M2_VSYNC_1V8*
X115072500Y-113786000D03*
G04 #@! TO.P,U2,B7*
G04 #@! TO.N,/M2_DOVDD*
X116352500Y-113786000D03*
G04 #@! TO.P,U2,B1*
G04 #@! TO.N,/M2_DVDD*
X112512500Y-113786000D03*
G04 #@! TO.P,U2,B2*
G04 #@! TO.N,/M2_DGND*
X113152500Y-113786000D03*
G04 #@! TO.P,U2,B3*
G04 #@! TO.N,/M2_DVDD*
X113792500Y-113786000D03*
G04 #@! TO.P,U2,A8*
G04 #@! TO.N,N/C*
X116992500Y-114286000D03*
G04 #@! TO.P,U2,A7*
G04 #@! TO.N,/M2_DGND*
X116352500Y-114286000D03*
G04 #@! TO.P,U2,A6*
G04 #@! TO.N,Net-(U2-PadA6)*
X115712500Y-114286000D03*
G04 #@! TO.P,U2,A5*
G04 #@! TO.N,/CAM_NRST_1V8*
X115072500Y-114286000D03*
G04 #@! TO.P,U2,A4*
G04 #@! TO.N,/M2_CAM_SDA_1V8*
X114432500Y-114286000D03*
G04 #@! TO.P,U2,A3*
G04 #@! TO.N,/M2_DGND*
X113792500Y-114286000D03*
G04 #@! TO.P,U2,A2*
G04 #@! TO.N,/M2_DVDD*
X113152500Y-114286000D03*
G04 #@! TO.P,U2,A1*
G04 #@! TO.N,N/C*
X112512500Y-114286000D03*
G04 #@! TD*
D11*
G04 #@! TO.N,*
X103000000Y-103000000D03*
X197000000Y-103000000D03*
X103000000Y-122000000D03*
X197000000Y-122000000D03*
D12*
G04 #@! TO.N,GND*
X131970000Y-104730000D03*
X118720000Y-103130000D03*
X131970000Y-108430000D03*
X124120000Y-108180000D03*
X191240000Y-102950000D03*
X185090000Y-106000000D03*
X180190000Y-103650000D03*
X176020000Y-104020000D03*
G04 #@! TO.N,+3V3*
X131120000Y-107230000D03*
G04 #@! TO.N,+1V2*
X185090000Y-102100000D03*
D13*
G04 #@! TO.N,/CAM_L_D1_P*
X165290000Y-106880000D03*
G04 #@! TO.N,/CAM_L_D1_N*
X165290000Y-107480000D03*
G04 #@! TO.N,/CAM_L_CLK_P*
X156060000Y-117710000D03*
G04 #@! TO.N,/CAM_L_CLK_N*
X156060000Y-117110000D03*
D12*
G04 #@! TO.N,/M1_MCLK*
X171420000Y-102770000D03*
D13*
G04 #@! TO.N,/CAM_L_D0_N*
X158240000Y-117190000D03*
G04 #@! TO.N,/CAM_L_D0_P*
X158240000Y-117790000D03*
G04 #@! TO.N,/M1_DVDD*
X183060000Y-115240000D03*
X181760000Y-110360000D03*
X185070000Y-109960000D03*
X181460000Y-114020000D03*
X188510000Y-113190000D03*
X186870000Y-109540000D03*
G04 #@! TO.N,/M1_DGND*
X186880000Y-115460000D03*
X183790000Y-115100000D03*
X182430000Y-109940000D03*
X182270000Y-114980000D03*
X184260000Y-115890000D03*
G04 #@! TO.N,/M1_DOVDD*
X186990000Y-114820000D03*
X185860000Y-109540000D03*
X183140000Y-110020000D03*
X180225000Y-112525000D03*
G04 #@! TO.N,/M1_AVDD*
X187730000Y-114660000D03*
X187700000Y-110970000D03*
X181440000Y-113290000D03*
G04 #@! TO.N,/M1_AGND*
X187880000Y-113290000D03*
X187710000Y-110180000D03*
X187680000Y-111630000D03*
G04 #@! TO.N,/M1_DGND*
X181600000Y-111300000D03*
G04 #@! TO.N,/M1_SID*
X181025000Y-112100000D03*
G04 #@! TO.N,/M1_MCLK*
X180825000Y-111300000D03*
G04 #@! TD*
D14*
G04 #@! TO.N,/CAM_L_D1_P*
X185072500Y-111282500D02*
X185072500Y-111286000D01*
X165290000Y-106880000D02*
X165485000Y-107075000D01*
X165485000Y-107075000D02*
X183293494Y-107075000D01*
X185070000Y-111280000D02*
X185072500Y-111282500D01*
X185072500Y-108854006D02*
X185072500Y-109363098D01*
X183293494Y-107075000D02*
X185072500Y-108854006D01*
X185072500Y-109363098D02*
X185475001Y-109765599D01*
X185475001Y-110154401D02*
X185352501Y-110276901D01*
X185352501Y-110920401D02*
X185070000Y-111202902D01*
X185070000Y-111202902D02*
X185070000Y-111280000D01*
X185352501Y-110276901D02*
X185352501Y-110920401D01*
X185475001Y-109765599D02*
X185475001Y-110154401D01*
G04 #@! TO.N,/CAM_L_D1_N*
X184664999Y-110154401D02*
X184792499Y-110281901D01*
X184862500Y-108940994D02*
X184862500Y-109568098D01*
X183206506Y-107285000D02*
X184862500Y-108940994D01*
X184792499Y-111512499D02*
X185070000Y-111790000D01*
X165290000Y-107480000D02*
X165485000Y-107285000D01*
X184792499Y-110281901D02*
X184792499Y-111512499D01*
X184862500Y-109568098D02*
X184664999Y-109765599D01*
X165485000Y-107285000D02*
X183206506Y-107285000D01*
X185070000Y-111790000D02*
X185072500Y-111787500D01*
X185072500Y-111787500D02*
X185072500Y-111786000D01*
X184664999Y-109765599D02*
X184664999Y-110154401D01*
G04 #@! TO.N,/CAM_L_CLK_P*
X184222500Y-110581598D02*
X184222500Y-109380994D01*
X183256506Y-108415000D02*
X160833494Y-108415000D01*
X184152499Y-110651599D02*
X184222500Y-110581598D01*
X184152499Y-111005999D02*
X184152499Y-110651599D01*
X184222500Y-109380994D02*
X183256506Y-108415000D01*
X184432500Y-111286000D02*
X184152499Y-111005999D01*
X160833494Y-108415000D02*
X157685000Y-111563494D01*
X157685000Y-111563494D02*
X157685000Y-116453494D01*
X156623494Y-117515000D02*
X156255000Y-117515000D01*
X156255000Y-117515000D02*
X156060000Y-117710000D01*
X157685000Y-116453494D02*
X156623494Y-117515000D01*
G04 #@! TO.N,/CAM_L_CLK_N*
X184432500Y-109294006D02*
X183343494Y-108205000D01*
X184432500Y-110786000D02*
X184432500Y-109294006D01*
X183343494Y-108205000D02*
X160746506Y-108205000D01*
X160746506Y-108205000D02*
X157475000Y-111476506D01*
X157475000Y-111476506D02*
X157475000Y-116366506D01*
X157475000Y-116366506D02*
X156536506Y-117305000D01*
X156536506Y-117305000D02*
X156255000Y-117305000D01*
X156255000Y-117305000D02*
X156060000Y-117110000D01*
D15*
G04 #@! TO.N,/M1_MCLK*
X171420000Y-102747000D02*
X171420000Y-102770000D01*
D16*
G04 #@! TO.N,/M1_CAM_SDA_1V8*
X184430000Y-114288500D02*
X184430000Y-115015002D01*
X184432500Y-114286000D02*
X184430000Y-114288500D01*
X184430000Y-115514999D02*
X184680000Y-115764999D01*
X184430000Y-115015002D02*
X184430000Y-115514999D01*
X184680000Y-115764999D02*
X184680000Y-116340000D01*
D14*
G04 #@! TO.N,/CAM_L_D0_N*
X183792500Y-109584006D02*
X183213494Y-109005000D01*
X183792500Y-110786000D02*
X183792500Y-109584006D01*
X183213494Y-109005000D02*
X162526506Y-109005000D01*
X162526506Y-109005000D02*
X159565000Y-111966506D01*
X159565000Y-111966506D02*
X159565000Y-116806506D01*
X159565000Y-116806506D02*
X158986506Y-117385000D01*
X158986506Y-117385000D02*
X158435000Y-117385000D01*
X158435000Y-117385000D02*
X158240000Y-117190000D01*
G04 #@! TO.N,/CAM_L_D0_P*
X162613494Y-109215000D02*
X159775000Y-112053494D01*
X183582500Y-110581598D02*
X183582500Y-109670994D01*
X183582500Y-111072500D02*
X183500000Y-110990000D01*
X183126506Y-109215000D02*
X162613494Y-109215000D01*
X183792500Y-111286000D02*
X183582500Y-111076000D01*
X183582500Y-111076000D02*
X183582500Y-111072500D01*
X183500000Y-110990000D02*
X183500000Y-110664098D01*
X183582500Y-109670994D02*
X183126506Y-109215000D01*
X183500000Y-110664098D02*
X183582500Y-110581598D01*
X159775000Y-112053494D02*
X159775000Y-116893494D01*
X158435000Y-117595000D02*
X158240000Y-117790000D01*
X159073494Y-117595000D02*
X158435000Y-117595000D01*
X159775000Y-116893494D02*
X159073494Y-117595000D01*
G04 #@! TO.N,/CAM_NRST_1V8*
X185072500Y-114286000D02*
X185072500Y-114672500D01*
X185072500Y-114672500D02*
X185072500Y-115447500D01*
G04 #@! TO.N,/M1_DVDD*
X184712501Y-113645999D02*
X184712501Y-115402501D01*
X185072500Y-113286000D02*
X184712501Y-113645999D01*
X183652500Y-113786000D02*
X183152500Y-114286000D01*
X183792500Y-113786000D02*
X183652500Y-113786000D01*
X183152500Y-115147500D02*
X183060000Y-115240000D01*
X183152500Y-114286000D02*
X183152500Y-115147500D01*
X182335724Y-111286000D02*
X181780000Y-110730276D01*
X182512500Y-111286000D02*
X182335724Y-111286000D01*
X181780000Y-110380000D02*
X181760000Y-110360000D01*
X181780000Y-110730276D02*
X181780000Y-110380000D01*
X183152500Y-111786000D02*
X183012500Y-111786000D01*
X185072500Y-109962500D02*
X185070000Y-109960000D01*
X185072500Y-110786000D02*
X185072500Y-109962500D01*
X183012500Y-111786000D02*
X182826500Y-111600000D01*
X182826500Y-111600000D02*
X182512500Y-111286000D01*
D16*
X182512500Y-113786000D02*
X181694000Y-113786000D01*
X181694000Y-113786000D02*
X181460000Y-114020000D01*
X188106000Y-112786000D02*
X188510000Y-113190000D01*
X186992500Y-112786000D02*
X188106000Y-112786000D01*
X186040010Y-110958490D02*
X186040010Y-110519990D01*
X185712500Y-111286000D02*
X186040010Y-110958490D01*
X186040010Y-110519990D02*
X186870000Y-109690000D01*
X186870000Y-109690000D02*
X186870000Y-109540000D01*
D14*
G04 #@! TO.N,/M1_DGND*
X186352500Y-114286000D02*
X186352500Y-114932500D01*
X186352500Y-114932500D02*
X186880000Y-115460000D01*
X183792500Y-115097500D02*
X183790000Y-115100000D01*
X183792500Y-114286000D02*
X183792500Y-115097500D01*
X182792501Y-110926001D02*
X182792501Y-110302501D01*
X183152500Y-111286000D02*
X182792501Y-110926001D01*
X182792501Y-110302501D02*
X182430000Y-109940000D01*
D16*
X184895724Y-112286000D02*
X184770000Y-112411724D01*
X185072500Y-112286000D02*
X184895724Y-112286000D01*
X184274000Y-113036000D02*
X184120000Y-113190000D01*
X184552502Y-113036000D02*
X184274000Y-113036000D01*
X184770000Y-112818502D02*
X184552502Y-113036000D01*
X184120000Y-113190000D02*
X184120000Y-114550000D01*
X184120000Y-114550000D02*
X184240000Y-114670000D01*
X184240000Y-115870000D02*
X184260000Y-115890000D01*
X184240000Y-114670000D02*
X184240000Y-115870000D01*
X184770000Y-112411724D02*
X184770000Y-112620000D01*
X183917499Y-112161001D02*
X183792500Y-112286000D01*
X184042501Y-112035999D02*
X183917499Y-112161001D01*
X184595999Y-112035999D02*
X184042501Y-112035999D01*
X184505723Y-112035999D02*
X184595999Y-112035999D01*
X184432500Y-111962776D02*
X184505723Y-112035999D01*
X184432500Y-111786000D02*
X184432500Y-111962776D01*
D14*
G04 #@! TO.N,/M1_DOVDD*
X186632501Y-114066001D02*
X186632501Y-114462501D01*
X186352500Y-113786000D02*
X186632501Y-114066001D01*
X186632501Y-114462501D02*
X186990000Y-114820000D01*
X185712500Y-110609224D02*
X185860000Y-110461724D01*
X185712500Y-110786000D02*
X185712500Y-110609224D01*
X185860000Y-110461724D02*
X185860000Y-109540000D01*
X183152500Y-110032500D02*
X183140000Y-110020000D01*
X183152500Y-110786000D02*
X183152500Y-110032500D01*
D16*
X183542500Y-112536000D02*
X182711000Y-112536000D01*
X183792500Y-112786000D02*
X183542500Y-112536000D01*
X181175000Y-112536000D02*
X180789000Y-112536000D01*
X182711000Y-112536000D02*
X181175000Y-112536000D01*
X181175000Y-112536000D02*
X180236000Y-112536000D01*
X180236000Y-112536000D02*
X180225000Y-112525000D01*
D14*
G04 #@! TO.N,/M1_AVDD*
X187169276Y-113786000D02*
X187730000Y-114346724D01*
X186992500Y-113786000D02*
X187169276Y-113786000D01*
X187730000Y-114346724D02*
X187730000Y-114660000D01*
X186352500Y-111286000D02*
X186572499Y-111066001D01*
X187433999Y-111066001D02*
X187510000Y-110990000D01*
X187117499Y-111161001D02*
X187117499Y-111158502D01*
X187117499Y-111158502D02*
X187210000Y-111066001D01*
X186992500Y-111286000D02*
X187117499Y-111161001D01*
X186572499Y-111066001D02*
X187210000Y-111066001D01*
X187210000Y-111066001D02*
X187433999Y-111066001D01*
X187680000Y-110990000D02*
X187700000Y-110970000D01*
X187510000Y-110990000D02*
X187680000Y-110990000D01*
D16*
X181444000Y-113286000D02*
X181440000Y-113290000D01*
X182512500Y-113286000D02*
X181444000Y-113286000D01*
D14*
G04 #@! TO.N,/M1_AGND*
X187876000Y-113286000D02*
X187880000Y-113290000D01*
X186992500Y-113286000D02*
X187876000Y-113286000D01*
X186958500Y-110180000D02*
X187710000Y-110180000D01*
X186352500Y-110786000D02*
X186958500Y-110180000D01*
D16*
X186992500Y-111786000D02*
X187524000Y-111786000D01*
X187524000Y-111786000D02*
X187680000Y-111630000D01*
X180700000Y-112850000D02*
X180225000Y-113325000D01*
X181925000Y-112850000D02*
X180700000Y-112850000D01*
X182111000Y-113036000D02*
X181925000Y-112850000D01*
X182902500Y-113036000D02*
X182111000Y-113036000D01*
X183152500Y-112786000D02*
X182902500Y-113036000D01*
G04 #@! TO.N,/M1_DVDD*
X183792500Y-111786000D02*
X183152500Y-111786000D01*
G04 #@! TO.N,/M1_DGND*
X184770000Y-112620000D02*
X184770000Y-112210000D01*
X184770000Y-112210000D02*
X184595999Y-112035999D01*
X185712500Y-111786000D02*
X185572500Y-111786000D01*
X184920000Y-112525000D02*
X185350000Y-112525000D01*
X184770000Y-112620000D02*
X184770000Y-112675000D01*
X184770000Y-112675000D02*
X184920000Y-112525000D01*
X184770000Y-112675000D02*
X184770000Y-112818502D01*
X185433500Y-112441500D02*
X185433500Y-111925000D01*
X185350000Y-112525000D02*
X185433500Y-112441500D01*
X185572500Y-111786000D02*
X185433500Y-111925000D01*
X182762501Y-114487499D02*
X182270000Y-114980000D01*
X183152500Y-113786000D02*
X183152500Y-113897500D01*
X183152500Y-113897500D02*
X182900000Y-114150000D01*
X182900000Y-114150000D02*
X182900000Y-114350000D01*
X182900000Y-114350000D02*
X182762501Y-114487499D01*
X184182500Y-111536000D02*
X184307501Y-111661001D01*
X184307501Y-111661001D02*
X184432500Y-111786000D01*
X183402500Y-111536000D02*
X184182500Y-111536000D01*
X183152500Y-111286000D02*
X183402500Y-111536000D01*
X182387501Y-111661001D02*
X181961001Y-111661001D01*
X182512500Y-111786000D02*
X182387501Y-111661001D01*
X181961001Y-111661001D02*
X181600000Y-111300000D01*
G04 #@! TO.N,/M1_VN3*
X186602500Y-112036000D02*
X187784000Y-112036000D01*
X186352500Y-111786000D02*
X186602500Y-112036000D01*
G04 #@! TO.N,/M1_VH*
X187169276Y-112286000D02*
X187173276Y-112290000D01*
X186992500Y-112286000D02*
X187169276Y-112286000D01*
X187173276Y-112290000D02*
X188090000Y-112290000D01*
G04 #@! TO.N,/M1_CAM_SCL_1V8*
X184307501Y-112410999D02*
X184307501Y-112417499D01*
X184432500Y-112286000D02*
X184307501Y-112410999D01*
X183314000Y-113536000D02*
X182989000Y-113536000D01*
X182989000Y-113536000D02*
X182850000Y-113675000D01*
X183475000Y-113200000D02*
X183475000Y-113375000D01*
X183475000Y-113375000D02*
X183314000Y-113536000D01*
X182850000Y-113675000D02*
X182850000Y-113818502D01*
X184307501Y-112410999D02*
X184042501Y-112675999D01*
X184042501Y-112675999D02*
X184042501Y-112906001D01*
X183639000Y-113036000D02*
X183475000Y-113200000D01*
X184042501Y-112906001D02*
X183912502Y-113036000D01*
X183912502Y-113036000D02*
X183639000Y-113036000D01*
X182850000Y-113818502D02*
X182632502Y-114036000D01*
X182632502Y-114036000D02*
X182264000Y-114036000D01*
X182264000Y-114036000D02*
X181775000Y-114525000D01*
X181775000Y-114525000D02*
X181225000Y-114525000D01*
G04 #@! TO.N,/M1_VN2*
X186602500Y-112536000D02*
X187964000Y-112536000D01*
X186352500Y-112286000D02*
X186602500Y-112536000D01*
G04 #@! TO.N,/M1_SID*
X181211000Y-112286000D02*
X181025000Y-112100000D01*
X182512500Y-112286000D02*
X181211000Y-112286000D01*
G04 #@! TO.N,/M1_MCLK*
X183027501Y-112161001D02*
X183027501Y-112152501D01*
X183152500Y-112286000D02*
X183027501Y-112161001D01*
X183027501Y-112152501D02*
X182911000Y-112036000D01*
X182275000Y-112036000D02*
X181586000Y-112036000D01*
X182911000Y-112036000D02*
X182275000Y-112036000D01*
X182275000Y-112036000D02*
X182189000Y-112036000D01*
X181586000Y-112036000D02*
X181561000Y-112036000D01*
X181561000Y-112036000D02*
X180825000Y-111300000D01*
G04 #@! TO.N,/M1_PVDD*
X186025000Y-115500000D02*
X186275000Y-115750000D01*
X185072500Y-112786000D02*
X185322500Y-113036000D01*
X185322500Y-113036000D02*
X185936000Y-113036000D01*
X186025000Y-113125000D02*
X186025000Y-115500000D01*
X185936000Y-113036000D02*
X186025000Y-113125000D01*
G04 #@! TO.N,/M1_VN1*
X187570998Y-113536000D02*
X187804998Y-113770000D01*
X186872498Y-113536000D02*
X187570998Y-113536000D01*
X186352500Y-112786000D02*
X186602501Y-113036001D01*
X186602501Y-113036001D02*
X186602501Y-113266003D01*
X186602501Y-113266003D02*
X186872498Y-113536000D01*
X187804998Y-113770000D02*
X189030000Y-113770000D01*
G04 #@! TO.N,/M1_VSYNC_1V8*
X185072500Y-113786000D02*
X185375000Y-114088500D01*
X185375000Y-114088500D02*
X185375000Y-115800000D01*
G04 #@! TD*
M02*
