G04 #@! TF.GenerationSoftware,KiCad,Pcbnew,5.0.2+dfsg1-1~bpo9+1*
G04 #@! TF.CreationDate,2019-09-20T17:36:01+02:00*
G04 #@! TF.ProjectId,OV9281,4f563932-3831-42e6-9b69-6361645f7063,rev?*
G04 #@! TF.SameCoordinates,Original*
G04 #@! TF.FileFunction,Legend,Top*
G04 #@! TF.FilePolarity,Positive*
%FSLAX46Y46*%
G04 Gerber Fmt 4.6, Leading zero omitted, Abs format (unit mm)*
G04 Created by KiCad (PCBNEW 5.0.2+dfsg1-1~bpo9+1) date Fri 20 Sep 2019 05:36:01 PM CEST*
%MOMM*%
%LPD*%
G01*
G04 APERTURE LIST*
%ADD10C,0.150000*%
%ADD11C,0.100000*%
%ADD12C,0.120000*%
%ADD13C,0.200000*%
%ADD14C,0.125000*%
G04 APERTURE END LIST*
D10*
G04 #@! TO.C,Y2*
X112266664Y-110560000D02*
X116660000Y-110560000D01*
X112260000Y-114460000D02*
X112260000Y-110560000D01*
X117206664Y-114460000D02*
X112266664Y-114460000D01*
X117210000Y-111110000D02*
X117210000Y-114460000D01*
X116660000Y-110560000D02*
X117210000Y-111110000D01*
D11*
G04 #@! TO.C,IC2*
X113867797Y-102140280D02*
X114217797Y-102140280D01*
X113867797Y-102490280D02*
X113867797Y-102140280D01*
X115867797Y-102140280D02*
X115867797Y-102490280D01*
X115517797Y-102140280D02*
X115867797Y-102140280D01*
X113867797Y-105440280D02*
X114217797Y-105440280D01*
X113867797Y-105090280D02*
X113867797Y-105440280D01*
X115917797Y-105090280D02*
X115467797Y-105440280D01*
X116517797Y-105090280D02*
X115917797Y-105090280D01*
D12*
G04 #@! TO.C,C34*
X110790000Y-106380000D02*
X110190000Y-106380000D01*
X110790000Y-106980000D02*
X110190000Y-106980000D01*
G04 #@! TO.C,C8*
X191120000Y-112372854D02*
X191720000Y-112372854D01*
X191120000Y-112972854D02*
X191720000Y-112972854D01*
G04 #@! TO.C,C21*
X191110000Y-111196427D02*
X191710000Y-111196427D01*
X191110000Y-110596427D02*
X191710000Y-110596427D01*
G04 #@! TO.C,C19*
X191140000Y-115925710D02*
X191740000Y-115925710D01*
X191140000Y-116525710D02*
X191740000Y-116525710D01*
G04 #@! TO.C,C18*
X177320000Y-113660000D02*
X177320000Y-113060000D01*
X176720000Y-113660000D02*
X176720000Y-113060000D01*
G04 #@! TO.C,C22*
X122100000Y-114037500D02*
X122700000Y-114037500D01*
X122100000Y-114637500D02*
X122700000Y-114637500D01*
G04 #@! TO.C,C13*
X177320000Y-110160000D02*
X177320000Y-109560000D01*
X176720000Y-110160000D02*
X176720000Y-109560000D01*
G04 #@! TO.C,C10*
X191140000Y-108820000D02*
X191740000Y-108820000D01*
X191140000Y-109420000D02*
X191740000Y-109420000D01*
G04 #@! TO.C,C7*
X191140000Y-114749281D02*
X191740000Y-114749281D01*
X191140000Y-114149281D02*
X191740000Y-114149281D01*
G04 #@! TO.C,C12*
X176720000Y-117119738D02*
X176720000Y-116519738D01*
X177320000Y-117119738D02*
X177320000Y-116519738D01*
G04 #@! TO.C,C38*
X122100000Y-111092500D02*
X122700000Y-111092500D01*
X122100000Y-110492500D02*
X122700000Y-110492500D01*
G04 #@! TO.C,C36*
X106670000Y-114730000D02*
X106670000Y-114130000D01*
X107270000Y-114730000D02*
X107270000Y-114130000D01*
G04 #@! TO.C,C28*
X107270000Y-111220000D02*
X107270000Y-110620000D01*
X106670000Y-111220000D02*
X106670000Y-110620000D01*
G04 #@! TO.C,C27*
X106670000Y-118240000D02*
X106670000Y-117640000D01*
X107270000Y-118240000D02*
X107270000Y-117640000D01*
G04 #@! TO.C,C24*
X122100000Y-112865000D02*
X122700000Y-112865000D01*
X122100000Y-112265000D02*
X122700000Y-112265000D01*
G04 #@! TO.C,C33*
X185870000Y-107742000D02*
X185270000Y-107742000D01*
X185870000Y-107142000D02*
X185270000Y-107142000D01*
G04 #@! TO.C,C35*
X122100000Y-115810000D02*
X122700000Y-115810000D01*
X122100000Y-116410000D02*
X122700000Y-116410000D01*
G04 #@! TO.C,C25*
X122100000Y-109320000D02*
X122700000Y-109320000D01*
X122100000Y-108720000D02*
X122700000Y-108720000D01*
G04 #@! TO.C,L6*
X103310000Y-114330000D02*
X103910000Y-114330000D01*
X103290000Y-115930000D02*
X103890000Y-115930000D01*
G04 #@! TO.C,L5*
X103290000Y-112420000D02*
X103890000Y-112420000D01*
X103310000Y-110820000D02*
X103910000Y-110820000D01*
G04 #@! TO.C,L4*
X103310000Y-117840000D02*
X103910000Y-117840000D01*
X103290000Y-119440000D02*
X103890000Y-119440000D01*
G04 #@! TO.C,L3*
X173000000Y-114860000D02*
X173600000Y-114860000D01*
X173020000Y-113260000D02*
X173620000Y-113260000D01*
G04 #@! TO.C,L1*
X173020000Y-116710000D02*
X173620000Y-116710000D01*
X173000000Y-118310000D02*
X173600000Y-118310000D01*
G04 #@! TO.C,L2*
X173000000Y-111360000D02*
X173600000Y-111360000D01*
X173020000Y-109760000D02*
X173620000Y-109760000D01*
D13*
G04 #@! TO.C,U3*
X127810000Y-109450000D02*
G75*
G03X127810000Y-109450000I-100000J0D01*
G01*
D10*
X126960000Y-109600000D02*
X127110000Y-109600000D01*
X126960000Y-109900000D02*
X126960000Y-109600000D01*
X129760000Y-109600000D02*
X129560000Y-109600000D01*
X129760000Y-109900000D02*
X129760000Y-109600000D01*
X129760000Y-112900000D02*
X129560000Y-112900000D01*
X129760000Y-112600000D02*
X129760000Y-112900000D01*
X126960000Y-112900000D02*
X127110000Y-112900000D01*
X126960000Y-112600000D02*
X126960000Y-112900000D01*
G04 #@! TO.C,U4*
X169702500Y-110436000D02*
X169702500Y-110136000D01*
X169702500Y-110136000D02*
X169552500Y-110136000D01*
X166902500Y-110436000D02*
X166902500Y-110136000D01*
X166902500Y-110136000D02*
X167102500Y-110136000D01*
X166902500Y-113136000D02*
X166902500Y-113436000D01*
X166902500Y-113436000D02*
X167102500Y-113436000D01*
X169702500Y-113136000D02*
X169702500Y-113436000D01*
X169702500Y-113436000D02*
X169552500Y-113436000D01*
D13*
X169052500Y-113586000D02*
G75*
G03X169052500Y-113586000I-100000J0D01*
G01*
D11*
G04 #@! TO.C,Q1*
X184989900Y-102408000D02*
X184714900Y-102408000D01*
X184714900Y-102408000D02*
X184339900Y-102683000D01*
X184339900Y-102683000D02*
X184339900Y-102733000D01*
X184339900Y-102733000D02*
X183564900Y-102733000D01*
X184814900Y-105708000D02*
X184339900Y-105708000D01*
X184339900Y-105708000D02*
X184339900Y-105358000D01*
X185989900Y-105483000D02*
X185989900Y-105358000D01*
X185989900Y-105408000D02*
X185989900Y-105708000D01*
X185989900Y-105708000D02*
X185539900Y-105708000D01*
X185614900Y-102408000D02*
X185989900Y-102408000D01*
X185989900Y-102408000D02*
X185989900Y-102708000D01*
D10*
G04 #@! TO.C,J3*
X137500000Y-119400000D02*
X137500000Y-120225000D01*
X162500000Y-119400000D02*
X162500000Y-120225000D01*
X134400000Y-119400000D02*
X137500000Y-119400000D01*
X165600000Y-119400000D02*
X162500000Y-119400000D01*
X134400000Y-116050000D02*
X134400000Y-119400000D01*
X165600000Y-116050000D02*
X165600000Y-119400000D01*
X137500000Y-116050000D02*
X134400000Y-116050000D01*
X162500000Y-116050000D02*
X165600000Y-116050000D01*
X137500000Y-118575000D02*
X137500000Y-116050000D01*
X162500000Y-118575000D02*
X162500000Y-116050000D01*
X162500000Y-118575000D02*
X137500000Y-118575000D01*
X162500000Y-120225000D02*
X137500000Y-120225000D01*
D11*
G04 #@! TO.C,IC3*
X183028000Y-120040000D02*
X183378000Y-120040000D01*
X183028000Y-120390000D02*
X183028000Y-120040000D01*
X185028000Y-120040000D02*
X185028000Y-120390000D01*
X184678000Y-120040000D02*
X185028000Y-120040000D01*
X183028000Y-123340000D02*
X183378000Y-123340000D01*
X183028000Y-122990000D02*
X183028000Y-123340000D01*
X185078000Y-122990000D02*
X184628000Y-123340000D01*
X185678000Y-122990000D02*
X185078000Y-122990000D01*
D12*
G04 #@! TO.C,C4*
X109656000Y-122524000D02*
X109656000Y-121924000D01*
X110256000Y-122524000D02*
X110256000Y-121924000D01*
G04 #@! TO.C,C5*
X110967797Y-104340280D02*
X110967797Y-103740280D01*
X111567797Y-104340280D02*
X111567797Y-103740280D01*
G04 #@! TO.C,C6*
X180428000Y-122240000D02*
X180428000Y-121640000D01*
X181028000Y-122240000D02*
X181028000Y-121640000D01*
G04 #@! TO.C,C2*
X119794000Y-103594000D02*
X119794000Y-104194000D01*
X118194000Y-103574000D02*
X118194000Y-104174000D01*
G04 #@! TO.C,C1*
X118456000Y-121774000D02*
X118456000Y-122374000D01*
X116856000Y-121754000D02*
X116856000Y-122354000D01*
G04 #@! TO.C,C3*
X187078000Y-121890000D02*
X187078000Y-121290000D01*
X188678000Y-121910000D02*
X188678000Y-121310000D01*
D10*
G04 #@! TO.C,Y1*
X186672500Y-110536000D02*
X187222500Y-111086000D01*
X187222500Y-111086000D02*
X187222500Y-114436000D01*
X187219164Y-114436000D02*
X182279164Y-114436000D01*
X182272500Y-114436000D02*
X182272500Y-110536000D01*
X182279164Y-110536000D02*
X186672500Y-110536000D01*
D11*
G04 #@! TO.C,IC1*
X113006000Y-120324000D02*
X113356000Y-120324000D01*
X113006000Y-120674000D02*
X113006000Y-120324000D01*
X115006000Y-120324000D02*
X115006000Y-120674000D01*
X114656000Y-120324000D02*
X115006000Y-120324000D01*
X113006000Y-123624000D02*
X113356000Y-123624000D01*
X113006000Y-123274000D02*
X113006000Y-123624000D01*
X115056000Y-123274000D02*
X114606000Y-123624000D01*
X115656000Y-123274000D02*
X115056000Y-123274000D01*
G04 #@! TO.C,R14*
D10*
X112718780Y-118422857D02*
X112242590Y-118756190D01*
X112718780Y-118994285D02*
X111718780Y-118994285D01*
X111718780Y-118613333D01*
X111766400Y-118518095D01*
X111814019Y-118470476D01*
X111909257Y-118422857D01*
X112052114Y-118422857D01*
X112147352Y-118470476D01*
X112194971Y-118518095D01*
X112242590Y-118613333D01*
X112242590Y-118994285D01*
X112718780Y-117470476D02*
X112718780Y-118041904D01*
X112718780Y-117756190D02*
X111718780Y-117756190D01*
X111861638Y-117851428D01*
X111956876Y-117946666D01*
X112004495Y-118041904D01*
X112052114Y-116613333D02*
X112718780Y-116613333D01*
X111671161Y-116851428D02*
X112385447Y-117089523D01*
X112385447Y-116470476D01*
G04 #@! TO.C,C16*
X188948718Y-118506857D02*
X188996337Y-118554476D01*
X189043956Y-118697333D01*
X189043956Y-118792571D01*
X188996337Y-118935428D01*
X188901099Y-119030666D01*
X188805861Y-119078285D01*
X188615385Y-119125904D01*
X188472528Y-119125904D01*
X188282052Y-119078285D01*
X188186814Y-119030666D01*
X188091576Y-118935428D01*
X188043956Y-118792571D01*
X188043956Y-118697333D01*
X188091576Y-118554476D01*
X188139195Y-118506857D01*
X189043956Y-117554476D02*
X189043956Y-118125904D01*
X189043956Y-117840190D02*
X188043956Y-117840190D01*
X188186814Y-117935428D01*
X188282052Y-118030666D01*
X188329671Y-118125904D01*
X188043956Y-116697333D02*
X188043956Y-116887809D01*
X188091576Y-116983047D01*
X188139195Y-117030666D01*
X188282052Y-117125904D01*
X188472528Y-117173523D01*
X188853480Y-117173523D01*
X188948718Y-117125904D01*
X188996337Y-117078285D01*
X189043956Y-116983047D01*
X189043956Y-116792571D01*
X188996337Y-116697333D01*
X188948718Y-116649714D01*
X188853480Y-116602095D01*
X188615385Y-116602095D01*
X188520147Y-116649714D01*
X188472528Y-116697333D01*
X188424909Y-116792571D01*
X188424909Y-116983047D01*
X188472528Y-117078285D01*
X188520147Y-117125904D01*
X188615385Y-117173523D01*
G04 #@! TO.C,Y2*
X114983809Y-116136190D02*
X114983809Y-116612380D01*
X114650476Y-115612380D02*
X114983809Y-116136190D01*
X115317142Y-115612380D01*
X115602857Y-115707619D02*
X115650476Y-115660000D01*
X115745714Y-115612380D01*
X115983809Y-115612380D01*
X116079047Y-115660000D01*
X116126666Y-115707619D01*
X116174285Y-115802857D01*
X116174285Y-115898095D01*
X116126666Y-116040952D01*
X115555238Y-116612380D01*
X116174285Y-116612380D01*
G04 #@! TO.C,IC2*
X111770177Y-104741470D02*
X110770177Y-104741470D01*
X111674939Y-103693851D02*
X111722558Y-103741470D01*
X111770177Y-103884327D01*
X111770177Y-103979565D01*
X111722558Y-104122422D01*
X111627320Y-104217660D01*
X111532082Y-104265280D01*
X111341606Y-104312899D01*
X111198749Y-104312899D01*
X111008273Y-104265280D01*
X110913035Y-104217660D01*
X110817797Y-104122422D01*
X110770177Y-103979565D01*
X110770177Y-103884327D01*
X110817797Y-103741470D01*
X110865416Y-103693851D01*
X110865416Y-103312899D02*
X110817797Y-103265280D01*
X110770177Y-103170041D01*
X110770177Y-102931946D01*
X110817797Y-102836708D01*
X110865416Y-102789089D01*
X110960654Y-102741470D01*
X111055892Y-102741470D01*
X111198749Y-102789089D01*
X111770177Y-103360518D01*
X111770177Y-102741470D01*
G04 #@! TO.C,C34*
X109847142Y-109237142D02*
X109799523Y-109284761D01*
X109656666Y-109332380D01*
X109561428Y-109332380D01*
X109418571Y-109284761D01*
X109323333Y-109189523D01*
X109275714Y-109094285D01*
X109228095Y-108903809D01*
X109228095Y-108760952D01*
X109275714Y-108570476D01*
X109323333Y-108475238D01*
X109418571Y-108380000D01*
X109561428Y-108332380D01*
X109656666Y-108332380D01*
X109799523Y-108380000D01*
X109847142Y-108427619D01*
X110180476Y-108332380D02*
X110799523Y-108332380D01*
X110466190Y-108713333D01*
X110609047Y-108713333D01*
X110704285Y-108760952D01*
X110751904Y-108808571D01*
X110799523Y-108903809D01*
X110799523Y-109141904D01*
X110751904Y-109237142D01*
X110704285Y-109284761D01*
X110609047Y-109332380D01*
X110323333Y-109332380D01*
X110228095Y-109284761D01*
X110180476Y-109237142D01*
X111656666Y-108665714D02*
X111656666Y-109332380D01*
X111418571Y-108284761D02*
X111180476Y-108999047D01*
X111799523Y-108999047D01*
G04 #@! TO.C,C15*
X178480667Y-110692857D02*
X178528286Y-110740476D01*
X178575905Y-110883333D01*
X178575905Y-110978571D01*
X178528286Y-111121428D01*
X178433048Y-111216666D01*
X178337810Y-111264285D01*
X178147334Y-111311904D01*
X178004477Y-111311904D01*
X177814001Y-111264285D01*
X177718763Y-111216666D01*
X177623525Y-111121428D01*
X177575905Y-110978571D01*
X177575905Y-110883333D01*
X177623525Y-110740476D01*
X177671144Y-110692857D01*
X178575905Y-109740476D02*
X178575905Y-110311904D01*
X178575905Y-110026190D02*
X177575905Y-110026190D01*
X177718763Y-110121428D01*
X177814001Y-110216666D01*
X177861620Y-110311904D01*
X177575905Y-108835714D02*
X177575905Y-109311904D01*
X178052096Y-109359523D01*
X178004477Y-109311904D01*
X177956858Y-109216666D01*
X177956858Y-108978571D01*
X178004477Y-108883333D01*
X178052096Y-108835714D01*
X178147334Y-108788095D01*
X178385429Y-108788095D01*
X178480667Y-108835714D01*
X178528286Y-108883333D01*
X178575905Y-108978571D01*
X178575905Y-109216666D01*
X178528286Y-109311904D01*
X178480667Y-109359523D01*
G04 #@! TO.C,C14*
X178480667Y-117682595D02*
X178528286Y-117730214D01*
X178575905Y-117873071D01*
X178575905Y-117968309D01*
X178528286Y-118111166D01*
X178433048Y-118206404D01*
X178337810Y-118254023D01*
X178147334Y-118301642D01*
X178004477Y-118301642D01*
X177814001Y-118254023D01*
X177718763Y-118206404D01*
X177623525Y-118111166D01*
X177575905Y-117968309D01*
X177575905Y-117873071D01*
X177623525Y-117730214D01*
X177671144Y-117682595D01*
X178575905Y-116730214D02*
X178575905Y-117301642D01*
X178575905Y-117015928D02*
X177575905Y-117015928D01*
X177718763Y-117111166D01*
X177814001Y-117206404D01*
X177861620Y-117301642D01*
X177909239Y-115873071D02*
X178575905Y-115873071D01*
X177528286Y-116111166D02*
X178242572Y-116349261D01*
X178242572Y-115730214D01*
G04 #@! TO.C,C23*
X116385942Y-118422857D02*
X116433561Y-118470476D01*
X116481180Y-118613333D01*
X116481180Y-118708571D01*
X116433561Y-118851428D01*
X116338323Y-118946666D01*
X116243085Y-118994285D01*
X116052609Y-119041904D01*
X115909752Y-119041904D01*
X115719276Y-118994285D01*
X115624038Y-118946666D01*
X115528800Y-118851428D01*
X115481180Y-118708571D01*
X115481180Y-118613333D01*
X115528800Y-118470476D01*
X115576419Y-118422857D01*
X115576419Y-118041904D02*
X115528800Y-117994285D01*
X115481180Y-117899047D01*
X115481180Y-117660952D01*
X115528800Y-117565714D01*
X115576419Y-117518095D01*
X115671657Y-117470476D01*
X115766895Y-117470476D01*
X115909752Y-117518095D01*
X116481180Y-118089523D01*
X116481180Y-117470476D01*
X115481180Y-117137142D02*
X115481180Y-116518095D01*
X115862133Y-116851428D01*
X115862133Y-116708571D01*
X115909752Y-116613333D01*
X115957371Y-116565714D01*
X116052609Y-116518095D01*
X116290704Y-116518095D01*
X116385942Y-116565714D01*
X116433561Y-116613333D01*
X116481180Y-116708571D01*
X116481180Y-116994285D01*
X116433561Y-117089523D01*
X116385942Y-117137142D01*
G04 #@! TO.C,C17*
X187342592Y-118426857D02*
X187390211Y-118474476D01*
X187437830Y-118617333D01*
X187437830Y-118712571D01*
X187390211Y-118855428D01*
X187294973Y-118950666D01*
X187199735Y-118998285D01*
X187009259Y-119045904D01*
X186866402Y-119045904D01*
X186675926Y-118998285D01*
X186580688Y-118950666D01*
X186485450Y-118855428D01*
X186437830Y-118712571D01*
X186437830Y-118617333D01*
X186485450Y-118474476D01*
X186533069Y-118426857D01*
X187437830Y-117474476D02*
X187437830Y-118045904D01*
X187437830Y-117760190D02*
X186437830Y-117760190D01*
X186580688Y-117855428D01*
X186675926Y-117950666D01*
X186723545Y-118045904D01*
X186437830Y-117141142D02*
X186437830Y-116474476D01*
X187437830Y-116903047D01*
G04 #@! TO.C,C29*
X108337142Y-118802857D02*
X108384761Y-118850476D01*
X108432380Y-118993333D01*
X108432380Y-119088571D01*
X108384761Y-119231428D01*
X108289523Y-119326666D01*
X108194285Y-119374285D01*
X108003809Y-119421904D01*
X107860952Y-119421904D01*
X107670476Y-119374285D01*
X107575238Y-119326666D01*
X107480000Y-119231428D01*
X107432380Y-119088571D01*
X107432380Y-118993333D01*
X107480000Y-118850476D01*
X107527619Y-118802857D01*
X107527619Y-118421904D02*
X107480000Y-118374285D01*
X107432380Y-118279047D01*
X107432380Y-118040952D01*
X107480000Y-117945714D01*
X107527619Y-117898095D01*
X107622857Y-117850476D01*
X107718095Y-117850476D01*
X107860952Y-117898095D01*
X108432380Y-118469523D01*
X108432380Y-117850476D01*
X108432380Y-117374285D02*
X108432380Y-117183809D01*
X108384761Y-117088571D01*
X108337142Y-117040952D01*
X108194285Y-116945714D01*
X108003809Y-116898095D01*
X107622857Y-116898095D01*
X107527619Y-116945714D01*
X107480000Y-116993333D01*
X107432380Y-117088571D01*
X107432380Y-117279047D01*
X107480000Y-117374285D01*
X107527619Y-117421904D01*
X107622857Y-117469523D01*
X107860952Y-117469523D01*
X107956190Y-117421904D01*
X108003809Y-117374285D01*
X108051428Y-117279047D01*
X108051428Y-117088571D01*
X108003809Y-116993333D01*
X107956190Y-116945714D01*
X107860952Y-116898095D01*
G04 #@! TO.C,C30*
X108337142Y-111772857D02*
X108384761Y-111820476D01*
X108432380Y-111963333D01*
X108432380Y-112058571D01*
X108384761Y-112201428D01*
X108289523Y-112296666D01*
X108194285Y-112344285D01*
X108003809Y-112391904D01*
X107860952Y-112391904D01*
X107670476Y-112344285D01*
X107575238Y-112296666D01*
X107480000Y-112201428D01*
X107432380Y-112058571D01*
X107432380Y-111963333D01*
X107480000Y-111820476D01*
X107527619Y-111772857D01*
X107432380Y-111439523D02*
X107432380Y-110820476D01*
X107813333Y-111153809D01*
X107813333Y-111010952D01*
X107860952Y-110915714D01*
X107908571Y-110868095D01*
X108003809Y-110820476D01*
X108241904Y-110820476D01*
X108337142Y-110868095D01*
X108384761Y-110915714D01*
X108432380Y-111010952D01*
X108432380Y-111296666D01*
X108384761Y-111391904D01*
X108337142Y-111439523D01*
X107432380Y-110201428D02*
X107432380Y-110106190D01*
X107480000Y-110010952D01*
X107527619Y-109963333D01*
X107622857Y-109915714D01*
X107813333Y-109868095D01*
X108051428Y-109868095D01*
X108241904Y-109915714D01*
X108337142Y-109963333D01*
X108384761Y-110010952D01*
X108432380Y-110106190D01*
X108432380Y-110201428D01*
X108384761Y-110296666D01*
X108337142Y-110344285D01*
X108241904Y-110391904D01*
X108051428Y-110439523D01*
X107813333Y-110439523D01*
X107622857Y-110391904D01*
X107527619Y-110344285D01*
X107480000Y-110296666D01*
X107432380Y-110201428D01*
G04 #@! TO.C,C20*
X178480667Y-114202857D02*
X178528286Y-114250476D01*
X178575905Y-114393333D01*
X178575905Y-114488571D01*
X178528286Y-114631428D01*
X178433048Y-114726666D01*
X178337810Y-114774285D01*
X178147334Y-114821904D01*
X178004477Y-114821904D01*
X177814001Y-114774285D01*
X177718763Y-114726666D01*
X177623525Y-114631428D01*
X177575905Y-114488571D01*
X177575905Y-114393333D01*
X177623525Y-114250476D01*
X177671144Y-114202857D01*
X177671144Y-113821904D02*
X177623525Y-113774285D01*
X177575905Y-113679047D01*
X177575905Y-113440952D01*
X177623525Y-113345714D01*
X177671144Y-113298095D01*
X177766382Y-113250476D01*
X177861620Y-113250476D01*
X178004477Y-113298095D01*
X178575905Y-113869523D01*
X178575905Y-113250476D01*
X177575905Y-112631428D02*
X177575905Y-112536190D01*
X177623525Y-112440952D01*
X177671144Y-112393333D01*
X177766382Y-112345714D01*
X177956858Y-112298095D01*
X178194953Y-112298095D01*
X178385429Y-112345714D01*
X178480667Y-112393333D01*
X178528286Y-112440952D01*
X178575905Y-112536190D01*
X178575905Y-112631428D01*
X178528286Y-112726666D01*
X178480667Y-112774285D01*
X178385429Y-112821904D01*
X178194953Y-112869523D01*
X177956858Y-112869523D01*
X177766382Y-112821904D01*
X177671144Y-112774285D01*
X177623525Y-112726666D01*
X177575905Y-112631428D01*
G04 #@! TO.C,C31*
X119230742Y-118422857D02*
X119278361Y-118470476D01*
X119325980Y-118613333D01*
X119325980Y-118708571D01*
X119278361Y-118851428D01*
X119183123Y-118946666D01*
X119087885Y-118994285D01*
X118897409Y-119041904D01*
X118754552Y-119041904D01*
X118564076Y-118994285D01*
X118468838Y-118946666D01*
X118373600Y-118851428D01*
X118325980Y-118708571D01*
X118325980Y-118613333D01*
X118373600Y-118470476D01*
X118421219Y-118422857D01*
X118325980Y-118089523D02*
X118325980Y-117470476D01*
X118706933Y-117803809D01*
X118706933Y-117660952D01*
X118754552Y-117565714D01*
X118802171Y-117518095D01*
X118897409Y-117470476D01*
X119135504Y-117470476D01*
X119230742Y-117518095D01*
X119278361Y-117565714D01*
X119325980Y-117660952D01*
X119325980Y-117946666D01*
X119278361Y-118041904D01*
X119230742Y-118089523D01*
X119325980Y-116518095D02*
X119325980Y-117089523D01*
X119325980Y-116803809D02*
X118325980Y-116803809D01*
X118468838Y-116899047D01*
X118564076Y-116994285D01*
X118611695Y-117089523D01*
G04 #@! TO.C,C32*
X117808342Y-118422857D02*
X117855961Y-118470476D01*
X117903580Y-118613333D01*
X117903580Y-118708571D01*
X117855961Y-118851428D01*
X117760723Y-118946666D01*
X117665485Y-118994285D01*
X117475009Y-119041904D01*
X117332152Y-119041904D01*
X117141676Y-118994285D01*
X117046438Y-118946666D01*
X116951200Y-118851428D01*
X116903580Y-118708571D01*
X116903580Y-118613333D01*
X116951200Y-118470476D01*
X116998819Y-118422857D01*
X116903580Y-118089523D02*
X116903580Y-117470476D01*
X117284533Y-117803809D01*
X117284533Y-117660952D01*
X117332152Y-117565714D01*
X117379771Y-117518095D01*
X117475009Y-117470476D01*
X117713104Y-117470476D01*
X117808342Y-117518095D01*
X117855961Y-117565714D01*
X117903580Y-117660952D01*
X117903580Y-117946666D01*
X117855961Y-118041904D01*
X117808342Y-118089523D01*
X116998819Y-117089523D02*
X116951200Y-117041904D01*
X116903580Y-116946666D01*
X116903580Y-116708571D01*
X116951200Y-116613333D01*
X116998819Y-116565714D01*
X117094057Y-116518095D01*
X117189295Y-116518095D01*
X117332152Y-116565714D01*
X117903580Y-117137142D01*
X117903580Y-116518095D01*
G04 #@! TO.C,C9*
X185889318Y-117950666D02*
X185936937Y-117998285D01*
X185984556Y-118141142D01*
X185984556Y-118236380D01*
X185936937Y-118379238D01*
X185841699Y-118474476D01*
X185746461Y-118522095D01*
X185555985Y-118569714D01*
X185413128Y-118569714D01*
X185222652Y-118522095D01*
X185127414Y-118474476D01*
X185032176Y-118379238D01*
X184984556Y-118236380D01*
X184984556Y-118141142D01*
X185032176Y-117998285D01*
X185079795Y-117950666D01*
X185984556Y-117474476D02*
X185984556Y-117284000D01*
X185936937Y-117188761D01*
X185889318Y-117141142D01*
X185746461Y-117045904D01*
X185555985Y-116998285D01*
X185175033Y-116998285D01*
X185079795Y-117045904D01*
X185032176Y-117093523D01*
X184984556Y-117188761D01*
X184984556Y-117379238D01*
X185032176Y-117474476D01*
X185079795Y-117522095D01*
X185175033Y-117569714D01*
X185413128Y-117569714D01*
X185508366Y-117522095D01*
X185555985Y-117474476D01*
X185603604Y-117379238D01*
X185603604Y-117188761D01*
X185555985Y-117093523D01*
X185508366Y-117045904D01*
X185413128Y-116998285D01*
G04 #@! TO.C,C37*
X108337142Y-115282857D02*
X108384761Y-115330476D01*
X108432380Y-115473333D01*
X108432380Y-115568571D01*
X108384761Y-115711428D01*
X108289523Y-115806666D01*
X108194285Y-115854285D01*
X108003809Y-115901904D01*
X107860952Y-115901904D01*
X107670476Y-115854285D01*
X107575238Y-115806666D01*
X107480000Y-115711428D01*
X107432380Y-115568571D01*
X107432380Y-115473333D01*
X107480000Y-115330476D01*
X107527619Y-115282857D01*
X107432380Y-114949523D02*
X107432380Y-114330476D01*
X107813333Y-114663809D01*
X107813333Y-114520952D01*
X107860952Y-114425714D01*
X107908571Y-114378095D01*
X108003809Y-114330476D01*
X108241904Y-114330476D01*
X108337142Y-114378095D01*
X108384761Y-114425714D01*
X108432380Y-114520952D01*
X108432380Y-114806666D01*
X108384761Y-114901904D01*
X108337142Y-114949523D01*
X107432380Y-113997142D02*
X107432380Y-113330476D01*
X108432380Y-113759047D01*
G04 #@! TO.C,R8*
X173789483Y-106336380D02*
X173456150Y-105860190D01*
X173218054Y-106336380D02*
X173218054Y-105336380D01*
X173599007Y-105336380D01*
X173694245Y-105384000D01*
X173741864Y-105431619D01*
X173789483Y-105526857D01*
X173789483Y-105669714D01*
X173741864Y-105764952D01*
X173694245Y-105812571D01*
X173599007Y-105860190D01*
X173218054Y-105860190D01*
X174360911Y-105764952D02*
X174265673Y-105717333D01*
X174218054Y-105669714D01*
X174170435Y-105574476D01*
X174170435Y-105526857D01*
X174218054Y-105431619D01*
X174265673Y-105384000D01*
X174360911Y-105336380D01*
X174551388Y-105336380D01*
X174646626Y-105384000D01*
X174694245Y-105431619D01*
X174741864Y-105526857D01*
X174741864Y-105574476D01*
X174694245Y-105669714D01*
X174646626Y-105717333D01*
X174551388Y-105764952D01*
X174360911Y-105764952D01*
X174265673Y-105812571D01*
X174218054Y-105860190D01*
X174170435Y-105955428D01*
X174170435Y-106145904D01*
X174218054Y-106241142D01*
X174265673Y-106288761D01*
X174360911Y-106336380D01*
X174551388Y-106336380D01*
X174646626Y-106288761D01*
X174694245Y-106241142D01*
X174741864Y-106145904D01*
X174741864Y-105955428D01*
X174694245Y-105860190D01*
X174646626Y-105812571D01*
X174551388Y-105764952D01*
G04 #@! TO.C,R17*
X103469142Y-106564380D02*
X103135809Y-106088190D01*
X102897714Y-106564380D02*
X102897714Y-105564380D01*
X103278666Y-105564380D01*
X103373904Y-105612000D01*
X103421523Y-105659619D01*
X103469142Y-105754857D01*
X103469142Y-105897714D01*
X103421523Y-105992952D01*
X103373904Y-106040571D01*
X103278666Y-106088190D01*
X102897714Y-106088190D01*
X104421523Y-106564380D02*
X103850095Y-106564380D01*
X104135809Y-106564380D02*
X104135809Y-105564380D01*
X104040571Y-105707238D01*
X103945333Y-105802476D01*
X103850095Y-105850095D01*
X104754857Y-105564380D02*
X105421523Y-105564380D01*
X104992952Y-106564380D01*
G04 #@! TO.C,R16*
X103479142Y-110654380D02*
X103145809Y-110178190D01*
X102907714Y-110654380D02*
X102907714Y-109654380D01*
X103288666Y-109654380D01*
X103383904Y-109702000D01*
X103431523Y-109749619D01*
X103479142Y-109844857D01*
X103479142Y-109987714D01*
X103431523Y-110082952D01*
X103383904Y-110130571D01*
X103288666Y-110178190D01*
X102907714Y-110178190D01*
X104431523Y-110654380D02*
X103860095Y-110654380D01*
X104145809Y-110654380D02*
X104145809Y-109654380D01*
X104050571Y-109797238D01*
X103955333Y-109892476D01*
X103860095Y-109940095D01*
X105288666Y-109654380D02*
X105098190Y-109654380D01*
X105002952Y-109702000D01*
X104955333Y-109749619D01*
X104860095Y-109892476D01*
X104812476Y-110082952D01*
X104812476Y-110463904D01*
X104860095Y-110559142D01*
X104907714Y-110606761D01*
X105002952Y-110654380D01*
X105193428Y-110654380D01*
X105288666Y-110606761D01*
X105336285Y-110559142D01*
X105383904Y-110463904D01*
X105383904Y-110225809D01*
X105336285Y-110130571D01*
X105288666Y-110082952D01*
X105193428Y-110035333D01*
X105002952Y-110035333D01*
X104907714Y-110082952D01*
X104860095Y-110130571D01*
X104812476Y-110225809D01*
G04 #@! TO.C,R15*
X113636380Y-118422857D02*
X113160190Y-118756190D01*
X113636380Y-118994285D02*
X112636380Y-118994285D01*
X112636380Y-118613333D01*
X112684000Y-118518095D01*
X112731619Y-118470476D01*
X112826857Y-118422857D01*
X112969714Y-118422857D01*
X113064952Y-118470476D01*
X113112571Y-118518095D01*
X113160190Y-118613333D01*
X113160190Y-118994285D01*
X113636380Y-117470476D02*
X113636380Y-118041904D01*
X113636380Y-117756190D02*
X112636380Y-117756190D01*
X112779238Y-117851428D01*
X112874476Y-117946666D01*
X112922095Y-118041904D01*
X112636380Y-116565714D02*
X112636380Y-117041904D01*
X113112571Y-117089523D01*
X113064952Y-117041904D01*
X113017333Y-116946666D01*
X113017333Y-116708571D01*
X113064952Y-116613333D01*
X113112571Y-116565714D01*
X113207809Y-116518095D01*
X113445904Y-116518095D01*
X113541142Y-116565714D01*
X113588761Y-116613333D01*
X113636380Y-116708571D01*
X113636380Y-116946666D01*
X113588761Y-117041904D01*
X113541142Y-117089523D01*
G04 #@! TO.C,R13*
X118408380Y-118422857D02*
X117932190Y-118756190D01*
X118408380Y-118994285D02*
X117408380Y-118994285D01*
X117408380Y-118613333D01*
X117456000Y-118518095D01*
X117503619Y-118470476D01*
X117598857Y-118422857D01*
X117741714Y-118422857D01*
X117836952Y-118470476D01*
X117884571Y-118518095D01*
X117932190Y-118613333D01*
X117932190Y-118994285D01*
X118408380Y-117470476D02*
X118408380Y-118041904D01*
X118408380Y-117756190D02*
X117408380Y-117756190D01*
X117551238Y-117851428D01*
X117646476Y-117946666D01*
X117694095Y-118041904D01*
X117408380Y-117137142D02*
X117408380Y-116518095D01*
X117789333Y-116851428D01*
X117789333Y-116708571D01*
X117836952Y-116613333D01*
X117884571Y-116565714D01*
X117979809Y-116518095D01*
X118217904Y-116518095D01*
X118313142Y-116565714D01*
X118360761Y-116613333D01*
X118408380Y-116708571D01*
X118408380Y-116994285D01*
X118360761Y-117089523D01*
X118313142Y-117137142D01*
G04 #@! TO.C,R18*
X182978380Y-105290857D02*
X182502190Y-105624190D01*
X182978380Y-105862285D02*
X181978380Y-105862285D01*
X181978380Y-105481333D01*
X182026000Y-105386095D01*
X182073619Y-105338476D01*
X182168857Y-105290857D01*
X182311714Y-105290857D01*
X182406952Y-105338476D01*
X182454571Y-105386095D01*
X182502190Y-105481333D01*
X182502190Y-105862285D01*
X182978380Y-104338476D02*
X182978380Y-104909904D01*
X182978380Y-104624190D02*
X181978380Y-104624190D01*
X182121238Y-104719428D01*
X182216476Y-104814666D01*
X182264095Y-104909904D01*
X182406952Y-103767047D02*
X182359333Y-103862285D01*
X182311714Y-103909904D01*
X182216476Y-103957523D01*
X182168857Y-103957523D01*
X182073619Y-103909904D01*
X182026000Y-103862285D01*
X181978380Y-103767047D01*
X181978380Y-103576571D01*
X182026000Y-103481333D01*
X182073619Y-103433714D01*
X182168857Y-103386095D01*
X182216476Y-103386095D01*
X182311714Y-103433714D01*
X182359333Y-103481333D01*
X182406952Y-103576571D01*
X182406952Y-103767047D01*
X182454571Y-103862285D01*
X182502190Y-103909904D01*
X182597428Y-103957523D01*
X182787904Y-103957523D01*
X182883142Y-103909904D01*
X182930761Y-103862285D01*
X182978380Y-103767047D01*
X182978380Y-103576571D01*
X182930761Y-103481333D01*
X182883142Y-103433714D01*
X182787904Y-103386095D01*
X182597428Y-103386095D01*
X182502190Y-103433714D01*
X182454571Y-103481333D01*
X182406952Y-103576571D01*
G04 #@! TO.C,R11*
X183078008Y-118426857D02*
X182601818Y-118760190D01*
X183078008Y-118998285D02*
X182078008Y-118998285D01*
X182078008Y-118617333D01*
X182125628Y-118522095D01*
X182173247Y-118474476D01*
X182268485Y-118426857D01*
X182411342Y-118426857D01*
X182506580Y-118474476D01*
X182554199Y-118522095D01*
X182601818Y-118617333D01*
X182601818Y-118998285D01*
X183078008Y-117474476D02*
X183078008Y-118045904D01*
X183078008Y-117760190D02*
X182078008Y-117760190D01*
X182220866Y-117855428D01*
X182316104Y-117950666D01*
X182363723Y-118045904D01*
X183078008Y-116522095D02*
X183078008Y-117093523D01*
X183078008Y-116807809D02*
X182078008Y-116807809D01*
X182220866Y-116903047D01*
X182316104Y-116998285D01*
X182363723Y-117093523D01*
G04 #@! TO.C,R10*
X182191282Y-118426857D02*
X181715092Y-118760190D01*
X182191282Y-118998285D02*
X181191282Y-118998285D01*
X181191282Y-118617333D01*
X181238902Y-118522095D01*
X181286521Y-118474476D01*
X181381759Y-118426857D01*
X181524616Y-118426857D01*
X181619854Y-118474476D01*
X181667473Y-118522095D01*
X181715092Y-118617333D01*
X181715092Y-118998285D01*
X182191282Y-117474476D02*
X182191282Y-118045904D01*
X182191282Y-117760190D02*
X181191282Y-117760190D01*
X181334140Y-117855428D01*
X181429378Y-117950666D01*
X181476997Y-118045904D01*
X181191282Y-116855428D02*
X181191282Y-116760190D01*
X181238902Y-116664952D01*
X181286521Y-116617333D01*
X181381759Y-116569714D01*
X181572235Y-116522095D01*
X181810330Y-116522095D01*
X182000806Y-116569714D01*
X182096044Y-116617333D01*
X182143663Y-116664952D01*
X182191282Y-116760190D01*
X182191282Y-116855428D01*
X182143663Y-116950666D01*
X182096044Y-116998285D01*
X182000806Y-117045904D01*
X181810330Y-117093523D01*
X181572235Y-117093523D01*
X181381759Y-117045904D01*
X181286521Y-116998285D01*
X181238902Y-116950666D01*
X181191282Y-116855428D01*
G04 #@! TO.C,R9*
X188004380Y-117950666D02*
X187528190Y-118284000D01*
X188004380Y-118522095D02*
X187004380Y-118522095D01*
X187004380Y-118141142D01*
X187052000Y-118045904D01*
X187099619Y-117998285D01*
X187194857Y-117950666D01*
X187337714Y-117950666D01*
X187432952Y-117998285D01*
X187480571Y-118045904D01*
X187528190Y-118141142D01*
X187528190Y-118522095D01*
X188004380Y-117474476D02*
X188004380Y-117284000D01*
X187956761Y-117188761D01*
X187909142Y-117141142D01*
X187766285Y-117045904D01*
X187575809Y-116998285D01*
X187194857Y-116998285D01*
X187099619Y-117045904D01*
X187052000Y-117093523D01*
X187004380Y-117188761D01*
X187004380Y-117379238D01*
X187052000Y-117474476D01*
X187099619Y-117522095D01*
X187194857Y-117569714D01*
X187432952Y-117569714D01*
X187528190Y-117522095D01*
X187575809Y-117474476D01*
X187623428Y-117379238D01*
X187623428Y-117188761D01*
X187575809Y-117093523D01*
X187528190Y-117045904D01*
X187432952Y-116998285D01*
G04 #@! TO.C,R19*
X190108380Y-105500857D02*
X189632190Y-105834190D01*
X190108380Y-106072285D02*
X189108380Y-106072285D01*
X189108380Y-105691333D01*
X189156000Y-105596095D01*
X189203619Y-105548476D01*
X189298857Y-105500857D01*
X189441714Y-105500857D01*
X189536952Y-105548476D01*
X189584571Y-105596095D01*
X189632190Y-105691333D01*
X189632190Y-106072285D01*
X190108380Y-104548476D02*
X190108380Y-105119904D01*
X190108380Y-104834190D02*
X189108380Y-104834190D01*
X189251238Y-104929428D01*
X189346476Y-105024666D01*
X189394095Y-105119904D01*
X190108380Y-104072285D02*
X190108380Y-103881809D01*
X190060761Y-103786571D01*
X190013142Y-103738952D01*
X189870285Y-103643714D01*
X189679809Y-103596095D01*
X189298857Y-103596095D01*
X189203619Y-103643714D01*
X189156000Y-103691333D01*
X189108380Y-103786571D01*
X189108380Y-103977047D01*
X189156000Y-104072285D01*
X189203619Y-104119904D01*
X189298857Y-104167523D01*
X189536952Y-104167523D01*
X189632190Y-104119904D01*
X189679809Y-104072285D01*
X189727428Y-103977047D01*
X189727428Y-103786571D01*
X189679809Y-103691333D01*
X189632190Y-103643714D01*
X189536952Y-103596095D01*
G04 #@! TO.C,R20*
X182470380Y-109100857D02*
X181994190Y-109434190D01*
X182470380Y-109672285D02*
X181470380Y-109672285D01*
X181470380Y-109291333D01*
X181518000Y-109196095D01*
X181565619Y-109148476D01*
X181660857Y-109100857D01*
X181803714Y-109100857D01*
X181898952Y-109148476D01*
X181946571Y-109196095D01*
X181994190Y-109291333D01*
X181994190Y-109672285D01*
X181565619Y-108719904D02*
X181518000Y-108672285D01*
X181470380Y-108577047D01*
X181470380Y-108338952D01*
X181518000Y-108243714D01*
X181565619Y-108196095D01*
X181660857Y-108148476D01*
X181756095Y-108148476D01*
X181898952Y-108196095D01*
X182470380Y-108767523D01*
X182470380Y-108148476D01*
X181470380Y-107529428D02*
X181470380Y-107434190D01*
X181518000Y-107338952D01*
X181565619Y-107291333D01*
X181660857Y-107243714D01*
X181851333Y-107196095D01*
X182089428Y-107196095D01*
X182279904Y-107243714D01*
X182375142Y-107291333D01*
X182422761Y-107338952D01*
X182470380Y-107434190D01*
X182470380Y-107529428D01*
X182422761Y-107624666D01*
X182375142Y-107672285D01*
X182279904Y-107719904D01*
X182089428Y-107767523D01*
X181851333Y-107767523D01*
X181660857Y-107719904D01*
X181565619Y-107672285D01*
X181518000Y-107624666D01*
X181470380Y-107529428D01*
G04 #@! TO.C,R21*
X110259642Y-107718380D02*
X109926309Y-107242190D01*
X109688214Y-107718380D02*
X109688214Y-106718380D01*
X110069166Y-106718380D01*
X110164404Y-106766000D01*
X110212023Y-106813619D01*
X110259642Y-106908857D01*
X110259642Y-107051714D01*
X110212023Y-107146952D01*
X110164404Y-107194571D01*
X110069166Y-107242190D01*
X109688214Y-107242190D01*
X110640595Y-106813619D02*
X110688214Y-106766000D01*
X110783452Y-106718380D01*
X111021547Y-106718380D01*
X111116785Y-106766000D01*
X111164404Y-106813619D01*
X111212023Y-106908857D01*
X111212023Y-107004095D01*
X111164404Y-107146952D01*
X110592976Y-107718380D01*
X111212023Y-107718380D01*
X112164404Y-107718380D02*
X111592976Y-107718380D01*
X111878690Y-107718380D02*
X111878690Y-106718380D01*
X111783452Y-106861238D01*
X111688214Y-106956476D01*
X111592976Y-107004095D01*
G04 #@! TO.C,R7*
X173722333Y-110306380D02*
X173389000Y-109830190D01*
X173150904Y-110306380D02*
X173150904Y-109306380D01*
X173531857Y-109306380D01*
X173627095Y-109354000D01*
X173674714Y-109401619D01*
X173722333Y-109496857D01*
X173722333Y-109639714D01*
X173674714Y-109734952D01*
X173627095Y-109782571D01*
X173531857Y-109830190D01*
X173150904Y-109830190D01*
X174055666Y-109306380D02*
X174722333Y-109306380D01*
X174293761Y-110306380D01*
G04 #@! TO.C,C8*
X191253333Y-110829996D02*
X191205714Y-110877615D01*
X191062857Y-110925234D01*
X190967619Y-110925234D01*
X190824761Y-110877615D01*
X190729523Y-110782377D01*
X190681904Y-110687139D01*
X190634285Y-110496663D01*
X190634285Y-110353806D01*
X190681904Y-110163330D01*
X190729523Y-110068092D01*
X190824761Y-109972854D01*
X190967619Y-109925234D01*
X191062857Y-109925234D01*
X191205714Y-109972854D01*
X191253333Y-110020473D01*
X191824761Y-110353806D02*
X191729523Y-110306187D01*
X191681904Y-110258568D01*
X191634285Y-110163330D01*
X191634285Y-110115711D01*
X191681904Y-110020473D01*
X191729523Y-109972854D01*
X191824761Y-109925234D01*
X192015238Y-109925234D01*
X192110476Y-109972854D01*
X192158095Y-110020473D01*
X192205714Y-110115711D01*
X192205714Y-110163330D01*
X192158095Y-110258568D01*
X192110476Y-110306187D01*
X192015238Y-110353806D01*
X191824761Y-110353806D01*
X191729523Y-110401425D01*
X191681904Y-110449044D01*
X191634285Y-110544282D01*
X191634285Y-110734758D01*
X191681904Y-110829996D01*
X191729523Y-110877615D01*
X191824761Y-110925234D01*
X192015238Y-110925234D01*
X192110476Y-110877615D01*
X192158095Y-110829996D01*
X192205714Y-110734758D01*
X192205714Y-110544282D01*
X192158095Y-110449044D01*
X192110476Y-110401425D01*
X192015238Y-110353806D01*
G04 #@! TO.C,C21*
X190767142Y-109053569D02*
X190719523Y-109101188D01*
X190576666Y-109148807D01*
X190481428Y-109148807D01*
X190338571Y-109101188D01*
X190243333Y-109005950D01*
X190195714Y-108910712D01*
X190148095Y-108720236D01*
X190148095Y-108577379D01*
X190195714Y-108386903D01*
X190243333Y-108291665D01*
X190338571Y-108196427D01*
X190481428Y-108148807D01*
X190576666Y-108148807D01*
X190719523Y-108196427D01*
X190767142Y-108244046D01*
X191148095Y-108244046D02*
X191195714Y-108196427D01*
X191290952Y-108148807D01*
X191529047Y-108148807D01*
X191624285Y-108196427D01*
X191671904Y-108244046D01*
X191719523Y-108339284D01*
X191719523Y-108434522D01*
X191671904Y-108577379D01*
X191100476Y-109148807D01*
X191719523Y-109148807D01*
X192671904Y-109148807D02*
X192100476Y-109148807D01*
X192386190Y-109148807D02*
X192386190Y-108148807D01*
X192290952Y-108291665D01*
X192195714Y-108386903D01*
X192100476Y-108434522D01*
G04 #@! TO.C,C19*
X190797142Y-114382852D02*
X190749523Y-114430471D01*
X190606666Y-114478090D01*
X190511428Y-114478090D01*
X190368571Y-114430471D01*
X190273333Y-114335233D01*
X190225714Y-114239995D01*
X190178095Y-114049519D01*
X190178095Y-113906662D01*
X190225714Y-113716186D01*
X190273333Y-113620948D01*
X190368571Y-113525710D01*
X190511428Y-113478090D01*
X190606666Y-113478090D01*
X190749523Y-113525710D01*
X190797142Y-113573329D01*
X191749523Y-114478090D02*
X191178095Y-114478090D01*
X191463809Y-114478090D02*
X191463809Y-113478090D01*
X191368571Y-113620948D01*
X191273333Y-113716186D01*
X191178095Y-113763805D01*
X192225714Y-114478090D02*
X192416190Y-114478090D01*
X192511428Y-114430471D01*
X192559047Y-114382852D01*
X192654285Y-114239995D01*
X192701904Y-114049519D01*
X192701904Y-113668567D01*
X192654285Y-113573329D01*
X192606666Y-113525710D01*
X192511428Y-113478090D01*
X192320952Y-113478090D01*
X192225714Y-113525710D01*
X192178095Y-113573329D01*
X192130476Y-113668567D01*
X192130476Y-113906662D01*
X192178095Y-114001900D01*
X192225714Y-114049519D01*
X192320952Y-114097138D01*
X192511428Y-114097138D01*
X192606666Y-114049519D01*
X192654285Y-114001900D01*
X192701904Y-113906662D01*
G04 #@! TO.C,C18*
X175177142Y-114002857D02*
X175224761Y-114050476D01*
X175272380Y-114193333D01*
X175272380Y-114288571D01*
X175224761Y-114431428D01*
X175129523Y-114526666D01*
X175034285Y-114574285D01*
X174843809Y-114621904D01*
X174700952Y-114621904D01*
X174510476Y-114574285D01*
X174415238Y-114526666D01*
X174320000Y-114431428D01*
X174272380Y-114288571D01*
X174272380Y-114193333D01*
X174320000Y-114050476D01*
X174367619Y-114002857D01*
X175272380Y-113050476D02*
X175272380Y-113621904D01*
X175272380Y-113336190D02*
X174272380Y-113336190D01*
X174415238Y-113431428D01*
X174510476Y-113526666D01*
X174558095Y-113621904D01*
X174700952Y-112479047D02*
X174653333Y-112574285D01*
X174605714Y-112621904D01*
X174510476Y-112669523D01*
X174462857Y-112669523D01*
X174367619Y-112621904D01*
X174320000Y-112574285D01*
X174272380Y-112479047D01*
X174272380Y-112288571D01*
X174320000Y-112193333D01*
X174367619Y-112145714D01*
X174462857Y-112098095D01*
X174510476Y-112098095D01*
X174605714Y-112145714D01*
X174653333Y-112193333D01*
X174700952Y-112288571D01*
X174700952Y-112479047D01*
X174748571Y-112574285D01*
X174796190Y-112621904D01*
X174891428Y-112669523D01*
X175081904Y-112669523D01*
X175177142Y-112621904D01*
X175224761Y-112574285D01*
X175272380Y-112479047D01*
X175272380Y-112288571D01*
X175224761Y-112193333D01*
X175177142Y-112145714D01*
X175081904Y-112098095D01*
X174891428Y-112098095D01*
X174796190Y-112145714D01*
X174748571Y-112193333D01*
X174700952Y-112288571D01*
G04 #@! TO.C,C22*
X121757142Y-112494642D02*
X121709523Y-112542261D01*
X121566666Y-112589880D01*
X121471428Y-112589880D01*
X121328571Y-112542261D01*
X121233333Y-112447023D01*
X121185714Y-112351785D01*
X121138095Y-112161309D01*
X121138095Y-112018452D01*
X121185714Y-111827976D01*
X121233333Y-111732738D01*
X121328571Y-111637500D01*
X121471428Y-111589880D01*
X121566666Y-111589880D01*
X121709523Y-111637500D01*
X121757142Y-111685119D01*
X122138095Y-111685119D02*
X122185714Y-111637500D01*
X122280952Y-111589880D01*
X122519047Y-111589880D01*
X122614285Y-111637500D01*
X122661904Y-111685119D01*
X122709523Y-111780357D01*
X122709523Y-111875595D01*
X122661904Y-112018452D01*
X122090476Y-112589880D01*
X122709523Y-112589880D01*
X123090476Y-111685119D02*
X123138095Y-111637500D01*
X123233333Y-111589880D01*
X123471428Y-111589880D01*
X123566666Y-111637500D01*
X123614285Y-111685119D01*
X123661904Y-111780357D01*
X123661904Y-111875595D01*
X123614285Y-112018452D01*
X123042857Y-112589880D01*
X123661904Y-112589880D01*
G04 #@! TO.C,C13*
X175177142Y-110502857D02*
X175224761Y-110550476D01*
X175272380Y-110693333D01*
X175272380Y-110788571D01*
X175224761Y-110931428D01*
X175129523Y-111026666D01*
X175034285Y-111074285D01*
X174843809Y-111121904D01*
X174700952Y-111121904D01*
X174510476Y-111074285D01*
X174415238Y-111026666D01*
X174320000Y-110931428D01*
X174272380Y-110788571D01*
X174272380Y-110693333D01*
X174320000Y-110550476D01*
X174367619Y-110502857D01*
X175272380Y-109550476D02*
X175272380Y-110121904D01*
X175272380Y-109836190D02*
X174272380Y-109836190D01*
X174415238Y-109931428D01*
X174510476Y-110026666D01*
X174558095Y-110121904D01*
X174272380Y-109217142D02*
X174272380Y-108598095D01*
X174653333Y-108931428D01*
X174653333Y-108788571D01*
X174700952Y-108693333D01*
X174748571Y-108645714D01*
X174843809Y-108598095D01*
X175081904Y-108598095D01*
X175177142Y-108645714D01*
X175224761Y-108693333D01*
X175272380Y-108788571D01*
X175272380Y-109074285D01*
X175224761Y-109169523D01*
X175177142Y-109217142D01*
G04 #@! TO.C,C10*
X190797142Y-107277142D02*
X190749523Y-107324761D01*
X190606666Y-107372380D01*
X190511428Y-107372380D01*
X190368571Y-107324761D01*
X190273333Y-107229523D01*
X190225714Y-107134285D01*
X190178095Y-106943809D01*
X190178095Y-106800952D01*
X190225714Y-106610476D01*
X190273333Y-106515238D01*
X190368571Y-106420000D01*
X190511428Y-106372380D01*
X190606666Y-106372380D01*
X190749523Y-106420000D01*
X190797142Y-106467619D01*
X191749523Y-107372380D02*
X191178095Y-107372380D01*
X191463809Y-107372380D02*
X191463809Y-106372380D01*
X191368571Y-106515238D01*
X191273333Y-106610476D01*
X191178095Y-106658095D01*
X192368571Y-106372380D02*
X192463809Y-106372380D01*
X192559047Y-106420000D01*
X192606666Y-106467619D01*
X192654285Y-106562857D01*
X192701904Y-106753333D01*
X192701904Y-106991428D01*
X192654285Y-107181904D01*
X192606666Y-107277142D01*
X192559047Y-107324761D01*
X192463809Y-107372380D01*
X192368571Y-107372380D01*
X192273333Y-107324761D01*
X192225714Y-107277142D01*
X192178095Y-107181904D01*
X192130476Y-106991428D01*
X192130476Y-106753333D01*
X192178095Y-106562857D01*
X192225714Y-106467619D01*
X192273333Y-106420000D01*
X192368571Y-106372380D01*
G04 #@! TO.C,C7*
X191273333Y-112606423D02*
X191225714Y-112654042D01*
X191082857Y-112701661D01*
X190987619Y-112701661D01*
X190844761Y-112654042D01*
X190749523Y-112558804D01*
X190701904Y-112463566D01*
X190654285Y-112273090D01*
X190654285Y-112130233D01*
X190701904Y-111939757D01*
X190749523Y-111844519D01*
X190844761Y-111749281D01*
X190987619Y-111701661D01*
X191082857Y-111701661D01*
X191225714Y-111749281D01*
X191273333Y-111796900D01*
X191606666Y-111701661D02*
X192273333Y-111701661D01*
X191844761Y-112701661D01*
G04 #@! TO.C,C12*
X175177142Y-117462595D02*
X175224761Y-117510214D01*
X175272380Y-117653071D01*
X175272380Y-117748309D01*
X175224761Y-117891166D01*
X175129523Y-117986404D01*
X175034285Y-118034023D01*
X174843809Y-118081642D01*
X174700952Y-118081642D01*
X174510476Y-118034023D01*
X174415238Y-117986404D01*
X174320000Y-117891166D01*
X174272380Y-117748309D01*
X174272380Y-117653071D01*
X174320000Y-117510214D01*
X174367619Y-117462595D01*
X175272380Y-116510214D02*
X175272380Y-117081642D01*
X175272380Y-116795928D02*
X174272380Y-116795928D01*
X174415238Y-116891166D01*
X174510476Y-116986404D01*
X174558095Y-117081642D01*
X174367619Y-116129261D02*
X174320000Y-116081642D01*
X174272380Y-115986404D01*
X174272380Y-115748309D01*
X174320000Y-115653071D01*
X174367619Y-115605452D01*
X174462857Y-115557833D01*
X174558095Y-115557833D01*
X174700952Y-115605452D01*
X175272380Y-116176880D01*
X175272380Y-115557833D01*
G04 #@! TO.C,C38*
X121757142Y-108949642D02*
X121709523Y-108997261D01*
X121566666Y-109044880D01*
X121471428Y-109044880D01*
X121328571Y-108997261D01*
X121233333Y-108902023D01*
X121185714Y-108806785D01*
X121138095Y-108616309D01*
X121138095Y-108473452D01*
X121185714Y-108282976D01*
X121233333Y-108187738D01*
X121328571Y-108092500D01*
X121471428Y-108044880D01*
X121566666Y-108044880D01*
X121709523Y-108092500D01*
X121757142Y-108140119D01*
X122090476Y-108044880D02*
X122709523Y-108044880D01*
X122376190Y-108425833D01*
X122519047Y-108425833D01*
X122614285Y-108473452D01*
X122661904Y-108521071D01*
X122709523Y-108616309D01*
X122709523Y-108854404D01*
X122661904Y-108949642D01*
X122614285Y-108997261D01*
X122519047Y-109044880D01*
X122233333Y-109044880D01*
X122138095Y-108997261D01*
X122090476Y-108949642D01*
X123280952Y-108473452D02*
X123185714Y-108425833D01*
X123138095Y-108378214D01*
X123090476Y-108282976D01*
X123090476Y-108235357D01*
X123138095Y-108140119D01*
X123185714Y-108092500D01*
X123280952Y-108044880D01*
X123471428Y-108044880D01*
X123566666Y-108092500D01*
X123614285Y-108140119D01*
X123661904Y-108235357D01*
X123661904Y-108282976D01*
X123614285Y-108378214D01*
X123566666Y-108425833D01*
X123471428Y-108473452D01*
X123280952Y-108473452D01*
X123185714Y-108521071D01*
X123138095Y-108568690D01*
X123090476Y-108663928D01*
X123090476Y-108854404D01*
X123138095Y-108949642D01*
X123185714Y-108997261D01*
X123280952Y-109044880D01*
X123471428Y-109044880D01*
X123566666Y-108997261D01*
X123614285Y-108949642D01*
X123661904Y-108854404D01*
X123661904Y-108663928D01*
X123614285Y-108568690D01*
X123566666Y-108521071D01*
X123471428Y-108473452D01*
G04 #@! TO.C,C36*
X105127142Y-115072857D02*
X105174761Y-115120476D01*
X105222380Y-115263333D01*
X105222380Y-115358571D01*
X105174761Y-115501428D01*
X105079523Y-115596666D01*
X104984285Y-115644285D01*
X104793809Y-115691904D01*
X104650952Y-115691904D01*
X104460476Y-115644285D01*
X104365238Y-115596666D01*
X104270000Y-115501428D01*
X104222380Y-115358571D01*
X104222380Y-115263333D01*
X104270000Y-115120476D01*
X104317619Y-115072857D01*
X104222380Y-114739523D02*
X104222380Y-114120476D01*
X104603333Y-114453809D01*
X104603333Y-114310952D01*
X104650952Y-114215714D01*
X104698571Y-114168095D01*
X104793809Y-114120476D01*
X105031904Y-114120476D01*
X105127142Y-114168095D01*
X105174761Y-114215714D01*
X105222380Y-114310952D01*
X105222380Y-114596666D01*
X105174761Y-114691904D01*
X105127142Y-114739523D01*
X104222380Y-113263333D02*
X104222380Y-113453809D01*
X104270000Y-113549047D01*
X104317619Y-113596666D01*
X104460476Y-113691904D01*
X104650952Y-113739523D01*
X105031904Y-113739523D01*
X105127142Y-113691904D01*
X105174761Y-113644285D01*
X105222380Y-113549047D01*
X105222380Y-113358571D01*
X105174761Y-113263333D01*
X105127142Y-113215714D01*
X105031904Y-113168095D01*
X104793809Y-113168095D01*
X104698571Y-113215714D01*
X104650952Y-113263333D01*
X104603333Y-113358571D01*
X104603333Y-113549047D01*
X104650952Y-113644285D01*
X104698571Y-113691904D01*
X104793809Y-113739523D01*
G04 #@! TO.C,C28*
X105127142Y-111562857D02*
X105174761Y-111610476D01*
X105222380Y-111753333D01*
X105222380Y-111848571D01*
X105174761Y-111991428D01*
X105079523Y-112086666D01*
X104984285Y-112134285D01*
X104793809Y-112181904D01*
X104650952Y-112181904D01*
X104460476Y-112134285D01*
X104365238Y-112086666D01*
X104270000Y-111991428D01*
X104222380Y-111848571D01*
X104222380Y-111753333D01*
X104270000Y-111610476D01*
X104317619Y-111562857D01*
X104317619Y-111181904D02*
X104270000Y-111134285D01*
X104222380Y-111039047D01*
X104222380Y-110800952D01*
X104270000Y-110705714D01*
X104317619Y-110658095D01*
X104412857Y-110610476D01*
X104508095Y-110610476D01*
X104650952Y-110658095D01*
X105222380Y-111229523D01*
X105222380Y-110610476D01*
X104650952Y-110039047D02*
X104603333Y-110134285D01*
X104555714Y-110181904D01*
X104460476Y-110229523D01*
X104412857Y-110229523D01*
X104317619Y-110181904D01*
X104270000Y-110134285D01*
X104222380Y-110039047D01*
X104222380Y-109848571D01*
X104270000Y-109753333D01*
X104317619Y-109705714D01*
X104412857Y-109658095D01*
X104460476Y-109658095D01*
X104555714Y-109705714D01*
X104603333Y-109753333D01*
X104650952Y-109848571D01*
X104650952Y-110039047D01*
X104698571Y-110134285D01*
X104746190Y-110181904D01*
X104841428Y-110229523D01*
X105031904Y-110229523D01*
X105127142Y-110181904D01*
X105174761Y-110134285D01*
X105222380Y-110039047D01*
X105222380Y-109848571D01*
X105174761Y-109753333D01*
X105127142Y-109705714D01*
X105031904Y-109658095D01*
X104841428Y-109658095D01*
X104746190Y-109705714D01*
X104698571Y-109753333D01*
X104650952Y-109848571D01*
G04 #@! TO.C,C27*
X105127142Y-118582857D02*
X105174761Y-118630476D01*
X105222380Y-118773333D01*
X105222380Y-118868571D01*
X105174761Y-119011428D01*
X105079523Y-119106666D01*
X104984285Y-119154285D01*
X104793809Y-119201904D01*
X104650952Y-119201904D01*
X104460476Y-119154285D01*
X104365238Y-119106666D01*
X104270000Y-119011428D01*
X104222380Y-118868571D01*
X104222380Y-118773333D01*
X104270000Y-118630476D01*
X104317619Y-118582857D01*
X104317619Y-118201904D02*
X104270000Y-118154285D01*
X104222380Y-118059047D01*
X104222380Y-117820952D01*
X104270000Y-117725714D01*
X104317619Y-117678095D01*
X104412857Y-117630476D01*
X104508095Y-117630476D01*
X104650952Y-117678095D01*
X105222380Y-118249523D01*
X105222380Y-117630476D01*
X104222380Y-117297142D02*
X104222380Y-116630476D01*
X105222380Y-117059047D01*
G04 #@! TO.C,C24*
X121757142Y-110722142D02*
X121709523Y-110769761D01*
X121566666Y-110817380D01*
X121471428Y-110817380D01*
X121328571Y-110769761D01*
X121233333Y-110674523D01*
X121185714Y-110579285D01*
X121138095Y-110388809D01*
X121138095Y-110245952D01*
X121185714Y-110055476D01*
X121233333Y-109960238D01*
X121328571Y-109865000D01*
X121471428Y-109817380D01*
X121566666Y-109817380D01*
X121709523Y-109865000D01*
X121757142Y-109912619D01*
X122138095Y-109912619D02*
X122185714Y-109865000D01*
X122280952Y-109817380D01*
X122519047Y-109817380D01*
X122614285Y-109865000D01*
X122661904Y-109912619D01*
X122709523Y-110007857D01*
X122709523Y-110103095D01*
X122661904Y-110245952D01*
X122090476Y-110817380D01*
X122709523Y-110817380D01*
X123566666Y-110150714D02*
X123566666Y-110817380D01*
X123328571Y-109769761D02*
X123090476Y-110484047D01*
X123709523Y-110484047D01*
G04 #@! TO.C,C33*
X184927142Y-109999142D02*
X184879523Y-110046761D01*
X184736666Y-110094380D01*
X184641428Y-110094380D01*
X184498571Y-110046761D01*
X184403333Y-109951523D01*
X184355714Y-109856285D01*
X184308095Y-109665809D01*
X184308095Y-109522952D01*
X184355714Y-109332476D01*
X184403333Y-109237238D01*
X184498571Y-109142000D01*
X184641428Y-109094380D01*
X184736666Y-109094380D01*
X184879523Y-109142000D01*
X184927142Y-109189619D01*
X185260476Y-109094380D02*
X185879523Y-109094380D01*
X185546190Y-109475333D01*
X185689047Y-109475333D01*
X185784285Y-109522952D01*
X185831904Y-109570571D01*
X185879523Y-109665809D01*
X185879523Y-109903904D01*
X185831904Y-109999142D01*
X185784285Y-110046761D01*
X185689047Y-110094380D01*
X185403333Y-110094380D01*
X185308095Y-110046761D01*
X185260476Y-109999142D01*
X186212857Y-109094380D02*
X186831904Y-109094380D01*
X186498571Y-109475333D01*
X186641428Y-109475333D01*
X186736666Y-109522952D01*
X186784285Y-109570571D01*
X186831904Y-109665809D01*
X186831904Y-109903904D01*
X186784285Y-109999142D01*
X186736666Y-110046761D01*
X186641428Y-110094380D01*
X186355714Y-110094380D01*
X186260476Y-110046761D01*
X186212857Y-109999142D01*
G04 #@! TO.C,C35*
X121757142Y-114267142D02*
X121709523Y-114314761D01*
X121566666Y-114362380D01*
X121471428Y-114362380D01*
X121328571Y-114314761D01*
X121233333Y-114219523D01*
X121185714Y-114124285D01*
X121138095Y-113933809D01*
X121138095Y-113790952D01*
X121185714Y-113600476D01*
X121233333Y-113505238D01*
X121328571Y-113410000D01*
X121471428Y-113362380D01*
X121566666Y-113362380D01*
X121709523Y-113410000D01*
X121757142Y-113457619D01*
X122090476Y-113362380D02*
X122709523Y-113362380D01*
X122376190Y-113743333D01*
X122519047Y-113743333D01*
X122614285Y-113790952D01*
X122661904Y-113838571D01*
X122709523Y-113933809D01*
X122709523Y-114171904D01*
X122661904Y-114267142D01*
X122614285Y-114314761D01*
X122519047Y-114362380D01*
X122233333Y-114362380D01*
X122138095Y-114314761D01*
X122090476Y-114267142D01*
X123614285Y-113362380D02*
X123138095Y-113362380D01*
X123090476Y-113838571D01*
X123138095Y-113790952D01*
X123233333Y-113743333D01*
X123471428Y-113743333D01*
X123566666Y-113790952D01*
X123614285Y-113838571D01*
X123661904Y-113933809D01*
X123661904Y-114171904D01*
X123614285Y-114267142D01*
X123566666Y-114314761D01*
X123471428Y-114362380D01*
X123233333Y-114362380D01*
X123138095Y-114314761D01*
X123090476Y-114267142D01*
G04 #@! TO.C,C25*
X121757142Y-107177142D02*
X121709523Y-107224761D01*
X121566666Y-107272380D01*
X121471428Y-107272380D01*
X121328571Y-107224761D01*
X121233333Y-107129523D01*
X121185714Y-107034285D01*
X121138095Y-106843809D01*
X121138095Y-106700952D01*
X121185714Y-106510476D01*
X121233333Y-106415238D01*
X121328571Y-106320000D01*
X121471428Y-106272380D01*
X121566666Y-106272380D01*
X121709523Y-106320000D01*
X121757142Y-106367619D01*
X122138095Y-106367619D02*
X122185714Y-106320000D01*
X122280952Y-106272380D01*
X122519047Y-106272380D01*
X122614285Y-106320000D01*
X122661904Y-106367619D01*
X122709523Y-106462857D01*
X122709523Y-106558095D01*
X122661904Y-106700952D01*
X122090476Y-107272380D01*
X122709523Y-107272380D01*
X123614285Y-106272380D02*
X123138095Y-106272380D01*
X123090476Y-106748571D01*
X123138095Y-106700952D01*
X123233333Y-106653333D01*
X123471428Y-106653333D01*
X123566666Y-106700952D01*
X123614285Y-106748571D01*
X123661904Y-106843809D01*
X123661904Y-107081904D01*
X123614285Y-107177142D01*
X123566666Y-107224761D01*
X123471428Y-107272380D01*
X123233333Y-107272380D01*
X123138095Y-107224761D01*
X123090476Y-107177142D01*
G04 #@! TO.C,L6*
X103443333Y-113742380D02*
X102967142Y-113742380D01*
X102967142Y-112742380D01*
X104205238Y-112742380D02*
X104014761Y-112742380D01*
X103919523Y-112790000D01*
X103871904Y-112837619D01*
X103776666Y-112980476D01*
X103729047Y-113170952D01*
X103729047Y-113551904D01*
X103776666Y-113647142D01*
X103824285Y-113694761D01*
X103919523Y-113742380D01*
X104110000Y-113742380D01*
X104205238Y-113694761D01*
X104252857Y-113647142D01*
X104300476Y-113551904D01*
X104300476Y-113313809D01*
X104252857Y-113218571D01*
X104205238Y-113170952D01*
X104110000Y-113123333D01*
X103919523Y-113123333D01*
X103824285Y-113170952D01*
X103776666Y-113218571D01*
X103729047Y-113313809D01*
G04 #@! TO.C,L5*
X103443333Y-110232380D02*
X102967142Y-110232380D01*
X102967142Y-109232380D01*
X104252857Y-109232380D02*
X103776666Y-109232380D01*
X103729047Y-109708571D01*
X103776666Y-109660952D01*
X103871904Y-109613333D01*
X104110000Y-109613333D01*
X104205238Y-109660952D01*
X104252857Y-109708571D01*
X104300476Y-109803809D01*
X104300476Y-110041904D01*
X104252857Y-110137142D01*
X104205238Y-110184761D01*
X104110000Y-110232380D01*
X103871904Y-110232380D01*
X103776666Y-110184761D01*
X103729047Y-110137142D01*
G04 #@! TO.C,L4*
X103443333Y-117252380D02*
X102967142Y-117252380D01*
X102967142Y-116252380D01*
X104205238Y-116585714D02*
X104205238Y-117252380D01*
X103967142Y-116204761D02*
X103729047Y-116919047D01*
X104348095Y-116919047D01*
G04 #@! TO.C,L3*
X173153333Y-112672380D02*
X172677142Y-112672380D01*
X172677142Y-111672380D01*
X173391428Y-111672380D02*
X174010476Y-111672380D01*
X173677142Y-112053333D01*
X173820000Y-112053333D01*
X173915238Y-112100952D01*
X173962857Y-112148571D01*
X174010476Y-112243809D01*
X174010476Y-112481904D01*
X173962857Y-112577142D01*
X173915238Y-112624761D01*
X173820000Y-112672380D01*
X173534285Y-112672380D01*
X173439047Y-112624761D01*
X173391428Y-112577142D01*
G04 #@! TO.C,L1*
X173153333Y-116122380D02*
X172677142Y-116122380D01*
X172677142Y-115122380D01*
X174010476Y-116122380D02*
X173439047Y-116122380D01*
X173724761Y-116122380D02*
X173724761Y-115122380D01*
X173629523Y-115265238D01*
X173534285Y-115360476D01*
X173439047Y-115408095D01*
G04 #@! TO.C,L2*
X173153333Y-109172380D02*
X172677142Y-109172380D01*
X172677142Y-108172380D01*
X173439047Y-108267619D02*
X173486666Y-108220000D01*
X173581904Y-108172380D01*
X173820000Y-108172380D01*
X173915238Y-108220000D01*
X173962857Y-108267619D01*
X174010476Y-108362857D01*
X174010476Y-108458095D01*
X173962857Y-108600952D01*
X173391428Y-109172380D01*
X174010476Y-109172380D01*
G04 #@! TO.C,U3*
X127398095Y-107302380D02*
X127398095Y-108111904D01*
X127445714Y-108207142D01*
X127493333Y-108254761D01*
X127588571Y-108302380D01*
X127779047Y-108302380D01*
X127874285Y-108254761D01*
X127921904Y-108207142D01*
X127969523Y-108111904D01*
X127969523Y-107302380D01*
X128350476Y-107302380D02*
X128969523Y-107302380D01*
X128636190Y-107683333D01*
X128779047Y-107683333D01*
X128874285Y-107730952D01*
X128921904Y-107778571D01*
X128969523Y-107873809D01*
X128969523Y-108111904D01*
X128921904Y-108207142D01*
X128874285Y-108254761D01*
X128779047Y-108302380D01*
X128493333Y-108302380D01*
X128398095Y-108254761D01*
X128350476Y-108207142D01*
G04 #@! TO.C,U4*
X167740595Y-114638380D02*
X167740595Y-115447904D01*
X167788214Y-115543142D01*
X167835833Y-115590761D01*
X167931071Y-115638380D01*
X168121547Y-115638380D01*
X168216785Y-115590761D01*
X168264404Y-115543142D01*
X168312023Y-115447904D01*
X168312023Y-114638380D01*
X169216785Y-114971714D02*
X169216785Y-115638380D01*
X168978690Y-114590761D02*
X168740595Y-115305047D01*
X169359642Y-115305047D01*
G04 #@! TO.C,Q1*
X185094661Y-101230619D02*
X184999423Y-101183000D01*
X184904185Y-101087761D01*
X184761328Y-100944904D01*
X184666090Y-100897285D01*
X184570852Y-100897285D01*
X184618471Y-101135380D02*
X184523233Y-101087761D01*
X184427995Y-100992523D01*
X184380376Y-100802047D01*
X184380376Y-100468714D01*
X184427995Y-100278238D01*
X184523233Y-100183000D01*
X184618471Y-100135380D01*
X184808947Y-100135380D01*
X184904185Y-100183000D01*
X184999423Y-100278238D01*
X185047042Y-100468714D01*
X185047042Y-100802047D01*
X184999423Y-100992523D01*
X184904185Y-101087761D01*
X184808947Y-101135380D01*
X184618471Y-101135380D01*
X185999423Y-101135380D02*
X185427995Y-101135380D01*
X185713709Y-101135380D02*
X185713709Y-100135380D01*
X185618471Y-100278238D01*
X185523233Y-100373476D01*
X185427995Y-100421095D01*
G04 #@! TO.C,J3*
D14*
X163566666Y-123902380D02*
X163566666Y-124616666D01*
X163519047Y-124759523D01*
X163423809Y-124854761D01*
X163280952Y-124902380D01*
X163185714Y-124902380D01*
X163947619Y-123902380D02*
X164566666Y-123902380D01*
X164233333Y-124283333D01*
X164376190Y-124283333D01*
X164471428Y-124330952D01*
X164519047Y-124378571D01*
X164566666Y-124473809D01*
X164566666Y-124711904D01*
X164519047Y-124807142D01*
X164471428Y-124854761D01*
X164376190Y-124902380D01*
X164090476Y-124902380D01*
X163995238Y-124854761D01*
X163947619Y-124807142D01*
G04 #@! TO.C,R5*
D10*
X128103333Y-122626380D02*
X127770000Y-122150190D01*
X127531904Y-122626380D02*
X127531904Y-121626380D01*
X127912857Y-121626380D01*
X128008095Y-121674000D01*
X128055714Y-121721619D01*
X128103333Y-121816857D01*
X128103333Y-121959714D01*
X128055714Y-122054952D01*
X128008095Y-122102571D01*
X127912857Y-122150190D01*
X127531904Y-122150190D01*
X129008095Y-121626380D02*
X128531904Y-121626380D01*
X128484285Y-122102571D01*
X128531904Y-122054952D01*
X128627142Y-122007333D01*
X128865238Y-122007333D01*
X128960476Y-122054952D01*
X129008095Y-122102571D01*
X129055714Y-122197809D01*
X129055714Y-122435904D01*
X129008095Y-122531142D01*
X128960476Y-122578761D01*
X128865238Y-122626380D01*
X128627142Y-122626380D01*
X128531904Y-122578761D01*
X128484285Y-122531142D01*
G04 #@! TO.C,R4*
X128146332Y-121299381D02*
X127812999Y-120823191D01*
X127574903Y-121299381D02*
X127574903Y-120299381D01*
X127955856Y-120299381D01*
X128051094Y-120347001D01*
X128098713Y-120394620D01*
X128146332Y-120489858D01*
X128146332Y-120632715D01*
X128098713Y-120727953D01*
X128051094Y-120775572D01*
X127955856Y-120823191D01*
X127574903Y-120823191D01*
X129003475Y-120632715D02*
X129003475Y-121299381D01*
X128765379Y-120251762D02*
X128527284Y-120966048D01*
X129146332Y-120966048D01*
G04 #@! TO.C,R3*
X128146332Y-119687631D02*
X127812999Y-119211441D01*
X127574903Y-119687631D02*
X127574903Y-118687631D01*
X127955856Y-118687631D01*
X128051094Y-118735251D01*
X128098713Y-118782870D01*
X128146332Y-118878108D01*
X128146332Y-119020965D01*
X128098713Y-119116203D01*
X128051094Y-119163822D01*
X127955856Y-119211441D01*
X127574903Y-119211441D01*
X128479665Y-118687631D02*
X129098713Y-118687631D01*
X128765379Y-119068584D01*
X128908237Y-119068584D01*
X129003475Y-119116203D01*
X129051094Y-119163822D01*
X129098713Y-119259060D01*
X129098713Y-119497155D01*
X129051094Y-119592393D01*
X129003475Y-119640012D01*
X128908237Y-119687631D01*
X128622522Y-119687631D01*
X128527284Y-119640012D01*
X128479665Y-119592393D01*
G04 #@! TO.C,R2*
X128146332Y-118075881D02*
X127812999Y-117599691D01*
X127574903Y-118075881D02*
X127574903Y-117075881D01*
X127955856Y-117075881D01*
X128051094Y-117123501D01*
X128098713Y-117171120D01*
X128146332Y-117266358D01*
X128146332Y-117409215D01*
X128098713Y-117504453D01*
X128051094Y-117552072D01*
X127955856Y-117599691D01*
X127574903Y-117599691D01*
X128527284Y-117171120D02*
X128574903Y-117123501D01*
X128670141Y-117075881D01*
X128908237Y-117075881D01*
X129003475Y-117123501D01*
X129051094Y-117171120D01*
X129098713Y-117266358D01*
X129098713Y-117361596D01*
X129051094Y-117504453D01*
X128479665Y-118075881D01*
X129098713Y-118075881D01*
G04 #@! TO.C,R1*
X128146332Y-116464131D02*
X127812999Y-115987941D01*
X127574903Y-116464131D02*
X127574903Y-115464131D01*
X127955856Y-115464131D01*
X128051094Y-115511751D01*
X128098713Y-115559370D01*
X128146332Y-115654608D01*
X128146332Y-115797465D01*
X128098713Y-115892703D01*
X128051094Y-115940322D01*
X127955856Y-115987941D01*
X127574903Y-115987941D01*
X129098713Y-116464131D02*
X128527284Y-116464131D01*
X128812999Y-116464131D02*
X128812999Y-115464131D01*
X128717760Y-115606989D01*
X128622522Y-115702227D01*
X128527284Y-115749846D01*
G04 #@! TO.C,IC3*
X180930380Y-122641190D02*
X179930380Y-122641190D01*
X180835142Y-121593571D02*
X180882761Y-121641190D01*
X180930380Y-121784047D01*
X180930380Y-121879285D01*
X180882761Y-122022142D01*
X180787523Y-122117380D01*
X180692285Y-122165000D01*
X180501809Y-122212619D01*
X180358952Y-122212619D01*
X180168476Y-122165000D01*
X180073238Y-122117380D01*
X179978000Y-122022142D01*
X179930380Y-121879285D01*
X179930380Y-121784047D01*
X179978000Y-121641190D01*
X180025619Y-121593571D01*
X179930380Y-121260238D02*
X179930380Y-120641190D01*
X180311333Y-120974523D01*
X180311333Y-120831666D01*
X180358952Y-120736428D01*
X180406571Y-120688809D01*
X180501809Y-120641190D01*
X180739904Y-120641190D01*
X180835142Y-120688809D01*
X180882761Y-120736428D01*
X180930380Y-120831666D01*
X180930380Y-121117380D01*
X180882761Y-121212619D01*
X180835142Y-121260238D01*
G04 #@! TO.C,C4*
X108113142Y-122390666D02*
X108160761Y-122438285D01*
X108208380Y-122581142D01*
X108208380Y-122676380D01*
X108160761Y-122819238D01*
X108065523Y-122914476D01*
X107970285Y-122962095D01*
X107779809Y-123009714D01*
X107636952Y-123009714D01*
X107446476Y-122962095D01*
X107351238Y-122914476D01*
X107256000Y-122819238D01*
X107208380Y-122676380D01*
X107208380Y-122581142D01*
X107256000Y-122438285D01*
X107303619Y-122390666D01*
X107541714Y-121533523D02*
X108208380Y-121533523D01*
X107160761Y-121771619D02*
X107875047Y-122009714D01*
X107875047Y-121390666D01*
G04 #@! TO.C,C5*
X109424939Y-104206946D02*
X109472558Y-104254565D01*
X109520177Y-104397422D01*
X109520177Y-104492660D01*
X109472558Y-104635518D01*
X109377320Y-104730756D01*
X109282082Y-104778375D01*
X109091606Y-104825994D01*
X108948749Y-104825994D01*
X108758273Y-104778375D01*
X108663035Y-104730756D01*
X108567797Y-104635518D01*
X108520177Y-104492660D01*
X108520177Y-104397422D01*
X108567797Y-104254565D01*
X108615416Y-104206946D01*
X108520177Y-103302184D02*
X108520177Y-103778375D01*
X108996368Y-103825994D01*
X108948749Y-103778375D01*
X108901130Y-103683137D01*
X108901130Y-103445041D01*
X108948749Y-103349803D01*
X108996368Y-103302184D01*
X109091606Y-103254565D01*
X109329701Y-103254565D01*
X109424939Y-103302184D01*
X109472558Y-103349803D01*
X109520177Y-103445041D01*
X109520177Y-103683137D01*
X109472558Y-103778375D01*
X109424939Y-103825994D01*
G04 #@! TO.C,C6*
X178885142Y-122106666D02*
X178932761Y-122154285D01*
X178980380Y-122297142D01*
X178980380Y-122392380D01*
X178932761Y-122535238D01*
X178837523Y-122630476D01*
X178742285Y-122678095D01*
X178551809Y-122725714D01*
X178408952Y-122725714D01*
X178218476Y-122678095D01*
X178123238Y-122630476D01*
X178028000Y-122535238D01*
X177980380Y-122392380D01*
X177980380Y-122297142D01*
X178028000Y-122154285D01*
X178075619Y-122106666D01*
X177980380Y-121249523D02*
X177980380Y-121440000D01*
X178028000Y-121535238D01*
X178075619Y-121582857D01*
X178218476Y-121678095D01*
X178408952Y-121725714D01*
X178789904Y-121725714D01*
X178885142Y-121678095D01*
X178932761Y-121630476D01*
X178980380Y-121535238D01*
X178980380Y-121344761D01*
X178932761Y-121249523D01*
X178885142Y-121201904D01*
X178789904Y-121154285D01*
X178551809Y-121154285D01*
X178456571Y-121201904D01*
X178408952Y-121249523D01*
X178361333Y-121344761D01*
X178361333Y-121535238D01*
X178408952Y-121630476D01*
X178456571Y-121678095D01*
X178551809Y-121725714D01*
G04 #@! TO.C,C2*
X121191142Y-104060666D02*
X121238761Y-104108285D01*
X121286380Y-104251142D01*
X121286380Y-104346380D01*
X121238761Y-104489238D01*
X121143523Y-104584476D01*
X121048285Y-104632095D01*
X120857809Y-104679714D01*
X120714952Y-104679714D01*
X120524476Y-104632095D01*
X120429238Y-104584476D01*
X120334000Y-104489238D01*
X120286380Y-104346380D01*
X120286380Y-104251142D01*
X120334000Y-104108285D01*
X120381619Y-104060666D01*
X120381619Y-103679714D02*
X120334000Y-103632095D01*
X120286380Y-103536857D01*
X120286380Y-103298761D01*
X120334000Y-103203523D01*
X120381619Y-103155904D01*
X120476857Y-103108285D01*
X120572095Y-103108285D01*
X120714952Y-103155904D01*
X121286380Y-103727333D01*
X121286380Y-103108285D01*
G04 #@! TO.C,C1*
X119853142Y-122240666D02*
X119900761Y-122288285D01*
X119948380Y-122431142D01*
X119948380Y-122526380D01*
X119900761Y-122669238D01*
X119805523Y-122764476D01*
X119710285Y-122812095D01*
X119519809Y-122859714D01*
X119376952Y-122859714D01*
X119186476Y-122812095D01*
X119091238Y-122764476D01*
X118996000Y-122669238D01*
X118948380Y-122526380D01*
X118948380Y-122431142D01*
X118996000Y-122288285D01*
X119043619Y-122240666D01*
X119948380Y-121288285D02*
X119948380Y-121859714D01*
X119948380Y-121574000D02*
X118948380Y-121574000D01*
X119091238Y-121669238D01*
X119186476Y-121764476D01*
X119234095Y-121859714D01*
G04 #@! TO.C,C3*
X186395142Y-121756666D02*
X186442761Y-121804285D01*
X186490380Y-121947142D01*
X186490380Y-122042380D01*
X186442761Y-122185238D01*
X186347523Y-122280476D01*
X186252285Y-122328095D01*
X186061809Y-122375714D01*
X185918952Y-122375714D01*
X185728476Y-122328095D01*
X185633238Y-122280476D01*
X185538000Y-122185238D01*
X185490380Y-122042380D01*
X185490380Y-121947142D01*
X185538000Y-121804285D01*
X185585619Y-121756666D01*
X185490380Y-121423333D02*
X185490380Y-120804285D01*
X185871333Y-121137619D01*
X185871333Y-120994761D01*
X185918952Y-120899523D01*
X185966571Y-120851904D01*
X186061809Y-120804285D01*
X186299904Y-120804285D01*
X186395142Y-120851904D01*
X186442761Y-120899523D01*
X186490380Y-120994761D01*
X186490380Y-121280476D01*
X186442761Y-121375714D01*
X186395142Y-121423333D01*
G04 #@! TO.C,Y1*
X184996309Y-116112190D02*
X184996309Y-116588380D01*
X184662976Y-115588380D02*
X184996309Y-116112190D01*
X185329642Y-115588380D01*
X186186785Y-116588380D02*
X185615357Y-116588380D01*
X185901071Y-116588380D02*
X185901071Y-115588380D01*
X185805833Y-115731238D01*
X185710595Y-115826476D01*
X185615357Y-115874095D01*
G04 #@! TO.C,IC1*
X110908380Y-122925190D02*
X109908380Y-122925190D01*
X110813142Y-121877571D02*
X110860761Y-121925190D01*
X110908380Y-122068047D01*
X110908380Y-122163285D01*
X110860761Y-122306142D01*
X110765523Y-122401380D01*
X110670285Y-122449000D01*
X110479809Y-122496619D01*
X110336952Y-122496619D01*
X110146476Y-122449000D01*
X110051238Y-122401380D01*
X109956000Y-122306142D01*
X109908380Y-122163285D01*
X109908380Y-122068047D01*
X109956000Y-121925190D01*
X110003619Y-121877571D01*
X110908380Y-120925190D02*
X110908380Y-121496619D01*
X110908380Y-121210904D02*
X109908380Y-121210904D01*
X110051238Y-121306142D01*
X110146476Y-121401380D01*
X110194095Y-121496619D01*
G04 #@! TD*
M02*
