G04 #@! TF.GenerationSoftware,KiCad,Pcbnew,5.0.2+dfsg1-1~bpo9+1*
G04 #@! TF.CreationDate,2019-09-20T17:36:01+02:00*
G04 #@! TF.ProjectId,OV9281,4f563932-3831-42e6-9b69-6361645f7063,rev?*
G04 #@! TF.SameCoordinates,Original*
G04 #@! TF.FileFunction,Soldermask,Bot*
G04 #@! TF.FilePolarity,Negative*
%FSLAX46Y46*%
G04 Gerber Fmt 4.6, Leading zero omitted, Abs format (unit mm)*
G04 Created by KiCad (PCBNEW 5.0.2+dfsg1-1~bpo9+1) date Fri 20 Sep 2019 05:36:01 PM CEST*
%MOMM*%
%LPD*%
G01*
G04 APERTURE LIST*
%ADD10C,0.100000*%
G04 APERTURE END LIST*
D10*
G36*
X116994684Y-114083835D02*
X117006235Y-114105446D01*
X117021780Y-114124388D01*
X117040722Y-114139933D01*
X117062330Y-114151483D01*
X117064025Y-114152185D01*
X117088757Y-114168710D01*
X117109790Y-114189743D01*
X117126315Y-114214475D01*
X117137698Y-114241955D01*
X117143500Y-114271128D01*
X117143500Y-114300872D01*
X117137698Y-114330045D01*
X117126315Y-114357525D01*
X117109790Y-114382257D01*
X117088757Y-114403290D01*
X117064025Y-114419815D01*
X117036545Y-114431198D01*
X117007372Y-114437000D01*
X116977628Y-114437000D01*
X116948455Y-114431198D01*
X116920975Y-114419815D01*
X116896243Y-114403290D01*
X116875210Y-114382257D01*
X116858685Y-114357525D01*
X116847302Y-114330045D01*
X116841500Y-114300872D01*
X116841500Y-114271128D01*
X116847302Y-114241955D01*
X116858685Y-114214475D01*
X116875210Y-114189743D01*
X116896243Y-114168710D01*
X116920975Y-114152185D01*
X116922670Y-114151483D01*
X116944277Y-114139934D01*
X116963219Y-114124389D01*
X116978764Y-114105447D01*
X116990316Y-114083836D01*
X116992500Y-114076635D01*
X116994684Y-114083835D01*
X116994684Y-114083835D01*
G37*
G36*
X186994684Y-114083835D02*
X187006235Y-114105446D01*
X187021780Y-114124388D01*
X187040722Y-114139933D01*
X187062330Y-114151483D01*
X187064025Y-114152185D01*
X187088757Y-114168710D01*
X187109790Y-114189743D01*
X187126315Y-114214475D01*
X187137698Y-114241955D01*
X187143500Y-114271128D01*
X187143500Y-114300872D01*
X187137698Y-114330045D01*
X187126315Y-114357525D01*
X187109790Y-114382257D01*
X187088757Y-114403290D01*
X187064025Y-114419815D01*
X187036545Y-114431198D01*
X187007372Y-114437000D01*
X186977628Y-114437000D01*
X186948455Y-114431198D01*
X186920975Y-114419815D01*
X186896243Y-114403290D01*
X186875210Y-114382257D01*
X186858685Y-114357525D01*
X186847302Y-114330045D01*
X186841500Y-114300872D01*
X186841500Y-114271128D01*
X186847302Y-114241955D01*
X186858685Y-114214475D01*
X186875210Y-114189743D01*
X186896243Y-114168710D01*
X186920975Y-114152185D01*
X186922670Y-114151483D01*
X186944277Y-114139934D01*
X186963219Y-114124389D01*
X186978764Y-114105447D01*
X186990316Y-114083836D01*
X186992500Y-114076635D01*
X186994684Y-114083835D01*
X186994684Y-114083835D01*
G37*
G36*
X182514684Y-114083835D02*
X182526235Y-114105446D01*
X182541780Y-114124388D01*
X182560722Y-114139933D01*
X182582330Y-114151483D01*
X182584025Y-114152185D01*
X182608757Y-114168710D01*
X182629790Y-114189743D01*
X182646315Y-114214475D01*
X182657698Y-114241955D01*
X182663500Y-114271128D01*
X182663500Y-114300872D01*
X182657698Y-114330045D01*
X182646315Y-114357525D01*
X182629790Y-114382257D01*
X182608757Y-114403290D01*
X182584025Y-114419815D01*
X182556545Y-114431198D01*
X182527372Y-114437000D01*
X182497628Y-114437000D01*
X182468455Y-114431198D01*
X182440975Y-114419815D01*
X182416243Y-114403290D01*
X182395210Y-114382257D01*
X182378685Y-114357525D01*
X182367302Y-114330045D01*
X182361500Y-114300872D01*
X182361500Y-114271128D01*
X182367302Y-114241955D01*
X182378685Y-114214475D01*
X182395210Y-114189743D01*
X182416243Y-114168710D01*
X182440975Y-114152185D01*
X182442670Y-114151483D01*
X182464277Y-114139934D01*
X182483219Y-114124389D01*
X182498764Y-114105447D01*
X182510316Y-114083836D01*
X182512500Y-114076635D01*
X182514684Y-114083835D01*
X182514684Y-114083835D01*
G37*
G36*
X183154684Y-114083835D02*
X183166235Y-114105446D01*
X183181780Y-114124388D01*
X183200722Y-114139933D01*
X183222330Y-114151483D01*
X183224025Y-114152185D01*
X183248757Y-114168710D01*
X183269790Y-114189743D01*
X183286315Y-114214475D01*
X183297698Y-114241955D01*
X183303500Y-114271128D01*
X183303500Y-114300872D01*
X183297698Y-114330045D01*
X183286315Y-114357525D01*
X183269790Y-114382257D01*
X183248757Y-114403290D01*
X183224025Y-114419815D01*
X183196545Y-114431198D01*
X183167372Y-114437000D01*
X183137628Y-114437000D01*
X183108455Y-114431198D01*
X183080975Y-114419815D01*
X183056243Y-114403290D01*
X183035210Y-114382257D01*
X183018685Y-114357525D01*
X183007302Y-114330045D01*
X183001500Y-114300872D01*
X183001500Y-114271128D01*
X183007302Y-114241955D01*
X183018685Y-114214475D01*
X183035210Y-114189743D01*
X183056243Y-114168710D01*
X183080975Y-114152185D01*
X183082670Y-114151483D01*
X183104277Y-114139934D01*
X183123219Y-114124389D01*
X183138764Y-114105447D01*
X183150316Y-114083836D01*
X183152500Y-114076635D01*
X183154684Y-114083835D01*
X183154684Y-114083835D01*
G37*
G36*
X183794684Y-114083835D02*
X183806235Y-114105446D01*
X183821780Y-114124388D01*
X183840722Y-114139933D01*
X183862330Y-114151483D01*
X183864025Y-114152185D01*
X183888757Y-114168710D01*
X183909790Y-114189743D01*
X183926315Y-114214475D01*
X183937698Y-114241955D01*
X183943500Y-114271128D01*
X183943500Y-114300872D01*
X183937698Y-114330045D01*
X183926315Y-114357525D01*
X183909790Y-114382257D01*
X183888757Y-114403290D01*
X183864025Y-114419815D01*
X183836545Y-114431198D01*
X183807372Y-114437000D01*
X183777628Y-114437000D01*
X183748455Y-114431198D01*
X183720975Y-114419815D01*
X183696243Y-114403290D01*
X183675210Y-114382257D01*
X183658685Y-114357525D01*
X183647302Y-114330045D01*
X183641500Y-114300872D01*
X183641500Y-114271128D01*
X183647302Y-114241955D01*
X183658685Y-114214475D01*
X183675210Y-114189743D01*
X183696243Y-114168710D01*
X183720975Y-114152185D01*
X183722670Y-114151483D01*
X183744277Y-114139934D01*
X183763219Y-114124389D01*
X183778764Y-114105447D01*
X183790316Y-114083836D01*
X183792500Y-114076635D01*
X183794684Y-114083835D01*
X183794684Y-114083835D01*
G37*
G36*
X184434684Y-114083835D02*
X184446235Y-114105446D01*
X184461780Y-114124388D01*
X184480722Y-114139933D01*
X184502330Y-114151483D01*
X184504025Y-114152185D01*
X184528757Y-114168710D01*
X184549790Y-114189743D01*
X184566315Y-114214475D01*
X184577698Y-114241955D01*
X184583500Y-114271128D01*
X184583500Y-114300872D01*
X184577698Y-114330045D01*
X184566315Y-114357525D01*
X184549790Y-114382257D01*
X184528757Y-114403290D01*
X184504025Y-114419815D01*
X184476545Y-114431198D01*
X184447372Y-114437000D01*
X184417628Y-114437000D01*
X184388455Y-114431198D01*
X184360975Y-114419815D01*
X184336243Y-114403290D01*
X184315210Y-114382257D01*
X184298685Y-114357525D01*
X184287302Y-114330045D01*
X184281500Y-114300872D01*
X184281500Y-114271128D01*
X184287302Y-114241955D01*
X184298685Y-114214475D01*
X184315210Y-114189743D01*
X184336243Y-114168710D01*
X184360975Y-114152185D01*
X184362670Y-114151483D01*
X184384277Y-114139934D01*
X184403219Y-114124389D01*
X184418764Y-114105447D01*
X184430316Y-114083836D01*
X184432500Y-114076635D01*
X184434684Y-114083835D01*
X184434684Y-114083835D01*
G37*
G36*
X185074684Y-114083835D02*
X185086235Y-114105446D01*
X185101780Y-114124388D01*
X185120722Y-114139933D01*
X185142330Y-114151483D01*
X185144025Y-114152185D01*
X185168757Y-114168710D01*
X185189790Y-114189743D01*
X185206315Y-114214475D01*
X185217698Y-114241955D01*
X185223500Y-114271128D01*
X185223500Y-114300872D01*
X185217698Y-114330045D01*
X185206315Y-114357525D01*
X185189790Y-114382257D01*
X185168757Y-114403290D01*
X185144025Y-114419815D01*
X185116545Y-114431198D01*
X185087372Y-114437000D01*
X185057628Y-114437000D01*
X185028455Y-114431198D01*
X185000975Y-114419815D01*
X184976243Y-114403290D01*
X184955210Y-114382257D01*
X184938685Y-114357525D01*
X184927302Y-114330045D01*
X184921500Y-114300872D01*
X184921500Y-114271128D01*
X184927302Y-114241955D01*
X184938685Y-114214475D01*
X184955210Y-114189743D01*
X184976243Y-114168710D01*
X185000975Y-114152185D01*
X185002670Y-114151483D01*
X185024277Y-114139934D01*
X185043219Y-114124389D01*
X185058764Y-114105447D01*
X185070316Y-114083836D01*
X185072500Y-114076635D01*
X185074684Y-114083835D01*
X185074684Y-114083835D01*
G37*
G36*
X185714684Y-114083835D02*
X185726235Y-114105446D01*
X185741780Y-114124388D01*
X185760722Y-114139933D01*
X185782330Y-114151483D01*
X185784025Y-114152185D01*
X185808757Y-114168710D01*
X185829790Y-114189743D01*
X185846315Y-114214475D01*
X185857698Y-114241955D01*
X185863500Y-114271128D01*
X185863500Y-114300872D01*
X185857698Y-114330045D01*
X185846315Y-114357525D01*
X185829790Y-114382257D01*
X185808757Y-114403290D01*
X185784025Y-114419815D01*
X185756545Y-114431198D01*
X185727372Y-114437000D01*
X185697628Y-114437000D01*
X185668455Y-114431198D01*
X185640975Y-114419815D01*
X185616243Y-114403290D01*
X185595210Y-114382257D01*
X185578685Y-114357525D01*
X185567302Y-114330045D01*
X185561500Y-114300872D01*
X185561500Y-114271128D01*
X185567302Y-114241955D01*
X185578685Y-114214475D01*
X185595210Y-114189743D01*
X185616243Y-114168710D01*
X185640975Y-114152185D01*
X185642670Y-114151483D01*
X185664277Y-114139934D01*
X185683219Y-114124389D01*
X185698764Y-114105447D01*
X185710316Y-114083836D01*
X185712500Y-114076635D01*
X185714684Y-114083835D01*
X185714684Y-114083835D01*
G37*
G36*
X186354684Y-114083835D02*
X186366235Y-114105446D01*
X186381780Y-114124388D01*
X186400722Y-114139933D01*
X186422330Y-114151483D01*
X186424025Y-114152185D01*
X186448757Y-114168710D01*
X186469790Y-114189743D01*
X186486315Y-114214475D01*
X186497698Y-114241955D01*
X186503500Y-114271128D01*
X186503500Y-114300872D01*
X186497698Y-114330045D01*
X186486315Y-114357525D01*
X186469790Y-114382257D01*
X186448757Y-114403290D01*
X186424025Y-114419815D01*
X186396545Y-114431198D01*
X186367372Y-114437000D01*
X186337628Y-114437000D01*
X186308455Y-114431198D01*
X186280975Y-114419815D01*
X186256243Y-114403290D01*
X186235210Y-114382257D01*
X186218685Y-114357525D01*
X186207302Y-114330045D01*
X186201500Y-114300872D01*
X186201500Y-114271128D01*
X186207302Y-114241955D01*
X186218685Y-114214475D01*
X186235210Y-114189743D01*
X186256243Y-114168710D01*
X186280975Y-114152185D01*
X186282670Y-114151483D01*
X186304277Y-114139934D01*
X186323219Y-114124389D01*
X186338764Y-114105447D01*
X186350316Y-114083836D01*
X186352500Y-114076635D01*
X186354684Y-114083835D01*
X186354684Y-114083835D01*
G37*
G36*
X112514684Y-114083835D02*
X112526235Y-114105446D01*
X112541780Y-114124388D01*
X112560722Y-114139933D01*
X112582330Y-114151483D01*
X112584025Y-114152185D01*
X112608757Y-114168710D01*
X112629790Y-114189743D01*
X112646315Y-114214475D01*
X112657698Y-114241955D01*
X112663500Y-114271128D01*
X112663500Y-114300872D01*
X112657698Y-114330045D01*
X112646315Y-114357525D01*
X112629790Y-114382257D01*
X112608757Y-114403290D01*
X112584025Y-114419815D01*
X112556545Y-114431198D01*
X112527372Y-114437000D01*
X112497628Y-114437000D01*
X112468455Y-114431198D01*
X112440975Y-114419815D01*
X112416243Y-114403290D01*
X112395210Y-114382257D01*
X112378685Y-114357525D01*
X112367302Y-114330045D01*
X112361500Y-114300872D01*
X112361500Y-114271128D01*
X112367302Y-114241955D01*
X112378685Y-114214475D01*
X112395210Y-114189743D01*
X112416243Y-114168710D01*
X112440975Y-114152185D01*
X112442670Y-114151483D01*
X112464277Y-114139934D01*
X112483219Y-114124389D01*
X112498764Y-114105447D01*
X112510316Y-114083836D01*
X112512500Y-114076635D01*
X112514684Y-114083835D01*
X112514684Y-114083835D01*
G37*
G36*
X113154684Y-114083835D02*
X113166235Y-114105446D01*
X113181780Y-114124388D01*
X113200722Y-114139933D01*
X113222330Y-114151483D01*
X113224025Y-114152185D01*
X113248757Y-114168710D01*
X113269790Y-114189743D01*
X113286315Y-114214475D01*
X113297698Y-114241955D01*
X113303500Y-114271128D01*
X113303500Y-114300872D01*
X113297698Y-114330045D01*
X113286315Y-114357525D01*
X113269790Y-114382257D01*
X113248757Y-114403290D01*
X113224025Y-114419815D01*
X113196545Y-114431198D01*
X113167372Y-114437000D01*
X113137628Y-114437000D01*
X113108455Y-114431198D01*
X113080975Y-114419815D01*
X113056243Y-114403290D01*
X113035210Y-114382257D01*
X113018685Y-114357525D01*
X113007302Y-114330045D01*
X113001500Y-114300872D01*
X113001500Y-114271128D01*
X113007302Y-114241955D01*
X113018685Y-114214475D01*
X113035210Y-114189743D01*
X113056243Y-114168710D01*
X113080975Y-114152185D01*
X113082670Y-114151483D01*
X113104277Y-114139934D01*
X113123219Y-114124389D01*
X113138764Y-114105447D01*
X113150316Y-114083836D01*
X113152500Y-114076635D01*
X113154684Y-114083835D01*
X113154684Y-114083835D01*
G37*
G36*
X113794684Y-114083835D02*
X113806235Y-114105446D01*
X113821780Y-114124388D01*
X113840722Y-114139933D01*
X113862330Y-114151483D01*
X113864025Y-114152185D01*
X113888757Y-114168710D01*
X113909790Y-114189743D01*
X113926315Y-114214475D01*
X113937698Y-114241955D01*
X113943500Y-114271128D01*
X113943500Y-114300872D01*
X113937698Y-114330045D01*
X113926315Y-114357525D01*
X113909790Y-114382257D01*
X113888757Y-114403290D01*
X113864025Y-114419815D01*
X113836545Y-114431198D01*
X113807372Y-114437000D01*
X113777628Y-114437000D01*
X113748455Y-114431198D01*
X113720975Y-114419815D01*
X113696243Y-114403290D01*
X113675210Y-114382257D01*
X113658685Y-114357525D01*
X113647302Y-114330045D01*
X113641500Y-114300872D01*
X113641500Y-114271128D01*
X113647302Y-114241955D01*
X113658685Y-114214475D01*
X113675210Y-114189743D01*
X113696243Y-114168710D01*
X113720975Y-114152185D01*
X113722670Y-114151483D01*
X113744277Y-114139934D01*
X113763219Y-114124389D01*
X113778764Y-114105447D01*
X113790316Y-114083836D01*
X113792500Y-114076635D01*
X113794684Y-114083835D01*
X113794684Y-114083835D01*
G37*
G36*
X114434684Y-114083835D02*
X114446235Y-114105446D01*
X114461780Y-114124388D01*
X114480722Y-114139933D01*
X114502330Y-114151483D01*
X114504025Y-114152185D01*
X114528757Y-114168710D01*
X114549790Y-114189743D01*
X114566315Y-114214475D01*
X114577698Y-114241955D01*
X114583500Y-114271128D01*
X114583500Y-114300872D01*
X114577698Y-114330045D01*
X114566315Y-114357525D01*
X114549790Y-114382257D01*
X114528757Y-114403290D01*
X114504025Y-114419815D01*
X114476545Y-114431198D01*
X114447372Y-114437000D01*
X114417628Y-114437000D01*
X114388455Y-114431198D01*
X114360975Y-114419815D01*
X114336243Y-114403290D01*
X114315210Y-114382257D01*
X114298685Y-114357525D01*
X114287302Y-114330045D01*
X114281500Y-114300872D01*
X114281500Y-114271128D01*
X114287302Y-114241955D01*
X114298685Y-114214475D01*
X114315210Y-114189743D01*
X114336243Y-114168710D01*
X114360975Y-114152185D01*
X114362670Y-114151483D01*
X114384277Y-114139934D01*
X114403219Y-114124389D01*
X114418764Y-114105447D01*
X114430316Y-114083836D01*
X114432500Y-114076635D01*
X114434684Y-114083835D01*
X114434684Y-114083835D01*
G37*
G36*
X115074684Y-114083835D02*
X115086235Y-114105446D01*
X115101780Y-114124388D01*
X115120722Y-114139933D01*
X115142330Y-114151483D01*
X115144025Y-114152185D01*
X115168757Y-114168710D01*
X115189790Y-114189743D01*
X115206315Y-114214475D01*
X115217698Y-114241955D01*
X115223500Y-114271128D01*
X115223500Y-114300872D01*
X115217698Y-114330045D01*
X115206315Y-114357525D01*
X115189790Y-114382257D01*
X115168757Y-114403290D01*
X115144025Y-114419815D01*
X115116545Y-114431198D01*
X115087372Y-114437000D01*
X115057628Y-114437000D01*
X115028455Y-114431198D01*
X115000975Y-114419815D01*
X114976243Y-114403290D01*
X114955210Y-114382257D01*
X114938685Y-114357525D01*
X114927302Y-114330045D01*
X114921500Y-114300872D01*
X114921500Y-114271128D01*
X114927302Y-114241955D01*
X114938685Y-114214475D01*
X114955210Y-114189743D01*
X114976243Y-114168710D01*
X115000975Y-114152185D01*
X115002670Y-114151483D01*
X115024277Y-114139934D01*
X115043219Y-114124389D01*
X115058764Y-114105447D01*
X115070316Y-114083836D01*
X115072500Y-114076635D01*
X115074684Y-114083835D01*
X115074684Y-114083835D01*
G37*
G36*
X115714684Y-114083835D02*
X115726235Y-114105446D01*
X115741780Y-114124388D01*
X115760722Y-114139933D01*
X115782330Y-114151483D01*
X115784025Y-114152185D01*
X115808757Y-114168710D01*
X115829790Y-114189743D01*
X115846315Y-114214475D01*
X115857698Y-114241955D01*
X115863500Y-114271128D01*
X115863500Y-114300872D01*
X115857698Y-114330045D01*
X115846315Y-114357525D01*
X115829790Y-114382257D01*
X115808757Y-114403290D01*
X115784025Y-114419815D01*
X115756545Y-114431198D01*
X115727372Y-114437000D01*
X115697628Y-114437000D01*
X115668455Y-114431198D01*
X115640975Y-114419815D01*
X115616243Y-114403290D01*
X115595210Y-114382257D01*
X115578685Y-114357525D01*
X115567302Y-114330045D01*
X115561500Y-114300872D01*
X115561500Y-114271128D01*
X115567302Y-114241955D01*
X115578685Y-114214475D01*
X115595210Y-114189743D01*
X115616243Y-114168710D01*
X115640975Y-114152185D01*
X115642670Y-114151483D01*
X115664277Y-114139934D01*
X115683219Y-114124389D01*
X115698764Y-114105447D01*
X115710316Y-114083836D01*
X115712500Y-114076635D01*
X115714684Y-114083835D01*
X115714684Y-114083835D01*
G37*
G36*
X116354684Y-114083835D02*
X116366235Y-114105446D01*
X116381780Y-114124388D01*
X116400722Y-114139933D01*
X116422330Y-114151483D01*
X116424025Y-114152185D01*
X116448757Y-114168710D01*
X116469790Y-114189743D01*
X116486315Y-114214475D01*
X116497698Y-114241955D01*
X116503500Y-114271128D01*
X116503500Y-114300872D01*
X116497698Y-114330045D01*
X116486315Y-114357525D01*
X116469790Y-114382257D01*
X116448757Y-114403290D01*
X116424025Y-114419815D01*
X116396545Y-114431198D01*
X116367372Y-114437000D01*
X116337628Y-114437000D01*
X116308455Y-114431198D01*
X116280975Y-114419815D01*
X116256243Y-114403290D01*
X116235210Y-114382257D01*
X116218685Y-114357525D01*
X116207302Y-114330045D01*
X116201500Y-114300872D01*
X116201500Y-114271128D01*
X116207302Y-114241955D01*
X116218685Y-114214475D01*
X116235210Y-114189743D01*
X116256243Y-114168710D01*
X116280975Y-114152185D01*
X116282670Y-114151483D01*
X116304277Y-114139934D01*
X116323219Y-114124389D01*
X116338764Y-114105447D01*
X116350316Y-114083836D01*
X116352500Y-114076635D01*
X116354684Y-114083835D01*
X116354684Y-114083835D01*
G37*
G36*
X185714684Y-113583835D02*
X185726235Y-113605446D01*
X185741780Y-113624388D01*
X185760722Y-113639933D01*
X185782330Y-113651483D01*
X185784025Y-113652185D01*
X185808757Y-113668710D01*
X185829790Y-113689743D01*
X185846315Y-113714475D01*
X185857698Y-113741955D01*
X185863500Y-113771128D01*
X185863500Y-113800872D01*
X185857698Y-113830045D01*
X185846315Y-113857525D01*
X185829790Y-113882257D01*
X185808757Y-113903290D01*
X185784025Y-113919815D01*
X185782330Y-113920517D01*
X185760723Y-113932066D01*
X185741781Y-113947611D01*
X185726236Y-113966553D01*
X185714684Y-113988164D01*
X185712500Y-113995365D01*
X185710316Y-113988165D01*
X185698765Y-113966554D01*
X185683220Y-113947612D01*
X185664278Y-113932067D01*
X185642670Y-113920517D01*
X185640975Y-113919815D01*
X185616243Y-113903290D01*
X185595210Y-113882257D01*
X185578685Y-113857525D01*
X185567302Y-113830045D01*
X185561500Y-113800872D01*
X185561500Y-113771128D01*
X185567302Y-113741955D01*
X185578685Y-113714475D01*
X185595210Y-113689743D01*
X185616243Y-113668710D01*
X185640975Y-113652185D01*
X185642670Y-113651483D01*
X185664277Y-113639934D01*
X185683219Y-113624389D01*
X185698764Y-113605447D01*
X185710316Y-113583836D01*
X185712500Y-113576635D01*
X185714684Y-113583835D01*
X185714684Y-113583835D01*
G37*
G36*
X114434684Y-113583835D02*
X114446235Y-113605446D01*
X114461780Y-113624388D01*
X114480722Y-113639933D01*
X114502330Y-113651483D01*
X114504025Y-113652185D01*
X114528757Y-113668710D01*
X114549790Y-113689743D01*
X114566315Y-113714475D01*
X114577698Y-113741955D01*
X114583500Y-113771128D01*
X114583500Y-113800872D01*
X114577698Y-113830045D01*
X114566315Y-113857525D01*
X114549790Y-113882257D01*
X114528757Y-113903290D01*
X114504025Y-113919815D01*
X114502330Y-113920517D01*
X114480723Y-113932066D01*
X114461781Y-113947611D01*
X114446236Y-113966553D01*
X114434684Y-113988164D01*
X114432500Y-113995365D01*
X114430316Y-113988165D01*
X114418765Y-113966554D01*
X114403220Y-113947612D01*
X114384278Y-113932067D01*
X114362670Y-113920517D01*
X114360975Y-113919815D01*
X114336243Y-113903290D01*
X114315210Y-113882257D01*
X114298685Y-113857525D01*
X114287302Y-113830045D01*
X114281500Y-113800872D01*
X114281500Y-113771128D01*
X114287302Y-113741955D01*
X114298685Y-113714475D01*
X114315210Y-113689743D01*
X114336243Y-113668710D01*
X114360975Y-113652185D01*
X114362670Y-113651483D01*
X114384277Y-113639934D01*
X114403219Y-113624389D01*
X114418764Y-113605447D01*
X114430316Y-113583836D01*
X114432500Y-113576635D01*
X114434684Y-113583835D01*
X114434684Y-113583835D01*
G37*
G36*
X115074684Y-113583835D02*
X115086235Y-113605446D01*
X115101780Y-113624388D01*
X115120722Y-113639933D01*
X115142330Y-113651483D01*
X115144025Y-113652185D01*
X115168757Y-113668710D01*
X115189790Y-113689743D01*
X115206315Y-113714475D01*
X115217698Y-113741955D01*
X115223500Y-113771128D01*
X115223500Y-113800872D01*
X115217698Y-113830045D01*
X115206315Y-113857525D01*
X115189790Y-113882257D01*
X115168757Y-113903290D01*
X115144025Y-113919815D01*
X115142330Y-113920517D01*
X115120723Y-113932066D01*
X115101781Y-113947611D01*
X115086236Y-113966553D01*
X115074684Y-113988164D01*
X115072500Y-113995365D01*
X115070316Y-113988165D01*
X115058765Y-113966554D01*
X115043220Y-113947612D01*
X115024278Y-113932067D01*
X115002670Y-113920517D01*
X115000975Y-113919815D01*
X114976243Y-113903290D01*
X114955210Y-113882257D01*
X114938685Y-113857525D01*
X114927302Y-113830045D01*
X114921500Y-113800872D01*
X114921500Y-113771128D01*
X114927302Y-113741955D01*
X114938685Y-113714475D01*
X114955210Y-113689743D01*
X114976243Y-113668710D01*
X115000975Y-113652185D01*
X115002670Y-113651483D01*
X115024277Y-113639934D01*
X115043219Y-113624389D01*
X115058764Y-113605447D01*
X115070316Y-113583836D01*
X115072500Y-113576635D01*
X115074684Y-113583835D01*
X115074684Y-113583835D01*
G37*
G36*
X115714684Y-113583835D02*
X115726235Y-113605446D01*
X115741780Y-113624388D01*
X115760722Y-113639933D01*
X115782330Y-113651483D01*
X115784025Y-113652185D01*
X115808757Y-113668710D01*
X115829790Y-113689743D01*
X115846315Y-113714475D01*
X115857698Y-113741955D01*
X115863500Y-113771128D01*
X115863500Y-113800872D01*
X115857698Y-113830045D01*
X115846315Y-113857525D01*
X115829790Y-113882257D01*
X115808757Y-113903290D01*
X115784025Y-113919815D01*
X115782330Y-113920517D01*
X115760723Y-113932066D01*
X115741781Y-113947611D01*
X115726236Y-113966553D01*
X115714684Y-113988164D01*
X115712500Y-113995365D01*
X115710316Y-113988165D01*
X115698765Y-113966554D01*
X115683220Y-113947612D01*
X115664278Y-113932067D01*
X115642670Y-113920517D01*
X115640975Y-113919815D01*
X115616243Y-113903290D01*
X115595210Y-113882257D01*
X115578685Y-113857525D01*
X115567302Y-113830045D01*
X115561500Y-113800872D01*
X115561500Y-113771128D01*
X115567302Y-113741955D01*
X115578685Y-113714475D01*
X115595210Y-113689743D01*
X115616243Y-113668710D01*
X115640975Y-113652185D01*
X115642670Y-113651483D01*
X115664277Y-113639934D01*
X115683219Y-113624389D01*
X115698764Y-113605447D01*
X115710316Y-113583836D01*
X115712500Y-113576635D01*
X115714684Y-113583835D01*
X115714684Y-113583835D01*
G37*
G36*
X116354684Y-113583835D02*
X116366235Y-113605446D01*
X116381780Y-113624388D01*
X116400722Y-113639933D01*
X116422330Y-113651483D01*
X116424025Y-113652185D01*
X116448757Y-113668710D01*
X116469790Y-113689743D01*
X116486315Y-113714475D01*
X116497698Y-113741955D01*
X116503500Y-113771128D01*
X116503500Y-113800872D01*
X116497698Y-113830045D01*
X116486315Y-113857525D01*
X116469790Y-113882257D01*
X116448757Y-113903290D01*
X116424025Y-113919815D01*
X116422330Y-113920517D01*
X116400723Y-113932066D01*
X116381781Y-113947611D01*
X116366236Y-113966553D01*
X116354684Y-113988164D01*
X116352500Y-113995365D01*
X116350316Y-113988165D01*
X116338765Y-113966554D01*
X116323220Y-113947612D01*
X116304278Y-113932067D01*
X116282670Y-113920517D01*
X116280975Y-113919815D01*
X116256243Y-113903290D01*
X116235210Y-113882257D01*
X116218685Y-113857525D01*
X116207302Y-113830045D01*
X116201500Y-113800872D01*
X116201500Y-113771128D01*
X116207302Y-113741955D01*
X116218685Y-113714475D01*
X116235210Y-113689743D01*
X116256243Y-113668710D01*
X116280975Y-113652185D01*
X116282670Y-113651483D01*
X116304277Y-113639934D01*
X116323219Y-113624389D01*
X116338764Y-113605447D01*
X116350316Y-113583836D01*
X116352500Y-113576635D01*
X116354684Y-113583835D01*
X116354684Y-113583835D01*
G37*
G36*
X116994684Y-113583835D02*
X117006235Y-113605446D01*
X117021780Y-113624388D01*
X117040722Y-113639933D01*
X117062330Y-113651483D01*
X117064025Y-113652185D01*
X117088757Y-113668710D01*
X117109790Y-113689743D01*
X117126315Y-113714475D01*
X117137698Y-113741955D01*
X117143500Y-113771128D01*
X117143500Y-113800872D01*
X117137698Y-113830045D01*
X117126315Y-113857525D01*
X117109790Y-113882257D01*
X117088757Y-113903290D01*
X117064025Y-113919815D01*
X117062330Y-113920517D01*
X117040723Y-113932066D01*
X117021781Y-113947611D01*
X117006236Y-113966553D01*
X116994684Y-113988164D01*
X116992500Y-113995365D01*
X116990316Y-113988165D01*
X116978765Y-113966554D01*
X116963220Y-113947612D01*
X116944278Y-113932067D01*
X116922670Y-113920517D01*
X116920975Y-113919815D01*
X116896243Y-113903290D01*
X116875210Y-113882257D01*
X116858685Y-113857525D01*
X116847302Y-113830045D01*
X116841500Y-113800872D01*
X116841500Y-113771128D01*
X116847302Y-113741955D01*
X116858685Y-113714475D01*
X116875210Y-113689743D01*
X116896243Y-113668710D01*
X116920975Y-113652185D01*
X116922670Y-113651483D01*
X116944277Y-113639934D01*
X116963219Y-113624389D01*
X116978764Y-113605447D01*
X116990316Y-113583836D01*
X116992500Y-113576635D01*
X116994684Y-113583835D01*
X116994684Y-113583835D01*
G37*
G36*
X182514684Y-113583835D02*
X182526235Y-113605446D01*
X182541780Y-113624388D01*
X182560722Y-113639933D01*
X182582330Y-113651483D01*
X182584025Y-113652185D01*
X182608757Y-113668710D01*
X182629790Y-113689743D01*
X182646315Y-113714475D01*
X182657698Y-113741955D01*
X182663500Y-113771128D01*
X182663500Y-113800872D01*
X182657698Y-113830045D01*
X182646315Y-113857525D01*
X182629790Y-113882257D01*
X182608757Y-113903290D01*
X182584025Y-113919815D01*
X182582330Y-113920517D01*
X182560723Y-113932066D01*
X182541781Y-113947611D01*
X182526236Y-113966553D01*
X182514684Y-113988164D01*
X182512500Y-113995365D01*
X182510316Y-113988165D01*
X182498765Y-113966554D01*
X182483220Y-113947612D01*
X182464278Y-113932067D01*
X182442670Y-113920517D01*
X182440975Y-113919815D01*
X182416243Y-113903290D01*
X182395210Y-113882257D01*
X182378685Y-113857525D01*
X182367302Y-113830045D01*
X182361500Y-113800872D01*
X182361500Y-113771128D01*
X182367302Y-113741955D01*
X182378685Y-113714475D01*
X182395210Y-113689743D01*
X182416243Y-113668710D01*
X182440975Y-113652185D01*
X182442670Y-113651483D01*
X182464277Y-113639934D01*
X182483219Y-113624389D01*
X182498764Y-113605447D01*
X182510316Y-113583836D01*
X182512500Y-113576635D01*
X182514684Y-113583835D01*
X182514684Y-113583835D01*
G37*
G36*
X183154684Y-113583835D02*
X183166235Y-113605446D01*
X183181780Y-113624388D01*
X183200722Y-113639933D01*
X183222330Y-113651483D01*
X183224025Y-113652185D01*
X183248757Y-113668710D01*
X183269790Y-113689743D01*
X183286315Y-113714475D01*
X183297698Y-113741955D01*
X183303500Y-113771128D01*
X183303500Y-113800872D01*
X183297698Y-113830045D01*
X183286315Y-113857525D01*
X183269790Y-113882257D01*
X183248757Y-113903290D01*
X183224025Y-113919815D01*
X183222330Y-113920517D01*
X183200723Y-113932066D01*
X183181781Y-113947611D01*
X183166236Y-113966553D01*
X183154684Y-113988164D01*
X183152500Y-113995365D01*
X183150316Y-113988165D01*
X183138765Y-113966554D01*
X183123220Y-113947612D01*
X183104278Y-113932067D01*
X183082670Y-113920517D01*
X183080975Y-113919815D01*
X183056243Y-113903290D01*
X183035210Y-113882257D01*
X183018685Y-113857525D01*
X183007302Y-113830045D01*
X183001500Y-113800872D01*
X183001500Y-113771128D01*
X183007302Y-113741955D01*
X183018685Y-113714475D01*
X183035210Y-113689743D01*
X183056243Y-113668710D01*
X183080975Y-113652185D01*
X183082670Y-113651483D01*
X183104277Y-113639934D01*
X183123219Y-113624389D01*
X183138764Y-113605447D01*
X183150316Y-113583836D01*
X183152500Y-113576635D01*
X183154684Y-113583835D01*
X183154684Y-113583835D01*
G37*
G36*
X186994684Y-113583835D02*
X187006235Y-113605446D01*
X187021780Y-113624388D01*
X187040722Y-113639933D01*
X187062330Y-113651483D01*
X187064025Y-113652185D01*
X187088757Y-113668710D01*
X187109790Y-113689743D01*
X187126315Y-113714475D01*
X187137698Y-113741955D01*
X187143500Y-113771128D01*
X187143500Y-113800872D01*
X187137698Y-113830045D01*
X187126315Y-113857525D01*
X187109790Y-113882257D01*
X187088757Y-113903290D01*
X187064025Y-113919815D01*
X187062330Y-113920517D01*
X187040723Y-113932066D01*
X187021781Y-113947611D01*
X187006236Y-113966553D01*
X186994684Y-113988164D01*
X186992500Y-113995365D01*
X186990316Y-113988165D01*
X186978765Y-113966554D01*
X186963220Y-113947612D01*
X186944278Y-113932067D01*
X186922670Y-113920517D01*
X186920975Y-113919815D01*
X186896243Y-113903290D01*
X186875210Y-113882257D01*
X186858685Y-113857525D01*
X186847302Y-113830045D01*
X186841500Y-113800872D01*
X186841500Y-113771128D01*
X186847302Y-113741955D01*
X186858685Y-113714475D01*
X186875210Y-113689743D01*
X186896243Y-113668710D01*
X186920975Y-113652185D01*
X186922670Y-113651483D01*
X186944277Y-113639934D01*
X186963219Y-113624389D01*
X186978764Y-113605447D01*
X186990316Y-113583836D01*
X186992500Y-113576635D01*
X186994684Y-113583835D01*
X186994684Y-113583835D01*
G37*
G36*
X183794684Y-113583835D02*
X183806235Y-113605446D01*
X183821780Y-113624388D01*
X183840722Y-113639933D01*
X183862330Y-113651483D01*
X183864025Y-113652185D01*
X183888757Y-113668710D01*
X183909790Y-113689743D01*
X183926315Y-113714475D01*
X183937698Y-113741955D01*
X183943500Y-113771128D01*
X183943500Y-113800872D01*
X183937698Y-113830045D01*
X183926315Y-113857525D01*
X183909790Y-113882257D01*
X183888757Y-113903290D01*
X183864025Y-113919815D01*
X183862330Y-113920517D01*
X183840723Y-113932066D01*
X183821781Y-113947611D01*
X183806236Y-113966553D01*
X183794684Y-113988164D01*
X183792500Y-113995365D01*
X183790316Y-113988165D01*
X183778765Y-113966554D01*
X183763220Y-113947612D01*
X183744278Y-113932067D01*
X183722670Y-113920517D01*
X183720975Y-113919815D01*
X183696243Y-113903290D01*
X183675210Y-113882257D01*
X183658685Y-113857525D01*
X183647302Y-113830045D01*
X183641500Y-113800872D01*
X183641500Y-113771128D01*
X183647302Y-113741955D01*
X183658685Y-113714475D01*
X183675210Y-113689743D01*
X183696243Y-113668710D01*
X183720975Y-113652185D01*
X183722670Y-113651483D01*
X183744277Y-113639934D01*
X183763219Y-113624389D01*
X183778764Y-113605447D01*
X183790316Y-113583836D01*
X183792500Y-113576635D01*
X183794684Y-113583835D01*
X183794684Y-113583835D01*
G37*
G36*
X184434684Y-113583835D02*
X184446235Y-113605446D01*
X184461780Y-113624388D01*
X184480722Y-113639933D01*
X184502330Y-113651483D01*
X184504025Y-113652185D01*
X184528757Y-113668710D01*
X184549790Y-113689743D01*
X184566315Y-113714475D01*
X184577698Y-113741955D01*
X184583500Y-113771128D01*
X184583500Y-113800872D01*
X184577698Y-113830045D01*
X184566315Y-113857525D01*
X184549790Y-113882257D01*
X184528757Y-113903290D01*
X184504025Y-113919815D01*
X184502330Y-113920517D01*
X184480723Y-113932066D01*
X184461781Y-113947611D01*
X184446236Y-113966553D01*
X184434684Y-113988164D01*
X184432500Y-113995365D01*
X184430316Y-113988165D01*
X184418765Y-113966554D01*
X184403220Y-113947612D01*
X184384278Y-113932067D01*
X184362670Y-113920517D01*
X184360975Y-113919815D01*
X184336243Y-113903290D01*
X184315210Y-113882257D01*
X184298685Y-113857525D01*
X184287302Y-113830045D01*
X184281500Y-113800872D01*
X184281500Y-113771128D01*
X184287302Y-113741955D01*
X184298685Y-113714475D01*
X184315210Y-113689743D01*
X184336243Y-113668710D01*
X184360975Y-113652185D01*
X184362670Y-113651483D01*
X184384277Y-113639934D01*
X184403219Y-113624389D01*
X184418764Y-113605447D01*
X184430316Y-113583836D01*
X184432500Y-113576635D01*
X184434684Y-113583835D01*
X184434684Y-113583835D01*
G37*
G36*
X185074684Y-113583835D02*
X185086235Y-113605446D01*
X185101780Y-113624388D01*
X185120722Y-113639933D01*
X185142330Y-113651483D01*
X185144025Y-113652185D01*
X185168757Y-113668710D01*
X185189790Y-113689743D01*
X185206315Y-113714475D01*
X185217698Y-113741955D01*
X185223500Y-113771128D01*
X185223500Y-113800872D01*
X185217698Y-113830045D01*
X185206315Y-113857525D01*
X185189790Y-113882257D01*
X185168757Y-113903290D01*
X185144025Y-113919815D01*
X185142330Y-113920517D01*
X185120723Y-113932066D01*
X185101781Y-113947611D01*
X185086236Y-113966553D01*
X185074684Y-113988164D01*
X185072500Y-113995365D01*
X185070316Y-113988165D01*
X185058765Y-113966554D01*
X185043220Y-113947612D01*
X185024278Y-113932067D01*
X185002670Y-113920517D01*
X185000975Y-113919815D01*
X184976243Y-113903290D01*
X184955210Y-113882257D01*
X184938685Y-113857525D01*
X184927302Y-113830045D01*
X184921500Y-113800872D01*
X184921500Y-113771128D01*
X184927302Y-113741955D01*
X184938685Y-113714475D01*
X184955210Y-113689743D01*
X184976243Y-113668710D01*
X185000975Y-113652185D01*
X185002670Y-113651483D01*
X185024277Y-113639934D01*
X185043219Y-113624389D01*
X185058764Y-113605447D01*
X185070316Y-113583836D01*
X185072500Y-113576635D01*
X185074684Y-113583835D01*
X185074684Y-113583835D01*
G37*
G36*
X186354684Y-113583835D02*
X186366235Y-113605446D01*
X186381780Y-113624388D01*
X186400722Y-113639933D01*
X186422330Y-113651483D01*
X186424025Y-113652185D01*
X186448757Y-113668710D01*
X186469790Y-113689743D01*
X186486315Y-113714475D01*
X186497698Y-113741955D01*
X186503500Y-113771128D01*
X186503500Y-113800872D01*
X186497698Y-113830045D01*
X186486315Y-113857525D01*
X186469790Y-113882257D01*
X186448757Y-113903290D01*
X186424025Y-113919815D01*
X186422330Y-113920517D01*
X186400723Y-113932066D01*
X186381781Y-113947611D01*
X186366236Y-113966553D01*
X186354684Y-113988164D01*
X186352500Y-113995365D01*
X186350316Y-113988165D01*
X186338765Y-113966554D01*
X186323220Y-113947612D01*
X186304278Y-113932067D01*
X186282670Y-113920517D01*
X186280975Y-113919815D01*
X186256243Y-113903290D01*
X186235210Y-113882257D01*
X186218685Y-113857525D01*
X186207302Y-113830045D01*
X186201500Y-113800872D01*
X186201500Y-113771128D01*
X186207302Y-113741955D01*
X186218685Y-113714475D01*
X186235210Y-113689743D01*
X186256243Y-113668710D01*
X186280975Y-113652185D01*
X186282670Y-113651483D01*
X186304277Y-113639934D01*
X186323219Y-113624389D01*
X186338764Y-113605447D01*
X186350316Y-113583836D01*
X186352500Y-113576635D01*
X186354684Y-113583835D01*
X186354684Y-113583835D01*
G37*
G36*
X113154684Y-113583835D02*
X113166235Y-113605446D01*
X113181780Y-113624388D01*
X113200722Y-113639933D01*
X113222330Y-113651483D01*
X113224025Y-113652185D01*
X113248757Y-113668710D01*
X113269790Y-113689743D01*
X113286315Y-113714475D01*
X113297698Y-113741955D01*
X113303500Y-113771128D01*
X113303500Y-113800872D01*
X113297698Y-113830045D01*
X113286315Y-113857525D01*
X113269790Y-113882257D01*
X113248757Y-113903290D01*
X113224025Y-113919815D01*
X113222330Y-113920517D01*
X113200723Y-113932066D01*
X113181781Y-113947611D01*
X113166236Y-113966553D01*
X113154684Y-113988164D01*
X113152500Y-113995365D01*
X113150316Y-113988165D01*
X113138765Y-113966554D01*
X113123220Y-113947612D01*
X113104278Y-113932067D01*
X113082670Y-113920517D01*
X113080975Y-113919815D01*
X113056243Y-113903290D01*
X113035210Y-113882257D01*
X113018685Y-113857525D01*
X113007302Y-113830045D01*
X113001500Y-113800872D01*
X113001500Y-113771128D01*
X113007302Y-113741955D01*
X113018685Y-113714475D01*
X113035210Y-113689743D01*
X113056243Y-113668710D01*
X113080975Y-113652185D01*
X113082670Y-113651483D01*
X113104277Y-113639934D01*
X113123219Y-113624389D01*
X113138764Y-113605447D01*
X113150316Y-113583836D01*
X113152500Y-113576635D01*
X113154684Y-113583835D01*
X113154684Y-113583835D01*
G37*
G36*
X112514684Y-113583835D02*
X112526235Y-113605446D01*
X112541780Y-113624388D01*
X112560722Y-113639933D01*
X112582330Y-113651483D01*
X112584025Y-113652185D01*
X112608757Y-113668710D01*
X112629790Y-113689743D01*
X112646315Y-113714475D01*
X112657698Y-113741955D01*
X112663500Y-113771128D01*
X112663500Y-113800872D01*
X112657698Y-113830045D01*
X112646315Y-113857525D01*
X112629790Y-113882257D01*
X112608757Y-113903290D01*
X112584025Y-113919815D01*
X112582330Y-113920517D01*
X112560723Y-113932066D01*
X112541781Y-113947611D01*
X112526236Y-113966553D01*
X112514684Y-113988164D01*
X112512500Y-113995365D01*
X112510316Y-113988165D01*
X112498765Y-113966554D01*
X112483220Y-113947612D01*
X112464278Y-113932067D01*
X112442670Y-113920517D01*
X112440975Y-113919815D01*
X112416243Y-113903290D01*
X112395210Y-113882257D01*
X112378685Y-113857525D01*
X112367302Y-113830045D01*
X112361500Y-113800872D01*
X112361500Y-113771128D01*
X112367302Y-113741955D01*
X112378685Y-113714475D01*
X112395210Y-113689743D01*
X112416243Y-113668710D01*
X112440975Y-113652185D01*
X112442670Y-113651483D01*
X112464277Y-113639934D01*
X112483219Y-113624389D01*
X112498764Y-113605447D01*
X112510316Y-113583836D01*
X112512500Y-113576635D01*
X112514684Y-113583835D01*
X112514684Y-113583835D01*
G37*
G36*
X113794684Y-113583835D02*
X113806235Y-113605446D01*
X113821780Y-113624388D01*
X113840722Y-113639933D01*
X113862330Y-113651483D01*
X113864025Y-113652185D01*
X113888757Y-113668710D01*
X113909790Y-113689743D01*
X113926315Y-113714475D01*
X113937698Y-113741955D01*
X113943500Y-113771128D01*
X113943500Y-113800872D01*
X113937698Y-113830045D01*
X113926315Y-113857525D01*
X113909790Y-113882257D01*
X113888757Y-113903290D01*
X113864025Y-113919815D01*
X113862330Y-113920517D01*
X113840723Y-113932066D01*
X113821781Y-113947611D01*
X113806236Y-113966553D01*
X113794684Y-113988164D01*
X113792500Y-113995365D01*
X113790316Y-113988165D01*
X113778765Y-113966554D01*
X113763220Y-113947612D01*
X113744278Y-113932067D01*
X113722670Y-113920517D01*
X113720975Y-113919815D01*
X113696243Y-113903290D01*
X113675210Y-113882257D01*
X113658685Y-113857525D01*
X113647302Y-113830045D01*
X113641500Y-113800872D01*
X113641500Y-113771128D01*
X113647302Y-113741955D01*
X113658685Y-113714475D01*
X113675210Y-113689743D01*
X113696243Y-113668710D01*
X113720975Y-113652185D01*
X113722670Y-113651483D01*
X113744277Y-113639934D01*
X113763219Y-113624389D01*
X113778764Y-113605447D01*
X113790316Y-113583836D01*
X113792500Y-113576635D01*
X113794684Y-113583835D01*
X113794684Y-113583835D01*
G37*
G36*
X186994684Y-113083835D02*
X187006235Y-113105446D01*
X187021780Y-113124388D01*
X187040722Y-113139933D01*
X187062330Y-113151483D01*
X187064025Y-113152185D01*
X187088757Y-113168710D01*
X187109790Y-113189743D01*
X187126315Y-113214475D01*
X187137698Y-113241955D01*
X187143500Y-113271128D01*
X187143500Y-113300872D01*
X187137698Y-113330045D01*
X187126315Y-113357525D01*
X187109790Y-113382257D01*
X187088757Y-113403290D01*
X187064025Y-113419815D01*
X187062330Y-113420517D01*
X187040723Y-113432066D01*
X187021781Y-113447611D01*
X187006236Y-113466553D01*
X186994684Y-113488164D01*
X186992500Y-113495365D01*
X186990316Y-113488165D01*
X186978765Y-113466554D01*
X186963220Y-113447612D01*
X186944278Y-113432067D01*
X186922670Y-113420517D01*
X186920975Y-113419815D01*
X186896243Y-113403290D01*
X186875210Y-113382257D01*
X186858685Y-113357525D01*
X186847302Y-113330045D01*
X186841500Y-113300872D01*
X186841500Y-113271128D01*
X186847302Y-113241955D01*
X186858685Y-113214475D01*
X186875210Y-113189743D01*
X186896243Y-113168710D01*
X186920975Y-113152185D01*
X186922670Y-113151483D01*
X186944277Y-113139934D01*
X186963219Y-113124389D01*
X186978764Y-113105447D01*
X186990316Y-113083836D01*
X186992500Y-113076635D01*
X186994684Y-113083835D01*
X186994684Y-113083835D01*
G37*
G36*
X115074684Y-113083835D02*
X115086235Y-113105446D01*
X115101780Y-113124388D01*
X115120722Y-113139933D01*
X115142330Y-113151483D01*
X115144025Y-113152185D01*
X115168757Y-113168710D01*
X115189790Y-113189743D01*
X115206315Y-113214475D01*
X115217698Y-113241955D01*
X115223500Y-113271128D01*
X115223500Y-113300872D01*
X115217698Y-113330045D01*
X115206315Y-113357525D01*
X115189790Y-113382257D01*
X115168757Y-113403290D01*
X115144025Y-113419815D01*
X115142330Y-113420517D01*
X115120723Y-113432066D01*
X115101781Y-113447611D01*
X115086236Y-113466553D01*
X115074684Y-113488164D01*
X115072500Y-113495365D01*
X115070316Y-113488165D01*
X115058765Y-113466554D01*
X115043220Y-113447612D01*
X115024278Y-113432067D01*
X115002670Y-113420517D01*
X115000975Y-113419815D01*
X114976243Y-113403290D01*
X114955210Y-113382257D01*
X114938685Y-113357525D01*
X114927302Y-113330045D01*
X114921500Y-113300872D01*
X114921500Y-113271128D01*
X114927302Y-113241955D01*
X114938685Y-113214475D01*
X114955210Y-113189743D01*
X114976243Y-113168710D01*
X115000975Y-113152185D01*
X115002670Y-113151483D01*
X115024277Y-113139934D01*
X115043219Y-113124389D01*
X115058764Y-113105447D01*
X115070316Y-113083836D01*
X115072500Y-113076635D01*
X115074684Y-113083835D01*
X115074684Y-113083835D01*
G37*
G36*
X115714684Y-113083835D02*
X115726235Y-113105446D01*
X115741780Y-113124388D01*
X115760722Y-113139933D01*
X115782330Y-113151483D01*
X115784025Y-113152185D01*
X115808757Y-113168710D01*
X115829790Y-113189743D01*
X115846315Y-113214475D01*
X115857698Y-113241955D01*
X115863500Y-113271128D01*
X115863500Y-113300872D01*
X115857698Y-113330045D01*
X115846315Y-113357525D01*
X115829790Y-113382257D01*
X115808757Y-113403290D01*
X115784025Y-113419815D01*
X115782330Y-113420517D01*
X115760723Y-113432066D01*
X115741781Y-113447611D01*
X115726236Y-113466553D01*
X115714684Y-113488164D01*
X115712500Y-113495365D01*
X115710316Y-113488165D01*
X115698765Y-113466554D01*
X115683220Y-113447612D01*
X115664278Y-113432067D01*
X115642670Y-113420517D01*
X115640975Y-113419815D01*
X115616243Y-113403290D01*
X115595210Y-113382257D01*
X115578685Y-113357525D01*
X115567302Y-113330045D01*
X115561500Y-113300872D01*
X115561500Y-113271128D01*
X115567302Y-113241955D01*
X115578685Y-113214475D01*
X115595210Y-113189743D01*
X115616243Y-113168710D01*
X115640975Y-113152185D01*
X115642670Y-113151483D01*
X115664277Y-113139934D01*
X115683219Y-113124389D01*
X115698764Y-113105447D01*
X115710316Y-113083836D01*
X115712500Y-113076635D01*
X115714684Y-113083835D01*
X115714684Y-113083835D01*
G37*
G36*
X116354684Y-113083835D02*
X116366235Y-113105446D01*
X116381780Y-113124388D01*
X116400722Y-113139933D01*
X116422330Y-113151483D01*
X116424025Y-113152185D01*
X116448757Y-113168710D01*
X116469790Y-113189743D01*
X116486315Y-113214475D01*
X116497698Y-113241955D01*
X116503500Y-113271128D01*
X116503500Y-113300872D01*
X116497698Y-113330045D01*
X116486315Y-113357525D01*
X116469790Y-113382257D01*
X116448757Y-113403290D01*
X116424025Y-113419815D01*
X116422330Y-113420517D01*
X116400723Y-113432066D01*
X116381781Y-113447611D01*
X116366236Y-113466553D01*
X116354684Y-113488164D01*
X116352500Y-113495365D01*
X116350316Y-113488165D01*
X116338765Y-113466554D01*
X116323220Y-113447612D01*
X116304278Y-113432067D01*
X116282670Y-113420517D01*
X116280975Y-113419815D01*
X116256243Y-113403290D01*
X116235210Y-113382257D01*
X116218685Y-113357525D01*
X116207302Y-113330045D01*
X116201500Y-113300872D01*
X116201500Y-113271128D01*
X116207302Y-113241955D01*
X116218685Y-113214475D01*
X116235210Y-113189743D01*
X116256243Y-113168710D01*
X116280975Y-113152185D01*
X116282670Y-113151483D01*
X116304277Y-113139934D01*
X116323219Y-113124389D01*
X116338764Y-113105447D01*
X116350316Y-113083836D01*
X116352500Y-113076635D01*
X116354684Y-113083835D01*
X116354684Y-113083835D01*
G37*
G36*
X116994684Y-113083835D02*
X117006235Y-113105446D01*
X117021780Y-113124388D01*
X117040722Y-113139933D01*
X117062330Y-113151483D01*
X117064025Y-113152185D01*
X117088757Y-113168710D01*
X117109790Y-113189743D01*
X117126315Y-113214475D01*
X117137698Y-113241955D01*
X117143500Y-113271128D01*
X117143500Y-113300872D01*
X117137698Y-113330045D01*
X117126315Y-113357525D01*
X117109790Y-113382257D01*
X117088757Y-113403290D01*
X117064025Y-113419815D01*
X117062330Y-113420517D01*
X117040723Y-113432066D01*
X117021781Y-113447611D01*
X117006236Y-113466553D01*
X116994684Y-113488164D01*
X116992500Y-113495365D01*
X116990316Y-113488165D01*
X116978765Y-113466554D01*
X116963220Y-113447612D01*
X116944278Y-113432067D01*
X116922670Y-113420517D01*
X116920975Y-113419815D01*
X116896243Y-113403290D01*
X116875210Y-113382257D01*
X116858685Y-113357525D01*
X116847302Y-113330045D01*
X116841500Y-113300872D01*
X116841500Y-113271128D01*
X116847302Y-113241955D01*
X116858685Y-113214475D01*
X116875210Y-113189743D01*
X116896243Y-113168710D01*
X116920975Y-113152185D01*
X116922670Y-113151483D01*
X116944277Y-113139934D01*
X116963219Y-113124389D01*
X116978764Y-113105447D01*
X116990316Y-113083836D01*
X116992500Y-113076635D01*
X116994684Y-113083835D01*
X116994684Y-113083835D01*
G37*
G36*
X182514684Y-113083835D02*
X182526235Y-113105446D01*
X182541780Y-113124388D01*
X182560722Y-113139933D01*
X182582330Y-113151483D01*
X182584025Y-113152185D01*
X182608757Y-113168710D01*
X182629790Y-113189743D01*
X182646315Y-113214475D01*
X182657698Y-113241955D01*
X182663500Y-113271128D01*
X182663500Y-113300872D01*
X182657698Y-113330045D01*
X182646315Y-113357525D01*
X182629790Y-113382257D01*
X182608757Y-113403290D01*
X182584025Y-113419815D01*
X182582330Y-113420517D01*
X182560723Y-113432066D01*
X182541781Y-113447611D01*
X182526236Y-113466553D01*
X182514684Y-113488164D01*
X182512500Y-113495365D01*
X182510316Y-113488165D01*
X182498765Y-113466554D01*
X182483220Y-113447612D01*
X182464278Y-113432067D01*
X182442670Y-113420517D01*
X182440975Y-113419815D01*
X182416243Y-113403290D01*
X182395210Y-113382257D01*
X182378685Y-113357525D01*
X182367302Y-113330045D01*
X182361500Y-113300872D01*
X182361500Y-113271128D01*
X182367302Y-113241955D01*
X182378685Y-113214475D01*
X182395210Y-113189743D01*
X182416243Y-113168710D01*
X182440975Y-113152185D01*
X182442670Y-113151483D01*
X182464277Y-113139934D01*
X182483219Y-113124389D01*
X182498764Y-113105447D01*
X182510316Y-113083836D01*
X182512500Y-113076635D01*
X182514684Y-113083835D01*
X182514684Y-113083835D01*
G37*
G36*
X183154684Y-113083835D02*
X183166235Y-113105446D01*
X183181780Y-113124388D01*
X183200722Y-113139933D01*
X183222330Y-113151483D01*
X183224025Y-113152185D01*
X183248757Y-113168710D01*
X183269790Y-113189743D01*
X183286315Y-113214475D01*
X183297698Y-113241955D01*
X183303500Y-113271128D01*
X183303500Y-113300872D01*
X183297698Y-113330045D01*
X183286315Y-113357525D01*
X183269790Y-113382257D01*
X183248757Y-113403290D01*
X183224025Y-113419815D01*
X183222330Y-113420517D01*
X183200723Y-113432066D01*
X183181781Y-113447611D01*
X183166236Y-113466553D01*
X183154684Y-113488164D01*
X183152500Y-113495365D01*
X183150316Y-113488165D01*
X183138765Y-113466554D01*
X183123220Y-113447612D01*
X183104278Y-113432067D01*
X183082670Y-113420517D01*
X183080975Y-113419815D01*
X183056243Y-113403290D01*
X183035210Y-113382257D01*
X183018685Y-113357525D01*
X183007302Y-113330045D01*
X183001500Y-113300872D01*
X183001500Y-113271128D01*
X183007302Y-113241955D01*
X183018685Y-113214475D01*
X183035210Y-113189743D01*
X183056243Y-113168710D01*
X183080975Y-113152185D01*
X183082670Y-113151483D01*
X183104277Y-113139934D01*
X183123219Y-113124389D01*
X183138764Y-113105447D01*
X183150316Y-113083836D01*
X183152500Y-113076635D01*
X183154684Y-113083835D01*
X183154684Y-113083835D01*
G37*
G36*
X183794684Y-113083835D02*
X183806235Y-113105446D01*
X183821780Y-113124388D01*
X183840722Y-113139933D01*
X183862330Y-113151483D01*
X183864025Y-113152185D01*
X183888757Y-113168710D01*
X183909790Y-113189743D01*
X183926315Y-113214475D01*
X183937698Y-113241955D01*
X183943500Y-113271128D01*
X183943500Y-113300872D01*
X183937698Y-113330045D01*
X183926315Y-113357525D01*
X183909790Y-113382257D01*
X183888757Y-113403290D01*
X183864025Y-113419815D01*
X183862330Y-113420517D01*
X183840723Y-113432066D01*
X183821781Y-113447611D01*
X183806236Y-113466553D01*
X183794684Y-113488164D01*
X183792500Y-113495365D01*
X183790316Y-113488165D01*
X183778765Y-113466554D01*
X183763220Y-113447612D01*
X183744278Y-113432067D01*
X183722670Y-113420517D01*
X183720975Y-113419815D01*
X183696243Y-113403290D01*
X183675210Y-113382257D01*
X183658685Y-113357525D01*
X183647302Y-113330045D01*
X183641500Y-113300872D01*
X183641500Y-113271128D01*
X183647302Y-113241955D01*
X183658685Y-113214475D01*
X183675210Y-113189743D01*
X183696243Y-113168710D01*
X183720975Y-113152185D01*
X183722670Y-113151483D01*
X183744277Y-113139934D01*
X183763219Y-113124389D01*
X183778764Y-113105447D01*
X183790316Y-113083836D01*
X183792500Y-113076635D01*
X183794684Y-113083835D01*
X183794684Y-113083835D01*
G37*
G36*
X185074684Y-113083835D02*
X185086235Y-113105446D01*
X185101780Y-113124388D01*
X185120722Y-113139933D01*
X185142330Y-113151483D01*
X185144025Y-113152185D01*
X185168757Y-113168710D01*
X185189790Y-113189743D01*
X185206315Y-113214475D01*
X185217698Y-113241955D01*
X185223500Y-113271128D01*
X185223500Y-113300872D01*
X185217698Y-113330045D01*
X185206315Y-113357525D01*
X185189790Y-113382257D01*
X185168757Y-113403290D01*
X185144025Y-113419815D01*
X185142330Y-113420517D01*
X185120723Y-113432066D01*
X185101781Y-113447611D01*
X185086236Y-113466553D01*
X185074684Y-113488164D01*
X185072500Y-113495365D01*
X185070316Y-113488165D01*
X185058765Y-113466554D01*
X185043220Y-113447612D01*
X185024278Y-113432067D01*
X185002670Y-113420517D01*
X185000975Y-113419815D01*
X184976243Y-113403290D01*
X184955210Y-113382257D01*
X184938685Y-113357525D01*
X184927302Y-113330045D01*
X184921500Y-113300872D01*
X184921500Y-113271128D01*
X184927302Y-113241955D01*
X184938685Y-113214475D01*
X184955210Y-113189743D01*
X184976243Y-113168710D01*
X185000975Y-113152185D01*
X185002670Y-113151483D01*
X185024277Y-113139934D01*
X185043219Y-113124389D01*
X185058764Y-113105447D01*
X185070316Y-113083836D01*
X185072500Y-113076635D01*
X185074684Y-113083835D01*
X185074684Y-113083835D01*
G37*
G36*
X185714684Y-113083835D02*
X185726235Y-113105446D01*
X185741780Y-113124388D01*
X185760722Y-113139933D01*
X185782330Y-113151483D01*
X185784025Y-113152185D01*
X185808757Y-113168710D01*
X185829790Y-113189743D01*
X185846315Y-113214475D01*
X185857698Y-113241955D01*
X185863500Y-113271128D01*
X185863500Y-113300872D01*
X185857698Y-113330045D01*
X185846315Y-113357525D01*
X185829790Y-113382257D01*
X185808757Y-113403290D01*
X185784025Y-113419815D01*
X185782330Y-113420517D01*
X185760723Y-113432066D01*
X185741781Y-113447611D01*
X185726236Y-113466553D01*
X185714684Y-113488164D01*
X185712500Y-113495365D01*
X185710316Y-113488165D01*
X185698765Y-113466554D01*
X185683220Y-113447612D01*
X185664278Y-113432067D01*
X185642670Y-113420517D01*
X185640975Y-113419815D01*
X185616243Y-113403290D01*
X185595210Y-113382257D01*
X185578685Y-113357525D01*
X185567302Y-113330045D01*
X185561500Y-113300872D01*
X185561500Y-113271128D01*
X185567302Y-113241955D01*
X185578685Y-113214475D01*
X185595210Y-113189743D01*
X185616243Y-113168710D01*
X185640975Y-113152185D01*
X185642670Y-113151483D01*
X185664277Y-113139934D01*
X185683219Y-113124389D01*
X185698764Y-113105447D01*
X185710316Y-113083836D01*
X185712500Y-113076635D01*
X185714684Y-113083835D01*
X185714684Y-113083835D01*
G37*
G36*
X186354684Y-113083835D02*
X186366235Y-113105446D01*
X186381780Y-113124388D01*
X186400722Y-113139933D01*
X186422330Y-113151483D01*
X186424025Y-113152185D01*
X186448757Y-113168710D01*
X186469790Y-113189743D01*
X186486315Y-113214475D01*
X186497698Y-113241955D01*
X186503500Y-113271128D01*
X186503500Y-113300872D01*
X186497698Y-113330045D01*
X186486315Y-113357525D01*
X186469790Y-113382257D01*
X186448757Y-113403290D01*
X186424025Y-113419815D01*
X186422330Y-113420517D01*
X186400723Y-113432066D01*
X186381781Y-113447611D01*
X186366236Y-113466553D01*
X186354684Y-113488164D01*
X186352500Y-113495365D01*
X186350316Y-113488165D01*
X186338765Y-113466554D01*
X186323220Y-113447612D01*
X186304278Y-113432067D01*
X186282670Y-113420517D01*
X186280975Y-113419815D01*
X186256243Y-113403290D01*
X186235210Y-113382257D01*
X186218685Y-113357525D01*
X186207302Y-113330045D01*
X186201500Y-113300872D01*
X186201500Y-113271128D01*
X186207302Y-113241955D01*
X186218685Y-113214475D01*
X186235210Y-113189743D01*
X186256243Y-113168710D01*
X186280975Y-113152185D01*
X186282670Y-113151483D01*
X186304277Y-113139934D01*
X186323219Y-113124389D01*
X186338764Y-113105447D01*
X186350316Y-113083836D01*
X186352500Y-113076635D01*
X186354684Y-113083835D01*
X186354684Y-113083835D01*
G37*
G36*
X112514684Y-113083835D02*
X112526235Y-113105446D01*
X112541780Y-113124388D01*
X112560722Y-113139933D01*
X112582330Y-113151483D01*
X112584025Y-113152185D01*
X112608757Y-113168710D01*
X112629790Y-113189743D01*
X112646315Y-113214475D01*
X112657698Y-113241955D01*
X112663500Y-113271128D01*
X112663500Y-113300872D01*
X112657698Y-113330045D01*
X112646315Y-113357525D01*
X112629790Y-113382257D01*
X112608757Y-113403290D01*
X112584025Y-113419815D01*
X112582330Y-113420517D01*
X112560723Y-113432066D01*
X112541781Y-113447611D01*
X112526236Y-113466553D01*
X112514684Y-113488164D01*
X112512500Y-113495365D01*
X112510316Y-113488165D01*
X112498765Y-113466554D01*
X112483220Y-113447612D01*
X112464278Y-113432067D01*
X112442670Y-113420517D01*
X112440975Y-113419815D01*
X112416243Y-113403290D01*
X112395210Y-113382257D01*
X112378685Y-113357525D01*
X112367302Y-113330045D01*
X112361500Y-113300872D01*
X112361500Y-113271128D01*
X112367302Y-113241955D01*
X112378685Y-113214475D01*
X112395210Y-113189743D01*
X112416243Y-113168710D01*
X112440975Y-113152185D01*
X112442670Y-113151483D01*
X112464277Y-113139934D01*
X112483219Y-113124389D01*
X112498764Y-113105447D01*
X112510316Y-113083836D01*
X112512500Y-113076635D01*
X112514684Y-113083835D01*
X112514684Y-113083835D01*
G37*
G36*
X113794684Y-113083835D02*
X113806235Y-113105446D01*
X113821780Y-113124388D01*
X113840722Y-113139933D01*
X113862330Y-113151483D01*
X113864025Y-113152185D01*
X113888757Y-113168710D01*
X113909790Y-113189743D01*
X113926315Y-113214475D01*
X113937698Y-113241955D01*
X113943500Y-113271128D01*
X113943500Y-113300872D01*
X113937698Y-113330045D01*
X113926315Y-113357525D01*
X113909790Y-113382257D01*
X113888757Y-113403290D01*
X113864025Y-113419815D01*
X113862330Y-113420517D01*
X113840723Y-113432066D01*
X113821781Y-113447611D01*
X113806236Y-113466553D01*
X113794684Y-113488164D01*
X113792500Y-113495365D01*
X113790316Y-113488165D01*
X113778765Y-113466554D01*
X113763220Y-113447612D01*
X113744278Y-113432067D01*
X113722670Y-113420517D01*
X113720975Y-113419815D01*
X113696243Y-113403290D01*
X113675210Y-113382257D01*
X113658685Y-113357525D01*
X113647302Y-113330045D01*
X113641500Y-113300872D01*
X113641500Y-113271128D01*
X113647302Y-113241955D01*
X113658685Y-113214475D01*
X113675210Y-113189743D01*
X113696243Y-113168710D01*
X113720975Y-113152185D01*
X113722670Y-113151483D01*
X113744277Y-113139934D01*
X113763219Y-113124389D01*
X113778764Y-113105447D01*
X113790316Y-113083836D01*
X113792500Y-113076635D01*
X113794684Y-113083835D01*
X113794684Y-113083835D01*
G37*
G36*
X114434684Y-113083835D02*
X114446235Y-113105446D01*
X114461780Y-113124388D01*
X114480722Y-113139933D01*
X114502330Y-113151483D01*
X114504025Y-113152185D01*
X114528757Y-113168710D01*
X114549790Y-113189743D01*
X114566315Y-113214475D01*
X114577698Y-113241955D01*
X114583500Y-113271128D01*
X114583500Y-113300872D01*
X114577698Y-113330045D01*
X114566315Y-113357525D01*
X114549790Y-113382257D01*
X114528757Y-113403290D01*
X114504025Y-113419815D01*
X114502330Y-113420517D01*
X114480723Y-113432066D01*
X114461781Y-113447611D01*
X114446236Y-113466553D01*
X114434684Y-113488164D01*
X114432500Y-113495365D01*
X114430316Y-113488165D01*
X114418765Y-113466554D01*
X114403220Y-113447612D01*
X114384278Y-113432067D01*
X114362670Y-113420517D01*
X114360975Y-113419815D01*
X114336243Y-113403290D01*
X114315210Y-113382257D01*
X114298685Y-113357525D01*
X114287302Y-113330045D01*
X114281500Y-113300872D01*
X114281500Y-113271128D01*
X114287302Y-113241955D01*
X114298685Y-113214475D01*
X114315210Y-113189743D01*
X114336243Y-113168710D01*
X114360975Y-113152185D01*
X114362670Y-113151483D01*
X114384277Y-113139934D01*
X114403219Y-113124389D01*
X114418764Y-113105447D01*
X114430316Y-113083836D01*
X114432500Y-113076635D01*
X114434684Y-113083835D01*
X114434684Y-113083835D01*
G37*
G36*
X113154684Y-113083835D02*
X113166235Y-113105446D01*
X113181780Y-113124388D01*
X113200722Y-113139933D01*
X113222330Y-113151483D01*
X113224025Y-113152185D01*
X113248757Y-113168710D01*
X113269790Y-113189743D01*
X113286315Y-113214475D01*
X113297698Y-113241955D01*
X113303500Y-113271128D01*
X113303500Y-113300872D01*
X113297698Y-113330045D01*
X113286315Y-113357525D01*
X113269790Y-113382257D01*
X113248757Y-113403290D01*
X113224025Y-113419815D01*
X113222330Y-113420517D01*
X113200723Y-113432066D01*
X113181781Y-113447611D01*
X113166236Y-113466553D01*
X113154684Y-113488164D01*
X113152500Y-113495365D01*
X113150316Y-113488165D01*
X113138765Y-113466554D01*
X113123220Y-113447612D01*
X113104278Y-113432067D01*
X113082670Y-113420517D01*
X113080975Y-113419815D01*
X113056243Y-113403290D01*
X113035210Y-113382257D01*
X113018685Y-113357525D01*
X113007302Y-113330045D01*
X113001500Y-113300872D01*
X113001500Y-113271128D01*
X113007302Y-113241955D01*
X113018685Y-113214475D01*
X113035210Y-113189743D01*
X113056243Y-113168710D01*
X113080975Y-113152185D01*
X113082670Y-113151483D01*
X113104277Y-113139934D01*
X113123219Y-113124389D01*
X113138764Y-113105447D01*
X113150316Y-113083836D01*
X113152500Y-113076635D01*
X113154684Y-113083835D01*
X113154684Y-113083835D01*
G37*
G36*
X184434684Y-113083835D02*
X184446235Y-113105446D01*
X184461780Y-113124388D01*
X184480722Y-113139933D01*
X184502330Y-113151483D01*
X184504025Y-113152185D01*
X184528757Y-113168710D01*
X184549790Y-113189743D01*
X184566315Y-113214475D01*
X184577698Y-113241955D01*
X184583500Y-113271128D01*
X184583500Y-113300872D01*
X184577698Y-113330045D01*
X184566315Y-113357525D01*
X184549790Y-113382257D01*
X184528757Y-113403290D01*
X184504025Y-113419815D01*
X184502330Y-113420517D01*
X184480723Y-113432066D01*
X184461781Y-113447611D01*
X184446236Y-113466553D01*
X184434684Y-113488164D01*
X184432500Y-113495365D01*
X184430316Y-113488165D01*
X184418765Y-113466554D01*
X184403220Y-113447612D01*
X184384278Y-113432067D01*
X184362670Y-113420517D01*
X184360975Y-113419815D01*
X184336243Y-113403290D01*
X184315210Y-113382257D01*
X184298685Y-113357525D01*
X184287302Y-113330045D01*
X184281500Y-113300872D01*
X184281500Y-113271128D01*
X184287302Y-113241955D01*
X184298685Y-113214475D01*
X184315210Y-113189743D01*
X184336243Y-113168710D01*
X184360975Y-113152185D01*
X184362670Y-113151483D01*
X184384277Y-113139934D01*
X184403219Y-113124389D01*
X184418764Y-113105447D01*
X184430316Y-113083836D01*
X184432500Y-113076635D01*
X184434684Y-113083835D01*
X184434684Y-113083835D01*
G37*
G36*
X184434684Y-112583835D02*
X184446235Y-112605446D01*
X184461780Y-112624388D01*
X184480722Y-112639933D01*
X184502330Y-112651483D01*
X184504025Y-112652185D01*
X184528757Y-112668710D01*
X184549790Y-112689743D01*
X184566315Y-112714475D01*
X184577698Y-112741955D01*
X184583500Y-112771128D01*
X184583500Y-112800872D01*
X184577698Y-112830045D01*
X184566315Y-112857525D01*
X184549790Y-112882257D01*
X184528757Y-112903290D01*
X184504025Y-112919815D01*
X184502330Y-112920517D01*
X184480723Y-112932066D01*
X184461781Y-112947611D01*
X184446236Y-112966553D01*
X184434684Y-112988164D01*
X184432500Y-112995365D01*
X184430316Y-112988165D01*
X184418765Y-112966554D01*
X184403220Y-112947612D01*
X184384278Y-112932067D01*
X184362670Y-112920517D01*
X184360975Y-112919815D01*
X184336243Y-112903290D01*
X184315210Y-112882257D01*
X184298685Y-112857525D01*
X184287302Y-112830045D01*
X184281500Y-112800872D01*
X184281500Y-112771128D01*
X184287302Y-112741955D01*
X184298685Y-112714475D01*
X184315210Y-112689743D01*
X184336243Y-112668710D01*
X184360975Y-112652185D01*
X184362670Y-112651483D01*
X184384277Y-112639934D01*
X184403219Y-112624389D01*
X184418764Y-112605447D01*
X184430316Y-112583836D01*
X184432500Y-112576635D01*
X184434684Y-112583835D01*
X184434684Y-112583835D01*
G37*
G36*
X114434684Y-112583835D02*
X114446235Y-112605446D01*
X114461780Y-112624388D01*
X114480722Y-112639933D01*
X114502330Y-112651483D01*
X114504025Y-112652185D01*
X114528757Y-112668710D01*
X114549790Y-112689743D01*
X114566315Y-112714475D01*
X114577698Y-112741955D01*
X114583500Y-112771128D01*
X114583500Y-112800872D01*
X114577698Y-112830045D01*
X114566315Y-112857525D01*
X114549790Y-112882257D01*
X114528757Y-112903290D01*
X114504025Y-112919815D01*
X114502330Y-112920517D01*
X114480723Y-112932066D01*
X114461781Y-112947611D01*
X114446236Y-112966553D01*
X114434684Y-112988164D01*
X114432500Y-112995365D01*
X114430316Y-112988165D01*
X114418765Y-112966554D01*
X114403220Y-112947612D01*
X114384278Y-112932067D01*
X114362670Y-112920517D01*
X114360975Y-112919815D01*
X114336243Y-112903290D01*
X114315210Y-112882257D01*
X114298685Y-112857525D01*
X114287302Y-112830045D01*
X114281500Y-112800872D01*
X114281500Y-112771128D01*
X114287302Y-112741955D01*
X114298685Y-112714475D01*
X114315210Y-112689743D01*
X114336243Y-112668710D01*
X114360975Y-112652185D01*
X114362670Y-112651483D01*
X114384277Y-112639934D01*
X114403219Y-112624389D01*
X114418764Y-112605447D01*
X114430316Y-112583836D01*
X114432500Y-112576635D01*
X114434684Y-112583835D01*
X114434684Y-112583835D01*
G37*
G36*
X115074684Y-112583835D02*
X115086235Y-112605446D01*
X115101780Y-112624388D01*
X115120722Y-112639933D01*
X115142330Y-112651483D01*
X115144025Y-112652185D01*
X115168757Y-112668710D01*
X115189790Y-112689743D01*
X115206315Y-112714475D01*
X115217698Y-112741955D01*
X115223500Y-112771128D01*
X115223500Y-112800872D01*
X115217698Y-112830045D01*
X115206315Y-112857525D01*
X115189790Y-112882257D01*
X115168757Y-112903290D01*
X115144025Y-112919815D01*
X115142330Y-112920517D01*
X115120723Y-112932066D01*
X115101781Y-112947611D01*
X115086236Y-112966553D01*
X115074684Y-112988164D01*
X115072500Y-112995365D01*
X115070316Y-112988165D01*
X115058765Y-112966554D01*
X115043220Y-112947612D01*
X115024278Y-112932067D01*
X115002670Y-112920517D01*
X115000975Y-112919815D01*
X114976243Y-112903290D01*
X114955210Y-112882257D01*
X114938685Y-112857525D01*
X114927302Y-112830045D01*
X114921500Y-112800872D01*
X114921500Y-112771128D01*
X114927302Y-112741955D01*
X114938685Y-112714475D01*
X114955210Y-112689743D01*
X114976243Y-112668710D01*
X115000975Y-112652185D01*
X115002670Y-112651483D01*
X115024277Y-112639934D01*
X115043219Y-112624389D01*
X115058764Y-112605447D01*
X115070316Y-112583836D01*
X115072500Y-112576635D01*
X115074684Y-112583835D01*
X115074684Y-112583835D01*
G37*
G36*
X115714684Y-112583835D02*
X115726235Y-112605446D01*
X115741780Y-112624388D01*
X115760722Y-112639933D01*
X115782330Y-112651483D01*
X115784025Y-112652185D01*
X115808757Y-112668710D01*
X115829790Y-112689743D01*
X115846315Y-112714475D01*
X115857698Y-112741955D01*
X115863500Y-112771128D01*
X115863500Y-112800872D01*
X115857698Y-112830045D01*
X115846315Y-112857525D01*
X115829790Y-112882257D01*
X115808757Y-112903290D01*
X115784025Y-112919815D01*
X115782330Y-112920517D01*
X115760723Y-112932066D01*
X115741781Y-112947611D01*
X115726236Y-112966553D01*
X115714684Y-112988164D01*
X115712500Y-112995365D01*
X115710316Y-112988165D01*
X115698765Y-112966554D01*
X115683220Y-112947612D01*
X115664278Y-112932067D01*
X115642670Y-112920517D01*
X115640975Y-112919815D01*
X115616243Y-112903290D01*
X115595210Y-112882257D01*
X115578685Y-112857525D01*
X115567302Y-112830045D01*
X115561500Y-112800872D01*
X115561500Y-112771128D01*
X115567302Y-112741955D01*
X115578685Y-112714475D01*
X115595210Y-112689743D01*
X115616243Y-112668710D01*
X115640975Y-112652185D01*
X115642670Y-112651483D01*
X115664277Y-112639934D01*
X115683219Y-112624389D01*
X115698764Y-112605447D01*
X115710316Y-112583836D01*
X115712500Y-112576635D01*
X115714684Y-112583835D01*
X115714684Y-112583835D01*
G37*
G36*
X116354684Y-112583835D02*
X116366235Y-112605446D01*
X116381780Y-112624388D01*
X116400722Y-112639933D01*
X116422330Y-112651483D01*
X116424025Y-112652185D01*
X116448757Y-112668710D01*
X116469790Y-112689743D01*
X116486315Y-112714475D01*
X116497698Y-112741955D01*
X116503500Y-112771128D01*
X116503500Y-112800872D01*
X116497698Y-112830045D01*
X116486315Y-112857525D01*
X116469790Y-112882257D01*
X116448757Y-112903290D01*
X116424025Y-112919815D01*
X116422330Y-112920517D01*
X116400723Y-112932066D01*
X116381781Y-112947611D01*
X116366236Y-112966553D01*
X116354684Y-112988164D01*
X116352500Y-112995365D01*
X116350316Y-112988165D01*
X116338765Y-112966554D01*
X116323220Y-112947612D01*
X116304278Y-112932067D01*
X116282670Y-112920517D01*
X116280975Y-112919815D01*
X116256243Y-112903290D01*
X116235210Y-112882257D01*
X116218685Y-112857525D01*
X116207302Y-112830045D01*
X116201500Y-112800872D01*
X116201500Y-112771128D01*
X116207302Y-112741955D01*
X116218685Y-112714475D01*
X116235210Y-112689743D01*
X116256243Y-112668710D01*
X116280975Y-112652185D01*
X116282670Y-112651483D01*
X116304277Y-112639934D01*
X116323219Y-112624389D01*
X116338764Y-112605447D01*
X116350316Y-112583836D01*
X116352500Y-112576635D01*
X116354684Y-112583835D01*
X116354684Y-112583835D01*
G37*
G36*
X116994684Y-112583835D02*
X117006235Y-112605446D01*
X117021780Y-112624388D01*
X117040722Y-112639933D01*
X117062330Y-112651483D01*
X117064025Y-112652185D01*
X117088757Y-112668710D01*
X117109790Y-112689743D01*
X117126315Y-112714475D01*
X117137698Y-112741955D01*
X117143500Y-112771128D01*
X117143500Y-112800872D01*
X117137698Y-112830045D01*
X117126315Y-112857525D01*
X117109790Y-112882257D01*
X117088757Y-112903290D01*
X117064025Y-112919815D01*
X117062330Y-112920517D01*
X117040723Y-112932066D01*
X117021781Y-112947611D01*
X117006236Y-112966553D01*
X116994684Y-112988164D01*
X116992500Y-112995365D01*
X116990316Y-112988165D01*
X116978765Y-112966554D01*
X116963220Y-112947612D01*
X116944278Y-112932067D01*
X116922670Y-112920517D01*
X116920975Y-112919815D01*
X116896243Y-112903290D01*
X116875210Y-112882257D01*
X116858685Y-112857525D01*
X116847302Y-112830045D01*
X116841500Y-112800872D01*
X116841500Y-112771128D01*
X116847302Y-112741955D01*
X116858685Y-112714475D01*
X116875210Y-112689743D01*
X116896243Y-112668710D01*
X116920975Y-112652185D01*
X116922670Y-112651483D01*
X116944277Y-112639934D01*
X116963219Y-112624389D01*
X116978764Y-112605447D01*
X116990316Y-112583836D01*
X116992500Y-112576635D01*
X116994684Y-112583835D01*
X116994684Y-112583835D01*
G37*
G36*
X183154684Y-112583835D02*
X183166235Y-112605446D01*
X183181780Y-112624388D01*
X183200722Y-112639933D01*
X183222330Y-112651483D01*
X183224025Y-112652185D01*
X183248757Y-112668710D01*
X183269790Y-112689743D01*
X183286315Y-112714475D01*
X183297698Y-112741955D01*
X183303500Y-112771128D01*
X183303500Y-112800872D01*
X183297698Y-112830045D01*
X183286315Y-112857525D01*
X183269790Y-112882257D01*
X183248757Y-112903290D01*
X183224025Y-112919815D01*
X183222330Y-112920517D01*
X183200723Y-112932066D01*
X183181781Y-112947611D01*
X183166236Y-112966553D01*
X183154684Y-112988164D01*
X183152500Y-112995365D01*
X183150316Y-112988165D01*
X183138765Y-112966554D01*
X183123220Y-112947612D01*
X183104278Y-112932067D01*
X183082670Y-112920517D01*
X183080975Y-112919815D01*
X183056243Y-112903290D01*
X183035210Y-112882257D01*
X183018685Y-112857525D01*
X183007302Y-112830045D01*
X183001500Y-112800872D01*
X183001500Y-112771128D01*
X183007302Y-112741955D01*
X183018685Y-112714475D01*
X183035210Y-112689743D01*
X183056243Y-112668710D01*
X183080975Y-112652185D01*
X183082670Y-112651483D01*
X183104277Y-112639934D01*
X183123219Y-112624389D01*
X183138764Y-112605447D01*
X183150316Y-112583836D01*
X183152500Y-112576635D01*
X183154684Y-112583835D01*
X183154684Y-112583835D01*
G37*
G36*
X183794684Y-112583835D02*
X183806235Y-112605446D01*
X183821780Y-112624388D01*
X183840722Y-112639933D01*
X183862330Y-112651483D01*
X183864025Y-112652185D01*
X183888757Y-112668710D01*
X183909790Y-112689743D01*
X183926315Y-112714475D01*
X183937698Y-112741955D01*
X183943500Y-112771128D01*
X183943500Y-112800872D01*
X183937698Y-112830045D01*
X183926315Y-112857525D01*
X183909790Y-112882257D01*
X183888757Y-112903290D01*
X183864025Y-112919815D01*
X183862330Y-112920517D01*
X183840723Y-112932066D01*
X183821781Y-112947611D01*
X183806236Y-112966553D01*
X183794684Y-112988164D01*
X183792500Y-112995365D01*
X183790316Y-112988165D01*
X183778765Y-112966554D01*
X183763220Y-112947612D01*
X183744278Y-112932067D01*
X183722670Y-112920517D01*
X183720975Y-112919815D01*
X183696243Y-112903290D01*
X183675210Y-112882257D01*
X183658685Y-112857525D01*
X183647302Y-112830045D01*
X183641500Y-112800872D01*
X183641500Y-112771128D01*
X183647302Y-112741955D01*
X183658685Y-112714475D01*
X183675210Y-112689743D01*
X183696243Y-112668710D01*
X183720975Y-112652185D01*
X183722670Y-112651483D01*
X183744277Y-112639934D01*
X183763219Y-112624389D01*
X183778764Y-112605447D01*
X183790316Y-112583836D01*
X183792500Y-112576635D01*
X183794684Y-112583835D01*
X183794684Y-112583835D01*
G37*
G36*
X185074684Y-112583835D02*
X185086235Y-112605446D01*
X185101780Y-112624388D01*
X185120722Y-112639933D01*
X185142330Y-112651483D01*
X185144025Y-112652185D01*
X185168757Y-112668710D01*
X185189790Y-112689743D01*
X185206315Y-112714475D01*
X185217698Y-112741955D01*
X185223500Y-112771128D01*
X185223500Y-112800872D01*
X185217698Y-112830045D01*
X185206315Y-112857525D01*
X185189790Y-112882257D01*
X185168757Y-112903290D01*
X185144025Y-112919815D01*
X185142330Y-112920517D01*
X185120723Y-112932066D01*
X185101781Y-112947611D01*
X185086236Y-112966553D01*
X185074684Y-112988164D01*
X185072500Y-112995365D01*
X185070316Y-112988165D01*
X185058765Y-112966554D01*
X185043220Y-112947612D01*
X185024278Y-112932067D01*
X185002670Y-112920517D01*
X185000975Y-112919815D01*
X184976243Y-112903290D01*
X184955210Y-112882257D01*
X184938685Y-112857525D01*
X184927302Y-112830045D01*
X184921500Y-112800872D01*
X184921500Y-112771128D01*
X184927302Y-112741955D01*
X184938685Y-112714475D01*
X184955210Y-112689743D01*
X184976243Y-112668710D01*
X185000975Y-112652185D01*
X185002670Y-112651483D01*
X185024277Y-112639934D01*
X185043219Y-112624389D01*
X185058764Y-112605447D01*
X185070316Y-112583836D01*
X185072500Y-112576635D01*
X185074684Y-112583835D01*
X185074684Y-112583835D01*
G37*
G36*
X185714684Y-112583835D02*
X185726235Y-112605446D01*
X185741780Y-112624388D01*
X185760722Y-112639933D01*
X185782330Y-112651483D01*
X185784025Y-112652185D01*
X185808757Y-112668710D01*
X185829790Y-112689743D01*
X185846315Y-112714475D01*
X185857698Y-112741955D01*
X185863500Y-112771128D01*
X185863500Y-112800872D01*
X185857698Y-112830045D01*
X185846315Y-112857525D01*
X185829790Y-112882257D01*
X185808757Y-112903290D01*
X185784025Y-112919815D01*
X185782330Y-112920517D01*
X185760723Y-112932066D01*
X185741781Y-112947611D01*
X185726236Y-112966553D01*
X185714684Y-112988164D01*
X185712500Y-112995365D01*
X185710316Y-112988165D01*
X185698765Y-112966554D01*
X185683220Y-112947612D01*
X185664278Y-112932067D01*
X185642670Y-112920517D01*
X185640975Y-112919815D01*
X185616243Y-112903290D01*
X185595210Y-112882257D01*
X185578685Y-112857525D01*
X185567302Y-112830045D01*
X185561500Y-112800872D01*
X185561500Y-112771128D01*
X185567302Y-112741955D01*
X185578685Y-112714475D01*
X185595210Y-112689743D01*
X185616243Y-112668710D01*
X185640975Y-112652185D01*
X185642670Y-112651483D01*
X185664277Y-112639934D01*
X185683219Y-112624389D01*
X185698764Y-112605447D01*
X185710316Y-112583836D01*
X185712500Y-112576635D01*
X185714684Y-112583835D01*
X185714684Y-112583835D01*
G37*
G36*
X186354684Y-112583835D02*
X186366235Y-112605446D01*
X186381780Y-112624388D01*
X186400722Y-112639933D01*
X186422330Y-112651483D01*
X186424025Y-112652185D01*
X186448757Y-112668710D01*
X186469790Y-112689743D01*
X186486315Y-112714475D01*
X186497698Y-112741955D01*
X186503500Y-112771128D01*
X186503500Y-112800872D01*
X186497698Y-112830045D01*
X186486315Y-112857525D01*
X186469790Y-112882257D01*
X186448757Y-112903290D01*
X186424025Y-112919815D01*
X186422330Y-112920517D01*
X186400723Y-112932066D01*
X186381781Y-112947611D01*
X186366236Y-112966553D01*
X186354684Y-112988164D01*
X186352500Y-112995365D01*
X186350316Y-112988165D01*
X186338765Y-112966554D01*
X186323220Y-112947612D01*
X186304278Y-112932067D01*
X186282670Y-112920517D01*
X186280975Y-112919815D01*
X186256243Y-112903290D01*
X186235210Y-112882257D01*
X186218685Y-112857525D01*
X186207302Y-112830045D01*
X186201500Y-112800872D01*
X186201500Y-112771128D01*
X186207302Y-112741955D01*
X186218685Y-112714475D01*
X186235210Y-112689743D01*
X186256243Y-112668710D01*
X186280975Y-112652185D01*
X186282670Y-112651483D01*
X186304277Y-112639934D01*
X186323219Y-112624389D01*
X186338764Y-112605447D01*
X186350316Y-112583836D01*
X186352500Y-112576635D01*
X186354684Y-112583835D01*
X186354684Y-112583835D01*
G37*
G36*
X186994684Y-112583835D02*
X187006235Y-112605446D01*
X187021780Y-112624388D01*
X187040722Y-112639933D01*
X187062330Y-112651483D01*
X187064025Y-112652185D01*
X187088757Y-112668710D01*
X187109790Y-112689743D01*
X187126315Y-112714475D01*
X187137698Y-112741955D01*
X187143500Y-112771128D01*
X187143500Y-112800872D01*
X187137698Y-112830045D01*
X187126315Y-112857525D01*
X187109790Y-112882257D01*
X187088757Y-112903290D01*
X187064025Y-112919815D01*
X187062330Y-112920517D01*
X187040723Y-112932066D01*
X187021781Y-112947611D01*
X187006236Y-112966553D01*
X186994684Y-112988164D01*
X186992500Y-112995365D01*
X186990316Y-112988165D01*
X186978765Y-112966554D01*
X186963220Y-112947612D01*
X186944278Y-112932067D01*
X186922670Y-112920517D01*
X186920975Y-112919815D01*
X186896243Y-112903290D01*
X186875210Y-112882257D01*
X186858685Y-112857525D01*
X186847302Y-112830045D01*
X186841500Y-112800872D01*
X186841500Y-112771128D01*
X186847302Y-112741955D01*
X186858685Y-112714475D01*
X186875210Y-112689743D01*
X186896243Y-112668710D01*
X186920975Y-112652185D01*
X186922670Y-112651483D01*
X186944277Y-112639934D01*
X186963219Y-112624389D01*
X186978764Y-112605447D01*
X186990316Y-112583836D01*
X186992500Y-112576635D01*
X186994684Y-112583835D01*
X186994684Y-112583835D01*
G37*
G36*
X113794684Y-112583835D02*
X113806235Y-112605446D01*
X113821780Y-112624388D01*
X113840722Y-112639933D01*
X113862330Y-112651483D01*
X113864025Y-112652185D01*
X113888757Y-112668710D01*
X113909790Y-112689743D01*
X113926315Y-112714475D01*
X113937698Y-112741955D01*
X113943500Y-112771128D01*
X113943500Y-112800872D01*
X113937698Y-112830045D01*
X113926315Y-112857525D01*
X113909790Y-112882257D01*
X113888757Y-112903290D01*
X113864025Y-112919815D01*
X113862330Y-112920517D01*
X113840723Y-112932066D01*
X113821781Y-112947611D01*
X113806236Y-112966553D01*
X113794684Y-112988164D01*
X113792500Y-112995365D01*
X113790316Y-112988165D01*
X113778765Y-112966554D01*
X113763220Y-112947612D01*
X113744278Y-112932067D01*
X113722670Y-112920517D01*
X113720975Y-112919815D01*
X113696243Y-112903290D01*
X113675210Y-112882257D01*
X113658685Y-112857525D01*
X113647302Y-112830045D01*
X113641500Y-112800872D01*
X113641500Y-112771128D01*
X113647302Y-112741955D01*
X113658685Y-112714475D01*
X113675210Y-112689743D01*
X113696243Y-112668710D01*
X113720975Y-112652185D01*
X113722670Y-112651483D01*
X113744277Y-112639934D01*
X113763219Y-112624389D01*
X113778764Y-112605447D01*
X113790316Y-112583836D01*
X113792500Y-112576635D01*
X113794684Y-112583835D01*
X113794684Y-112583835D01*
G37*
G36*
X113154684Y-112583835D02*
X113166235Y-112605446D01*
X113181780Y-112624388D01*
X113200722Y-112639933D01*
X113222330Y-112651483D01*
X113224025Y-112652185D01*
X113248757Y-112668710D01*
X113269790Y-112689743D01*
X113286315Y-112714475D01*
X113297698Y-112741955D01*
X113303500Y-112771128D01*
X113303500Y-112800872D01*
X113297698Y-112830045D01*
X113286315Y-112857525D01*
X113269790Y-112882257D01*
X113248757Y-112903290D01*
X113224025Y-112919815D01*
X113222330Y-112920517D01*
X113200723Y-112932066D01*
X113181781Y-112947611D01*
X113166236Y-112966553D01*
X113154684Y-112988164D01*
X113152500Y-112995365D01*
X113150316Y-112988165D01*
X113138765Y-112966554D01*
X113123220Y-112947612D01*
X113104278Y-112932067D01*
X113082670Y-112920517D01*
X113080975Y-112919815D01*
X113056243Y-112903290D01*
X113035210Y-112882257D01*
X113018685Y-112857525D01*
X113007302Y-112830045D01*
X113001500Y-112800872D01*
X113001500Y-112771128D01*
X113007302Y-112741955D01*
X113018685Y-112714475D01*
X113035210Y-112689743D01*
X113056243Y-112668710D01*
X113080975Y-112652185D01*
X113082670Y-112651483D01*
X113104277Y-112639934D01*
X113123219Y-112624389D01*
X113138764Y-112605447D01*
X113150316Y-112583836D01*
X113152500Y-112576635D01*
X113154684Y-112583835D01*
X113154684Y-112583835D01*
G37*
G36*
X112514684Y-112583835D02*
X112526235Y-112605446D01*
X112541780Y-112624388D01*
X112560722Y-112639933D01*
X112582330Y-112651483D01*
X112584025Y-112652185D01*
X112608757Y-112668710D01*
X112629790Y-112689743D01*
X112646315Y-112714475D01*
X112657698Y-112741955D01*
X112663500Y-112771128D01*
X112663500Y-112800872D01*
X112657698Y-112830045D01*
X112646315Y-112857525D01*
X112629790Y-112882257D01*
X112608757Y-112903290D01*
X112584025Y-112919815D01*
X112582330Y-112920517D01*
X112560723Y-112932066D01*
X112541781Y-112947611D01*
X112526236Y-112966553D01*
X112514684Y-112988164D01*
X112512500Y-112995365D01*
X112510316Y-112988165D01*
X112498765Y-112966554D01*
X112483220Y-112947612D01*
X112464278Y-112932067D01*
X112442670Y-112920517D01*
X112440975Y-112919815D01*
X112416243Y-112903290D01*
X112395210Y-112882257D01*
X112378685Y-112857525D01*
X112367302Y-112830045D01*
X112361500Y-112800872D01*
X112361500Y-112771128D01*
X112367302Y-112741955D01*
X112378685Y-112714475D01*
X112395210Y-112689743D01*
X112416243Y-112668710D01*
X112440975Y-112652185D01*
X112442670Y-112651483D01*
X112464277Y-112639934D01*
X112483219Y-112624389D01*
X112498764Y-112605447D01*
X112510316Y-112583836D01*
X112512500Y-112576635D01*
X112514684Y-112583835D01*
X112514684Y-112583835D01*
G37*
G36*
X182514684Y-112583835D02*
X182526235Y-112605446D01*
X182541780Y-112624388D01*
X182560722Y-112639933D01*
X182582330Y-112651483D01*
X182584025Y-112652185D01*
X182608757Y-112668710D01*
X182629790Y-112689743D01*
X182646315Y-112714475D01*
X182657698Y-112741955D01*
X182663500Y-112771128D01*
X182663500Y-112800872D01*
X182657698Y-112830045D01*
X182646315Y-112857525D01*
X182629790Y-112882257D01*
X182608757Y-112903290D01*
X182584025Y-112919815D01*
X182582330Y-112920517D01*
X182560723Y-112932066D01*
X182541781Y-112947611D01*
X182526236Y-112966553D01*
X182514684Y-112988164D01*
X182512500Y-112995365D01*
X182510316Y-112988165D01*
X182498765Y-112966554D01*
X182483220Y-112947612D01*
X182464278Y-112932067D01*
X182442670Y-112920517D01*
X182440975Y-112919815D01*
X182416243Y-112903290D01*
X182395210Y-112882257D01*
X182378685Y-112857525D01*
X182367302Y-112830045D01*
X182361500Y-112800872D01*
X182361500Y-112771128D01*
X182367302Y-112741955D01*
X182378685Y-112714475D01*
X182395210Y-112689743D01*
X182416243Y-112668710D01*
X182440975Y-112652185D01*
X182442670Y-112651483D01*
X182464277Y-112639934D01*
X182483219Y-112624389D01*
X182498764Y-112605447D01*
X182510316Y-112583836D01*
X182512500Y-112576635D01*
X182514684Y-112583835D01*
X182514684Y-112583835D01*
G37*
G36*
X115074684Y-112083835D02*
X115086235Y-112105446D01*
X115101780Y-112124388D01*
X115120722Y-112139933D01*
X115142330Y-112151483D01*
X115144025Y-112152185D01*
X115168757Y-112168710D01*
X115189790Y-112189743D01*
X115206315Y-112214475D01*
X115217698Y-112241955D01*
X115223500Y-112271128D01*
X115223500Y-112300872D01*
X115217698Y-112330045D01*
X115206315Y-112357525D01*
X115189790Y-112382257D01*
X115168757Y-112403290D01*
X115144025Y-112419815D01*
X115142330Y-112420517D01*
X115120723Y-112432066D01*
X115101781Y-112447611D01*
X115086236Y-112466553D01*
X115074684Y-112488164D01*
X115072500Y-112495365D01*
X115070316Y-112488165D01*
X115058765Y-112466554D01*
X115043220Y-112447612D01*
X115024278Y-112432067D01*
X115002670Y-112420517D01*
X115000975Y-112419815D01*
X114976243Y-112403290D01*
X114955210Y-112382257D01*
X114938685Y-112357525D01*
X114927302Y-112330045D01*
X114921500Y-112300872D01*
X114921500Y-112271128D01*
X114927302Y-112241955D01*
X114938685Y-112214475D01*
X114955210Y-112189743D01*
X114976243Y-112168710D01*
X115000975Y-112152185D01*
X115002670Y-112151483D01*
X115024277Y-112139934D01*
X115043219Y-112124389D01*
X115058764Y-112105447D01*
X115070316Y-112083836D01*
X115072500Y-112076635D01*
X115074684Y-112083835D01*
X115074684Y-112083835D01*
G37*
G36*
X183794684Y-112083835D02*
X183806235Y-112105446D01*
X183821780Y-112124388D01*
X183840722Y-112139933D01*
X183862330Y-112151483D01*
X183864025Y-112152185D01*
X183888757Y-112168710D01*
X183909790Y-112189743D01*
X183926315Y-112214475D01*
X183937698Y-112241955D01*
X183943500Y-112271128D01*
X183943500Y-112300872D01*
X183937698Y-112330045D01*
X183926315Y-112357525D01*
X183909790Y-112382257D01*
X183888757Y-112403290D01*
X183864025Y-112419815D01*
X183862330Y-112420517D01*
X183840723Y-112432066D01*
X183821781Y-112447611D01*
X183806236Y-112466553D01*
X183794684Y-112488164D01*
X183792500Y-112495365D01*
X183790316Y-112488165D01*
X183778765Y-112466554D01*
X183763220Y-112447612D01*
X183744278Y-112432067D01*
X183722670Y-112420517D01*
X183720975Y-112419815D01*
X183696243Y-112403290D01*
X183675210Y-112382257D01*
X183658685Y-112357525D01*
X183647302Y-112330045D01*
X183641500Y-112300872D01*
X183641500Y-112271128D01*
X183647302Y-112241955D01*
X183658685Y-112214475D01*
X183675210Y-112189743D01*
X183696243Y-112168710D01*
X183720975Y-112152185D01*
X183722670Y-112151483D01*
X183744277Y-112139934D01*
X183763219Y-112124389D01*
X183778764Y-112105447D01*
X183790316Y-112083836D01*
X183792500Y-112076635D01*
X183794684Y-112083835D01*
X183794684Y-112083835D01*
G37*
G36*
X183154684Y-112083835D02*
X183166235Y-112105446D01*
X183181780Y-112124388D01*
X183200722Y-112139933D01*
X183222330Y-112151483D01*
X183224025Y-112152185D01*
X183248757Y-112168710D01*
X183269790Y-112189743D01*
X183286315Y-112214475D01*
X183297698Y-112241955D01*
X183303500Y-112271128D01*
X183303500Y-112300872D01*
X183297698Y-112330045D01*
X183286315Y-112357525D01*
X183269790Y-112382257D01*
X183248757Y-112403290D01*
X183224025Y-112419815D01*
X183222330Y-112420517D01*
X183200723Y-112432066D01*
X183181781Y-112447611D01*
X183166236Y-112466553D01*
X183154684Y-112488164D01*
X183152500Y-112495365D01*
X183150316Y-112488165D01*
X183138765Y-112466554D01*
X183123220Y-112447612D01*
X183104278Y-112432067D01*
X183082670Y-112420517D01*
X183080975Y-112419815D01*
X183056243Y-112403290D01*
X183035210Y-112382257D01*
X183018685Y-112357525D01*
X183007302Y-112330045D01*
X183001500Y-112300872D01*
X183001500Y-112271128D01*
X183007302Y-112241955D01*
X183018685Y-112214475D01*
X183035210Y-112189743D01*
X183056243Y-112168710D01*
X183080975Y-112152185D01*
X183082670Y-112151483D01*
X183104277Y-112139934D01*
X183123219Y-112124389D01*
X183138764Y-112105447D01*
X183150316Y-112083836D01*
X183152500Y-112076635D01*
X183154684Y-112083835D01*
X183154684Y-112083835D01*
G37*
G36*
X182514684Y-112083835D02*
X182526235Y-112105446D01*
X182541780Y-112124388D01*
X182560722Y-112139933D01*
X182582330Y-112151483D01*
X182584025Y-112152185D01*
X182608757Y-112168710D01*
X182629790Y-112189743D01*
X182646315Y-112214475D01*
X182657698Y-112241955D01*
X182663500Y-112271128D01*
X182663500Y-112300872D01*
X182657698Y-112330045D01*
X182646315Y-112357525D01*
X182629790Y-112382257D01*
X182608757Y-112403290D01*
X182584025Y-112419815D01*
X182582330Y-112420517D01*
X182560723Y-112432066D01*
X182541781Y-112447611D01*
X182526236Y-112466553D01*
X182514684Y-112488164D01*
X182512500Y-112495365D01*
X182510316Y-112488165D01*
X182498765Y-112466554D01*
X182483220Y-112447612D01*
X182464278Y-112432067D01*
X182442670Y-112420517D01*
X182440975Y-112419815D01*
X182416243Y-112403290D01*
X182395210Y-112382257D01*
X182378685Y-112357525D01*
X182367302Y-112330045D01*
X182361500Y-112300872D01*
X182361500Y-112271128D01*
X182367302Y-112241955D01*
X182378685Y-112214475D01*
X182395210Y-112189743D01*
X182416243Y-112168710D01*
X182440975Y-112152185D01*
X182442670Y-112151483D01*
X182464277Y-112139934D01*
X182483219Y-112124389D01*
X182498764Y-112105447D01*
X182510316Y-112083836D01*
X182512500Y-112076635D01*
X182514684Y-112083835D01*
X182514684Y-112083835D01*
G37*
G36*
X116994684Y-112083835D02*
X117006235Y-112105446D01*
X117021780Y-112124388D01*
X117040722Y-112139933D01*
X117062330Y-112151483D01*
X117064025Y-112152185D01*
X117088757Y-112168710D01*
X117109790Y-112189743D01*
X117126315Y-112214475D01*
X117137698Y-112241955D01*
X117143500Y-112271128D01*
X117143500Y-112300872D01*
X117137698Y-112330045D01*
X117126315Y-112357525D01*
X117109790Y-112382257D01*
X117088757Y-112403290D01*
X117064025Y-112419815D01*
X117062330Y-112420517D01*
X117040723Y-112432066D01*
X117021781Y-112447611D01*
X117006236Y-112466553D01*
X116994684Y-112488164D01*
X116992500Y-112495365D01*
X116990316Y-112488165D01*
X116978765Y-112466554D01*
X116963220Y-112447612D01*
X116944278Y-112432067D01*
X116922670Y-112420517D01*
X116920975Y-112419815D01*
X116896243Y-112403290D01*
X116875210Y-112382257D01*
X116858685Y-112357525D01*
X116847302Y-112330045D01*
X116841500Y-112300872D01*
X116841500Y-112271128D01*
X116847302Y-112241955D01*
X116858685Y-112214475D01*
X116875210Y-112189743D01*
X116896243Y-112168710D01*
X116920975Y-112152185D01*
X116922670Y-112151483D01*
X116944277Y-112139934D01*
X116963219Y-112124389D01*
X116978764Y-112105447D01*
X116990316Y-112083836D01*
X116992500Y-112076635D01*
X116994684Y-112083835D01*
X116994684Y-112083835D01*
G37*
G36*
X116354684Y-112083835D02*
X116366235Y-112105446D01*
X116381780Y-112124388D01*
X116400722Y-112139933D01*
X116422330Y-112151483D01*
X116424025Y-112152185D01*
X116448757Y-112168710D01*
X116469790Y-112189743D01*
X116486315Y-112214475D01*
X116497698Y-112241955D01*
X116503500Y-112271128D01*
X116503500Y-112300872D01*
X116497698Y-112330045D01*
X116486315Y-112357525D01*
X116469790Y-112382257D01*
X116448757Y-112403290D01*
X116424025Y-112419815D01*
X116422330Y-112420517D01*
X116400723Y-112432066D01*
X116381781Y-112447611D01*
X116366236Y-112466553D01*
X116354684Y-112488164D01*
X116352500Y-112495365D01*
X116350316Y-112488165D01*
X116338765Y-112466554D01*
X116323220Y-112447612D01*
X116304278Y-112432067D01*
X116282670Y-112420517D01*
X116280975Y-112419815D01*
X116256243Y-112403290D01*
X116235210Y-112382257D01*
X116218685Y-112357525D01*
X116207302Y-112330045D01*
X116201500Y-112300872D01*
X116201500Y-112271128D01*
X116207302Y-112241955D01*
X116218685Y-112214475D01*
X116235210Y-112189743D01*
X116256243Y-112168710D01*
X116280975Y-112152185D01*
X116282670Y-112151483D01*
X116304277Y-112139934D01*
X116323219Y-112124389D01*
X116338764Y-112105447D01*
X116350316Y-112083836D01*
X116352500Y-112076635D01*
X116354684Y-112083835D01*
X116354684Y-112083835D01*
G37*
G36*
X115714684Y-112083835D02*
X115726235Y-112105446D01*
X115741780Y-112124388D01*
X115760722Y-112139933D01*
X115782330Y-112151483D01*
X115784025Y-112152185D01*
X115808757Y-112168710D01*
X115829790Y-112189743D01*
X115846315Y-112214475D01*
X115857698Y-112241955D01*
X115863500Y-112271128D01*
X115863500Y-112300872D01*
X115857698Y-112330045D01*
X115846315Y-112357525D01*
X115829790Y-112382257D01*
X115808757Y-112403290D01*
X115784025Y-112419815D01*
X115782330Y-112420517D01*
X115760723Y-112432066D01*
X115741781Y-112447611D01*
X115726236Y-112466553D01*
X115714684Y-112488164D01*
X115712500Y-112495365D01*
X115710316Y-112488165D01*
X115698765Y-112466554D01*
X115683220Y-112447612D01*
X115664278Y-112432067D01*
X115642670Y-112420517D01*
X115640975Y-112419815D01*
X115616243Y-112403290D01*
X115595210Y-112382257D01*
X115578685Y-112357525D01*
X115567302Y-112330045D01*
X115561500Y-112300872D01*
X115561500Y-112271128D01*
X115567302Y-112241955D01*
X115578685Y-112214475D01*
X115595210Y-112189743D01*
X115616243Y-112168710D01*
X115640975Y-112152185D01*
X115642670Y-112151483D01*
X115664277Y-112139934D01*
X115683219Y-112124389D01*
X115698764Y-112105447D01*
X115710316Y-112083836D01*
X115712500Y-112076635D01*
X115714684Y-112083835D01*
X115714684Y-112083835D01*
G37*
G36*
X114434684Y-112083835D02*
X114446235Y-112105446D01*
X114461780Y-112124388D01*
X114480722Y-112139933D01*
X114502330Y-112151483D01*
X114504025Y-112152185D01*
X114528757Y-112168710D01*
X114549790Y-112189743D01*
X114566315Y-112214475D01*
X114577698Y-112241955D01*
X114583500Y-112271128D01*
X114583500Y-112300872D01*
X114577698Y-112330045D01*
X114566315Y-112357525D01*
X114549790Y-112382257D01*
X114528757Y-112403290D01*
X114504025Y-112419815D01*
X114502330Y-112420517D01*
X114480723Y-112432066D01*
X114461781Y-112447611D01*
X114446236Y-112466553D01*
X114434684Y-112488164D01*
X114432500Y-112495365D01*
X114430316Y-112488165D01*
X114418765Y-112466554D01*
X114403220Y-112447612D01*
X114384278Y-112432067D01*
X114362670Y-112420517D01*
X114360975Y-112419815D01*
X114336243Y-112403290D01*
X114315210Y-112382257D01*
X114298685Y-112357525D01*
X114287302Y-112330045D01*
X114281500Y-112300872D01*
X114281500Y-112271128D01*
X114287302Y-112241955D01*
X114298685Y-112214475D01*
X114315210Y-112189743D01*
X114336243Y-112168710D01*
X114360975Y-112152185D01*
X114362670Y-112151483D01*
X114384277Y-112139934D01*
X114403219Y-112124389D01*
X114418764Y-112105447D01*
X114430316Y-112083836D01*
X114432500Y-112076635D01*
X114434684Y-112083835D01*
X114434684Y-112083835D01*
G37*
G36*
X186354684Y-112083835D02*
X186366235Y-112105446D01*
X186381780Y-112124388D01*
X186400722Y-112139933D01*
X186422330Y-112151483D01*
X186424025Y-112152185D01*
X186448757Y-112168710D01*
X186469790Y-112189743D01*
X186486315Y-112214475D01*
X186497698Y-112241955D01*
X186503500Y-112271128D01*
X186503500Y-112300872D01*
X186497698Y-112330045D01*
X186486315Y-112357525D01*
X186469790Y-112382257D01*
X186448757Y-112403290D01*
X186424025Y-112419815D01*
X186422330Y-112420517D01*
X186400723Y-112432066D01*
X186381781Y-112447611D01*
X186366236Y-112466553D01*
X186354684Y-112488164D01*
X186352500Y-112495365D01*
X186350316Y-112488165D01*
X186338765Y-112466554D01*
X186323220Y-112447612D01*
X186304278Y-112432067D01*
X186282670Y-112420517D01*
X186280975Y-112419815D01*
X186256243Y-112403290D01*
X186235210Y-112382257D01*
X186218685Y-112357525D01*
X186207302Y-112330045D01*
X186201500Y-112300872D01*
X186201500Y-112271128D01*
X186207302Y-112241955D01*
X186218685Y-112214475D01*
X186235210Y-112189743D01*
X186256243Y-112168710D01*
X186280975Y-112152185D01*
X186282670Y-112151483D01*
X186304277Y-112139934D01*
X186323219Y-112124389D01*
X186338764Y-112105447D01*
X186350316Y-112083836D01*
X186352500Y-112076635D01*
X186354684Y-112083835D01*
X186354684Y-112083835D01*
G37*
G36*
X185714684Y-112083835D02*
X185726235Y-112105446D01*
X185741780Y-112124388D01*
X185760722Y-112139933D01*
X185782330Y-112151483D01*
X185784025Y-112152185D01*
X185808757Y-112168710D01*
X185829790Y-112189743D01*
X185846315Y-112214475D01*
X185857698Y-112241955D01*
X185863500Y-112271128D01*
X185863500Y-112300872D01*
X185857698Y-112330045D01*
X185846315Y-112357525D01*
X185829790Y-112382257D01*
X185808757Y-112403290D01*
X185784025Y-112419815D01*
X185782330Y-112420517D01*
X185760723Y-112432066D01*
X185741781Y-112447611D01*
X185726236Y-112466553D01*
X185714684Y-112488164D01*
X185712500Y-112495365D01*
X185710316Y-112488165D01*
X185698765Y-112466554D01*
X185683220Y-112447612D01*
X185664278Y-112432067D01*
X185642670Y-112420517D01*
X185640975Y-112419815D01*
X185616243Y-112403290D01*
X185595210Y-112382257D01*
X185578685Y-112357525D01*
X185567302Y-112330045D01*
X185561500Y-112300872D01*
X185561500Y-112271128D01*
X185567302Y-112241955D01*
X185578685Y-112214475D01*
X185595210Y-112189743D01*
X185616243Y-112168710D01*
X185640975Y-112152185D01*
X185642670Y-112151483D01*
X185664277Y-112139934D01*
X185683219Y-112124389D01*
X185698764Y-112105447D01*
X185710316Y-112083836D01*
X185712500Y-112076635D01*
X185714684Y-112083835D01*
X185714684Y-112083835D01*
G37*
G36*
X185074684Y-112083835D02*
X185086235Y-112105446D01*
X185101780Y-112124388D01*
X185120722Y-112139933D01*
X185142330Y-112151483D01*
X185144025Y-112152185D01*
X185168757Y-112168710D01*
X185189790Y-112189743D01*
X185206315Y-112214475D01*
X185217698Y-112241955D01*
X185223500Y-112271128D01*
X185223500Y-112300872D01*
X185217698Y-112330045D01*
X185206315Y-112357525D01*
X185189790Y-112382257D01*
X185168757Y-112403290D01*
X185144025Y-112419815D01*
X185142330Y-112420517D01*
X185120723Y-112432066D01*
X185101781Y-112447611D01*
X185086236Y-112466553D01*
X185074684Y-112488164D01*
X185072500Y-112495365D01*
X185070316Y-112488165D01*
X185058765Y-112466554D01*
X185043220Y-112447612D01*
X185024278Y-112432067D01*
X185002670Y-112420517D01*
X185000975Y-112419815D01*
X184976243Y-112403290D01*
X184955210Y-112382257D01*
X184938685Y-112357525D01*
X184927302Y-112330045D01*
X184921500Y-112300872D01*
X184921500Y-112271128D01*
X184927302Y-112241955D01*
X184938685Y-112214475D01*
X184955210Y-112189743D01*
X184976243Y-112168710D01*
X185000975Y-112152185D01*
X185002670Y-112151483D01*
X185024277Y-112139934D01*
X185043219Y-112124389D01*
X185058764Y-112105447D01*
X185070316Y-112083836D01*
X185072500Y-112076635D01*
X185074684Y-112083835D01*
X185074684Y-112083835D01*
G37*
G36*
X184434684Y-112083835D02*
X184446235Y-112105446D01*
X184461780Y-112124388D01*
X184480722Y-112139933D01*
X184502330Y-112151483D01*
X184504025Y-112152185D01*
X184528757Y-112168710D01*
X184549790Y-112189743D01*
X184566315Y-112214475D01*
X184577698Y-112241955D01*
X184583500Y-112271128D01*
X184583500Y-112300872D01*
X184577698Y-112330045D01*
X184566315Y-112357525D01*
X184549790Y-112382257D01*
X184528757Y-112403290D01*
X184504025Y-112419815D01*
X184502330Y-112420517D01*
X184480723Y-112432066D01*
X184461781Y-112447611D01*
X184446236Y-112466553D01*
X184434684Y-112488164D01*
X184432500Y-112495365D01*
X184430316Y-112488165D01*
X184418765Y-112466554D01*
X184403220Y-112447612D01*
X184384278Y-112432067D01*
X184362670Y-112420517D01*
X184360975Y-112419815D01*
X184336243Y-112403290D01*
X184315210Y-112382257D01*
X184298685Y-112357525D01*
X184287302Y-112330045D01*
X184281500Y-112300872D01*
X184281500Y-112271128D01*
X184287302Y-112241955D01*
X184298685Y-112214475D01*
X184315210Y-112189743D01*
X184336243Y-112168710D01*
X184360975Y-112152185D01*
X184362670Y-112151483D01*
X184384277Y-112139934D01*
X184403219Y-112124389D01*
X184418764Y-112105447D01*
X184430316Y-112083836D01*
X184432500Y-112076635D01*
X184434684Y-112083835D01*
X184434684Y-112083835D01*
G37*
G36*
X112514684Y-112083835D02*
X112526235Y-112105446D01*
X112541780Y-112124388D01*
X112560722Y-112139933D01*
X112582330Y-112151483D01*
X112584025Y-112152185D01*
X112608757Y-112168710D01*
X112629790Y-112189743D01*
X112646315Y-112214475D01*
X112657698Y-112241955D01*
X112663500Y-112271128D01*
X112663500Y-112300872D01*
X112657698Y-112330045D01*
X112646315Y-112357525D01*
X112629790Y-112382257D01*
X112608757Y-112403290D01*
X112584025Y-112419815D01*
X112582330Y-112420517D01*
X112560723Y-112432066D01*
X112541781Y-112447611D01*
X112526236Y-112466553D01*
X112514684Y-112488164D01*
X112512500Y-112495365D01*
X112510316Y-112488165D01*
X112498765Y-112466554D01*
X112483220Y-112447612D01*
X112464278Y-112432067D01*
X112442670Y-112420517D01*
X112440975Y-112419815D01*
X112416243Y-112403290D01*
X112395210Y-112382257D01*
X112378685Y-112357525D01*
X112367302Y-112330045D01*
X112361500Y-112300872D01*
X112361500Y-112271128D01*
X112367302Y-112241955D01*
X112378685Y-112214475D01*
X112395210Y-112189743D01*
X112416243Y-112168710D01*
X112440975Y-112152185D01*
X112442670Y-112151483D01*
X112464277Y-112139934D01*
X112483219Y-112124389D01*
X112498764Y-112105447D01*
X112510316Y-112083836D01*
X112512500Y-112076635D01*
X112514684Y-112083835D01*
X112514684Y-112083835D01*
G37*
G36*
X113154684Y-112083835D02*
X113166235Y-112105446D01*
X113181780Y-112124388D01*
X113200722Y-112139933D01*
X113222330Y-112151483D01*
X113224025Y-112152185D01*
X113248757Y-112168710D01*
X113269790Y-112189743D01*
X113286315Y-112214475D01*
X113297698Y-112241955D01*
X113303500Y-112271128D01*
X113303500Y-112300872D01*
X113297698Y-112330045D01*
X113286315Y-112357525D01*
X113269790Y-112382257D01*
X113248757Y-112403290D01*
X113224025Y-112419815D01*
X113222330Y-112420517D01*
X113200723Y-112432066D01*
X113181781Y-112447611D01*
X113166236Y-112466553D01*
X113154684Y-112488164D01*
X113152500Y-112495365D01*
X113150316Y-112488165D01*
X113138765Y-112466554D01*
X113123220Y-112447612D01*
X113104278Y-112432067D01*
X113082670Y-112420517D01*
X113080975Y-112419815D01*
X113056243Y-112403290D01*
X113035210Y-112382257D01*
X113018685Y-112357525D01*
X113007302Y-112330045D01*
X113001500Y-112300872D01*
X113001500Y-112271128D01*
X113007302Y-112241955D01*
X113018685Y-112214475D01*
X113035210Y-112189743D01*
X113056243Y-112168710D01*
X113080975Y-112152185D01*
X113082670Y-112151483D01*
X113104277Y-112139934D01*
X113123219Y-112124389D01*
X113138764Y-112105447D01*
X113150316Y-112083836D01*
X113152500Y-112076635D01*
X113154684Y-112083835D01*
X113154684Y-112083835D01*
G37*
G36*
X113794684Y-112083835D02*
X113806235Y-112105446D01*
X113821780Y-112124388D01*
X113840722Y-112139933D01*
X113862330Y-112151483D01*
X113864025Y-112152185D01*
X113888757Y-112168710D01*
X113909790Y-112189743D01*
X113926315Y-112214475D01*
X113937698Y-112241955D01*
X113943500Y-112271128D01*
X113943500Y-112300872D01*
X113937698Y-112330045D01*
X113926315Y-112357525D01*
X113909790Y-112382257D01*
X113888757Y-112403290D01*
X113864025Y-112419815D01*
X113862330Y-112420517D01*
X113840723Y-112432066D01*
X113821781Y-112447611D01*
X113806236Y-112466553D01*
X113794684Y-112488164D01*
X113792500Y-112495365D01*
X113790316Y-112488165D01*
X113778765Y-112466554D01*
X113763220Y-112447612D01*
X113744278Y-112432067D01*
X113722670Y-112420517D01*
X113720975Y-112419815D01*
X113696243Y-112403290D01*
X113675210Y-112382257D01*
X113658685Y-112357525D01*
X113647302Y-112330045D01*
X113641500Y-112300872D01*
X113641500Y-112271128D01*
X113647302Y-112241955D01*
X113658685Y-112214475D01*
X113675210Y-112189743D01*
X113696243Y-112168710D01*
X113720975Y-112152185D01*
X113722670Y-112151483D01*
X113744277Y-112139934D01*
X113763219Y-112124389D01*
X113778764Y-112105447D01*
X113790316Y-112083836D01*
X113792500Y-112076635D01*
X113794684Y-112083835D01*
X113794684Y-112083835D01*
G37*
G36*
X186994684Y-112083835D02*
X187006235Y-112105446D01*
X187021780Y-112124388D01*
X187040722Y-112139933D01*
X187062330Y-112151483D01*
X187064025Y-112152185D01*
X187088757Y-112168710D01*
X187109790Y-112189743D01*
X187126315Y-112214475D01*
X187137698Y-112241955D01*
X187143500Y-112271128D01*
X187143500Y-112300872D01*
X187137698Y-112330045D01*
X187126315Y-112357525D01*
X187109790Y-112382257D01*
X187088757Y-112403290D01*
X187064025Y-112419815D01*
X187062330Y-112420517D01*
X187040723Y-112432066D01*
X187021781Y-112447611D01*
X187006236Y-112466553D01*
X186994684Y-112488164D01*
X186992500Y-112495365D01*
X186990316Y-112488165D01*
X186978765Y-112466554D01*
X186963220Y-112447612D01*
X186944278Y-112432067D01*
X186922670Y-112420517D01*
X186920975Y-112419815D01*
X186896243Y-112403290D01*
X186875210Y-112382257D01*
X186858685Y-112357525D01*
X186847302Y-112330045D01*
X186841500Y-112300872D01*
X186841500Y-112271128D01*
X186847302Y-112241955D01*
X186858685Y-112214475D01*
X186875210Y-112189743D01*
X186896243Y-112168710D01*
X186920975Y-112152185D01*
X186922670Y-112151483D01*
X186944277Y-112139934D01*
X186963219Y-112124389D01*
X186978764Y-112105447D01*
X186990316Y-112083836D01*
X186992500Y-112076635D01*
X186994684Y-112083835D01*
X186994684Y-112083835D01*
G37*
G36*
X186354684Y-111583835D02*
X186366235Y-111605446D01*
X186381780Y-111624388D01*
X186400722Y-111639933D01*
X186422330Y-111651483D01*
X186424025Y-111652185D01*
X186448757Y-111668710D01*
X186469790Y-111689743D01*
X186486315Y-111714475D01*
X186497698Y-111741955D01*
X186503500Y-111771128D01*
X186503500Y-111800872D01*
X186497698Y-111830045D01*
X186486315Y-111857525D01*
X186469790Y-111882257D01*
X186448757Y-111903290D01*
X186424025Y-111919815D01*
X186422330Y-111920517D01*
X186400723Y-111932066D01*
X186381781Y-111947611D01*
X186366236Y-111966553D01*
X186354684Y-111988164D01*
X186352500Y-111995365D01*
X186350316Y-111988165D01*
X186338765Y-111966554D01*
X186323220Y-111947612D01*
X186304278Y-111932067D01*
X186282670Y-111920517D01*
X186280975Y-111919815D01*
X186256243Y-111903290D01*
X186235210Y-111882257D01*
X186218685Y-111857525D01*
X186207302Y-111830045D01*
X186201500Y-111800872D01*
X186201500Y-111771128D01*
X186207302Y-111741955D01*
X186218685Y-111714475D01*
X186235210Y-111689743D01*
X186256243Y-111668710D01*
X186280975Y-111652185D01*
X186282670Y-111651483D01*
X186304277Y-111639934D01*
X186323219Y-111624389D01*
X186338764Y-111605447D01*
X186350316Y-111583836D01*
X186352500Y-111576635D01*
X186354684Y-111583835D01*
X186354684Y-111583835D01*
G37*
G36*
X116994684Y-111583835D02*
X117006235Y-111605446D01*
X117021780Y-111624388D01*
X117040722Y-111639933D01*
X117062330Y-111651483D01*
X117064025Y-111652185D01*
X117088757Y-111668710D01*
X117109790Y-111689743D01*
X117126315Y-111714475D01*
X117137698Y-111741955D01*
X117143500Y-111771128D01*
X117143500Y-111800872D01*
X117137698Y-111830045D01*
X117126315Y-111857525D01*
X117109790Y-111882257D01*
X117088757Y-111903290D01*
X117064025Y-111919815D01*
X117062330Y-111920517D01*
X117040723Y-111932066D01*
X117021781Y-111947611D01*
X117006236Y-111966553D01*
X116994684Y-111988164D01*
X116992500Y-111995365D01*
X116990316Y-111988165D01*
X116978765Y-111966554D01*
X116963220Y-111947612D01*
X116944278Y-111932067D01*
X116922670Y-111920517D01*
X116920975Y-111919815D01*
X116896243Y-111903290D01*
X116875210Y-111882257D01*
X116858685Y-111857525D01*
X116847302Y-111830045D01*
X116841500Y-111800872D01*
X116841500Y-111771128D01*
X116847302Y-111741955D01*
X116858685Y-111714475D01*
X116875210Y-111689743D01*
X116896243Y-111668710D01*
X116920975Y-111652185D01*
X116922670Y-111651483D01*
X116944277Y-111639934D01*
X116963219Y-111624389D01*
X116978764Y-111605447D01*
X116990316Y-111583836D01*
X116992500Y-111576635D01*
X116994684Y-111583835D01*
X116994684Y-111583835D01*
G37*
G36*
X182514684Y-111583835D02*
X182526235Y-111605446D01*
X182541780Y-111624388D01*
X182560722Y-111639933D01*
X182582330Y-111651483D01*
X182584025Y-111652185D01*
X182608757Y-111668710D01*
X182629790Y-111689743D01*
X182646315Y-111714475D01*
X182657698Y-111741955D01*
X182663500Y-111771128D01*
X182663500Y-111800872D01*
X182657698Y-111830045D01*
X182646315Y-111857525D01*
X182629790Y-111882257D01*
X182608757Y-111903290D01*
X182584025Y-111919815D01*
X182582330Y-111920517D01*
X182560723Y-111932066D01*
X182541781Y-111947611D01*
X182526236Y-111966553D01*
X182514684Y-111988164D01*
X182512500Y-111995365D01*
X182510316Y-111988165D01*
X182498765Y-111966554D01*
X182483220Y-111947612D01*
X182464278Y-111932067D01*
X182442670Y-111920517D01*
X182440975Y-111919815D01*
X182416243Y-111903290D01*
X182395210Y-111882257D01*
X182378685Y-111857525D01*
X182367302Y-111830045D01*
X182361500Y-111800872D01*
X182361500Y-111771128D01*
X182367302Y-111741955D01*
X182378685Y-111714475D01*
X182395210Y-111689743D01*
X182416243Y-111668710D01*
X182440975Y-111652185D01*
X182442670Y-111651483D01*
X182464277Y-111639934D01*
X182483219Y-111624389D01*
X182498764Y-111605447D01*
X182510316Y-111583836D01*
X182512500Y-111576635D01*
X182514684Y-111583835D01*
X182514684Y-111583835D01*
G37*
G36*
X183154684Y-111583835D02*
X183166235Y-111605446D01*
X183181780Y-111624388D01*
X183200722Y-111639933D01*
X183222330Y-111651483D01*
X183224025Y-111652185D01*
X183248757Y-111668710D01*
X183269790Y-111689743D01*
X183286315Y-111714475D01*
X183297698Y-111741955D01*
X183303500Y-111771128D01*
X183303500Y-111800872D01*
X183297698Y-111830045D01*
X183286315Y-111857525D01*
X183269790Y-111882257D01*
X183248757Y-111903290D01*
X183224025Y-111919815D01*
X183222330Y-111920517D01*
X183200723Y-111932066D01*
X183181781Y-111947611D01*
X183166236Y-111966553D01*
X183154684Y-111988164D01*
X183152500Y-111995365D01*
X183150316Y-111988165D01*
X183138765Y-111966554D01*
X183123220Y-111947612D01*
X183104278Y-111932067D01*
X183082670Y-111920517D01*
X183080975Y-111919815D01*
X183056243Y-111903290D01*
X183035210Y-111882257D01*
X183018685Y-111857525D01*
X183007302Y-111830045D01*
X183001500Y-111800872D01*
X183001500Y-111771128D01*
X183007302Y-111741955D01*
X183018685Y-111714475D01*
X183035210Y-111689743D01*
X183056243Y-111668710D01*
X183080975Y-111652185D01*
X183082670Y-111651483D01*
X183104277Y-111639934D01*
X183123219Y-111624389D01*
X183138764Y-111605447D01*
X183150316Y-111583836D01*
X183152500Y-111576635D01*
X183154684Y-111583835D01*
X183154684Y-111583835D01*
G37*
G36*
X183794684Y-111583835D02*
X183806235Y-111605446D01*
X183821780Y-111624388D01*
X183840722Y-111639933D01*
X183862330Y-111651483D01*
X183864025Y-111652185D01*
X183888757Y-111668710D01*
X183909790Y-111689743D01*
X183926315Y-111714475D01*
X183937698Y-111741955D01*
X183943500Y-111771128D01*
X183943500Y-111800872D01*
X183937698Y-111830045D01*
X183926315Y-111857525D01*
X183909790Y-111882257D01*
X183888757Y-111903290D01*
X183864025Y-111919815D01*
X183862330Y-111920517D01*
X183840723Y-111932066D01*
X183821781Y-111947611D01*
X183806236Y-111966553D01*
X183794684Y-111988164D01*
X183792500Y-111995365D01*
X183790316Y-111988165D01*
X183778765Y-111966554D01*
X183763220Y-111947612D01*
X183744278Y-111932067D01*
X183722670Y-111920517D01*
X183720975Y-111919815D01*
X183696243Y-111903290D01*
X183675210Y-111882257D01*
X183658685Y-111857525D01*
X183647302Y-111830045D01*
X183641500Y-111800872D01*
X183641500Y-111771128D01*
X183647302Y-111741955D01*
X183658685Y-111714475D01*
X183675210Y-111689743D01*
X183696243Y-111668710D01*
X183720975Y-111652185D01*
X183722670Y-111651483D01*
X183744277Y-111639934D01*
X183763219Y-111624389D01*
X183778764Y-111605447D01*
X183790316Y-111583836D01*
X183792500Y-111576635D01*
X183794684Y-111583835D01*
X183794684Y-111583835D01*
G37*
G36*
X184434684Y-111583835D02*
X184446235Y-111605446D01*
X184461780Y-111624388D01*
X184480722Y-111639933D01*
X184502330Y-111651483D01*
X184504025Y-111652185D01*
X184528757Y-111668710D01*
X184549790Y-111689743D01*
X184566315Y-111714475D01*
X184577698Y-111741955D01*
X184583500Y-111771128D01*
X184583500Y-111800872D01*
X184577698Y-111830045D01*
X184566315Y-111857525D01*
X184549790Y-111882257D01*
X184528757Y-111903290D01*
X184504025Y-111919815D01*
X184502330Y-111920517D01*
X184480723Y-111932066D01*
X184461781Y-111947611D01*
X184446236Y-111966553D01*
X184434684Y-111988164D01*
X184432500Y-111995365D01*
X184430316Y-111988165D01*
X184418765Y-111966554D01*
X184403220Y-111947612D01*
X184384278Y-111932067D01*
X184362670Y-111920517D01*
X184360975Y-111919815D01*
X184336243Y-111903290D01*
X184315210Y-111882257D01*
X184298685Y-111857525D01*
X184287302Y-111830045D01*
X184281500Y-111800872D01*
X184281500Y-111771128D01*
X184287302Y-111741955D01*
X184298685Y-111714475D01*
X184315210Y-111689743D01*
X184336243Y-111668710D01*
X184360975Y-111652185D01*
X184362670Y-111651483D01*
X184384277Y-111639934D01*
X184403219Y-111624389D01*
X184418764Y-111605447D01*
X184430316Y-111583836D01*
X184432500Y-111576635D01*
X184434684Y-111583835D01*
X184434684Y-111583835D01*
G37*
G36*
X185074684Y-111583835D02*
X185086235Y-111605446D01*
X185101780Y-111624388D01*
X185120722Y-111639933D01*
X185142330Y-111651483D01*
X185144025Y-111652185D01*
X185168757Y-111668710D01*
X185189790Y-111689743D01*
X185206315Y-111714475D01*
X185217698Y-111741955D01*
X185223500Y-111771128D01*
X185223500Y-111800872D01*
X185217698Y-111830045D01*
X185206315Y-111857525D01*
X185189790Y-111882257D01*
X185168757Y-111903290D01*
X185144025Y-111919815D01*
X185142330Y-111920517D01*
X185120723Y-111932066D01*
X185101781Y-111947611D01*
X185086236Y-111966553D01*
X185074684Y-111988164D01*
X185072500Y-111995365D01*
X185070316Y-111988165D01*
X185058765Y-111966554D01*
X185043220Y-111947612D01*
X185024278Y-111932067D01*
X185002670Y-111920517D01*
X185000975Y-111919815D01*
X184976243Y-111903290D01*
X184955210Y-111882257D01*
X184938685Y-111857525D01*
X184927302Y-111830045D01*
X184921500Y-111800872D01*
X184921500Y-111771128D01*
X184927302Y-111741955D01*
X184938685Y-111714475D01*
X184955210Y-111689743D01*
X184976243Y-111668710D01*
X185000975Y-111652185D01*
X185002670Y-111651483D01*
X185024277Y-111639934D01*
X185043219Y-111624389D01*
X185058764Y-111605447D01*
X185070316Y-111583836D01*
X185072500Y-111576635D01*
X185074684Y-111583835D01*
X185074684Y-111583835D01*
G37*
G36*
X185714684Y-111583835D02*
X185726235Y-111605446D01*
X185741780Y-111624388D01*
X185760722Y-111639933D01*
X185782330Y-111651483D01*
X185784025Y-111652185D01*
X185808757Y-111668710D01*
X185829790Y-111689743D01*
X185846315Y-111714475D01*
X185857698Y-111741955D01*
X185863500Y-111771128D01*
X185863500Y-111800872D01*
X185857698Y-111830045D01*
X185846315Y-111857525D01*
X185829790Y-111882257D01*
X185808757Y-111903290D01*
X185784025Y-111919815D01*
X185782330Y-111920517D01*
X185760723Y-111932066D01*
X185741781Y-111947611D01*
X185726236Y-111966553D01*
X185714684Y-111988164D01*
X185712500Y-111995365D01*
X185710316Y-111988165D01*
X185698765Y-111966554D01*
X185683220Y-111947612D01*
X185664278Y-111932067D01*
X185642670Y-111920517D01*
X185640975Y-111919815D01*
X185616243Y-111903290D01*
X185595210Y-111882257D01*
X185578685Y-111857525D01*
X185567302Y-111830045D01*
X185561500Y-111800872D01*
X185561500Y-111771128D01*
X185567302Y-111741955D01*
X185578685Y-111714475D01*
X185595210Y-111689743D01*
X185616243Y-111668710D01*
X185640975Y-111652185D01*
X185642670Y-111651483D01*
X185664277Y-111639934D01*
X185683219Y-111624389D01*
X185698764Y-111605447D01*
X185710316Y-111583836D01*
X185712500Y-111576635D01*
X185714684Y-111583835D01*
X185714684Y-111583835D01*
G37*
G36*
X186994684Y-111583835D02*
X187006235Y-111605446D01*
X187021780Y-111624388D01*
X187040722Y-111639933D01*
X187062330Y-111651483D01*
X187064025Y-111652185D01*
X187088757Y-111668710D01*
X187109790Y-111689743D01*
X187126315Y-111714475D01*
X187137698Y-111741955D01*
X187143500Y-111771128D01*
X187143500Y-111800872D01*
X187137698Y-111830045D01*
X187126315Y-111857525D01*
X187109790Y-111882257D01*
X187088757Y-111903290D01*
X187064025Y-111919815D01*
X187062330Y-111920517D01*
X187040723Y-111932066D01*
X187021781Y-111947611D01*
X187006236Y-111966553D01*
X186994684Y-111988164D01*
X186992500Y-111995365D01*
X186990316Y-111988165D01*
X186978765Y-111966554D01*
X186963220Y-111947612D01*
X186944278Y-111932067D01*
X186922670Y-111920517D01*
X186920975Y-111919815D01*
X186896243Y-111903290D01*
X186875210Y-111882257D01*
X186858685Y-111857525D01*
X186847302Y-111830045D01*
X186841500Y-111800872D01*
X186841500Y-111771128D01*
X186847302Y-111741955D01*
X186858685Y-111714475D01*
X186875210Y-111689743D01*
X186896243Y-111668710D01*
X186920975Y-111652185D01*
X186922670Y-111651483D01*
X186944277Y-111639934D01*
X186963219Y-111624389D01*
X186978764Y-111605447D01*
X186990316Y-111583836D01*
X186992500Y-111576635D01*
X186994684Y-111583835D01*
X186994684Y-111583835D01*
G37*
G36*
X115714684Y-111583835D02*
X115726235Y-111605446D01*
X115741780Y-111624388D01*
X115760722Y-111639933D01*
X115782330Y-111651483D01*
X115784025Y-111652185D01*
X115808757Y-111668710D01*
X115829790Y-111689743D01*
X115846315Y-111714475D01*
X115857698Y-111741955D01*
X115863500Y-111771128D01*
X115863500Y-111800872D01*
X115857698Y-111830045D01*
X115846315Y-111857525D01*
X115829790Y-111882257D01*
X115808757Y-111903290D01*
X115784025Y-111919815D01*
X115782330Y-111920517D01*
X115760723Y-111932066D01*
X115741781Y-111947611D01*
X115726236Y-111966553D01*
X115714684Y-111988164D01*
X115712500Y-111995365D01*
X115710316Y-111988165D01*
X115698765Y-111966554D01*
X115683220Y-111947612D01*
X115664278Y-111932067D01*
X115642670Y-111920517D01*
X115640975Y-111919815D01*
X115616243Y-111903290D01*
X115595210Y-111882257D01*
X115578685Y-111857525D01*
X115567302Y-111830045D01*
X115561500Y-111800872D01*
X115561500Y-111771128D01*
X115567302Y-111741955D01*
X115578685Y-111714475D01*
X115595210Y-111689743D01*
X115616243Y-111668710D01*
X115640975Y-111652185D01*
X115642670Y-111651483D01*
X115664277Y-111639934D01*
X115683219Y-111624389D01*
X115698764Y-111605447D01*
X115710316Y-111583836D01*
X115712500Y-111576635D01*
X115714684Y-111583835D01*
X115714684Y-111583835D01*
G37*
G36*
X113794684Y-111583835D02*
X113806235Y-111605446D01*
X113821780Y-111624388D01*
X113840722Y-111639933D01*
X113862330Y-111651483D01*
X113864025Y-111652185D01*
X113888757Y-111668710D01*
X113909790Y-111689743D01*
X113926315Y-111714475D01*
X113937698Y-111741955D01*
X113943500Y-111771128D01*
X113943500Y-111800872D01*
X113937698Y-111830045D01*
X113926315Y-111857525D01*
X113909790Y-111882257D01*
X113888757Y-111903290D01*
X113864025Y-111919815D01*
X113862330Y-111920517D01*
X113840723Y-111932066D01*
X113821781Y-111947611D01*
X113806236Y-111966553D01*
X113794684Y-111988164D01*
X113792500Y-111995365D01*
X113790316Y-111988165D01*
X113778765Y-111966554D01*
X113763220Y-111947612D01*
X113744278Y-111932067D01*
X113722670Y-111920517D01*
X113720975Y-111919815D01*
X113696243Y-111903290D01*
X113675210Y-111882257D01*
X113658685Y-111857525D01*
X113647302Y-111830045D01*
X113641500Y-111800872D01*
X113641500Y-111771128D01*
X113647302Y-111741955D01*
X113658685Y-111714475D01*
X113675210Y-111689743D01*
X113696243Y-111668710D01*
X113720975Y-111652185D01*
X113722670Y-111651483D01*
X113744277Y-111639934D01*
X113763219Y-111624389D01*
X113778764Y-111605447D01*
X113790316Y-111583836D01*
X113792500Y-111576635D01*
X113794684Y-111583835D01*
X113794684Y-111583835D01*
G37*
G36*
X116354684Y-111583835D02*
X116366235Y-111605446D01*
X116381780Y-111624388D01*
X116400722Y-111639933D01*
X116422330Y-111651483D01*
X116424025Y-111652185D01*
X116448757Y-111668710D01*
X116469790Y-111689743D01*
X116486315Y-111714475D01*
X116497698Y-111741955D01*
X116503500Y-111771128D01*
X116503500Y-111800872D01*
X116497698Y-111830045D01*
X116486315Y-111857525D01*
X116469790Y-111882257D01*
X116448757Y-111903290D01*
X116424025Y-111919815D01*
X116422330Y-111920517D01*
X116400723Y-111932066D01*
X116381781Y-111947611D01*
X116366236Y-111966553D01*
X116354684Y-111988164D01*
X116352500Y-111995365D01*
X116350316Y-111988165D01*
X116338765Y-111966554D01*
X116323220Y-111947612D01*
X116304278Y-111932067D01*
X116282670Y-111920517D01*
X116280975Y-111919815D01*
X116256243Y-111903290D01*
X116235210Y-111882257D01*
X116218685Y-111857525D01*
X116207302Y-111830045D01*
X116201500Y-111800872D01*
X116201500Y-111771128D01*
X116207302Y-111741955D01*
X116218685Y-111714475D01*
X116235210Y-111689743D01*
X116256243Y-111668710D01*
X116280975Y-111652185D01*
X116282670Y-111651483D01*
X116304277Y-111639934D01*
X116323219Y-111624389D01*
X116338764Y-111605447D01*
X116350316Y-111583836D01*
X116352500Y-111576635D01*
X116354684Y-111583835D01*
X116354684Y-111583835D01*
G37*
G36*
X115074684Y-111583835D02*
X115086235Y-111605446D01*
X115101780Y-111624388D01*
X115120722Y-111639933D01*
X115142330Y-111651483D01*
X115144025Y-111652185D01*
X115168757Y-111668710D01*
X115189790Y-111689743D01*
X115206315Y-111714475D01*
X115217698Y-111741955D01*
X115223500Y-111771128D01*
X115223500Y-111800872D01*
X115217698Y-111830045D01*
X115206315Y-111857525D01*
X115189790Y-111882257D01*
X115168757Y-111903290D01*
X115144025Y-111919815D01*
X115142330Y-111920517D01*
X115120723Y-111932066D01*
X115101781Y-111947611D01*
X115086236Y-111966553D01*
X115074684Y-111988164D01*
X115072500Y-111995365D01*
X115070316Y-111988165D01*
X115058765Y-111966554D01*
X115043220Y-111947612D01*
X115024278Y-111932067D01*
X115002670Y-111920517D01*
X115000975Y-111919815D01*
X114976243Y-111903290D01*
X114955210Y-111882257D01*
X114938685Y-111857525D01*
X114927302Y-111830045D01*
X114921500Y-111800872D01*
X114921500Y-111771128D01*
X114927302Y-111741955D01*
X114938685Y-111714475D01*
X114955210Y-111689743D01*
X114976243Y-111668710D01*
X115000975Y-111652185D01*
X115002670Y-111651483D01*
X115024277Y-111639934D01*
X115043219Y-111624389D01*
X115058764Y-111605447D01*
X115070316Y-111583836D01*
X115072500Y-111576635D01*
X115074684Y-111583835D01*
X115074684Y-111583835D01*
G37*
G36*
X112514684Y-111583835D02*
X112526235Y-111605446D01*
X112541780Y-111624388D01*
X112560722Y-111639933D01*
X112582330Y-111651483D01*
X112584025Y-111652185D01*
X112608757Y-111668710D01*
X112629790Y-111689743D01*
X112646315Y-111714475D01*
X112657698Y-111741955D01*
X112663500Y-111771128D01*
X112663500Y-111800872D01*
X112657698Y-111830045D01*
X112646315Y-111857525D01*
X112629790Y-111882257D01*
X112608757Y-111903290D01*
X112584025Y-111919815D01*
X112582330Y-111920517D01*
X112560723Y-111932066D01*
X112541781Y-111947611D01*
X112526236Y-111966553D01*
X112514684Y-111988164D01*
X112512500Y-111995365D01*
X112510316Y-111988165D01*
X112498765Y-111966554D01*
X112483220Y-111947612D01*
X112464278Y-111932067D01*
X112442670Y-111920517D01*
X112440975Y-111919815D01*
X112416243Y-111903290D01*
X112395210Y-111882257D01*
X112378685Y-111857525D01*
X112367302Y-111830045D01*
X112361500Y-111800872D01*
X112361500Y-111771128D01*
X112367302Y-111741955D01*
X112378685Y-111714475D01*
X112395210Y-111689743D01*
X112416243Y-111668710D01*
X112440975Y-111652185D01*
X112442670Y-111651483D01*
X112464277Y-111639934D01*
X112483219Y-111624389D01*
X112498764Y-111605447D01*
X112510316Y-111583836D01*
X112512500Y-111576635D01*
X112514684Y-111583835D01*
X112514684Y-111583835D01*
G37*
G36*
X113154684Y-111583835D02*
X113166235Y-111605446D01*
X113181780Y-111624388D01*
X113200722Y-111639933D01*
X113222330Y-111651483D01*
X113224025Y-111652185D01*
X113248757Y-111668710D01*
X113269790Y-111689743D01*
X113286315Y-111714475D01*
X113297698Y-111741955D01*
X113303500Y-111771128D01*
X113303500Y-111800872D01*
X113297698Y-111830045D01*
X113286315Y-111857525D01*
X113269790Y-111882257D01*
X113248757Y-111903290D01*
X113224025Y-111919815D01*
X113222330Y-111920517D01*
X113200723Y-111932066D01*
X113181781Y-111947611D01*
X113166236Y-111966553D01*
X113154684Y-111988164D01*
X113152500Y-111995365D01*
X113150316Y-111988165D01*
X113138765Y-111966554D01*
X113123220Y-111947612D01*
X113104278Y-111932067D01*
X113082670Y-111920517D01*
X113080975Y-111919815D01*
X113056243Y-111903290D01*
X113035210Y-111882257D01*
X113018685Y-111857525D01*
X113007302Y-111830045D01*
X113001500Y-111800872D01*
X113001500Y-111771128D01*
X113007302Y-111741955D01*
X113018685Y-111714475D01*
X113035210Y-111689743D01*
X113056243Y-111668710D01*
X113080975Y-111652185D01*
X113082670Y-111651483D01*
X113104277Y-111639934D01*
X113123219Y-111624389D01*
X113138764Y-111605447D01*
X113150316Y-111583836D01*
X113152500Y-111576635D01*
X113154684Y-111583835D01*
X113154684Y-111583835D01*
G37*
G36*
X114434684Y-111583835D02*
X114446235Y-111605446D01*
X114461780Y-111624388D01*
X114480722Y-111639933D01*
X114502330Y-111651483D01*
X114504025Y-111652185D01*
X114528757Y-111668710D01*
X114549790Y-111689743D01*
X114566315Y-111714475D01*
X114577698Y-111741955D01*
X114583500Y-111771128D01*
X114583500Y-111800872D01*
X114577698Y-111830045D01*
X114566315Y-111857525D01*
X114549790Y-111882257D01*
X114528757Y-111903290D01*
X114504025Y-111919815D01*
X114502330Y-111920517D01*
X114480723Y-111932066D01*
X114461781Y-111947611D01*
X114446236Y-111966553D01*
X114434684Y-111988164D01*
X114432500Y-111995365D01*
X114430316Y-111988165D01*
X114418765Y-111966554D01*
X114403220Y-111947612D01*
X114384278Y-111932067D01*
X114362670Y-111920517D01*
X114360975Y-111919815D01*
X114336243Y-111903290D01*
X114315210Y-111882257D01*
X114298685Y-111857525D01*
X114287302Y-111830045D01*
X114281500Y-111800872D01*
X114281500Y-111771128D01*
X114287302Y-111741955D01*
X114298685Y-111714475D01*
X114315210Y-111689743D01*
X114336243Y-111668710D01*
X114360975Y-111652185D01*
X114362670Y-111651483D01*
X114384277Y-111639934D01*
X114403219Y-111624389D01*
X114418764Y-111605447D01*
X114430316Y-111583836D01*
X114432500Y-111576635D01*
X114434684Y-111583835D01*
X114434684Y-111583835D01*
G37*
G36*
X185714684Y-111083835D02*
X185726235Y-111105446D01*
X185741780Y-111124388D01*
X185760722Y-111139933D01*
X185782330Y-111151483D01*
X185784025Y-111152185D01*
X185808757Y-111168710D01*
X185829790Y-111189743D01*
X185846315Y-111214475D01*
X185857698Y-111241955D01*
X185863500Y-111271128D01*
X185863500Y-111300872D01*
X185857698Y-111330045D01*
X185846315Y-111357525D01*
X185829790Y-111382257D01*
X185808757Y-111403290D01*
X185784025Y-111419815D01*
X185782330Y-111420517D01*
X185760723Y-111432066D01*
X185741781Y-111447611D01*
X185726236Y-111466553D01*
X185714684Y-111488164D01*
X185712500Y-111495365D01*
X185710316Y-111488165D01*
X185698765Y-111466554D01*
X185683220Y-111447612D01*
X185664278Y-111432067D01*
X185642670Y-111420517D01*
X185640975Y-111419815D01*
X185616243Y-111403290D01*
X185595210Y-111382257D01*
X185578685Y-111357525D01*
X185567302Y-111330045D01*
X185561500Y-111300872D01*
X185561500Y-111271128D01*
X185567302Y-111241955D01*
X185578685Y-111214475D01*
X185595210Y-111189743D01*
X185616243Y-111168710D01*
X185640975Y-111152185D01*
X185642670Y-111151483D01*
X185664277Y-111139934D01*
X185683219Y-111124389D01*
X185698764Y-111105447D01*
X185710316Y-111083836D01*
X185712500Y-111076635D01*
X185714684Y-111083835D01*
X185714684Y-111083835D01*
G37*
G36*
X115074684Y-111083835D02*
X115086235Y-111105446D01*
X115101780Y-111124388D01*
X115120722Y-111139933D01*
X115142330Y-111151483D01*
X115144025Y-111152185D01*
X115168757Y-111168710D01*
X115189790Y-111189743D01*
X115206315Y-111214475D01*
X115217698Y-111241955D01*
X115223500Y-111271128D01*
X115223500Y-111300872D01*
X115217698Y-111330045D01*
X115206315Y-111357525D01*
X115189790Y-111382257D01*
X115168757Y-111403290D01*
X115144025Y-111419815D01*
X115142330Y-111420517D01*
X115120723Y-111432066D01*
X115101781Y-111447611D01*
X115086236Y-111466553D01*
X115074684Y-111488164D01*
X115072500Y-111495365D01*
X115070316Y-111488165D01*
X115058765Y-111466554D01*
X115043220Y-111447612D01*
X115024278Y-111432067D01*
X115002670Y-111420517D01*
X115000975Y-111419815D01*
X114976243Y-111403290D01*
X114955210Y-111382257D01*
X114938685Y-111357525D01*
X114927302Y-111330045D01*
X114921500Y-111300872D01*
X114921500Y-111271128D01*
X114927302Y-111241955D01*
X114938685Y-111214475D01*
X114955210Y-111189743D01*
X114976243Y-111168710D01*
X115000975Y-111152185D01*
X115002670Y-111151483D01*
X115024277Y-111139934D01*
X115043219Y-111124389D01*
X115058764Y-111105447D01*
X115070316Y-111083836D01*
X115072500Y-111076635D01*
X115074684Y-111083835D01*
X115074684Y-111083835D01*
G37*
G36*
X116354684Y-111083835D02*
X116366235Y-111105446D01*
X116381780Y-111124388D01*
X116400722Y-111139933D01*
X116422330Y-111151483D01*
X116424025Y-111152185D01*
X116448757Y-111168710D01*
X116469790Y-111189743D01*
X116486315Y-111214475D01*
X116497698Y-111241955D01*
X116503500Y-111271128D01*
X116503500Y-111300872D01*
X116497698Y-111330045D01*
X116486315Y-111357525D01*
X116469790Y-111382257D01*
X116448757Y-111403290D01*
X116424025Y-111419815D01*
X116422330Y-111420517D01*
X116400723Y-111432066D01*
X116381781Y-111447611D01*
X116366236Y-111466553D01*
X116354684Y-111488164D01*
X116352500Y-111495365D01*
X116350316Y-111488165D01*
X116338765Y-111466554D01*
X116323220Y-111447612D01*
X116304278Y-111432067D01*
X116282670Y-111420517D01*
X116280975Y-111419815D01*
X116256243Y-111403290D01*
X116235210Y-111382257D01*
X116218685Y-111357525D01*
X116207302Y-111330045D01*
X116201500Y-111300872D01*
X116201500Y-111271128D01*
X116207302Y-111241955D01*
X116218685Y-111214475D01*
X116235210Y-111189743D01*
X116256243Y-111168710D01*
X116280975Y-111152185D01*
X116282670Y-111151483D01*
X116304277Y-111139934D01*
X116323219Y-111124389D01*
X116338764Y-111105447D01*
X116350316Y-111083836D01*
X116352500Y-111076635D01*
X116354684Y-111083835D01*
X116354684Y-111083835D01*
G37*
G36*
X113794684Y-111083835D02*
X113806235Y-111105446D01*
X113821780Y-111124388D01*
X113840722Y-111139933D01*
X113862330Y-111151483D01*
X113864025Y-111152185D01*
X113888757Y-111168710D01*
X113909790Y-111189743D01*
X113926315Y-111214475D01*
X113937698Y-111241955D01*
X113943500Y-111271128D01*
X113943500Y-111300872D01*
X113937698Y-111330045D01*
X113926315Y-111357525D01*
X113909790Y-111382257D01*
X113888757Y-111403290D01*
X113864025Y-111419815D01*
X113862330Y-111420517D01*
X113840723Y-111432066D01*
X113821781Y-111447611D01*
X113806236Y-111466553D01*
X113794684Y-111488164D01*
X113792500Y-111495365D01*
X113790316Y-111488165D01*
X113778765Y-111466554D01*
X113763220Y-111447612D01*
X113744278Y-111432067D01*
X113722670Y-111420517D01*
X113720975Y-111419815D01*
X113696243Y-111403290D01*
X113675210Y-111382257D01*
X113658685Y-111357525D01*
X113647302Y-111330045D01*
X113641500Y-111300872D01*
X113641500Y-111271128D01*
X113647302Y-111241955D01*
X113658685Y-111214475D01*
X113675210Y-111189743D01*
X113696243Y-111168710D01*
X113720975Y-111152185D01*
X113722670Y-111151483D01*
X113744277Y-111139934D01*
X113763219Y-111124389D01*
X113778764Y-111105447D01*
X113790316Y-111083836D01*
X113792500Y-111076635D01*
X113794684Y-111083835D01*
X113794684Y-111083835D01*
G37*
G36*
X113154684Y-111083835D02*
X113166235Y-111105446D01*
X113181780Y-111124388D01*
X113200722Y-111139933D01*
X113222330Y-111151483D01*
X113224025Y-111152185D01*
X113248757Y-111168710D01*
X113269790Y-111189743D01*
X113286315Y-111214475D01*
X113297698Y-111241955D01*
X113303500Y-111271128D01*
X113303500Y-111300872D01*
X113297698Y-111330045D01*
X113286315Y-111357525D01*
X113269790Y-111382257D01*
X113248757Y-111403290D01*
X113224025Y-111419815D01*
X113222330Y-111420517D01*
X113200723Y-111432066D01*
X113181781Y-111447611D01*
X113166236Y-111466553D01*
X113154684Y-111488164D01*
X113152500Y-111495365D01*
X113150316Y-111488165D01*
X113138765Y-111466554D01*
X113123220Y-111447612D01*
X113104278Y-111432067D01*
X113082670Y-111420517D01*
X113080975Y-111419815D01*
X113056243Y-111403290D01*
X113035210Y-111382257D01*
X113018685Y-111357525D01*
X113007302Y-111330045D01*
X113001500Y-111300872D01*
X113001500Y-111271128D01*
X113007302Y-111241955D01*
X113018685Y-111214475D01*
X113035210Y-111189743D01*
X113056243Y-111168710D01*
X113080975Y-111152185D01*
X113082670Y-111151483D01*
X113104277Y-111139934D01*
X113123219Y-111124389D01*
X113138764Y-111105447D01*
X113150316Y-111083836D01*
X113152500Y-111076635D01*
X113154684Y-111083835D01*
X113154684Y-111083835D01*
G37*
G36*
X112514684Y-111083835D02*
X112526235Y-111105446D01*
X112541780Y-111124388D01*
X112560722Y-111139933D01*
X112582330Y-111151483D01*
X112584025Y-111152185D01*
X112608757Y-111168710D01*
X112629790Y-111189743D01*
X112646315Y-111214475D01*
X112657698Y-111241955D01*
X112663500Y-111271128D01*
X112663500Y-111300872D01*
X112657698Y-111330045D01*
X112646315Y-111357525D01*
X112629790Y-111382257D01*
X112608757Y-111403290D01*
X112584025Y-111419815D01*
X112582330Y-111420517D01*
X112560723Y-111432066D01*
X112541781Y-111447611D01*
X112526236Y-111466553D01*
X112514684Y-111488164D01*
X112512500Y-111495365D01*
X112510316Y-111488165D01*
X112498765Y-111466554D01*
X112483220Y-111447612D01*
X112464278Y-111432067D01*
X112442670Y-111420517D01*
X112440975Y-111419815D01*
X112416243Y-111403290D01*
X112395210Y-111382257D01*
X112378685Y-111357525D01*
X112367302Y-111330045D01*
X112361500Y-111300872D01*
X112361500Y-111271128D01*
X112367302Y-111241955D01*
X112378685Y-111214475D01*
X112395210Y-111189743D01*
X112416243Y-111168710D01*
X112440975Y-111152185D01*
X112442670Y-111151483D01*
X112464277Y-111139934D01*
X112483219Y-111124389D01*
X112498764Y-111105447D01*
X112510316Y-111083836D01*
X112512500Y-111076635D01*
X112514684Y-111083835D01*
X112514684Y-111083835D01*
G37*
G36*
X116994684Y-111083835D02*
X117006235Y-111105446D01*
X117021780Y-111124388D01*
X117040722Y-111139933D01*
X117062330Y-111151483D01*
X117064025Y-111152185D01*
X117088757Y-111168710D01*
X117109790Y-111189743D01*
X117126315Y-111214475D01*
X117137698Y-111241955D01*
X117143500Y-111271128D01*
X117143500Y-111300872D01*
X117137698Y-111330045D01*
X117126315Y-111357525D01*
X117109790Y-111382257D01*
X117088757Y-111403290D01*
X117064025Y-111419815D01*
X117062330Y-111420517D01*
X117040723Y-111432066D01*
X117021781Y-111447611D01*
X117006236Y-111466553D01*
X116994684Y-111488164D01*
X116992500Y-111495365D01*
X116990316Y-111488165D01*
X116978765Y-111466554D01*
X116963220Y-111447612D01*
X116944278Y-111432067D01*
X116922670Y-111420517D01*
X116920975Y-111419815D01*
X116896243Y-111403290D01*
X116875210Y-111382257D01*
X116858685Y-111357525D01*
X116847302Y-111330045D01*
X116841500Y-111300872D01*
X116841500Y-111271128D01*
X116847302Y-111241955D01*
X116858685Y-111214475D01*
X116875210Y-111189743D01*
X116896243Y-111168710D01*
X116920975Y-111152185D01*
X116922670Y-111151483D01*
X116944277Y-111139934D01*
X116963219Y-111124389D01*
X116978764Y-111105447D01*
X116990316Y-111083836D01*
X116992500Y-111076635D01*
X116994684Y-111083835D01*
X116994684Y-111083835D01*
G37*
G36*
X182514684Y-111083835D02*
X182526235Y-111105446D01*
X182541780Y-111124388D01*
X182560722Y-111139933D01*
X182582330Y-111151483D01*
X182584025Y-111152185D01*
X182608757Y-111168710D01*
X182629790Y-111189743D01*
X182646315Y-111214475D01*
X182657698Y-111241955D01*
X182663500Y-111271128D01*
X182663500Y-111300872D01*
X182657698Y-111330045D01*
X182646315Y-111357525D01*
X182629790Y-111382257D01*
X182608757Y-111403290D01*
X182584025Y-111419815D01*
X182582330Y-111420517D01*
X182560723Y-111432066D01*
X182541781Y-111447611D01*
X182526236Y-111466553D01*
X182514684Y-111488164D01*
X182512500Y-111495365D01*
X182510316Y-111488165D01*
X182498765Y-111466554D01*
X182483220Y-111447612D01*
X182464278Y-111432067D01*
X182442670Y-111420517D01*
X182440975Y-111419815D01*
X182416243Y-111403290D01*
X182395210Y-111382257D01*
X182378685Y-111357525D01*
X182367302Y-111330045D01*
X182361500Y-111300872D01*
X182361500Y-111271128D01*
X182367302Y-111241955D01*
X182378685Y-111214475D01*
X182395210Y-111189743D01*
X182416243Y-111168710D01*
X182440975Y-111152185D01*
X182442670Y-111151483D01*
X182464277Y-111139934D01*
X182483219Y-111124389D01*
X182498764Y-111105447D01*
X182510316Y-111083836D01*
X182512500Y-111076635D01*
X182514684Y-111083835D01*
X182514684Y-111083835D01*
G37*
G36*
X183794684Y-111083835D02*
X183806235Y-111105446D01*
X183821780Y-111124388D01*
X183840722Y-111139933D01*
X183862330Y-111151483D01*
X183864025Y-111152185D01*
X183888757Y-111168710D01*
X183909790Y-111189743D01*
X183926315Y-111214475D01*
X183937698Y-111241955D01*
X183943500Y-111271128D01*
X183943500Y-111300872D01*
X183937698Y-111330045D01*
X183926315Y-111357525D01*
X183909790Y-111382257D01*
X183888757Y-111403290D01*
X183864025Y-111419815D01*
X183862330Y-111420517D01*
X183840723Y-111432066D01*
X183821781Y-111447611D01*
X183806236Y-111466553D01*
X183794684Y-111488164D01*
X183792500Y-111495365D01*
X183790316Y-111488165D01*
X183778765Y-111466554D01*
X183763220Y-111447612D01*
X183744278Y-111432067D01*
X183722670Y-111420517D01*
X183720975Y-111419815D01*
X183696243Y-111403290D01*
X183675210Y-111382257D01*
X183658685Y-111357525D01*
X183647302Y-111330045D01*
X183641500Y-111300872D01*
X183641500Y-111271128D01*
X183647302Y-111241955D01*
X183658685Y-111214475D01*
X183675210Y-111189743D01*
X183696243Y-111168710D01*
X183720975Y-111152185D01*
X183722670Y-111151483D01*
X183744277Y-111139934D01*
X183763219Y-111124389D01*
X183778764Y-111105447D01*
X183790316Y-111083836D01*
X183792500Y-111076635D01*
X183794684Y-111083835D01*
X183794684Y-111083835D01*
G37*
G36*
X184434684Y-111083835D02*
X184446235Y-111105446D01*
X184461780Y-111124388D01*
X184480722Y-111139933D01*
X184502330Y-111151483D01*
X184504025Y-111152185D01*
X184528757Y-111168710D01*
X184549790Y-111189743D01*
X184566315Y-111214475D01*
X184577698Y-111241955D01*
X184583500Y-111271128D01*
X184583500Y-111300872D01*
X184577698Y-111330045D01*
X184566315Y-111357525D01*
X184549790Y-111382257D01*
X184528757Y-111403290D01*
X184504025Y-111419815D01*
X184502330Y-111420517D01*
X184480723Y-111432066D01*
X184461781Y-111447611D01*
X184446236Y-111466553D01*
X184434684Y-111488164D01*
X184432500Y-111495365D01*
X184430316Y-111488165D01*
X184418765Y-111466554D01*
X184403220Y-111447612D01*
X184384278Y-111432067D01*
X184362670Y-111420517D01*
X184360975Y-111419815D01*
X184336243Y-111403290D01*
X184315210Y-111382257D01*
X184298685Y-111357525D01*
X184287302Y-111330045D01*
X184281500Y-111300872D01*
X184281500Y-111271128D01*
X184287302Y-111241955D01*
X184298685Y-111214475D01*
X184315210Y-111189743D01*
X184336243Y-111168710D01*
X184360975Y-111152185D01*
X184362670Y-111151483D01*
X184384277Y-111139934D01*
X184403219Y-111124389D01*
X184418764Y-111105447D01*
X184430316Y-111083836D01*
X184432500Y-111076635D01*
X184434684Y-111083835D01*
X184434684Y-111083835D01*
G37*
G36*
X185074684Y-111083835D02*
X185086235Y-111105446D01*
X185101780Y-111124388D01*
X185120722Y-111139933D01*
X185142330Y-111151483D01*
X185144025Y-111152185D01*
X185168757Y-111168710D01*
X185189790Y-111189743D01*
X185206315Y-111214475D01*
X185217698Y-111241955D01*
X185223500Y-111271128D01*
X185223500Y-111300872D01*
X185217698Y-111330045D01*
X185206315Y-111357525D01*
X185189790Y-111382257D01*
X185168757Y-111403290D01*
X185144025Y-111419815D01*
X185142330Y-111420517D01*
X185120723Y-111432066D01*
X185101781Y-111447611D01*
X185086236Y-111466553D01*
X185074684Y-111488164D01*
X185072500Y-111495365D01*
X185070316Y-111488165D01*
X185058765Y-111466554D01*
X185043220Y-111447612D01*
X185024278Y-111432067D01*
X185002670Y-111420517D01*
X185000975Y-111419815D01*
X184976243Y-111403290D01*
X184955210Y-111382257D01*
X184938685Y-111357525D01*
X184927302Y-111330045D01*
X184921500Y-111300872D01*
X184921500Y-111271128D01*
X184927302Y-111241955D01*
X184938685Y-111214475D01*
X184955210Y-111189743D01*
X184976243Y-111168710D01*
X185000975Y-111152185D01*
X185002670Y-111151483D01*
X185024277Y-111139934D01*
X185043219Y-111124389D01*
X185058764Y-111105447D01*
X185070316Y-111083836D01*
X185072500Y-111076635D01*
X185074684Y-111083835D01*
X185074684Y-111083835D01*
G37*
G36*
X186354684Y-111083835D02*
X186366235Y-111105446D01*
X186381780Y-111124388D01*
X186400722Y-111139933D01*
X186422330Y-111151483D01*
X186424025Y-111152185D01*
X186448757Y-111168710D01*
X186469790Y-111189743D01*
X186486315Y-111214475D01*
X186497698Y-111241955D01*
X186503500Y-111271128D01*
X186503500Y-111300872D01*
X186497698Y-111330045D01*
X186486315Y-111357525D01*
X186469790Y-111382257D01*
X186448757Y-111403290D01*
X186424025Y-111419815D01*
X186422330Y-111420517D01*
X186400723Y-111432066D01*
X186381781Y-111447611D01*
X186366236Y-111466553D01*
X186354684Y-111488164D01*
X186352500Y-111495365D01*
X186350316Y-111488165D01*
X186338765Y-111466554D01*
X186323220Y-111447612D01*
X186304278Y-111432067D01*
X186282670Y-111420517D01*
X186280975Y-111419815D01*
X186256243Y-111403290D01*
X186235210Y-111382257D01*
X186218685Y-111357525D01*
X186207302Y-111330045D01*
X186201500Y-111300872D01*
X186201500Y-111271128D01*
X186207302Y-111241955D01*
X186218685Y-111214475D01*
X186235210Y-111189743D01*
X186256243Y-111168710D01*
X186280975Y-111152185D01*
X186282670Y-111151483D01*
X186304277Y-111139934D01*
X186323219Y-111124389D01*
X186338764Y-111105447D01*
X186350316Y-111083836D01*
X186352500Y-111076635D01*
X186354684Y-111083835D01*
X186354684Y-111083835D01*
G37*
G36*
X186994684Y-111083835D02*
X187006235Y-111105446D01*
X187021780Y-111124388D01*
X187040722Y-111139933D01*
X187062330Y-111151483D01*
X187064025Y-111152185D01*
X187088757Y-111168710D01*
X187109790Y-111189743D01*
X187126315Y-111214475D01*
X187137698Y-111241955D01*
X187143500Y-111271128D01*
X187143500Y-111300872D01*
X187137698Y-111330045D01*
X187126315Y-111357525D01*
X187109790Y-111382257D01*
X187088757Y-111403290D01*
X187064025Y-111419815D01*
X187062330Y-111420517D01*
X187040723Y-111432066D01*
X187021781Y-111447611D01*
X187006236Y-111466553D01*
X186994684Y-111488164D01*
X186992500Y-111495365D01*
X186990316Y-111488165D01*
X186978765Y-111466554D01*
X186963220Y-111447612D01*
X186944278Y-111432067D01*
X186922670Y-111420517D01*
X186920975Y-111419815D01*
X186896243Y-111403290D01*
X186875210Y-111382257D01*
X186858685Y-111357525D01*
X186847302Y-111330045D01*
X186841500Y-111300872D01*
X186841500Y-111271128D01*
X186847302Y-111241955D01*
X186858685Y-111214475D01*
X186875210Y-111189743D01*
X186896243Y-111168710D01*
X186920975Y-111152185D01*
X186922670Y-111151483D01*
X186944277Y-111139934D01*
X186963219Y-111124389D01*
X186978764Y-111105447D01*
X186990316Y-111083836D01*
X186992500Y-111076635D01*
X186994684Y-111083835D01*
X186994684Y-111083835D01*
G37*
G36*
X114434684Y-111083835D02*
X114446235Y-111105446D01*
X114461780Y-111124388D01*
X114480722Y-111139933D01*
X114502330Y-111151483D01*
X114504025Y-111152185D01*
X114528757Y-111168710D01*
X114549790Y-111189743D01*
X114566315Y-111214475D01*
X114577698Y-111241955D01*
X114583500Y-111271128D01*
X114583500Y-111300872D01*
X114577698Y-111330045D01*
X114566315Y-111357525D01*
X114549790Y-111382257D01*
X114528757Y-111403290D01*
X114504025Y-111419815D01*
X114502330Y-111420517D01*
X114480723Y-111432066D01*
X114461781Y-111447611D01*
X114446236Y-111466553D01*
X114434684Y-111488164D01*
X114432500Y-111495365D01*
X114430316Y-111488165D01*
X114418765Y-111466554D01*
X114403220Y-111447612D01*
X114384278Y-111432067D01*
X114362670Y-111420517D01*
X114360975Y-111419815D01*
X114336243Y-111403290D01*
X114315210Y-111382257D01*
X114298685Y-111357525D01*
X114287302Y-111330045D01*
X114281500Y-111300872D01*
X114281500Y-111271128D01*
X114287302Y-111241955D01*
X114298685Y-111214475D01*
X114315210Y-111189743D01*
X114336243Y-111168710D01*
X114360975Y-111152185D01*
X114362670Y-111151483D01*
X114384277Y-111139934D01*
X114403219Y-111124389D01*
X114418764Y-111105447D01*
X114430316Y-111083836D01*
X114432500Y-111076635D01*
X114434684Y-111083835D01*
X114434684Y-111083835D01*
G37*
G36*
X183154684Y-111083835D02*
X183166235Y-111105446D01*
X183181780Y-111124388D01*
X183200722Y-111139933D01*
X183222330Y-111151483D01*
X183224025Y-111152185D01*
X183248757Y-111168710D01*
X183269790Y-111189743D01*
X183286315Y-111214475D01*
X183297698Y-111241955D01*
X183303500Y-111271128D01*
X183303500Y-111300872D01*
X183297698Y-111330045D01*
X183286315Y-111357525D01*
X183269790Y-111382257D01*
X183248757Y-111403290D01*
X183224025Y-111419815D01*
X183222330Y-111420517D01*
X183200723Y-111432066D01*
X183181781Y-111447611D01*
X183166236Y-111466553D01*
X183154684Y-111488164D01*
X183152500Y-111495365D01*
X183150316Y-111488165D01*
X183138765Y-111466554D01*
X183123220Y-111447612D01*
X183104278Y-111432067D01*
X183082670Y-111420517D01*
X183080975Y-111419815D01*
X183056243Y-111403290D01*
X183035210Y-111382257D01*
X183018685Y-111357525D01*
X183007302Y-111330045D01*
X183001500Y-111300872D01*
X183001500Y-111271128D01*
X183007302Y-111241955D01*
X183018685Y-111214475D01*
X183035210Y-111189743D01*
X183056243Y-111168710D01*
X183080975Y-111152185D01*
X183082670Y-111151483D01*
X183104277Y-111139934D01*
X183123219Y-111124389D01*
X183138764Y-111105447D01*
X183150316Y-111083836D01*
X183152500Y-111076635D01*
X183154684Y-111083835D01*
X183154684Y-111083835D01*
G37*
G36*
X115714684Y-111083835D02*
X115726235Y-111105446D01*
X115741780Y-111124388D01*
X115760722Y-111139933D01*
X115782330Y-111151483D01*
X115784025Y-111152185D01*
X115808757Y-111168710D01*
X115829790Y-111189743D01*
X115846315Y-111214475D01*
X115857698Y-111241955D01*
X115863500Y-111271128D01*
X115863500Y-111300872D01*
X115857698Y-111330045D01*
X115846315Y-111357525D01*
X115829790Y-111382257D01*
X115808757Y-111403290D01*
X115784025Y-111419815D01*
X115782330Y-111420517D01*
X115760723Y-111432066D01*
X115741781Y-111447611D01*
X115726236Y-111466553D01*
X115714684Y-111488164D01*
X115712500Y-111495365D01*
X115710316Y-111488165D01*
X115698765Y-111466554D01*
X115683220Y-111447612D01*
X115664278Y-111432067D01*
X115642670Y-111420517D01*
X115640975Y-111419815D01*
X115616243Y-111403290D01*
X115595210Y-111382257D01*
X115578685Y-111357525D01*
X115567302Y-111330045D01*
X115561500Y-111300872D01*
X115561500Y-111271128D01*
X115567302Y-111241955D01*
X115578685Y-111214475D01*
X115595210Y-111189743D01*
X115616243Y-111168710D01*
X115640975Y-111152185D01*
X115642670Y-111151483D01*
X115664277Y-111139934D01*
X115683219Y-111124389D01*
X115698764Y-111105447D01*
X115710316Y-111083836D01*
X115712500Y-111076635D01*
X115714684Y-111083835D01*
X115714684Y-111083835D01*
G37*
G36*
X113196545Y-110640802D02*
X113224025Y-110652185D01*
X113248757Y-110668710D01*
X113269790Y-110689743D01*
X113286315Y-110714475D01*
X113297698Y-110741955D01*
X113303500Y-110771128D01*
X113303500Y-110800872D01*
X113297698Y-110830045D01*
X113286315Y-110857525D01*
X113269790Y-110882257D01*
X113248757Y-110903290D01*
X113224025Y-110919815D01*
X113222330Y-110920517D01*
X113200723Y-110932066D01*
X113181781Y-110947611D01*
X113166236Y-110966553D01*
X113154684Y-110988164D01*
X113152500Y-110995365D01*
X113150316Y-110988165D01*
X113138765Y-110966554D01*
X113123220Y-110947612D01*
X113104278Y-110932067D01*
X113082670Y-110920517D01*
X113080975Y-110919815D01*
X113056243Y-110903290D01*
X113035210Y-110882257D01*
X113018685Y-110857525D01*
X113007302Y-110830045D01*
X113001500Y-110800872D01*
X113001500Y-110771128D01*
X113007302Y-110741955D01*
X113018685Y-110714475D01*
X113035210Y-110689743D01*
X113056243Y-110668710D01*
X113080975Y-110652185D01*
X113108455Y-110640802D01*
X113137628Y-110635000D01*
X113167372Y-110635000D01*
X113196545Y-110640802D01*
X113196545Y-110640802D01*
G37*
G36*
X114476545Y-110640802D02*
X114504025Y-110652185D01*
X114528757Y-110668710D01*
X114549790Y-110689743D01*
X114566315Y-110714475D01*
X114577698Y-110741955D01*
X114583500Y-110771128D01*
X114583500Y-110800872D01*
X114577698Y-110830045D01*
X114566315Y-110857525D01*
X114549790Y-110882257D01*
X114528757Y-110903290D01*
X114504025Y-110919815D01*
X114502330Y-110920517D01*
X114480723Y-110932066D01*
X114461781Y-110947611D01*
X114446236Y-110966553D01*
X114434684Y-110988164D01*
X114432500Y-110995365D01*
X114430316Y-110988165D01*
X114418765Y-110966554D01*
X114403220Y-110947612D01*
X114384278Y-110932067D01*
X114362670Y-110920517D01*
X114360975Y-110919815D01*
X114336243Y-110903290D01*
X114315210Y-110882257D01*
X114298685Y-110857525D01*
X114287302Y-110830045D01*
X114281500Y-110800872D01*
X114281500Y-110771128D01*
X114287302Y-110741955D01*
X114298685Y-110714475D01*
X114315210Y-110689743D01*
X114336243Y-110668710D01*
X114360975Y-110652185D01*
X114388455Y-110640802D01*
X114417628Y-110635000D01*
X114447372Y-110635000D01*
X114476545Y-110640802D01*
X114476545Y-110640802D01*
G37*
G36*
X112556545Y-110640802D02*
X112584025Y-110652185D01*
X112608757Y-110668710D01*
X112629790Y-110689743D01*
X112646315Y-110714475D01*
X112657698Y-110741955D01*
X112663500Y-110771128D01*
X112663500Y-110800872D01*
X112657698Y-110830045D01*
X112646315Y-110857525D01*
X112629790Y-110882257D01*
X112608757Y-110903290D01*
X112584025Y-110919815D01*
X112582330Y-110920517D01*
X112560723Y-110932066D01*
X112541781Y-110947611D01*
X112526236Y-110966553D01*
X112514684Y-110988164D01*
X112512500Y-110995365D01*
X112510316Y-110988165D01*
X112498765Y-110966554D01*
X112483220Y-110947612D01*
X112464278Y-110932067D01*
X112442670Y-110920517D01*
X112440975Y-110919815D01*
X112416243Y-110903290D01*
X112395210Y-110882257D01*
X112378685Y-110857525D01*
X112367302Y-110830045D01*
X112361500Y-110800872D01*
X112361500Y-110771128D01*
X112367302Y-110741955D01*
X112378685Y-110714475D01*
X112395210Y-110689743D01*
X112416243Y-110668710D01*
X112440975Y-110652185D01*
X112468455Y-110640802D01*
X112497628Y-110635000D01*
X112527372Y-110635000D01*
X112556545Y-110640802D01*
X112556545Y-110640802D01*
G37*
G36*
X115116545Y-110640802D02*
X115144025Y-110652185D01*
X115168757Y-110668710D01*
X115189790Y-110689743D01*
X115206315Y-110714475D01*
X115217698Y-110741955D01*
X115223500Y-110771128D01*
X115223500Y-110800872D01*
X115217698Y-110830045D01*
X115206315Y-110857525D01*
X115189790Y-110882257D01*
X115168757Y-110903290D01*
X115144025Y-110919815D01*
X115142330Y-110920517D01*
X115120723Y-110932066D01*
X115101781Y-110947611D01*
X115086236Y-110966553D01*
X115074684Y-110988164D01*
X115072500Y-110995365D01*
X115070316Y-110988165D01*
X115058765Y-110966554D01*
X115043220Y-110947612D01*
X115024278Y-110932067D01*
X115002670Y-110920517D01*
X115000975Y-110919815D01*
X114976243Y-110903290D01*
X114955210Y-110882257D01*
X114938685Y-110857525D01*
X114927302Y-110830045D01*
X114921500Y-110800872D01*
X114921500Y-110771128D01*
X114927302Y-110741955D01*
X114938685Y-110714475D01*
X114955210Y-110689743D01*
X114976243Y-110668710D01*
X115000975Y-110652185D01*
X115028455Y-110640802D01*
X115057628Y-110635000D01*
X115087372Y-110635000D01*
X115116545Y-110640802D01*
X115116545Y-110640802D01*
G37*
G36*
X115756545Y-110640802D02*
X115784025Y-110652185D01*
X115808757Y-110668710D01*
X115829790Y-110689743D01*
X115846315Y-110714475D01*
X115857698Y-110741955D01*
X115863500Y-110771128D01*
X115863500Y-110800872D01*
X115857698Y-110830045D01*
X115846315Y-110857525D01*
X115829790Y-110882257D01*
X115808757Y-110903290D01*
X115784025Y-110919815D01*
X115782330Y-110920517D01*
X115760723Y-110932066D01*
X115741781Y-110947611D01*
X115726236Y-110966553D01*
X115714684Y-110988164D01*
X115712500Y-110995365D01*
X115710316Y-110988165D01*
X115698765Y-110966554D01*
X115683220Y-110947612D01*
X115664278Y-110932067D01*
X115642670Y-110920517D01*
X115640975Y-110919815D01*
X115616243Y-110903290D01*
X115595210Y-110882257D01*
X115578685Y-110857525D01*
X115567302Y-110830045D01*
X115561500Y-110800872D01*
X115561500Y-110771128D01*
X115567302Y-110741955D01*
X115578685Y-110714475D01*
X115595210Y-110689743D01*
X115616243Y-110668710D01*
X115640975Y-110652185D01*
X115668455Y-110640802D01*
X115697628Y-110635000D01*
X115727372Y-110635000D01*
X115756545Y-110640802D01*
X115756545Y-110640802D01*
G37*
G36*
X116396545Y-110640802D02*
X116424025Y-110652185D01*
X116448757Y-110668710D01*
X116469790Y-110689743D01*
X116486315Y-110714475D01*
X116497698Y-110741955D01*
X116503500Y-110771128D01*
X116503500Y-110800872D01*
X116497698Y-110830045D01*
X116486315Y-110857525D01*
X116469790Y-110882257D01*
X116448757Y-110903290D01*
X116424025Y-110919815D01*
X116422330Y-110920517D01*
X116400723Y-110932066D01*
X116381781Y-110947611D01*
X116366236Y-110966553D01*
X116354684Y-110988164D01*
X116352500Y-110995365D01*
X116350316Y-110988165D01*
X116338765Y-110966554D01*
X116323220Y-110947612D01*
X116304278Y-110932067D01*
X116282670Y-110920517D01*
X116280975Y-110919815D01*
X116256243Y-110903290D01*
X116235210Y-110882257D01*
X116218685Y-110857525D01*
X116207302Y-110830045D01*
X116201500Y-110800872D01*
X116201500Y-110771128D01*
X116207302Y-110741955D01*
X116218685Y-110714475D01*
X116235210Y-110689743D01*
X116256243Y-110668710D01*
X116280975Y-110652185D01*
X116308455Y-110640802D01*
X116337628Y-110635000D01*
X116367372Y-110635000D01*
X116396545Y-110640802D01*
X116396545Y-110640802D01*
G37*
G36*
X117036545Y-110640802D02*
X117064025Y-110652185D01*
X117088757Y-110668710D01*
X117109790Y-110689743D01*
X117126315Y-110714475D01*
X117137698Y-110741955D01*
X117143500Y-110771128D01*
X117143500Y-110800872D01*
X117137698Y-110830045D01*
X117126315Y-110857525D01*
X117109790Y-110882257D01*
X117088757Y-110903290D01*
X117064025Y-110919815D01*
X117062330Y-110920517D01*
X117040723Y-110932066D01*
X117021781Y-110947611D01*
X117006236Y-110966553D01*
X116994684Y-110988164D01*
X116992500Y-110995365D01*
X116990316Y-110988165D01*
X116978765Y-110966554D01*
X116963220Y-110947612D01*
X116944278Y-110932067D01*
X116922670Y-110920517D01*
X116920975Y-110919815D01*
X116896243Y-110903290D01*
X116875210Y-110882257D01*
X116858685Y-110857525D01*
X116847302Y-110830045D01*
X116841500Y-110800872D01*
X116841500Y-110771128D01*
X116847302Y-110741955D01*
X116858685Y-110714475D01*
X116875210Y-110689743D01*
X116896243Y-110668710D01*
X116920975Y-110652185D01*
X116948455Y-110640802D01*
X116977628Y-110635000D01*
X117007372Y-110635000D01*
X117036545Y-110640802D01*
X117036545Y-110640802D01*
G37*
G36*
X182556545Y-110640802D02*
X182584025Y-110652185D01*
X182608757Y-110668710D01*
X182629790Y-110689743D01*
X182646315Y-110714475D01*
X182657698Y-110741955D01*
X182663500Y-110771128D01*
X182663500Y-110800872D01*
X182657698Y-110830045D01*
X182646315Y-110857525D01*
X182629790Y-110882257D01*
X182608757Y-110903290D01*
X182584025Y-110919815D01*
X182582330Y-110920517D01*
X182560723Y-110932066D01*
X182541781Y-110947611D01*
X182526236Y-110966553D01*
X182514684Y-110988164D01*
X182512500Y-110995365D01*
X182510316Y-110988165D01*
X182498765Y-110966554D01*
X182483220Y-110947612D01*
X182464278Y-110932067D01*
X182442670Y-110920517D01*
X182440975Y-110919815D01*
X182416243Y-110903290D01*
X182395210Y-110882257D01*
X182378685Y-110857525D01*
X182367302Y-110830045D01*
X182361500Y-110800872D01*
X182361500Y-110771128D01*
X182367302Y-110741955D01*
X182378685Y-110714475D01*
X182395210Y-110689743D01*
X182416243Y-110668710D01*
X182440975Y-110652185D01*
X182468455Y-110640802D01*
X182497628Y-110635000D01*
X182527372Y-110635000D01*
X182556545Y-110640802D01*
X182556545Y-110640802D01*
G37*
G36*
X183196545Y-110640802D02*
X183224025Y-110652185D01*
X183248757Y-110668710D01*
X183269790Y-110689743D01*
X183286315Y-110714475D01*
X183297698Y-110741955D01*
X183303500Y-110771128D01*
X183303500Y-110800872D01*
X183297698Y-110830045D01*
X183286315Y-110857525D01*
X183269790Y-110882257D01*
X183248757Y-110903290D01*
X183224025Y-110919815D01*
X183222330Y-110920517D01*
X183200723Y-110932066D01*
X183181781Y-110947611D01*
X183166236Y-110966553D01*
X183154684Y-110988164D01*
X183152500Y-110995365D01*
X183150316Y-110988165D01*
X183138765Y-110966554D01*
X183123220Y-110947612D01*
X183104278Y-110932067D01*
X183082670Y-110920517D01*
X183080975Y-110919815D01*
X183056243Y-110903290D01*
X183035210Y-110882257D01*
X183018685Y-110857525D01*
X183007302Y-110830045D01*
X183001500Y-110800872D01*
X183001500Y-110771128D01*
X183007302Y-110741955D01*
X183018685Y-110714475D01*
X183035210Y-110689743D01*
X183056243Y-110668710D01*
X183080975Y-110652185D01*
X183108455Y-110640802D01*
X183137628Y-110635000D01*
X183167372Y-110635000D01*
X183196545Y-110640802D01*
X183196545Y-110640802D01*
G37*
G36*
X183836545Y-110640802D02*
X183864025Y-110652185D01*
X183888757Y-110668710D01*
X183909790Y-110689743D01*
X183926315Y-110714475D01*
X183937698Y-110741955D01*
X183943500Y-110771128D01*
X183943500Y-110800872D01*
X183937698Y-110830045D01*
X183926315Y-110857525D01*
X183909790Y-110882257D01*
X183888757Y-110903290D01*
X183864025Y-110919815D01*
X183862330Y-110920517D01*
X183840723Y-110932066D01*
X183821781Y-110947611D01*
X183806236Y-110966553D01*
X183794684Y-110988164D01*
X183792500Y-110995365D01*
X183790316Y-110988165D01*
X183778765Y-110966554D01*
X183763220Y-110947612D01*
X183744278Y-110932067D01*
X183722670Y-110920517D01*
X183720975Y-110919815D01*
X183696243Y-110903290D01*
X183675210Y-110882257D01*
X183658685Y-110857525D01*
X183647302Y-110830045D01*
X183641500Y-110800872D01*
X183641500Y-110771128D01*
X183647302Y-110741955D01*
X183658685Y-110714475D01*
X183675210Y-110689743D01*
X183696243Y-110668710D01*
X183720975Y-110652185D01*
X183748455Y-110640802D01*
X183777628Y-110635000D01*
X183807372Y-110635000D01*
X183836545Y-110640802D01*
X183836545Y-110640802D01*
G37*
G36*
X184476545Y-110640802D02*
X184504025Y-110652185D01*
X184528757Y-110668710D01*
X184549790Y-110689743D01*
X184566315Y-110714475D01*
X184577698Y-110741955D01*
X184583500Y-110771128D01*
X184583500Y-110800872D01*
X184577698Y-110830045D01*
X184566315Y-110857525D01*
X184549790Y-110882257D01*
X184528757Y-110903290D01*
X184504025Y-110919815D01*
X184502330Y-110920517D01*
X184480723Y-110932066D01*
X184461781Y-110947611D01*
X184446236Y-110966553D01*
X184434684Y-110988164D01*
X184432500Y-110995365D01*
X184430316Y-110988165D01*
X184418765Y-110966554D01*
X184403220Y-110947612D01*
X184384278Y-110932067D01*
X184362670Y-110920517D01*
X184360975Y-110919815D01*
X184336243Y-110903290D01*
X184315210Y-110882257D01*
X184298685Y-110857525D01*
X184287302Y-110830045D01*
X184281500Y-110800872D01*
X184281500Y-110771128D01*
X184287302Y-110741955D01*
X184298685Y-110714475D01*
X184315210Y-110689743D01*
X184336243Y-110668710D01*
X184360975Y-110652185D01*
X184388455Y-110640802D01*
X184417628Y-110635000D01*
X184447372Y-110635000D01*
X184476545Y-110640802D01*
X184476545Y-110640802D01*
G37*
G36*
X185116545Y-110640802D02*
X185144025Y-110652185D01*
X185168757Y-110668710D01*
X185189790Y-110689743D01*
X185206315Y-110714475D01*
X185217698Y-110741955D01*
X185223500Y-110771128D01*
X185223500Y-110800872D01*
X185217698Y-110830045D01*
X185206315Y-110857525D01*
X185189790Y-110882257D01*
X185168757Y-110903290D01*
X185144025Y-110919815D01*
X185142330Y-110920517D01*
X185120723Y-110932066D01*
X185101781Y-110947611D01*
X185086236Y-110966553D01*
X185074684Y-110988164D01*
X185072500Y-110995365D01*
X185070316Y-110988165D01*
X185058765Y-110966554D01*
X185043220Y-110947612D01*
X185024278Y-110932067D01*
X185002670Y-110920517D01*
X185000975Y-110919815D01*
X184976243Y-110903290D01*
X184955210Y-110882257D01*
X184938685Y-110857525D01*
X184927302Y-110830045D01*
X184921500Y-110800872D01*
X184921500Y-110771128D01*
X184927302Y-110741955D01*
X184938685Y-110714475D01*
X184955210Y-110689743D01*
X184976243Y-110668710D01*
X185000975Y-110652185D01*
X185028455Y-110640802D01*
X185057628Y-110635000D01*
X185087372Y-110635000D01*
X185116545Y-110640802D01*
X185116545Y-110640802D01*
G37*
G36*
X185756545Y-110640802D02*
X185784025Y-110652185D01*
X185808757Y-110668710D01*
X185829790Y-110689743D01*
X185846315Y-110714475D01*
X185857698Y-110741955D01*
X185863500Y-110771128D01*
X185863500Y-110800872D01*
X185857698Y-110830045D01*
X185846315Y-110857525D01*
X185829790Y-110882257D01*
X185808757Y-110903290D01*
X185784025Y-110919815D01*
X185782330Y-110920517D01*
X185760723Y-110932066D01*
X185741781Y-110947611D01*
X185726236Y-110966553D01*
X185714684Y-110988164D01*
X185712500Y-110995365D01*
X185710316Y-110988165D01*
X185698765Y-110966554D01*
X185683220Y-110947612D01*
X185664278Y-110932067D01*
X185642670Y-110920517D01*
X185640975Y-110919815D01*
X185616243Y-110903290D01*
X185595210Y-110882257D01*
X185578685Y-110857525D01*
X185567302Y-110830045D01*
X185561500Y-110800872D01*
X185561500Y-110771128D01*
X185567302Y-110741955D01*
X185578685Y-110714475D01*
X185595210Y-110689743D01*
X185616243Y-110668710D01*
X185640975Y-110652185D01*
X185668455Y-110640802D01*
X185697628Y-110635000D01*
X185727372Y-110635000D01*
X185756545Y-110640802D01*
X185756545Y-110640802D01*
G37*
G36*
X186396545Y-110640802D02*
X186424025Y-110652185D01*
X186448757Y-110668710D01*
X186469790Y-110689743D01*
X186486315Y-110714475D01*
X186497698Y-110741955D01*
X186503500Y-110771128D01*
X186503500Y-110800872D01*
X186497698Y-110830045D01*
X186486315Y-110857525D01*
X186469790Y-110882257D01*
X186448757Y-110903290D01*
X186424025Y-110919815D01*
X186422330Y-110920517D01*
X186400723Y-110932066D01*
X186381781Y-110947611D01*
X186366236Y-110966553D01*
X186354684Y-110988164D01*
X186352500Y-110995365D01*
X186350316Y-110988165D01*
X186338765Y-110966554D01*
X186323220Y-110947612D01*
X186304278Y-110932067D01*
X186282670Y-110920517D01*
X186280975Y-110919815D01*
X186256243Y-110903290D01*
X186235210Y-110882257D01*
X186218685Y-110857525D01*
X186207302Y-110830045D01*
X186201500Y-110800872D01*
X186201500Y-110771128D01*
X186207302Y-110741955D01*
X186218685Y-110714475D01*
X186235210Y-110689743D01*
X186256243Y-110668710D01*
X186280975Y-110652185D01*
X186308455Y-110640802D01*
X186337628Y-110635000D01*
X186367372Y-110635000D01*
X186396545Y-110640802D01*
X186396545Y-110640802D01*
G37*
G36*
X187036545Y-110640802D02*
X187064025Y-110652185D01*
X187088757Y-110668710D01*
X187109790Y-110689743D01*
X187126315Y-110714475D01*
X187137698Y-110741955D01*
X187143500Y-110771128D01*
X187143500Y-110800872D01*
X187137698Y-110830045D01*
X187126315Y-110857525D01*
X187109790Y-110882257D01*
X187088757Y-110903290D01*
X187064025Y-110919815D01*
X187062330Y-110920517D01*
X187040723Y-110932066D01*
X187021781Y-110947611D01*
X187006236Y-110966553D01*
X186994684Y-110988164D01*
X186992500Y-110995365D01*
X186990316Y-110988165D01*
X186978765Y-110966554D01*
X186963220Y-110947612D01*
X186944278Y-110932067D01*
X186922670Y-110920517D01*
X186920975Y-110919815D01*
X186896243Y-110903290D01*
X186875210Y-110882257D01*
X186858685Y-110857525D01*
X186847302Y-110830045D01*
X186841500Y-110800872D01*
X186841500Y-110771128D01*
X186847302Y-110741955D01*
X186858685Y-110714475D01*
X186875210Y-110689743D01*
X186896243Y-110668710D01*
X186920975Y-110652185D01*
X186948455Y-110640802D01*
X186977628Y-110635000D01*
X187007372Y-110635000D01*
X187036545Y-110640802D01*
X187036545Y-110640802D01*
G37*
G36*
X113836545Y-110640802D02*
X113864025Y-110652185D01*
X113888757Y-110668710D01*
X113909790Y-110689743D01*
X113926315Y-110714475D01*
X113937698Y-110741955D01*
X113943500Y-110771128D01*
X113943500Y-110800872D01*
X113937698Y-110830045D01*
X113926315Y-110857525D01*
X113909790Y-110882257D01*
X113888757Y-110903290D01*
X113864025Y-110919815D01*
X113862330Y-110920517D01*
X113840723Y-110932066D01*
X113821781Y-110947611D01*
X113806236Y-110966553D01*
X113794684Y-110988164D01*
X113792500Y-110995365D01*
X113790316Y-110988165D01*
X113778765Y-110966554D01*
X113763220Y-110947612D01*
X113744278Y-110932067D01*
X113722670Y-110920517D01*
X113720975Y-110919815D01*
X113696243Y-110903290D01*
X113675210Y-110882257D01*
X113658685Y-110857525D01*
X113647302Y-110830045D01*
X113641500Y-110800872D01*
X113641500Y-110771128D01*
X113647302Y-110741955D01*
X113658685Y-110714475D01*
X113675210Y-110689743D01*
X113696243Y-110668710D01*
X113720975Y-110652185D01*
X113748455Y-110640802D01*
X113777628Y-110635000D01*
X113807372Y-110635000D01*
X113836545Y-110640802D01*
X113836545Y-110640802D01*
G37*
M02*
