G04 #@! TF.GenerationSoftware,KiCad,Pcbnew,5.0.2+dfsg1-1~bpo9+1*
G04 #@! TF.CreationDate,2019-09-20T17:36:01+02:00*
G04 #@! TF.ProjectId,OV9281,4f563932-3831-42e6-9b69-6361645f7063,rev?*
G04 #@! TF.SameCoordinates,Original*
G04 #@! TF.FileFunction,Copper,L3,Inr*
G04 #@! TF.FilePolarity,Positive*
%FSLAX46Y46*%
G04 Gerber Fmt 4.6, Leading zero omitted, Abs format (unit mm)*
G04 Created by KiCad (PCBNEW 5.0.2+dfsg1-1~bpo9+1) date Fri 20 Sep 2019 05:36:01 PM CEST*
%MOMM*%
%LPD*%
G01*
G04 APERTURE LIST*
G04 #@! TA.AperFunction,ViaPad*
%ADD10C,0.550000*%
G04 #@! TD*
G04 #@! TA.AperFunction,Conductor*
%ADD11C,0.254000*%
G04 #@! TD*
G04 APERTURE END LIST*
D10*
G04 #@! TO.N,GND*
X190178000Y-120540000D03*
X184028000Y-123590000D03*
X119302500Y-123136000D03*
X108802500Y-106680000D03*
X111252500Y-102386000D03*
X120402500Y-104536000D03*
X112002500Y-119010990D03*
X128102500Y-114036000D03*
X158252500Y-121136000D03*
X156752500Y-121136000D03*
X155252500Y-121136000D03*
X153752500Y-121086000D03*
X149252500Y-120986000D03*
X147752500Y-120986000D03*
X181452500Y-119136000D03*
X179128000Y-121240000D03*
X169552500Y-109986000D03*
X180202500Y-105136000D03*
X106852502Y-123086000D03*
X112952500Y-107586000D03*
X105659361Y-122944832D03*
X185552500Y-105285998D03*
G04 #@! TO.N,+3V3*
X119102500Y-120986000D03*
X114152500Y-122936000D03*
X126802500Y-123436000D03*
X138052500Y-120736000D03*
X138652500Y-121436000D03*
X190152500Y-122586000D03*
X168052500Y-122385998D03*
X186552500Y-121636000D03*
X128652500Y-108386000D03*
X121152500Y-101486000D03*
X128652500Y-101585994D03*
G04 #@! TO.N,+2V8*
X173352500Y-111936000D03*
X102521736Y-113785335D03*
X101452500Y-114886000D03*
G04 #@! TO.N,+1V8*
X112752500Y-106034577D03*
X110102500Y-104736000D03*
X188502500Y-103086000D03*
X189752500Y-105036000D03*
X172552500Y-105336000D03*
X168352500Y-105436000D03*
X187602494Y-106286000D03*
X126852500Y-108186000D03*
X117252500Y-108086000D03*
X102352500Y-107886000D03*
G04 #@! TO.N,+1V2*
X102552500Y-117286000D03*
X175502500Y-118936000D03*
X170452500Y-117486000D03*
G04 #@! TO.N,/CAM_L_D1_P*
X165532500Y-106926000D03*
G04 #@! TO.N,/CAM_L_D1_N*
X165942500Y-107646000D03*
G04 #@! TO.N,/CAM_R_D1_N*
X125102500Y-104996000D03*
G04 #@! TO.N,/CAM_R_D1_P*
X125112500Y-105736000D03*
G04 #@! TO.N,/CAM_L_CLK_P*
X156012500Y-117836000D03*
G04 #@! TO.N,/CAM_L_CLK_N*
X156022500Y-116966000D03*
G04 #@! TO.N,/CAM_R_CLK_N*
X114542500Y-107546000D03*
G04 #@! TO.N,/CAM_R_CLK_P*
X115042500Y-108136000D03*
G04 #@! TO.N,/CAM_L_D0_N*
X158242500Y-117056000D03*
G04 #@! TO.N,/CAM_L_D0_P*
X158212500Y-117916000D03*
G04 #@! TO.N,/CAM_R_D0_N*
X114102500Y-106266000D03*
G04 #@! TO.N,/CAM_R_D0_P*
X114632500Y-106836000D03*
G04 #@! TO.N,/M1_DOVDD*
X186990000Y-114820000D03*
X183140000Y-110020000D03*
X180225000Y-112525000D03*
X185619792Y-109207262D03*
G04 #@! TO.N,/M1_AGND*
X187752500Y-111586000D03*
X188190000Y-113320000D03*
X188602500Y-110386000D03*
G04 #@! TO.N,/M1_DVDD*
X183060000Y-115240000D03*
X181760000Y-110360000D03*
X181460000Y-114020000D03*
X188921426Y-113033159D03*
X186172500Y-108596000D03*
X185090009Y-109960000D03*
G04 #@! TO.N,/M1_AVDD*
X187730000Y-114660000D03*
X187952500Y-110886000D03*
X181440000Y-113290000D03*
G04 #@! TO.N,/M1_DGND*
X186822500Y-115596000D03*
X183790000Y-115100000D03*
X182430000Y-109940000D03*
X182270000Y-114980000D03*
X183920000Y-116010000D03*
X181609254Y-111291699D03*
G04 #@! TO.N,/M1_VN3*
X188702520Y-111286000D03*
G04 #@! TO.N,/M1_VH*
X189502500Y-111386000D03*
G04 #@! TO.N,/M1_VN2*
X189652500Y-112536004D03*
G04 #@! TO.N,/M1_SID*
X181025000Y-112036000D03*
G04 #@! TO.N,/M1_MCLK*
X180825000Y-111300000D03*
G04 #@! TO.N,/M1_PVDD*
X185852500Y-115636000D03*
G04 #@! TO.N,/M1_VN1*
X188752500Y-114436000D03*
G04 #@! TO.N,/M2_DOVDD*
X116992500Y-114820000D03*
X113262500Y-109866000D03*
X115992500Y-109996000D03*
X110352521Y-112473811D03*
G04 #@! TO.N,/M2_AGND*
X103852500Y-113686000D03*
X122652500Y-118386000D03*
X118482500Y-113276000D03*
X123052500Y-109885992D03*
X123152500Y-111586000D03*
X123152500Y-113286000D03*
X123152500Y-114985994D03*
X123152500Y-116786000D03*
X101436159Y-113161289D03*
X118234294Y-109767794D03*
G04 #@! TO.N,/M2_DVDD*
X111462500Y-114020000D03*
X113062500Y-115240000D03*
X119872500Y-113286000D03*
X118712500Y-110946000D03*
X115152500Y-109286000D03*
X111652500Y-109786000D03*
X114952500Y-114886000D03*
G04 #@! TO.N,/M2_AVDD*
X117702500Y-110970000D03*
X111442500Y-113290000D03*
X119126000Y-116486002D03*
X108152500Y-115130000D03*
G04 #@! TO.N,/M2_DGND*
X112471751Y-109936215D03*
X109152500Y-109586000D03*
X114952500Y-118986000D03*
X113552500Y-118986000D03*
X106952496Y-117886000D03*
X108352500Y-118086000D03*
X113852500Y-114886000D03*
X117052500Y-118486000D03*
X108052500Y-110186000D03*
X108052502Y-109286000D03*
X117062500Y-115986000D03*
X111456145Y-110782590D03*
G04 #@! TO.N,/M2_VN3*
X118525000Y-111806000D03*
G04 #@! TO.N,/M2_VH*
X120295000Y-110786000D03*
G04 #@! TO.N,/M2_CAM_SCL_1V8*
X111002500Y-115686000D03*
G04 #@! TO.N,/M2_VN2*
X120265000Y-112536000D03*
G04 #@! TO.N,/M2_SID*
X108745000Y-112636000D03*
G04 #@! TO.N,/M2_MCLK_M*
X110562500Y-111476000D03*
G04 #@! TO.N,/M2_PVDD*
X116277500Y-115750000D03*
G04 #@! TO.N,/M2_VN1*
X119042500Y-113926000D03*
G04 #@! TO.N,/M2_CAM_SDA_1V8*
X114352500Y-115536000D03*
G04 #@! TD*
D11*
G04 #@! TO.N,+3V3*
G36*
X199648000Y-124648000D02*
X110879500Y-124648000D01*
X110879500Y-123026200D01*
X118750500Y-123026200D01*
X118750500Y-123245800D01*
X118834537Y-123448683D01*
X118989817Y-123603963D01*
X119192700Y-123688000D01*
X119412300Y-123688000D01*
X119615183Y-123603963D01*
X119738946Y-123480200D01*
X183476000Y-123480200D01*
X183476000Y-123699800D01*
X183560037Y-123902683D01*
X183715317Y-124057963D01*
X183918200Y-124142000D01*
X184137800Y-124142000D01*
X184340683Y-124057963D01*
X184495963Y-123902683D01*
X184580000Y-123699800D01*
X184580000Y-123480200D01*
X184495963Y-123277317D01*
X184340683Y-123122037D01*
X184137800Y-123038000D01*
X183918200Y-123038000D01*
X183715317Y-123122037D01*
X183560037Y-123277317D01*
X183476000Y-123480200D01*
X119738946Y-123480200D01*
X119770463Y-123448683D01*
X119854500Y-123245800D01*
X119854500Y-123026200D01*
X119770463Y-122823317D01*
X119615183Y-122668037D01*
X119412300Y-122584000D01*
X119192700Y-122584000D01*
X118989817Y-122668037D01*
X118834537Y-122823317D01*
X118750500Y-123026200D01*
X110879500Y-123026200D01*
X110879500Y-120876200D01*
X147200500Y-120876200D01*
X147200500Y-121095800D01*
X147284537Y-121298683D01*
X147439817Y-121453963D01*
X147642700Y-121538000D01*
X147862300Y-121538000D01*
X148065183Y-121453963D01*
X148220463Y-121298683D01*
X148304500Y-121095800D01*
X148304500Y-120876200D01*
X148700500Y-120876200D01*
X148700500Y-121095800D01*
X148784537Y-121298683D01*
X148939817Y-121453963D01*
X149142700Y-121538000D01*
X149362300Y-121538000D01*
X149565183Y-121453963D01*
X149720463Y-121298683D01*
X149804500Y-121095800D01*
X149804500Y-120976200D01*
X153200500Y-120976200D01*
X153200500Y-121195800D01*
X153284537Y-121398683D01*
X153439817Y-121553963D01*
X153642700Y-121638000D01*
X153862300Y-121638000D01*
X154065183Y-121553963D01*
X154220463Y-121398683D01*
X154304500Y-121195800D01*
X154304500Y-121026200D01*
X154700500Y-121026200D01*
X154700500Y-121245800D01*
X154784537Y-121448683D01*
X154939817Y-121603963D01*
X155142700Y-121688000D01*
X155362300Y-121688000D01*
X155565183Y-121603963D01*
X155720463Y-121448683D01*
X155804500Y-121245800D01*
X155804500Y-121026200D01*
X156200500Y-121026200D01*
X156200500Y-121245800D01*
X156284537Y-121448683D01*
X156439817Y-121603963D01*
X156642700Y-121688000D01*
X156862300Y-121688000D01*
X157065183Y-121603963D01*
X157220463Y-121448683D01*
X157304500Y-121245800D01*
X157304500Y-121026200D01*
X157700500Y-121026200D01*
X157700500Y-121245800D01*
X157784537Y-121448683D01*
X157939817Y-121603963D01*
X158142700Y-121688000D01*
X158362300Y-121688000D01*
X158565183Y-121603963D01*
X158720463Y-121448683D01*
X158804500Y-121245800D01*
X158804500Y-121130200D01*
X178576000Y-121130200D01*
X178576000Y-121349800D01*
X178660037Y-121552683D01*
X178815317Y-121707963D01*
X179018200Y-121792000D01*
X179237800Y-121792000D01*
X179440683Y-121707963D01*
X179595963Y-121552683D01*
X179680000Y-121349800D01*
X179680000Y-121130200D01*
X179595963Y-120927317D01*
X179440683Y-120772037D01*
X179237800Y-120688000D01*
X179018200Y-120688000D01*
X178815317Y-120772037D01*
X178660037Y-120927317D01*
X178576000Y-121130200D01*
X158804500Y-121130200D01*
X158804500Y-121026200D01*
X158720463Y-120823317D01*
X158565183Y-120668037D01*
X158362300Y-120584000D01*
X158142700Y-120584000D01*
X157939817Y-120668037D01*
X157784537Y-120823317D01*
X157700500Y-121026200D01*
X157304500Y-121026200D01*
X157220463Y-120823317D01*
X157065183Y-120668037D01*
X156862300Y-120584000D01*
X156642700Y-120584000D01*
X156439817Y-120668037D01*
X156284537Y-120823317D01*
X156200500Y-121026200D01*
X155804500Y-121026200D01*
X155720463Y-120823317D01*
X155565183Y-120668037D01*
X155362300Y-120584000D01*
X155142700Y-120584000D01*
X154939817Y-120668037D01*
X154784537Y-120823317D01*
X154700500Y-121026200D01*
X154304500Y-121026200D01*
X154304500Y-120976200D01*
X154220463Y-120773317D01*
X154065183Y-120618037D01*
X153862300Y-120534000D01*
X153642700Y-120534000D01*
X153439817Y-120618037D01*
X153284537Y-120773317D01*
X153200500Y-120976200D01*
X149804500Y-120976200D01*
X149804500Y-120876200D01*
X149720463Y-120673317D01*
X149565183Y-120518037D01*
X149362300Y-120434000D01*
X149142700Y-120434000D01*
X148939817Y-120518037D01*
X148784537Y-120673317D01*
X148700500Y-120876200D01*
X148304500Y-120876200D01*
X148220463Y-120673317D01*
X148065183Y-120518037D01*
X147862300Y-120434000D01*
X147642700Y-120434000D01*
X147439817Y-120518037D01*
X147284537Y-120673317D01*
X147200500Y-120876200D01*
X110879500Y-120876200D01*
X110879500Y-120213000D01*
X189724354Y-120213000D01*
X189710037Y-120227317D01*
X189626000Y-120430200D01*
X189626000Y-120649800D01*
X189710037Y-120852683D01*
X189865317Y-121007963D01*
X190068200Y-121092000D01*
X190287800Y-121092000D01*
X190490683Y-121007963D01*
X190645963Y-120852683D01*
X190730000Y-120649800D01*
X190730000Y-120430200D01*
X190645963Y-120227317D01*
X190631646Y-120213000D01*
X193352500Y-120213000D01*
X193401101Y-120203333D01*
X193442303Y-120175803D01*
X193469833Y-120134601D01*
X193479500Y-120086000D01*
X193479500Y-102486000D01*
X193469833Y-102437399D01*
X193442303Y-102396197D01*
X193401101Y-102368667D01*
X193352500Y-102359000D01*
X119879500Y-102359000D01*
X119879500Y-100352000D01*
X199648001Y-100352000D01*
X199648000Y-124648000D01*
X199648000Y-124648000D01*
G37*
X199648000Y-124648000D02*
X110879500Y-124648000D01*
X110879500Y-123026200D01*
X118750500Y-123026200D01*
X118750500Y-123245800D01*
X118834537Y-123448683D01*
X118989817Y-123603963D01*
X119192700Y-123688000D01*
X119412300Y-123688000D01*
X119615183Y-123603963D01*
X119738946Y-123480200D01*
X183476000Y-123480200D01*
X183476000Y-123699800D01*
X183560037Y-123902683D01*
X183715317Y-124057963D01*
X183918200Y-124142000D01*
X184137800Y-124142000D01*
X184340683Y-124057963D01*
X184495963Y-123902683D01*
X184580000Y-123699800D01*
X184580000Y-123480200D01*
X184495963Y-123277317D01*
X184340683Y-123122037D01*
X184137800Y-123038000D01*
X183918200Y-123038000D01*
X183715317Y-123122037D01*
X183560037Y-123277317D01*
X183476000Y-123480200D01*
X119738946Y-123480200D01*
X119770463Y-123448683D01*
X119854500Y-123245800D01*
X119854500Y-123026200D01*
X119770463Y-122823317D01*
X119615183Y-122668037D01*
X119412300Y-122584000D01*
X119192700Y-122584000D01*
X118989817Y-122668037D01*
X118834537Y-122823317D01*
X118750500Y-123026200D01*
X110879500Y-123026200D01*
X110879500Y-120876200D01*
X147200500Y-120876200D01*
X147200500Y-121095800D01*
X147284537Y-121298683D01*
X147439817Y-121453963D01*
X147642700Y-121538000D01*
X147862300Y-121538000D01*
X148065183Y-121453963D01*
X148220463Y-121298683D01*
X148304500Y-121095800D01*
X148304500Y-120876200D01*
X148700500Y-120876200D01*
X148700500Y-121095800D01*
X148784537Y-121298683D01*
X148939817Y-121453963D01*
X149142700Y-121538000D01*
X149362300Y-121538000D01*
X149565183Y-121453963D01*
X149720463Y-121298683D01*
X149804500Y-121095800D01*
X149804500Y-120976200D01*
X153200500Y-120976200D01*
X153200500Y-121195800D01*
X153284537Y-121398683D01*
X153439817Y-121553963D01*
X153642700Y-121638000D01*
X153862300Y-121638000D01*
X154065183Y-121553963D01*
X154220463Y-121398683D01*
X154304500Y-121195800D01*
X154304500Y-121026200D01*
X154700500Y-121026200D01*
X154700500Y-121245800D01*
X154784537Y-121448683D01*
X154939817Y-121603963D01*
X155142700Y-121688000D01*
X155362300Y-121688000D01*
X155565183Y-121603963D01*
X155720463Y-121448683D01*
X155804500Y-121245800D01*
X155804500Y-121026200D01*
X156200500Y-121026200D01*
X156200500Y-121245800D01*
X156284537Y-121448683D01*
X156439817Y-121603963D01*
X156642700Y-121688000D01*
X156862300Y-121688000D01*
X157065183Y-121603963D01*
X157220463Y-121448683D01*
X157304500Y-121245800D01*
X157304500Y-121026200D01*
X157700500Y-121026200D01*
X157700500Y-121245800D01*
X157784537Y-121448683D01*
X157939817Y-121603963D01*
X158142700Y-121688000D01*
X158362300Y-121688000D01*
X158565183Y-121603963D01*
X158720463Y-121448683D01*
X158804500Y-121245800D01*
X158804500Y-121130200D01*
X178576000Y-121130200D01*
X178576000Y-121349800D01*
X178660037Y-121552683D01*
X178815317Y-121707963D01*
X179018200Y-121792000D01*
X179237800Y-121792000D01*
X179440683Y-121707963D01*
X179595963Y-121552683D01*
X179680000Y-121349800D01*
X179680000Y-121130200D01*
X179595963Y-120927317D01*
X179440683Y-120772037D01*
X179237800Y-120688000D01*
X179018200Y-120688000D01*
X178815317Y-120772037D01*
X178660037Y-120927317D01*
X178576000Y-121130200D01*
X158804500Y-121130200D01*
X158804500Y-121026200D01*
X158720463Y-120823317D01*
X158565183Y-120668037D01*
X158362300Y-120584000D01*
X158142700Y-120584000D01*
X157939817Y-120668037D01*
X157784537Y-120823317D01*
X157700500Y-121026200D01*
X157304500Y-121026200D01*
X157220463Y-120823317D01*
X157065183Y-120668037D01*
X156862300Y-120584000D01*
X156642700Y-120584000D01*
X156439817Y-120668037D01*
X156284537Y-120823317D01*
X156200500Y-121026200D01*
X155804500Y-121026200D01*
X155720463Y-120823317D01*
X155565183Y-120668037D01*
X155362300Y-120584000D01*
X155142700Y-120584000D01*
X154939817Y-120668037D01*
X154784537Y-120823317D01*
X154700500Y-121026200D01*
X154304500Y-121026200D01*
X154304500Y-120976200D01*
X154220463Y-120773317D01*
X154065183Y-120618037D01*
X153862300Y-120534000D01*
X153642700Y-120534000D01*
X153439817Y-120618037D01*
X153284537Y-120773317D01*
X153200500Y-120976200D01*
X149804500Y-120976200D01*
X149804500Y-120876200D01*
X149720463Y-120673317D01*
X149565183Y-120518037D01*
X149362300Y-120434000D01*
X149142700Y-120434000D01*
X148939817Y-120518037D01*
X148784537Y-120673317D01*
X148700500Y-120876200D01*
X148304500Y-120876200D01*
X148220463Y-120673317D01*
X148065183Y-120518037D01*
X147862300Y-120434000D01*
X147642700Y-120434000D01*
X147439817Y-120518037D01*
X147284537Y-120673317D01*
X147200500Y-120876200D01*
X110879500Y-120876200D01*
X110879500Y-120213000D01*
X189724354Y-120213000D01*
X189710037Y-120227317D01*
X189626000Y-120430200D01*
X189626000Y-120649800D01*
X189710037Y-120852683D01*
X189865317Y-121007963D01*
X190068200Y-121092000D01*
X190287800Y-121092000D01*
X190490683Y-121007963D01*
X190645963Y-120852683D01*
X190730000Y-120649800D01*
X190730000Y-120430200D01*
X190645963Y-120227317D01*
X190631646Y-120213000D01*
X193352500Y-120213000D01*
X193401101Y-120203333D01*
X193442303Y-120175803D01*
X193469833Y-120134601D01*
X193479500Y-120086000D01*
X193479500Y-102486000D01*
X193469833Y-102437399D01*
X193442303Y-102396197D01*
X193401101Y-102368667D01*
X193352500Y-102359000D01*
X119879500Y-102359000D01*
X119879500Y-100352000D01*
X199648001Y-100352000D01*
X199648000Y-124648000D01*
G04 #@! TO.N,+1V8*
G36*
X119025500Y-103286000D02*
X119035167Y-103334601D01*
X119062697Y-103375803D01*
X119103899Y-103403333D01*
X119152845Y-103413000D01*
X192625500Y-103213346D01*
X192625500Y-106659000D01*
X166019386Y-106659000D01*
X166000463Y-106613317D01*
X165845183Y-106458037D01*
X165642300Y-106374000D01*
X165422700Y-106374000D01*
X165219817Y-106458037D01*
X165064537Y-106613317D01*
X165045614Y-106659000D01*
X154652500Y-106659000D01*
X154603899Y-106668667D01*
X154562697Y-106696197D01*
X154535167Y-106737399D01*
X154525540Y-106789174D01*
X154572286Y-108659000D01*
X129136900Y-108659000D01*
X129204500Y-108495800D01*
X129204500Y-108276200D01*
X129120463Y-108073317D01*
X128965183Y-107918037D01*
X128762300Y-107834000D01*
X128542700Y-107834000D01*
X128339817Y-107918037D01*
X128184537Y-108073317D01*
X128100500Y-108276200D01*
X128100500Y-108495800D01*
X128168100Y-108659000D01*
X115222312Y-108659000D01*
X115355183Y-108603963D01*
X115510463Y-108448683D01*
X115594500Y-108245800D01*
X115594500Y-108026200D01*
X115510463Y-107823317D01*
X115355183Y-107668037D01*
X115152300Y-107584000D01*
X115094500Y-107584000D01*
X115094500Y-107436200D01*
X115012035Y-107237111D01*
X115100463Y-107148683D01*
X115184500Y-106945800D01*
X115184500Y-106726200D01*
X115100463Y-106523317D01*
X114945183Y-106368037D01*
X114742300Y-106284000D01*
X114654500Y-106284000D01*
X114654500Y-106156200D01*
X114570463Y-105953317D01*
X114415183Y-105798037D01*
X114212300Y-105714000D01*
X113992700Y-105714000D01*
X113789817Y-105798037D01*
X113634537Y-105953317D01*
X113550500Y-106156200D01*
X113550500Y-106375800D01*
X113634537Y-106578683D01*
X113789817Y-106733963D01*
X113992700Y-106818000D01*
X114080500Y-106818000D01*
X114080500Y-106945800D01*
X114162965Y-107144889D01*
X114074537Y-107233317D01*
X113990500Y-107436200D01*
X113990500Y-107655800D01*
X114074537Y-107858683D01*
X114229817Y-108013963D01*
X114432700Y-108098000D01*
X114490500Y-108098000D01*
X114490500Y-108245800D01*
X114574537Y-108448683D01*
X114729817Y-108603963D01*
X114862688Y-108659000D01*
X100352000Y-108659000D01*
X100352000Y-107476200D01*
X112400500Y-107476200D01*
X112400500Y-107695800D01*
X112484537Y-107898683D01*
X112639817Y-108053963D01*
X112842700Y-108138000D01*
X113062300Y-108138000D01*
X113265183Y-108053963D01*
X113420463Y-107898683D01*
X113504500Y-107695800D01*
X113504500Y-107476200D01*
X113420463Y-107273317D01*
X113265183Y-107118037D01*
X113062300Y-107034000D01*
X112842700Y-107034000D01*
X112639817Y-107118037D01*
X112484537Y-107273317D01*
X112400500Y-107476200D01*
X100352000Y-107476200D01*
X100352000Y-106570200D01*
X108250500Y-106570200D01*
X108250500Y-106789800D01*
X108334537Y-106992683D01*
X108489817Y-107147963D01*
X108692700Y-107232000D01*
X108912300Y-107232000D01*
X109115183Y-107147963D01*
X109270463Y-106992683D01*
X109354500Y-106789800D01*
X109354500Y-106570200D01*
X109270463Y-106367317D01*
X109115183Y-106212037D01*
X108912300Y-106128000D01*
X108692700Y-106128000D01*
X108489817Y-106212037D01*
X108334537Y-106367317D01*
X108250500Y-106570200D01*
X100352000Y-106570200D01*
X100352000Y-104426200D01*
X119850500Y-104426200D01*
X119850500Y-104645800D01*
X119934537Y-104848683D01*
X120089817Y-105003963D01*
X120292700Y-105088000D01*
X120512300Y-105088000D01*
X120715183Y-105003963D01*
X120832946Y-104886200D01*
X124550500Y-104886200D01*
X124550500Y-105105800D01*
X124634537Y-105308683D01*
X124696854Y-105371000D01*
X124644537Y-105423317D01*
X124560500Y-105626200D01*
X124560500Y-105845800D01*
X124644537Y-106048683D01*
X124799817Y-106203963D01*
X125002700Y-106288000D01*
X125222300Y-106288000D01*
X125425183Y-106203963D01*
X125580463Y-106048683D01*
X125664500Y-105845800D01*
X125664500Y-105626200D01*
X125580463Y-105423317D01*
X125518146Y-105361000D01*
X125570463Y-105308683D01*
X125654500Y-105105800D01*
X125654500Y-105026200D01*
X179650500Y-105026200D01*
X179650500Y-105245800D01*
X179734537Y-105448683D01*
X179889817Y-105603963D01*
X180092700Y-105688000D01*
X180312300Y-105688000D01*
X180515183Y-105603963D01*
X180670463Y-105448683D01*
X180754500Y-105245800D01*
X180754500Y-105176198D01*
X185000500Y-105176198D01*
X185000500Y-105395798D01*
X185084537Y-105598681D01*
X185239817Y-105753961D01*
X185442700Y-105837998D01*
X185662300Y-105837998D01*
X185865183Y-105753961D01*
X186020463Y-105598681D01*
X186104500Y-105395798D01*
X186104500Y-105176198D01*
X186020463Y-104973315D01*
X185865183Y-104818035D01*
X185662300Y-104733998D01*
X185442700Y-104733998D01*
X185239817Y-104818035D01*
X185084537Y-104973315D01*
X185000500Y-105176198D01*
X180754500Y-105176198D01*
X180754500Y-105026200D01*
X180670463Y-104823317D01*
X180515183Y-104668037D01*
X180312300Y-104584000D01*
X180092700Y-104584000D01*
X179889817Y-104668037D01*
X179734537Y-104823317D01*
X179650500Y-105026200D01*
X125654500Y-105026200D01*
X125654500Y-104886200D01*
X125570463Y-104683317D01*
X125415183Y-104528037D01*
X125212300Y-104444000D01*
X124992700Y-104444000D01*
X124789817Y-104528037D01*
X124634537Y-104683317D01*
X124550500Y-104886200D01*
X120832946Y-104886200D01*
X120870463Y-104848683D01*
X120954500Y-104645800D01*
X120954500Y-104426200D01*
X120870463Y-104223317D01*
X120715183Y-104068037D01*
X120512300Y-103984000D01*
X120292700Y-103984000D01*
X120089817Y-104068037D01*
X119934537Y-104223317D01*
X119850500Y-104426200D01*
X100352000Y-104426200D01*
X100352000Y-102276200D01*
X110700500Y-102276200D01*
X110700500Y-102495800D01*
X110784537Y-102698683D01*
X110939817Y-102853963D01*
X111142700Y-102938000D01*
X111362300Y-102938000D01*
X111565183Y-102853963D01*
X111720463Y-102698683D01*
X111804500Y-102495800D01*
X111804500Y-102276200D01*
X111720463Y-102073317D01*
X111565183Y-101918037D01*
X111362300Y-101834000D01*
X111142700Y-101834000D01*
X110939817Y-101918037D01*
X110784537Y-102073317D01*
X110700500Y-102276200D01*
X100352000Y-102276200D01*
X100352000Y-100352000D01*
X119025500Y-100352000D01*
X119025500Y-103286000D01*
X119025500Y-103286000D01*
G37*
X119025500Y-103286000D02*
X119035167Y-103334601D01*
X119062697Y-103375803D01*
X119103899Y-103403333D01*
X119152845Y-103413000D01*
X192625500Y-103213346D01*
X192625500Y-106659000D01*
X166019386Y-106659000D01*
X166000463Y-106613317D01*
X165845183Y-106458037D01*
X165642300Y-106374000D01*
X165422700Y-106374000D01*
X165219817Y-106458037D01*
X165064537Y-106613317D01*
X165045614Y-106659000D01*
X154652500Y-106659000D01*
X154603899Y-106668667D01*
X154562697Y-106696197D01*
X154535167Y-106737399D01*
X154525540Y-106789174D01*
X154572286Y-108659000D01*
X129136900Y-108659000D01*
X129204500Y-108495800D01*
X129204500Y-108276200D01*
X129120463Y-108073317D01*
X128965183Y-107918037D01*
X128762300Y-107834000D01*
X128542700Y-107834000D01*
X128339817Y-107918037D01*
X128184537Y-108073317D01*
X128100500Y-108276200D01*
X128100500Y-108495800D01*
X128168100Y-108659000D01*
X115222312Y-108659000D01*
X115355183Y-108603963D01*
X115510463Y-108448683D01*
X115594500Y-108245800D01*
X115594500Y-108026200D01*
X115510463Y-107823317D01*
X115355183Y-107668037D01*
X115152300Y-107584000D01*
X115094500Y-107584000D01*
X115094500Y-107436200D01*
X115012035Y-107237111D01*
X115100463Y-107148683D01*
X115184500Y-106945800D01*
X115184500Y-106726200D01*
X115100463Y-106523317D01*
X114945183Y-106368037D01*
X114742300Y-106284000D01*
X114654500Y-106284000D01*
X114654500Y-106156200D01*
X114570463Y-105953317D01*
X114415183Y-105798037D01*
X114212300Y-105714000D01*
X113992700Y-105714000D01*
X113789817Y-105798037D01*
X113634537Y-105953317D01*
X113550500Y-106156200D01*
X113550500Y-106375800D01*
X113634537Y-106578683D01*
X113789817Y-106733963D01*
X113992700Y-106818000D01*
X114080500Y-106818000D01*
X114080500Y-106945800D01*
X114162965Y-107144889D01*
X114074537Y-107233317D01*
X113990500Y-107436200D01*
X113990500Y-107655800D01*
X114074537Y-107858683D01*
X114229817Y-108013963D01*
X114432700Y-108098000D01*
X114490500Y-108098000D01*
X114490500Y-108245800D01*
X114574537Y-108448683D01*
X114729817Y-108603963D01*
X114862688Y-108659000D01*
X100352000Y-108659000D01*
X100352000Y-107476200D01*
X112400500Y-107476200D01*
X112400500Y-107695800D01*
X112484537Y-107898683D01*
X112639817Y-108053963D01*
X112842700Y-108138000D01*
X113062300Y-108138000D01*
X113265183Y-108053963D01*
X113420463Y-107898683D01*
X113504500Y-107695800D01*
X113504500Y-107476200D01*
X113420463Y-107273317D01*
X113265183Y-107118037D01*
X113062300Y-107034000D01*
X112842700Y-107034000D01*
X112639817Y-107118037D01*
X112484537Y-107273317D01*
X112400500Y-107476200D01*
X100352000Y-107476200D01*
X100352000Y-106570200D01*
X108250500Y-106570200D01*
X108250500Y-106789800D01*
X108334537Y-106992683D01*
X108489817Y-107147963D01*
X108692700Y-107232000D01*
X108912300Y-107232000D01*
X109115183Y-107147963D01*
X109270463Y-106992683D01*
X109354500Y-106789800D01*
X109354500Y-106570200D01*
X109270463Y-106367317D01*
X109115183Y-106212037D01*
X108912300Y-106128000D01*
X108692700Y-106128000D01*
X108489817Y-106212037D01*
X108334537Y-106367317D01*
X108250500Y-106570200D01*
X100352000Y-106570200D01*
X100352000Y-104426200D01*
X119850500Y-104426200D01*
X119850500Y-104645800D01*
X119934537Y-104848683D01*
X120089817Y-105003963D01*
X120292700Y-105088000D01*
X120512300Y-105088000D01*
X120715183Y-105003963D01*
X120832946Y-104886200D01*
X124550500Y-104886200D01*
X124550500Y-105105800D01*
X124634537Y-105308683D01*
X124696854Y-105371000D01*
X124644537Y-105423317D01*
X124560500Y-105626200D01*
X124560500Y-105845800D01*
X124644537Y-106048683D01*
X124799817Y-106203963D01*
X125002700Y-106288000D01*
X125222300Y-106288000D01*
X125425183Y-106203963D01*
X125580463Y-106048683D01*
X125664500Y-105845800D01*
X125664500Y-105626200D01*
X125580463Y-105423317D01*
X125518146Y-105361000D01*
X125570463Y-105308683D01*
X125654500Y-105105800D01*
X125654500Y-105026200D01*
X179650500Y-105026200D01*
X179650500Y-105245800D01*
X179734537Y-105448683D01*
X179889817Y-105603963D01*
X180092700Y-105688000D01*
X180312300Y-105688000D01*
X180515183Y-105603963D01*
X180670463Y-105448683D01*
X180754500Y-105245800D01*
X180754500Y-105176198D01*
X185000500Y-105176198D01*
X185000500Y-105395798D01*
X185084537Y-105598681D01*
X185239817Y-105753961D01*
X185442700Y-105837998D01*
X185662300Y-105837998D01*
X185865183Y-105753961D01*
X186020463Y-105598681D01*
X186104500Y-105395798D01*
X186104500Y-105176198D01*
X186020463Y-104973315D01*
X185865183Y-104818035D01*
X185662300Y-104733998D01*
X185442700Y-104733998D01*
X185239817Y-104818035D01*
X185084537Y-104973315D01*
X185000500Y-105176198D01*
X180754500Y-105176198D01*
X180754500Y-105026200D01*
X180670463Y-104823317D01*
X180515183Y-104668037D01*
X180312300Y-104584000D01*
X180092700Y-104584000D01*
X179889817Y-104668037D01*
X179734537Y-104823317D01*
X179650500Y-105026200D01*
X125654500Y-105026200D01*
X125654500Y-104886200D01*
X125570463Y-104683317D01*
X125415183Y-104528037D01*
X125212300Y-104444000D01*
X124992700Y-104444000D01*
X124789817Y-104528037D01*
X124634537Y-104683317D01*
X124550500Y-104886200D01*
X120832946Y-104886200D01*
X120870463Y-104848683D01*
X120954500Y-104645800D01*
X120954500Y-104426200D01*
X120870463Y-104223317D01*
X120715183Y-104068037D01*
X120512300Y-103984000D01*
X120292700Y-103984000D01*
X120089817Y-104068037D01*
X119934537Y-104223317D01*
X119850500Y-104426200D01*
X100352000Y-104426200D01*
X100352000Y-102276200D01*
X110700500Y-102276200D01*
X110700500Y-102495800D01*
X110784537Y-102698683D01*
X110939817Y-102853963D01*
X111142700Y-102938000D01*
X111362300Y-102938000D01*
X111565183Y-102853963D01*
X111720463Y-102698683D01*
X111804500Y-102495800D01*
X111804500Y-102276200D01*
X111720463Y-102073317D01*
X111565183Y-101918037D01*
X111362300Y-101834000D01*
X111142700Y-101834000D01*
X110939817Y-101918037D01*
X110784537Y-102073317D01*
X110700500Y-102276200D01*
X100352000Y-102276200D01*
X100352000Y-100352000D01*
X119025500Y-100352000D01*
X119025500Y-103286000D01*
G04 #@! TO.N,+2V8*
G36*
X165390500Y-107536200D02*
X165390500Y-107755800D01*
X165474537Y-107958683D01*
X165629817Y-108113963D01*
X165832700Y-108198000D01*
X166052300Y-108198000D01*
X166255183Y-108113963D01*
X166410463Y-107958683D01*
X166494500Y-107755800D01*
X166494500Y-107536200D01*
X166484890Y-107513000D01*
X192625500Y-107513000D01*
X192625500Y-115359179D01*
X187324987Y-115366666D01*
X187293895Y-115291603D01*
X187302683Y-115287963D01*
X187449396Y-115141250D01*
X187620200Y-115212000D01*
X187839800Y-115212000D01*
X188042683Y-115127963D01*
X188197963Y-114972683D01*
X188282000Y-114769800D01*
X188282000Y-114742558D01*
X188284537Y-114748683D01*
X188439817Y-114903963D01*
X188642700Y-114988000D01*
X188862300Y-114988000D01*
X189065183Y-114903963D01*
X189220463Y-114748683D01*
X189304500Y-114545800D01*
X189304500Y-114326200D01*
X189220463Y-114123317D01*
X189065183Y-113968037D01*
X188862300Y-113884000D01*
X188642700Y-113884000D01*
X188439817Y-113968037D01*
X188284537Y-114123317D01*
X188200500Y-114326200D01*
X188200500Y-114353442D01*
X188197963Y-114347317D01*
X188042683Y-114192037D01*
X187839800Y-114108000D01*
X187620200Y-114108000D01*
X187417317Y-114192037D01*
X187270604Y-114338750D01*
X187099800Y-114268000D01*
X186880200Y-114268000D01*
X186677317Y-114352037D01*
X186522037Y-114507317D01*
X186438000Y-114710200D01*
X186438000Y-114929800D01*
X186518605Y-115124397D01*
X186509817Y-115128037D01*
X186354537Y-115283317D01*
X186329216Y-115344448D01*
X186320463Y-115323317D01*
X186165183Y-115168037D01*
X185962300Y-115084000D01*
X185742700Y-115084000D01*
X185539817Y-115168037D01*
X185384537Y-115323317D01*
X185365435Y-115369433D01*
X184275240Y-115370973D01*
X184342000Y-115209800D01*
X184342000Y-114990200D01*
X184257963Y-114787317D01*
X184102683Y-114632037D01*
X183899800Y-114548000D01*
X183680200Y-114548000D01*
X183477317Y-114632037D01*
X183347675Y-114761679D01*
X183169800Y-114688000D01*
X182950200Y-114688000D01*
X182776357Y-114760008D01*
X182737963Y-114667317D01*
X182582683Y-114512037D01*
X182379800Y-114428000D01*
X182160200Y-114428000D01*
X181957317Y-114512037D01*
X181802037Y-114667317D01*
X181718000Y-114870200D01*
X181718000Y-115089800D01*
X181802037Y-115292683D01*
X181883705Y-115374351D01*
X123458144Y-115456873D01*
X123465183Y-115453957D01*
X123620463Y-115298677D01*
X123704500Y-115095794D01*
X123704500Y-114876194D01*
X123620463Y-114673311D01*
X123465183Y-114518031D01*
X123262300Y-114433994D01*
X123042700Y-114433994D01*
X122839817Y-114518031D01*
X122684537Y-114673311D01*
X122600500Y-114876194D01*
X122600500Y-115095794D01*
X122684537Y-115298677D01*
X122839817Y-115453957D01*
X122848934Y-115457733D01*
X122079500Y-115458820D01*
X122079500Y-113926200D01*
X127550500Y-113926200D01*
X127550500Y-114145800D01*
X127634537Y-114348683D01*
X127789817Y-114503963D01*
X127992700Y-114588000D01*
X128212300Y-114588000D01*
X128415183Y-114503963D01*
X128570463Y-114348683D01*
X128654500Y-114145800D01*
X128654500Y-113926200D01*
X128570463Y-113723317D01*
X128415183Y-113568037D01*
X128212300Y-113484000D01*
X127992700Y-113484000D01*
X127789817Y-113568037D01*
X127634537Y-113723317D01*
X127550500Y-113926200D01*
X122079500Y-113926200D01*
X122079500Y-113176200D01*
X122600500Y-113176200D01*
X122600500Y-113395800D01*
X122684537Y-113598683D01*
X122839817Y-113753963D01*
X123042700Y-113838000D01*
X123262300Y-113838000D01*
X123465183Y-113753963D01*
X123620463Y-113598683D01*
X123704500Y-113395800D01*
X123704500Y-113180200D01*
X180888000Y-113180200D01*
X180888000Y-113399800D01*
X180972037Y-113602683D01*
X181034354Y-113665000D01*
X180992037Y-113707317D01*
X180908000Y-113910200D01*
X180908000Y-114129800D01*
X180992037Y-114332683D01*
X181147317Y-114487963D01*
X181350200Y-114572000D01*
X181569800Y-114572000D01*
X181772683Y-114487963D01*
X181927963Y-114332683D01*
X182012000Y-114129800D01*
X182012000Y-113910200D01*
X181927963Y-113707317D01*
X181865646Y-113645000D01*
X181907963Y-113602683D01*
X181992000Y-113399800D01*
X181992000Y-113210200D01*
X187638000Y-113210200D01*
X187638000Y-113429800D01*
X187722037Y-113632683D01*
X187877317Y-113787963D01*
X188080200Y-113872000D01*
X188299800Y-113872000D01*
X188502683Y-113787963D01*
X188657963Y-113632683D01*
X188697269Y-113537791D01*
X188811626Y-113585159D01*
X189031226Y-113585159D01*
X189234109Y-113501122D01*
X189389389Y-113345842D01*
X189473426Y-113142959D01*
X189473426Y-113059310D01*
X189542700Y-113088004D01*
X189762300Y-113088004D01*
X189965183Y-113003967D01*
X190120463Y-112848687D01*
X190204500Y-112645804D01*
X190204500Y-112426204D01*
X190120463Y-112223321D01*
X189965183Y-112068041D01*
X189762300Y-111984004D01*
X189542700Y-111984004D01*
X189339817Y-112068041D01*
X189184537Y-112223321D01*
X189100500Y-112426204D01*
X189100500Y-112509853D01*
X189031226Y-112481159D01*
X188811626Y-112481159D01*
X188608743Y-112565196D01*
X188453463Y-112720476D01*
X188414157Y-112815368D01*
X188299800Y-112768000D01*
X188080200Y-112768000D01*
X187877317Y-112852037D01*
X187722037Y-113007317D01*
X187638000Y-113210200D01*
X181992000Y-113210200D01*
X181992000Y-113180200D01*
X181907963Y-112977317D01*
X181752683Y-112822037D01*
X181549800Y-112738000D01*
X181330200Y-112738000D01*
X181127317Y-112822037D01*
X180972037Y-112977317D01*
X180888000Y-113180200D01*
X123704500Y-113180200D01*
X123704500Y-113176200D01*
X123620463Y-112973317D01*
X123465183Y-112818037D01*
X123262300Y-112734000D01*
X123042700Y-112734000D01*
X122839817Y-112818037D01*
X122684537Y-112973317D01*
X122600500Y-113176200D01*
X122079500Y-113176200D01*
X122079500Y-112415200D01*
X179673000Y-112415200D01*
X179673000Y-112634800D01*
X179757037Y-112837683D01*
X179912317Y-112992963D01*
X180115200Y-113077000D01*
X180334800Y-113077000D01*
X180537683Y-112992963D01*
X180692963Y-112837683D01*
X180777000Y-112634800D01*
X180777000Y-112530756D01*
X180915200Y-112588000D01*
X181134800Y-112588000D01*
X181337683Y-112503963D01*
X181492963Y-112348683D01*
X181577000Y-112145800D01*
X181577000Y-111926200D01*
X181542827Y-111843699D01*
X181719054Y-111843699D01*
X181921937Y-111759662D01*
X182077217Y-111604382D01*
X182130311Y-111476200D01*
X187200500Y-111476200D01*
X187200500Y-111695800D01*
X187284537Y-111898683D01*
X187439817Y-112053963D01*
X187642700Y-112138000D01*
X187862300Y-112138000D01*
X188065183Y-112053963D01*
X188220463Y-111898683D01*
X188304500Y-111695800D01*
X188304500Y-111668626D01*
X188389837Y-111753963D01*
X188592720Y-111838000D01*
X188812320Y-111838000D01*
X189015203Y-111753963D01*
X189052510Y-111716656D01*
X189189817Y-111853963D01*
X189392700Y-111938000D01*
X189612300Y-111938000D01*
X189815183Y-111853963D01*
X189970463Y-111698683D01*
X190054500Y-111495800D01*
X190054500Y-111276200D01*
X189970463Y-111073317D01*
X189815183Y-110918037D01*
X189612300Y-110834000D01*
X189392700Y-110834000D01*
X189189817Y-110918037D01*
X189152510Y-110955344D01*
X189015203Y-110818037D01*
X188969882Y-110799264D01*
X189070463Y-110698683D01*
X189154500Y-110495800D01*
X189154500Y-110276200D01*
X189070463Y-110073317D01*
X188915183Y-109918037D01*
X188712300Y-109834000D01*
X188492700Y-109834000D01*
X188289817Y-109918037D01*
X188134537Y-110073317D01*
X188050500Y-110276200D01*
X188050500Y-110334000D01*
X187842700Y-110334000D01*
X187639817Y-110418037D01*
X187484537Y-110573317D01*
X187400500Y-110776200D01*
X187400500Y-110995800D01*
X187449475Y-111114036D01*
X187439817Y-111118037D01*
X187284537Y-111273317D01*
X187200500Y-111476200D01*
X182130311Y-111476200D01*
X182161254Y-111401499D01*
X182161254Y-111181899D01*
X182077217Y-110979016D01*
X181969078Y-110870877D01*
X182072683Y-110827963D01*
X182227963Y-110672683D01*
X182305352Y-110485850D01*
X182320200Y-110492000D01*
X182539800Y-110492000D01*
X182742683Y-110407963D01*
X182745000Y-110405646D01*
X182827317Y-110487963D01*
X183030200Y-110572000D01*
X183249800Y-110572000D01*
X183452683Y-110487963D01*
X183607963Y-110332683D01*
X183692000Y-110129800D01*
X183692000Y-109910200D01*
X183667148Y-109850200D01*
X184538009Y-109850200D01*
X184538009Y-110069800D01*
X184622046Y-110272683D01*
X184777326Y-110427963D01*
X184980209Y-110512000D01*
X185199809Y-110512000D01*
X185402692Y-110427963D01*
X185557972Y-110272683D01*
X185642009Y-110069800D01*
X185642009Y-109850200D01*
X185604341Y-109759262D01*
X185729592Y-109759262D01*
X185932475Y-109675225D01*
X186087755Y-109519945D01*
X186171792Y-109317062D01*
X186171792Y-109148000D01*
X186282300Y-109148000D01*
X186485183Y-109063963D01*
X186640463Y-108908683D01*
X186724500Y-108705800D01*
X186724500Y-108486200D01*
X186640463Y-108283317D01*
X186485183Y-108128037D01*
X186282300Y-108044000D01*
X186062700Y-108044000D01*
X185859817Y-108128037D01*
X185704537Y-108283317D01*
X185620500Y-108486200D01*
X185620500Y-108655262D01*
X185509992Y-108655262D01*
X185307109Y-108739299D01*
X185151829Y-108894579D01*
X185067792Y-109097462D01*
X185067792Y-109317062D01*
X185105460Y-109408000D01*
X184980209Y-109408000D01*
X184777326Y-109492037D01*
X184622046Y-109647317D01*
X184538009Y-109850200D01*
X183667148Y-109850200D01*
X183607963Y-109707317D01*
X183452683Y-109552037D01*
X183249800Y-109468000D01*
X183030200Y-109468000D01*
X182827317Y-109552037D01*
X182825000Y-109554354D01*
X182742683Y-109472037D01*
X182539800Y-109388000D01*
X182320200Y-109388000D01*
X182117317Y-109472037D01*
X181962037Y-109627317D01*
X181884648Y-109814150D01*
X181869800Y-109808000D01*
X181650200Y-109808000D01*
X181447317Y-109892037D01*
X181292037Y-110047317D01*
X181208000Y-110250200D01*
X181208000Y-110469800D01*
X181292037Y-110672683D01*
X181400176Y-110780822D01*
X181296571Y-110823736D01*
X181212977Y-110907331D01*
X181137683Y-110832037D01*
X180934800Y-110748000D01*
X180715200Y-110748000D01*
X180512317Y-110832037D01*
X180357037Y-110987317D01*
X180273000Y-111190200D01*
X180273000Y-111409800D01*
X180357037Y-111612683D01*
X180512317Y-111767963D01*
X180534703Y-111777236D01*
X180473000Y-111926200D01*
X180473000Y-112030244D01*
X180334800Y-111973000D01*
X180115200Y-111973000D01*
X179912317Y-112057037D01*
X179757037Y-112212317D01*
X179673000Y-112415200D01*
X122079500Y-112415200D01*
X122079500Y-111476200D01*
X122600500Y-111476200D01*
X122600500Y-111695800D01*
X122684537Y-111898683D01*
X122839817Y-112053963D01*
X123042700Y-112138000D01*
X123262300Y-112138000D01*
X123465183Y-112053963D01*
X123620463Y-111898683D01*
X123704500Y-111695800D01*
X123704500Y-111476200D01*
X123620463Y-111273317D01*
X123465183Y-111118037D01*
X123262300Y-111034000D01*
X123042700Y-111034000D01*
X122839817Y-111118037D01*
X122684537Y-111273317D01*
X122600500Y-111476200D01*
X122079500Y-111476200D01*
X122079500Y-109776192D01*
X122500500Y-109776192D01*
X122500500Y-109995792D01*
X122584537Y-110198675D01*
X122739817Y-110353955D01*
X122942700Y-110437992D01*
X123162300Y-110437992D01*
X123365183Y-110353955D01*
X123520463Y-110198675D01*
X123604500Y-109995792D01*
X123604500Y-109876200D01*
X169000500Y-109876200D01*
X169000500Y-110095800D01*
X169084537Y-110298683D01*
X169239817Y-110453963D01*
X169442700Y-110538000D01*
X169662300Y-110538000D01*
X169865183Y-110453963D01*
X170020463Y-110298683D01*
X170104500Y-110095800D01*
X170104500Y-109876200D01*
X170020463Y-109673317D01*
X169865183Y-109518037D01*
X169662300Y-109434000D01*
X169442700Y-109434000D01*
X169239817Y-109518037D01*
X169084537Y-109673317D01*
X169000500Y-109876200D01*
X123604500Y-109876200D01*
X123604500Y-109776192D01*
X123520463Y-109573309D01*
X123365183Y-109418029D01*
X123162300Y-109333992D01*
X122942700Y-109333992D01*
X122739817Y-109418029D01*
X122584537Y-109573309D01*
X122500500Y-109776192D01*
X122079500Y-109776192D01*
X122079500Y-109313000D01*
X155252500Y-109313000D01*
X155301101Y-109303333D01*
X155342303Y-109275803D01*
X155369833Y-109234601D01*
X155379500Y-109186000D01*
X155379500Y-107513000D01*
X165400110Y-107513000D01*
X165390500Y-107536200D01*
X165390500Y-107536200D01*
G37*
X165390500Y-107536200D02*
X165390500Y-107755800D01*
X165474537Y-107958683D01*
X165629817Y-108113963D01*
X165832700Y-108198000D01*
X166052300Y-108198000D01*
X166255183Y-108113963D01*
X166410463Y-107958683D01*
X166494500Y-107755800D01*
X166494500Y-107536200D01*
X166484890Y-107513000D01*
X192625500Y-107513000D01*
X192625500Y-115359179D01*
X187324987Y-115366666D01*
X187293895Y-115291603D01*
X187302683Y-115287963D01*
X187449396Y-115141250D01*
X187620200Y-115212000D01*
X187839800Y-115212000D01*
X188042683Y-115127963D01*
X188197963Y-114972683D01*
X188282000Y-114769800D01*
X188282000Y-114742558D01*
X188284537Y-114748683D01*
X188439817Y-114903963D01*
X188642700Y-114988000D01*
X188862300Y-114988000D01*
X189065183Y-114903963D01*
X189220463Y-114748683D01*
X189304500Y-114545800D01*
X189304500Y-114326200D01*
X189220463Y-114123317D01*
X189065183Y-113968037D01*
X188862300Y-113884000D01*
X188642700Y-113884000D01*
X188439817Y-113968037D01*
X188284537Y-114123317D01*
X188200500Y-114326200D01*
X188200500Y-114353442D01*
X188197963Y-114347317D01*
X188042683Y-114192037D01*
X187839800Y-114108000D01*
X187620200Y-114108000D01*
X187417317Y-114192037D01*
X187270604Y-114338750D01*
X187099800Y-114268000D01*
X186880200Y-114268000D01*
X186677317Y-114352037D01*
X186522037Y-114507317D01*
X186438000Y-114710200D01*
X186438000Y-114929800D01*
X186518605Y-115124397D01*
X186509817Y-115128037D01*
X186354537Y-115283317D01*
X186329216Y-115344448D01*
X186320463Y-115323317D01*
X186165183Y-115168037D01*
X185962300Y-115084000D01*
X185742700Y-115084000D01*
X185539817Y-115168037D01*
X185384537Y-115323317D01*
X185365435Y-115369433D01*
X184275240Y-115370973D01*
X184342000Y-115209800D01*
X184342000Y-114990200D01*
X184257963Y-114787317D01*
X184102683Y-114632037D01*
X183899800Y-114548000D01*
X183680200Y-114548000D01*
X183477317Y-114632037D01*
X183347675Y-114761679D01*
X183169800Y-114688000D01*
X182950200Y-114688000D01*
X182776357Y-114760008D01*
X182737963Y-114667317D01*
X182582683Y-114512037D01*
X182379800Y-114428000D01*
X182160200Y-114428000D01*
X181957317Y-114512037D01*
X181802037Y-114667317D01*
X181718000Y-114870200D01*
X181718000Y-115089800D01*
X181802037Y-115292683D01*
X181883705Y-115374351D01*
X123458144Y-115456873D01*
X123465183Y-115453957D01*
X123620463Y-115298677D01*
X123704500Y-115095794D01*
X123704500Y-114876194D01*
X123620463Y-114673311D01*
X123465183Y-114518031D01*
X123262300Y-114433994D01*
X123042700Y-114433994D01*
X122839817Y-114518031D01*
X122684537Y-114673311D01*
X122600500Y-114876194D01*
X122600500Y-115095794D01*
X122684537Y-115298677D01*
X122839817Y-115453957D01*
X122848934Y-115457733D01*
X122079500Y-115458820D01*
X122079500Y-113926200D01*
X127550500Y-113926200D01*
X127550500Y-114145800D01*
X127634537Y-114348683D01*
X127789817Y-114503963D01*
X127992700Y-114588000D01*
X128212300Y-114588000D01*
X128415183Y-114503963D01*
X128570463Y-114348683D01*
X128654500Y-114145800D01*
X128654500Y-113926200D01*
X128570463Y-113723317D01*
X128415183Y-113568037D01*
X128212300Y-113484000D01*
X127992700Y-113484000D01*
X127789817Y-113568037D01*
X127634537Y-113723317D01*
X127550500Y-113926200D01*
X122079500Y-113926200D01*
X122079500Y-113176200D01*
X122600500Y-113176200D01*
X122600500Y-113395800D01*
X122684537Y-113598683D01*
X122839817Y-113753963D01*
X123042700Y-113838000D01*
X123262300Y-113838000D01*
X123465183Y-113753963D01*
X123620463Y-113598683D01*
X123704500Y-113395800D01*
X123704500Y-113180200D01*
X180888000Y-113180200D01*
X180888000Y-113399800D01*
X180972037Y-113602683D01*
X181034354Y-113665000D01*
X180992037Y-113707317D01*
X180908000Y-113910200D01*
X180908000Y-114129800D01*
X180992037Y-114332683D01*
X181147317Y-114487963D01*
X181350200Y-114572000D01*
X181569800Y-114572000D01*
X181772683Y-114487963D01*
X181927963Y-114332683D01*
X182012000Y-114129800D01*
X182012000Y-113910200D01*
X181927963Y-113707317D01*
X181865646Y-113645000D01*
X181907963Y-113602683D01*
X181992000Y-113399800D01*
X181992000Y-113210200D01*
X187638000Y-113210200D01*
X187638000Y-113429800D01*
X187722037Y-113632683D01*
X187877317Y-113787963D01*
X188080200Y-113872000D01*
X188299800Y-113872000D01*
X188502683Y-113787963D01*
X188657963Y-113632683D01*
X188697269Y-113537791D01*
X188811626Y-113585159D01*
X189031226Y-113585159D01*
X189234109Y-113501122D01*
X189389389Y-113345842D01*
X189473426Y-113142959D01*
X189473426Y-113059310D01*
X189542700Y-113088004D01*
X189762300Y-113088004D01*
X189965183Y-113003967D01*
X190120463Y-112848687D01*
X190204500Y-112645804D01*
X190204500Y-112426204D01*
X190120463Y-112223321D01*
X189965183Y-112068041D01*
X189762300Y-111984004D01*
X189542700Y-111984004D01*
X189339817Y-112068041D01*
X189184537Y-112223321D01*
X189100500Y-112426204D01*
X189100500Y-112509853D01*
X189031226Y-112481159D01*
X188811626Y-112481159D01*
X188608743Y-112565196D01*
X188453463Y-112720476D01*
X188414157Y-112815368D01*
X188299800Y-112768000D01*
X188080200Y-112768000D01*
X187877317Y-112852037D01*
X187722037Y-113007317D01*
X187638000Y-113210200D01*
X181992000Y-113210200D01*
X181992000Y-113180200D01*
X181907963Y-112977317D01*
X181752683Y-112822037D01*
X181549800Y-112738000D01*
X181330200Y-112738000D01*
X181127317Y-112822037D01*
X180972037Y-112977317D01*
X180888000Y-113180200D01*
X123704500Y-113180200D01*
X123704500Y-113176200D01*
X123620463Y-112973317D01*
X123465183Y-112818037D01*
X123262300Y-112734000D01*
X123042700Y-112734000D01*
X122839817Y-112818037D01*
X122684537Y-112973317D01*
X122600500Y-113176200D01*
X122079500Y-113176200D01*
X122079500Y-112415200D01*
X179673000Y-112415200D01*
X179673000Y-112634800D01*
X179757037Y-112837683D01*
X179912317Y-112992963D01*
X180115200Y-113077000D01*
X180334800Y-113077000D01*
X180537683Y-112992963D01*
X180692963Y-112837683D01*
X180777000Y-112634800D01*
X180777000Y-112530756D01*
X180915200Y-112588000D01*
X181134800Y-112588000D01*
X181337683Y-112503963D01*
X181492963Y-112348683D01*
X181577000Y-112145800D01*
X181577000Y-111926200D01*
X181542827Y-111843699D01*
X181719054Y-111843699D01*
X181921937Y-111759662D01*
X182077217Y-111604382D01*
X182130311Y-111476200D01*
X187200500Y-111476200D01*
X187200500Y-111695800D01*
X187284537Y-111898683D01*
X187439817Y-112053963D01*
X187642700Y-112138000D01*
X187862300Y-112138000D01*
X188065183Y-112053963D01*
X188220463Y-111898683D01*
X188304500Y-111695800D01*
X188304500Y-111668626D01*
X188389837Y-111753963D01*
X188592720Y-111838000D01*
X188812320Y-111838000D01*
X189015203Y-111753963D01*
X189052510Y-111716656D01*
X189189817Y-111853963D01*
X189392700Y-111938000D01*
X189612300Y-111938000D01*
X189815183Y-111853963D01*
X189970463Y-111698683D01*
X190054500Y-111495800D01*
X190054500Y-111276200D01*
X189970463Y-111073317D01*
X189815183Y-110918037D01*
X189612300Y-110834000D01*
X189392700Y-110834000D01*
X189189817Y-110918037D01*
X189152510Y-110955344D01*
X189015203Y-110818037D01*
X188969882Y-110799264D01*
X189070463Y-110698683D01*
X189154500Y-110495800D01*
X189154500Y-110276200D01*
X189070463Y-110073317D01*
X188915183Y-109918037D01*
X188712300Y-109834000D01*
X188492700Y-109834000D01*
X188289817Y-109918037D01*
X188134537Y-110073317D01*
X188050500Y-110276200D01*
X188050500Y-110334000D01*
X187842700Y-110334000D01*
X187639817Y-110418037D01*
X187484537Y-110573317D01*
X187400500Y-110776200D01*
X187400500Y-110995800D01*
X187449475Y-111114036D01*
X187439817Y-111118037D01*
X187284537Y-111273317D01*
X187200500Y-111476200D01*
X182130311Y-111476200D01*
X182161254Y-111401499D01*
X182161254Y-111181899D01*
X182077217Y-110979016D01*
X181969078Y-110870877D01*
X182072683Y-110827963D01*
X182227963Y-110672683D01*
X182305352Y-110485850D01*
X182320200Y-110492000D01*
X182539800Y-110492000D01*
X182742683Y-110407963D01*
X182745000Y-110405646D01*
X182827317Y-110487963D01*
X183030200Y-110572000D01*
X183249800Y-110572000D01*
X183452683Y-110487963D01*
X183607963Y-110332683D01*
X183692000Y-110129800D01*
X183692000Y-109910200D01*
X183667148Y-109850200D01*
X184538009Y-109850200D01*
X184538009Y-110069800D01*
X184622046Y-110272683D01*
X184777326Y-110427963D01*
X184980209Y-110512000D01*
X185199809Y-110512000D01*
X185402692Y-110427963D01*
X185557972Y-110272683D01*
X185642009Y-110069800D01*
X185642009Y-109850200D01*
X185604341Y-109759262D01*
X185729592Y-109759262D01*
X185932475Y-109675225D01*
X186087755Y-109519945D01*
X186171792Y-109317062D01*
X186171792Y-109148000D01*
X186282300Y-109148000D01*
X186485183Y-109063963D01*
X186640463Y-108908683D01*
X186724500Y-108705800D01*
X186724500Y-108486200D01*
X186640463Y-108283317D01*
X186485183Y-108128037D01*
X186282300Y-108044000D01*
X186062700Y-108044000D01*
X185859817Y-108128037D01*
X185704537Y-108283317D01*
X185620500Y-108486200D01*
X185620500Y-108655262D01*
X185509992Y-108655262D01*
X185307109Y-108739299D01*
X185151829Y-108894579D01*
X185067792Y-109097462D01*
X185067792Y-109317062D01*
X185105460Y-109408000D01*
X184980209Y-109408000D01*
X184777326Y-109492037D01*
X184622046Y-109647317D01*
X184538009Y-109850200D01*
X183667148Y-109850200D01*
X183607963Y-109707317D01*
X183452683Y-109552037D01*
X183249800Y-109468000D01*
X183030200Y-109468000D01*
X182827317Y-109552037D01*
X182825000Y-109554354D01*
X182742683Y-109472037D01*
X182539800Y-109388000D01*
X182320200Y-109388000D01*
X182117317Y-109472037D01*
X181962037Y-109627317D01*
X181884648Y-109814150D01*
X181869800Y-109808000D01*
X181650200Y-109808000D01*
X181447317Y-109892037D01*
X181292037Y-110047317D01*
X181208000Y-110250200D01*
X181208000Y-110469800D01*
X181292037Y-110672683D01*
X181400176Y-110780822D01*
X181296571Y-110823736D01*
X181212977Y-110907331D01*
X181137683Y-110832037D01*
X180934800Y-110748000D01*
X180715200Y-110748000D01*
X180512317Y-110832037D01*
X180357037Y-110987317D01*
X180273000Y-111190200D01*
X180273000Y-111409800D01*
X180357037Y-111612683D01*
X180512317Y-111767963D01*
X180534703Y-111777236D01*
X180473000Y-111926200D01*
X180473000Y-112030244D01*
X180334800Y-111973000D01*
X180115200Y-111973000D01*
X179912317Y-112057037D01*
X179757037Y-112212317D01*
X179673000Y-112415200D01*
X122079500Y-112415200D01*
X122079500Y-111476200D01*
X122600500Y-111476200D01*
X122600500Y-111695800D01*
X122684537Y-111898683D01*
X122839817Y-112053963D01*
X123042700Y-112138000D01*
X123262300Y-112138000D01*
X123465183Y-112053963D01*
X123620463Y-111898683D01*
X123704500Y-111695800D01*
X123704500Y-111476200D01*
X123620463Y-111273317D01*
X123465183Y-111118037D01*
X123262300Y-111034000D01*
X123042700Y-111034000D01*
X122839817Y-111118037D01*
X122684537Y-111273317D01*
X122600500Y-111476200D01*
X122079500Y-111476200D01*
X122079500Y-109776192D01*
X122500500Y-109776192D01*
X122500500Y-109995792D01*
X122584537Y-110198675D01*
X122739817Y-110353955D01*
X122942700Y-110437992D01*
X123162300Y-110437992D01*
X123365183Y-110353955D01*
X123520463Y-110198675D01*
X123604500Y-109995792D01*
X123604500Y-109876200D01*
X169000500Y-109876200D01*
X169000500Y-110095800D01*
X169084537Y-110298683D01*
X169239817Y-110453963D01*
X169442700Y-110538000D01*
X169662300Y-110538000D01*
X169865183Y-110453963D01*
X170020463Y-110298683D01*
X170104500Y-110095800D01*
X170104500Y-109876200D01*
X170020463Y-109673317D01*
X169865183Y-109518037D01*
X169662300Y-109434000D01*
X169442700Y-109434000D01*
X169239817Y-109518037D01*
X169084537Y-109673317D01*
X169000500Y-109876200D01*
X123604500Y-109876200D01*
X123604500Y-109776192D01*
X123520463Y-109573309D01*
X123365183Y-109418029D01*
X123162300Y-109333992D01*
X122942700Y-109333992D01*
X122739817Y-109418029D01*
X122584537Y-109573309D01*
X122500500Y-109776192D01*
X122079500Y-109776192D01*
X122079500Y-109313000D01*
X155252500Y-109313000D01*
X155301101Y-109303333D01*
X155342303Y-109275803D01*
X155369833Y-109234601D01*
X155379500Y-109186000D01*
X155379500Y-107513000D01*
X165400110Y-107513000D01*
X165390500Y-107536200D01*
G04 #@! TO.N,+1V2*
G36*
X110892700Y-116238000D02*
X111112300Y-116238000D01*
X111172655Y-116213000D01*
X115959854Y-116213000D01*
X115964817Y-116217963D01*
X116167700Y-116302000D01*
X116387300Y-116302000D01*
X116565361Y-116228245D01*
X116594537Y-116298683D01*
X116749817Y-116453963D01*
X116952700Y-116538000D01*
X117172300Y-116538000D01*
X117375183Y-116453963D01*
X117530463Y-116298683D01*
X117565954Y-116213000D01*
X118641601Y-116213000D01*
X118574000Y-116376202D01*
X118574000Y-116595802D01*
X118658037Y-116798685D01*
X118813317Y-116953965D01*
X119016200Y-117038002D01*
X119235800Y-117038002D01*
X119438683Y-116953965D01*
X119593963Y-116798685D01*
X119644698Y-116676200D01*
X122600500Y-116676200D01*
X122600500Y-116895800D01*
X122684537Y-117098683D01*
X122839817Y-117253963D01*
X123042700Y-117338000D01*
X123262300Y-117338000D01*
X123465183Y-117253963D01*
X123620463Y-117098683D01*
X123704500Y-116895800D01*
X123704500Y-116676200D01*
X123620463Y-116473317D01*
X123465183Y-116318037D01*
X123262300Y-116234000D01*
X123042700Y-116234000D01*
X122839817Y-116318037D01*
X122684537Y-116473317D01*
X122600500Y-116676200D01*
X119644698Y-116676200D01*
X119678000Y-116595802D01*
X119678000Y-116376202D01*
X119610399Y-116213000D01*
X183406605Y-116213000D01*
X183452037Y-116322683D01*
X183607317Y-116477963D01*
X183810200Y-116562000D01*
X184029800Y-116562000D01*
X184232683Y-116477963D01*
X184387963Y-116322683D01*
X184433395Y-116213000D01*
X192625500Y-116213000D01*
X192625500Y-119359000D01*
X181957611Y-119359000D01*
X182004500Y-119245800D01*
X182004500Y-119026200D01*
X181920463Y-118823317D01*
X181765183Y-118668037D01*
X181562300Y-118584000D01*
X181342700Y-118584000D01*
X181139817Y-118668037D01*
X180984537Y-118823317D01*
X180900500Y-119026200D01*
X180900500Y-119245800D01*
X180947389Y-119359000D01*
X115360146Y-119359000D01*
X115420463Y-119298683D01*
X115504500Y-119095800D01*
X115504500Y-118876200D01*
X115420463Y-118673317D01*
X115265183Y-118518037D01*
X115062300Y-118434000D01*
X114842700Y-118434000D01*
X114639817Y-118518037D01*
X114484537Y-118673317D01*
X114400500Y-118876200D01*
X114400500Y-119095800D01*
X114484537Y-119298683D01*
X114544854Y-119359000D01*
X113960146Y-119359000D01*
X114020463Y-119298683D01*
X114104500Y-119095800D01*
X114104500Y-118876200D01*
X114020463Y-118673317D01*
X113865183Y-118518037D01*
X113662300Y-118434000D01*
X113442700Y-118434000D01*
X113239817Y-118518037D01*
X113084537Y-118673317D01*
X113000500Y-118876200D01*
X113000500Y-119095800D01*
X113084537Y-119298683D01*
X113144854Y-119359000D01*
X112435136Y-119359000D01*
X112470463Y-119323673D01*
X112554500Y-119120790D01*
X112554500Y-118901190D01*
X112470463Y-118698307D01*
X112315183Y-118543027D01*
X112112300Y-118458990D01*
X111892700Y-118458990D01*
X111689817Y-118543027D01*
X111534537Y-118698307D01*
X111450500Y-118901190D01*
X111450500Y-119120790D01*
X111534537Y-119323673D01*
X111569864Y-119359000D01*
X110152500Y-119359000D01*
X110103899Y-119368667D01*
X110062697Y-119396197D01*
X110035167Y-119437399D01*
X110025500Y-119486000D01*
X110025500Y-124648000D01*
X100352000Y-124648000D01*
X100352000Y-122835032D01*
X105107361Y-122835032D01*
X105107361Y-123054632D01*
X105191398Y-123257515D01*
X105346678Y-123412795D01*
X105549561Y-123496832D01*
X105769161Y-123496832D01*
X105972044Y-123412795D01*
X106127324Y-123257515D01*
X106211361Y-123054632D01*
X106211361Y-122976200D01*
X106300502Y-122976200D01*
X106300502Y-123195800D01*
X106384539Y-123398683D01*
X106539819Y-123553963D01*
X106742702Y-123638000D01*
X106962302Y-123638000D01*
X107165185Y-123553963D01*
X107320465Y-123398683D01*
X107404502Y-123195800D01*
X107404502Y-122976200D01*
X107320465Y-122773317D01*
X107165185Y-122618037D01*
X106962302Y-122534000D01*
X106742702Y-122534000D01*
X106539819Y-122618037D01*
X106384539Y-122773317D01*
X106300502Y-122976200D01*
X106211361Y-122976200D01*
X106211361Y-122835032D01*
X106127324Y-122632149D01*
X105972044Y-122476869D01*
X105769161Y-122392832D01*
X105549561Y-122392832D01*
X105346678Y-122476869D01*
X105191398Y-122632149D01*
X105107361Y-122835032D01*
X100352000Y-122835032D01*
X100352000Y-117776200D01*
X106400496Y-117776200D01*
X106400496Y-117995800D01*
X106484533Y-118198683D01*
X106639813Y-118353963D01*
X106842696Y-118438000D01*
X107062296Y-118438000D01*
X107265179Y-118353963D01*
X107420459Y-118198683D01*
X107504496Y-117995800D01*
X107504496Y-117976200D01*
X107800500Y-117976200D01*
X107800500Y-118195800D01*
X107884537Y-118398683D01*
X108039817Y-118553963D01*
X108242700Y-118638000D01*
X108462300Y-118638000D01*
X108665183Y-118553963D01*
X108820463Y-118398683D01*
X108829775Y-118376200D01*
X116500500Y-118376200D01*
X116500500Y-118595800D01*
X116584537Y-118798683D01*
X116739817Y-118953963D01*
X116942700Y-119038000D01*
X117162300Y-119038000D01*
X117365183Y-118953963D01*
X117520463Y-118798683D01*
X117604500Y-118595800D01*
X117604500Y-118376200D01*
X117563079Y-118276200D01*
X122100500Y-118276200D01*
X122100500Y-118495800D01*
X122184537Y-118698683D01*
X122339817Y-118853963D01*
X122542700Y-118938000D01*
X122762300Y-118938000D01*
X122965183Y-118853963D01*
X123120463Y-118698683D01*
X123204500Y-118495800D01*
X123204500Y-118276200D01*
X123120463Y-118073317D01*
X122965183Y-117918037D01*
X122762300Y-117834000D01*
X122542700Y-117834000D01*
X122339817Y-117918037D01*
X122184537Y-118073317D01*
X122100500Y-118276200D01*
X117563079Y-118276200D01*
X117520463Y-118173317D01*
X117365183Y-118018037D01*
X117162300Y-117934000D01*
X116942700Y-117934000D01*
X116739817Y-118018037D01*
X116584537Y-118173317D01*
X116500500Y-118376200D01*
X108829775Y-118376200D01*
X108904500Y-118195800D01*
X108904500Y-117976200D01*
X108820463Y-117773317D01*
X108773346Y-117726200D01*
X155460500Y-117726200D01*
X155460500Y-117945800D01*
X155544537Y-118148683D01*
X155699817Y-118303963D01*
X155902700Y-118388000D01*
X156122300Y-118388000D01*
X156325183Y-118303963D01*
X156480463Y-118148683D01*
X156564500Y-117945800D01*
X156564500Y-117806200D01*
X157660500Y-117806200D01*
X157660500Y-118025800D01*
X157744537Y-118228683D01*
X157899817Y-118383963D01*
X158102700Y-118468000D01*
X158322300Y-118468000D01*
X158525183Y-118383963D01*
X158680463Y-118228683D01*
X158764500Y-118025800D01*
X158764500Y-117806200D01*
X158680463Y-117603317D01*
X158578146Y-117501000D01*
X158710463Y-117368683D01*
X158794500Y-117165800D01*
X158794500Y-116946200D01*
X158710463Y-116743317D01*
X158555183Y-116588037D01*
X158352300Y-116504000D01*
X158132700Y-116504000D01*
X157929817Y-116588037D01*
X157774537Y-116743317D01*
X157690500Y-116946200D01*
X157690500Y-117165800D01*
X157774537Y-117368683D01*
X157876854Y-117471000D01*
X157744537Y-117603317D01*
X157660500Y-117806200D01*
X156564500Y-117806200D01*
X156564500Y-117726200D01*
X156480463Y-117523317D01*
X156363146Y-117406000D01*
X156490463Y-117278683D01*
X156574500Y-117075800D01*
X156574500Y-116856200D01*
X156490463Y-116653317D01*
X156335183Y-116498037D01*
X156132300Y-116414000D01*
X155912700Y-116414000D01*
X155709817Y-116498037D01*
X155554537Y-116653317D01*
X155470500Y-116856200D01*
X155470500Y-117075800D01*
X155554537Y-117278683D01*
X155671854Y-117396000D01*
X155544537Y-117523317D01*
X155460500Y-117726200D01*
X108773346Y-117726200D01*
X108665183Y-117618037D01*
X108462300Y-117534000D01*
X108242700Y-117534000D01*
X108039817Y-117618037D01*
X107884537Y-117773317D01*
X107800500Y-117976200D01*
X107504496Y-117976200D01*
X107504496Y-117776200D01*
X107420459Y-117573317D01*
X107265179Y-117418037D01*
X107062296Y-117334000D01*
X106842696Y-117334000D01*
X106639813Y-117418037D01*
X106484533Y-117573317D01*
X106400496Y-117776200D01*
X100352000Y-117776200D01*
X100352000Y-116213000D01*
X110832345Y-116213000D01*
X110892700Y-116238000D01*
X110892700Y-116238000D01*
G37*
X110892700Y-116238000D02*
X111112300Y-116238000D01*
X111172655Y-116213000D01*
X115959854Y-116213000D01*
X115964817Y-116217963D01*
X116167700Y-116302000D01*
X116387300Y-116302000D01*
X116565361Y-116228245D01*
X116594537Y-116298683D01*
X116749817Y-116453963D01*
X116952700Y-116538000D01*
X117172300Y-116538000D01*
X117375183Y-116453963D01*
X117530463Y-116298683D01*
X117565954Y-116213000D01*
X118641601Y-116213000D01*
X118574000Y-116376202D01*
X118574000Y-116595802D01*
X118658037Y-116798685D01*
X118813317Y-116953965D01*
X119016200Y-117038002D01*
X119235800Y-117038002D01*
X119438683Y-116953965D01*
X119593963Y-116798685D01*
X119644698Y-116676200D01*
X122600500Y-116676200D01*
X122600500Y-116895800D01*
X122684537Y-117098683D01*
X122839817Y-117253963D01*
X123042700Y-117338000D01*
X123262300Y-117338000D01*
X123465183Y-117253963D01*
X123620463Y-117098683D01*
X123704500Y-116895800D01*
X123704500Y-116676200D01*
X123620463Y-116473317D01*
X123465183Y-116318037D01*
X123262300Y-116234000D01*
X123042700Y-116234000D01*
X122839817Y-116318037D01*
X122684537Y-116473317D01*
X122600500Y-116676200D01*
X119644698Y-116676200D01*
X119678000Y-116595802D01*
X119678000Y-116376202D01*
X119610399Y-116213000D01*
X183406605Y-116213000D01*
X183452037Y-116322683D01*
X183607317Y-116477963D01*
X183810200Y-116562000D01*
X184029800Y-116562000D01*
X184232683Y-116477963D01*
X184387963Y-116322683D01*
X184433395Y-116213000D01*
X192625500Y-116213000D01*
X192625500Y-119359000D01*
X181957611Y-119359000D01*
X182004500Y-119245800D01*
X182004500Y-119026200D01*
X181920463Y-118823317D01*
X181765183Y-118668037D01*
X181562300Y-118584000D01*
X181342700Y-118584000D01*
X181139817Y-118668037D01*
X180984537Y-118823317D01*
X180900500Y-119026200D01*
X180900500Y-119245800D01*
X180947389Y-119359000D01*
X115360146Y-119359000D01*
X115420463Y-119298683D01*
X115504500Y-119095800D01*
X115504500Y-118876200D01*
X115420463Y-118673317D01*
X115265183Y-118518037D01*
X115062300Y-118434000D01*
X114842700Y-118434000D01*
X114639817Y-118518037D01*
X114484537Y-118673317D01*
X114400500Y-118876200D01*
X114400500Y-119095800D01*
X114484537Y-119298683D01*
X114544854Y-119359000D01*
X113960146Y-119359000D01*
X114020463Y-119298683D01*
X114104500Y-119095800D01*
X114104500Y-118876200D01*
X114020463Y-118673317D01*
X113865183Y-118518037D01*
X113662300Y-118434000D01*
X113442700Y-118434000D01*
X113239817Y-118518037D01*
X113084537Y-118673317D01*
X113000500Y-118876200D01*
X113000500Y-119095800D01*
X113084537Y-119298683D01*
X113144854Y-119359000D01*
X112435136Y-119359000D01*
X112470463Y-119323673D01*
X112554500Y-119120790D01*
X112554500Y-118901190D01*
X112470463Y-118698307D01*
X112315183Y-118543027D01*
X112112300Y-118458990D01*
X111892700Y-118458990D01*
X111689817Y-118543027D01*
X111534537Y-118698307D01*
X111450500Y-118901190D01*
X111450500Y-119120790D01*
X111534537Y-119323673D01*
X111569864Y-119359000D01*
X110152500Y-119359000D01*
X110103899Y-119368667D01*
X110062697Y-119396197D01*
X110035167Y-119437399D01*
X110025500Y-119486000D01*
X110025500Y-124648000D01*
X100352000Y-124648000D01*
X100352000Y-122835032D01*
X105107361Y-122835032D01*
X105107361Y-123054632D01*
X105191398Y-123257515D01*
X105346678Y-123412795D01*
X105549561Y-123496832D01*
X105769161Y-123496832D01*
X105972044Y-123412795D01*
X106127324Y-123257515D01*
X106211361Y-123054632D01*
X106211361Y-122976200D01*
X106300502Y-122976200D01*
X106300502Y-123195800D01*
X106384539Y-123398683D01*
X106539819Y-123553963D01*
X106742702Y-123638000D01*
X106962302Y-123638000D01*
X107165185Y-123553963D01*
X107320465Y-123398683D01*
X107404502Y-123195800D01*
X107404502Y-122976200D01*
X107320465Y-122773317D01*
X107165185Y-122618037D01*
X106962302Y-122534000D01*
X106742702Y-122534000D01*
X106539819Y-122618037D01*
X106384539Y-122773317D01*
X106300502Y-122976200D01*
X106211361Y-122976200D01*
X106211361Y-122835032D01*
X106127324Y-122632149D01*
X105972044Y-122476869D01*
X105769161Y-122392832D01*
X105549561Y-122392832D01*
X105346678Y-122476869D01*
X105191398Y-122632149D01*
X105107361Y-122835032D01*
X100352000Y-122835032D01*
X100352000Y-117776200D01*
X106400496Y-117776200D01*
X106400496Y-117995800D01*
X106484533Y-118198683D01*
X106639813Y-118353963D01*
X106842696Y-118438000D01*
X107062296Y-118438000D01*
X107265179Y-118353963D01*
X107420459Y-118198683D01*
X107504496Y-117995800D01*
X107504496Y-117976200D01*
X107800500Y-117976200D01*
X107800500Y-118195800D01*
X107884537Y-118398683D01*
X108039817Y-118553963D01*
X108242700Y-118638000D01*
X108462300Y-118638000D01*
X108665183Y-118553963D01*
X108820463Y-118398683D01*
X108829775Y-118376200D01*
X116500500Y-118376200D01*
X116500500Y-118595800D01*
X116584537Y-118798683D01*
X116739817Y-118953963D01*
X116942700Y-119038000D01*
X117162300Y-119038000D01*
X117365183Y-118953963D01*
X117520463Y-118798683D01*
X117604500Y-118595800D01*
X117604500Y-118376200D01*
X117563079Y-118276200D01*
X122100500Y-118276200D01*
X122100500Y-118495800D01*
X122184537Y-118698683D01*
X122339817Y-118853963D01*
X122542700Y-118938000D01*
X122762300Y-118938000D01*
X122965183Y-118853963D01*
X123120463Y-118698683D01*
X123204500Y-118495800D01*
X123204500Y-118276200D01*
X123120463Y-118073317D01*
X122965183Y-117918037D01*
X122762300Y-117834000D01*
X122542700Y-117834000D01*
X122339817Y-117918037D01*
X122184537Y-118073317D01*
X122100500Y-118276200D01*
X117563079Y-118276200D01*
X117520463Y-118173317D01*
X117365183Y-118018037D01*
X117162300Y-117934000D01*
X116942700Y-117934000D01*
X116739817Y-118018037D01*
X116584537Y-118173317D01*
X116500500Y-118376200D01*
X108829775Y-118376200D01*
X108904500Y-118195800D01*
X108904500Y-117976200D01*
X108820463Y-117773317D01*
X108773346Y-117726200D01*
X155460500Y-117726200D01*
X155460500Y-117945800D01*
X155544537Y-118148683D01*
X155699817Y-118303963D01*
X155902700Y-118388000D01*
X156122300Y-118388000D01*
X156325183Y-118303963D01*
X156480463Y-118148683D01*
X156564500Y-117945800D01*
X156564500Y-117806200D01*
X157660500Y-117806200D01*
X157660500Y-118025800D01*
X157744537Y-118228683D01*
X157899817Y-118383963D01*
X158102700Y-118468000D01*
X158322300Y-118468000D01*
X158525183Y-118383963D01*
X158680463Y-118228683D01*
X158764500Y-118025800D01*
X158764500Y-117806200D01*
X158680463Y-117603317D01*
X158578146Y-117501000D01*
X158710463Y-117368683D01*
X158794500Y-117165800D01*
X158794500Y-116946200D01*
X158710463Y-116743317D01*
X158555183Y-116588037D01*
X158352300Y-116504000D01*
X158132700Y-116504000D01*
X157929817Y-116588037D01*
X157774537Y-116743317D01*
X157690500Y-116946200D01*
X157690500Y-117165800D01*
X157774537Y-117368683D01*
X157876854Y-117471000D01*
X157744537Y-117603317D01*
X157660500Y-117806200D01*
X156564500Y-117806200D01*
X156564500Y-117726200D01*
X156480463Y-117523317D01*
X156363146Y-117406000D01*
X156490463Y-117278683D01*
X156574500Y-117075800D01*
X156574500Y-116856200D01*
X156490463Y-116653317D01*
X156335183Y-116498037D01*
X156132300Y-116414000D01*
X155912700Y-116414000D01*
X155709817Y-116498037D01*
X155554537Y-116653317D01*
X155470500Y-116856200D01*
X155470500Y-117075800D01*
X155554537Y-117278683D01*
X155671854Y-117396000D01*
X155544537Y-117523317D01*
X155460500Y-117726200D01*
X108773346Y-117726200D01*
X108665183Y-117618037D01*
X108462300Y-117534000D01*
X108242700Y-117534000D01*
X108039817Y-117618037D01*
X107884537Y-117773317D01*
X107800500Y-117976200D01*
X107504496Y-117976200D01*
X107504496Y-117776200D01*
X107420459Y-117573317D01*
X107265179Y-117418037D01*
X107062296Y-117334000D01*
X106842696Y-117334000D01*
X106639813Y-117418037D01*
X106484533Y-117573317D01*
X106400496Y-117776200D01*
X100352000Y-117776200D01*
X100352000Y-116213000D01*
X110832345Y-116213000D01*
X110892700Y-116238000D01*
G04 #@! TO.N,/M2_DVDD*
G36*
X120625500Y-110335854D02*
X120607683Y-110318037D01*
X120404800Y-110234000D01*
X120185200Y-110234000D01*
X119982317Y-110318037D01*
X119827037Y-110473317D01*
X119743000Y-110676200D01*
X119743000Y-110895800D01*
X119827037Y-111098683D01*
X119982317Y-111253963D01*
X120185200Y-111338000D01*
X120404800Y-111338000D01*
X120607683Y-111253963D01*
X120625500Y-111236146D01*
X120625500Y-112115854D01*
X120577683Y-112068037D01*
X120374800Y-111984000D01*
X120155200Y-111984000D01*
X119952317Y-112068037D01*
X119797037Y-112223317D01*
X119713000Y-112426200D01*
X119713000Y-112645800D01*
X119797037Y-112848683D01*
X119952317Y-113003963D01*
X120155200Y-113088000D01*
X120374800Y-113088000D01*
X120577683Y-113003963D01*
X120625500Y-112956146D01*
X120625500Y-115359000D01*
X117133685Y-115359000D01*
X117305183Y-115287963D01*
X117460463Y-115132683D01*
X117544500Y-114929800D01*
X117544500Y-114710200D01*
X117460463Y-114507317D01*
X117305183Y-114352037D01*
X117102300Y-114268000D01*
X116882700Y-114268000D01*
X116679817Y-114352037D01*
X116524537Y-114507317D01*
X116440500Y-114710200D01*
X116440500Y-114929800D01*
X116524537Y-115132683D01*
X116679817Y-115287963D01*
X116851315Y-115359000D01*
X116667146Y-115359000D01*
X116590183Y-115282037D01*
X116387300Y-115198000D01*
X116167700Y-115198000D01*
X115964817Y-115282037D01*
X115887854Y-115359000D01*
X114876665Y-115359000D01*
X114820463Y-115223317D01*
X114665183Y-115068037D01*
X114462300Y-114984000D01*
X114404500Y-114984000D01*
X114404500Y-114776200D01*
X114320463Y-114573317D01*
X114165183Y-114418037D01*
X113962300Y-114334000D01*
X113742700Y-114334000D01*
X113539817Y-114418037D01*
X113384537Y-114573317D01*
X113300500Y-114776200D01*
X113300500Y-114995800D01*
X113384537Y-115198683D01*
X113539817Y-115353963D01*
X113551977Y-115359000D01*
X111456146Y-115359000D01*
X111379500Y-115282354D01*
X111379500Y-113842000D01*
X111552300Y-113842000D01*
X111755183Y-113757963D01*
X111910463Y-113602683D01*
X111994500Y-113399800D01*
X111994500Y-113180200D01*
X111988702Y-113166200D01*
X117930500Y-113166200D01*
X117930500Y-113385800D01*
X118014537Y-113588683D01*
X118169817Y-113743963D01*
X118372700Y-113828000D01*
X118490500Y-113828000D01*
X118490500Y-114035800D01*
X118574537Y-114238683D01*
X118729817Y-114393963D01*
X118932700Y-114478000D01*
X119152300Y-114478000D01*
X119355183Y-114393963D01*
X119510463Y-114238683D01*
X119594500Y-114035800D01*
X119594500Y-113816200D01*
X119510463Y-113613317D01*
X119355183Y-113458037D01*
X119152300Y-113374000D01*
X119034500Y-113374000D01*
X119034500Y-113166200D01*
X118950463Y-112963317D01*
X118795183Y-112808037D01*
X118592300Y-112724000D01*
X118372700Y-112724000D01*
X118169817Y-112808037D01*
X118014537Y-112963317D01*
X117930500Y-113166200D01*
X111988702Y-113166200D01*
X111910463Y-112977317D01*
X111755183Y-112822037D01*
X111552300Y-112738000D01*
X111379500Y-112738000D01*
X111379500Y-111696200D01*
X117973000Y-111696200D01*
X117973000Y-111915800D01*
X118057037Y-112118683D01*
X118212317Y-112273963D01*
X118415200Y-112358000D01*
X118634800Y-112358000D01*
X118837683Y-112273963D01*
X118992963Y-112118683D01*
X119077000Y-111915800D01*
X119077000Y-111696200D01*
X118992963Y-111493317D01*
X118837683Y-111338037D01*
X118634800Y-111254000D01*
X118415200Y-111254000D01*
X118212317Y-111338037D01*
X118057037Y-111493317D01*
X117973000Y-111696200D01*
X111379500Y-111696200D01*
X111379500Y-111334590D01*
X111565945Y-111334590D01*
X111768828Y-111250553D01*
X111924108Y-111095273D01*
X112008145Y-110892390D01*
X112008145Y-110860200D01*
X117150500Y-110860200D01*
X117150500Y-111079800D01*
X117234537Y-111282683D01*
X117389817Y-111437963D01*
X117592700Y-111522000D01*
X117812300Y-111522000D01*
X118015183Y-111437963D01*
X118170463Y-111282683D01*
X118254500Y-111079800D01*
X118254500Y-110860200D01*
X118170463Y-110657317D01*
X118015183Y-110502037D01*
X117812300Y-110418000D01*
X117592700Y-110418000D01*
X117389817Y-110502037D01*
X117234537Y-110657317D01*
X117150500Y-110860200D01*
X112008145Y-110860200D01*
X112008145Y-110672790D01*
X111924108Y-110469907D01*
X111768828Y-110314627D01*
X111565945Y-110230590D01*
X111379500Y-110230590D01*
X111379500Y-109826415D01*
X111919751Y-109826415D01*
X111919751Y-110046015D01*
X112003788Y-110248898D01*
X112159068Y-110404178D01*
X112361951Y-110488215D01*
X112581551Y-110488215D01*
X112784434Y-110404178D01*
X112902233Y-110286379D01*
X112949817Y-110333963D01*
X113152700Y-110418000D01*
X113372300Y-110418000D01*
X113575183Y-110333963D01*
X113730463Y-110178683D01*
X113814500Y-109975800D01*
X113814500Y-109886200D01*
X115440500Y-109886200D01*
X115440500Y-110105800D01*
X115524537Y-110308683D01*
X115679817Y-110463963D01*
X115882700Y-110548000D01*
X116102300Y-110548000D01*
X116305183Y-110463963D01*
X116460463Y-110308683D01*
X116544500Y-110105800D01*
X116544500Y-109886200D01*
X116460463Y-109683317D01*
X116435140Y-109657994D01*
X117682294Y-109657994D01*
X117682294Y-109877594D01*
X117766331Y-110080477D01*
X117921611Y-110235757D01*
X118124494Y-110319794D01*
X118344094Y-110319794D01*
X118546977Y-110235757D01*
X118702257Y-110080477D01*
X118786294Y-109877594D01*
X118786294Y-109657994D01*
X118702257Y-109455111D01*
X118546977Y-109299831D01*
X118344094Y-109215794D01*
X118124494Y-109215794D01*
X117921611Y-109299831D01*
X117766331Y-109455111D01*
X117682294Y-109657994D01*
X116435140Y-109657994D01*
X116305183Y-109528037D01*
X116102300Y-109444000D01*
X115882700Y-109444000D01*
X115679817Y-109528037D01*
X115524537Y-109683317D01*
X115440500Y-109886200D01*
X113814500Y-109886200D01*
X113814500Y-109756200D01*
X113730463Y-109553317D01*
X113575183Y-109398037D01*
X113372300Y-109314000D01*
X113152700Y-109314000D01*
X112949817Y-109398037D01*
X112832018Y-109515836D01*
X112784434Y-109468252D01*
X112581551Y-109384215D01*
X112361951Y-109384215D01*
X112159068Y-109468252D01*
X112003788Y-109623532D01*
X111919751Y-109826415D01*
X111379500Y-109826415D01*
X111379500Y-109213000D01*
X120625500Y-109213000D01*
X120625500Y-110335854D01*
X120625500Y-110335854D01*
G37*
X120625500Y-110335854D02*
X120607683Y-110318037D01*
X120404800Y-110234000D01*
X120185200Y-110234000D01*
X119982317Y-110318037D01*
X119827037Y-110473317D01*
X119743000Y-110676200D01*
X119743000Y-110895800D01*
X119827037Y-111098683D01*
X119982317Y-111253963D01*
X120185200Y-111338000D01*
X120404800Y-111338000D01*
X120607683Y-111253963D01*
X120625500Y-111236146D01*
X120625500Y-112115854D01*
X120577683Y-112068037D01*
X120374800Y-111984000D01*
X120155200Y-111984000D01*
X119952317Y-112068037D01*
X119797037Y-112223317D01*
X119713000Y-112426200D01*
X119713000Y-112645800D01*
X119797037Y-112848683D01*
X119952317Y-113003963D01*
X120155200Y-113088000D01*
X120374800Y-113088000D01*
X120577683Y-113003963D01*
X120625500Y-112956146D01*
X120625500Y-115359000D01*
X117133685Y-115359000D01*
X117305183Y-115287963D01*
X117460463Y-115132683D01*
X117544500Y-114929800D01*
X117544500Y-114710200D01*
X117460463Y-114507317D01*
X117305183Y-114352037D01*
X117102300Y-114268000D01*
X116882700Y-114268000D01*
X116679817Y-114352037D01*
X116524537Y-114507317D01*
X116440500Y-114710200D01*
X116440500Y-114929800D01*
X116524537Y-115132683D01*
X116679817Y-115287963D01*
X116851315Y-115359000D01*
X116667146Y-115359000D01*
X116590183Y-115282037D01*
X116387300Y-115198000D01*
X116167700Y-115198000D01*
X115964817Y-115282037D01*
X115887854Y-115359000D01*
X114876665Y-115359000D01*
X114820463Y-115223317D01*
X114665183Y-115068037D01*
X114462300Y-114984000D01*
X114404500Y-114984000D01*
X114404500Y-114776200D01*
X114320463Y-114573317D01*
X114165183Y-114418037D01*
X113962300Y-114334000D01*
X113742700Y-114334000D01*
X113539817Y-114418037D01*
X113384537Y-114573317D01*
X113300500Y-114776200D01*
X113300500Y-114995800D01*
X113384537Y-115198683D01*
X113539817Y-115353963D01*
X113551977Y-115359000D01*
X111456146Y-115359000D01*
X111379500Y-115282354D01*
X111379500Y-113842000D01*
X111552300Y-113842000D01*
X111755183Y-113757963D01*
X111910463Y-113602683D01*
X111994500Y-113399800D01*
X111994500Y-113180200D01*
X111988702Y-113166200D01*
X117930500Y-113166200D01*
X117930500Y-113385800D01*
X118014537Y-113588683D01*
X118169817Y-113743963D01*
X118372700Y-113828000D01*
X118490500Y-113828000D01*
X118490500Y-114035800D01*
X118574537Y-114238683D01*
X118729817Y-114393963D01*
X118932700Y-114478000D01*
X119152300Y-114478000D01*
X119355183Y-114393963D01*
X119510463Y-114238683D01*
X119594500Y-114035800D01*
X119594500Y-113816200D01*
X119510463Y-113613317D01*
X119355183Y-113458037D01*
X119152300Y-113374000D01*
X119034500Y-113374000D01*
X119034500Y-113166200D01*
X118950463Y-112963317D01*
X118795183Y-112808037D01*
X118592300Y-112724000D01*
X118372700Y-112724000D01*
X118169817Y-112808037D01*
X118014537Y-112963317D01*
X117930500Y-113166200D01*
X111988702Y-113166200D01*
X111910463Y-112977317D01*
X111755183Y-112822037D01*
X111552300Y-112738000D01*
X111379500Y-112738000D01*
X111379500Y-111696200D01*
X117973000Y-111696200D01*
X117973000Y-111915800D01*
X118057037Y-112118683D01*
X118212317Y-112273963D01*
X118415200Y-112358000D01*
X118634800Y-112358000D01*
X118837683Y-112273963D01*
X118992963Y-112118683D01*
X119077000Y-111915800D01*
X119077000Y-111696200D01*
X118992963Y-111493317D01*
X118837683Y-111338037D01*
X118634800Y-111254000D01*
X118415200Y-111254000D01*
X118212317Y-111338037D01*
X118057037Y-111493317D01*
X117973000Y-111696200D01*
X111379500Y-111696200D01*
X111379500Y-111334590D01*
X111565945Y-111334590D01*
X111768828Y-111250553D01*
X111924108Y-111095273D01*
X112008145Y-110892390D01*
X112008145Y-110860200D01*
X117150500Y-110860200D01*
X117150500Y-111079800D01*
X117234537Y-111282683D01*
X117389817Y-111437963D01*
X117592700Y-111522000D01*
X117812300Y-111522000D01*
X118015183Y-111437963D01*
X118170463Y-111282683D01*
X118254500Y-111079800D01*
X118254500Y-110860200D01*
X118170463Y-110657317D01*
X118015183Y-110502037D01*
X117812300Y-110418000D01*
X117592700Y-110418000D01*
X117389817Y-110502037D01*
X117234537Y-110657317D01*
X117150500Y-110860200D01*
X112008145Y-110860200D01*
X112008145Y-110672790D01*
X111924108Y-110469907D01*
X111768828Y-110314627D01*
X111565945Y-110230590D01*
X111379500Y-110230590D01*
X111379500Y-109826415D01*
X111919751Y-109826415D01*
X111919751Y-110046015D01*
X112003788Y-110248898D01*
X112159068Y-110404178D01*
X112361951Y-110488215D01*
X112581551Y-110488215D01*
X112784434Y-110404178D01*
X112902233Y-110286379D01*
X112949817Y-110333963D01*
X113152700Y-110418000D01*
X113372300Y-110418000D01*
X113575183Y-110333963D01*
X113730463Y-110178683D01*
X113814500Y-109975800D01*
X113814500Y-109886200D01*
X115440500Y-109886200D01*
X115440500Y-110105800D01*
X115524537Y-110308683D01*
X115679817Y-110463963D01*
X115882700Y-110548000D01*
X116102300Y-110548000D01*
X116305183Y-110463963D01*
X116460463Y-110308683D01*
X116544500Y-110105800D01*
X116544500Y-109886200D01*
X116460463Y-109683317D01*
X116435140Y-109657994D01*
X117682294Y-109657994D01*
X117682294Y-109877594D01*
X117766331Y-110080477D01*
X117921611Y-110235757D01*
X118124494Y-110319794D01*
X118344094Y-110319794D01*
X118546977Y-110235757D01*
X118702257Y-110080477D01*
X118786294Y-109877594D01*
X118786294Y-109657994D01*
X118702257Y-109455111D01*
X118546977Y-109299831D01*
X118344094Y-109215794D01*
X118124494Y-109215794D01*
X117921611Y-109299831D01*
X117766331Y-109455111D01*
X117682294Y-109657994D01*
X116435140Y-109657994D01*
X116305183Y-109528037D01*
X116102300Y-109444000D01*
X115882700Y-109444000D01*
X115679817Y-109528037D01*
X115524537Y-109683317D01*
X115440500Y-109886200D01*
X113814500Y-109886200D01*
X113814500Y-109756200D01*
X113730463Y-109553317D01*
X113575183Y-109398037D01*
X113372300Y-109314000D01*
X113152700Y-109314000D01*
X112949817Y-109398037D01*
X112832018Y-109515836D01*
X112784434Y-109468252D01*
X112581551Y-109384215D01*
X112361951Y-109384215D01*
X112159068Y-109468252D01*
X112003788Y-109623532D01*
X111919751Y-109826415D01*
X111379500Y-109826415D01*
X111379500Y-109213000D01*
X120625500Y-109213000D01*
X120625500Y-110335854D01*
G04 #@! TD*
M02*
