G04 #@! TF.GenerationSoftware,KiCad,Pcbnew,5.0.2+dfsg1-1~bpo9+1*
G04 #@! TF.CreationDate,2019-09-11T09:46:49+02:00*
G04 #@! TF.ProjectId,OV9281,4f563932-3831-42e6-9b69-6361645f7063,rev?*
G04 #@! TF.SameCoordinates,Original*
G04 #@! TF.FileFunction,Paste,Top*
G04 #@! TF.FilePolarity,Positive*
%FSLAX46Y46*%
G04 Gerber Fmt 4.6, Leading zero omitted, Abs format (unit mm)*
G04 Created by KiCad (PCBNEW 5.0.2+dfsg1-1~bpo9+1) date Wed 11 Sep 2019 09:46:49 AM CEST*
%MOMM*%
%LPD*%
G01*
G04 APERTURE LIST*
%ADD10R,1.500000X2.500000*%
%ADD11R,0.300000X1.200000*%
%ADD12C,0.100000*%
%ADD13C,0.590000*%
%ADD14R,1.000000X0.550000*%
%ADD15R,0.800000X0.600000*%
%ADD16R,1.200000X1.200000*%
%ADD17R,1.200000X1.400000*%
G04 APERTURE END LIST*
D10*
G04 #@! TO.C,J3*
X163850000Y-117550000D03*
X163850000Y-121250000D03*
X136150000Y-121250000D03*
X136150000Y-117550000D03*
D11*
X137750000Y-119400000D03*
X138250000Y-119400000D03*
X138750000Y-119400000D03*
X139250000Y-119400000D03*
X139750000Y-119400000D03*
X140250000Y-119400000D03*
X140750000Y-119400000D03*
X141250000Y-119400000D03*
X141750000Y-119400000D03*
X142250000Y-119400000D03*
X142750000Y-119400000D03*
X143250000Y-119400000D03*
X143750000Y-119400000D03*
X144250000Y-119400000D03*
X144750000Y-119400000D03*
X145250000Y-119400000D03*
X145750000Y-119400000D03*
X146250000Y-119400000D03*
X146750000Y-119400000D03*
X147250000Y-119400000D03*
X147750000Y-119400000D03*
X148250000Y-119400000D03*
X148750000Y-119400000D03*
X149250000Y-119400000D03*
X149750000Y-119400000D03*
X150250000Y-119400000D03*
X150750000Y-119400000D03*
X151250000Y-119400000D03*
X151750000Y-119400000D03*
X152250000Y-119400000D03*
X152750000Y-119400000D03*
X153250000Y-119400000D03*
X153750000Y-119400000D03*
X154250000Y-119400000D03*
X154750000Y-119400000D03*
X155250000Y-119400000D03*
X155750000Y-119400000D03*
X156250000Y-119400000D03*
X156750000Y-119400000D03*
X157250000Y-119400000D03*
X157750000Y-119400000D03*
X158250000Y-119400000D03*
X158750000Y-119400000D03*
X159250000Y-119400000D03*
X159750000Y-119400000D03*
X160250000Y-119400000D03*
X160750000Y-119400000D03*
X161250000Y-119400000D03*
X161750000Y-119400000D03*
X162250000Y-119400000D03*
G04 #@! TD*
D12*
G04 #@! TO.C,R5*
G36*
X155161959Y-102965711D02*
X155176277Y-102967835D01*
X155190318Y-102971352D01*
X155203947Y-102976229D01*
X155217032Y-102982418D01*
X155229448Y-102989859D01*
X155241074Y-102998482D01*
X155251799Y-103008203D01*
X155261520Y-103018928D01*
X155270143Y-103030554D01*
X155277584Y-103042970D01*
X155283773Y-103056055D01*
X155288650Y-103069684D01*
X155292167Y-103083725D01*
X155294291Y-103098043D01*
X155295001Y-103112501D01*
X155295001Y-103457501D01*
X155294291Y-103471959D01*
X155292167Y-103486277D01*
X155288650Y-103500318D01*
X155283773Y-103513947D01*
X155277584Y-103527032D01*
X155270143Y-103539448D01*
X155261520Y-103551074D01*
X155251799Y-103561799D01*
X155241074Y-103571520D01*
X155229448Y-103580143D01*
X155217032Y-103587584D01*
X155203947Y-103593773D01*
X155190318Y-103598650D01*
X155176277Y-103602167D01*
X155161959Y-103604291D01*
X155147501Y-103605001D01*
X154852501Y-103605001D01*
X154838043Y-103604291D01*
X154823725Y-103602167D01*
X154809684Y-103598650D01*
X154796055Y-103593773D01*
X154782970Y-103587584D01*
X154770554Y-103580143D01*
X154758928Y-103571520D01*
X154748203Y-103561799D01*
X154738482Y-103551074D01*
X154729859Y-103539448D01*
X154722418Y-103527032D01*
X154716229Y-103513947D01*
X154711352Y-103500318D01*
X154707835Y-103486277D01*
X154705711Y-103471959D01*
X154705001Y-103457501D01*
X154705001Y-103112501D01*
X154705711Y-103098043D01*
X154707835Y-103083725D01*
X154711352Y-103069684D01*
X154716229Y-103056055D01*
X154722418Y-103042970D01*
X154729859Y-103030554D01*
X154738482Y-103018928D01*
X154748203Y-103008203D01*
X154758928Y-102998482D01*
X154770554Y-102989859D01*
X154782970Y-102982418D01*
X154796055Y-102976229D01*
X154809684Y-102971352D01*
X154823725Y-102967835D01*
X154838043Y-102965711D01*
X154852501Y-102965001D01*
X155147501Y-102965001D01*
X155161959Y-102965711D01*
X155161959Y-102965711D01*
G37*
D13*
X155000001Y-103285001D03*
D12*
G36*
X154191959Y-102965711D02*
X154206277Y-102967835D01*
X154220318Y-102971352D01*
X154233947Y-102976229D01*
X154247032Y-102982418D01*
X154259448Y-102989859D01*
X154271074Y-102998482D01*
X154281799Y-103008203D01*
X154291520Y-103018928D01*
X154300143Y-103030554D01*
X154307584Y-103042970D01*
X154313773Y-103056055D01*
X154318650Y-103069684D01*
X154322167Y-103083725D01*
X154324291Y-103098043D01*
X154325001Y-103112501D01*
X154325001Y-103457501D01*
X154324291Y-103471959D01*
X154322167Y-103486277D01*
X154318650Y-103500318D01*
X154313773Y-103513947D01*
X154307584Y-103527032D01*
X154300143Y-103539448D01*
X154291520Y-103551074D01*
X154281799Y-103561799D01*
X154271074Y-103571520D01*
X154259448Y-103580143D01*
X154247032Y-103587584D01*
X154233947Y-103593773D01*
X154220318Y-103598650D01*
X154206277Y-103602167D01*
X154191959Y-103604291D01*
X154177501Y-103605001D01*
X153882501Y-103605001D01*
X153868043Y-103604291D01*
X153853725Y-103602167D01*
X153839684Y-103598650D01*
X153826055Y-103593773D01*
X153812970Y-103587584D01*
X153800554Y-103580143D01*
X153788928Y-103571520D01*
X153778203Y-103561799D01*
X153768482Y-103551074D01*
X153759859Y-103539448D01*
X153752418Y-103527032D01*
X153746229Y-103513947D01*
X153741352Y-103500318D01*
X153737835Y-103486277D01*
X153735711Y-103471959D01*
X153735001Y-103457501D01*
X153735001Y-103112501D01*
X153735711Y-103098043D01*
X153737835Y-103083725D01*
X153741352Y-103069684D01*
X153746229Y-103056055D01*
X153752418Y-103042970D01*
X153759859Y-103030554D01*
X153768482Y-103018928D01*
X153778203Y-103008203D01*
X153788928Y-102998482D01*
X153800554Y-102989859D01*
X153812970Y-102982418D01*
X153826055Y-102976229D01*
X153839684Y-102971352D01*
X153853725Y-102967835D01*
X153868043Y-102965711D01*
X153882501Y-102965001D01*
X154177501Y-102965001D01*
X154191959Y-102965711D01*
X154191959Y-102965711D01*
G37*
D13*
X154030001Y-103285001D03*
G04 #@! TD*
D12*
G04 #@! TO.C,R4*
G36*
X153251959Y-102965711D02*
X153266277Y-102967835D01*
X153280318Y-102971352D01*
X153293947Y-102976229D01*
X153307032Y-102982418D01*
X153319448Y-102989859D01*
X153331074Y-102998482D01*
X153341799Y-103008203D01*
X153351520Y-103018928D01*
X153360143Y-103030554D01*
X153367584Y-103042970D01*
X153373773Y-103056055D01*
X153378650Y-103069684D01*
X153382167Y-103083725D01*
X153384291Y-103098043D01*
X153385001Y-103112501D01*
X153385001Y-103457501D01*
X153384291Y-103471959D01*
X153382167Y-103486277D01*
X153378650Y-103500318D01*
X153373773Y-103513947D01*
X153367584Y-103527032D01*
X153360143Y-103539448D01*
X153351520Y-103551074D01*
X153341799Y-103561799D01*
X153331074Y-103571520D01*
X153319448Y-103580143D01*
X153307032Y-103587584D01*
X153293947Y-103593773D01*
X153280318Y-103598650D01*
X153266277Y-103602167D01*
X153251959Y-103604291D01*
X153237501Y-103605001D01*
X152942501Y-103605001D01*
X152928043Y-103604291D01*
X152913725Y-103602167D01*
X152899684Y-103598650D01*
X152886055Y-103593773D01*
X152872970Y-103587584D01*
X152860554Y-103580143D01*
X152848928Y-103571520D01*
X152838203Y-103561799D01*
X152828482Y-103551074D01*
X152819859Y-103539448D01*
X152812418Y-103527032D01*
X152806229Y-103513947D01*
X152801352Y-103500318D01*
X152797835Y-103486277D01*
X152795711Y-103471959D01*
X152795001Y-103457501D01*
X152795001Y-103112501D01*
X152795711Y-103098043D01*
X152797835Y-103083725D01*
X152801352Y-103069684D01*
X152806229Y-103056055D01*
X152812418Y-103042970D01*
X152819859Y-103030554D01*
X152828482Y-103018928D01*
X152838203Y-103008203D01*
X152848928Y-102998482D01*
X152860554Y-102989859D01*
X152872970Y-102982418D01*
X152886055Y-102976229D01*
X152899684Y-102971352D01*
X152913725Y-102967835D01*
X152928043Y-102965711D01*
X152942501Y-102965001D01*
X153237501Y-102965001D01*
X153251959Y-102965711D01*
X153251959Y-102965711D01*
G37*
D13*
X153090001Y-103285001D03*
D12*
G36*
X152281959Y-102965711D02*
X152296277Y-102967835D01*
X152310318Y-102971352D01*
X152323947Y-102976229D01*
X152337032Y-102982418D01*
X152349448Y-102989859D01*
X152361074Y-102998482D01*
X152371799Y-103008203D01*
X152381520Y-103018928D01*
X152390143Y-103030554D01*
X152397584Y-103042970D01*
X152403773Y-103056055D01*
X152408650Y-103069684D01*
X152412167Y-103083725D01*
X152414291Y-103098043D01*
X152415001Y-103112501D01*
X152415001Y-103457501D01*
X152414291Y-103471959D01*
X152412167Y-103486277D01*
X152408650Y-103500318D01*
X152403773Y-103513947D01*
X152397584Y-103527032D01*
X152390143Y-103539448D01*
X152381520Y-103551074D01*
X152371799Y-103561799D01*
X152361074Y-103571520D01*
X152349448Y-103580143D01*
X152337032Y-103587584D01*
X152323947Y-103593773D01*
X152310318Y-103598650D01*
X152296277Y-103602167D01*
X152281959Y-103604291D01*
X152267501Y-103605001D01*
X151972501Y-103605001D01*
X151958043Y-103604291D01*
X151943725Y-103602167D01*
X151929684Y-103598650D01*
X151916055Y-103593773D01*
X151902970Y-103587584D01*
X151890554Y-103580143D01*
X151878928Y-103571520D01*
X151868203Y-103561799D01*
X151858482Y-103551074D01*
X151849859Y-103539448D01*
X151842418Y-103527032D01*
X151836229Y-103513947D01*
X151831352Y-103500318D01*
X151827835Y-103486277D01*
X151825711Y-103471959D01*
X151825001Y-103457501D01*
X151825001Y-103112501D01*
X151825711Y-103098043D01*
X151827835Y-103083725D01*
X151831352Y-103069684D01*
X151836229Y-103056055D01*
X151842418Y-103042970D01*
X151849859Y-103030554D01*
X151858482Y-103018928D01*
X151868203Y-103008203D01*
X151878928Y-102998482D01*
X151890554Y-102989859D01*
X151902970Y-102982418D01*
X151916055Y-102976229D01*
X151929684Y-102971352D01*
X151943725Y-102967835D01*
X151958043Y-102965711D01*
X151972501Y-102965001D01*
X152267501Y-102965001D01*
X152281959Y-102965711D01*
X152281959Y-102965711D01*
G37*
D13*
X152120001Y-103285001D03*
G04 #@! TD*
D12*
G04 #@! TO.C,R3*
G36*
X151341959Y-102965711D02*
X151356277Y-102967835D01*
X151370318Y-102971352D01*
X151383947Y-102976229D01*
X151397032Y-102982418D01*
X151409448Y-102989859D01*
X151421074Y-102998482D01*
X151431799Y-103008203D01*
X151441520Y-103018928D01*
X151450143Y-103030554D01*
X151457584Y-103042970D01*
X151463773Y-103056055D01*
X151468650Y-103069684D01*
X151472167Y-103083725D01*
X151474291Y-103098043D01*
X151475001Y-103112501D01*
X151475001Y-103457501D01*
X151474291Y-103471959D01*
X151472167Y-103486277D01*
X151468650Y-103500318D01*
X151463773Y-103513947D01*
X151457584Y-103527032D01*
X151450143Y-103539448D01*
X151441520Y-103551074D01*
X151431799Y-103561799D01*
X151421074Y-103571520D01*
X151409448Y-103580143D01*
X151397032Y-103587584D01*
X151383947Y-103593773D01*
X151370318Y-103598650D01*
X151356277Y-103602167D01*
X151341959Y-103604291D01*
X151327501Y-103605001D01*
X151032501Y-103605001D01*
X151018043Y-103604291D01*
X151003725Y-103602167D01*
X150989684Y-103598650D01*
X150976055Y-103593773D01*
X150962970Y-103587584D01*
X150950554Y-103580143D01*
X150938928Y-103571520D01*
X150928203Y-103561799D01*
X150918482Y-103551074D01*
X150909859Y-103539448D01*
X150902418Y-103527032D01*
X150896229Y-103513947D01*
X150891352Y-103500318D01*
X150887835Y-103486277D01*
X150885711Y-103471959D01*
X150885001Y-103457501D01*
X150885001Y-103112501D01*
X150885711Y-103098043D01*
X150887835Y-103083725D01*
X150891352Y-103069684D01*
X150896229Y-103056055D01*
X150902418Y-103042970D01*
X150909859Y-103030554D01*
X150918482Y-103018928D01*
X150928203Y-103008203D01*
X150938928Y-102998482D01*
X150950554Y-102989859D01*
X150962970Y-102982418D01*
X150976055Y-102976229D01*
X150989684Y-102971352D01*
X151003725Y-102967835D01*
X151018043Y-102965711D01*
X151032501Y-102965001D01*
X151327501Y-102965001D01*
X151341959Y-102965711D01*
X151341959Y-102965711D01*
G37*
D13*
X151180001Y-103285001D03*
D12*
G36*
X150371959Y-102965711D02*
X150386277Y-102967835D01*
X150400318Y-102971352D01*
X150413947Y-102976229D01*
X150427032Y-102982418D01*
X150439448Y-102989859D01*
X150451074Y-102998482D01*
X150461799Y-103008203D01*
X150471520Y-103018928D01*
X150480143Y-103030554D01*
X150487584Y-103042970D01*
X150493773Y-103056055D01*
X150498650Y-103069684D01*
X150502167Y-103083725D01*
X150504291Y-103098043D01*
X150505001Y-103112501D01*
X150505001Y-103457501D01*
X150504291Y-103471959D01*
X150502167Y-103486277D01*
X150498650Y-103500318D01*
X150493773Y-103513947D01*
X150487584Y-103527032D01*
X150480143Y-103539448D01*
X150471520Y-103551074D01*
X150461799Y-103561799D01*
X150451074Y-103571520D01*
X150439448Y-103580143D01*
X150427032Y-103587584D01*
X150413947Y-103593773D01*
X150400318Y-103598650D01*
X150386277Y-103602167D01*
X150371959Y-103604291D01*
X150357501Y-103605001D01*
X150062501Y-103605001D01*
X150048043Y-103604291D01*
X150033725Y-103602167D01*
X150019684Y-103598650D01*
X150006055Y-103593773D01*
X149992970Y-103587584D01*
X149980554Y-103580143D01*
X149968928Y-103571520D01*
X149958203Y-103561799D01*
X149948482Y-103551074D01*
X149939859Y-103539448D01*
X149932418Y-103527032D01*
X149926229Y-103513947D01*
X149921352Y-103500318D01*
X149917835Y-103486277D01*
X149915711Y-103471959D01*
X149915001Y-103457501D01*
X149915001Y-103112501D01*
X149915711Y-103098043D01*
X149917835Y-103083725D01*
X149921352Y-103069684D01*
X149926229Y-103056055D01*
X149932418Y-103042970D01*
X149939859Y-103030554D01*
X149948482Y-103018928D01*
X149958203Y-103008203D01*
X149968928Y-102998482D01*
X149980554Y-102989859D01*
X149992970Y-102982418D01*
X150006055Y-102976229D01*
X150019684Y-102971352D01*
X150033725Y-102967835D01*
X150048043Y-102965711D01*
X150062501Y-102965001D01*
X150357501Y-102965001D01*
X150371959Y-102965711D01*
X150371959Y-102965711D01*
G37*
D13*
X150210001Y-103285001D03*
G04 #@! TD*
D12*
G04 #@! TO.C,R2*
G36*
X149431959Y-102965711D02*
X149446277Y-102967835D01*
X149460318Y-102971352D01*
X149473947Y-102976229D01*
X149487032Y-102982418D01*
X149499448Y-102989859D01*
X149511074Y-102998482D01*
X149521799Y-103008203D01*
X149531520Y-103018928D01*
X149540143Y-103030554D01*
X149547584Y-103042970D01*
X149553773Y-103056055D01*
X149558650Y-103069684D01*
X149562167Y-103083725D01*
X149564291Y-103098043D01*
X149565001Y-103112501D01*
X149565001Y-103457501D01*
X149564291Y-103471959D01*
X149562167Y-103486277D01*
X149558650Y-103500318D01*
X149553773Y-103513947D01*
X149547584Y-103527032D01*
X149540143Y-103539448D01*
X149531520Y-103551074D01*
X149521799Y-103561799D01*
X149511074Y-103571520D01*
X149499448Y-103580143D01*
X149487032Y-103587584D01*
X149473947Y-103593773D01*
X149460318Y-103598650D01*
X149446277Y-103602167D01*
X149431959Y-103604291D01*
X149417501Y-103605001D01*
X149122501Y-103605001D01*
X149108043Y-103604291D01*
X149093725Y-103602167D01*
X149079684Y-103598650D01*
X149066055Y-103593773D01*
X149052970Y-103587584D01*
X149040554Y-103580143D01*
X149028928Y-103571520D01*
X149018203Y-103561799D01*
X149008482Y-103551074D01*
X148999859Y-103539448D01*
X148992418Y-103527032D01*
X148986229Y-103513947D01*
X148981352Y-103500318D01*
X148977835Y-103486277D01*
X148975711Y-103471959D01*
X148975001Y-103457501D01*
X148975001Y-103112501D01*
X148975711Y-103098043D01*
X148977835Y-103083725D01*
X148981352Y-103069684D01*
X148986229Y-103056055D01*
X148992418Y-103042970D01*
X148999859Y-103030554D01*
X149008482Y-103018928D01*
X149018203Y-103008203D01*
X149028928Y-102998482D01*
X149040554Y-102989859D01*
X149052970Y-102982418D01*
X149066055Y-102976229D01*
X149079684Y-102971352D01*
X149093725Y-102967835D01*
X149108043Y-102965711D01*
X149122501Y-102965001D01*
X149417501Y-102965001D01*
X149431959Y-102965711D01*
X149431959Y-102965711D01*
G37*
D13*
X149270001Y-103285001D03*
D12*
G36*
X148461959Y-102965711D02*
X148476277Y-102967835D01*
X148490318Y-102971352D01*
X148503947Y-102976229D01*
X148517032Y-102982418D01*
X148529448Y-102989859D01*
X148541074Y-102998482D01*
X148551799Y-103008203D01*
X148561520Y-103018928D01*
X148570143Y-103030554D01*
X148577584Y-103042970D01*
X148583773Y-103056055D01*
X148588650Y-103069684D01*
X148592167Y-103083725D01*
X148594291Y-103098043D01*
X148595001Y-103112501D01*
X148595001Y-103457501D01*
X148594291Y-103471959D01*
X148592167Y-103486277D01*
X148588650Y-103500318D01*
X148583773Y-103513947D01*
X148577584Y-103527032D01*
X148570143Y-103539448D01*
X148561520Y-103551074D01*
X148551799Y-103561799D01*
X148541074Y-103571520D01*
X148529448Y-103580143D01*
X148517032Y-103587584D01*
X148503947Y-103593773D01*
X148490318Y-103598650D01*
X148476277Y-103602167D01*
X148461959Y-103604291D01*
X148447501Y-103605001D01*
X148152501Y-103605001D01*
X148138043Y-103604291D01*
X148123725Y-103602167D01*
X148109684Y-103598650D01*
X148096055Y-103593773D01*
X148082970Y-103587584D01*
X148070554Y-103580143D01*
X148058928Y-103571520D01*
X148048203Y-103561799D01*
X148038482Y-103551074D01*
X148029859Y-103539448D01*
X148022418Y-103527032D01*
X148016229Y-103513947D01*
X148011352Y-103500318D01*
X148007835Y-103486277D01*
X148005711Y-103471959D01*
X148005001Y-103457501D01*
X148005001Y-103112501D01*
X148005711Y-103098043D01*
X148007835Y-103083725D01*
X148011352Y-103069684D01*
X148016229Y-103056055D01*
X148022418Y-103042970D01*
X148029859Y-103030554D01*
X148038482Y-103018928D01*
X148048203Y-103008203D01*
X148058928Y-102998482D01*
X148070554Y-102989859D01*
X148082970Y-102982418D01*
X148096055Y-102976229D01*
X148109684Y-102971352D01*
X148123725Y-102967835D01*
X148138043Y-102965711D01*
X148152501Y-102965001D01*
X148447501Y-102965001D01*
X148461959Y-102965711D01*
X148461959Y-102965711D01*
G37*
D13*
X148300001Y-103285001D03*
G04 #@! TD*
D12*
G04 #@! TO.C,R1*
G36*
X147521959Y-102965711D02*
X147536277Y-102967835D01*
X147550318Y-102971352D01*
X147563947Y-102976229D01*
X147577032Y-102982418D01*
X147589448Y-102989859D01*
X147601074Y-102998482D01*
X147611799Y-103008203D01*
X147621520Y-103018928D01*
X147630143Y-103030554D01*
X147637584Y-103042970D01*
X147643773Y-103056055D01*
X147648650Y-103069684D01*
X147652167Y-103083725D01*
X147654291Y-103098043D01*
X147655001Y-103112501D01*
X147655001Y-103457501D01*
X147654291Y-103471959D01*
X147652167Y-103486277D01*
X147648650Y-103500318D01*
X147643773Y-103513947D01*
X147637584Y-103527032D01*
X147630143Y-103539448D01*
X147621520Y-103551074D01*
X147611799Y-103561799D01*
X147601074Y-103571520D01*
X147589448Y-103580143D01*
X147577032Y-103587584D01*
X147563947Y-103593773D01*
X147550318Y-103598650D01*
X147536277Y-103602167D01*
X147521959Y-103604291D01*
X147507501Y-103605001D01*
X147212501Y-103605001D01*
X147198043Y-103604291D01*
X147183725Y-103602167D01*
X147169684Y-103598650D01*
X147156055Y-103593773D01*
X147142970Y-103587584D01*
X147130554Y-103580143D01*
X147118928Y-103571520D01*
X147108203Y-103561799D01*
X147098482Y-103551074D01*
X147089859Y-103539448D01*
X147082418Y-103527032D01*
X147076229Y-103513947D01*
X147071352Y-103500318D01*
X147067835Y-103486277D01*
X147065711Y-103471959D01*
X147065001Y-103457501D01*
X147065001Y-103112501D01*
X147065711Y-103098043D01*
X147067835Y-103083725D01*
X147071352Y-103069684D01*
X147076229Y-103056055D01*
X147082418Y-103042970D01*
X147089859Y-103030554D01*
X147098482Y-103018928D01*
X147108203Y-103008203D01*
X147118928Y-102998482D01*
X147130554Y-102989859D01*
X147142970Y-102982418D01*
X147156055Y-102976229D01*
X147169684Y-102971352D01*
X147183725Y-102967835D01*
X147198043Y-102965711D01*
X147212501Y-102965001D01*
X147507501Y-102965001D01*
X147521959Y-102965711D01*
X147521959Y-102965711D01*
G37*
D13*
X147360001Y-103285001D03*
D12*
G36*
X146551959Y-102965711D02*
X146566277Y-102967835D01*
X146580318Y-102971352D01*
X146593947Y-102976229D01*
X146607032Y-102982418D01*
X146619448Y-102989859D01*
X146631074Y-102998482D01*
X146641799Y-103008203D01*
X146651520Y-103018928D01*
X146660143Y-103030554D01*
X146667584Y-103042970D01*
X146673773Y-103056055D01*
X146678650Y-103069684D01*
X146682167Y-103083725D01*
X146684291Y-103098043D01*
X146685001Y-103112501D01*
X146685001Y-103457501D01*
X146684291Y-103471959D01*
X146682167Y-103486277D01*
X146678650Y-103500318D01*
X146673773Y-103513947D01*
X146667584Y-103527032D01*
X146660143Y-103539448D01*
X146651520Y-103551074D01*
X146641799Y-103561799D01*
X146631074Y-103571520D01*
X146619448Y-103580143D01*
X146607032Y-103587584D01*
X146593947Y-103593773D01*
X146580318Y-103598650D01*
X146566277Y-103602167D01*
X146551959Y-103604291D01*
X146537501Y-103605001D01*
X146242501Y-103605001D01*
X146228043Y-103604291D01*
X146213725Y-103602167D01*
X146199684Y-103598650D01*
X146186055Y-103593773D01*
X146172970Y-103587584D01*
X146160554Y-103580143D01*
X146148928Y-103571520D01*
X146138203Y-103561799D01*
X146128482Y-103551074D01*
X146119859Y-103539448D01*
X146112418Y-103527032D01*
X146106229Y-103513947D01*
X146101352Y-103500318D01*
X146097835Y-103486277D01*
X146095711Y-103471959D01*
X146095001Y-103457501D01*
X146095001Y-103112501D01*
X146095711Y-103098043D01*
X146097835Y-103083725D01*
X146101352Y-103069684D01*
X146106229Y-103056055D01*
X146112418Y-103042970D01*
X146119859Y-103030554D01*
X146128482Y-103018928D01*
X146138203Y-103008203D01*
X146148928Y-102998482D01*
X146160554Y-102989859D01*
X146172970Y-102982418D01*
X146186055Y-102976229D01*
X146199684Y-102971352D01*
X146213725Y-102967835D01*
X146228043Y-102965711D01*
X146242501Y-102965001D01*
X146537501Y-102965001D01*
X146551959Y-102965711D01*
X146551959Y-102965711D01*
G37*
D13*
X146390001Y-103285001D03*
G04 #@! TD*
D14*
G04 #@! TO.C,IC3*
X183740000Y-105050000D03*
X183740000Y-103150000D03*
X186440000Y-105050000D03*
X186440000Y-104100000D03*
X186440000Y-103150000D03*
G04 #@! TD*
D15*
G04 #@! TO.C,C4*
X121170000Y-109130000D03*
X121170000Y-107730000D03*
G04 #@! TD*
G04 #@! TO.C,C5*
X121193797Y-104526280D03*
X121193797Y-103126280D03*
G04 #@! TD*
G04 #@! TO.C,C6*
X181790000Y-105050000D03*
X181790000Y-103650000D03*
G04 #@! TD*
D16*
G04 #@! TO.C,C2*
X128920000Y-102630000D03*
X128920000Y-104730000D03*
G04 #@! TD*
G04 #@! TO.C,C1*
X128870000Y-107230000D03*
X128870000Y-109330000D03*
G04 #@! TD*
G04 #@! TO.C,C3*
X188940000Y-105050000D03*
X188940000Y-102950000D03*
G04 #@! TD*
D17*
G04 #@! TO.C,Y1*
X172454300Y-106566664D03*
X174654300Y-106566664D03*
X172454300Y-104026664D03*
X174654300Y-104026664D03*
G04 #@! TD*
G04 #@! TO.C,Y2*
X108624300Y-106496664D03*
X110824300Y-106496664D03*
X108624300Y-103956664D03*
X110824300Y-103956664D03*
G04 #@! TD*
D14*
G04 #@! TO.C,IC2*
X123443797Y-104526280D03*
X123443797Y-102626280D03*
X126143797Y-104526280D03*
X126143797Y-103576280D03*
X126143797Y-102626280D03*
G04 #@! TD*
G04 #@! TO.C,IC1*
X123870000Y-109130000D03*
X123870000Y-107230000D03*
X126570000Y-109130000D03*
X126570000Y-108180000D03*
X126570000Y-107230000D03*
G04 #@! TD*
M02*
