G04 #@! TF.GenerationSoftware,KiCad,Pcbnew,5.0.2+dfsg1-1~bpo9+1*
G04 #@! TF.CreationDate,2019-09-20T17:36:01+02:00*
G04 #@! TF.ProjectId,OV9281,4f563932-3831-42e6-9b69-6361645f7063,rev?*
G04 #@! TF.SameCoordinates,Original*
G04 #@! TF.FileFunction,Copper,L1,Top*
G04 #@! TF.FilePolarity,Positive*
%FSLAX46Y46*%
G04 Gerber Fmt 4.6, Leading zero omitted, Abs format (unit mm)*
G04 Created by KiCad (PCBNEW 5.0.2+dfsg1-1~bpo9+1) date Fri 20 Sep 2019 05:36:01 PM CEST*
%MOMM*%
%LPD*%
G01*
G04 APERTURE LIST*
G04 #@! TA.AperFunction,Conductor*
%ADD10C,0.100000*%
G04 #@! TD*
G04 #@! TA.AperFunction,SMDPad,CuDef*
%ADD11C,0.590000*%
G04 #@! TD*
G04 #@! TA.AperFunction,SMDPad,CuDef*
%ADD12R,1.400000X1.200000*%
G04 #@! TD*
G04 #@! TA.AperFunction,SMDPad,CuDef*
%ADD13R,1.000000X0.550000*%
G04 #@! TD*
G04 #@! TA.AperFunction,SMDPad,CuDef*
%ADD14R,0.600000X0.800000*%
G04 #@! TD*
G04 #@! TA.AperFunction,SMDPad,CuDef*
%ADD15R,0.800000X0.600000*%
G04 #@! TD*
G04 #@! TA.AperFunction,SMDPad,CuDef*
%ADD16R,1.200000X1.200000*%
G04 #@! TD*
G04 #@! TA.AperFunction,SMDPad,CuDef*
%ADD17R,0.450000X0.700000*%
G04 #@! TD*
G04 #@! TA.AperFunction,SMDPad,CuDef*
%ADD18R,0.900000X0.240000*%
G04 #@! TD*
G04 #@! TA.AperFunction,SMDPad,CuDef*
%ADD19R,0.240000X0.900000*%
G04 #@! TD*
G04 #@! TA.AperFunction,SMDPad,CuDef*
%ADD20R,1.300000X0.600000*%
G04 #@! TD*
G04 #@! TA.AperFunction,SMDPad,CuDef*
%ADD21R,1.500000X2.500000*%
G04 #@! TD*
G04 #@! TA.AperFunction,SMDPad,CuDef*
%ADD22R,0.300000X1.200000*%
G04 #@! TD*
G04 #@! TA.AperFunction,ViaPad*
%ADD23C,0.550000*%
G04 #@! TD*
G04 #@! TA.AperFunction,Conductor*
%ADD24C,0.150000*%
G04 #@! TD*
G04 #@! TA.AperFunction,Conductor*
%ADD25C,0.254000*%
G04 #@! TD*
G04 APERTURE END LIST*
D10*
G04 #@! TO.N,/M2_AGND*
G04 #@! TO.C,R14*
G36*
X113623358Y-117000710D02*
X113637676Y-117002834D01*
X113651717Y-117006351D01*
X113665346Y-117011228D01*
X113678431Y-117017417D01*
X113690847Y-117024858D01*
X113702473Y-117033481D01*
X113713198Y-117043202D01*
X113722919Y-117053927D01*
X113731542Y-117065553D01*
X113738983Y-117077969D01*
X113745172Y-117091054D01*
X113750049Y-117104683D01*
X113753566Y-117118724D01*
X113755690Y-117133042D01*
X113756400Y-117147500D01*
X113756400Y-117442500D01*
X113755690Y-117456958D01*
X113753566Y-117471276D01*
X113750049Y-117485317D01*
X113745172Y-117498946D01*
X113738983Y-117512031D01*
X113731542Y-117524447D01*
X113722919Y-117536073D01*
X113713198Y-117546798D01*
X113702473Y-117556519D01*
X113690847Y-117565142D01*
X113678431Y-117572583D01*
X113665346Y-117578772D01*
X113651717Y-117583649D01*
X113637676Y-117587166D01*
X113623358Y-117589290D01*
X113608900Y-117590000D01*
X113263900Y-117590000D01*
X113249442Y-117589290D01*
X113235124Y-117587166D01*
X113221083Y-117583649D01*
X113207454Y-117578772D01*
X113194369Y-117572583D01*
X113181953Y-117565142D01*
X113170327Y-117556519D01*
X113159602Y-117546798D01*
X113149881Y-117536073D01*
X113141258Y-117524447D01*
X113133817Y-117512031D01*
X113127628Y-117498946D01*
X113122751Y-117485317D01*
X113119234Y-117471276D01*
X113117110Y-117456958D01*
X113116400Y-117442500D01*
X113116400Y-117147500D01*
X113117110Y-117133042D01*
X113119234Y-117118724D01*
X113122751Y-117104683D01*
X113127628Y-117091054D01*
X113133817Y-117077969D01*
X113141258Y-117065553D01*
X113149881Y-117053927D01*
X113159602Y-117043202D01*
X113170327Y-117033481D01*
X113181953Y-117024858D01*
X113194369Y-117017417D01*
X113207454Y-117011228D01*
X113221083Y-117006351D01*
X113235124Y-117002834D01*
X113249442Y-117000710D01*
X113263900Y-117000000D01*
X113608900Y-117000000D01*
X113623358Y-117000710D01*
X113623358Y-117000710D01*
G37*
D11*
G04 #@! TD*
G04 #@! TO.P,R14,2*
G04 #@! TO.N,/M2_AGND*
X113436400Y-117295000D03*
D10*
G04 #@! TO.N,/M2_DGND*
G04 #@! TO.C,R14*
G36*
X113623358Y-117970710D02*
X113637676Y-117972834D01*
X113651717Y-117976351D01*
X113665346Y-117981228D01*
X113678431Y-117987417D01*
X113690847Y-117994858D01*
X113702473Y-118003481D01*
X113713198Y-118013202D01*
X113722919Y-118023927D01*
X113731542Y-118035553D01*
X113738983Y-118047969D01*
X113745172Y-118061054D01*
X113750049Y-118074683D01*
X113753566Y-118088724D01*
X113755690Y-118103042D01*
X113756400Y-118117500D01*
X113756400Y-118412500D01*
X113755690Y-118426958D01*
X113753566Y-118441276D01*
X113750049Y-118455317D01*
X113745172Y-118468946D01*
X113738983Y-118482031D01*
X113731542Y-118494447D01*
X113722919Y-118506073D01*
X113713198Y-118516798D01*
X113702473Y-118526519D01*
X113690847Y-118535142D01*
X113678431Y-118542583D01*
X113665346Y-118548772D01*
X113651717Y-118553649D01*
X113637676Y-118557166D01*
X113623358Y-118559290D01*
X113608900Y-118560000D01*
X113263900Y-118560000D01*
X113249442Y-118559290D01*
X113235124Y-118557166D01*
X113221083Y-118553649D01*
X113207454Y-118548772D01*
X113194369Y-118542583D01*
X113181953Y-118535142D01*
X113170327Y-118526519D01*
X113159602Y-118516798D01*
X113149881Y-118506073D01*
X113141258Y-118494447D01*
X113133817Y-118482031D01*
X113127628Y-118468946D01*
X113122751Y-118455317D01*
X113119234Y-118441276D01*
X113117110Y-118426958D01*
X113116400Y-118412500D01*
X113116400Y-118117500D01*
X113117110Y-118103042D01*
X113119234Y-118088724D01*
X113122751Y-118074683D01*
X113127628Y-118061054D01*
X113133817Y-118047969D01*
X113141258Y-118035553D01*
X113149881Y-118023927D01*
X113159602Y-118013202D01*
X113170327Y-118003481D01*
X113181953Y-117994858D01*
X113194369Y-117987417D01*
X113207454Y-117981228D01*
X113221083Y-117976351D01*
X113235124Y-117972834D01*
X113249442Y-117970710D01*
X113263900Y-117970000D01*
X113608900Y-117970000D01*
X113623358Y-117970710D01*
X113623358Y-117970710D01*
G37*
D11*
G04 #@! TD*
G04 #@! TO.P,R14,1*
G04 #@! TO.N,/M2_DGND*
X113436400Y-118265000D03*
D10*
G04 #@! TO.N,/M1_DOVDD*
G04 #@! TO.C,C16*
G36*
X187455682Y-117004710D02*
X187470000Y-117006834D01*
X187484041Y-117010351D01*
X187497670Y-117015228D01*
X187510755Y-117021417D01*
X187523171Y-117028858D01*
X187534797Y-117037481D01*
X187545522Y-117047202D01*
X187555243Y-117057927D01*
X187563866Y-117069553D01*
X187571307Y-117081969D01*
X187577496Y-117095054D01*
X187582373Y-117108683D01*
X187585890Y-117122724D01*
X187588014Y-117137042D01*
X187588724Y-117151500D01*
X187588724Y-117446500D01*
X187588014Y-117460958D01*
X187585890Y-117475276D01*
X187582373Y-117489317D01*
X187577496Y-117502946D01*
X187571307Y-117516031D01*
X187563866Y-117528447D01*
X187555243Y-117540073D01*
X187545522Y-117550798D01*
X187534797Y-117560519D01*
X187523171Y-117569142D01*
X187510755Y-117576583D01*
X187497670Y-117582772D01*
X187484041Y-117587649D01*
X187470000Y-117591166D01*
X187455682Y-117593290D01*
X187441224Y-117594000D01*
X187096224Y-117594000D01*
X187081766Y-117593290D01*
X187067448Y-117591166D01*
X187053407Y-117587649D01*
X187039778Y-117582772D01*
X187026693Y-117576583D01*
X187014277Y-117569142D01*
X187002651Y-117560519D01*
X186991926Y-117550798D01*
X186982205Y-117540073D01*
X186973582Y-117528447D01*
X186966141Y-117516031D01*
X186959952Y-117502946D01*
X186955075Y-117489317D01*
X186951558Y-117475276D01*
X186949434Y-117460958D01*
X186948724Y-117446500D01*
X186948724Y-117151500D01*
X186949434Y-117137042D01*
X186951558Y-117122724D01*
X186955075Y-117108683D01*
X186959952Y-117095054D01*
X186966141Y-117081969D01*
X186973582Y-117069553D01*
X186982205Y-117057927D01*
X186991926Y-117047202D01*
X187002651Y-117037481D01*
X187014277Y-117028858D01*
X187026693Y-117021417D01*
X187039778Y-117015228D01*
X187053407Y-117010351D01*
X187067448Y-117006834D01*
X187081766Y-117004710D01*
X187096224Y-117004000D01*
X187441224Y-117004000D01*
X187455682Y-117004710D01*
X187455682Y-117004710D01*
G37*
D11*
G04 #@! TD*
G04 #@! TO.P,C16,1*
G04 #@! TO.N,/M1_DOVDD*
X187268724Y-117299000D03*
D10*
G04 #@! TO.N,/M1_DGND*
G04 #@! TO.C,C16*
G36*
X187455682Y-117974710D02*
X187470000Y-117976834D01*
X187484041Y-117980351D01*
X187497670Y-117985228D01*
X187510755Y-117991417D01*
X187523171Y-117998858D01*
X187534797Y-118007481D01*
X187545522Y-118017202D01*
X187555243Y-118027927D01*
X187563866Y-118039553D01*
X187571307Y-118051969D01*
X187577496Y-118065054D01*
X187582373Y-118078683D01*
X187585890Y-118092724D01*
X187588014Y-118107042D01*
X187588724Y-118121500D01*
X187588724Y-118416500D01*
X187588014Y-118430958D01*
X187585890Y-118445276D01*
X187582373Y-118459317D01*
X187577496Y-118472946D01*
X187571307Y-118486031D01*
X187563866Y-118498447D01*
X187555243Y-118510073D01*
X187545522Y-118520798D01*
X187534797Y-118530519D01*
X187523171Y-118539142D01*
X187510755Y-118546583D01*
X187497670Y-118552772D01*
X187484041Y-118557649D01*
X187470000Y-118561166D01*
X187455682Y-118563290D01*
X187441224Y-118564000D01*
X187096224Y-118564000D01*
X187081766Y-118563290D01*
X187067448Y-118561166D01*
X187053407Y-118557649D01*
X187039778Y-118552772D01*
X187026693Y-118546583D01*
X187014277Y-118539142D01*
X187002651Y-118530519D01*
X186991926Y-118520798D01*
X186982205Y-118510073D01*
X186973582Y-118498447D01*
X186966141Y-118486031D01*
X186959952Y-118472946D01*
X186955075Y-118459317D01*
X186951558Y-118445276D01*
X186949434Y-118430958D01*
X186948724Y-118416500D01*
X186948724Y-118121500D01*
X186949434Y-118107042D01*
X186951558Y-118092724D01*
X186955075Y-118078683D01*
X186959952Y-118065054D01*
X186966141Y-118051969D01*
X186973582Y-118039553D01*
X186982205Y-118027927D01*
X186991926Y-118017202D01*
X187002651Y-118007481D01*
X187014277Y-117998858D01*
X187026693Y-117991417D01*
X187039778Y-117985228D01*
X187053407Y-117980351D01*
X187067448Y-117976834D01*
X187081766Y-117974710D01*
X187096224Y-117974000D01*
X187441224Y-117974000D01*
X187455682Y-117974710D01*
X187455682Y-117974710D01*
G37*
D11*
G04 #@! TD*
G04 #@! TO.P,C16,2*
G04 #@! TO.N,/M1_DGND*
X187268724Y-118269000D03*
D12*
G04 #@! TO.P,Y2,2*
G04 #@! TO.N,GND*
X113466664Y-111425700D03*
G04 #@! TO.P,Y2,3*
G04 #@! TO.N,/M2_MCLK*
X113466664Y-113625700D03*
G04 #@! TO.P,Y2,1*
G04 #@! TO.N,+1V8*
X116006664Y-111425700D03*
G04 #@! TO.P,Y2,4*
X116006664Y-113625700D03*
G04 #@! TD*
D13*
G04 #@! TO.P,IC2,5*
G04 #@! TO.N,+1V8*
X113517797Y-104740280D03*
G04 #@! TO.P,IC2,4*
G04 #@! TO.N,N/C*
X113517797Y-102840280D03*
G04 #@! TO.P,IC2,1*
G04 #@! TO.N,+3V3*
X116217797Y-104740280D03*
G04 #@! TO.P,IC2,2*
G04 #@! TO.N,GND*
X116217797Y-103790280D03*
G04 #@! TO.P,IC2,3*
G04 #@! TO.N,+3V3*
X116217797Y-102840280D03*
G04 #@! TD*
D14*
G04 #@! TO.P,C34,2*
G04 #@! TO.N,GND*
X109790000Y-106680000D03*
G04 #@! TO.P,C34,1*
G04 #@! TO.N,+1V8*
X111190000Y-106680000D03*
G04 #@! TD*
D10*
G04 #@! TO.N,/M1_DGND*
G04 #@! TO.C,C15*
G36*
X179480483Y-109270710D02*
X179494801Y-109272834D01*
X179508842Y-109276351D01*
X179522471Y-109281228D01*
X179535556Y-109287417D01*
X179547972Y-109294858D01*
X179559598Y-109303481D01*
X179570323Y-109313202D01*
X179580044Y-109323927D01*
X179588667Y-109335553D01*
X179596108Y-109347969D01*
X179602297Y-109361054D01*
X179607174Y-109374683D01*
X179610691Y-109388724D01*
X179612815Y-109403042D01*
X179613525Y-109417500D01*
X179613525Y-109712500D01*
X179612815Y-109726958D01*
X179610691Y-109741276D01*
X179607174Y-109755317D01*
X179602297Y-109768946D01*
X179596108Y-109782031D01*
X179588667Y-109794447D01*
X179580044Y-109806073D01*
X179570323Y-109816798D01*
X179559598Y-109826519D01*
X179547972Y-109835142D01*
X179535556Y-109842583D01*
X179522471Y-109848772D01*
X179508842Y-109853649D01*
X179494801Y-109857166D01*
X179480483Y-109859290D01*
X179466025Y-109860000D01*
X179121025Y-109860000D01*
X179106567Y-109859290D01*
X179092249Y-109857166D01*
X179078208Y-109853649D01*
X179064579Y-109848772D01*
X179051494Y-109842583D01*
X179039078Y-109835142D01*
X179027452Y-109826519D01*
X179016727Y-109816798D01*
X179007006Y-109806073D01*
X178998383Y-109794447D01*
X178990942Y-109782031D01*
X178984753Y-109768946D01*
X178979876Y-109755317D01*
X178976359Y-109741276D01*
X178974235Y-109726958D01*
X178973525Y-109712500D01*
X178973525Y-109417500D01*
X178974235Y-109403042D01*
X178976359Y-109388724D01*
X178979876Y-109374683D01*
X178984753Y-109361054D01*
X178990942Y-109347969D01*
X178998383Y-109335553D01*
X179007006Y-109323927D01*
X179016727Y-109313202D01*
X179027452Y-109303481D01*
X179039078Y-109294858D01*
X179051494Y-109287417D01*
X179064579Y-109281228D01*
X179078208Y-109276351D01*
X179092249Y-109272834D01*
X179106567Y-109270710D01*
X179121025Y-109270000D01*
X179466025Y-109270000D01*
X179480483Y-109270710D01*
X179480483Y-109270710D01*
G37*
D11*
G04 #@! TD*
G04 #@! TO.P,C15,2*
G04 #@! TO.N,/M1_DGND*
X179293525Y-109565000D03*
D10*
G04 #@! TO.N,/M1_DOVDD*
G04 #@! TO.C,C15*
G36*
X179480483Y-110240710D02*
X179494801Y-110242834D01*
X179508842Y-110246351D01*
X179522471Y-110251228D01*
X179535556Y-110257417D01*
X179547972Y-110264858D01*
X179559598Y-110273481D01*
X179570323Y-110283202D01*
X179580044Y-110293927D01*
X179588667Y-110305553D01*
X179596108Y-110317969D01*
X179602297Y-110331054D01*
X179607174Y-110344683D01*
X179610691Y-110358724D01*
X179612815Y-110373042D01*
X179613525Y-110387500D01*
X179613525Y-110682500D01*
X179612815Y-110696958D01*
X179610691Y-110711276D01*
X179607174Y-110725317D01*
X179602297Y-110738946D01*
X179596108Y-110752031D01*
X179588667Y-110764447D01*
X179580044Y-110776073D01*
X179570323Y-110786798D01*
X179559598Y-110796519D01*
X179547972Y-110805142D01*
X179535556Y-110812583D01*
X179522471Y-110818772D01*
X179508842Y-110823649D01*
X179494801Y-110827166D01*
X179480483Y-110829290D01*
X179466025Y-110830000D01*
X179121025Y-110830000D01*
X179106567Y-110829290D01*
X179092249Y-110827166D01*
X179078208Y-110823649D01*
X179064579Y-110818772D01*
X179051494Y-110812583D01*
X179039078Y-110805142D01*
X179027452Y-110796519D01*
X179016727Y-110786798D01*
X179007006Y-110776073D01*
X178998383Y-110764447D01*
X178990942Y-110752031D01*
X178984753Y-110738946D01*
X178979876Y-110725317D01*
X178976359Y-110711276D01*
X178974235Y-110696958D01*
X178973525Y-110682500D01*
X178973525Y-110387500D01*
X178974235Y-110373042D01*
X178976359Y-110358724D01*
X178979876Y-110344683D01*
X178984753Y-110331054D01*
X178990942Y-110317969D01*
X178998383Y-110305553D01*
X179007006Y-110293927D01*
X179016727Y-110283202D01*
X179027452Y-110273481D01*
X179039078Y-110264858D01*
X179051494Y-110257417D01*
X179064579Y-110251228D01*
X179078208Y-110246351D01*
X179092249Y-110242834D01*
X179106567Y-110240710D01*
X179121025Y-110240000D01*
X179466025Y-110240000D01*
X179480483Y-110240710D01*
X179480483Y-110240710D01*
G37*
D11*
G04 #@! TD*
G04 #@! TO.P,C15,1*
G04 #@! TO.N,/M1_DOVDD*
X179293525Y-110535000D03*
D10*
G04 #@! TO.N,/M1_DVDD*
G04 #@! TO.C,C14*
G36*
X179480483Y-117230448D02*
X179494801Y-117232572D01*
X179508842Y-117236089D01*
X179522471Y-117240966D01*
X179535556Y-117247155D01*
X179547972Y-117254596D01*
X179559598Y-117263219D01*
X179570323Y-117272940D01*
X179580044Y-117283665D01*
X179588667Y-117295291D01*
X179596108Y-117307707D01*
X179602297Y-117320792D01*
X179607174Y-117334421D01*
X179610691Y-117348462D01*
X179612815Y-117362780D01*
X179613525Y-117377238D01*
X179613525Y-117672238D01*
X179612815Y-117686696D01*
X179610691Y-117701014D01*
X179607174Y-117715055D01*
X179602297Y-117728684D01*
X179596108Y-117741769D01*
X179588667Y-117754185D01*
X179580044Y-117765811D01*
X179570323Y-117776536D01*
X179559598Y-117786257D01*
X179547972Y-117794880D01*
X179535556Y-117802321D01*
X179522471Y-117808510D01*
X179508842Y-117813387D01*
X179494801Y-117816904D01*
X179480483Y-117819028D01*
X179466025Y-117819738D01*
X179121025Y-117819738D01*
X179106567Y-117819028D01*
X179092249Y-117816904D01*
X179078208Y-117813387D01*
X179064579Y-117808510D01*
X179051494Y-117802321D01*
X179039078Y-117794880D01*
X179027452Y-117786257D01*
X179016727Y-117776536D01*
X179007006Y-117765811D01*
X178998383Y-117754185D01*
X178990942Y-117741769D01*
X178984753Y-117728684D01*
X178979876Y-117715055D01*
X178976359Y-117701014D01*
X178974235Y-117686696D01*
X178973525Y-117672238D01*
X178973525Y-117377238D01*
X178974235Y-117362780D01*
X178976359Y-117348462D01*
X178979876Y-117334421D01*
X178984753Y-117320792D01*
X178990942Y-117307707D01*
X178998383Y-117295291D01*
X179007006Y-117283665D01*
X179016727Y-117272940D01*
X179027452Y-117263219D01*
X179039078Y-117254596D01*
X179051494Y-117247155D01*
X179064579Y-117240966D01*
X179078208Y-117236089D01*
X179092249Y-117232572D01*
X179106567Y-117230448D01*
X179121025Y-117229738D01*
X179466025Y-117229738D01*
X179480483Y-117230448D01*
X179480483Y-117230448D01*
G37*
D11*
G04 #@! TD*
G04 #@! TO.P,C14,1*
G04 #@! TO.N,/M1_DVDD*
X179293525Y-117524738D03*
D10*
G04 #@! TO.N,/M1_DGND*
G04 #@! TO.C,C14*
G36*
X179480483Y-116260448D02*
X179494801Y-116262572D01*
X179508842Y-116266089D01*
X179522471Y-116270966D01*
X179535556Y-116277155D01*
X179547972Y-116284596D01*
X179559598Y-116293219D01*
X179570323Y-116302940D01*
X179580044Y-116313665D01*
X179588667Y-116325291D01*
X179596108Y-116337707D01*
X179602297Y-116350792D01*
X179607174Y-116364421D01*
X179610691Y-116378462D01*
X179612815Y-116392780D01*
X179613525Y-116407238D01*
X179613525Y-116702238D01*
X179612815Y-116716696D01*
X179610691Y-116731014D01*
X179607174Y-116745055D01*
X179602297Y-116758684D01*
X179596108Y-116771769D01*
X179588667Y-116784185D01*
X179580044Y-116795811D01*
X179570323Y-116806536D01*
X179559598Y-116816257D01*
X179547972Y-116824880D01*
X179535556Y-116832321D01*
X179522471Y-116838510D01*
X179508842Y-116843387D01*
X179494801Y-116846904D01*
X179480483Y-116849028D01*
X179466025Y-116849738D01*
X179121025Y-116849738D01*
X179106567Y-116849028D01*
X179092249Y-116846904D01*
X179078208Y-116843387D01*
X179064579Y-116838510D01*
X179051494Y-116832321D01*
X179039078Y-116824880D01*
X179027452Y-116816257D01*
X179016727Y-116806536D01*
X179007006Y-116795811D01*
X178998383Y-116784185D01*
X178990942Y-116771769D01*
X178984753Y-116758684D01*
X178979876Y-116745055D01*
X178976359Y-116731014D01*
X178974235Y-116716696D01*
X178973525Y-116702238D01*
X178973525Y-116407238D01*
X178974235Y-116392780D01*
X178976359Y-116378462D01*
X178979876Y-116364421D01*
X178984753Y-116350792D01*
X178990942Y-116337707D01*
X178998383Y-116325291D01*
X179007006Y-116313665D01*
X179016727Y-116302940D01*
X179027452Y-116293219D01*
X179039078Y-116284596D01*
X179051494Y-116277155D01*
X179064579Y-116270966D01*
X179078208Y-116266089D01*
X179092249Y-116262572D01*
X179106567Y-116260448D01*
X179121025Y-116259738D01*
X179466025Y-116259738D01*
X179480483Y-116260448D01*
X179480483Y-116260448D01*
G37*
D11*
G04 #@! TD*
G04 #@! TO.P,C14,2*
G04 #@! TO.N,/M1_DGND*
X179293525Y-116554738D03*
D10*
G04 #@! TO.N,/M2_DGND*
G04 #@! TO.C,C23*
G36*
X115045758Y-117970710D02*
X115060076Y-117972834D01*
X115074117Y-117976351D01*
X115087746Y-117981228D01*
X115100831Y-117987417D01*
X115113247Y-117994858D01*
X115124873Y-118003481D01*
X115135598Y-118013202D01*
X115145319Y-118023927D01*
X115153942Y-118035553D01*
X115161383Y-118047969D01*
X115167572Y-118061054D01*
X115172449Y-118074683D01*
X115175966Y-118088724D01*
X115178090Y-118103042D01*
X115178800Y-118117500D01*
X115178800Y-118412500D01*
X115178090Y-118426958D01*
X115175966Y-118441276D01*
X115172449Y-118455317D01*
X115167572Y-118468946D01*
X115161383Y-118482031D01*
X115153942Y-118494447D01*
X115145319Y-118506073D01*
X115135598Y-118516798D01*
X115124873Y-118526519D01*
X115113247Y-118535142D01*
X115100831Y-118542583D01*
X115087746Y-118548772D01*
X115074117Y-118553649D01*
X115060076Y-118557166D01*
X115045758Y-118559290D01*
X115031300Y-118560000D01*
X114686300Y-118560000D01*
X114671842Y-118559290D01*
X114657524Y-118557166D01*
X114643483Y-118553649D01*
X114629854Y-118548772D01*
X114616769Y-118542583D01*
X114604353Y-118535142D01*
X114592727Y-118526519D01*
X114582002Y-118516798D01*
X114572281Y-118506073D01*
X114563658Y-118494447D01*
X114556217Y-118482031D01*
X114550028Y-118468946D01*
X114545151Y-118455317D01*
X114541634Y-118441276D01*
X114539510Y-118426958D01*
X114538800Y-118412500D01*
X114538800Y-118117500D01*
X114539510Y-118103042D01*
X114541634Y-118088724D01*
X114545151Y-118074683D01*
X114550028Y-118061054D01*
X114556217Y-118047969D01*
X114563658Y-118035553D01*
X114572281Y-118023927D01*
X114582002Y-118013202D01*
X114592727Y-118003481D01*
X114604353Y-117994858D01*
X114616769Y-117987417D01*
X114629854Y-117981228D01*
X114643483Y-117976351D01*
X114657524Y-117972834D01*
X114671842Y-117970710D01*
X114686300Y-117970000D01*
X115031300Y-117970000D01*
X115045758Y-117970710D01*
X115045758Y-117970710D01*
G37*
D11*
G04 #@! TD*
G04 #@! TO.P,C23,2*
G04 #@! TO.N,/M2_DGND*
X114858800Y-118265000D03*
D10*
G04 #@! TO.N,/M2_DVDD*
G04 #@! TO.C,C23*
G36*
X115045758Y-117000710D02*
X115060076Y-117002834D01*
X115074117Y-117006351D01*
X115087746Y-117011228D01*
X115100831Y-117017417D01*
X115113247Y-117024858D01*
X115124873Y-117033481D01*
X115135598Y-117043202D01*
X115145319Y-117053927D01*
X115153942Y-117065553D01*
X115161383Y-117077969D01*
X115167572Y-117091054D01*
X115172449Y-117104683D01*
X115175966Y-117118724D01*
X115178090Y-117133042D01*
X115178800Y-117147500D01*
X115178800Y-117442500D01*
X115178090Y-117456958D01*
X115175966Y-117471276D01*
X115172449Y-117485317D01*
X115167572Y-117498946D01*
X115161383Y-117512031D01*
X115153942Y-117524447D01*
X115145319Y-117536073D01*
X115135598Y-117546798D01*
X115124873Y-117556519D01*
X115113247Y-117565142D01*
X115100831Y-117572583D01*
X115087746Y-117578772D01*
X115074117Y-117583649D01*
X115060076Y-117587166D01*
X115045758Y-117589290D01*
X115031300Y-117590000D01*
X114686300Y-117590000D01*
X114671842Y-117589290D01*
X114657524Y-117587166D01*
X114643483Y-117583649D01*
X114629854Y-117578772D01*
X114616769Y-117572583D01*
X114604353Y-117565142D01*
X114592727Y-117556519D01*
X114582002Y-117546798D01*
X114572281Y-117536073D01*
X114563658Y-117524447D01*
X114556217Y-117512031D01*
X114550028Y-117498946D01*
X114545151Y-117485317D01*
X114541634Y-117471276D01*
X114539510Y-117456958D01*
X114538800Y-117442500D01*
X114538800Y-117147500D01*
X114539510Y-117133042D01*
X114541634Y-117118724D01*
X114545151Y-117104683D01*
X114550028Y-117091054D01*
X114556217Y-117077969D01*
X114563658Y-117065553D01*
X114572281Y-117053927D01*
X114582002Y-117043202D01*
X114592727Y-117033481D01*
X114604353Y-117024858D01*
X114616769Y-117017417D01*
X114629854Y-117011228D01*
X114643483Y-117006351D01*
X114657524Y-117002834D01*
X114671842Y-117000710D01*
X114686300Y-117000000D01*
X115031300Y-117000000D01*
X115045758Y-117000710D01*
X115045758Y-117000710D01*
G37*
D11*
G04 #@! TD*
G04 #@! TO.P,C23,1*
G04 #@! TO.N,/M2_DVDD*
X114858800Y-117295000D03*
D10*
G04 #@! TO.N,/M1_AGND*
G04 #@! TO.C,C17*
G36*
X186002408Y-117974710D02*
X186016726Y-117976834D01*
X186030767Y-117980351D01*
X186044396Y-117985228D01*
X186057481Y-117991417D01*
X186069897Y-117998858D01*
X186081523Y-118007481D01*
X186092248Y-118017202D01*
X186101969Y-118027927D01*
X186110592Y-118039553D01*
X186118033Y-118051969D01*
X186124222Y-118065054D01*
X186129099Y-118078683D01*
X186132616Y-118092724D01*
X186134740Y-118107042D01*
X186135450Y-118121500D01*
X186135450Y-118416500D01*
X186134740Y-118430958D01*
X186132616Y-118445276D01*
X186129099Y-118459317D01*
X186124222Y-118472946D01*
X186118033Y-118486031D01*
X186110592Y-118498447D01*
X186101969Y-118510073D01*
X186092248Y-118520798D01*
X186081523Y-118530519D01*
X186069897Y-118539142D01*
X186057481Y-118546583D01*
X186044396Y-118552772D01*
X186030767Y-118557649D01*
X186016726Y-118561166D01*
X186002408Y-118563290D01*
X185987950Y-118564000D01*
X185642950Y-118564000D01*
X185628492Y-118563290D01*
X185614174Y-118561166D01*
X185600133Y-118557649D01*
X185586504Y-118552772D01*
X185573419Y-118546583D01*
X185561003Y-118539142D01*
X185549377Y-118530519D01*
X185538652Y-118520798D01*
X185528931Y-118510073D01*
X185520308Y-118498447D01*
X185512867Y-118486031D01*
X185506678Y-118472946D01*
X185501801Y-118459317D01*
X185498284Y-118445276D01*
X185496160Y-118430958D01*
X185495450Y-118416500D01*
X185495450Y-118121500D01*
X185496160Y-118107042D01*
X185498284Y-118092724D01*
X185501801Y-118078683D01*
X185506678Y-118065054D01*
X185512867Y-118051969D01*
X185520308Y-118039553D01*
X185528931Y-118027927D01*
X185538652Y-118017202D01*
X185549377Y-118007481D01*
X185561003Y-117998858D01*
X185573419Y-117991417D01*
X185586504Y-117985228D01*
X185600133Y-117980351D01*
X185614174Y-117976834D01*
X185628492Y-117974710D01*
X185642950Y-117974000D01*
X185987950Y-117974000D01*
X186002408Y-117974710D01*
X186002408Y-117974710D01*
G37*
D11*
G04 #@! TD*
G04 #@! TO.P,C17,2*
G04 #@! TO.N,/M1_AGND*
X185815450Y-118269000D03*
D10*
G04 #@! TO.N,/M1_PVDD*
G04 #@! TO.C,C17*
G36*
X186002408Y-117004710D02*
X186016726Y-117006834D01*
X186030767Y-117010351D01*
X186044396Y-117015228D01*
X186057481Y-117021417D01*
X186069897Y-117028858D01*
X186081523Y-117037481D01*
X186092248Y-117047202D01*
X186101969Y-117057927D01*
X186110592Y-117069553D01*
X186118033Y-117081969D01*
X186124222Y-117095054D01*
X186129099Y-117108683D01*
X186132616Y-117122724D01*
X186134740Y-117137042D01*
X186135450Y-117151500D01*
X186135450Y-117446500D01*
X186134740Y-117460958D01*
X186132616Y-117475276D01*
X186129099Y-117489317D01*
X186124222Y-117502946D01*
X186118033Y-117516031D01*
X186110592Y-117528447D01*
X186101969Y-117540073D01*
X186092248Y-117550798D01*
X186081523Y-117560519D01*
X186069897Y-117569142D01*
X186057481Y-117576583D01*
X186044396Y-117582772D01*
X186030767Y-117587649D01*
X186016726Y-117591166D01*
X186002408Y-117593290D01*
X185987950Y-117594000D01*
X185642950Y-117594000D01*
X185628492Y-117593290D01*
X185614174Y-117591166D01*
X185600133Y-117587649D01*
X185586504Y-117582772D01*
X185573419Y-117576583D01*
X185561003Y-117569142D01*
X185549377Y-117560519D01*
X185538652Y-117550798D01*
X185528931Y-117540073D01*
X185520308Y-117528447D01*
X185512867Y-117516031D01*
X185506678Y-117502946D01*
X185501801Y-117489317D01*
X185498284Y-117475276D01*
X185496160Y-117460958D01*
X185495450Y-117446500D01*
X185495450Y-117151500D01*
X185496160Y-117137042D01*
X185498284Y-117122724D01*
X185501801Y-117108683D01*
X185506678Y-117095054D01*
X185512867Y-117081969D01*
X185520308Y-117069553D01*
X185528931Y-117057927D01*
X185538652Y-117047202D01*
X185549377Y-117037481D01*
X185561003Y-117028858D01*
X185573419Y-117021417D01*
X185586504Y-117015228D01*
X185600133Y-117010351D01*
X185614174Y-117006834D01*
X185628492Y-117004710D01*
X185642950Y-117004000D01*
X185987950Y-117004000D01*
X186002408Y-117004710D01*
X186002408Y-117004710D01*
G37*
D11*
G04 #@! TD*
G04 #@! TO.P,C17,1*
G04 #@! TO.N,/M1_PVDD*
X185815450Y-117299000D03*
D10*
G04 #@! TO.N,/M2_DVDD*
G04 #@! TO.C,C29*
G36*
X109336958Y-118350710D02*
X109351276Y-118352834D01*
X109365317Y-118356351D01*
X109378946Y-118361228D01*
X109392031Y-118367417D01*
X109404447Y-118374858D01*
X109416073Y-118383481D01*
X109426798Y-118393202D01*
X109436519Y-118403927D01*
X109445142Y-118415553D01*
X109452583Y-118427969D01*
X109458772Y-118441054D01*
X109463649Y-118454683D01*
X109467166Y-118468724D01*
X109469290Y-118483042D01*
X109470000Y-118497500D01*
X109470000Y-118792500D01*
X109469290Y-118806958D01*
X109467166Y-118821276D01*
X109463649Y-118835317D01*
X109458772Y-118848946D01*
X109452583Y-118862031D01*
X109445142Y-118874447D01*
X109436519Y-118886073D01*
X109426798Y-118896798D01*
X109416073Y-118906519D01*
X109404447Y-118915142D01*
X109392031Y-118922583D01*
X109378946Y-118928772D01*
X109365317Y-118933649D01*
X109351276Y-118937166D01*
X109336958Y-118939290D01*
X109322500Y-118940000D01*
X108977500Y-118940000D01*
X108963042Y-118939290D01*
X108948724Y-118937166D01*
X108934683Y-118933649D01*
X108921054Y-118928772D01*
X108907969Y-118922583D01*
X108895553Y-118915142D01*
X108883927Y-118906519D01*
X108873202Y-118896798D01*
X108863481Y-118886073D01*
X108854858Y-118874447D01*
X108847417Y-118862031D01*
X108841228Y-118848946D01*
X108836351Y-118835317D01*
X108832834Y-118821276D01*
X108830710Y-118806958D01*
X108830000Y-118792500D01*
X108830000Y-118497500D01*
X108830710Y-118483042D01*
X108832834Y-118468724D01*
X108836351Y-118454683D01*
X108841228Y-118441054D01*
X108847417Y-118427969D01*
X108854858Y-118415553D01*
X108863481Y-118403927D01*
X108873202Y-118393202D01*
X108883927Y-118383481D01*
X108895553Y-118374858D01*
X108907969Y-118367417D01*
X108921054Y-118361228D01*
X108934683Y-118356351D01*
X108948724Y-118352834D01*
X108963042Y-118350710D01*
X108977500Y-118350000D01*
X109322500Y-118350000D01*
X109336958Y-118350710D01*
X109336958Y-118350710D01*
G37*
D11*
G04 #@! TD*
G04 #@! TO.P,C29,1*
G04 #@! TO.N,/M2_DVDD*
X109150000Y-118645000D03*
D10*
G04 #@! TO.N,/M2_DGND*
G04 #@! TO.C,C29*
G36*
X109336958Y-117380710D02*
X109351276Y-117382834D01*
X109365317Y-117386351D01*
X109378946Y-117391228D01*
X109392031Y-117397417D01*
X109404447Y-117404858D01*
X109416073Y-117413481D01*
X109426798Y-117423202D01*
X109436519Y-117433927D01*
X109445142Y-117445553D01*
X109452583Y-117457969D01*
X109458772Y-117471054D01*
X109463649Y-117484683D01*
X109467166Y-117498724D01*
X109469290Y-117513042D01*
X109470000Y-117527500D01*
X109470000Y-117822500D01*
X109469290Y-117836958D01*
X109467166Y-117851276D01*
X109463649Y-117865317D01*
X109458772Y-117878946D01*
X109452583Y-117892031D01*
X109445142Y-117904447D01*
X109436519Y-117916073D01*
X109426798Y-117926798D01*
X109416073Y-117936519D01*
X109404447Y-117945142D01*
X109392031Y-117952583D01*
X109378946Y-117958772D01*
X109365317Y-117963649D01*
X109351276Y-117967166D01*
X109336958Y-117969290D01*
X109322500Y-117970000D01*
X108977500Y-117970000D01*
X108963042Y-117969290D01*
X108948724Y-117967166D01*
X108934683Y-117963649D01*
X108921054Y-117958772D01*
X108907969Y-117952583D01*
X108895553Y-117945142D01*
X108883927Y-117936519D01*
X108873202Y-117926798D01*
X108863481Y-117916073D01*
X108854858Y-117904447D01*
X108847417Y-117892031D01*
X108841228Y-117878946D01*
X108836351Y-117865317D01*
X108832834Y-117851276D01*
X108830710Y-117836958D01*
X108830000Y-117822500D01*
X108830000Y-117527500D01*
X108830710Y-117513042D01*
X108832834Y-117498724D01*
X108836351Y-117484683D01*
X108841228Y-117471054D01*
X108847417Y-117457969D01*
X108854858Y-117445553D01*
X108863481Y-117433927D01*
X108873202Y-117423202D01*
X108883927Y-117413481D01*
X108895553Y-117404858D01*
X108907969Y-117397417D01*
X108921054Y-117391228D01*
X108934683Y-117386351D01*
X108948724Y-117382834D01*
X108963042Y-117380710D01*
X108977500Y-117380000D01*
X109322500Y-117380000D01*
X109336958Y-117380710D01*
X109336958Y-117380710D01*
G37*
D11*
G04 #@! TD*
G04 #@! TO.P,C29,2*
G04 #@! TO.N,/M2_DGND*
X109150000Y-117675000D03*
D10*
G04 #@! TO.N,/M2_DGND*
G04 #@! TO.C,C30*
G36*
X109336958Y-110350710D02*
X109351276Y-110352834D01*
X109365317Y-110356351D01*
X109378946Y-110361228D01*
X109392031Y-110367417D01*
X109404447Y-110374858D01*
X109416073Y-110383481D01*
X109426798Y-110393202D01*
X109436519Y-110403927D01*
X109445142Y-110415553D01*
X109452583Y-110427969D01*
X109458772Y-110441054D01*
X109463649Y-110454683D01*
X109467166Y-110468724D01*
X109469290Y-110483042D01*
X109470000Y-110497500D01*
X109470000Y-110792500D01*
X109469290Y-110806958D01*
X109467166Y-110821276D01*
X109463649Y-110835317D01*
X109458772Y-110848946D01*
X109452583Y-110862031D01*
X109445142Y-110874447D01*
X109436519Y-110886073D01*
X109426798Y-110896798D01*
X109416073Y-110906519D01*
X109404447Y-110915142D01*
X109392031Y-110922583D01*
X109378946Y-110928772D01*
X109365317Y-110933649D01*
X109351276Y-110937166D01*
X109336958Y-110939290D01*
X109322500Y-110940000D01*
X108977500Y-110940000D01*
X108963042Y-110939290D01*
X108948724Y-110937166D01*
X108934683Y-110933649D01*
X108921054Y-110928772D01*
X108907969Y-110922583D01*
X108895553Y-110915142D01*
X108883927Y-110906519D01*
X108873202Y-110896798D01*
X108863481Y-110886073D01*
X108854858Y-110874447D01*
X108847417Y-110862031D01*
X108841228Y-110848946D01*
X108836351Y-110835317D01*
X108832834Y-110821276D01*
X108830710Y-110806958D01*
X108830000Y-110792500D01*
X108830000Y-110497500D01*
X108830710Y-110483042D01*
X108832834Y-110468724D01*
X108836351Y-110454683D01*
X108841228Y-110441054D01*
X108847417Y-110427969D01*
X108854858Y-110415553D01*
X108863481Y-110403927D01*
X108873202Y-110393202D01*
X108883927Y-110383481D01*
X108895553Y-110374858D01*
X108907969Y-110367417D01*
X108921054Y-110361228D01*
X108934683Y-110356351D01*
X108948724Y-110352834D01*
X108963042Y-110350710D01*
X108977500Y-110350000D01*
X109322500Y-110350000D01*
X109336958Y-110350710D01*
X109336958Y-110350710D01*
G37*
D11*
G04 #@! TD*
G04 #@! TO.P,C30,2*
G04 #@! TO.N,/M2_DGND*
X109150000Y-110645000D03*
D10*
G04 #@! TO.N,/M2_DOVDD*
G04 #@! TO.C,C30*
G36*
X109336958Y-111320710D02*
X109351276Y-111322834D01*
X109365317Y-111326351D01*
X109378946Y-111331228D01*
X109392031Y-111337417D01*
X109404447Y-111344858D01*
X109416073Y-111353481D01*
X109426798Y-111363202D01*
X109436519Y-111373927D01*
X109445142Y-111385553D01*
X109452583Y-111397969D01*
X109458772Y-111411054D01*
X109463649Y-111424683D01*
X109467166Y-111438724D01*
X109469290Y-111453042D01*
X109470000Y-111467500D01*
X109470000Y-111762500D01*
X109469290Y-111776958D01*
X109467166Y-111791276D01*
X109463649Y-111805317D01*
X109458772Y-111818946D01*
X109452583Y-111832031D01*
X109445142Y-111844447D01*
X109436519Y-111856073D01*
X109426798Y-111866798D01*
X109416073Y-111876519D01*
X109404447Y-111885142D01*
X109392031Y-111892583D01*
X109378946Y-111898772D01*
X109365317Y-111903649D01*
X109351276Y-111907166D01*
X109336958Y-111909290D01*
X109322500Y-111910000D01*
X108977500Y-111910000D01*
X108963042Y-111909290D01*
X108948724Y-111907166D01*
X108934683Y-111903649D01*
X108921054Y-111898772D01*
X108907969Y-111892583D01*
X108895553Y-111885142D01*
X108883927Y-111876519D01*
X108873202Y-111866798D01*
X108863481Y-111856073D01*
X108854858Y-111844447D01*
X108847417Y-111832031D01*
X108841228Y-111818946D01*
X108836351Y-111805317D01*
X108832834Y-111791276D01*
X108830710Y-111776958D01*
X108830000Y-111762500D01*
X108830000Y-111467500D01*
X108830710Y-111453042D01*
X108832834Y-111438724D01*
X108836351Y-111424683D01*
X108841228Y-111411054D01*
X108847417Y-111397969D01*
X108854858Y-111385553D01*
X108863481Y-111373927D01*
X108873202Y-111363202D01*
X108883927Y-111353481D01*
X108895553Y-111344858D01*
X108907969Y-111337417D01*
X108921054Y-111331228D01*
X108934683Y-111326351D01*
X108948724Y-111322834D01*
X108963042Y-111320710D01*
X108977500Y-111320000D01*
X109322500Y-111320000D01*
X109336958Y-111320710D01*
X109336958Y-111320710D01*
G37*
D11*
G04 #@! TD*
G04 #@! TO.P,C30,1*
G04 #@! TO.N,/M2_DOVDD*
X109150000Y-111615000D03*
D10*
G04 #@! TO.N,/M1_AVDD*
G04 #@! TO.C,C20*
G36*
X179480483Y-113750710D02*
X179494801Y-113752834D01*
X179508842Y-113756351D01*
X179522471Y-113761228D01*
X179535556Y-113767417D01*
X179547972Y-113774858D01*
X179559598Y-113783481D01*
X179570323Y-113793202D01*
X179580044Y-113803927D01*
X179588667Y-113815553D01*
X179596108Y-113827969D01*
X179602297Y-113841054D01*
X179607174Y-113854683D01*
X179610691Y-113868724D01*
X179612815Y-113883042D01*
X179613525Y-113897500D01*
X179613525Y-114192500D01*
X179612815Y-114206958D01*
X179610691Y-114221276D01*
X179607174Y-114235317D01*
X179602297Y-114248946D01*
X179596108Y-114262031D01*
X179588667Y-114274447D01*
X179580044Y-114286073D01*
X179570323Y-114296798D01*
X179559598Y-114306519D01*
X179547972Y-114315142D01*
X179535556Y-114322583D01*
X179522471Y-114328772D01*
X179508842Y-114333649D01*
X179494801Y-114337166D01*
X179480483Y-114339290D01*
X179466025Y-114340000D01*
X179121025Y-114340000D01*
X179106567Y-114339290D01*
X179092249Y-114337166D01*
X179078208Y-114333649D01*
X179064579Y-114328772D01*
X179051494Y-114322583D01*
X179039078Y-114315142D01*
X179027452Y-114306519D01*
X179016727Y-114296798D01*
X179007006Y-114286073D01*
X178998383Y-114274447D01*
X178990942Y-114262031D01*
X178984753Y-114248946D01*
X178979876Y-114235317D01*
X178976359Y-114221276D01*
X178974235Y-114206958D01*
X178973525Y-114192500D01*
X178973525Y-113897500D01*
X178974235Y-113883042D01*
X178976359Y-113868724D01*
X178979876Y-113854683D01*
X178984753Y-113841054D01*
X178990942Y-113827969D01*
X178998383Y-113815553D01*
X179007006Y-113803927D01*
X179016727Y-113793202D01*
X179027452Y-113783481D01*
X179039078Y-113774858D01*
X179051494Y-113767417D01*
X179064579Y-113761228D01*
X179078208Y-113756351D01*
X179092249Y-113752834D01*
X179106567Y-113750710D01*
X179121025Y-113750000D01*
X179466025Y-113750000D01*
X179480483Y-113750710D01*
X179480483Y-113750710D01*
G37*
D11*
G04 #@! TD*
G04 #@! TO.P,C20,1*
G04 #@! TO.N,/M1_AVDD*
X179293525Y-114045000D03*
D10*
G04 #@! TO.N,/M1_AGND*
G04 #@! TO.C,C20*
G36*
X179480483Y-112780710D02*
X179494801Y-112782834D01*
X179508842Y-112786351D01*
X179522471Y-112791228D01*
X179535556Y-112797417D01*
X179547972Y-112804858D01*
X179559598Y-112813481D01*
X179570323Y-112823202D01*
X179580044Y-112833927D01*
X179588667Y-112845553D01*
X179596108Y-112857969D01*
X179602297Y-112871054D01*
X179607174Y-112884683D01*
X179610691Y-112898724D01*
X179612815Y-112913042D01*
X179613525Y-112927500D01*
X179613525Y-113222500D01*
X179612815Y-113236958D01*
X179610691Y-113251276D01*
X179607174Y-113265317D01*
X179602297Y-113278946D01*
X179596108Y-113292031D01*
X179588667Y-113304447D01*
X179580044Y-113316073D01*
X179570323Y-113326798D01*
X179559598Y-113336519D01*
X179547972Y-113345142D01*
X179535556Y-113352583D01*
X179522471Y-113358772D01*
X179508842Y-113363649D01*
X179494801Y-113367166D01*
X179480483Y-113369290D01*
X179466025Y-113370000D01*
X179121025Y-113370000D01*
X179106567Y-113369290D01*
X179092249Y-113367166D01*
X179078208Y-113363649D01*
X179064579Y-113358772D01*
X179051494Y-113352583D01*
X179039078Y-113345142D01*
X179027452Y-113336519D01*
X179016727Y-113326798D01*
X179007006Y-113316073D01*
X178998383Y-113304447D01*
X178990942Y-113292031D01*
X178984753Y-113278946D01*
X178979876Y-113265317D01*
X178976359Y-113251276D01*
X178974235Y-113236958D01*
X178973525Y-113222500D01*
X178973525Y-112927500D01*
X178974235Y-112913042D01*
X178976359Y-112898724D01*
X178979876Y-112884683D01*
X178984753Y-112871054D01*
X178990942Y-112857969D01*
X178998383Y-112845553D01*
X179007006Y-112833927D01*
X179016727Y-112823202D01*
X179027452Y-112813481D01*
X179039078Y-112804858D01*
X179051494Y-112797417D01*
X179064579Y-112791228D01*
X179078208Y-112786351D01*
X179092249Y-112782834D01*
X179106567Y-112780710D01*
X179121025Y-112780000D01*
X179466025Y-112780000D01*
X179480483Y-112780710D01*
X179480483Y-112780710D01*
G37*
D11*
G04 #@! TD*
G04 #@! TO.P,C20,2*
G04 #@! TO.N,/M1_AGND*
X179293525Y-113075000D03*
D10*
G04 #@! TO.N,/M2_DGND*
G04 #@! TO.C,C31*
G36*
X117890558Y-117970710D02*
X117904876Y-117972834D01*
X117918917Y-117976351D01*
X117932546Y-117981228D01*
X117945631Y-117987417D01*
X117958047Y-117994858D01*
X117969673Y-118003481D01*
X117980398Y-118013202D01*
X117990119Y-118023927D01*
X117998742Y-118035553D01*
X118006183Y-118047969D01*
X118012372Y-118061054D01*
X118017249Y-118074683D01*
X118020766Y-118088724D01*
X118022890Y-118103042D01*
X118023600Y-118117500D01*
X118023600Y-118412500D01*
X118022890Y-118426958D01*
X118020766Y-118441276D01*
X118017249Y-118455317D01*
X118012372Y-118468946D01*
X118006183Y-118482031D01*
X117998742Y-118494447D01*
X117990119Y-118506073D01*
X117980398Y-118516798D01*
X117969673Y-118526519D01*
X117958047Y-118535142D01*
X117945631Y-118542583D01*
X117932546Y-118548772D01*
X117918917Y-118553649D01*
X117904876Y-118557166D01*
X117890558Y-118559290D01*
X117876100Y-118560000D01*
X117531100Y-118560000D01*
X117516642Y-118559290D01*
X117502324Y-118557166D01*
X117488283Y-118553649D01*
X117474654Y-118548772D01*
X117461569Y-118542583D01*
X117449153Y-118535142D01*
X117437527Y-118526519D01*
X117426802Y-118516798D01*
X117417081Y-118506073D01*
X117408458Y-118494447D01*
X117401017Y-118482031D01*
X117394828Y-118468946D01*
X117389951Y-118455317D01*
X117386434Y-118441276D01*
X117384310Y-118426958D01*
X117383600Y-118412500D01*
X117383600Y-118117500D01*
X117384310Y-118103042D01*
X117386434Y-118088724D01*
X117389951Y-118074683D01*
X117394828Y-118061054D01*
X117401017Y-118047969D01*
X117408458Y-118035553D01*
X117417081Y-118023927D01*
X117426802Y-118013202D01*
X117437527Y-118003481D01*
X117449153Y-117994858D01*
X117461569Y-117987417D01*
X117474654Y-117981228D01*
X117488283Y-117976351D01*
X117502324Y-117972834D01*
X117516642Y-117970710D01*
X117531100Y-117970000D01*
X117876100Y-117970000D01*
X117890558Y-117970710D01*
X117890558Y-117970710D01*
G37*
D11*
G04 #@! TD*
G04 #@! TO.P,C31,2*
G04 #@! TO.N,/M2_DGND*
X117703600Y-118265000D03*
D10*
G04 #@! TO.N,/M2_DOVDD*
G04 #@! TO.C,C31*
G36*
X117890558Y-117000710D02*
X117904876Y-117002834D01*
X117918917Y-117006351D01*
X117932546Y-117011228D01*
X117945631Y-117017417D01*
X117958047Y-117024858D01*
X117969673Y-117033481D01*
X117980398Y-117043202D01*
X117990119Y-117053927D01*
X117998742Y-117065553D01*
X118006183Y-117077969D01*
X118012372Y-117091054D01*
X118017249Y-117104683D01*
X118020766Y-117118724D01*
X118022890Y-117133042D01*
X118023600Y-117147500D01*
X118023600Y-117442500D01*
X118022890Y-117456958D01*
X118020766Y-117471276D01*
X118017249Y-117485317D01*
X118012372Y-117498946D01*
X118006183Y-117512031D01*
X117998742Y-117524447D01*
X117990119Y-117536073D01*
X117980398Y-117546798D01*
X117969673Y-117556519D01*
X117958047Y-117565142D01*
X117945631Y-117572583D01*
X117932546Y-117578772D01*
X117918917Y-117583649D01*
X117904876Y-117587166D01*
X117890558Y-117589290D01*
X117876100Y-117590000D01*
X117531100Y-117590000D01*
X117516642Y-117589290D01*
X117502324Y-117587166D01*
X117488283Y-117583649D01*
X117474654Y-117578772D01*
X117461569Y-117572583D01*
X117449153Y-117565142D01*
X117437527Y-117556519D01*
X117426802Y-117546798D01*
X117417081Y-117536073D01*
X117408458Y-117524447D01*
X117401017Y-117512031D01*
X117394828Y-117498946D01*
X117389951Y-117485317D01*
X117386434Y-117471276D01*
X117384310Y-117456958D01*
X117383600Y-117442500D01*
X117383600Y-117147500D01*
X117384310Y-117133042D01*
X117386434Y-117118724D01*
X117389951Y-117104683D01*
X117394828Y-117091054D01*
X117401017Y-117077969D01*
X117408458Y-117065553D01*
X117417081Y-117053927D01*
X117426802Y-117043202D01*
X117437527Y-117033481D01*
X117449153Y-117024858D01*
X117461569Y-117017417D01*
X117474654Y-117011228D01*
X117488283Y-117006351D01*
X117502324Y-117002834D01*
X117516642Y-117000710D01*
X117531100Y-117000000D01*
X117876100Y-117000000D01*
X117890558Y-117000710D01*
X117890558Y-117000710D01*
G37*
D11*
G04 #@! TD*
G04 #@! TO.P,C31,1*
G04 #@! TO.N,/M2_DOVDD*
X117703600Y-117295000D03*
D10*
G04 #@! TO.N,/M2_PVDD*
G04 #@! TO.C,C32*
G36*
X116468158Y-117000710D02*
X116482476Y-117002834D01*
X116496517Y-117006351D01*
X116510146Y-117011228D01*
X116523231Y-117017417D01*
X116535647Y-117024858D01*
X116547273Y-117033481D01*
X116557998Y-117043202D01*
X116567719Y-117053927D01*
X116576342Y-117065553D01*
X116583783Y-117077969D01*
X116589972Y-117091054D01*
X116594849Y-117104683D01*
X116598366Y-117118724D01*
X116600490Y-117133042D01*
X116601200Y-117147500D01*
X116601200Y-117442500D01*
X116600490Y-117456958D01*
X116598366Y-117471276D01*
X116594849Y-117485317D01*
X116589972Y-117498946D01*
X116583783Y-117512031D01*
X116576342Y-117524447D01*
X116567719Y-117536073D01*
X116557998Y-117546798D01*
X116547273Y-117556519D01*
X116535647Y-117565142D01*
X116523231Y-117572583D01*
X116510146Y-117578772D01*
X116496517Y-117583649D01*
X116482476Y-117587166D01*
X116468158Y-117589290D01*
X116453700Y-117590000D01*
X116108700Y-117590000D01*
X116094242Y-117589290D01*
X116079924Y-117587166D01*
X116065883Y-117583649D01*
X116052254Y-117578772D01*
X116039169Y-117572583D01*
X116026753Y-117565142D01*
X116015127Y-117556519D01*
X116004402Y-117546798D01*
X115994681Y-117536073D01*
X115986058Y-117524447D01*
X115978617Y-117512031D01*
X115972428Y-117498946D01*
X115967551Y-117485317D01*
X115964034Y-117471276D01*
X115961910Y-117456958D01*
X115961200Y-117442500D01*
X115961200Y-117147500D01*
X115961910Y-117133042D01*
X115964034Y-117118724D01*
X115967551Y-117104683D01*
X115972428Y-117091054D01*
X115978617Y-117077969D01*
X115986058Y-117065553D01*
X115994681Y-117053927D01*
X116004402Y-117043202D01*
X116015127Y-117033481D01*
X116026753Y-117024858D01*
X116039169Y-117017417D01*
X116052254Y-117011228D01*
X116065883Y-117006351D01*
X116079924Y-117002834D01*
X116094242Y-117000710D01*
X116108700Y-117000000D01*
X116453700Y-117000000D01*
X116468158Y-117000710D01*
X116468158Y-117000710D01*
G37*
D11*
G04 #@! TD*
G04 #@! TO.P,C32,1*
G04 #@! TO.N,/M2_PVDD*
X116281200Y-117295000D03*
D10*
G04 #@! TO.N,/M2_AGND*
G04 #@! TO.C,C32*
G36*
X116468158Y-117970710D02*
X116482476Y-117972834D01*
X116496517Y-117976351D01*
X116510146Y-117981228D01*
X116523231Y-117987417D01*
X116535647Y-117994858D01*
X116547273Y-118003481D01*
X116557998Y-118013202D01*
X116567719Y-118023927D01*
X116576342Y-118035553D01*
X116583783Y-118047969D01*
X116589972Y-118061054D01*
X116594849Y-118074683D01*
X116598366Y-118088724D01*
X116600490Y-118103042D01*
X116601200Y-118117500D01*
X116601200Y-118412500D01*
X116600490Y-118426958D01*
X116598366Y-118441276D01*
X116594849Y-118455317D01*
X116589972Y-118468946D01*
X116583783Y-118482031D01*
X116576342Y-118494447D01*
X116567719Y-118506073D01*
X116557998Y-118516798D01*
X116547273Y-118526519D01*
X116535647Y-118535142D01*
X116523231Y-118542583D01*
X116510146Y-118548772D01*
X116496517Y-118553649D01*
X116482476Y-118557166D01*
X116468158Y-118559290D01*
X116453700Y-118560000D01*
X116108700Y-118560000D01*
X116094242Y-118559290D01*
X116079924Y-118557166D01*
X116065883Y-118553649D01*
X116052254Y-118548772D01*
X116039169Y-118542583D01*
X116026753Y-118535142D01*
X116015127Y-118526519D01*
X116004402Y-118516798D01*
X115994681Y-118506073D01*
X115986058Y-118494447D01*
X115978617Y-118482031D01*
X115972428Y-118468946D01*
X115967551Y-118455317D01*
X115964034Y-118441276D01*
X115961910Y-118426958D01*
X115961200Y-118412500D01*
X115961200Y-118117500D01*
X115961910Y-118103042D01*
X115964034Y-118088724D01*
X115967551Y-118074683D01*
X115972428Y-118061054D01*
X115978617Y-118047969D01*
X115986058Y-118035553D01*
X115994681Y-118023927D01*
X116004402Y-118013202D01*
X116015127Y-118003481D01*
X116026753Y-117994858D01*
X116039169Y-117987417D01*
X116052254Y-117981228D01*
X116065883Y-117976351D01*
X116079924Y-117972834D01*
X116094242Y-117970710D01*
X116108700Y-117970000D01*
X116453700Y-117970000D01*
X116468158Y-117970710D01*
X116468158Y-117970710D01*
G37*
D11*
G04 #@! TD*
G04 #@! TO.P,C32,2*
G04 #@! TO.N,/M2_AGND*
X116281200Y-118265000D03*
D10*
G04 #@! TO.N,/M1_DGND*
G04 #@! TO.C,C9*
G36*
X184549134Y-117974710D02*
X184563452Y-117976834D01*
X184577493Y-117980351D01*
X184591122Y-117985228D01*
X184604207Y-117991417D01*
X184616623Y-117998858D01*
X184628249Y-118007481D01*
X184638974Y-118017202D01*
X184648695Y-118027927D01*
X184657318Y-118039553D01*
X184664759Y-118051969D01*
X184670948Y-118065054D01*
X184675825Y-118078683D01*
X184679342Y-118092724D01*
X184681466Y-118107042D01*
X184682176Y-118121500D01*
X184682176Y-118416500D01*
X184681466Y-118430958D01*
X184679342Y-118445276D01*
X184675825Y-118459317D01*
X184670948Y-118472946D01*
X184664759Y-118486031D01*
X184657318Y-118498447D01*
X184648695Y-118510073D01*
X184638974Y-118520798D01*
X184628249Y-118530519D01*
X184616623Y-118539142D01*
X184604207Y-118546583D01*
X184591122Y-118552772D01*
X184577493Y-118557649D01*
X184563452Y-118561166D01*
X184549134Y-118563290D01*
X184534676Y-118564000D01*
X184189676Y-118564000D01*
X184175218Y-118563290D01*
X184160900Y-118561166D01*
X184146859Y-118557649D01*
X184133230Y-118552772D01*
X184120145Y-118546583D01*
X184107729Y-118539142D01*
X184096103Y-118530519D01*
X184085378Y-118520798D01*
X184075657Y-118510073D01*
X184067034Y-118498447D01*
X184059593Y-118486031D01*
X184053404Y-118472946D01*
X184048527Y-118459317D01*
X184045010Y-118445276D01*
X184042886Y-118430958D01*
X184042176Y-118416500D01*
X184042176Y-118121500D01*
X184042886Y-118107042D01*
X184045010Y-118092724D01*
X184048527Y-118078683D01*
X184053404Y-118065054D01*
X184059593Y-118051969D01*
X184067034Y-118039553D01*
X184075657Y-118027927D01*
X184085378Y-118017202D01*
X184096103Y-118007481D01*
X184107729Y-117998858D01*
X184120145Y-117991417D01*
X184133230Y-117985228D01*
X184146859Y-117980351D01*
X184160900Y-117976834D01*
X184175218Y-117974710D01*
X184189676Y-117974000D01*
X184534676Y-117974000D01*
X184549134Y-117974710D01*
X184549134Y-117974710D01*
G37*
D11*
G04 #@! TD*
G04 #@! TO.P,C9,2*
G04 #@! TO.N,/M1_DGND*
X184362176Y-118269000D03*
D10*
G04 #@! TO.N,/M1_DVDD*
G04 #@! TO.C,C9*
G36*
X184549134Y-117004710D02*
X184563452Y-117006834D01*
X184577493Y-117010351D01*
X184591122Y-117015228D01*
X184604207Y-117021417D01*
X184616623Y-117028858D01*
X184628249Y-117037481D01*
X184638974Y-117047202D01*
X184648695Y-117057927D01*
X184657318Y-117069553D01*
X184664759Y-117081969D01*
X184670948Y-117095054D01*
X184675825Y-117108683D01*
X184679342Y-117122724D01*
X184681466Y-117137042D01*
X184682176Y-117151500D01*
X184682176Y-117446500D01*
X184681466Y-117460958D01*
X184679342Y-117475276D01*
X184675825Y-117489317D01*
X184670948Y-117502946D01*
X184664759Y-117516031D01*
X184657318Y-117528447D01*
X184648695Y-117540073D01*
X184638974Y-117550798D01*
X184628249Y-117560519D01*
X184616623Y-117569142D01*
X184604207Y-117576583D01*
X184591122Y-117582772D01*
X184577493Y-117587649D01*
X184563452Y-117591166D01*
X184549134Y-117593290D01*
X184534676Y-117594000D01*
X184189676Y-117594000D01*
X184175218Y-117593290D01*
X184160900Y-117591166D01*
X184146859Y-117587649D01*
X184133230Y-117582772D01*
X184120145Y-117576583D01*
X184107729Y-117569142D01*
X184096103Y-117560519D01*
X184085378Y-117550798D01*
X184075657Y-117540073D01*
X184067034Y-117528447D01*
X184059593Y-117516031D01*
X184053404Y-117502946D01*
X184048527Y-117489317D01*
X184045010Y-117475276D01*
X184042886Y-117460958D01*
X184042176Y-117446500D01*
X184042176Y-117151500D01*
X184042886Y-117137042D01*
X184045010Y-117122724D01*
X184048527Y-117108683D01*
X184053404Y-117095054D01*
X184059593Y-117081969D01*
X184067034Y-117069553D01*
X184075657Y-117057927D01*
X184085378Y-117047202D01*
X184096103Y-117037481D01*
X184107729Y-117028858D01*
X184120145Y-117021417D01*
X184133230Y-117015228D01*
X184146859Y-117010351D01*
X184160900Y-117006834D01*
X184175218Y-117004710D01*
X184189676Y-117004000D01*
X184534676Y-117004000D01*
X184549134Y-117004710D01*
X184549134Y-117004710D01*
G37*
D11*
G04 #@! TD*
G04 #@! TO.P,C9,1*
G04 #@! TO.N,/M1_DVDD*
X184362176Y-117299000D03*
D10*
G04 #@! TO.N,/M2_AVDD*
G04 #@! TO.C,C37*
G36*
X109336958Y-114830710D02*
X109351276Y-114832834D01*
X109365317Y-114836351D01*
X109378946Y-114841228D01*
X109392031Y-114847417D01*
X109404447Y-114854858D01*
X109416073Y-114863481D01*
X109426798Y-114873202D01*
X109436519Y-114883927D01*
X109445142Y-114895553D01*
X109452583Y-114907969D01*
X109458772Y-114921054D01*
X109463649Y-114934683D01*
X109467166Y-114948724D01*
X109469290Y-114963042D01*
X109470000Y-114977500D01*
X109470000Y-115272500D01*
X109469290Y-115286958D01*
X109467166Y-115301276D01*
X109463649Y-115315317D01*
X109458772Y-115328946D01*
X109452583Y-115342031D01*
X109445142Y-115354447D01*
X109436519Y-115366073D01*
X109426798Y-115376798D01*
X109416073Y-115386519D01*
X109404447Y-115395142D01*
X109392031Y-115402583D01*
X109378946Y-115408772D01*
X109365317Y-115413649D01*
X109351276Y-115417166D01*
X109336958Y-115419290D01*
X109322500Y-115420000D01*
X108977500Y-115420000D01*
X108963042Y-115419290D01*
X108948724Y-115417166D01*
X108934683Y-115413649D01*
X108921054Y-115408772D01*
X108907969Y-115402583D01*
X108895553Y-115395142D01*
X108883927Y-115386519D01*
X108873202Y-115376798D01*
X108863481Y-115366073D01*
X108854858Y-115354447D01*
X108847417Y-115342031D01*
X108841228Y-115328946D01*
X108836351Y-115315317D01*
X108832834Y-115301276D01*
X108830710Y-115286958D01*
X108830000Y-115272500D01*
X108830000Y-114977500D01*
X108830710Y-114963042D01*
X108832834Y-114948724D01*
X108836351Y-114934683D01*
X108841228Y-114921054D01*
X108847417Y-114907969D01*
X108854858Y-114895553D01*
X108863481Y-114883927D01*
X108873202Y-114873202D01*
X108883927Y-114863481D01*
X108895553Y-114854858D01*
X108907969Y-114847417D01*
X108921054Y-114841228D01*
X108934683Y-114836351D01*
X108948724Y-114832834D01*
X108963042Y-114830710D01*
X108977500Y-114830000D01*
X109322500Y-114830000D01*
X109336958Y-114830710D01*
X109336958Y-114830710D01*
G37*
D11*
G04 #@! TD*
G04 #@! TO.P,C37,1*
G04 #@! TO.N,/M2_AVDD*
X109150000Y-115125000D03*
D10*
G04 #@! TO.N,/M2_AGND*
G04 #@! TO.C,C37*
G36*
X109336958Y-113860710D02*
X109351276Y-113862834D01*
X109365317Y-113866351D01*
X109378946Y-113871228D01*
X109392031Y-113877417D01*
X109404447Y-113884858D01*
X109416073Y-113893481D01*
X109426798Y-113903202D01*
X109436519Y-113913927D01*
X109445142Y-113925553D01*
X109452583Y-113937969D01*
X109458772Y-113951054D01*
X109463649Y-113964683D01*
X109467166Y-113978724D01*
X109469290Y-113993042D01*
X109470000Y-114007500D01*
X109470000Y-114302500D01*
X109469290Y-114316958D01*
X109467166Y-114331276D01*
X109463649Y-114345317D01*
X109458772Y-114358946D01*
X109452583Y-114372031D01*
X109445142Y-114384447D01*
X109436519Y-114396073D01*
X109426798Y-114406798D01*
X109416073Y-114416519D01*
X109404447Y-114425142D01*
X109392031Y-114432583D01*
X109378946Y-114438772D01*
X109365317Y-114443649D01*
X109351276Y-114447166D01*
X109336958Y-114449290D01*
X109322500Y-114450000D01*
X108977500Y-114450000D01*
X108963042Y-114449290D01*
X108948724Y-114447166D01*
X108934683Y-114443649D01*
X108921054Y-114438772D01*
X108907969Y-114432583D01*
X108895553Y-114425142D01*
X108883927Y-114416519D01*
X108873202Y-114406798D01*
X108863481Y-114396073D01*
X108854858Y-114384447D01*
X108847417Y-114372031D01*
X108841228Y-114358946D01*
X108836351Y-114345317D01*
X108832834Y-114331276D01*
X108830710Y-114316958D01*
X108830000Y-114302500D01*
X108830000Y-114007500D01*
X108830710Y-113993042D01*
X108832834Y-113978724D01*
X108836351Y-113964683D01*
X108841228Y-113951054D01*
X108847417Y-113937969D01*
X108854858Y-113925553D01*
X108863481Y-113913927D01*
X108873202Y-113903202D01*
X108883927Y-113893481D01*
X108895553Y-113884858D01*
X108907969Y-113877417D01*
X108921054Y-113871228D01*
X108934683Y-113866351D01*
X108948724Y-113862834D01*
X108963042Y-113860710D01*
X108977500Y-113860000D01*
X109322500Y-113860000D01*
X109336958Y-113860710D01*
X109336958Y-113860710D01*
G37*
D11*
G04 #@! TD*
G04 #@! TO.P,C37,2*
G04 #@! TO.N,/M2_AGND*
X109150000Y-114155000D03*
D10*
G04 #@! TO.N,/M1_DGND*
G04 #@! TO.C,R8*
G36*
X174603108Y-106734710D02*
X174617426Y-106736834D01*
X174631467Y-106740351D01*
X174645096Y-106745228D01*
X174658181Y-106751417D01*
X174670597Y-106758858D01*
X174682223Y-106767481D01*
X174692948Y-106777202D01*
X174702669Y-106787927D01*
X174711292Y-106799553D01*
X174718733Y-106811969D01*
X174724922Y-106825054D01*
X174729799Y-106838683D01*
X174733316Y-106852724D01*
X174735440Y-106867042D01*
X174736150Y-106881500D01*
X174736150Y-107226500D01*
X174735440Y-107240958D01*
X174733316Y-107255276D01*
X174729799Y-107269317D01*
X174724922Y-107282946D01*
X174718733Y-107296031D01*
X174711292Y-107308447D01*
X174702669Y-107320073D01*
X174692948Y-107330798D01*
X174682223Y-107340519D01*
X174670597Y-107349142D01*
X174658181Y-107356583D01*
X174645096Y-107362772D01*
X174631467Y-107367649D01*
X174617426Y-107371166D01*
X174603108Y-107373290D01*
X174588650Y-107374000D01*
X174293650Y-107374000D01*
X174279192Y-107373290D01*
X174264874Y-107371166D01*
X174250833Y-107367649D01*
X174237204Y-107362772D01*
X174224119Y-107356583D01*
X174211703Y-107349142D01*
X174200077Y-107340519D01*
X174189352Y-107330798D01*
X174179631Y-107320073D01*
X174171008Y-107308447D01*
X174163567Y-107296031D01*
X174157378Y-107282946D01*
X174152501Y-107269317D01*
X174148984Y-107255276D01*
X174146860Y-107240958D01*
X174146150Y-107226500D01*
X174146150Y-106881500D01*
X174146860Y-106867042D01*
X174148984Y-106852724D01*
X174152501Y-106838683D01*
X174157378Y-106825054D01*
X174163567Y-106811969D01*
X174171008Y-106799553D01*
X174179631Y-106787927D01*
X174189352Y-106777202D01*
X174200077Y-106767481D01*
X174211703Y-106758858D01*
X174224119Y-106751417D01*
X174237204Y-106745228D01*
X174250833Y-106740351D01*
X174264874Y-106736834D01*
X174279192Y-106734710D01*
X174293650Y-106734000D01*
X174588650Y-106734000D01*
X174603108Y-106734710D01*
X174603108Y-106734710D01*
G37*
D11*
G04 #@! TD*
G04 #@! TO.P,R8,2*
G04 #@! TO.N,/M1_DGND*
X174441150Y-107054000D03*
D10*
G04 #@! TO.N,/M1_SID*
G04 #@! TO.C,R8*
G36*
X173633108Y-106734710D02*
X173647426Y-106736834D01*
X173661467Y-106740351D01*
X173675096Y-106745228D01*
X173688181Y-106751417D01*
X173700597Y-106758858D01*
X173712223Y-106767481D01*
X173722948Y-106777202D01*
X173732669Y-106787927D01*
X173741292Y-106799553D01*
X173748733Y-106811969D01*
X173754922Y-106825054D01*
X173759799Y-106838683D01*
X173763316Y-106852724D01*
X173765440Y-106867042D01*
X173766150Y-106881500D01*
X173766150Y-107226500D01*
X173765440Y-107240958D01*
X173763316Y-107255276D01*
X173759799Y-107269317D01*
X173754922Y-107282946D01*
X173748733Y-107296031D01*
X173741292Y-107308447D01*
X173732669Y-107320073D01*
X173722948Y-107330798D01*
X173712223Y-107340519D01*
X173700597Y-107349142D01*
X173688181Y-107356583D01*
X173675096Y-107362772D01*
X173661467Y-107367649D01*
X173647426Y-107371166D01*
X173633108Y-107373290D01*
X173618650Y-107374000D01*
X173323650Y-107374000D01*
X173309192Y-107373290D01*
X173294874Y-107371166D01*
X173280833Y-107367649D01*
X173267204Y-107362772D01*
X173254119Y-107356583D01*
X173241703Y-107349142D01*
X173230077Y-107340519D01*
X173219352Y-107330798D01*
X173209631Y-107320073D01*
X173201008Y-107308447D01*
X173193567Y-107296031D01*
X173187378Y-107282946D01*
X173182501Y-107269317D01*
X173178984Y-107255276D01*
X173176860Y-107240958D01*
X173176150Y-107226500D01*
X173176150Y-106881500D01*
X173176860Y-106867042D01*
X173178984Y-106852724D01*
X173182501Y-106838683D01*
X173187378Y-106825054D01*
X173193567Y-106811969D01*
X173201008Y-106799553D01*
X173209631Y-106787927D01*
X173219352Y-106777202D01*
X173230077Y-106767481D01*
X173241703Y-106758858D01*
X173254119Y-106751417D01*
X173267204Y-106745228D01*
X173280833Y-106740351D01*
X173294874Y-106736834D01*
X173309192Y-106734710D01*
X173323650Y-106734000D01*
X173618650Y-106734000D01*
X173633108Y-106734710D01*
X173633108Y-106734710D01*
G37*
D11*
G04 #@! TD*
G04 #@! TO.P,R8,1*
G04 #@! TO.N,/M1_SID*
X173471150Y-107054000D03*
D10*
G04 #@! TO.N,/M2_SID*
G04 #@! TO.C,R17*
G36*
X103788958Y-106962710D02*
X103803276Y-106964834D01*
X103817317Y-106968351D01*
X103830946Y-106973228D01*
X103844031Y-106979417D01*
X103856447Y-106986858D01*
X103868073Y-106995481D01*
X103878798Y-107005202D01*
X103888519Y-107015927D01*
X103897142Y-107027553D01*
X103904583Y-107039969D01*
X103910772Y-107053054D01*
X103915649Y-107066683D01*
X103919166Y-107080724D01*
X103921290Y-107095042D01*
X103922000Y-107109500D01*
X103922000Y-107454500D01*
X103921290Y-107468958D01*
X103919166Y-107483276D01*
X103915649Y-107497317D01*
X103910772Y-107510946D01*
X103904583Y-107524031D01*
X103897142Y-107536447D01*
X103888519Y-107548073D01*
X103878798Y-107558798D01*
X103868073Y-107568519D01*
X103856447Y-107577142D01*
X103844031Y-107584583D01*
X103830946Y-107590772D01*
X103817317Y-107595649D01*
X103803276Y-107599166D01*
X103788958Y-107601290D01*
X103774500Y-107602000D01*
X103479500Y-107602000D01*
X103465042Y-107601290D01*
X103450724Y-107599166D01*
X103436683Y-107595649D01*
X103423054Y-107590772D01*
X103409969Y-107584583D01*
X103397553Y-107577142D01*
X103385927Y-107568519D01*
X103375202Y-107558798D01*
X103365481Y-107548073D01*
X103356858Y-107536447D01*
X103349417Y-107524031D01*
X103343228Y-107510946D01*
X103338351Y-107497317D01*
X103334834Y-107483276D01*
X103332710Y-107468958D01*
X103332000Y-107454500D01*
X103332000Y-107109500D01*
X103332710Y-107095042D01*
X103334834Y-107080724D01*
X103338351Y-107066683D01*
X103343228Y-107053054D01*
X103349417Y-107039969D01*
X103356858Y-107027553D01*
X103365481Y-107015927D01*
X103375202Y-107005202D01*
X103385927Y-106995481D01*
X103397553Y-106986858D01*
X103409969Y-106979417D01*
X103423054Y-106973228D01*
X103436683Y-106968351D01*
X103450724Y-106964834D01*
X103465042Y-106962710D01*
X103479500Y-106962000D01*
X103774500Y-106962000D01*
X103788958Y-106962710D01*
X103788958Y-106962710D01*
G37*
D11*
G04 #@! TD*
G04 #@! TO.P,R17,1*
G04 #@! TO.N,/M2_SID*
X103627000Y-107282000D03*
D10*
G04 #@! TO.N,/M2_DGND*
G04 #@! TO.C,R17*
G36*
X104758958Y-106962710D02*
X104773276Y-106964834D01*
X104787317Y-106968351D01*
X104800946Y-106973228D01*
X104814031Y-106979417D01*
X104826447Y-106986858D01*
X104838073Y-106995481D01*
X104848798Y-107005202D01*
X104858519Y-107015927D01*
X104867142Y-107027553D01*
X104874583Y-107039969D01*
X104880772Y-107053054D01*
X104885649Y-107066683D01*
X104889166Y-107080724D01*
X104891290Y-107095042D01*
X104892000Y-107109500D01*
X104892000Y-107454500D01*
X104891290Y-107468958D01*
X104889166Y-107483276D01*
X104885649Y-107497317D01*
X104880772Y-107510946D01*
X104874583Y-107524031D01*
X104867142Y-107536447D01*
X104858519Y-107548073D01*
X104848798Y-107558798D01*
X104838073Y-107568519D01*
X104826447Y-107577142D01*
X104814031Y-107584583D01*
X104800946Y-107590772D01*
X104787317Y-107595649D01*
X104773276Y-107599166D01*
X104758958Y-107601290D01*
X104744500Y-107602000D01*
X104449500Y-107602000D01*
X104435042Y-107601290D01*
X104420724Y-107599166D01*
X104406683Y-107595649D01*
X104393054Y-107590772D01*
X104379969Y-107584583D01*
X104367553Y-107577142D01*
X104355927Y-107568519D01*
X104345202Y-107558798D01*
X104335481Y-107548073D01*
X104326858Y-107536447D01*
X104319417Y-107524031D01*
X104313228Y-107510946D01*
X104308351Y-107497317D01*
X104304834Y-107483276D01*
X104302710Y-107468958D01*
X104302000Y-107454500D01*
X104302000Y-107109500D01*
X104302710Y-107095042D01*
X104304834Y-107080724D01*
X104308351Y-107066683D01*
X104313228Y-107053054D01*
X104319417Y-107039969D01*
X104326858Y-107027553D01*
X104335481Y-107015927D01*
X104345202Y-107005202D01*
X104355927Y-106995481D01*
X104367553Y-106986858D01*
X104379969Y-106979417D01*
X104393054Y-106973228D01*
X104406683Y-106968351D01*
X104420724Y-106964834D01*
X104435042Y-106962710D01*
X104449500Y-106962000D01*
X104744500Y-106962000D01*
X104758958Y-106962710D01*
X104758958Y-106962710D01*
G37*
D11*
G04 #@! TD*
G04 #@! TO.P,R17,2*
G04 #@! TO.N,/M2_DGND*
X104597000Y-107282000D03*
D10*
G04 #@! TO.N,/M2_SID*
G04 #@! TO.C,R16*
G36*
X103798958Y-108712710D02*
X103813276Y-108714834D01*
X103827317Y-108718351D01*
X103840946Y-108723228D01*
X103854031Y-108729417D01*
X103866447Y-108736858D01*
X103878073Y-108745481D01*
X103888798Y-108755202D01*
X103898519Y-108765927D01*
X103907142Y-108777553D01*
X103914583Y-108789969D01*
X103920772Y-108803054D01*
X103925649Y-108816683D01*
X103929166Y-108830724D01*
X103931290Y-108845042D01*
X103932000Y-108859500D01*
X103932000Y-109204500D01*
X103931290Y-109218958D01*
X103929166Y-109233276D01*
X103925649Y-109247317D01*
X103920772Y-109260946D01*
X103914583Y-109274031D01*
X103907142Y-109286447D01*
X103898519Y-109298073D01*
X103888798Y-109308798D01*
X103878073Y-109318519D01*
X103866447Y-109327142D01*
X103854031Y-109334583D01*
X103840946Y-109340772D01*
X103827317Y-109345649D01*
X103813276Y-109349166D01*
X103798958Y-109351290D01*
X103784500Y-109352000D01*
X103489500Y-109352000D01*
X103475042Y-109351290D01*
X103460724Y-109349166D01*
X103446683Y-109345649D01*
X103433054Y-109340772D01*
X103419969Y-109334583D01*
X103407553Y-109327142D01*
X103395927Y-109318519D01*
X103385202Y-109308798D01*
X103375481Y-109298073D01*
X103366858Y-109286447D01*
X103359417Y-109274031D01*
X103353228Y-109260946D01*
X103348351Y-109247317D01*
X103344834Y-109233276D01*
X103342710Y-109218958D01*
X103342000Y-109204500D01*
X103342000Y-108859500D01*
X103342710Y-108845042D01*
X103344834Y-108830724D01*
X103348351Y-108816683D01*
X103353228Y-108803054D01*
X103359417Y-108789969D01*
X103366858Y-108777553D01*
X103375481Y-108765927D01*
X103385202Y-108755202D01*
X103395927Y-108745481D01*
X103407553Y-108736858D01*
X103419969Y-108729417D01*
X103433054Y-108723228D01*
X103446683Y-108718351D01*
X103460724Y-108714834D01*
X103475042Y-108712710D01*
X103489500Y-108712000D01*
X103784500Y-108712000D01*
X103798958Y-108712710D01*
X103798958Y-108712710D01*
G37*
D11*
G04 #@! TD*
G04 #@! TO.P,R16,2*
G04 #@! TO.N,/M2_SID*
X103637000Y-109032000D03*
D10*
G04 #@! TO.N,/M2_DOVDD*
G04 #@! TO.C,R16*
G36*
X104768958Y-108712710D02*
X104783276Y-108714834D01*
X104797317Y-108718351D01*
X104810946Y-108723228D01*
X104824031Y-108729417D01*
X104836447Y-108736858D01*
X104848073Y-108745481D01*
X104858798Y-108755202D01*
X104868519Y-108765927D01*
X104877142Y-108777553D01*
X104884583Y-108789969D01*
X104890772Y-108803054D01*
X104895649Y-108816683D01*
X104899166Y-108830724D01*
X104901290Y-108845042D01*
X104902000Y-108859500D01*
X104902000Y-109204500D01*
X104901290Y-109218958D01*
X104899166Y-109233276D01*
X104895649Y-109247317D01*
X104890772Y-109260946D01*
X104884583Y-109274031D01*
X104877142Y-109286447D01*
X104868519Y-109298073D01*
X104858798Y-109308798D01*
X104848073Y-109318519D01*
X104836447Y-109327142D01*
X104824031Y-109334583D01*
X104810946Y-109340772D01*
X104797317Y-109345649D01*
X104783276Y-109349166D01*
X104768958Y-109351290D01*
X104754500Y-109352000D01*
X104459500Y-109352000D01*
X104445042Y-109351290D01*
X104430724Y-109349166D01*
X104416683Y-109345649D01*
X104403054Y-109340772D01*
X104389969Y-109334583D01*
X104377553Y-109327142D01*
X104365927Y-109318519D01*
X104355202Y-109308798D01*
X104345481Y-109298073D01*
X104336858Y-109286447D01*
X104329417Y-109274031D01*
X104323228Y-109260946D01*
X104318351Y-109247317D01*
X104314834Y-109233276D01*
X104312710Y-109218958D01*
X104312000Y-109204500D01*
X104312000Y-108859500D01*
X104312710Y-108845042D01*
X104314834Y-108830724D01*
X104318351Y-108816683D01*
X104323228Y-108803054D01*
X104329417Y-108789969D01*
X104336858Y-108777553D01*
X104345481Y-108765927D01*
X104355202Y-108755202D01*
X104365927Y-108745481D01*
X104377553Y-108736858D01*
X104389969Y-108729417D01*
X104403054Y-108723228D01*
X104416683Y-108718351D01*
X104430724Y-108714834D01*
X104445042Y-108712710D01*
X104459500Y-108712000D01*
X104754500Y-108712000D01*
X104768958Y-108712710D01*
X104768958Y-108712710D01*
G37*
D11*
G04 #@! TD*
G04 #@! TO.P,R16,1*
G04 #@! TO.N,/M2_DOVDD*
X104607000Y-109032000D03*
D10*
G04 #@! TO.N,/M2_AGND*
G04 #@! TO.C,R15*
G36*
X112200958Y-117000710D02*
X112215276Y-117002834D01*
X112229317Y-117006351D01*
X112242946Y-117011228D01*
X112256031Y-117017417D01*
X112268447Y-117024858D01*
X112280073Y-117033481D01*
X112290798Y-117043202D01*
X112300519Y-117053927D01*
X112309142Y-117065553D01*
X112316583Y-117077969D01*
X112322772Y-117091054D01*
X112327649Y-117104683D01*
X112331166Y-117118724D01*
X112333290Y-117133042D01*
X112334000Y-117147500D01*
X112334000Y-117442500D01*
X112333290Y-117456958D01*
X112331166Y-117471276D01*
X112327649Y-117485317D01*
X112322772Y-117498946D01*
X112316583Y-117512031D01*
X112309142Y-117524447D01*
X112300519Y-117536073D01*
X112290798Y-117546798D01*
X112280073Y-117556519D01*
X112268447Y-117565142D01*
X112256031Y-117572583D01*
X112242946Y-117578772D01*
X112229317Y-117583649D01*
X112215276Y-117587166D01*
X112200958Y-117589290D01*
X112186500Y-117590000D01*
X111841500Y-117590000D01*
X111827042Y-117589290D01*
X111812724Y-117587166D01*
X111798683Y-117583649D01*
X111785054Y-117578772D01*
X111771969Y-117572583D01*
X111759553Y-117565142D01*
X111747927Y-117556519D01*
X111737202Y-117546798D01*
X111727481Y-117536073D01*
X111718858Y-117524447D01*
X111711417Y-117512031D01*
X111705228Y-117498946D01*
X111700351Y-117485317D01*
X111696834Y-117471276D01*
X111694710Y-117456958D01*
X111694000Y-117442500D01*
X111694000Y-117147500D01*
X111694710Y-117133042D01*
X111696834Y-117118724D01*
X111700351Y-117104683D01*
X111705228Y-117091054D01*
X111711417Y-117077969D01*
X111718858Y-117065553D01*
X111727481Y-117053927D01*
X111737202Y-117043202D01*
X111747927Y-117033481D01*
X111759553Y-117024858D01*
X111771969Y-117017417D01*
X111785054Y-117011228D01*
X111798683Y-117006351D01*
X111812724Y-117002834D01*
X111827042Y-117000710D01*
X111841500Y-117000000D01*
X112186500Y-117000000D01*
X112200958Y-117000710D01*
X112200958Y-117000710D01*
G37*
D11*
G04 #@! TD*
G04 #@! TO.P,R15,1*
G04 #@! TO.N,/M2_AGND*
X112014000Y-117295000D03*
D10*
G04 #@! TO.N,GND*
G04 #@! TO.C,R15*
G36*
X112200958Y-117970710D02*
X112215276Y-117972834D01*
X112229317Y-117976351D01*
X112242946Y-117981228D01*
X112256031Y-117987417D01*
X112268447Y-117994858D01*
X112280073Y-118003481D01*
X112290798Y-118013202D01*
X112300519Y-118023927D01*
X112309142Y-118035553D01*
X112316583Y-118047969D01*
X112322772Y-118061054D01*
X112327649Y-118074683D01*
X112331166Y-118088724D01*
X112333290Y-118103042D01*
X112334000Y-118117500D01*
X112334000Y-118412500D01*
X112333290Y-118426958D01*
X112331166Y-118441276D01*
X112327649Y-118455317D01*
X112322772Y-118468946D01*
X112316583Y-118482031D01*
X112309142Y-118494447D01*
X112300519Y-118506073D01*
X112290798Y-118516798D01*
X112280073Y-118526519D01*
X112268447Y-118535142D01*
X112256031Y-118542583D01*
X112242946Y-118548772D01*
X112229317Y-118553649D01*
X112215276Y-118557166D01*
X112200958Y-118559290D01*
X112186500Y-118560000D01*
X111841500Y-118560000D01*
X111827042Y-118559290D01*
X111812724Y-118557166D01*
X111798683Y-118553649D01*
X111785054Y-118548772D01*
X111771969Y-118542583D01*
X111759553Y-118535142D01*
X111747927Y-118526519D01*
X111737202Y-118516798D01*
X111727481Y-118506073D01*
X111718858Y-118494447D01*
X111711417Y-118482031D01*
X111705228Y-118468946D01*
X111700351Y-118455317D01*
X111696834Y-118441276D01*
X111694710Y-118426958D01*
X111694000Y-118412500D01*
X111694000Y-118117500D01*
X111694710Y-118103042D01*
X111696834Y-118088724D01*
X111700351Y-118074683D01*
X111705228Y-118061054D01*
X111711417Y-118047969D01*
X111718858Y-118035553D01*
X111727481Y-118023927D01*
X111737202Y-118013202D01*
X111747927Y-118003481D01*
X111759553Y-117994858D01*
X111771969Y-117987417D01*
X111785054Y-117981228D01*
X111798683Y-117976351D01*
X111812724Y-117972834D01*
X111827042Y-117970710D01*
X111841500Y-117970000D01*
X112186500Y-117970000D01*
X112200958Y-117970710D01*
X112200958Y-117970710D01*
G37*
D11*
G04 #@! TD*
G04 #@! TO.P,R15,2*
G04 #@! TO.N,GND*
X112014000Y-118265000D03*
D10*
G04 #@! TO.N,/M2_PVDD*
G04 #@! TO.C,R13*
G36*
X119312958Y-117970710D02*
X119327276Y-117972834D01*
X119341317Y-117976351D01*
X119354946Y-117981228D01*
X119368031Y-117987417D01*
X119380447Y-117994858D01*
X119392073Y-118003481D01*
X119402798Y-118013202D01*
X119412519Y-118023927D01*
X119421142Y-118035553D01*
X119428583Y-118047969D01*
X119434772Y-118061054D01*
X119439649Y-118074683D01*
X119443166Y-118088724D01*
X119445290Y-118103042D01*
X119446000Y-118117500D01*
X119446000Y-118412500D01*
X119445290Y-118426958D01*
X119443166Y-118441276D01*
X119439649Y-118455317D01*
X119434772Y-118468946D01*
X119428583Y-118482031D01*
X119421142Y-118494447D01*
X119412519Y-118506073D01*
X119402798Y-118516798D01*
X119392073Y-118526519D01*
X119380447Y-118535142D01*
X119368031Y-118542583D01*
X119354946Y-118548772D01*
X119341317Y-118553649D01*
X119327276Y-118557166D01*
X119312958Y-118559290D01*
X119298500Y-118560000D01*
X118953500Y-118560000D01*
X118939042Y-118559290D01*
X118924724Y-118557166D01*
X118910683Y-118553649D01*
X118897054Y-118548772D01*
X118883969Y-118542583D01*
X118871553Y-118535142D01*
X118859927Y-118526519D01*
X118849202Y-118516798D01*
X118839481Y-118506073D01*
X118830858Y-118494447D01*
X118823417Y-118482031D01*
X118817228Y-118468946D01*
X118812351Y-118455317D01*
X118808834Y-118441276D01*
X118806710Y-118426958D01*
X118806000Y-118412500D01*
X118806000Y-118117500D01*
X118806710Y-118103042D01*
X118808834Y-118088724D01*
X118812351Y-118074683D01*
X118817228Y-118061054D01*
X118823417Y-118047969D01*
X118830858Y-118035553D01*
X118839481Y-118023927D01*
X118849202Y-118013202D01*
X118859927Y-118003481D01*
X118871553Y-117994858D01*
X118883969Y-117987417D01*
X118897054Y-117981228D01*
X118910683Y-117976351D01*
X118924724Y-117972834D01*
X118939042Y-117970710D01*
X118953500Y-117970000D01*
X119298500Y-117970000D01*
X119312958Y-117970710D01*
X119312958Y-117970710D01*
G37*
D11*
G04 #@! TD*
G04 #@! TO.P,R13,1*
G04 #@! TO.N,/M2_PVDD*
X119126000Y-118265000D03*
D10*
G04 #@! TO.N,/M2_AVDD*
G04 #@! TO.C,R13*
G36*
X119312958Y-117000710D02*
X119327276Y-117002834D01*
X119341317Y-117006351D01*
X119354946Y-117011228D01*
X119368031Y-117017417D01*
X119380447Y-117024858D01*
X119392073Y-117033481D01*
X119402798Y-117043202D01*
X119412519Y-117053927D01*
X119421142Y-117065553D01*
X119428583Y-117077969D01*
X119434772Y-117091054D01*
X119439649Y-117104683D01*
X119443166Y-117118724D01*
X119445290Y-117133042D01*
X119446000Y-117147500D01*
X119446000Y-117442500D01*
X119445290Y-117456958D01*
X119443166Y-117471276D01*
X119439649Y-117485317D01*
X119434772Y-117498946D01*
X119428583Y-117512031D01*
X119421142Y-117524447D01*
X119412519Y-117536073D01*
X119402798Y-117546798D01*
X119392073Y-117556519D01*
X119380447Y-117565142D01*
X119368031Y-117572583D01*
X119354946Y-117578772D01*
X119341317Y-117583649D01*
X119327276Y-117587166D01*
X119312958Y-117589290D01*
X119298500Y-117590000D01*
X118953500Y-117590000D01*
X118939042Y-117589290D01*
X118924724Y-117587166D01*
X118910683Y-117583649D01*
X118897054Y-117578772D01*
X118883969Y-117572583D01*
X118871553Y-117565142D01*
X118859927Y-117556519D01*
X118849202Y-117546798D01*
X118839481Y-117536073D01*
X118830858Y-117524447D01*
X118823417Y-117512031D01*
X118817228Y-117498946D01*
X118812351Y-117485317D01*
X118808834Y-117471276D01*
X118806710Y-117456958D01*
X118806000Y-117442500D01*
X118806000Y-117147500D01*
X118806710Y-117133042D01*
X118808834Y-117118724D01*
X118812351Y-117104683D01*
X118817228Y-117091054D01*
X118823417Y-117077969D01*
X118830858Y-117065553D01*
X118839481Y-117053927D01*
X118849202Y-117043202D01*
X118859927Y-117033481D01*
X118871553Y-117024858D01*
X118883969Y-117017417D01*
X118897054Y-117011228D01*
X118910683Y-117006351D01*
X118924724Y-117002834D01*
X118939042Y-117000710D01*
X118953500Y-117000000D01*
X119298500Y-117000000D01*
X119312958Y-117000710D01*
X119312958Y-117000710D01*
G37*
D11*
G04 #@! TD*
G04 #@! TO.P,R13,2*
G04 #@! TO.N,/M2_AVDD*
X119126000Y-117295000D03*
D10*
G04 #@! TO.N,GND*
G04 #@! TO.C,R18*
G36*
X181542958Y-104838710D02*
X181557276Y-104840834D01*
X181571317Y-104844351D01*
X181584946Y-104849228D01*
X181598031Y-104855417D01*
X181610447Y-104862858D01*
X181622073Y-104871481D01*
X181632798Y-104881202D01*
X181642519Y-104891927D01*
X181651142Y-104903553D01*
X181658583Y-104915969D01*
X181664772Y-104929054D01*
X181669649Y-104942683D01*
X181673166Y-104956724D01*
X181675290Y-104971042D01*
X181676000Y-104985500D01*
X181676000Y-105280500D01*
X181675290Y-105294958D01*
X181673166Y-105309276D01*
X181669649Y-105323317D01*
X181664772Y-105336946D01*
X181658583Y-105350031D01*
X181651142Y-105362447D01*
X181642519Y-105374073D01*
X181632798Y-105384798D01*
X181622073Y-105394519D01*
X181610447Y-105403142D01*
X181598031Y-105410583D01*
X181584946Y-105416772D01*
X181571317Y-105421649D01*
X181557276Y-105425166D01*
X181542958Y-105427290D01*
X181528500Y-105428000D01*
X181183500Y-105428000D01*
X181169042Y-105427290D01*
X181154724Y-105425166D01*
X181140683Y-105421649D01*
X181127054Y-105416772D01*
X181113969Y-105410583D01*
X181101553Y-105403142D01*
X181089927Y-105394519D01*
X181079202Y-105384798D01*
X181069481Y-105374073D01*
X181060858Y-105362447D01*
X181053417Y-105350031D01*
X181047228Y-105336946D01*
X181042351Y-105323317D01*
X181038834Y-105309276D01*
X181036710Y-105294958D01*
X181036000Y-105280500D01*
X181036000Y-104985500D01*
X181036710Y-104971042D01*
X181038834Y-104956724D01*
X181042351Y-104942683D01*
X181047228Y-104929054D01*
X181053417Y-104915969D01*
X181060858Y-104903553D01*
X181069481Y-104891927D01*
X181079202Y-104881202D01*
X181089927Y-104871481D01*
X181101553Y-104862858D01*
X181113969Y-104855417D01*
X181127054Y-104849228D01*
X181140683Y-104844351D01*
X181154724Y-104840834D01*
X181169042Y-104838710D01*
X181183500Y-104838000D01*
X181528500Y-104838000D01*
X181542958Y-104838710D01*
X181542958Y-104838710D01*
G37*
D11*
G04 #@! TD*
G04 #@! TO.P,R18,2*
G04 #@! TO.N,GND*
X181356000Y-105133000D03*
D10*
G04 #@! TO.N,/CAM_RST_1V8*
G04 #@! TO.C,R18*
G36*
X181542958Y-103868710D02*
X181557276Y-103870834D01*
X181571317Y-103874351D01*
X181584946Y-103879228D01*
X181598031Y-103885417D01*
X181610447Y-103892858D01*
X181622073Y-103901481D01*
X181632798Y-103911202D01*
X181642519Y-103921927D01*
X181651142Y-103933553D01*
X181658583Y-103945969D01*
X181664772Y-103959054D01*
X181669649Y-103972683D01*
X181673166Y-103986724D01*
X181675290Y-104001042D01*
X181676000Y-104015500D01*
X181676000Y-104310500D01*
X181675290Y-104324958D01*
X181673166Y-104339276D01*
X181669649Y-104353317D01*
X181664772Y-104366946D01*
X181658583Y-104380031D01*
X181651142Y-104392447D01*
X181642519Y-104404073D01*
X181632798Y-104414798D01*
X181622073Y-104424519D01*
X181610447Y-104433142D01*
X181598031Y-104440583D01*
X181584946Y-104446772D01*
X181571317Y-104451649D01*
X181557276Y-104455166D01*
X181542958Y-104457290D01*
X181528500Y-104458000D01*
X181183500Y-104458000D01*
X181169042Y-104457290D01*
X181154724Y-104455166D01*
X181140683Y-104451649D01*
X181127054Y-104446772D01*
X181113969Y-104440583D01*
X181101553Y-104433142D01*
X181089927Y-104424519D01*
X181079202Y-104414798D01*
X181069481Y-104404073D01*
X181060858Y-104392447D01*
X181053417Y-104380031D01*
X181047228Y-104366946D01*
X181042351Y-104353317D01*
X181038834Y-104339276D01*
X181036710Y-104324958D01*
X181036000Y-104310500D01*
X181036000Y-104015500D01*
X181036710Y-104001042D01*
X181038834Y-103986724D01*
X181042351Y-103972683D01*
X181047228Y-103959054D01*
X181053417Y-103945969D01*
X181060858Y-103933553D01*
X181069481Y-103921927D01*
X181079202Y-103911202D01*
X181089927Y-103901481D01*
X181101553Y-103892858D01*
X181113969Y-103885417D01*
X181127054Y-103879228D01*
X181140683Y-103874351D01*
X181154724Y-103870834D01*
X181169042Y-103868710D01*
X181183500Y-103868000D01*
X181528500Y-103868000D01*
X181542958Y-103868710D01*
X181542958Y-103868710D01*
G37*
D11*
G04 #@! TD*
G04 #@! TO.P,R18,1*
G04 #@! TO.N,/CAM_RST_1V8*
X181356000Y-104163000D03*
D10*
G04 #@! TO.N,/M1_AGND*
G04 #@! TO.C,R11*
G36*
X181642586Y-117004710D02*
X181656904Y-117006834D01*
X181670945Y-117010351D01*
X181684574Y-117015228D01*
X181697659Y-117021417D01*
X181710075Y-117028858D01*
X181721701Y-117037481D01*
X181732426Y-117047202D01*
X181742147Y-117057927D01*
X181750770Y-117069553D01*
X181758211Y-117081969D01*
X181764400Y-117095054D01*
X181769277Y-117108683D01*
X181772794Y-117122724D01*
X181774918Y-117137042D01*
X181775628Y-117151500D01*
X181775628Y-117446500D01*
X181774918Y-117460958D01*
X181772794Y-117475276D01*
X181769277Y-117489317D01*
X181764400Y-117502946D01*
X181758211Y-117516031D01*
X181750770Y-117528447D01*
X181742147Y-117540073D01*
X181732426Y-117550798D01*
X181721701Y-117560519D01*
X181710075Y-117569142D01*
X181697659Y-117576583D01*
X181684574Y-117582772D01*
X181670945Y-117587649D01*
X181656904Y-117591166D01*
X181642586Y-117593290D01*
X181628128Y-117594000D01*
X181283128Y-117594000D01*
X181268670Y-117593290D01*
X181254352Y-117591166D01*
X181240311Y-117587649D01*
X181226682Y-117582772D01*
X181213597Y-117576583D01*
X181201181Y-117569142D01*
X181189555Y-117560519D01*
X181178830Y-117550798D01*
X181169109Y-117540073D01*
X181160486Y-117528447D01*
X181153045Y-117516031D01*
X181146856Y-117502946D01*
X181141979Y-117489317D01*
X181138462Y-117475276D01*
X181136338Y-117460958D01*
X181135628Y-117446500D01*
X181135628Y-117151500D01*
X181136338Y-117137042D01*
X181138462Y-117122724D01*
X181141979Y-117108683D01*
X181146856Y-117095054D01*
X181153045Y-117081969D01*
X181160486Y-117069553D01*
X181169109Y-117057927D01*
X181178830Y-117047202D01*
X181189555Y-117037481D01*
X181201181Y-117028858D01*
X181213597Y-117021417D01*
X181226682Y-117015228D01*
X181240311Y-117010351D01*
X181254352Y-117006834D01*
X181268670Y-117004710D01*
X181283128Y-117004000D01*
X181628128Y-117004000D01*
X181642586Y-117004710D01*
X181642586Y-117004710D01*
G37*
D11*
G04 #@! TD*
G04 #@! TO.P,R11,1*
G04 #@! TO.N,/M1_AGND*
X181455628Y-117299000D03*
D10*
G04 #@! TO.N,GND*
G04 #@! TO.C,R11*
G36*
X181642586Y-117974710D02*
X181656904Y-117976834D01*
X181670945Y-117980351D01*
X181684574Y-117985228D01*
X181697659Y-117991417D01*
X181710075Y-117998858D01*
X181721701Y-118007481D01*
X181732426Y-118017202D01*
X181742147Y-118027927D01*
X181750770Y-118039553D01*
X181758211Y-118051969D01*
X181764400Y-118065054D01*
X181769277Y-118078683D01*
X181772794Y-118092724D01*
X181774918Y-118107042D01*
X181775628Y-118121500D01*
X181775628Y-118416500D01*
X181774918Y-118430958D01*
X181772794Y-118445276D01*
X181769277Y-118459317D01*
X181764400Y-118472946D01*
X181758211Y-118486031D01*
X181750770Y-118498447D01*
X181742147Y-118510073D01*
X181732426Y-118520798D01*
X181721701Y-118530519D01*
X181710075Y-118539142D01*
X181697659Y-118546583D01*
X181684574Y-118552772D01*
X181670945Y-118557649D01*
X181656904Y-118561166D01*
X181642586Y-118563290D01*
X181628128Y-118564000D01*
X181283128Y-118564000D01*
X181268670Y-118563290D01*
X181254352Y-118561166D01*
X181240311Y-118557649D01*
X181226682Y-118552772D01*
X181213597Y-118546583D01*
X181201181Y-118539142D01*
X181189555Y-118530519D01*
X181178830Y-118520798D01*
X181169109Y-118510073D01*
X181160486Y-118498447D01*
X181153045Y-118486031D01*
X181146856Y-118472946D01*
X181141979Y-118459317D01*
X181138462Y-118445276D01*
X181136338Y-118430958D01*
X181135628Y-118416500D01*
X181135628Y-118121500D01*
X181136338Y-118107042D01*
X181138462Y-118092724D01*
X181141979Y-118078683D01*
X181146856Y-118065054D01*
X181153045Y-118051969D01*
X181160486Y-118039553D01*
X181169109Y-118027927D01*
X181178830Y-118017202D01*
X181189555Y-118007481D01*
X181201181Y-117998858D01*
X181213597Y-117991417D01*
X181226682Y-117985228D01*
X181240311Y-117980351D01*
X181254352Y-117976834D01*
X181268670Y-117974710D01*
X181283128Y-117974000D01*
X181628128Y-117974000D01*
X181642586Y-117974710D01*
X181642586Y-117974710D01*
G37*
D11*
G04 #@! TD*
G04 #@! TO.P,R11,2*
G04 #@! TO.N,GND*
X181455628Y-118269000D03*
D10*
G04 #@! TO.N,/M1_AGND*
G04 #@! TO.C,R10*
G36*
X183095860Y-117004710D02*
X183110178Y-117006834D01*
X183124219Y-117010351D01*
X183137848Y-117015228D01*
X183150933Y-117021417D01*
X183163349Y-117028858D01*
X183174975Y-117037481D01*
X183185700Y-117047202D01*
X183195421Y-117057927D01*
X183204044Y-117069553D01*
X183211485Y-117081969D01*
X183217674Y-117095054D01*
X183222551Y-117108683D01*
X183226068Y-117122724D01*
X183228192Y-117137042D01*
X183228902Y-117151500D01*
X183228902Y-117446500D01*
X183228192Y-117460958D01*
X183226068Y-117475276D01*
X183222551Y-117489317D01*
X183217674Y-117502946D01*
X183211485Y-117516031D01*
X183204044Y-117528447D01*
X183195421Y-117540073D01*
X183185700Y-117550798D01*
X183174975Y-117560519D01*
X183163349Y-117569142D01*
X183150933Y-117576583D01*
X183137848Y-117582772D01*
X183124219Y-117587649D01*
X183110178Y-117591166D01*
X183095860Y-117593290D01*
X183081402Y-117594000D01*
X182736402Y-117594000D01*
X182721944Y-117593290D01*
X182707626Y-117591166D01*
X182693585Y-117587649D01*
X182679956Y-117582772D01*
X182666871Y-117576583D01*
X182654455Y-117569142D01*
X182642829Y-117560519D01*
X182632104Y-117550798D01*
X182622383Y-117540073D01*
X182613760Y-117528447D01*
X182606319Y-117516031D01*
X182600130Y-117502946D01*
X182595253Y-117489317D01*
X182591736Y-117475276D01*
X182589612Y-117460958D01*
X182588902Y-117446500D01*
X182588902Y-117151500D01*
X182589612Y-117137042D01*
X182591736Y-117122724D01*
X182595253Y-117108683D01*
X182600130Y-117095054D01*
X182606319Y-117081969D01*
X182613760Y-117069553D01*
X182622383Y-117057927D01*
X182632104Y-117047202D01*
X182642829Y-117037481D01*
X182654455Y-117028858D01*
X182666871Y-117021417D01*
X182679956Y-117015228D01*
X182693585Y-117010351D01*
X182707626Y-117006834D01*
X182721944Y-117004710D01*
X182736402Y-117004000D01*
X183081402Y-117004000D01*
X183095860Y-117004710D01*
X183095860Y-117004710D01*
G37*
D11*
G04 #@! TD*
G04 #@! TO.P,R10,2*
G04 #@! TO.N,/M1_AGND*
X182908902Y-117299000D03*
D10*
G04 #@! TO.N,/M1_DGND*
G04 #@! TO.C,R10*
G36*
X183095860Y-117974710D02*
X183110178Y-117976834D01*
X183124219Y-117980351D01*
X183137848Y-117985228D01*
X183150933Y-117991417D01*
X183163349Y-117998858D01*
X183174975Y-118007481D01*
X183185700Y-118017202D01*
X183195421Y-118027927D01*
X183204044Y-118039553D01*
X183211485Y-118051969D01*
X183217674Y-118065054D01*
X183222551Y-118078683D01*
X183226068Y-118092724D01*
X183228192Y-118107042D01*
X183228902Y-118121500D01*
X183228902Y-118416500D01*
X183228192Y-118430958D01*
X183226068Y-118445276D01*
X183222551Y-118459317D01*
X183217674Y-118472946D01*
X183211485Y-118486031D01*
X183204044Y-118498447D01*
X183195421Y-118510073D01*
X183185700Y-118520798D01*
X183174975Y-118530519D01*
X183163349Y-118539142D01*
X183150933Y-118546583D01*
X183137848Y-118552772D01*
X183124219Y-118557649D01*
X183110178Y-118561166D01*
X183095860Y-118563290D01*
X183081402Y-118564000D01*
X182736402Y-118564000D01*
X182721944Y-118563290D01*
X182707626Y-118561166D01*
X182693585Y-118557649D01*
X182679956Y-118552772D01*
X182666871Y-118546583D01*
X182654455Y-118539142D01*
X182642829Y-118530519D01*
X182632104Y-118520798D01*
X182622383Y-118510073D01*
X182613760Y-118498447D01*
X182606319Y-118486031D01*
X182600130Y-118472946D01*
X182595253Y-118459317D01*
X182591736Y-118445276D01*
X182589612Y-118430958D01*
X182588902Y-118416500D01*
X182588902Y-118121500D01*
X182589612Y-118107042D01*
X182591736Y-118092724D01*
X182595253Y-118078683D01*
X182600130Y-118065054D01*
X182606319Y-118051969D01*
X182613760Y-118039553D01*
X182622383Y-118027927D01*
X182632104Y-118017202D01*
X182642829Y-118007481D01*
X182654455Y-117998858D01*
X182666871Y-117991417D01*
X182679956Y-117985228D01*
X182693585Y-117980351D01*
X182707626Y-117976834D01*
X182721944Y-117974710D01*
X182736402Y-117974000D01*
X183081402Y-117974000D01*
X183095860Y-117974710D01*
X183095860Y-117974710D01*
G37*
D11*
G04 #@! TD*
G04 #@! TO.P,R10,1*
G04 #@! TO.N,/M1_DGND*
X182908902Y-118269000D03*
D10*
G04 #@! TO.N,/M1_PVDD*
G04 #@! TO.C,R9*
G36*
X188908958Y-117974710D02*
X188923276Y-117976834D01*
X188937317Y-117980351D01*
X188950946Y-117985228D01*
X188964031Y-117991417D01*
X188976447Y-117998858D01*
X188988073Y-118007481D01*
X188998798Y-118017202D01*
X189008519Y-118027927D01*
X189017142Y-118039553D01*
X189024583Y-118051969D01*
X189030772Y-118065054D01*
X189035649Y-118078683D01*
X189039166Y-118092724D01*
X189041290Y-118107042D01*
X189042000Y-118121500D01*
X189042000Y-118416500D01*
X189041290Y-118430958D01*
X189039166Y-118445276D01*
X189035649Y-118459317D01*
X189030772Y-118472946D01*
X189024583Y-118486031D01*
X189017142Y-118498447D01*
X189008519Y-118510073D01*
X188998798Y-118520798D01*
X188988073Y-118530519D01*
X188976447Y-118539142D01*
X188964031Y-118546583D01*
X188950946Y-118552772D01*
X188937317Y-118557649D01*
X188923276Y-118561166D01*
X188908958Y-118563290D01*
X188894500Y-118564000D01*
X188549500Y-118564000D01*
X188535042Y-118563290D01*
X188520724Y-118561166D01*
X188506683Y-118557649D01*
X188493054Y-118552772D01*
X188479969Y-118546583D01*
X188467553Y-118539142D01*
X188455927Y-118530519D01*
X188445202Y-118520798D01*
X188435481Y-118510073D01*
X188426858Y-118498447D01*
X188419417Y-118486031D01*
X188413228Y-118472946D01*
X188408351Y-118459317D01*
X188404834Y-118445276D01*
X188402710Y-118430958D01*
X188402000Y-118416500D01*
X188402000Y-118121500D01*
X188402710Y-118107042D01*
X188404834Y-118092724D01*
X188408351Y-118078683D01*
X188413228Y-118065054D01*
X188419417Y-118051969D01*
X188426858Y-118039553D01*
X188435481Y-118027927D01*
X188445202Y-118017202D01*
X188455927Y-118007481D01*
X188467553Y-117998858D01*
X188479969Y-117991417D01*
X188493054Y-117985228D01*
X188506683Y-117980351D01*
X188520724Y-117976834D01*
X188535042Y-117974710D01*
X188549500Y-117974000D01*
X188894500Y-117974000D01*
X188908958Y-117974710D01*
X188908958Y-117974710D01*
G37*
D11*
G04 #@! TD*
G04 #@! TO.P,R9,1*
G04 #@! TO.N,/M1_PVDD*
X188722000Y-118269000D03*
D10*
G04 #@! TO.N,/M1_AVDD*
G04 #@! TO.C,R9*
G36*
X188908958Y-117004710D02*
X188923276Y-117006834D01*
X188937317Y-117010351D01*
X188950946Y-117015228D01*
X188964031Y-117021417D01*
X188976447Y-117028858D01*
X188988073Y-117037481D01*
X188998798Y-117047202D01*
X189008519Y-117057927D01*
X189017142Y-117069553D01*
X189024583Y-117081969D01*
X189030772Y-117095054D01*
X189035649Y-117108683D01*
X189039166Y-117122724D01*
X189041290Y-117137042D01*
X189042000Y-117151500D01*
X189042000Y-117446500D01*
X189041290Y-117460958D01*
X189039166Y-117475276D01*
X189035649Y-117489317D01*
X189030772Y-117502946D01*
X189024583Y-117516031D01*
X189017142Y-117528447D01*
X189008519Y-117540073D01*
X188998798Y-117550798D01*
X188988073Y-117560519D01*
X188976447Y-117569142D01*
X188964031Y-117576583D01*
X188950946Y-117582772D01*
X188937317Y-117587649D01*
X188923276Y-117591166D01*
X188908958Y-117593290D01*
X188894500Y-117594000D01*
X188549500Y-117594000D01*
X188535042Y-117593290D01*
X188520724Y-117591166D01*
X188506683Y-117587649D01*
X188493054Y-117582772D01*
X188479969Y-117576583D01*
X188467553Y-117569142D01*
X188455927Y-117560519D01*
X188445202Y-117550798D01*
X188435481Y-117540073D01*
X188426858Y-117528447D01*
X188419417Y-117516031D01*
X188413228Y-117502946D01*
X188408351Y-117489317D01*
X188404834Y-117475276D01*
X188402710Y-117460958D01*
X188402000Y-117446500D01*
X188402000Y-117151500D01*
X188402710Y-117137042D01*
X188404834Y-117122724D01*
X188408351Y-117108683D01*
X188413228Y-117095054D01*
X188419417Y-117081969D01*
X188426858Y-117069553D01*
X188435481Y-117057927D01*
X188445202Y-117047202D01*
X188455927Y-117037481D01*
X188467553Y-117028858D01*
X188479969Y-117021417D01*
X188493054Y-117015228D01*
X188506683Y-117010351D01*
X188520724Y-117006834D01*
X188535042Y-117004710D01*
X188549500Y-117004000D01*
X188894500Y-117004000D01*
X188908958Y-117004710D01*
X188908958Y-117004710D01*
G37*
D11*
G04 #@! TD*
G04 #@! TO.P,R9,2*
G04 #@! TO.N,/M1_AVDD*
X188722000Y-117299000D03*
D10*
G04 #@! TO.N,/CAM_NRST_1V8*
G04 #@! TO.C,R19*
G36*
X188672958Y-105048710D02*
X188687276Y-105050834D01*
X188701317Y-105054351D01*
X188714946Y-105059228D01*
X188728031Y-105065417D01*
X188740447Y-105072858D01*
X188752073Y-105081481D01*
X188762798Y-105091202D01*
X188772519Y-105101927D01*
X188781142Y-105113553D01*
X188788583Y-105125969D01*
X188794772Y-105139054D01*
X188799649Y-105152683D01*
X188803166Y-105166724D01*
X188805290Y-105181042D01*
X188806000Y-105195500D01*
X188806000Y-105490500D01*
X188805290Y-105504958D01*
X188803166Y-105519276D01*
X188799649Y-105533317D01*
X188794772Y-105546946D01*
X188788583Y-105560031D01*
X188781142Y-105572447D01*
X188772519Y-105584073D01*
X188762798Y-105594798D01*
X188752073Y-105604519D01*
X188740447Y-105613142D01*
X188728031Y-105620583D01*
X188714946Y-105626772D01*
X188701317Y-105631649D01*
X188687276Y-105635166D01*
X188672958Y-105637290D01*
X188658500Y-105638000D01*
X188313500Y-105638000D01*
X188299042Y-105637290D01*
X188284724Y-105635166D01*
X188270683Y-105631649D01*
X188257054Y-105626772D01*
X188243969Y-105620583D01*
X188231553Y-105613142D01*
X188219927Y-105604519D01*
X188209202Y-105594798D01*
X188199481Y-105584073D01*
X188190858Y-105572447D01*
X188183417Y-105560031D01*
X188177228Y-105546946D01*
X188172351Y-105533317D01*
X188168834Y-105519276D01*
X188166710Y-105504958D01*
X188166000Y-105490500D01*
X188166000Y-105195500D01*
X188166710Y-105181042D01*
X188168834Y-105166724D01*
X188172351Y-105152683D01*
X188177228Y-105139054D01*
X188183417Y-105125969D01*
X188190858Y-105113553D01*
X188199481Y-105101927D01*
X188209202Y-105091202D01*
X188219927Y-105081481D01*
X188231553Y-105072858D01*
X188243969Y-105065417D01*
X188257054Y-105059228D01*
X188270683Y-105054351D01*
X188284724Y-105050834D01*
X188299042Y-105048710D01*
X188313500Y-105048000D01*
X188658500Y-105048000D01*
X188672958Y-105048710D01*
X188672958Y-105048710D01*
G37*
D11*
G04 #@! TD*
G04 #@! TO.P,R19,2*
G04 #@! TO.N,/CAM_NRST_1V8*
X188486000Y-105343000D03*
D10*
G04 #@! TO.N,+1V8*
G04 #@! TO.C,R19*
G36*
X188672958Y-104078710D02*
X188687276Y-104080834D01*
X188701317Y-104084351D01*
X188714946Y-104089228D01*
X188728031Y-104095417D01*
X188740447Y-104102858D01*
X188752073Y-104111481D01*
X188762798Y-104121202D01*
X188772519Y-104131927D01*
X188781142Y-104143553D01*
X188788583Y-104155969D01*
X188794772Y-104169054D01*
X188799649Y-104182683D01*
X188803166Y-104196724D01*
X188805290Y-104211042D01*
X188806000Y-104225500D01*
X188806000Y-104520500D01*
X188805290Y-104534958D01*
X188803166Y-104549276D01*
X188799649Y-104563317D01*
X188794772Y-104576946D01*
X188788583Y-104590031D01*
X188781142Y-104602447D01*
X188772519Y-104614073D01*
X188762798Y-104624798D01*
X188752073Y-104634519D01*
X188740447Y-104643142D01*
X188728031Y-104650583D01*
X188714946Y-104656772D01*
X188701317Y-104661649D01*
X188687276Y-104665166D01*
X188672958Y-104667290D01*
X188658500Y-104668000D01*
X188313500Y-104668000D01*
X188299042Y-104667290D01*
X188284724Y-104665166D01*
X188270683Y-104661649D01*
X188257054Y-104656772D01*
X188243969Y-104650583D01*
X188231553Y-104643142D01*
X188219927Y-104634519D01*
X188209202Y-104624798D01*
X188199481Y-104614073D01*
X188190858Y-104602447D01*
X188183417Y-104590031D01*
X188177228Y-104576946D01*
X188172351Y-104563317D01*
X188168834Y-104549276D01*
X188166710Y-104534958D01*
X188166000Y-104520500D01*
X188166000Y-104225500D01*
X188166710Y-104211042D01*
X188168834Y-104196724D01*
X188172351Y-104182683D01*
X188177228Y-104169054D01*
X188183417Y-104155969D01*
X188190858Y-104143553D01*
X188199481Y-104131927D01*
X188209202Y-104121202D01*
X188219927Y-104111481D01*
X188231553Y-104102858D01*
X188243969Y-104095417D01*
X188257054Y-104089228D01*
X188270683Y-104084351D01*
X188284724Y-104080834D01*
X188299042Y-104078710D01*
X188313500Y-104078000D01*
X188658500Y-104078000D01*
X188672958Y-104078710D01*
X188672958Y-104078710D01*
G37*
D11*
G04 #@! TD*
G04 #@! TO.P,R19,1*
G04 #@! TO.N,+1V8*
X188486000Y-104373000D03*
D10*
G04 #@! TO.N,/M2_MCLK_M*
G04 #@! TO.C,R20*
G36*
X181034958Y-107678710D02*
X181049276Y-107680834D01*
X181063317Y-107684351D01*
X181076946Y-107689228D01*
X181090031Y-107695417D01*
X181102447Y-107702858D01*
X181114073Y-107711481D01*
X181124798Y-107721202D01*
X181134519Y-107731927D01*
X181143142Y-107743553D01*
X181150583Y-107755969D01*
X181156772Y-107769054D01*
X181161649Y-107782683D01*
X181165166Y-107796724D01*
X181167290Y-107811042D01*
X181168000Y-107825500D01*
X181168000Y-108120500D01*
X181167290Y-108134958D01*
X181165166Y-108149276D01*
X181161649Y-108163317D01*
X181156772Y-108176946D01*
X181150583Y-108190031D01*
X181143142Y-108202447D01*
X181134519Y-108214073D01*
X181124798Y-108224798D01*
X181114073Y-108234519D01*
X181102447Y-108243142D01*
X181090031Y-108250583D01*
X181076946Y-108256772D01*
X181063317Y-108261649D01*
X181049276Y-108265166D01*
X181034958Y-108267290D01*
X181020500Y-108268000D01*
X180675500Y-108268000D01*
X180661042Y-108267290D01*
X180646724Y-108265166D01*
X180632683Y-108261649D01*
X180619054Y-108256772D01*
X180605969Y-108250583D01*
X180593553Y-108243142D01*
X180581927Y-108234519D01*
X180571202Y-108224798D01*
X180561481Y-108214073D01*
X180552858Y-108202447D01*
X180545417Y-108190031D01*
X180539228Y-108176946D01*
X180534351Y-108163317D01*
X180530834Y-108149276D01*
X180528710Y-108134958D01*
X180528000Y-108120500D01*
X180528000Y-107825500D01*
X180528710Y-107811042D01*
X180530834Y-107796724D01*
X180534351Y-107782683D01*
X180539228Y-107769054D01*
X180545417Y-107755969D01*
X180552858Y-107743553D01*
X180561481Y-107731927D01*
X180571202Y-107721202D01*
X180581927Y-107711481D01*
X180593553Y-107702858D01*
X180605969Y-107695417D01*
X180619054Y-107689228D01*
X180632683Y-107684351D01*
X180646724Y-107680834D01*
X180661042Y-107678710D01*
X180675500Y-107678000D01*
X181020500Y-107678000D01*
X181034958Y-107678710D01*
X181034958Y-107678710D01*
G37*
D11*
G04 #@! TD*
G04 #@! TO.P,R20,1*
G04 #@! TO.N,/M2_MCLK_M*
X180848000Y-107973000D03*
D10*
G04 #@! TO.N,/M1_MCLK*
G04 #@! TO.C,R20*
G36*
X181034958Y-108648710D02*
X181049276Y-108650834D01*
X181063317Y-108654351D01*
X181076946Y-108659228D01*
X181090031Y-108665417D01*
X181102447Y-108672858D01*
X181114073Y-108681481D01*
X181124798Y-108691202D01*
X181134519Y-108701927D01*
X181143142Y-108713553D01*
X181150583Y-108725969D01*
X181156772Y-108739054D01*
X181161649Y-108752683D01*
X181165166Y-108766724D01*
X181167290Y-108781042D01*
X181168000Y-108795500D01*
X181168000Y-109090500D01*
X181167290Y-109104958D01*
X181165166Y-109119276D01*
X181161649Y-109133317D01*
X181156772Y-109146946D01*
X181150583Y-109160031D01*
X181143142Y-109172447D01*
X181134519Y-109184073D01*
X181124798Y-109194798D01*
X181114073Y-109204519D01*
X181102447Y-109213142D01*
X181090031Y-109220583D01*
X181076946Y-109226772D01*
X181063317Y-109231649D01*
X181049276Y-109235166D01*
X181034958Y-109237290D01*
X181020500Y-109238000D01*
X180675500Y-109238000D01*
X180661042Y-109237290D01*
X180646724Y-109235166D01*
X180632683Y-109231649D01*
X180619054Y-109226772D01*
X180605969Y-109220583D01*
X180593553Y-109213142D01*
X180581927Y-109204519D01*
X180571202Y-109194798D01*
X180561481Y-109184073D01*
X180552858Y-109172447D01*
X180545417Y-109160031D01*
X180539228Y-109146946D01*
X180534351Y-109133317D01*
X180530834Y-109119276D01*
X180528710Y-109104958D01*
X180528000Y-109090500D01*
X180528000Y-108795500D01*
X180528710Y-108781042D01*
X180530834Y-108766724D01*
X180534351Y-108752683D01*
X180539228Y-108739054D01*
X180545417Y-108725969D01*
X180552858Y-108713553D01*
X180561481Y-108701927D01*
X180571202Y-108691202D01*
X180581927Y-108681481D01*
X180593553Y-108672858D01*
X180605969Y-108665417D01*
X180619054Y-108659228D01*
X180632683Y-108654351D01*
X180646724Y-108650834D01*
X180661042Y-108648710D01*
X180675500Y-108648000D01*
X181020500Y-108648000D01*
X181034958Y-108648710D01*
X181034958Y-108648710D01*
G37*
D11*
G04 #@! TD*
G04 #@! TO.P,R20,2*
G04 #@! TO.N,/M1_MCLK*
X180848000Y-108943000D03*
D10*
G04 #@! TO.N,/M2_MCLK*
G04 #@! TO.C,R21*
G36*
X111549458Y-108116710D02*
X111563776Y-108118834D01*
X111577817Y-108122351D01*
X111591446Y-108127228D01*
X111604531Y-108133417D01*
X111616947Y-108140858D01*
X111628573Y-108149481D01*
X111639298Y-108159202D01*
X111649019Y-108169927D01*
X111657642Y-108181553D01*
X111665083Y-108193969D01*
X111671272Y-108207054D01*
X111676149Y-108220683D01*
X111679666Y-108234724D01*
X111681790Y-108249042D01*
X111682500Y-108263500D01*
X111682500Y-108608500D01*
X111681790Y-108622958D01*
X111679666Y-108637276D01*
X111676149Y-108651317D01*
X111671272Y-108664946D01*
X111665083Y-108678031D01*
X111657642Y-108690447D01*
X111649019Y-108702073D01*
X111639298Y-108712798D01*
X111628573Y-108722519D01*
X111616947Y-108731142D01*
X111604531Y-108738583D01*
X111591446Y-108744772D01*
X111577817Y-108749649D01*
X111563776Y-108753166D01*
X111549458Y-108755290D01*
X111535000Y-108756000D01*
X111240000Y-108756000D01*
X111225542Y-108755290D01*
X111211224Y-108753166D01*
X111197183Y-108749649D01*
X111183554Y-108744772D01*
X111170469Y-108738583D01*
X111158053Y-108731142D01*
X111146427Y-108722519D01*
X111135702Y-108712798D01*
X111125981Y-108702073D01*
X111117358Y-108690447D01*
X111109917Y-108678031D01*
X111103728Y-108664946D01*
X111098851Y-108651317D01*
X111095334Y-108637276D01*
X111093210Y-108622958D01*
X111092500Y-108608500D01*
X111092500Y-108263500D01*
X111093210Y-108249042D01*
X111095334Y-108234724D01*
X111098851Y-108220683D01*
X111103728Y-108207054D01*
X111109917Y-108193969D01*
X111117358Y-108181553D01*
X111125981Y-108169927D01*
X111135702Y-108159202D01*
X111146427Y-108149481D01*
X111158053Y-108140858D01*
X111170469Y-108133417D01*
X111183554Y-108127228D01*
X111197183Y-108122351D01*
X111211224Y-108118834D01*
X111225542Y-108116710D01*
X111240000Y-108116000D01*
X111535000Y-108116000D01*
X111549458Y-108116710D01*
X111549458Y-108116710D01*
G37*
D11*
G04 #@! TD*
G04 #@! TO.P,R21,2*
G04 #@! TO.N,/M2_MCLK*
X111387500Y-108436000D03*
D10*
G04 #@! TO.N,/M2_MCLK_M*
G04 #@! TO.C,R21*
G36*
X110579458Y-108116710D02*
X110593776Y-108118834D01*
X110607817Y-108122351D01*
X110621446Y-108127228D01*
X110634531Y-108133417D01*
X110646947Y-108140858D01*
X110658573Y-108149481D01*
X110669298Y-108159202D01*
X110679019Y-108169927D01*
X110687642Y-108181553D01*
X110695083Y-108193969D01*
X110701272Y-108207054D01*
X110706149Y-108220683D01*
X110709666Y-108234724D01*
X110711790Y-108249042D01*
X110712500Y-108263500D01*
X110712500Y-108608500D01*
X110711790Y-108622958D01*
X110709666Y-108637276D01*
X110706149Y-108651317D01*
X110701272Y-108664946D01*
X110695083Y-108678031D01*
X110687642Y-108690447D01*
X110679019Y-108702073D01*
X110669298Y-108712798D01*
X110658573Y-108722519D01*
X110646947Y-108731142D01*
X110634531Y-108738583D01*
X110621446Y-108744772D01*
X110607817Y-108749649D01*
X110593776Y-108753166D01*
X110579458Y-108755290D01*
X110565000Y-108756000D01*
X110270000Y-108756000D01*
X110255542Y-108755290D01*
X110241224Y-108753166D01*
X110227183Y-108749649D01*
X110213554Y-108744772D01*
X110200469Y-108738583D01*
X110188053Y-108731142D01*
X110176427Y-108722519D01*
X110165702Y-108712798D01*
X110155981Y-108702073D01*
X110147358Y-108690447D01*
X110139917Y-108678031D01*
X110133728Y-108664946D01*
X110128851Y-108651317D01*
X110125334Y-108637276D01*
X110123210Y-108622958D01*
X110122500Y-108608500D01*
X110122500Y-108263500D01*
X110123210Y-108249042D01*
X110125334Y-108234724D01*
X110128851Y-108220683D01*
X110133728Y-108207054D01*
X110139917Y-108193969D01*
X110147358Y-108181553D01*
X110155981Y-108169927D01*
X110165702Y-108159202D01*
X110176427Y-108149481D01*
X110188053Y-108140858D01*
X110200469Y-108133417D01*
X110213554Y-108127228D01*
X110227183Y-108122351D01*
X110241224Y-108118834D01*
X110255542Y-108116710D01*
X110270000Y-108116000D01*
X110565000Y-108116000D01*
X110579458Y-108116710D01*
X110579458Y-108116710D01*
G37*
D11*
G04 #@! TD*
G04 #@! TO.P,R21,1*
G04 #@! TO.N,/M2_MCLK_M*
X110417500Y-108436000D03*
D10*
G04 #@! TO.N,/M1_DOVDD*
G04 #@! TO.C,R7*
G36*
X174535958Y-108364710D02*
X174550276Y-108366834D01*
X174564317Y-108370351D01*
X174577946Y-108375228D01*
X174591031Y-108381417D01*
X174603447Y-108388858D01*
X174615073Y-108397481D01*
X174625798Y-108407202D01*
X174635519Y-108417927D01*
X174644142Y-108429553D01*
X174651583Y-108441969D01*
X174657772Y-108455054D01*
X174662649Y-108468683D01*
X174666166Y-108482724D01*
X174668290Y-108497042D01*
X174669000Y-108511500D01*
X174669000Y-108856500D01*
X174668290Y-108870958D01*
X174666166Y-108885276D01*
X174662649Y-108899317D01*
X174657772Y-108912946D01*
X174651583Y-108926031D01*
X174644142Y-108938447D01*
X174635519Y-108950073D01*
X174625798Y-108960798D01*
X174615073Y-108970519D01*
X174603447Y-108979142D01*
X174591031Y-108986583D01*
X174577946Y-108992772D01*
X174564317Y-108997649D01*
X174550276Y-109001166D01*
X174535958Y-109003290D01*
X174521500Y-109004000D01*
X174226500Y-109004000D01*
X174212042Y-109003290D01*
X174197724Y-109001166D01*
X174183683Y-108997649D01*
X174170054Y-108992772D01*
X174156969Y-108986583D01*
X174144553Y-108979142D01*
X174132927Y-108970519D01*
X174122202Y-108960798D01*
X174112481Y-108950073D01*
X174103858Y-108938447D01*
X174096417Y-108926031D01*
X174090228Y-108912946D01*
X174085351Y-108899317D01*
X174081834Y-108885276D01*
X174079710Y-108870958D01*
X174079000Y-108856500D01*
X174079000Y-108511500D01*
X174079710Y-108497042D01*
X174081834Y-108482724D01*
X174085351Y-108468683D01*
X174090228Y-108455054D01*
X174096417Y-108441969D01*
X174103858Y-108429553D01*
X174112481Y-108417927D01*
X174122202Y-108407202D01*
X174132927Y-108397481D01*
X174144553Y-108388858D01*
X174156969Y-108381417D01*
X174170054Y-108375228D01*
X174183683Y-108370351D01*
X174197724Y-108366834D01*
X174212042Y-108364710D01*
X174226500Y-108364000D01*
X174521500Y-108364000D01*
X174535958Y-108364710D01*
X174535958Y-108364710D01*
G37*
D11*
G04 #@! TD*
G04 #@! TO.P,R7,1*
G04 #@! TO.N,/M1_DOVDD*
X174374000Y-108684000D03*
D10*
G04 #@! TO.N,/M1_SID*
G04 #@! TO.C,R7*
G36*
X173565958Y-108364710D02*
X173580276Y-108366834D01*
X173594317Y-108370351D01*
X173607946Y-108375228D01*
X173621031Y-108381417D01*
X173633447Y-108388858D01*
X173645073Y-108397481D01*
X173655798Y-108407202D01*
X173665519Y-108417927D01*
X173674142Y-108429553D01*
X173681583Y-108441969D01*
X173687772Y-108455054D01*
X173692649Y-108468683D01*
X173696166Y-108482724D01*
X173698290Y-108497042D01*
X173699000Y-108511500D01*
X173699000Y-108856500D01*
X173698290Y-108870958D01*
X173696166Y-108885276D01*
X173692649Y-108899317D01*
X173687772Y-108912946D01*
X173681583Y-108926031D01*
X173674142Y-108938447D01*
X173665519Y-108950073D01*
X173655798Y-108960798D01*
X173645073Y-108970519D01*
X173633447Y-108979142D01*
X173621031Y-108986583D01*
X173607946Y-108992772D01*
X173594317Y-108997649D01*
X173580276Y-109001166D01*
X173565958Y-109003290D01*
X173551500Y-109004000D01*
X173256500Y-109004000D01*
X173242042Y-109003290D01*
X173227724Y-109001166D01*
X173213683Y-108997649D01*
X173200054Y-108992772D01*
X173186969Y-108986583D01*
X173174553Y-108979142D01*
X173162927Y-108970519D01*
X173152202Y-108960798D01*
X173142481Y-108950073D01*
X173133858Y-108938447D01*
X173126417Y-108926031D01*
X173120228Y-108912946D01*
X173115351Y-108899317D01*
X173111834Y-108885276D01*
X173109710Y-108870958D01*
X173109000Y-108856500D01*
X173109000Y-108511500D01*
X173109710Y-108497042D01*
X173111834Y-108482724D01*
X173115351Y-108468683D01*
X173120228Y-108455054D01*
X173126417Y-108441969D01*
X173133858Y-108429553D01*
X173142481Y-108417927D01*
X173152202Y-108407202D01*
X173162927Y-108397481D01*
X173174553Y-108388858D01*
X173186969Y-108381417D01*
X173200054Y-108375228D01*
X173213683Y-108370351D01*
X173227724Y-108366834D01*
X173242042Y-108364710D01*
X173256500Y-108364000D01*
X173551500Y-108364000D01*
X173565958Y-108364710D01*
X173565958Y-108364710D01*
G37*
D11*
G04 #@! TD*
G04 #@! TO.P,R7,2*
G04 #@! TO.N,/M1_SID*
X173404000Y-108684000D03*
D14*
G04 #@! TO.P,C8,1*
G04 #@! TO.N,/M1_VN2*
X190720000Y-112672854D03*
G04 #@! TO.P,C8,2*
G04 #@! TO.N,/M1_AGND*
X192120000Y-112672854D03*
G04 #@! TD*
G04 #@! TO.P,C21,2*
G04 #@! TO.N,/M1_AGND*
X192110000Y-110896427D03*
G04 #@! TO.P,C21,1*
G04 #@! TO.N,/M1_VH*
X190710000Y-110896427D03*
G04 #@! TD*
G04 #@! TO.P,C19,1*
G04 #@! TO.N,/M1_AVDD*
X190740000Y-116225710D03*
G04 #@! TO.P,C19,2*
G04 #@! TO.N,/M1_AGND*
X192140000Y-116225710D03*
G04 #@! TD*
D15*
G04 #@! TO.P,C18,2*
G04 #@! TO.N,/M1_AGND*
X177020000Y-112660000D03*
G04 #@! TO.P,C18,1*
G04 #@! TO.N,/M1_AVDD*
X177020000Y-114060000D03*
G04 #@! TD*
D14*
G04 #@! TO.P,C22,1*
G04 #@! TO.N,/M2_VN1*
X121700000Y-114337500D03*
G04 #@! TO.P,C22,2*
G04 #@! TO.N,/M2_AGND*
X123100000Y-114337500D03*
G04 #@! TD*
D15*
G04 #@! TO.P,C13,2*
G04 #@! TO.N,/M1_DGND*
X177020000Y-109160000D03*
G04 #@! TO.P,C13,1*
G04 #@! TO.N,/M1_DOVDD*
X177020000Y-110560000D03*
G04 #@! TD*
D14*
G04 #@! TO.P,C10,1*
G04 #@! TO.N,/M1_VN3*
X190740000Y-109120000D03*
G04 #@! TO.P,C10,2*
G04 #@! TO.N,/M1_AGND*
X192140000Y-109120000D03*
G04 #@! TD*
G04 #@! TO.P,C7,2*
G04 #@! TO.N,/M1_AGND*
X192140000Y-114449281D03*
G04 #@! TO.P,C7,1*
G04 #@! TO.N,/M1_VN1*
X190740000Y-114449281D03*
G04 #@! TD*
D15*
G04 #@! TO.P,C12,1*
G04 #@! TO.N,/M1_DVDD*
X177020000Y-117519738D03*
G04 #@! TO.P,C12,2*
G04 #@! TO.N,/M1_DGND*
X177020000Y-116119738D03*
G04 #@! TD*
D14*
G04 #@! TO.P,C38,2*
G04 #@! TO.N,/M2_AGND*
X123100000Y-110792500D03*
G04 #@! TO.P,C38,1*
G04 #@! TO.N,/M2_VH*
X121700000Y-110792500D03*
G04 #@! TD*
D15*
G04 #@! TO.P,C36,1*
G04 #@! TO.N,/M2_AVDD*
X106970000Y-115130000D03*
G04 #@! TO.P,C36,2*
G04 #@! TO.N,/M2_AGND*
X106970000Y-113730000D03*
G04 #@! TD*
G04 #@! TO.P,C28,2*
G04 #@! TO.N,/M2_DGND*
X106970000Y-110220000D03*
G04 #@! TO.P,C28,1*
G04 #@! TO.N,/M2_DOVDD*
X106970000Y-111620000D03*
G04 #@! TD*
G04 #@! TO.P,C27,1*
G04 #@! TO.N,/M2_DVDD*
X106970000Y-118640000D03*
G04 #@! TO.P,C27,2*
G04 #@! TO.N,/M2_DGND*
X106970000Y-117240000D03*
G04 #@! TD*
D14*
G04 #@! TO.P,C24,2*
G04 #@! TO.N,/M2_AGND*
X123100000Y-112565000D03*
G04 #@! TO.P,C24,1*
G04 #@! TO.N,/M2_VN2*
X121700000Y-112565000D03*
G04 #@! TD*
G04 #@! TO.P,C33,1*
G04 #@! TO.N,+1V8*
X186270000Y-107442000D03*
G04 #@! TO.P,C33,2*
G04 #@! TO.N,GND*
X184870000Y-107442000D03*
G04 #@! TD*
G04 #@! TO.P,C35,1*
G04 #@! TO.N,/M2_AVDD*
X121700000Y-116110000D03*
G04 #@! TO.P,C35,2*
G04 #@! TO.N,/M2_AGND*
X123100000Y-116110000D03*
G04 #@! TD*
G04 #@! TO.P,C25,2*
G04 #@! TO.N,/M2_AGND*
X123100000Y-109020000D03*
G04 #@! TO.P,C25,1*
G04 #@! TO.N,/M2_VN3*
X121700000Y-109020000D03*
G04 #@! TD*
D16*
G04 #@! TO.P,L6,1*
G04 #@! TO.N,+2V8*
X102560000Y-115130000D03*
G04 #@! TO.P,L6,2*
G04 #@! TO.N,/M2_AVDD*
X104660000Y-115130000D03*
G04 #@! TD*
G04 #@! TO.P,L5,2*
G04 #@! TO.N,/M2_DOVDD*
X104660000Y-111620000D03*
G04 #@! TO.P,L5,1*
G04 #@! TO.N,+1V8*
X102560000Y-111620000D03*
G04 #@! TD*
G04 #@! TO.P,L4,1*
G04 #@! TO.N,+1V2*
X102560000Y-118640000D03*
G04 #@! TO.P,L4,2*
G04 #@! TO.N,/M2_DVDD*
X104660000Y-118640000D03*
G04 #@! TD*
G04 #@! TO.P,L3,2*
G04 #@! TO.N,/M1_AVDD*
X174370000Y-114060000D03*
G04 #@! TO.P,L3,1*
G04 #@! TO.N,+2V8*
X172270000Y-114060000D03*
G04 #@! TD*
G04 #@! TO.P,L1,1*
G04 #@! TO.N,+1V2*
X172270000Y-117510000D03*
G04 #@! TO.P,L1,2*
G04 #@! TO.N,/M1_DVDD*
X174370000Y-117510000D03*
G04 #@! TD*
G04 #@! TO.P,L2,2*
G04 #@! TO.N,/M1_DOVDD*
X174370000Y-110560000D03*
G04 #@! TO.P,L2,1*
G04 #@! TO.N,+1V8*
X172270000Y-110560000D03*
G04 #@! TD*
D17*
G04 #@! TO.P,U3,~*
G04 #@! TO.N,N/C*
X128585000Y-111600000D03*
X128135000Y-111600000D03*
X128585000Y-110900000D03*
X128135000Y-110900000D03*
D18*
G04 #@! TO.P,U3,2*
G04 #@! TO.N,/M1_CAM_SDA_1V8*
X126960000Y-110250000D03*
G04 #@! TO.P,U3,3*
G04 #@! TO.N,/M1_CAM_SCL_1V8*
X126960000Y-110750000D03*
G04 #@! TO.P,U3,4*
G04 #@! TO.N,/M2_CAM_SDA_1V8*
X126960000Y-111250000D03*
G04 #@! TO.P,U3,5*
G04 #@! TO.N,/M2_CAM_SCL_1V8*
X126960000Y-111750000D03*
G04 #@! TO.P,U3,6*
G04 #@! TO.N,Net-(U3-Pad6)*
X126960000Y-112250000D03*
D19*
G04 #@! TO.P,U3,7*
G04 #@! TO.N,GND*
X128110000Y-112800000D03*
G04 #@! TO.P,U3,8*
G04 #@! TO.N,+1V8*
X128610000Y-112800000D03*
D18*
G04 #@! TO.P,U3,9*
G04 #@! TO.N,Net-(U3-Pad9)*
X129760000Y-112250000D03*
G04 #@! TO.P,U3,10*
G04 #@! TO.N,/M2_CAM_SCL*
X129760000Y-111750000D03*
G04 #@! TO.P,U3,11*
G04 #@! TO.N,/M2_CAM_SDA*
X129760000Y-111250000D03*
G04 #@! TO.P,U3,12*
G04 #@! TO.N,/M1_CAM_SCL*
X129760000Y-110750000D03*
G04 #@! TO.P,U3,13*
G04 #@! TO.N,/M1_CAM_SDA*
X129760000Y-110250000D03*
D19*
G04 #@! TO.P,U3,14*
G04 #@! TO.N,+3V3*
X128610000Y-109700000D03*
G04 #@! TO.P,U3,1*
G04 #@! TO.N,+1V8*
X128110000Y-109700000D03*
G04 #@! TD*
G04 #@! TO.P,U4,1*
G04 #@! TO.N,+1V8*
X168552500Y-113336000D03*
G04 #@! TO.P,U4,14*
G04 #@! TO.N,+3V3*
X168052500Y-113336000D03*
D18*
G04 #@! TO.P,U4,13*
G04 #@! TO.N,/M1_VSYNC*
X166902500Y-112786000D03*
G04 #@! TO.P,U4,12*
G04 #@! TO.N,/CAM_RST*
X166902500Y-112286000D03*
G04 #@! TO.P,U4,11*
G04 #@! TO.N,/M2_VSYNC*
X166902500Y-111786000D03*
G04 #@! TO.P,U4,10*
G04 #@! TO.N,Net-(U4-Pad10)*
X166902500Y-111286000D03*
G04 #@! TO.P,U4,9*
G04 #@! TO.N,Net-(U4-Pad9)*
X166902500Y-110786000D03*
D19*
G04 #@! TO.P,U4,8*
G04 #@! TO.N,+1V8*
X168052500Y-110236000D03*
G04 #@! TO.P,U4,7*
G04 #@! TO.N,GND*
X168552500Y-110236000D03*
D18*
G04 #@! TO.P,U4,6*
G04 #@! TO.N,Net-(U4-Pad6)*
X169702500Y-110786000D03*
G04 #@! TO.P,U4,5*
G04 #@! TO.N,Net-(U4-Pad5)*
X169702500Y-111286000D03*
G04 #@! TO.P,U4,4*
G04 #@! TO.N,/M2_VSYNC_1V8*
X169702500Y-111786000D03*
G04 #@! TO.P,U4,3*
G04 #@! TO.N,/CAM_RST_1V8*
X169702500Y-112286000D03*
G04 #@! TO.P,U4,2*
G04 #@! TO.N,/M1_VSYNC_1V8*
X169702500Y-112786000D03*
D17*
G04 #@! TO.P,U4,~*
G04 #@! TO.N,N/C*
X168527500Y-112136000D03*
X168077500Y-112136000D03*
X168527500Y-111436000D03*
X168077500Y-111436000D03*
G04 #@! TD*
D20*
G04 #@! TO.P,Q1,3*
G04 #@! TO.N,/CAM_NRST_1V8*
X186214900Y-104058000D03*
G04 #@! TO.P,Q1,2*
G04 #@! TO.N,GND*
X184114900Y-105008000D03*
G04 #@! TO.P,Q1,1*
G04 #@! TO.N,/CAM_RST_1V8*
X184114900Y-103108000D03*
G04 #@! TD*
D21*
G04 #@! TO.P,J3,~*
G04 #@! TO.N,N/C*
X163850000Y-117550000D03*
X163850000Y-121250000D03*
X136150000Y-121250000D03*
X136150000Y-117550000D03*
D22*
G04 #@! TO.P,J3,50*
G04 #@! TO.N,Net-(J3-Pad50)*
X137750000Y-119400000D03*
G04 #@! TO.P,J3,49*
G04 #@! TO.N,Net-(J3-Pad49)*
X138250000Y-119400000D03*
G04 #@! TO.P,J3,48*
G04 #@! TO.N,+3V3*
X138750000Y-119400000D03*
G04 #@! TO.P,J3,47*
X139250000Y-119400000D03*
G04 #@! TO.P,J3,46*
G04 #@! TO.N,Net-(J3-Pad46)*
X139750000Y-119400000D03*
G04 #@! TO.P,J3,45*
G04 #@! TO.N,Net-(J3-Pad45)*
X140250000Y-119400000D03*
G04 #@! TO.P,J3,44*
G04 #@! TO.N,Net-(J3-Pad44)*
X140750000Y-119400000D03*
G04 #@! TO.P,J3,43*
G04 #@! TO.N,Net-(J3-Pad43)*
X141250000Y-119400000D03*
G04 #@! TO.P,J3,42*
G04 #@! TO.N,/M2_CAM_SCL*
X141750000Y-119400000D03*
G04 #@! TO.P,J3,41*
G04 #@! TO.N,/M2_CAM_SDA*
X142250000Y-119400000D03*
G04 #@! TO.P,J3,40*
G04 #@! TO.N,/M1_CAM_SCL*
X142750000Y-119400000D03*
G04 #@! TO.P,J3,39*
G04 #@! TO.N,/M1_CAM_SDA*
X143250000Y-119400000D03*
G04 #@! TO.P,J3,38*
G04 #@! TO.N,Net-(J3-Pad38)*
X143750000Y-119400000D03*
G04 #@! TO.P,J3,37*
G04 #@! TO.N,Net-(J3-Pad37)*
X144250000Y-119400000D03*
G04 #@! TO.P,J3,36*
G04 #@! TO.N,Net-(J3-Pad36)*
X144750000Y-119400000D03*
G04 #@! TO.P,J3,35*
G04 #@! TO.N,Net-(J3-Pad35)*
X145250000Y-119400000D03*
G04 #@! TO.P,J3,34*
G04 #@! TO.N,/M2_VSYNC*
X145750000Y-119400000D03*
G04 #@! TO.P,J3,33*
G04 #@! TO.N,/CAM_RST*
X146250000Y-119400000D03*
G04 #@! TO.P,J3,32*
G04 #@! TO.N,/M1_VSYNC*
X146750000Y-119400000D03*
G04 #@! TO.P,J3,31*
G04 #@! TO.N,Net-(J3-Pad31)*
X147250000Y-119400000D03*
G04 #@! TO.P,J3,30*
G04 #@! TO.N,GND*
X147750000Y-119400000D03*
G04 #@! TO.P,J3,29*
G04 #@! TO.N,/CAM_R_CLK_P*
X148250000Y-119400000D03*
G04 #@! TO.P,J3,28*
G04 #@! TO.N,/CAM_R_CLK_N*
X148750000Y-119400000D03*
G04 #@! TO.P,J3,27*
G04 #@! TO.N,GND*
X149250000Y-119400000D03*
G04 #@! TO.P,J3,26*
G04 #@! TO.N,/CAM_R_D0_P*
X149750000Y-119400000D03*
G04 #@! TO.P,J3,25*
G04 #@! TO.N,/CAM_R_D0_N*
X150250000Y-119400000D03*
G04 #@! TO.P,J3,24*
G04 #@! TO.N,/CAM_R_D1_P*
X150750000Y-119400000D03*
G04 #@! TO.P,J3,23*
G04 #@! TO.N,/CAM_R_D1_N*
X151250000Y-119400000D03*
G04 #@! TO.P,J3,22*
G04 #@! TO.N,Net-(J3-Pad22)*
X151750000Y-119400000D03*
G04 #@! TO.P,J3,21*
G04 #@! TO.N,Net-(J3-Pad21)*
X152250000Y-119400000D03*
G04 #@! TO.P,J3,20*
G04 #@! TO.N,Net-(J3-Pad20)*
X152750000Y-119400000D03*
G04 #@! TO.P,J3,19*
G04 #@! TO.N,Net-(J3-Pad19)*
X153250000Y-119400000D03*
G04 #@! TO.P,J3,18*
G04 #@! TO.N,GND*
X153750000Y-119400000D03*
G04 #@! TO.P,J3,17*
G04 #@! TO.N,Net-(J3-Pad17)*
X154250000Y-119400000D03*
G04 #@! TO.P,J3,16*
G04 #@! TO.N,Net-(J3-Pad16)*
X154750000Y-119400000D03*
G04 #@! TO.P,J3,15*
G04 #@! TO.N,GND*
X155250000Y-119400000D03*
G04 #@! TO.P,J3,14*
G04 #@! TO.N,Net-(J3-Pad14)*
X155750000Y-119400000D03*
G04 #@! TO.P,J3,13*
G04 #@! TO.N,Net-(J3-Pad13)*
X156250000Y-119400000D03*
G04 #@! TO.P,J3,12*
G04 #@! TO.N,GND*
X156750000Y-119400000D03*
G04 #@! TO.P,J3,11*
G04 #@! TO.N,/CAM_L_CLK_P*
X157250000Y-119400000D03*
G04 #@! TO.P,J3,10*
G04 #@! TO.N,/CAM_L_CLK_N*
X157750000Y-119400000D03*
G04 #@! TO.P,J3,9*
G04 #@! TO.N,GND*
X158250000Y-119400000D03*
G04 #@! TO.P,J3,8*
G04 #@! TO.N,/CAM_L_D0_P*
X158750000Y-119400000D03*
G04 #@! TO.P,J3,7*
G04 #@! TO.N,/CAM_L_D0_N*
X159250000Y-119400000D03*
G04 #@! TO.P,J3,6*
G04 #@! TO.N,/CAM_L_D1_P*
X159750000Y-119400000D03*
G04 #@! TO.P,J3,5*
G04 #@! TO.N,/CAM_L_D1_N*
X160250000Y-119400000D03*
G04 #@! TO.P,J3,4*
G04 #@! TO.N,Net-(J3-Pad4)*
X160750000Y-119400000D03*
G04 #@! TO.P,J3,3*
G04 #@! TO.N,Net-(J3-Pad3)*
X161250000Y-119400000D03*
G04 #@! TO.P,J3,2*
G04 #@! TO.N,Net-(J3-Pad2)*
X161750000Y-119400000D03*
G04 #@! TO.P,J3,1*
G04 #@! TO.N,Net-(J3-Pad1)*
X162250000Y-119400000D03*
G04 #@! TD*
D10*
G04 #@! TO.N,Net-(R1-Pad1)*
G04 #@! TO.C,R5*
G36*
X128916958Y-123124710D02*
X128931276Y-123126834D01*
X128945317Y-123130351D01*
X128958946Y-123135228D01*
X128972031Y-123141417D01*
X128984447Y-123148858D01*
X128996073Y-123157481D01*
X129006798Y-123167202D01*
X129016519Y-123177927D01*
X129025142Y-123189553D01*
X129032583Y-123201969D01*
X129038772Y-123215054D01*
X129043649Y-123228683D01*
X129047166Y-123242724D01*
X129049290Y-123257042D01*
X129050000Y-123271500D01*
X129050000Y-123616500D01*
X129049290Y-123630958D01*
X129047166Y-123645276D01*
X129043649Y-123659317D01*
X129038772Y-123672946D01*
X129032583Y-123686031D01*
X129025142Y-123698447D01*
X129016519Y-123710073D01*
X129006798Y-123720798D01*
X128996073Y-123730519D01*
X128984447Y-123739142D01*
X128972031Y-123746583D01*
X128958946Y-123752772D01*
X128945317Y-123757649D01*
X128931276Y-123761166D01*
X128916958Y-123763290D01*
X128902500Y-123764000D01*
X128607500Y-123764000D01*
X128593042Y-123763290D01*
X128578724Y-123761166D01*
X128564683Y-123757649D01*
X128551054Y-123752772D01*
X128537969Y-123746583D01*
X128525553Y-123739142D01*
X128513927Y-123730519D01*
X128503202Y-123720798D01*
X128493481Y-123710073D01*
X128484858Y-123698447D01*
X128477417Y-123686031D01*
X128471228Y-123672946D01*
X128466351Y-123659317D01*
X128462834Y-123645276D01*
X128460710Y-123630958D01*
X128460000Y-123616500D01*
X128460000Y-123271500D01*
X128460710Y-123257042D01*
X128462834Y-123242724D01*
X128466351Y-123228683D01*
X128471228Y-123215054D01*
X128477417Y-123201969D01*
X128484858Y-123189553D01*
X128493481Y-123177927D01*
X128503202Y-123167202D01*
X128513927Y-123157481D01*
X128525553Y-123148858D01*
X128537969Y-123141417D01*
X128551054Y-123135228D01*
X128564683Y-123130351D01*
X128578724Y-123126834D01*
X128593042Y-123124710D01*
X128607500Y-123124000D01*
X128902500Y-123124000D01*
X128916958Y-123124710D01*
X128916958Y-123124710D01*
G37*
D11*
G04 #@! TD*
G04 #@! TO.P,R5,2*
G04 #@! TO.N,Net-(R1-Pad1)*
X128755000Y-123444000D03*
D10*
G04 #@! TO.N,+3V3*
G04 #@! TO.C,R5*
G36*
X127946958Y-123124710D02*
X127961276Y-123126834D01*
X127975317Y-123130351D01*
X127988946Y-123135228D01*
X128002031Y-123141417D01*
X128014447Y-123148858D01*
X128026073Y-123157481D01*
X128036798Y-123167202D01*
X128046519Y-123177927D01*
X128055142Y-123189553D01*
X128062583Y-123201969D01*
X128068772Y-123215054D01*
X128073649Y-123228683D01*
X128077166Y-123242724D01*
X128079290Y-123257042D01*
X128080000Y-123271500D01*
X128080000Y-123616500D01*
X128079290Y-123630958D01*
X128077166Y-123645276D01*
X128073649Y-123659317D01*
X128068772Y-123672946D01*
X128062583Y-123686031D01*
X128055142Y-123698447D01*
X128046519Y-123710073D01*
X128036798Y-123720798D01*
X128026073Y-123730519D01*
X128014447Y-123739142D01*
X128002031Y-123746583D01*
X127988946Y-123752772D01*
X127975317Y-123757649D01*
X127961276Y-123761166D01*
X127946958Y-123763290D01*
X127932500Y-123764000D01*
X127637500Y-123764000D01*
X127623042Y-123763290D01*
X127608724Y-123761166D01*
X127594683Y-123757649D01*
X127581054Y-123752772D01*
X127567969Y-123746583D01*
X127555553Y-123739142D01*
X127543927Y-123730519D01*
X127533202Y-123720798D01*
X127523481Y-123710073D01*
X127514858Y-123698447D01*
X127507417Y-123686031D01*
X127501228Y-123672946D01*
X127496351Y-123659317D01*
X127492834Y-123645276D01*
X127490710Y-123630958D01*
X127490000Y-123616500D01*
X127490000Y-123271500D01*
X127490710Y-123257042D01*
X127492834Y-123242724D01*
X127496351Y-123228683D01*
X127501228Y-123215054D01*
X127507417Y-123201969D01*
X127514858Y-123189553D01*
X127523481Y-123177927D01*
X127533202Y-123167202D01*
X127543927Y-123157481D01*
X127555553Y-123148858D01*
X127567969Y-123141417D01*
X127581054Y-123135228D01*
X127594683Y-123130351D01*
X127608724Y-123126834D01*
X127623042Y-123124710D01*
X127637500Y-123124000D01*
X127932500Y-123124000D01*
X127946958Y-123124710D01*
X127946958Y-123124710D01*
G37*
D11*
G04 #@! TD*
G04 #@! TO.P,R5,1*
G04 #@! TO.N,+3V3*
X127785000Y-123444000D03*
D10*
G04 #@! TO.N,/M1_CAM_SDA*
G04 #@! TO.C,R4*
G36*
X128959957Y-121697711D02*
X128974275Y-121699835D01*
X128988316Y-121703352D01*
X129001945Y-121708229D01*
X129015030Y-121714418D01*
X129027446Y-121721859D01*
X129039072Y-121730482D01*
X129049797Y-121740203D01*
X129059518Y-121750928D01*
X129068141Y-121762554D01*
X129075582Y-121774970D01*
X129081771Y-121788055D01*
X129086648Y-121801684D01*
X129090165Y-121815725D01*
X129092289Y-121830043D01*
X129092999Y-121844501D01*
X129092999Y-122189501D01*
X129092289Y-122203959D01*
X129090165Y-122218277D01*
X129086648Y-122232318D01*
X129081771Y-122245947D01*
X129075582Y-122259032D01*
X129068141Y-122271448D01*
X129059518Y-122283074D01*
X129049797Y-122293799D01*
X129039072Y-122303520D01*
X129027446Y-122312143D01*
X129015030Y-122319584D01*
X129001945Y-122325773D01*
X128988316Y-122330650D01*
X128974275Y-122334167D01*
X128959957Y-122336291D01*
X128945499Y-122337001D01*
X128650499Y-122337001D01*
X128636041Y-122336291D01*
X128621723Y-122334167D01*
X128607682Y-122330650D01*
X128594053Y-122325773D01*
X128580968Y-122319584D01*
X128568552Y-122312143D01*
X128556926Y-122303520D01*
X128546201Y-122293799D01*
X128536480Y-122283074D01*
X128527857Y-122271448D01*
X128520416Y-122259032D01*
X128514227Y-122245947D01*
X128509350Y-122232318D01*
X128505833Y-122218277D01*
X128503709Y-122203959D01*
X128502999Y-122189501D01*
X128502999Y-121844501D01*
X128503709Y-121830043D01*
X128505833Y-121815725D01*
X128509350Y-121801684D01*
X128514227Y-121788055D01*
X128520416Y-121774970D01*
X128527857Y-121762554D01*
X128536480Y-121750928D01*
X128546201Y-121740203D01*
X128556926Y-121730482D01*
X128568552Y-121721859D01*
X128580968Y-121714418D01*
X128594053Y-121708229D01*
X128607682Y-121703352D01*
X128621723Y-121699835D01*
X128636041Y-121697711D01*
X128650499Y-121697001D01*
X128945499Y-121697001D01*
X128959957Y-121697711D01*
X128959957Y-121697711D01*
G37*
D11*
G04 #@! TD*
G04 #@! TO.P,R4,2*
G04 #@! TO.N,/M1_CAM_SDA*
X128797999Y-122017001D03*
D10*
G04 #@! TO.N,Net-(R1-Pad1)*
G04 #@! TO.C,R4*
G36*
X127989957Y-121697711D02*
X128004275Y-121699835D01*
X128018316Y-121703352D01*
X128031945Y-121708229D01*
X128045030Y-121714418D01*
X128057446Y-121721859D01*
X128069072Y-121730482D01*
X128079797Y-121740203D01*
X128089518Y-121750928D01*
X128098141Y-121762554D01*
X128105582Y-121774970D01*
X128111771Y-121788055D01*
X128116648Y-121801684D01*
X128120165Y-121815725D01*
X128122289Y-121830043D01*
X128122999Y-121844501D01*
X128122999Y-122189501D01*
X128122289Y-122203959D01*
X128120165Y-122218277D01*
X128116648Y-122232318D01*
X128111771Y-122245947D01*
X128105582Y-122259032D01*
X128098141Y-122271448D01*
X128089518Y-122283074D01*
X128079797Y-122293799D01*
X128069072Y-122303520D01*
X128057446Y-122312143D01*
X128045030Y-122319584D01*
X128031945Y-122325773D01*
X128018316Y-122330650D01*
X128004275Y-122334167D01*
X127989957Y-122336291D01*
X127975499Y-122337001D01*
X127680499Y-122337001D01*
X127666041Y-122336291D01*
X127651723Y-122334167D01*
X127637682Y-122330650D01*
X127624053Y-122325773D01*
X127610968Y-122319584D01*
X127598552Y-122312143D01*
X127586926Y-122303520D01*
X127576201Y-122293799D01*
X127566480Y-122283074D01*
X127557857Y-122271448D01*
X127550416Y-122259032D01*
X127544227Y-122245947D01*
X127539350Y-122232318D01*
X127535833Y-122218277D01*
X127533709Y-122203959D01*
X127532999Y-122189501D01*
X127532999Y-121844501D01*
X127533709Y-121830043D01*
X127535833Y-121815725D01*
X127539350Y-121801684D01*
X127544227Y-121788055D01*
X127550416Y-121774970D01*
X127557857Y-121762554D01*
X127566480Y-121750928D01*
X127576201Y-121740203D01*
X127586926Y-121730482D01*
X127598552Y-121721859D01*
X127610968Y-121714418D01*
X127624053Y-121708229D01*
X127637682Y-121703352D01*
X127651723Y-121699835D01*
X127666041Y-121697711D01*
X127680499Y-121697001D01*
X127975499Y-121697001D01*
X127989957Y-121697711D01*
X127989957Y-121697711D01*
G37*
D11*
G04 #@! TD*
G04 #@! TO.P,R4,1*
G04 #@! TO.N,Net-(R1-Pad1)*
X127827999Y-122017001D03*
D10*
G04 #@! TO.N,/M1_CAM_SCL*
G04 #@! TO.C,R3*
G36*
X128959957Y-120085961D02*
X128974275Y-120088085D01*
X128988316Y-120091602D01*
X129001945Y-120096479D01*
X129015030Y-120102668D01*
X129027446Y-120110109D01*
X129039072Y-120118732D01*
X129049797Y-120128453D01*
X129059518Y-120139178D01*
X129068141Y-120150804D01*
X129075582Y-120163220D01*
X129081771Y-120176305D01*
X129086648Y-120189934D01*
X129090165Y-120203975D01*
X129092289Y-120218293D01*
X129092999Y-120232751D01*
X129092999Y-120577751D01*
X129092289Y-120592209D01*
X129090165Y-120606527D01*
X129086648Y-120620568D01*
X129081771Y-120634197D01*
X129075582Y-120647282D01*
X129068141Y-120659698D01*
X129059518Y-120671324D01*
X129049797Y-120682049D01*
X129039072Y-120691770D01*
X129027446Y-120700393D01*
X129015030Y-120707834D01*
X129001945Y-120714023D01*
X128988316Y-120718900D01*
X128974275Y-120722417D01*
X128959957Y-120724541D01*
X128945499Y-120725251D01*
X128650499Y-120725251D01*
X128636041Y-120724541D01*
X128621723Y-120722417D01*
X128607682Y-120718900D01*
X128594053Y-120714023D01*
X128580968Y-120707834D01*
X128568552Y-120700393D01*
X128556926Y-120691770D01*
X128546201Y-120682049D01*
X128536480Y-120671324D01*
X128527857Y-120659698D01*
X128520416Y-120647282D01*
X128514227Y-120634197D01*
X128509350Y-120620568D01*
X128505833Y-120606527D01*
X128503709Y-120592209D01*
X128502999Y-120577751D01*
X128502999Y-120232751D01*
X128503709Y-120218293D01*
X128505833Y-120203975D01*
X128509350Y-120189934D01*
X128514227Y-120176305D01*
X128520416Y-120163220D01*
X128527857Y-120150804D01*
X128536480Y-120139178D01*
X128546201Y-120128453D01*
X128556926Y-120118732D01*
X128568552Y-120110109D01*
X128580968Y-120102668D01*
X128594053Y-120096479D01*
X128607682Y-120091602D01*
X128621723Y-120088085D01*
X128636041Y-120085961D01*
X128650499Y-120085251D01*
X128945499Y-120085251D01*
X128959957Y-120085961D01*
X128959957Y-120085961D01*
G37*
D11*
G04 #@! TD*
G04 #@! TO.P,R3,2*
G04 #@! TO.N,/M1_CAM_SCL*
X128797999Y-120405251D03*
D10*
G04 #@! TO.N,Net-(R1-Pad1)*
G04 #@! TO.C,R3*
G36*
X127989957Y-120085961D02*
X128004275Y-120088085D01*
X128018316Y-120091602D01*
X128031945Y-120096479D01*
X128045030Y-120102668D01*
X128057446Y-120110109D01*
X128069072Y-120118732D01*
X128079797Y-120128453D01*
X128089518Y-120139178D01*
X128098141Y-120150804D01*
X128105582Y-120163220D01*
X128111771Y-120176305D01*
X128116648Y-120189934D01*
X128120165Y-120203975D01*
X128122289Y-120218293D01*
X128122999Y-120232751D01*
X128122999Y-120577751D01*
X128122289Y-120592209D01*
X128120165Y-120606527D01*
X128116648Y-120620568D01*
X128111771Y-120634197D01*
X128105582Y-120647282D01*
X128098141Y-120659698D01*
X128089518Y-120671324D01*
X128079797Y-120682049D01*
X128069072Y-120691770D01*
X128057446Y-120700393D01*
X128045030Y-120707834D01*
X128031945Y-120714023D01*
X128018316Y-120718900D01*
X128004275Y-120722417D01*
X127989957Y-120724541D01*
X127975499Y-120725251D01*
X127680499Y-120725251D01*
X127666041Y-120724541D01*
X127651723Y-120722417D01*
X127637682Y-120718900D01*
X127624053Y-120714023D01*
X127610968Y-120707834D01*
X127598552Y-120700393D01*
X127586926Y-120691770D01*
X127576201Y-120682049D01*
X127566480Y-120671324D01*
X127557857Y-120659698D01*
X127550416Y-120647282D01*
X127544227Y-120634197D01*
X127539350Y-120620568D01*
X127535833Y-120606527D01*
X127533709Y-120592209D01*
X127532999Y-120577751D01*
X127532999Y-120232751D01*
X127533709Y-120218293D01*
X127535833Y-120203975D01*
X127539350Y-120189934D01*
X127544227Y-120176305D01*
X127550416Y-120163220D01*
X127557857Y-120150804D01*
X127566480Y-120139178D01*
X127576201Y-120128453D01*
X127586926Y-120118732D01*
X127598552Y-120110109D01*
X127610968Y-120102668D01*
X127624053Y-120096479D01*
X127637682Y-120091602D01*
X127651723Y-120088085D01*
X127666041Y-120085961D01*
X127680499Y-120085251D01*
X127975499Y-120085251D01*
X127989957Y-120085961D01*
X127989957Y-120085961D01*
G37*
D11*
G04 #@! TD*
G04 #@! TO.P,R3,1*
G04 #@! TO.N,Net-(R1-Pad1)*
X127827999Y-120405251D03*
D10*
G04 #@! TO.N,/M2_CAM_SDA*
G04 #@! TO.C,R2*
G36*
X128959957Y-118474211D02*
X128974275Y-118476335D01*
X128988316Y-118479852D01*
X129001945Y-118484729D01*
X129015030Y-118490918D01*
X129027446Y-118498359D01*
X129039072Y-118506982D01*
X129049797Y-118516703D01*
X129059518Y-118527428D01*
X129068141Y-118539054D01*
X129075582Y-118551470D01*
X129081771Y-118564555D01*
X129086648Y-118578184D01*
X129090165Y-118592225D01*
X129092289Y-118606543D01*
X129092999Y-118621001D01*
X129092999Y-118966001D01*
X129092289Y-118980459D01*
X129090165Y-118994777D01*
X129086648Y-119008818D01*
X129081771Y-119022447D01*
X129075582Y-119035532D01*
X129068141Y-119047948D01*
X129059518Y-119059574D01*
X129049797Y-119070299D01*
X129039072Y-119080020D01*
X129027446Y-119088643D01*
X129015030Y-119096084D01*
X129001945Y-119102273D01*
X128988316Y-119107150D01*
X128974275Y-119110667D01*
X128959957Y-119112791D01*
X128945499Y-119113501D01*
X128650499Y-119113501D01*
X128636041Y-119112791D01*
X128621723Y-119110667D01*
X128607682Y-119107150D01*
X128594053Y-119102273D01*
X128580968Y-119096084D01*
X128568552Y-119088643D01*
X128556926Y-119080020D01*
X128546201Y-119070299D01*
X128536480Y-119059574D01*
X128527857Y-119047948D01*
X128520416Y-119035532D01*
X128514227Y-119022447D01*
X128509350Y-119008818D01*
X128505833Y-118994777D01*
X128503709Y-118980459D01*
X128502999Y-118966001D01*
X128502999Y-118621001D01*
X128503709Y-118606543D01*
X128505833Y-118592225D01*
X128509350Y-118578184D01*
X128514227Y-118564555D01*
X128520416Y-118551470D01*
X128527857Y-118539054D01*
X128536480Y-118527428D01*
X128546201Y-118516703D01*
X128556926Y-118506982D01*
X128568552Y-118498359D01*
X128580968Y-118490918D01*
X128594053Y-118484729D01*
X128607682Y-118479852D01*
X128621723Y-118476335D01*
X128636041Y-118474211D01*
X128650499Y-118473501D01*
X128945499Y-118473501D01*
X128959957Y-118474211D01*
X128959957Y-118474211D01*
G37*
D11*
G04 #@! TD*
G04 #@! TO.P,R2,2*
G04 #@! TO.N,/M2_CAM_SDA*
X128797999Y-118793501D03*
D10*
G04 #@! TO.N,Net-(R1-Pad1)*
G04 #@! TO.C,R2*
G36*
X127989957Y-118474211D02*
X128004275Y-118476335D01*
X128018316Y-118479852D01*
X128031945Y-118484729D01*
X128045030Y-118490918D01*
X128057446Y-118498359D01*
X128069072Y-118506982D01*
X128079797Y-118516703D01*
X128089518Y-118527428D01*
X128098141Y-118539054D01*
X128105582Y-118551470D01*
X128111771Y-118564555D01*
X128116648Y-118578184D01*
X128120165Y-118592225D01*
X128122289Y-118606543D01*
X128122999Y-118621001D01*
X128122999Y-118966001D01*
X128122289Y-118980459D01*
X128120165Y-118994777D01*
X128116648Y-119008818D01*
X128111771Y-119022447D01*
X128105582Y-119035532D01*
X128098141Y-119047948D01*
X128089518Y-119059574D01*
X128079797Y-119070299D01*
X128069072Y-119080020D01*
X128057446Y-119088643D01*
X128045030Y-119096084D01*
X128031945Y-119102273D01*
X128018316Y-119107150D01*
X128004275Y-119110667D01*
X127989957Y-119112791D01*
X127975499Y-119113501D01*
X127680499Y-119113501D01*
X127666041Y-119112791D01*
X127651723Y-119110667D01*
X127637682Y-119107150D01*
X127624053Y-119102273D01*
X127610968Y-119096084D01*
X127598552Y-119088643D01*
X127586926Y-119080020D01*
X127576201Y-119070299D01*
X127566480Y-119059574D01*
X127557857Y-119047948D01*
X127550416Y-119035532D01*
X127544227Y-119022447D01*
X127539350Y-119008818D01*
X127535833Y-118994777D01*
X127533709Y-118980459D01*
X127532999Y-118966001D01*
X127532999Y-118621001D01*
X127533709Y-118606543D01*
X127535833Y-118592225D01*
X127539350Y-118578184D01*
X127544227Y-118564555D01*
X127550416Y-118551470D01*
X127557857Y-118539054D01*
X127566480Y-118527428D01*
X127576201Y-118516703D01*
X127586926Y-118506982D01*
X127598552Y-118498359D01*
X127610968Y-118490918D01*
X127624053Y-118484729D01*
X127637682Y-118479852D01*
X127651723Y-118476335D01*
X127666041Y-118474211D01*
X127680499Y-118473501D01*
X127975499Y-118473501D01*
X127989957Y-118474211D01*
X127989957Y-118474211D01*
G37*
D11*
G04 #@! TD*
G04 #@! TO.P,R2,1*
G04 #@! TO.N,Net-(R1-Pad1)*
X127827999Y-118793501D03*
D10*
G04 #@! TO.N,/M2_CAM_SCL*
G04 #@! TO.C,R1*
G36*
X128959957Y-116862461D02*
X128974275Y-116864585D01*
X128988316Y-116868102D01*
X129001945Y-116872979D01*
X129015030Y-116879168D01*
X129027446Y-116886609D01*
X129039072Y-116895232D01*
X129049797Y-116904953D01*
X129059518Y-116915678D01*
X129068141Y-116927304D01*
X129075582Y-116939720D01*
X129081771Y-116952805D01*
X129086648Y-116966434D01*
X129090165Y-116980475D01*
X129092289Y-116994793D01*
X129092999Y-117009251D01*
X129092999Y-117354251D01*
X129092289Y-117368709D01*
X129090165Y-117383027D01*
X129086648Y-117397068D01*
X129081771Y-117410697D01*
X129075582Y-117423782D01*
X129068141Y-117436198D01*
X129059518Y-117447824D01*
X129049797Y-117458549D01*
X129039072Y-117468270D01*
X129027446Y-117476893D01*
X129015030Y-117484334D01*
X129001945Y-117490523D01*
X128988316Y-117495400D01*
X128974275Y-117498917D01*
X128959957Y-117501041D01*
X128945499Y-117501751D01*
X128650499Y-117501751D01*
X128636041Y-117501041D01*
X128621723Y-117498917D01*
X128607682Y-117495400D01*
X128594053Y-117490523D01*
X128580968Y-117484334D01*
X128568552Y-117476893D01*
X128556926Y-117468270D01*
X128546201Y-117458549D01*
X128536480Y-117447824D01*
X128527857Y-117436198D01*
X128520416Y-117423782D01*
X128514227Y-117410697D01*
X128509350Y-117397068D01*
X128505833Y-117383027D01*
X128503709Y-117368709D01*
X128502999Y-117354251D01*
X128502999Y-117009251D01*
X128503709Y-116994793D01*
X128505833Y-116980475D01*
X128509350Y-116966434D01*
X128514227Y-116952805D01*
X128520416Y-116939720D01*
X128527857Y-116927304D01*
X128536480Y-116915678D01*
X128546201Y-116904953D01*
X128556926Y-116895232D01*
X128568552Y-116886609D01*
X128580968Y-116879168D01*
X128594053Y-116872979D01*
X128607682Y-116868102D01*
X128621723Y-116864585D01*
X128636041Y-116862461D01*
X128650499Y-116861751D01*
X128945499Y-116861751D01*
X128959957Y-116862461D01*
X128959957Y-116862461D01*
G37*
D11*
G04 #@! TD*
G04 #@! TO.P,R1,2*
G04 #@! TO.N,/M2_CAM_SCL*
X128797999Y-117181751D03*
D10*
G04 #@! TO.N,Net-(R1-Pad1)*
G04 #@! TO.C,R1*
G36*
X127989957Y-116862461D02*
X128004275Y-116864585D01*
X128018316Y-116868102D01*
X128031945Y-116872979D01*
X128045030Y-116879168D01*
X128057446Y-116886609D01*
X128069072Y-116895232D01*
X128079797Y-116904953D01*
X128089518Y-116915678D01*
X128098141Y-116927304D01*
X128105582Y-116939720D01*
X128111771Y-116952805D01*
X128116648Y-116966434D01*
X128120165Y-116980475D01*
X128122289Y-116994793D01*
X128122999Y-117009251D01*
X128122999Y-117354251D01*
X128122289Y-117368709D01*
X128120165Y-117383027D01*
X128116648Y-117397068D01*
X128111771Y-117410697D01*
X128105582Y-117423782D01*
X128098141Y-117436198D01*
X128089518Y-117447824D01*
X128079797Y-117458549D01*
X128069072Y-117468270D01*
X128057446Y-117476893D01*
X128045030Y-117484334D01*
X128031945Y-117490523D01*
X128018316Y-117495400D01*
X128004275Y-117498917D01*
X127989957Y-117501041D01*
X127975499Y-117501751D01*
X127680499Y-117501751D01*
X127666041Y-117501041D01*
X127651723Y-117498917D01*
X127637682Y-117495400D01*
X127624053Y-117490523D01*
X127610968Y-117484334D01*
X127598552Y-117476893D01*
X127586926Y-117468270D01*
X127576201Y-117458549D01*
X127566480Y-117447824D01*
X127557857Y-117436198D01*
X127550416Y-117423782D01*
X127544227Y-117410697D01*
X127539350Y-117397068D01*
X127535833Y-117383027D01*
X127533709Y-117368709D01*
X127532999Y-117354251D01*
X127532999Y-117009251D01*
X127533709Y-116994793D01*
X127535833Y-116980475D01*
X127539350Y-116966434D01*
X127544227Y-116952805D01*
X127550416Y-116939720D01*
X127557857Y-116927304D01*
X127566480Y-116915678D01*
X127576201Y-116904953D01*
X127586926Y-116895232D01*
X127598552Y-116886609D01*
X127610968Y-116879168D01*
X127624053Y-116872979D01*
X127637682Y-116868102D01*
X127651723Y-116864585D01*
X127666041Y-116862461D01*
X127680499Y-116861751D01*
X127975499Y-116861751D01*
X127989957Y-116862461D01*
X127989957Y-116862461D01*
G37*
D11*
G04 #@! TD*
G04 #@! TO.P,R1,1*
G04 #@! TO.N,Net-(R1-Pad1)*
X127827999Y-117181751D03*
D13*
G04 #@! TO.P,IC3,5*
G04 #@! TO.N,+1V2*
X182678000Y-122640000D03*
G04 #@! TO.P,IC3,4*
G04 #@! TO.N,N/C*
X182678000Y-120740000D03*
G04 #@! TO.P,IC3,1*
G04 #@! TO.N,+3V3*
X185378000Y-122640000D03*
G04 #@! TO.P,IC3,2*
G04 #@! TO.N,GND*
X185378000Y-121690000D03*
G04 #@! TO.P,IC3,3*
G04 #@! TO.N,+3V3*
X185378000Y-120740000D03*
G04 #@! TD*
D15*
G04 #@! TO.P,C4,1*
G04 #@! TO.N,+2V8*
X109956000Y-122924000D03*
G04 #@! TO.P,C4,2*
G04 #@! TO.N,GND*
X109956000Y-121524000D03*
G04 #@! TD*
G04 #@! TO.P,C5,1*
G04 #@! TO.N,+1V8*
X111267797Y-104740280D03*
G04 #@! TO.P,C5,2*
G04 #@! TO.N,GND*
X111267797Y-103340280D03*
G04 #@! TD*
G04 #@! TO.P,C6,1*
G04 #@! TO.N,+1V2*
X180728000Y-122640000D03*
G04 #@! TO.P,C6,2*
G04 #@! TO.N,GND*
X180728000Y-121240000D03*
G04 #@! TD*
D16*
G04 #@! TO.P,C2,1*
G04 #@! TO.N,+3V3*
X118994000Y-102844000D03*
G04 #@! TO.P,C2,2*
G04 #@! TO.N,GND*
X118994000Y-104944000D03*
G04 #@! TD*
G04 #@! TO.P,C1,1*
G04 #@! TO.N,+3V3*
X117656000Y-121024000D03*
G04 #@! TO.P,C1,2*
G04 #@! TO.N,GND*
X117656000Y-123124000D03*
G04 #@! TD*
G04 #@! TO.P,C3,1*
G04 #@! TO.N,+3V3*
X187878000Y-122640000D03*
G04 #@! TO.P,C3,2*
G04 #@! TO.N,GND*
X187878000Y-120540000D03*
G04 #@! TD*
D12*
G04 #@! TO.P,Y1,4*
G04 #@! TO.N,+1V8*
X186019164Y-113601700D03*
G04 #@! TO.P,Y1,1*
X186019164Y-111401700D03*
G04 #@! TO.P,Y1,3*
G04 #@! TO.N,/M1_MCLK*
X183479164Y-113601700D03*
G04 #@! TO.P,Y1,2*
G04 #@! TO.N,GND*
X183479164Y-111401700D03*
G04 #@! TD*
D13*
G04 #@! TO.P,IC1,5*
G04 #@! TO.N,+2V8*
X112656000Y-122924000D03*
G04 #@! TO.P,IC1,4*
G04 #@! TO.N,N/C*
X112656000Y-121024000D03*
G04 #@! TO.P,IC1,1*
G04 #@! TO.N,+3V3*
X115356000Y-122924000D03*
G04 #@! TO.P,IC1,2*
G04 #@! TO.N,GND*
X115356000Y-121974000D03*
G04 #@! TO.P,IC1,3*
G04 #@! TO.N,+3V3*
X115356000Y-121024000D03*
G04 #@! TD*
D23*
G04 #@! TO.N,GND*
X190178000Y-120540000D03*
X184028000Y-123590000D03*
X119302500Y-123136000D03*
X108802500Y-106680000D03*
X111252500Y-102386000D03*
X120402500Y-104536000D03*
X112002500Y-119010990D03*
X128102500Y-114036000D03*
X158252500Y-121136000D03*
X156752500Y-121136000D03*
X155252500Y-121136000D03*
X153752500Y-121086000D03*
X149252500Y-120986000D03*
X147752500Y-120986000D03*
X181452500Y-119136000D03*
X179128000Y-121240000D03*
X169552500Y-109986000D03*
X180202500Y-105136000D03*
X106852502Y-123086000D03*
X112952500Y-107586000D03*
X105659361Y-122944832D03*
X185552500Y-105285998D03*
G04 #@! TO.N,+3V3*
X119102500Y-120986000D03*
X114152500Y-122936000D03*
X126802500Y-123436000D03*
X138052500Y-120736000D03*
X138652500Y-121436000D03*
X190152500Y-122586000D03*
X168052500Y-122385998D03*
X186552500Y-121636000D03*
X128652500Y-108386000D03*
X121152500Y-101486000D03*
X128652500Y-101585994D03*
G04 #@! TO.N,+2V8*
X173352500Y-111936000D03*
X102521736Y-113785335D03*
X101452500Y-114886000D03*
G04 #@! TO.N,+1V8*
X112752500Y-106034577D03*
X110102500Y-104736000D03*
X188502500Y-103086000D03*
X189752500Y-105036000D03*
X172552500Y-105336000D03*
X168352500Y-105436000D03*
X187602494Y-106286000D03*
X126852500Y-108186000D03*
X117252500Y-108086000D03*
X102352500Y-107886000D03*
G04 #@! TO.N,+1V2*
X102552500Y-117286000D03*
X175502500Y-118936000D03*
X170452500Y-117486000D03*
G04 #@! TO.N,/CAM_L_D1_P*
X165532500Y-106926000D03*
G04 #@! TO.N,/CAM_L_D1_N*
X165942500Y-107646000D03*
G04 #@! TO.N,/CAM_R_D1_N*
X125102500Y-104996000D03*
G04 #@! TO.N,/CAM_R_D1_P*
X125112500Y-105736000D03*
G04 #@! TO.N,/CAM_L_CLK_P*
X156012500Y-117836000D03*
G04 #@! TO.N,/CAM_L_CLK_N*
X156022500Y-116966000D03*
G04 #@! TO.N,/CAM_R_CLK_N*
X114542500Y-107546000D03*
G04 #@! TO.N,/CAM_R_CLK_P*
X115042500Y-108136000D03*
G04 #@! TO.N,/CAM_L_D0_N*
X158242500Y-117056000D03*
G04 #@! TO.N,/CAM_L_D0_P*
X158212500Y-117916000D03*
G04 #@! TO.N,/CAM_R_D0_N*
X114102500Y-106266000D03*
G04 #@! TO.N,/CAM_R_D0_P*
X114632500Y-106836000D03*
G04 #@! TO.N,/M1_DOVDD*
X186990000Y-114820000D03*
X183140000Y-110020000D03*
X180225000Y-112525000D03*
X185619792Y-109207262D03*
G04 #@! TO.N,/M1_AGND*
X187752500Y-111586000D03*
X188190000Y-113320000D03*
X188602500Y-110386000D03*
G04 #@! TO.N,/M1_DVDD*
X183060000Y-115240000D03*
X181760000Y-110360000D03*
X181460000Y-114020000D03*
X188921426Y-113033159D03*
X186172500Y-108596000D03*
X185090009Y-109960000D03*
G04 #@! TO.N,/M1_AVDD*
X187730000Y-114660000D03*
X187952500Y-110886000D03*
X181440000Y-113290000D03*
G04 #@! TO.N,/M1_DGND*
X186822500Y-115596000D03*
X183790000Y-115100000D03*
X182430000Y-109940000D03*
X182270000Y-114980000D03*
X183920000Y-116010000D03*
X181609254Y-111291699D03*
G04 #@! TO.N,/M1_VN3*
X188702520Y-111286000D03*
G04 #@! TO.N,/M1_VH*
X189502500Y-111386000D03*
G04 #@! TO.N,/M1_VN2*
X189652500Y-112536004D03*
G04 #@! TO.N,/M1_SID*
X181025000Y-112036000D03*
G04 #@! TO.N,/M1_MCLK*
X180825000Y-111300000D03*
G04 #@! TO.N,/M1_PVDD*
X185852500Y-115636000D03*
G04 #@! TO.N,/M1_VN1*
X188752500Y-114436000D03*
G04 #@! TO.N,/M2_DOVDD*
X116992500Y-114820000D03*
X113262500Y-109866000D03*
X115992500Y-109996000D03*
X110352521Y-112473811D03*
G04 #@! TO.N,/M2_AGND*
X103852500Y-113686000D03*
X122652500Y-118386000D03*
X118482500Y-113276000D03*
X123052500Y-109885992D03*
X123152500Y-111586000D03*
X123152500Y-113286000D03*
X123152500Y-114985994D03*
X123152500Y-116786000D03*
X101436159Y-113161289D03*
X118234294Y-109767794D03*
G04 #@! TO.N,/M2_DVDD*
X111462500Y-114020000D03*
X113062500Y-115240000D03*
X119872500Y-113286000D03*
X118712500Y-110946000D03*
X115152500Y-109286000D03*
X111652500Y-109786000D03*
X114952500Y-114886000D03*
G04 #@! TO.N,/M2_AVDD*
X117702500Y-110970000D03*
X111442500Y-113290000D03*
X119126000Y-116486002D03*
X108152500Y-115130000D03*
G04 #@! TO.N,/M2_DGND*
X112471751Y-109936215D03*
X109152500Y-109586000D03*
X114952500Y-118986000D03*
X113552500Y-118986000D03*
X106952496Y-117886000D03*
X108352500Y-118086000D03*
X113852500Y-114886000D03*
X117052500Y-118486000D03*
X108052500Y-110186000D03*
X108052502Y-109286000D03*
X117062500Y-115986000D03*
X111456145Y-110782590D03*
G04 #@! TO.N,/M2_VN3*
X118525000Y-111806000D03*
G04 #@! TO.N,/M2_VH*
X120295000Y-110786000D03*
G04 #@! TO.N,/M2_CAM_SCL_1V8*
X111002500Y-115686000D03*
G04 #@! TO.N,/M2_VN2*
X120265000Y-112536000D03*
G04 #@! TO.N,/M2_SID*
X108745000Y-112636000D03*
G04 #@! TO.N,/M2_MCLK_M*
X110562500Y-111476000D03*
G04 #@! TO.N,/M2_PVDD*
X116277500Y-115750000D03*
G04 #@! TO.N,/M2_VN1*
X119042500Y-113926000D03*
G04 #@! TO.N,/M2_CAM_SDA_1V8*
X114352500Y-115536000D03*
G04 #@! TD*
D10*
G04 #@! TO.N,GND*
X180728000Y-121240000D02*
X179128000Y-121240000D01*
D24*
X119290500Y-123124000D02*
X119302500Y-123136000D01*
D25*
X117068000Y-122536000D02*
X117656000Y-123124000D01*
X115356000Y-121974000D02*
X116506000Y-121974000D01*
X116506000Y-121974000D02*
X117068000Y-122536000D01*
X117668000Y-123136000D02*
X117656000Y-123124000D01*
X119302500Y-123136000D02*
X117668000Y-123136000D01*
X109790000Y-106680000D02*
X108802500Y-106680000D01*
X111267797Y-103340280D02*
X111267797Y-102401297D01*
X111267797Y-102401297D02*
X111252500Y-102386000D01*
X118486000Y-104436000D02*
X118994000Y-104944000D01*
X116217797Y-103790280D02*
X117840280Y-103790280D01*
X117840280Y-103790280D02*
X118486000Y-104436000D01*
X118994000Y-104944000D02*
X119994500Y-104944000D01*
X119994500Y-104944000D02*
X120402500Y-104536000D01*
X112014000Y-118265000D02*
X112014000Y-118999490D01*
X112014000Y-118999490D02*
X112002500Y-119010990D01*
X128110000Y-112800000D02*
X128110000Y-114028500D01*
X128110000Y-114028500D02*
X128102500Y-114036000D01*
X158250000Y-119400000D02*
X158250000Y-121133500D01*
X158250000Y-121133500D02*
X158252500Y-121136000D01*
X156750000Y-119400000D02*
X156750000Y-121133500D01*
X156750000Y-121133500D02*
X156752500Y-121136000D01*
X155250000Y-119400000D02*
X155250000Y-121133500D01*
X155250000Y-121133500D02*
X155252500Y-121136000D01*
X153750000Y-119400000D02*
X153750000Y-121083500D01*
X153750000Y-121083500D02*
X153752500Y-121086000D01*
X149250000Y-119400000D02*
X149250000Y-120983500D01*
X149250000Y-120983500D02*
X149252500Y-120986000D01*
X147750000Y-119400000D02*
X147750000Y-120983500D01*
X147750000Y-120983500D02*
X147752500Y-120986000D01*
X181455628Y-118269000D02*
X181455628Y-119132872D01*
X181455628Y-119132872D02*
X181452500Y-119136000D01*
X184028000Y-122286000D02*
X184028000Y-123165736D01*
X184028000Y-123165736D02*
X184028000Y-123590000D01*
X184624000Y-121690000D02*
X184028000Y-122286000D01*
X185378000Y-121690000D02*
X184624000Y-121690000D01*
X168552500Y-110236000D02*
X169302500Y-110236000D01*
X169302500Y-110236000D02*
X169552500Y-109986000D01*
X183989900Y-105133000D02*
X184114900Y-105008000D01*
X181356000Y-105133000D02*
X183989900Y-105133000D01*
X181356000Y-105133000D02*
X180205500Y-105133000D01*
X180205500Y-105133000D02*
X180202500Y-105136000D01*
X187878000Y-120540000D02*
X190178000Y-120540000D01*
X109956000Y-121524000D02*
X108414502Y-121524000D01*
X107102501Y-122836001D02*
X106852502Y-123086000D01*
X108414502Y-121524000D02*
X107102501Y-122836001D01*
X113466664Y-111425700D02*
X113466664Y-110571700D01*
X113227499Y-107860999D02*
X112952500Y-107586000D01*
X113852500Y-108486000D02*
X113227499Y-107860999D01*
X113852500Y-110185864D02*
X113852500Y-108486000D01*
X113466664Y-110571700D02*
X113852500Y-110185864D01*
X184870000Y-107442000D02*
X184870000Y-105968498D01*
X185277501Y-105560997D02*
X185552500Y-105285998D01*
X184870000Y-105968498D02*
X185277501Y-105560997D01*
X184870000Y-108096000D02*
X184870000Y-107442000D01*
X184870000Y-109156864D02*
X184870000Y-108096000D01*
X183479164Y-110547700D02*
X184870000Y-109156864D01*
X183479164Y-111401700D02*
X183479164Y-110547700D01*
D24*
G04 #@! TO.N,+3V3*
X116221517Y-102844000D02*
X116217797Y-102840280D01*
D25*
X115356000Y-121024000D02*
X117656000Y-121024000D01*
X118990280Y-102840280D02*
X118994000Y-102844000D01*
X116217797Y-102840280D02*
X118990280Y-102840280D01*
X117656000Y-121024000D02*
X119064500Y-121024000D01*
X119064500Y-121024000D02*
X119102500Y-120986000D01*
X115356000Y-122924000D02*
X114164500Y-122924000D01*
X114164500Y-122924000D02*
X114152500Y-122936000D01*
X127785000Y-123444000D02*
X126810500Y-123444000D01*
X126810500Y-123444000D02*
X126802500Y-123436000D01*
X138268000Y-120736000D02*
X138052500Y-120736000D01*
X138750000Y-119400000D02*
X138750000Y-120254000D01*
X138750000Y-120254000D02*
X138268000Y-120736000D01*
X139250000Y-119400000D02*
X139250000Y-120838500D01*
X139250000Y-120838500D02*
X138652500Y-121436000D01*
X185378000Y-122640000D02*
X187878000Y-122640000D01*
X187878000Y-122640000D02*
X190098500Y-122640000D01*
X190098500Y-122640000D02*
X190152500Y-122586000D01*
X128610000Y-109700000D02*
X128610000Y-109370000D01*
X168052500Y-113336000D02*
X168052500Y-122385998D01*
X186552500Y-121160500D02*
X186552500Y-121282447D01*
X186132000Y-120740000D02*
X186552500Y-121160500D01*
X186552500Y-121282447D02*
X186552500Y-121636000D01*
X185378000Y-120740000D02*
X186132000Y-120740000D01*
X128610000Y-109700000D02*
X128610000Y-108428500D01*
X128610000Y-108428500D02*
X128652500Y-108386000D01*
X119848000Y-102844000D02*
X121152500Y-101539500D01*
X121152500Y-101539500D02*
X121152500Y-101486000D01*
X118994000Y-102844000D02*
X119848000Y-102844000D01*
G04 #@! TO.N,+2V8*
X109956000Y-122924000D02*
X112656000Y-122924000D01*
X172270000Y-114060000D02*
X172270000Y-113018500D01*
X173102501Y-112185999D02*
X173352500Y-111936000D01*
X172270000Y-113018500D02*
X173102501Y-112185999D01*
X102560000Y-115130000D02*
X102560000Y-113823599D01*
X102560000Y-113823599D02*
X102521736Y-113785335D01*
X101452500Y-115274908D02*
X101452500Y-114886000D01*
X101452500Y-122586000D02*
X101452500Y-115274908D01*
X102727499Y-123860999D02*
X101452500Y-122586000D01*
X109956000Y-122924000D02*
X109302000Y-122924000D01*
X108365001Y-123860999D02*
X102727499Y-123860999D01*
X109302000Y-122924000D02*
X108365001Y-123860999D01*
G04 #@! TO.N,+1V8*
X116006664Y-113625700D02*
X116006664Y-111425700D01*
X111744000Y-106680000D02*
X111190000Y-106680000D01*
X112107077Y-106680000D02*
X111744000Y-106680000D01*
X113517797Y-104740280D02*
X113517797Y-105269280D01*
X113517797Y-105269280D02*
X112752500Y-106034577D01*
X112752500Y-106034577D02*
X112107077Y-106680000D01*
X111267797Y-106602203D02*
X111190000Y-106680000D01*
X111267797Y-104740280D02*
X110106780Y-104740280D01*
X110106780Y-104740280D02*
X110102500Y-104736000D01*
X188486000Y-104373000D02*
X188486000Y-103102500D01*
X188486000Y-103102500D02*
X188502500Y-103086000D01*
X186019164Y-113601700D02*
X186019164Y-111401700D01*
X189752500Y-105890571D02*
X189752500Y-105036000D01*
X186019164Y-109623907D02*
X189752500Y-105890571D01*
X186019164Y-111401700D02*
X186019164Y-109623907D01*
X172270000Y-105618500D02*
X172552500Y-105336000D01*
X172270000Y-110560000D02*
X172270000Y-105618500D01*
X168052500Y-110236000D02*
X168052500Y-105736000D01*
X168052500Y-105736000D02*
X168102501Y-105685999D01*
X168102501Y-105685999D02*
X168352500Y-105436000D01*
X172270000Y-112018500D02*
X172270000Y-110560000D01*
X168552500Y-113336000D02*
X170952500Y-113336000D01*
X170952500Y-113336000D02*
X172270000Y-112018500D01*
X186270000Y-107442000D02*
X186270000Y-107342000D01*
X187326000Y-106286000D02*
X187602494Y-106286000D01*
X186270000Y-107342000D02*
X187326000Y-106286000D01*
X128110000Y-109700000D02*
X128110000Y-109370000D01*
X126926000Y-108186000D02*
X126852500Y-108186000D01*
X128110000Y-109370000D02*
X126926000Y-108186000D01*
X116006664Y-111425700D02*
X116106664Y-111425700D01*
X117252500Y-108474908D02*
X117252500Y-108086000D01*
X116106664Y-111425700D02*
X117252500Y-110279864D01*
X117252500Y-110279864D02*
X117252500Y-108474908D01*
X102560000Y-111620000D02*
X102560000Y-108093500D01*
X102560000Y-108093500D02*
X102352500Y-107886000D01*
G04 #@! TO.N,+1V2*
X102560000Y-118640000D02*
X102560000Y-117293500D01*
X102560000Y-117293500D02*
X102552500Y-117286000D01*
X180728000Y-122640000D02*
X182678000Y-122640000D01*
X182903000Y-122640000D02*
X182678000Y-122640000D01*
X180728000Y-122640000D02*
X179206500Y-122640000D01*
X179206500Y-122640000D02*
X175502500Y-118936000D01*
X172270000Y-117510000D02*
X170476500Y-117510000D01*
X170476500Y-117510000D02*
X170452500Y-117486000D01*
D10*
G04 #@! TO.N,/CAM_L_D1_P*
X159750000Y-118499999D02*
X159750000Y-119400000D01*
X159895000Y-118354999D02*
X159750000Y-118499999D01*
X163152500Y-107994578D02*
X163152500Y-114279006D01*
X163848945Y-107298133D02*
X163152500Y-107994578D01*
X163152500Y-114279006D02*
X159895000Y-117536506D01*
X165316101Y-107298133D02*
X163848945Y-107298133D01*
X165540367Y-107073867D02*
X165316101Y-107298133D01*
X159895000Y-117536506D02*
X159895000Y-118354999D01*
G04 #@! TO.N,/CAM_L_D1_N*
X160250000Y-118499999D02*
X160250000Y-119400000D01*
X160105000Y-118354999D02*
X160250000Y-118499999D01*
X160105000Y-117623494D02*
X160105000Y-118354999D01*
X163352500Y-108077422D02*
X163352500Y-114375994D01*
X163352500Y-114375994D02*
X160105000Y-117623494D01*
X163931789Y-107498133D02*
X163352500Y-108077422D01*
X165964633Y-107498133D02*
X163931789Y-107498133D01*
G04 #@! TO.N,/CAM_R_D1_N*
X151100000Y-118349999D02*
X151100000Y-117142078D01*
X151250000Y-119400000D02*
X151250000Y-118499999D01*
X151250000Y-118499999D02*
X151100000Y-118349999D01*
X151100000Y-117142078D02*
X139233922Y-105276000D01*
X139233922Y-105276000D02*
X125312500Y-105276000D01*
X125312500Y-105276000D02*
X125112500Y-105076000D01*
G04 #@! TO.N,/CAM_R_D1_P*
X150900000Y-118349999D02*
X150900000Y-117224922D01*
X150750000Y-118499999D02*
X150900000Y-118349999D01*
X150750000Y-119400000D02*
X150750000Y-118499999D01*
X125312500Y-105476000D02*
X125112500Y-105676000D01*
X139151078Y-105476000D02*
X125312500Y-105476000D01*
X150900000Y-117224922D02*
X139151078Y-105476000D01*
G04 #@! TO.N,/CAM_L_CLK_P*
X156255000Y-117515000D02*
X156060000Y-117710000D01*
X157395000Y-118354999D02*
X157395000Y-117843494D01*
X157250000Y-118499999D02*
X157395000Y-118354999D01*
X157395000Y-117843494D02*
X157066506Y-117515000D01*
X157066506Y-117515000D02*
X156255000Y-117515000D01*
X157250000Y-119400000D02*
X157250000Y-118499999D01*
G04 #@! TO.N,/CAM_L_CLK_N*
X156255000Y-117305000D02*
X156060000Y-117110000D01*
X157153494Y-117305000D02*
X156255000Y-117305000D01*
X157750000Y-118499999D02*
X157605000Y-118354999D01*
X157750000Y-119400000D02*
X157750000Y-118499999D01*
X157605000Y-118354999D02*
X157605000Y-117756506D01*
X157605000Y-117756506D02*
X157153494Y-117305000D01*
G04 #@! TO.N,/CAM_R_CLK_N*
X114530367Y-107523867D02*
X114813211Y-107523867D01*
X114813211Y-107523867D02*
X114901078Y-107436000D01*
X114901078Y-107436000D02*
X138503922Y-107436000D01*
X148600000Y-117532078D02*
X148600000Y-118349999D01*
X148750000Y-118499999D02*
X148750000Y-119400000D01*
X138503922Y-107436000D02*
X148600000Y-117532078D01*
X148600000Y-118349999D02*
X148750000Y-118499999D01*
G04 #@! TO.N,/CAM_R_CLK_P*
X148250000Y-118499999D02*
X148250000Y-119400000D01*
X148400000Y-117614922D02*
X148400000Y-118349999D01*
X148400000Y-118349999D02*
X148250000Y-118499999D01*
X114954633Y-107948133D02*
X114954633Y-107863867D01*
X114954633Y-107863867D02*
X115182500Y-107636000D01*
X115182500Y-107636000D02*
X138421078Y-107636000D01*
X138421078Y-107636000D02*
X148400000Y-117614922D01*
G04 #@! TO.N,/CAM_L_D0_N*
X159250000Y-118499999D02*
X159105000Y-118354999D01*
X159250000Y-119400000D02*
X159250000Y-118499999D01*
X159105000Y-118354999D02*
X159105000Y-117666506D01*
X158435000Y-117385000D02*
X158240000Y-117190000D01*
X159105000Y-117666506D02*
X158823494Y-117385000D01*
X158823494Y-117385000D02*
X158435000Y-117385000D01*
G04 #@! TO.N,/CAM_L_D0_P*
X158895000Y-118354999D02*
X158895000Y-117753494D01*
X158750000Y-118499999D02*
X158895000Y-118354999D01*
X158750000Y-119400000D02*
X158750000Y-118499999D01*
X158895000Y-117753494D02*
X158736506Y-117595000D01*
X158435000Y-117595000D02*
X158240000Y-117790000D01*
X158736506Y-117595000D02*
X158435000Y-117595000D01*
G04 #@! TO.N,/CAM_R_D0_N*
X150100000Y-118349999D02*
X150250000Y-118499999D01*
X150100000Y-117472078D02*
X150100000Y-118349999D01*
X114140367Y-106323867D02*
X138951789Y-106323867D01*
X150250000Y-118499999D02*
X150250000Y-119400000D01*
X138951789Y-106323867D02*
X150100000Y-117472078D01*
G04 #@! TO.N,/CAM_R_D0_P*
X149750000Y-118499999D02*
X149750000Y-119400000D01*
X149900000Y-118349999D02*
X149750000Y-118499999D01*
X149900000Y-117554922D02*
X149900000Y-118349999D01*
X138868945Y-106523867D02*
X149900000Y-117554922D01*
X114788899Y-106523867D02*
X138868945Y-106523867D01*
X114564633Y-106748133D02*
X114788899Y-106523867D01*
D25*
G04 #@! TO.N,Net-(R1-Pad1)*
X127827999Y-117181751D02*
X127827999Y-118793501D01*
X127827999Y-118793501D02*
X127827999Y-120405251D01*
X127827999Y-120405251D02*
X127827999Y-122017001D01*
X128755000Y-122944002D02*
X128755000Y-123444000D01*
X127827999Y-122017001D02*
X128755000Y-122944002D01*
D24*
G04 #@! TO.N,/M1_DOVDD*
X187268724Y-116904000D02*
X187552500Y-116620224D01*
X187268724Y-117299000D02*
X187268724Y-116904000D01*
X187552500Y-115382500D02*
X186990000Y-114820000D01*
X187552500Y-116620224D02*
X187552500Y-115382500D01*
X174370000Y-110560000D02*
X177020000Y-110560000D01*
X177045000Y-110535000D02*
X177020000Y-110560000D01*
X179293525Y-110535000D02*
X177045000Y-110535000D01*
X179293525Y-111593525D02*
X180225000Y-112525000D01*
X179293525Y-110535000D02*
X179293525Y-111593525D01*
X174370000Y-108688000D02*
X174374000Y-108684000D01*
X174370000Y-110560000D02*
X174370000Y-108688000D01*
G04 #@! TO.N,/M1_AGND*
X183243070Y-117633168D02*
X182908902Y-117299000D01*
X183408892Y-117798990D02*
X183243070Y-117633168D01*
X185815450Y-118269000D02*
X185345440Y-117798990D01*
X185345440Y-117798990D02*
X183408892Y-117798990D01*
X178878525Y-112660000D02*
X179293525Y-113075000D01*
X177020000Y-112660000D02*
X178878525Y-112660000D01*
X192140000Y-110866427D02*
X192110000Y-110896427D01*
X192140000Y-109120000D02*
X192140000Y-110866427D01*
X192120000Y-110906427D02*
X192110000Y-110896427D01*
X192120000Y-112672854D02*
X192120000Y-110906427D01*
X192140000Y-112692854D02*
X192120000Y-112672854D01*
X192140000Y-116225710D02*
X192140000Y-114449281D01*
X192140000Y-113486000D02*
X192140000Y-112692854D01*
X192140000Y-114449281D02*
X192140000Y-113486000D01*
X192117840Y-113508160D02*
X192140000Y-113486000D01*
X188693425Y-113508160D02*
X192117840Y-113508160D01*
X188190000Y-113320000D02*
X188505265Y-113320000D01*
X188505265Y-113320000D02*
X188693425Y-113508160D01*
G04 #@! TO.N,/M1_DVDD*
X177010262Y-117510000D02*
X177020000Y-117519738D01*
X174370000Y-117510000D02*
X177010262Y-117510000D01*
X179288525Y-117519738D02*
X179293525Y-117524738D01*
X177020000Y-117519738D02*
X179288525Y-117519738D01*
X182552500Y-115736000D02*
X183048500Y-115240000D01*
X183048500Y-115240000D02*
X183060000Y-115240000D01*
X179293525Y-117524738D02*
X179713525Y-117524738D01*
X181502263Y-115736000D02*
X182552500Y-115736000D01*
X179713525Y-117524738D02*
X181502263Y-115736000D01*
G04 #@! TO.N,/M1_AVDD*
X189295710Y-116225710D02*
X187730000Y-114660000D01*
X189056168Y-116964832D02*
X189373668Y-116964832D01*
X188722000Y-117299000D02*
X189056168Y-116964832D01*
X189602500Y-116736000D02*
X189602500Y-116225710D01*
X189373668Y-116964832D02*
X189602500Y-116736000D01*
X190740000Y-116225710D02*
X189602500Y-116225710D01*
X189602500Y-116225710D02*
X189295710Y-116225710D01*
X180685000Y-114045000D02*
X181440000Y-113290000D01*
X179293525Y-114045000D02*
X180685000Y-114045000D01*
G04 #@! TO.N,/M1_DGND*
X184362176Y-118269000D02*
X182908902Y-118269000D01*
X180868263Y-114980000D02*
X179293525Y-116554738D01*
X182270000Y-114980000D02*
X180868263Y-114980000D01*
X178858525Y-116119738D02*
X179293525Y-116554738D01*
X177020000Y-116119738D02*
X178858525Y-116119738D01*
X178888525Y-109160000D02*
X179293525Y-109565000D01*
X177020000Y-109160000D02*
X178888525Y-109160000D01*
X177020000Y-108710000D02*
X177020000Y-109160000D01*
X175364000Y-107054000D02*
X177020000Y-108710000D01*
X174441150Y-107054000D02*
X175364000Y-107054000D01*
X181334255Y-111016700D02*
X181609254Y-111291699D01*
X179882555Y-109565000D02*
X181334255Y-111016700D01*
X179293525Y-109565000D02*
X179882555Y-109565000D01*
G04 #@! TO.N,/M1_VN3*
X190740000Y-109220000D02*
X188702520Y-111257480D01*
X188702520Y-111257480D02*
X188702520Y-111286000D01*
X190740000Y-109120000D02*
X190740000Y-109220000D01*
G04 #@! TO.N,/M1_VH*
X189992073Y-110896427D02*
X189752499Y-111136001D01*
X190710000Y-110896427D02*
X189992073Y-110896427D01*
X189752499Y-111136001D02*
X189502500Y-111386000D01*
D10*
G04 #@! TO.N,/M1_VN2*
X189789350Y-112672854D02*
X189652500Y-112536004D01*
D24*
X190720000Y-112672854D02*
X189789350Y-112672854D01*
G04 #@! TO.N,/M1_SID*
X173404000Y-107121150D02*
X173471150Y-107054000D01*
X173404000Y-108684000D02*
X173404000Y-107121150D01*
G04 #@! TO.N,/M1_PVDD*
X185815450Y-115673050D02*
X185852500Y-115636000D01*
X185815450Y-117299000D02*
X185815450Y-115673050D01*
X188222010Y-117769010D02*
X186285460Y-117769010D01*
X186149618Y-117633168D02*
X185815450Y-117299000D01*
X188722000Y-118269000D02*
X188222010Y-117769010D01*
X186285460Y-117769010D02*
X186149618Y-117633168D01*
G04 #@! TO.N,/M1_VN1*
X190740000Y-114449281D02*
X188765781Y-114449281D01*
D10*
X188765781Y-114449281D02*
X188752500Y-114436000D01*
D24*
G04 #@! TO.N,/CAM_NRST_1V8*
X187142900Y-105336000D02*
X188479000Y-105336000D01*
X188479000Y-105336000D02*
X188486000Y-105343000D01*
X187147700Y-105331200D02*
X187142900Y-105336000D01*
X186214900Y-104058000D02*
X186214900Y-104398400D01*
X186214900Y-104398400D02*
X187147700Y-105331200D01*
G04 #@! TO.N,/M2_DOVDD*
X117703600Y-115540100D02*
X116987500Y-114824000D01*
X117703600Y-117295000D02*
X117703600Y-115540100D01*
X105350000Y-111620000D02*
X106970000Y-111620000D01*
X104660000Y-111620000D02*
X105350000Y-111620000D01*
X109145000Y-111620000D02*
X109150000Y-111615000D01*
X106970000Y-111620000D02*
X109145000Y-111620000D01*
X109308500Y-111615000D02*
X109150000Y-111615000D01*
X109150000Y-111615000D02*
X110075000Y-112540000D01*
X110075000Y-112540000D02*
X110370000Y-112540000D01*
X104660000Y-109085000D02*
X104607000Y-109032000D01*
X104660000Y-111620000D02*
X104660000Y-109085000D01*
G04 #@! TO.N,/M2_AGND*
X113016400Y-117295000D02*
X112014000Y-117295000D01*
X113436400Y-117295000D02*
X113016400Y-117295000D01*
X113917400Y-117776000D02*
X113436400Y-117295000D01*
X116281200Y-118265000D02*
X115792200Y-117776000D01*
X115792200Y-117776000D02*
X113917400Y-117776000D01*
X123100000Y-108920000D02*
X123100000Y-109020000D01*
X106970000Y-113730000D02*
X103896500Y-113730000D01*
X103896500Y-113730000D02*
X103852500Y-113686000D01*
X107395000Y-114155000D02*
X106970000Y-113730000D01*
X109150000Y-114155000D02*
X107395000Y-114155000D01*
X116281200Y-118660000D02*
X116607200Y-118986000D01*
X116281200Y-118265000D02*
X116281200Y-118660000D01*
X116607200Y-118986000D02*
X122052500Y-118986000D01*
X122052500Y-118986000D02*
X122652500Y-118386000D01*
X123100000Y-109838492D02*
X123052500Y-109885992D01*
X123100000Y-109020000D02*
X123100000Y-109838492D01*
X123100000Y-110792500D02*
X123100000Y-111533500D01*
X123100000Y-111533500D02*
X123152500Y-111586000D01*
X123100000Y-113233500D02*
X123152500Y-113286000D01*
X123100000Y-112565000D02*
X123100000Y-113233500D01*
X123100000Y-114337500D02*
X123100000Y-114933494D01*
X123100000Y-114933494D02*
X123152500Y-114985994D01*
X123100000Y-116733500D02*
X123152500Y-116786000D01*
X123100000Y-116110000D02*
X123100000Y-116733500D01*
G04 #@! TO.N,/M2_DVDD*
X114858800Y-117295000D02*
X114858800Y-116431200D01*
X114858800Y-116431200D02*
X115080000Y-116210000D01*
X104660000Y-118640000D02*
X106970000Y-118640000D01*
X109145000Y-118640000D02*
X109150000Y-118645000D01*
X106970000Y-118640000D02*
X109145000Y-118640000D01*
X111264500Y-114024000D02*
X111457500Y-114024000D01*
X110321500Y-114967000D02*
X111264500Y-114024000D01*
X109150000Y-118645000D02*
X110321500Y-117473500D01*
X110321500Y-117473500D02*
X110321500Y-114967000D01*
D10*
X113062500Y-115240000D02*
X113058500Y-115236000D01*
D24*
G04 #@! TO.N,/M2_AVDD*
X104660000Y-115130000D02*
X106970000Y-115130000D01*
X109145000Y-115130000D02*
X109150000Y-115125000D01*
X109606500Y-115125000D02*
X111437500Y-113294000D01*
X109150000Y-115125000D02*
X109606500Y-115125000D01*
X121323998Y-116486002D02*
X121700000Y-116110000D01*
X119126000Y-116486002D02*
X121323998Y-116486002D01*
X119126000Y-116486002D02*
X119126000Y-117295000D01*
X106970000Y-115130000D02*
X108152500Y-115130000D01*
X108152500Y-115130000D02*
X109145000Y-115130000D01*
X122352500Y-115386000D02*
X121700000Y-116038500D01*
X117977499Y-110695001D02*
X117977499Y-110661001D01*
X117702500Y-110970000D02*
X117977499Y-110695001D01*
X121700000Y-116038500D02*
X121700000Y-116110000D01*
X122352500Y-108486000D02*
X122352500Y-115386000D01*
X117977499Y-110661001D02*
X120452500Y-108186000D01*
X120452500Y-108186000D02*
X122052500Y-108186000D01*
X122052500Y-108186000D02*
X122352500Y-108486000D01*
G04 #@! TO.N,/M2_DGND*
X109155000Y-110650000D02*
X109150000Y-110645000D01*
X106870000Y-110220000D02*
X106970000Y-110220000D01*
X104597000Y-107282000D02*
X104602500Y-107287500D01*
X109150000Y-110645000D02*
X109150000Y-109588500D01*
X109150000Y-109588500D02*
X109152500Y-109586000D01*
X114858800Y-118265000D02*
X114858800Y-118892300D01*
X114858800Y-118892300D02*
X114952500Y-118986000D01*
X113436400Y-118265000D02*
X113436400Y-118869900D01*
X113436400Y-118869900D02*
X113552500Y-118986000D01*
X106970000Y-117868496D02*
X106952496Y-117886000D01*
X106970000Y-117240000D02*
X106970000Y-117868496D01*
X109150000Y-117675000D02*
X108739000Y-118086000D01*
X108739000Y-118086000D02*
X108706053Y-118086000D01*
X108706053Y-118086000D02*
X108352500Y-118086000D01*
X117273500Y-118265000D02*
X117052500Y-118486000D01*
X117703600Y-118265000D02*
X117273500Y-118265000D01*
X108018500Y-110220000D02*
X108052500Y-110186000D01*
X106970000Y-110220000D02*
X108018500Y-110220000D01*
X104597000Y-107282000D02*
X106601000Y-109286000D01*
X107698949Y-109286000D02*
X108052502Y-109286000D01*
X106601000Y-109286000D02*
X107698949Y-109286000D01*
G04 #@! TO.N,/M2_VN3*
X121700000Y-109020000D02*
X121700000Y-109120000D01*
X121700000Y-109120000D02*
X121250000Y-109570000D01*
X118623582Y-111810000D02*
X118520000Y-111810000D01*
X120863582Y-109570000D02*
X118623582Y-111810000D01*
X121250000Y-109570000D02*
X120863582Y-109570000D01*
G04 #@! TO.N,/M2_VH*
X121697500Y-110790000D02*
X121700000Y-110792500D01*
X120290000Y-110790000D02*
X121697500Y-110790000D01*
G04 #@! TO.N,/M2_CAM_SCL_1V8*
X126360000Y-111750000D02*
X126202500Y-111907500D01*
X126960000Y-111750000D02*
X126360000Y-111750000D01*
X123902500Y-119986000D02*
X111352500Y-119986000D01*
X126202500Y-111907500D02*
X126202500Y-117686000D01*
X126202500Y-117686000D02*
X123902500Y-119986000D01*
X111002500Y-119636000D02*
X111002500Y-115686000D01*
X111352500Y-119986000D02*
X111002500Y-119636000D01*
G04 #@! TO.N,/M2_VN2*
X121671000Y-112536000D02*
X121700000Y-112565000D01*
X120265000Y-112536000D02*
X121671000Y-112536000D01*
G04 #@! TO.N,/M2_SID*
X103637000Y-107292000D02*
X103627000Y-107282000D01*
X103637000Y-109032000D02*
X103637000Y-107292000D01*
X101756500Y-107282000D02*
X103627000Y-107282000D01*
X101220000Y-107818500D02*
X101756500Y-107282000D01*
X101220000Y-112073500D02*
X101220000Y-107818500D01*
X108740000Y-112640000D02*
X101786500Y-112640000D01*
X101786500Y-112640000D02*
X101220000Y-112073500D01*
G04 #@! TO.N,/M2_MCLK_M*
X110417500Y-108436000D02*
X110417500Y-111115896D01*
X110417500Y-111115896D02*
X110677489Y-111375885D01*
G04 #@! TO.N,/M2_PVDD*
X116281200Y-117295000D02*
X116281200Y-115762700D01*
X116281200Y-115762700D02*
X116272500Y-115754000D01*
X116615368Y-117629168D02*
X116281200Y-117295000D01*
X116762200Y-117776000D02*
X116615368Y-117629168D01*
X119126000Y-118265000D02*
X118637000Y-117776000D01*
X118637000Y-117776000D02*
X116762200Y-117776000D01*
G04 #@! TO.N,/M2_VN1*
X121700000Y-114337500D02*
X119591000Y-114337500D01*
X119591000Y-114337500D02*
X119027500Y-113774000D01*
G04 #@! TO.N,/M2_CAM_SDA_1V8*
X125752500Y-117636000D02*
X123852500Y-119536000D01*
X126960000Y-111250000D02*
X126360000Y-111250000D01*
X126360000Y-111250000D02*
X125752500Y-111857500D01*
X125752500Y-111857500D02*
X125752500Y-117636000D01*
X123852500Y-119536000D02*
X111702500Y-119536000D01*
X111702500Y-119536000D02*
X111302500Y-119136000D01*
X113273498Y-116236000D02*
X113348499Y-116311001D01*
X113931052Y-116311001D02*
X114352500Y-115889553D01*
X114352500Y-115889553D02*
X114352500Y-115536000D01*
X113348499Y-116311001D02*
X113931052Y-116311001D01*
X111552500Y-116236000D02*
X113273498Y-116236000D01*
X111302500Y-116486000D02*
X111552500Y-116236000D01*
X111302500Y-119136000D02*
X111302500Y-116486000D01*
D25*
G04 #@! TO.N,/M2_CAM_SCL*
X141750000Y-117883500D02*
X141750000Y-119400000D01*
X129760000Y-111750000D02*
X135616500Y-111750000D01*
X135616500Y-111750000D02*
X141750000Y-117883500D01*
D24*
X141750000Y-120150000D02*
X141750000Y-119400000D01*
X129408955Y-117181751D02*
X135363204Y-123136000D01*
X138764000Y-123136000D02*
X141750000Y-120150000D01*
X135363204Y-123136000D02*
X138764000Y-123136000D01*
X128797999Y-117181751D02*
X129408955Y-117181751D01*
D25*
G04 #@! TO.N,/M2_CAM_SDA*
X135617147Y-111250000D02*
X142250000Y-117882853D01*
X142250000Y-117882853D02*
X142250000Y-118546000D01*
X129760000Y-111250000D02*
X135617147Y-111250000D01*
X142250000Y-118546000D02*
X142250000Y-119400000D01*
D24*
X142250000Y-120150000D02*
X139013989Y-123386011D01*
X135259647Y-123386011D02*
X130667137Y-118793501D01*
X129192999Y-118793501D02*
X128797999Y-118793501D01*
X139013989Y-123386011D02*
X135259647Y-123386011D01*
X142250000Y-119400000D02*
X142250000Y-120150000D01*
X130667137Y-118793501D02*
X129192999Y-118793501D01*
D25*
G04 #@! TO.N,/M1_CAM_SCL*
X129760000Y-110750000D02*
X135617792Y-110750000D01*
X142750000Y-117882208D02*
X142750000Y-118546000D01*
X142750000Y-118546000D02*
X142750000Y-119400000D01*
X135617792Y-110750000D02*
X142750000Y-117882208D01*
D24*
X142750000Y-119400000D02*
X142750000Y-120150000D01*
X142750000Y-120150000D02*
X139263978Y-123636022D01*
X129192999Y-120405251D02*
X128797999Y-120405251D01*
X135156090Y-123636022D02*
X131925319Y-120405251D01*
X139263978Y-123636022D02*
X135156090Y-123636022D01*
X131925319Y-120405251D02*
X129192999Y-120405251D01*
D25*
G04 #@! TO.N,/M1_CAM_SDA*
X143250000Y-117881561D02*
X135618439Y-110250000D01*
X130464000Y-110250000D02*
X129760000Y-110250000D01*
X143250000Y-119400000D02*
X143250000Y-117881561D01*
X135618439Y-110250000D02*
X130464000Y-110250000D01*
D24*
X128816998Y-122036000D02*
X128797999Y-122017001D01*
X133202500Y-122036000D02*
X128816998Y-122036000D01*
X135052533Y-123886033D02*
X133202500Y-122036000D01*
X143250000Y-120150000D02*
X139513967Y-123886033D01*
X139513967Y-123886033D02*
X135052533Y-123886033D01*
X143250000Y-119400000D02*
X143250000Y-120150000D01*
G04 #@! TO.N,/M2_MCLK*
X111053332Y-108770168D02*
X111387500Y-108436000D01*
X110862500Y-108961000D02*
X111053332Y-108770168D01*
X111127499Y-111090001D02*
X110862500Y-110825002D01*
X113366664Y-113625700D02*
X111127499Y-111386535D01*
X113466664Y-113625700D02*
X113366664Y-113625700D01*
X110862500Y-110825002D02*
X110862500Y-108961000D01*
X111127499Y-111386535D02*
X111127499Y-111090001D01*
G04 #@! TO.N,/CAM_RST_1V8*
X182411000Y-103108000D02*
X184114900Y-103108000D01*
X181356000Y-104163000D02*
X182411000Y-103108000D01*
X181356000Y-104163000D02*
X172075500Y-104163000D01*
X172075500Y-104163000D02*
X170752500Y-105486000D01*
X170302500Y-112286000D02*
X169702500Y-112286000D01*
X170752500Y-111836000D02*
X170302500Y-112286000D01*
X170752500Y-105486000D02*
X170752500Y-111836000D01*
G04 #@! TD*
M02*
