G04 #@! TF.GenerationSoftware,KiCad,Pcbnew,5.0.2+dfsg1-1~bpo9+1*
G04 #@! TF.CreationDate,2019-09-12T14:57:23+02:00*
G04 #@! TF.ProjectId,OV9281,4f563932-3831-42e6-9b69-6361645f7063,rev?*
G04 #@! TF.SameCoordinates,Original*
G04 #@! TF.FileFunction,Soldermask,Top*
G04 #@! TF.FilePolarity,Negative*
%FSLAX46Y46*%
G04 Gerber Fmt 4.6, Leading zero omitted, Abs format (unit mm)*
G04 Created by KiCad (PCBNEW 5.0.2+dfsg1-1~bpo9+1) date Thu 12 Sep 2019 02:57:23 PM CEST*
%MOMM*%
%LPD*%
G01*
G04 APERTURE LIST*
%ADD10C,0.100000*%
G04 APERTURE END LIST*
D10*
G36*
X164651000Y-122551000D02*
X163049000Y-122551000D01*
X163049000Y-119949000D01*
X164651000Y-119949000D01*
X164651000Y-122551000D01*
X164651000Y-122551000D01*
G37*
G36*
X136951000Y-122551000D02*
X135349000Y-122551000D01*
X135349000Y-119949000D01*
X136951000Y-119949000D01*
X136951000Y-122551000D01*
X136951000Y-122551000D01*
G37*
G36*
X162451000Y-120051000D02*
X137549000Y-120051000D01*
X137549000Y-118749000D01*
X162451000Y-118749000D01*
X162451000Y-120051000D01*
X162451000Y-120051000D01*
G37*
G36*
X164651000Y-118851000D02*
X163049000Y-118851000D01*
X163049000Y-116249000D01*
X164651000Y-116249000D01*
X164651000Y-118851000D01*
X164651000Y-118851000D01*
G37*
G36*
X136951000Y-118851000D02*
X135349000Y-118851000D01*
X135349000Y-116249000D01*
X136951000Y-116249000D01*
X136951000Y-118851000D01*
X136951000Y-118851000D01*
G37*
G36*
X129521000Y-109981000D02*
X128219000Y-109981000D01*
X128219000Y-108679000D01*
X129521000Y-108679000D01*
X129521000Y-109981000D01*
X129521000Y-109981000D01*
G37*
G36*
X121621000Y-109481000D02*
X120719000Y-109481000D01*
X120719000Y-108779000D01*
X121621000Y-108779000D01*
X121621000Y-109481000D01*
X121621000Y-109481000D01*
G37*
G36*
X124421000Y-109456000D02*
X123319000Y-109456000D01*
X123319000Y-108804000D01*
X124421000Y-108804000D01*
X124421000Y-109456000D01*
X124421000Y-109456000D01*
G37*
G36*
X127121000Y-109456000D02*
X126019000Y-109456000D01*
X126019000Y-108804000D01*
X127121000Y-108804000D01*
X127121000Y-109456000D01*
X127121000Y-109456000D01*
G37*
G36*
X127121000Y-108506000D02*
X126019000Y-108506000D01*
X126019000Y-107854000D01*
X127121000Y-107854000D01*
X127121000Y-108506000D01*
X127121000Y-108506000D01*
G37*
G36*
X121621000Y-108081000D02*
X120719000Y-108081000D01*
X120719000Y-107379000D01*
X121621000Y-107379000D01*
X121621000Y-108081000D01*
X121621000Y-108081000D01*
G37*
G36*
X129521000Y-107881000D02*
X128219000Y-107881000D01*
X128219000Y-106579000D01*
X129521000Y-106579000D01*
X129521000Y-107881000D01*
X129521000Y-107881000D01*
G37*
G36*
X124421000Y-107556000D02*
X123319000Y-107556000D01*
X123319000Y-106904000D01*
X124421000Y-106904000D01*
X124421000Y-107556000D01*
X124421000Y-107556000D01*
G37*
G36*
X127121000Y-107556000D02*
X126019000Y-107556000D01*
X126019000Y-106904000D01*
X127121000Y-106904000D01*
X127121000Y-107556000D01*
X127121000Y-107556000D01*
G37*
G36*
X175305300Y-107317664D02*
X174003300Y-107317664D01*
X174003300Y-105815664D01*
X175305300Y-105815664D01*
X175305300Y-107317664D01*
X175305300Y-107317664D01*
G37*
G36*
X173105300Y-107317664D02*
X171803300Y-107317664D01*
X171803300Y-105815664D01*
X173105300Y-105815664D01*
X173105300Y-107317664D01*
X173105300Y-107317664D01*
G37*
G36*
X111475300Y-107247664D02*
X110173300Y-107247664D01*
X110173300Y-105745664D01*
X111475300Y-105745664D01*
X111475300Y-107247664D01*
X111475300Y-107247664D01*
G37*
G36*
X109275300Y-107247664D02*
X107973300Y-107247664D01*
X107973300Y-105745664D01*
X109275300Y-105745664D01*
X109275300Y-107247664D01*
X109275300Y-107247664D01*
G37*
G36*
X189591000Y-105701000D02*
X188289000Y-105701000D01*
X188289000Y-104399000D01*
X189591000Y-104399000D01*
X189591000Y-105701000D01*
X189591000Y-105701000D01*
G37*
G36*
X182241000Y-105401000D02*
X181339000Y-105401000D01*
X181339000Y-104699000D01*
X182241000Y-104699000D01*
X182241000Y-105401000D01*
X182241000Y-105401000D01*
G37*
G36*
X129571000Y-105381000D02*
X128269000Y-105381000D01*
X128269000Y-104079000D01*
X129571000Y-104079000D01*
X129571000Y-105381000D01*
X129571000Y-105381000D01*
G37*
G36*
X184291000Y-105376000D02*
X183189000Y-105376000D01*
X183189000Y-104724000D01*
X184291000Y-104724000D01*
X184291000Y-105376000D01*
X184291000Y-105376000D01*
G37*
G36*
X186991000Y-105376000D02*
X185889000Y-105376000D01*
X185889000Y-104724000D01*
X186991000Y-104724000D01*
X186991000Y-105376000D01*
X186991000Y-105376000D01*
G37*
G36*
X121644797Y-104877280D02*
X120742797Y-104877280D01*
X120742797Y-104175280D01*
X121644797Y-104175280D01*
X121644797Y-104877280D01*
X121644797Y-104877280D01*
G37*
G36*
X126694797Y-104852280D02*
X125592797Y-104852280D01*
X125592797Y-104200280D01*
X126694797Y-104200280D01*
X126694797Y-104852280D01*
X126694797Y-104852280D01*
G37*
G36*
X123994797Y-104852280D02*
X122892797Y-104852280D01*
X122892797Y-104200280D01*
X123994797Y-104200280D01*
X123994797Y-104852280D01*
X123994797Y-104852280D01*
G37*
G36*
X175305300Y-104777664D02*
X174003300Y-104777664D01*
X174003300Y-103275664D01*
X175305300Y-103275664D01*
X175305300Y-104777664D01*
X175305300Y-104777664D01*
G37*
G36*
X173105300Y-104777664D02*
X171803300Y-104777664D01*
X171803300Y-103275664D01*
X173105300Y-103275664D01*
X173105300Y-104777664D01*
X173105300Y-104777664D01*
G37*
G36*
X111475300Y-104707664D02*
X110173300Y-104707664D01*
X110173300Y-103205664D01*
X111475300Y-103205664D01*
X111475300Y-104707664D01*
X111475300Y-104707664D01*
G37*
G36*
X109275300Y-104707664D02*
X107973300Y-104707664D01*
X107973300Y-103205664D01*
X109275300Y-103205664D01*
X109275300Y-104707664D01*
X109275300Y-104707664D01*
G37*
G36*
X186991000Y-104426000D02*
X185889000Y-104426000D01*
X185889000Y-103774000D01*
X186991000Y-103774000D01*
X186991000Y-104426000D01*
X186991000Y-104426000D01*
G37*
G36*
X182241000Y-104001000D02*
X181339000Y-104001000D01*
X181339000Y-103299000D01*
X182241000Y-103299000D01*
X182241000Y-104001000D01*
X182241000Y-104001000D01*
G37*
G36*
X126694797Y-103902280D02*
X125592797Y-103902280D01*
X125592797Y-103250280D01*
X126694797Y-103250280D01*
X126694797Y-103902280D01*
X126694797Y-103902280D01*
G37*
G36*
X153346939Y-102916717D02*
X153367557Y-102922971D01*
X153386557Y-102933127D01*
X153403209Y-102946793D01*
X153416875Y-102963445D01*
X153427031Y-102982445D01*
X153433285Y-103003063D01*
X153435603Y-103026600D01*
X153440383Y-103050633D01*
X153449761Y-103073272D01*
X153463374Y-103093647D01*
X153480702Y-103110974D01*
X153501076Y-103124588D01*
X153523715Y-103133965D01*
X153547748Y-103138746D01*
X153572253Y-103138746D01*
X153596286Y-103133966D01*
X153618925Y-103124588D01*
X153639300Y-103110975D01*
X153656627Y-103093647D01*
X153670241Y-103073273D01*
X153679618Y-103050634D01*
X153684399Y-103026600D01*
X153686717Y-103003063D01*
X153692971Y-102982445D01*
X153703127Y-102963445D01*
X153716793Y-102946793D01*
X153733445Y-102933127D01*
X153752445Y-102922971D01*
X153773063Y-102916717D01*
X153800641Y-102914001D01*
X154259361Y-102914001D01*
X154286939Y-102916717D01*
X154307557Y-102922971D01*
X154326557Y-102933127D01*
X154343209Y-102946793D01*
X154356875Y-102963445D01*
X154367031Y-102982445D01*
X154373285Y-103003063D01*
X154376001Y-103030641D01*
X154376001Y-103539361D01*
X154373285Y-103566939D01*
X154367031Y-103587557D01*
X154356875Y-103606557D01*
X154343209Y-103623209D01*
X154326557Y-103636875D01*
X154307557Y-103647031D01*
X154286939Y-103653285D01*
X154259361Y-103656001D01*
X153800641Y-103656001D01*
X153773063Y-103653285D01*
X153752445Y-103647031D01*
X153733445Y-103636875D01*
X153716793Y-103623209D01*
X153703127Y-103606557D01*
X153692971Y-103587557D01*
X153686717Y-103566939D01*
X153684399Y-103543402D01*
X153679619Y-103519369D01*
X153670241Y-103496730D01*
X153656628Y-103476355D01*
X153639300Y-103459028D01*
X153618926Y-103445414D01*
X153596287Y-103436037D01*
X153572254Y-103431256D01*
X153547749Y-103431256D01*
X153523716Y-103436036D01*
X153501077Y-103445414D01*
X153480702Y-103459027D01*
X153463375Y-103476355D01*
X153449761Y-103496729D01*
X153440384Y-103519368D01*
X153435603Y-103543402D01*
X153433285Y-103566939D01*
X153427031Y-103587557D01*
X153416875Y-103606557D01*
X153403209Y-103623209D01*
X153386557Y-103636875D01*
X153367557Y-103647031D01*
X153346939Y-103653285D01*
X153319361Y-103656001D01*
X152860641Y-103656001D01*
X152833063Y-103653285D01*
X152812445Y-103647031D01*
X152793445Y-103636875D01*
X152776793Y-103623209D01*
X152763127Y-103606557D01*
X152752971Y-103587557D01*
X152746717Y-103566939D01*
X152744001Y-103539361D01*
X152744001Y-103030641D01*
X152746717Y-103003063D01*
X152752971Y-102982445D01*
X152763127Y-102963445D01*
X152776793Y-102946793D01*
X152793445Y-102933127D01*
X152812445Y-102922971D01*
X152833063Y-102916717D01*
X152860641Y-102914001D01*
X153319361Y-102914001D01*
X153346939Y-102916717D01*
X153346939Y-102916717D01*
G37*
G36*
X149526939Y-102916717D02*
X149547557Y-102922971D01*
X149566557Y-102933127D01*
X149583209Y-102946793D01*
X149596875Y-102963445D01*
X149607031Y-102982445D01*
X149613285Y-103003063D01*
X149615603Y-103026600D01*
X149620383Y-103050633D01*
X149629761Y-103073272D01*
X149643374Y-103093647D01*
X149660702Y-103110974D01*
X149681076Y-103124588D01*
X149703715Y-103133965D01*
X149727748Y-103138746D01*
X149752253Y-103138746D01*
X149776286Y-103133966D01*
X149798925Y-103124588D01*
X149819300Y-103110975D01*
X149836627Y-103093647D01*
X149850241Y-103073273D01*
X149859618Y-103050634D01*
X149864399Y-103026600D01*
X149866717Y-103003063D01*
X149872971Y-102982445D01*
X149883127Y-102963445D01*
X149896793Y-102946793D01*
X149913445Y-102933127D01*
X149932445Y-102922971D01*
X149953063Y-102916717D01*
X149980641Y-102914001D01*
X150439361Y-102914001D01*
X150466939Y-102916717D01*
X150487557Y-102922971D01*
X150506557Y-102933127D01*
X150523209Y-102946793D01*
X150536875Y-102963445D01*
X150547031Y-102982445D01*
X150553285Y-103003063D01*
X150556001Y-103030641D01*
X150556001Y-103539361D01*
X150553285Y-103566939D01*
X150547031Y-103587557D01*
X150536875Y-103606557D01*
X150523209Y-103623209D01*
X150506557Y-103636875D01*
X150487557Y-103647031D01*
X150466939Y-103653285D01*
X150439361Y-103656001D01*
X149980641Y-103656001D01*
X149953063Y-103653285D01*
X149932445Y-103647031D01*
X149913445Y-103636875D01*
X149896793Y-103623209D01*
X149883127Y-103606557D01*
X149872971Y-103587557D01*
X149866717Y-103566939D01*
X149864399Y-103543402D01*
X149859619Y-103519369D01*
X149850241Y-103496730D01*
X149836628Y-103476355D01*
X149819300Y-103459028D01*
X149798926Y-103445414D01*
X149776287Y-103436037D01*
X149752254Y-103431256D01*
X149727749Y-103431256D01*
X149703716Y-103436036D01*
X149681077Y-103445414D01*
X149660702Y-103459027D01*
X149643375Y-103476355D01*
X149629761Y-103496729D01*
X149620384Y-103519368D01*
X149615603Y-103543402D01*
X149613285Y-103566939D01*
X149607031Y-103587557D01*
X149596875Y-103606557D01*
X149583209Y-103623209D01*
X149566557Y-103636875D01*
X149547557Y-103647031D01*
X149526939Y-103653285D01*
X149499361Y-103656001D01*
X149040641Y-103656001D01*
X149013063Y-103653285D01*
X148992445Y-103647031D01*
X148973445Y-103636875D01*
X148956793Y-103623209D01*
X148943127Y-103606557D01*
X148932971Y-103587557D01*
X148926717Y-103566939D01*
X148924001Y-103539361D01*
X148924001Y-103030641D01*
X148926717Y-103003063D01*
X148932971Y-102982445D01*
X148943127Y-102963445D01*
X148956793Y-102946793D01*
X148973445Y-102933127D01*
X148992445Y-102922971D01*
X149013063Y-102916717D01*
X149040641Y-102914001D01*
X149499361Y-102914001D01*
X149526939Y-102916717D01*
X149526939Y-102916717D01*
G37*
G36*
X151436939Y-102916717D02*
X151457557Y-102922971D01*
X151476557Y-102933127D01*
X151493209Y-102946793D01*
X151506875Y-102963445D01*
X151517031Y-102982445D01*
X151523285Y-103003063D01*
X151525603Y-103026600D01*
X151530383Y-103050633D01*
X151539761Y-103073272D01*
X151553374Y-103093647D01*
X151570702Y-103110974D01*
X151591076Y-103124588D01*
X151613715Y-103133965D01*
X151637748Y-103138746D01*
X151662253Y-103138746D01*
X151686286Y-103133966D01*
X151708925Y-103124588D01*
X151729300Y-103110975D01*
X151746627Y-103093647D01*
X151760241Y-103073273D01*
X151769618Y-103050634D01*
X151774399Y-103026600D01*
X151776717Y-103003063D01*
X151782971Y-102982445D01*
X151793127Y-102963445D01*
X151806793Y-102946793D01*
X151823445Y-102933127D01*
X151842445Y-102922971D01*
X151863063Y-102916717D01*
X151890641Y-102914001D01*
X152349361Y-102914001D01*
X152376939Y-102916717D01*
X152397557Y-102922971D01*
X152416557Y-102933127D01*
X152433209Y-102946793D01*
X152446875Y-102963445D01*
X152457031Y-102982445D01*
X152463285Y-103003063D01*
X152466001Y-103030641D01*
X152466001Y-103539361D01*
X152463285Y-103566939D01*
X152457031Y-103587557D01*
X152446875Y-103606557D01*
X152433209Y-103623209D01*
X152416557Y-103636875D01*
X152397557Y-103647031D01*
X152376939Y-103653285D01*
X152349361Y-103656001D01*
X151890641Y-103656001D01*
X151863063Y-103653285D01*
X151842445Y-103647031D01*
X151823445Y-103636875D01*
X151806793Y-103623209D01*
X151793127Y-103606557D01*
X151782971Y-103587557D01*
X151776717Y-103566939D01*
X151774399Y-103543402D01*
X151769619Y-103519369D01*
X151760241Y-103496730D01*
X151746628Y-103476355D01*
X151729300Y-103459028D01*
X151708926Y-103445414D01*
X151686287Y-103436037D01*
X151662254Y-103431256D01*
X151637749Y-103431256D01*
X151613716Y-103436036D01*
X151591077Y-103445414D01*
X151570702Y-103459027D01*
X151553375Y-103476355D01*
X151539761Y-103496729D01*
X151530384Y-103519368D01*
X151525603Y-103543402D01*
X151523285Y-103566939D01*
X151517031Y-103587557D01*
X151506875Y-103606557D01*
X151493209Y-103623209D01*
X151476557Y-103636875D01*
X151457557Y-103647031D01*
X151436939Y-103653285D01*
X151409361Y-103656001D01*
X150950641Y-103656001D01*
X150923063Y-103653285D01*
X150902445Y-103647031D01*
X150883445Y-103636875D01*
X150866793Y-103623209D01*
X150853127Y-103606557D01*
X150842971Y-103587557D01*
X150836717Y-103566939D01*
X150834001Y-103539361D01*
X150834001Y-103030641D01*
X150836717Y-103003063D01*
X150842971Y-102982445D01*
X150853127Y-102963445D01*
X150866793Y-102946793D01*
X150883445Y-102933127D01*
X150902445Y-102922971D01*
X150923063Y-102916717D01*
X150950641Y-102914001D01*
X151409361Y-102914001D01*
X151436939Y-102916717D01*
X151436939Y-102916717D01*
G37*
G36*
X155256939Y-102916717D02*
X155277557Y-102922971D01*
X155296557Y-102933127D01*
X155313209Y-102946793D01*
X155326875Y-102963445D01*
X155337031Y-102982445D01*
X155343285Y-103003063D01*
X155346001Y-103030641D01*
X155346001Y-103539361D01*
X155343285Y-103566939D01*
X155337031Y-103587557D01*
X155326875Y-103606557D01*
X155313209Y-103623209D01*
X155296557Y-103636875D01*
X155277557Y-103647031D01*
X155256939Y-103653285D01*
X155229361Y-103656001D01*
X154770641Y-103656001D01*
X154743063Y-103653285D01*
X154722445Y-103647031D01*
X154703445Y-103636875D01*
X154686793Y-103623209D01*
X154673127Y-103606557D01*
X154662971Y-103587557D01*
X154656717Y-103566939D01*
X154654001Y-103539361D01*
X154654001Y-103030641D01*
X154656717Y-103003063D01*
X154662971Y-102982445D01*
X154673127Y-102963445D01*
X154686793Y-102946793D01*
X154703445Y-102933127D01*
X154722445Y-102922971D01*
X154743063Y-102916717D01*
X154770641Y-102914001D01*
X155229361Y-102914001D01*
X155256939Y-102916717D01*
X155256939Y-102916717D01*
G37*
G36*
X146646939Y-102916717D02*
X146667557Y-102922971D01*
X146686557Y-102933127D01*
X146703209Y-102946793D01*
X146716875Y-102963445D01*
X146727031Y-102982445D01*
X146733285Y-103003063D01*
X146736001Y-103030641D01*
X146736001Y-103539361D01*
X146733285Y-103566939D01*
X146727031Y-103587557D01*
X146716875Y-103606557D01*
X146703209Y-103623209D01*
X146686557Y-103636875D01*
X146667557Y-103647031D01*
X146646939Y-103653285D01*
X146619361Y-103656001D01*
X146160641Y-103656001D01*
X146133063Y-103653285D01*
X146112445Y-103647031D01*
X146093445Y-103636875D01*
X146076793Y-103623209D01*
X146063127Y-103606557D01*
X146052971Y-103587557D01*
X146046717Y-103566939D01*
X146044001Y-103539361D01*
X146044001Y-103030641D01*
X146046717Y-103003063D01*
X146052971Y-102982445D01*
X146063127Y-102963445D01*
X146076793Y-102946793D01*
X146093445Y-102933127D01*
X146112445Y-102922971D01*
X146133063Y-102916717D01*
X146160641Y-102914001D01*
X146619361Y-102914001D01*
X146646939Y-102916717D01*
X146646939Y-102916717D01*
G37*
G36*
X147616939Y-102916717D02*
X147637557Y-102922971D01*
X147656557Y-102933127D01*
X147673209Y-102946793D01*
X147686875Y-102963445D01*
X147697031Y-102982445D01*
X147703285Y-103003063D01*
X147705603Y-103026600D01*
X147710383Y-103050633D01*
X147719761Y-103073272D01*
X147733374Y-103093647D01*
X147750702Y-103110974D01*
X147771076Y-103124588D01*
X147793715Y-103133965D01*
X147817748Y-103138746D01*
X147842253Y-103138746D01*
X147866286Y-103133966D01*
X147888925Y-103124588D01*
X147909300Y-103110975D01*
X147926627Y-103093647D01*
X147940241Y-103073273D01*
X147949618Y-103050634D01*
X147954399Y-103026600D01*
X147956717Y-103003063D01*
X147962971Y-102982445D01*
X147973127Y-102963445D01*
X147986793Y-102946793D01*
X148003445Y-102933127D01*
X148022445Y-102922971D01*
X148043063Y-102916717D01*
X148070641Y-102914001D01*
X148529361Y-102914001D01*
X148556939Y-102916717D01*
X148577557Y-102922971D01*
X148596557Y-102933127D01*
X148613209Y-102946793D01*
X148626875Y-102963445D01*
X148637031Y-102982445D01*
X148643285Y-103003063D01*
X148646001Y-103030641D01*
X148646001Y-103539361D01*
X148643285Y-103566939D01*
X148637031Y-103587557D01*
X148626875Y-103606557D01*
X148613209Y-103623209D01*
X148596557Y-103636875D01*
X148577557Y-103647031D01*
X148556939Y-103653285D01*
X148529361Y-103656001D01*
X148070641Y-103656001D01*
X148043063Y-103653285D01*
X148022445Y-103647031D01*
X148003445Y-103636875D01*
X147986793Y-103623209D01*
X147973127Y-103606557D01*
X147962971Y-103587557D01*
X147956717Y-103566939D01*
X147954399Y-103543402D01*
X147949619Y-103519369D01*
X147940241Y-103496730D01*
X147926628Y-103476355D01*
X147909300Y-103459028D01*
X147888926Y-103445414D01*
X147866287Y-103436037D01*
X147842254Y-103431256D01*
X147817749Y-103431256D01*
X147793716Y-103436036D01*
X147771077Y-103445414D01*
X147750702Y-103459027D01*
X147733375Y-103476355D01*
X147719761Y-103496729D01*
X147710384Y-103519368D01*
X147705603Y-103543402D01*
X147703285Y-103566939D01*
X147697031Y-103587557D01*
X147686875Y-103606557D01*
X147673209Y-103623209D01*
X147656557Y-103636875D01*
X147637557Y-103647031D01*
X147616939Y-103653285D01*
X147589361Y-103656001D01*
X147130641Y-103656001D01*
X147103063Y-103653285D01*
X147082445Y-103647031D01*
X147063445Y-103636875D01*
X147046793Y-103623209D01*
X147033127Y-103606557D01*
X147022971Y-103587557D01*
X147016717Y-103566939D01*
X147014001Y-103539361D01*
X147014001Y-103030641D01*
X147016717Y-103003063D01*
X147022971Y-102982445D01*
X147033127Y-102963445D01*
X147046793Y-102946793D01*
X147063445Y-102933127D01*
X147082445Y-102922971D01*
X147103063Y-102916717D01*
X147130641Y-102914001D01*
X147589361Y-102914001D01*
X147616939Y-102916717D01*
X147616939Y-102916717D01*
G37*
G36*
X189591000Y-103601000D02*
X188289000Y-103601000D01*
X188289000Y-102299000D01*
X189591000Y-102299000D01*
X189591000Y-103601000D01*
X189591000Y-103601000D01*
G37*
G36*
X121644797Y-103477280D02*
X120742797Y-103477280D01*
X120742797Y-102775280D01*
X121644797Y-102775280D01*
X121644797Y-103477280D01*
X121644797Y-103477280D01*
G37*
G36*
X184291000Y-103476000D02*
X183189000Y-103476000D01*
X183189000Y-102824000D01*
X184291000Y-102824000D01*
X184291000Y-103476000D01*
X184291000Y-103476000D01*
G37*
G36*
X186991000Y-103476000D02*
X185889000Y-103476000D01*
X185889000Y-102824000D01*
X186991000Y-102824000D01*
X186991000Y-103476000D01*
X186991000Y-103476000D01*
G37*
G36*
X129571000Y-103281000D02*
X128269000Y-103281000D01*
X128269000Y-101979000D01*
X129571000Y-101979000D01*
X129571000Y-103281000D01*
X129571000Y-103281000D01*
G37*
G36*
X123994797Y-102952280D02*
X122892797Y-102952280D01*
X122892797Y-102300280D01*
X123994797Y-102300280D01*
X123994797Y-102952280D01*
X123994797Y-102952280D01*
G37*
G36*
X126694797Y-102952280D02*
X125592797Y-102952280D01*
X125592797Y-102300280D01*
X126694797Y-102300280D01*
X126694797Y-102952280D01*
X126694797Y-102952280D01*
G37*
M02*
