G04 #@! TF.GenerationSoftware,KiCad,Pcbnew,5.0.2+dfsg1-1~bpo9+1*
G04 #@! TF.CreationDate,2019-09-11T09:46:49+02:00*
G04 #@! TF.ProjectId,OV9281,4f563932-3831-42e6-9b69-6361645f7063,rev?*
G04 #@! TF.SameCoordinates,Original*
G04 #@! TF.FileFunction,Paste,Bot*
G04 #@! TF.FilePolarity,Positive*
%FSLAX46Y46*%
G04 Gerber Fmt 4.6, Leading zero omitted, Abs format (unit mm)*
G04 Created by KiCad (PCBNEW 5.0.2+dfsg1-1~bpo9+1) date Wed 11 Sep 2019 09:46:49 AM CEST*
%MOMM*%
%LPD*%
G01*
G04 APERTURE LIST*
%ADD10C,0.250000*%
G04 APERTURE END LIST*
D10*
G04 #@! TO.C,U2*
X115712500Y-110786000D03*
X116992500Y-110786000D03*
X114432500Y-110786000D03*
X115072500Y-110786000D03*
X116352500Y-110786000D03*
X112512500Y-110786000D03*
X113152500Y-110786000D03*
X113792500Y-110786000D03*
X115712500Y-111286000D03*
X116992500Y-111286000D03*
X114432500Y-111286000D03*
X115072500Y-111286000D03*
X116352500Y-111286000D03*
X112512500Y-111286000D03*
X113152500Y-111286000D03*
X113792500Y-111286000D03*
X115712500Y-111786000D03*
X116992500Y-111786000D03*
X114432500Y-111786000D03*
X115072500Y-111786000D03*
X116352500Y-111786000D03*
X112512500Y-111786000D03*
X113152500Y-111786000D03*
X113792500Y-111786000D03*
X115712500Y-112286000D03*
X116992500Y-112286000D03*
X114432500Y-112286000D03*
X115072500Y-112286000D03*
X116352500Y-112286000D03*
X112512500Y-112286000D03*
X113152500Y-112286000D03*
X113792500Y-112286000D03*
X115712500Y-112786000D03*
X116992500Y-112786000D03*
X114432500Y-112786000D03*
X115072500Y-112786000D03*
X116352500Y-112786000D03*
X112512500Y-112786000D03*
X113152500Y-112786000D03*
X113792500Y-112786000D03*
X115712500Y-113286000D03*
X116992500Y-113286000D03*
X114432500Y-113286000D03*
X115072500Y-113286000D03*
X116352500Y-113286000D03*
X112512500Y-113286000D03*
X113152500Y-113286000D03*
X113792500Y-113286000D03*
X115712500Y-113786000D03*
X116992500Y-113786000D03*
X114432500Y-113786000D03*
X115072500Y-113786000D03*
X116352500Y-113786000D03*
X112512500Y-113786000D03*
X113152500Y-113786000D03*
X113792500Y-113786000D03*
X116992500Y-114286000D03*
X116352500Y-114286000D03*
X115712500Y-114286000D03*
X115072500Y-114286000D03*
X114432500Y-114286000D03*
X113792500Y-114286000D03*
X113152500Y-114286000D03*
X112512500Y-114286000D03*
G04 #@! TD*
G04 #@! TO.C,U1*
X185712500Y-110786000D03*
X186992500Y-110786000D03*
X184432500Y-110786000D03*
X185072500Y-110786000D03*
X186352500Y-110786000D03*
X182512500Y-110786000D03*
X183152500Y-110786000D03*
X183792500Y-110786000D03*
X185712500Y-111286000D03*
X186992500Y-111286000D03*
X184432500Y-111286000D03*
X185072500Y-111286000D03*
X186352500Y-111286000D03*
X182512500Y-111286000D03*
X183152500Y-111286000D03*
X183792500Y-111286000D03*
X185712500Y-111786000D03*
X186992500Y-111786000D03*
X184432500Y-111786000D03*
X185072500Y-111786000D03*
X186352500Y-111786000D03*
X182512500Y-111786000D03*
X183152500Y-111786000D03*
X183792500Y-111786000D03*
X185712500Y-112286000D03*
X186992500Y-112286000D03*
X184432500Y-112286000D03*
X185072500Y-112286000D03*
X186352500Y-112286000D03*
X182512500Y-112286000D03*
X183152500Y-112286000D03*
X183792500Y-112286000D03*
X185712500Y-112786000D03*
X186992500Y-112786000D03*
X184432500Y-112786000D03*
X185072500Y-112786000D03*
X186352500Y-112786000D03*
X182512500Y-112786000D03*
X183152500Y-112786000D03*
X183792500Y-112786000D03*
X185712500Y-113286000D03*
X186992500Y-113286000D03*
X184432500Y-113286000D03*
X185072500Y-113286000D03*
X186352500Y-113286000D03*
X182512500Y-113286000D03*
X183152500Y-113286000D03*
X183792500Y-113286000D03*
X185712500Y-113786000D03*
X186992500Y-113786000D03*
X184432500Y-113786000D03*
X185072500Y-113786000D03*
X186352500Y-113786000D03*
X182512500Y-113786000D03*
X183152500Y-113786000D03*
X183792500Y-113786000D03*
X186992500Y-114286000D03*
X186352500Y-114286000D03*
X185712500Y-114286000D03*
X185072500Y-114286000D03*
X184432500Y-114286000D03*
X183792500Y-114286000D03*
X183152500Y-114286000D03*
X182512500Y-114286000D03*
G04 #@! TD*
M02*
