G04 #@! TF.GenerationSoftware,KiCad,Pcbnew,5.0.2+dfsg1-1~bpo9+1*
G04 #@! TF.CreationDate,2019-09-12T14:57:23+02:00*
G04 #@! TF.ProjectId,OV9281,4f563932-3831-42e6-9b69-6361645f7063,rev?*
G04 #@! TF.SameCoordinates,Original*
G04 #@! TF.FileFunction,Copper,L1,Top*
G04 #@! TF.FilePolarity,Positive*
%FSLAX46Y46*%
G04 Gerber Fmt 4.6, Leading zero omitted, Abs format (unit mm)*
G04 Created by KiCad (PCBNEW 5.0.2+dfsg1-1~bpo9+1) date Thu 12 Sep 2019 02:57:23 PM CEST*
%MOMM*%
%LPD*%
G01*
G04 APERTURE LIST*
G04 #@! TA.AperFunction,SMDPad,CuDef*
%ADD10R,1.500000X2.500000*%
G04 #@! TD*
G04 #@! TA.AperFunction,SMDPad,CuDef*
%ADD11R,0.300000X1.200000*%
G04 #@! TD*
G04 #@! TA.AperFunction,Conductor*
%ADD12C,0.100000*%
G04 #@! TD*
G04 #@! TA.AperFunction,SMDPad,CuDef*
%ADD13C,0.590000*%
G04 #@! TD*
G04 #@! TA.AperFunction,SMDPad,CuDef*
%ADD14R,1.000000X0.550000*%
G04 #@! TD*
G04 #@! TA.AperFunction,SMDPad,CuDef*
%ADD15R,0.800000X0.600000*%
G04 #@! TD*
G04 #@! TA.AperFunction,SMDPad,CuDef*
%ADD16R,1.200000X1.200000*%
G04 #@! TD*
G04 #@! TA.AperFunction,SMDPad,CuDef*
%ADD17R,1.200000X1.400000*%
G04 #@! TD*
G04 #@! TA.AperFunction,ViaPad*
%ADD18C,2.510000*%
G04 #@! TD*
G04 #@! TA.AperFunction,ViaPad*
%ADD19C,0.600000*%
G04 #@! TD*
G04 #@! TA.AperFunction,ViaPad*
%ADD20C,0.500000*%
G04 #@! TD*
G04 #@! TA.AperFunction,Conductor*
%ADD21C,0.254000*%
G04 #@! TD*
G04 #@! TA.AperFunction,Conductor*
%ADD22C,0.508000*%
G04 #@! TD*
G04 #@! TA.AperFunction,Conductor*
%ADD23C,0.110000*%
G04 #@! TD*
G04 APERTURE END LIST*
D10*
G04 #@! TO.P,J3,~*
G04 #@! TO.N,N/C*
X163850000Y-117550000D03*
X163850000Y-121250000D03*
X136150000Y-121250000D03*
X136150000Y-117550000D03*
D11*
G04 #@! TO.P,J3,50*
G04 #@! TO.N,Net-(J3-Pad50)*
X137750000Y-119400000D03*
G04 #@! TO.P,J3,49*
G04 #@! TO.N,Net-(J3-Pad49)*
X138250000Y-119400000D03*
G04 #@! TO.P,J3,48*
G04 #@! TO.N,+3V3*
X138750000Y-119400000D03*
G04 #@! TO.P,J3,47*
X139250000Y-119400000D03*
G04 #@! TO.P,J3,46*
G04 #@! TO.N,Net-(J3-Pad46)*
X139750000Y-119400000D03*
G04 #@! TO.P,J3,45*
G04 #@! TO.N,Net-(J3-Pad45)*
X140250000Y-119400000D03*
G04 #@! TO.P,J3,44*
G04 #@! TO.N,Net-(J3-Pad44)*
X140750000Y-119400000D03*
G04 #@! TO.P,J3,43*
G04 #@! TO.N,Net-(J3-Pad43)*
X141250000Y-119400000D03*
G04 #@! TO.P,J3,42*
G04 #@! TO.N,/M2_CAM_SCL*
X141750000Y-119400000D03*
G04 #@! TO.P,J3,41*
G04 #@! TO.N,/M2_CAM_SDA*
X142250000Y-119400000D03*
G04 #@! TO.P,J3,40*
G04 #@! TO.N,/M1_CAM_SCL*
X142750000Y-119400000D03*
G04 #@! TO.P,J3,39*
G04 #@! TO.N,/M1_CAM_SDA*
X143250000Y-119400000D03*
G04 #@! TO.P,J3,38*
G04 #@! TO.N,Net-(J3-Pad38)*
X143750000Y-119400000D03*
G04 #@! TO.P,J3,37*
G04 #@! TO.N,Net-(J3-Pad37)*
X144250000Y-119400000D03*
G04 #@! TO.P,J3,36*
G04 #@! TO.N,Net-(J3-Pad36)*
X144750000Y-119400000D03*
G04 #@! TO.P,J3,35*
G04 #@! TO.N,Net-(J3-Pad35)*
X145250000Y-119400000D03*
G04 #@! TO.P,J3,34*
G04 #@! TO.N,/M2_VSYNC*
X145750000Y-119400000D03*
G04 #@! TO.P,J3,33*
G04 #@! TO.N,/CAM_RST*
X146250000Y-119400000D03*
G04 #@! TO.P,J3,32*
G04 #@! TO.N,/M1_VSYNC*
X146750000Y-119400000D03*
G04 #@! TO.P,J3,31*
G04 #@! TO.N,Net-(J3-Pad31)*
X147250000Y-119400000D03*
G04 #@! TO.P,J3,30*
G04 #@! TO.N,GND*
X147750000Y-119400000D03*
G04 #@! TO.P,J3,29*
G04 #@! TO.N,/CAM_R_CLK_P*
X148250000Y-119400000D03*
G04 #@! TO.P,J3,28*
G04 #@! TO.N,/CAM_R_CLK_N*
X148750000Y-119400000D03*
G04 #@! TO.P,J3,27*
G04 #@! TO.N,GND*
X149250000Y-119400000D03*
G04 #@! TO.P,J3,26*
G04 #@! TO.N,/CAM_R_D0_P*
X149750000Y-119400000D03*
G04 #@! TO.P,J3,25*
G04 #@! TO.N,/CAM_R_D0_N*
X150250000Y-119400000D03*
G04 #@! TO.P,J3,24*
G04 #@! TO.N,/CAM_R_D1_P*
X150750000Y-119400000D03*
G04 #@! TO.P,J3,23*
G04 #@! TO.N,/CAM_R_D1_N*
X151250000Y-119400000D03*
G04 #@! TO.P,J3,22*
G04 #@! TO.N,Net-(J3-Pad22)*
X151750000Y-119400000D03*
G04 #@! TO.P,J3,21*
G04 #@! TO.N,Net-(J3-Pad21)*
X152250000Y-119400000D03*
G04 #@! TO.P,J3,20*
G04 #@! TO.N,Net-(J3-Pad20)*
X152750000Y-119400000D03*
G04 #@! TO.P,J3,19*
G04 #@! TO.N,Net-(J3-Pad19)*
X153250000Y-119400000D03*
G04 #@! TO.P,J3,18*
G04 #@! TO.N,GND*
X153750000Y-119400000D03*
G04 #@! TO.P,J3,17*
G04 #@! TO.N,Net-(J3-Pad17)*
X154250000Y-119400000D03*
G04 #@! TO.P,J3,16*
G04 #@! TO.N,Net-(J3-Pad16)*
X154750000Y-119400000D03*
G04 #@! TO.P,J3,15*
G04 #@! TO.N,GND*
X155250000Y-119400000D03*
G04 #@! TO.P,J3,14*
G04 #@! TO.N,Net-(J3-Pad14)*
X155750000Y-119400000D03*
G04 #@! TO.P,J3,13*
G04 #@! TO.N,Net-(J3-Pad13)*
X156250000Y-119400000D03*
G04 #@! TO.P,J3,12*
G04 #@! TO.N,GND*
X156750000Y-119400000D03*
G04 #@! TO.P,J3,11*
G04 #@! TO.N,/CAM_L_CLK_P*
X157250000Y-119400000D03*
G04 #@! TO.P,J3,10*
G04 #@! TO.N,/CAM_L_CLK_N*
X157750000Y-119400000D03*
G04 #@! TO.P,J3,9*
G04 #@! TO.N,GND*
X158250000Y-119400000D03*
G04 #@! TO.P,J3,8*
G04 #@! TO.N,/CAM_L_D0_P*
X158750000Y-119400000D03*
G04 #@! TO.P,J3,7*
G04 #@! TO.N,/CAM_L_D0_N*
X159250000Y-119400000D03*
G04 #@! TO.P,J3,6*
G04 #@! TO.N,/CAM_L_D1_P*
X159750000Y-119400000D03*
G04 #@! TO.P,J3,5*
G04 #@! TO.N,/CAM_L_D1_N*
X160250000Y-119400000D03*
G04 #@! TO.P,J3,4*
G04 #@! TO.N,Net-(J3-Pad4)*
X160750000Y-119400000D03*
G04 #@! TO.P,J3,3*
G04 #@! TO.N,Net-(J3-Pad3)*
X161250000Y-119400000D03*
G04 #@! TO.P,J3,2*
G04 #@! TO.N,Net-(J3-Pad2)*
X161750000Y-119400000D03*
G04 #@! TO.P,J3,1*
G04 #@! TO.N,Net-(J3-Pad1)*
X162250000Y-119400000D03*
G04 #@! TD*
D12*
G04 #@! TO.N,Net-(R1-Pad1)*
G04 #@! TO.C,R5*
G36*
X155161959Y-102965711D02*
X155176277Y-102967835D01*
X155190318Y-102971352D01*
X155203947Y-102976229D01*
X155217032Y-102982418D01*
X155229448Y-102989859D01*
X155241074Y-102998482D01*
X155251799Y-103008203D01*
X155261520Y-103018928D01*
X155270143Y-103030554D01*
X155277584Y-103042970D01*
X155283773Y-103056055D01*
X155288650Y-103069684D01*
X155292167Y-103083725D01*
X155294291Y-103098043D01*
X155295001Y-103112501D01*
X155295001Y-103457501D01*
X155294291Y-103471959D01*
X155292167Y-103486277D01*
X155288650Y-103500318D01*
X155283773Y-103513947D01*
X155277584Y-103527032D01*
X155270143Y-103539448D01*
X155261520Y-103551074D01*
X155251799Y-103561799D01*
X155241074Y-103571520D01*
X155229448Y-103580143D01*
X155217032Y-103587584D01*
X155203947Y-103593773D01*
X155190318Y-103598650D01*
X155176277Y-103602167D01*
X155161959Y-103604291D01*
X155147501Y-103605001D01*
X154852501Y-103605001D01*
X154838043Y-103604291D01*
X154823725Y-103602167D01*
X154809684Y-103598650D01*
X154796055Y-103593773D01*
X154782970Y-103587584D01*
X154770554Y-103580143D01*
X154758928Y-103571520D01*
X154748203Y-103561799D01*
X154738482Y-103551074D01*
X154729859Y-103539448D01*
X154722418Y-103527032D01*
X154716229Y-103513947D01*
X154711352Y-103500318D01*
X154707835Y-103486277D01*
X154705711Y-103471959D01*
X154705001Y-103457501D01*
X154705001Y-103112501D01*
X154705711Y-103098043D01*
X154707835Y-103083725D01*
X154711352Y-103069684D01*
X154716229Y-103056055D01*
X154722418Y-103042970D01*
X154729859Y-103030554D01*
X154738482Y-103018928D01*
X154748203Y-103008203D01*
X154758928Y-102998482D01*
X154770554Y-102989859D01*
X154782970Y-102982418D01*
X154796055Y-102976229D01*
X154809684Y-102971352D01*
X154823725Y-102967835D01*
X154838043Y-102965711D01*
X154852501Y-102965001D01*
X155147501Y-102965001D01*
X155161959Y-102965711D01*
X155161959Y-102965711D01*
G37*
D13*
G04 #@! TD*
G04 #@! TO.P,R5,2*
G04 #@! TO.N,Net-(R1-Pad1)*
X155000001Y-103285001D03*
D12*
G04 #@! TO.N,+3V3*
G04 #@! TO.C,R5*
G36*
X154191959Y-102965711D02*
X154206277Y-102967835D01*
X154220318Y-102971352D01*
X154233947Y-102976229D01*
X154247032Y-102982418D01*
X154259448Y-102989859D01*
X154271074Y-102998482D01*
X154281799Y-103008203D01*
X154291520Y-103018928D01*
X154300143Y-103030554D01*
X154307584Y-103042970D01*
X154313773Y-103056055D01*
X154318650Y-103069684D01*
X154322167Y-103083725D01*
X154324291Y-103098043D01*
X154325001Y-103112501D01*
X154325001Y-103457501D01*
X154324291Y-103471959D01*
X154322167Y-103486277D01*
X154318650Y-103500318D01*
X154313773Y-103513947D01*
X154307584Y-103527032D01*
X154300143Y-103539448D01*
X154291520Y-103551074D01*
X154281799Y-103561799D01*
X154271074Y-103571520D01*
X154259448Y-103580143D01*
X154247032Y-103587584D01*
X154233947Y-103593773D01*
X154220318Y-103598650D01*
X154206277Y-103602167D01*
X154191959Y-103604291D01*
X154177501Y-103605001D01*
X153882501Y-103605001D01*
X153868043Y-103604291D01*
X153853725Y-103602167D01*
X153839684Y-103598650D01*
X153826055Y-103593773D01*
X153812970Y-103587584D01*
X153800554Y-103580143D01*
X153788928Y-103571520D01*
X153778203Y-103561799D01*
X153768482Y-103551074D01*
X153759859Y-103539448D01*
X153752418Y-103527032D01*
X153746229Y-103513947D01*
X153741352Y-103500318D01*
X153737835Y-103486277D01*
X153735711Y-103471959D01*
X153735001Y-103457501D01*
X153735001Y-103112501D01*
X153735711Y-103098043D01*
X153737835Y-103083725D01*
X153741352Y-103069684D01*
X153746229Y-103056055D01*
X153752418Y-103042970D01*
X153759859Y-103030554D01*
X153768482Y-103018928D01*
X153778203Y-103008203D01*
X153788928Y-102998482D01*
X153800554Y-102989859D01*
X153812970Y-102982418D01*
X153826055Y-102976229D01*
X153839684Y-102971352D01*
X153853725Y-102967835D01*
X153868043Y-102965711D01*
X153882501Y-102965001D01*
X154177501Y-102965001D01*
X154191959Y-102965711D01*
X154191959Y-102965711D01*
G37*
D13*
G04 #@! TD*
G04 #@! TO.P,R5,1*
G04 #@! TO.N,+3V3*
X154030001Y-103285001D03*
D12*
G04 #@! TO.N,/M1_CAM_SDA*
G04 #@! TO.C,R4*
G36*
X153251959Y-102965711D02*
X153266277Y-102967835D01*
X153280318Y-102971352D01*
X153293947Y-102976229D01*
X153307032Y-102982418D01*
X153319448Y-102989859D01*
X153331074Y-102998482D01*
X153341799Y-103008203D01*
X153351520Y-103018928D01*
X153360143Y-103030554D01*
X153367584Y-103042970D01*
X153373773Y-103056055D01*
X153378650Y-103069684D01*
X153382167Y-103083725D01*
X153384291Y-103098043D01*
X153385001Y-103112501D01*
X153385001Y-103457501D01*
X153384291Y-103471959D01*
X153382167Y-103486277D01*
X153378650Y-103500318D01*
X153373773Y-103513947D01*
X153367584Y-103527032D01*
X153360143Y-103539448D01*
X153351520Y-103551074D01*
X153341799Y-103561799D01*
X153331074Y-103571520D01*
X153319448Y-103580143D01*
X153307032Y-103587584D01*
X153293947Y-103593773D01*
X153280318Y-103598650D01*
X153266277Y-103602167D01*
X153251959Y-103604291D01*
X153237501Y-103605001D01*
X152942501Y-103605001D01*
X152928043Y-103604291D01*
X152913725Y-103602167D01*
X152899684Y-103598650D01*
X152886055Y-103593773D01*
X152872970Y-103587584D01*
X152860554Y-103580143D01*
X152848928Y-103571520D01*
X152838203Y-103561799D01*
X152828482Y-103551074D01*
X152819859Y-103539448D01*
X152812418Y-103527032D01*
X152806229Y-103513947D01*
X152801352Y-103500318D01*
X152797835Y-103486277D01*
X152795711Y-103471959D01*
X152795001Y-103457501D01*
X152795001Y-103112501D01*
X152795711Y-103098043D01*
X152797835Y-103083725D01*
X152801352Y-103069684D01*
X152806229Y-103056055D01*
X152812418Y-103042970D01*
X152819859Y-103030554D01*
X152828482Y-103018928D01*
X152838203Y-103008203D01*
X152848928Y-102998482D01*
X152860554Y-102989859D01*
X152872970Y-102982418D01*
X152886055Y-102976229D01*
X152899684Y-102971352D01*
X152913725Y-102967835D01*
X152928043Y-102965711D01*
X152942501Y-102965001D01*
X153237501Y-102965001D01*
X153251959Y-102965711D01*
X153251959Y-102965711D01*
G37*
D13*
G04 #@! TD*
G04 #@! TO.P,R4,2*
G04 #@! TO.N,/M1_CAM_SDA*
X153090001Y-103285001D03*
D12*
G04 #@! TO.N,Net-(R1-Pad1)*
G04 #@! TO.C,R4*
G36*
X152281959Y-102965711D02*
X152296277Y-102967835D01*
X152310318Y-102971352D01*
X152323947Y-102976229D01*
X152337032Y-102982418D01*
X152349448Y-102989859D01*
X152361074Y-102998482D01*
X152371799Y-103008203D01*
X152381520Y-103018928D01*
X152390143Y-103030554D01*
X152397584Y-103042970D01*
X152403773Y-103056055D01*
X152408650Y-103069684D01*
X152412167Y-103083725D01*
X152414291Y-103098043D01*
X152415001Y-103112501D01*
X152415001Y-103457501D01*
X152414291Y-103471959D01*
X152412167Y-103486277D01*
X152408650Y-103500318D01*
X152403773Y-103513947D01*
X152397584Y-103527032D01*
X152390143Y-103539448D01*
X152381520Y-103551074D01*
X152371799Y-103561799D01*
X152361074Y-103571520D01*
X152349448Y-103580143D01*
X152337032Y-103587584D01*
X152323947Y-103593773D01*
X152310318Y-103598650D01*
X152296277Y-103602167D01*
X152281959Y-103604291D01*
X152267501Y-103605001D01*
X151972501Y-103605001D01*
X151958043Y-103604291D01*
X151943725Y-103602167D01*
X151929684Y-103598650D01*
X151916055Y-103593773D01*
X151902970Y-103587584D01*
X151890554Y-103580143D01*
X151878928Y-103571520D01*
X151868203Y-103561799D01*
X151858482Y-103551074D01*
X151849859Y-103539448D01*
X151842418Y-103527032D01*
X151836229Y-103513947D01*
X151831352Y-103500318D01*
X151827835Y-103486277D01*
X151825711Y-103471959D01*
X151825001Y-103457501D01*
X151825001Y-103112501D01*
X151825711Y-103098043D01*
X151827835Y-103083725D01*
X151831352Y-103069684D01*
X151836229Y-103056055D01*
X151842418Y-103042970D01*
X151849859Y-103030554D01*
X151858482Y-103018928D01*
X151868203Y-103008203D01*
X151878928Y-102998482D01*
X151890554Y-102989859D01*
X151902970Y-102982418D01*
X151916055Y-102976229D01*
X151929684Y-102971352D01*
X151943725Y-102967835D01*
X151958043Y-102965711D01*
X151972501Y-102965001D01*
X152267501Y-102965001D01*
X152281959Y-102965711D01*
X152281959Y-102965711D01*
G37*
D13*
G04 #@! TD*
G04 #@! TO.P,R4,1*
G04 #@! TO.N,Net-(R1-Pad1)*
X152120001Y-103285001D03*
D12*
G04 #@! TO.N,/M1_CAM_SCL*
G04 #@! TO.C,R3*
G36*
X151341959Y-102965711D02*
X151356277Y-102967835D01*
X151370318Y-102971352D01*
X151383947Y-102976229D01*
X151397032Y-102982418D01*
X151409448Y-102989859D01*
X151421074Y-102998482D01*
X151431799Y-103008203D01*
X151441520Y-103018928D01*
X151450143Y-103030554D01*
X151457584Y-103042970D01*
X151463773Y-103056055D01*
X151468650Y-103069684D01*
X151472167Y-103083725D01*
X151474291Y-103098043D01*
X151475001Y-103112501D01*
X151475001Y-103457501D01*
X151474291Y-103471959D01*
X151472167Y-103486277D01*
X151468650Y-103500318D01*
X151463773Y-103513947D01*
X151457584Y-103527032D01*
X151450143Y-103539448D01*
X151441520Y-103551074D01*
X151431799Y-103561799D01*
X151421074Y-103571520D01*
X151409448Y-103580143D01*
X151397032Y-103587584D01*
X151383947Y-103593773D01*
X151370318Y-103598650D01*
X151356277Y-103602167D01*
X151341959Y-103604291D01*
X151327501Y-103605001D01*
X151032501Y-103605001D01*
X151018043Y-103604291D01*
X151003725Y-103602167D01*
X150989684Y-103598650D01*
X150976055Y-103593773D01*
X150962970Y-103587584D01*
X150950554Y-103580143D01*
X150938928Y-103571520D01*
X150928203Y-103561799D01*
X150918482Y-103551074D01*
X150909859Y-103539448D01*
X150902418Y-103527032D01*
X150896229Y-103513947D01*
X150891352Y-103500318D01*
X150887835Y-103486277D01*
X150885711Y-103471959D01*
X150885001Y-103457501D01*
X150885001Y-103112501D01*
X150885711Y-103098043D01*
X150887835Y-103083725D01*
X150891352Y-103069684D01*
X150896229Y-103056055D01*
X150902418Y-103042970D01*
X150909859Y-103030554D01*
X150918482Y-103018928D01*
X150928203Y-103008203D01*
X150938928Y-102998482D01*
X150950554Y-102989859D01*
X150962970Y-102982418D01*
X150976055Y-102976229D01*
X150989684Y-102971352D01*
X151003725Y-102967835D01*
X151018043Y-102965711D01*
X151032501Y-102965001D01*
X151327501Y-102965001D01*
X151341959Y-102965711D01*
X151341959Y-102965711D01*
G37*
D13*
G04 #@! TD*
G04 #@! TO.P,R3,2*
G04 #@! TO.N,/M1_CAM_SCL*
X151180001Y-103285001D03*
D12*
G04 #@! TO.N,Net-(R1-Pad1)*
G04 #@! TO.C,R3*
G36*
X150371959Y-102965711D02*
X150386277Y-102967835D01*
X150400318Y-102971352D01*
X150413947Y-102976229D01*
X150427032Y-102982418D01*
X150439448Y-102989859D01*
X150451074Y-102998482D01*
X150461799Y-103008203D01*
X150471520Y-103018928D01*
X150480143Y-103030554D01*
X150487584Y-103042970D01*
X150493773Y-103056055D01*
X150498650Y-103069684D01*
X150502167Y-103083725D01*
X150504291Y-103098043D01*
X150505001Y-103112501D01*
X150505001Y-103457501D01*
X150504291Y-103471959D01*
X150502167Y-103486277D01*
X150498650Y-103500318D01*
X150493773Y-103513947D01*
X150487584Y-103527032D01*
X150480143Y-103539448D01*
X150471520Y-103551074D01*
X150461799Y-103561799D01*
X150451074Y-103571520D01*
X150439448Y-103580143D01*
X150427032Y-103587584D01*
X150413947Y-103593773D01*
X150400318Y-103598650D01*
X150386277Y-103602167D01*
X150371959Y-103604291D01*
X150357501Y-103605001D01*
X150062501Y-103605001D01*
X150048043Y-103604291D01*
X150033725Y-103602167D01*
X150019684Y-103598650D01*
X150006055Y-103593773D01*
X149992970Y-103587584D01*
X149980554Y-103580143D01*
X149968928Y-103571520D01*
X149958203Y-103561799D01*
X149948482Y-103551074D01*
X149939859Y-103539448D01*
X149932418Y-103527032D01*
X149926229Y-103513947D01*
X149921352Y-103500318D01*
X149917835Y-103486277D01*
X149915711Y-103471959D01*
X149915001Y-103457501D01*
X149915001Y-103112501D01*
X149915711Y-103098043D01*
X149917835Y-103083725D01*
X149921352Y-103069684D01*
X149926229Y-103056055D01*
X149932418Y-103042970D01*
X149939859Y-103030554D01*
X149948482Y-103018928D01*
X149958203Y-103008203D01*
X149968928Y-102998482D01*
X149980554Y-102989859D01*
X149992970Y-102982418D01*
X150006055Y-102976229D01*
X150019684Y-102971352D01*
X150033725Y-102967835D01*
X150048043Y-102965711D01*
X150062501Y-102965001D01*
X150357501Y-102965001D01*
X150371959Y-102965711D01*
X150371959Y-102965711D01*
G37*
D13*
G04 #@! TD*
G04 #@! TO.P,R3,1*
G04 #@! TO.N,Net-(R1-Pad1)*
X150210001Y-103285001D03*
D12*
G04 #@! TO.N,/M2_CAM_SDA*
G04 #@! TO.C,R2*
G36*
X149431959Y-102965711D02*
X149446277Y-102967835D01*
X149460318Y-102971352D01*
X149473947Y-102976229D01*
X149487032Y-102982418D01*
X149499448Y-102989859D01*
X149511074Y-102998482D01*
X149521799Y-103008203D01*
X149531520Y-103018928D01*
X149540143Y-103030554D01*
X149547584Y-103042970D01*
X149553773Y-103056055D01*
X149558650Y-103069684D01*
X149562167Y-103083725D01*
X149564291Y-103098043D01*
X149565001Y-103112501D01*
X149565001Y-103457501D01*
X149564291Y-103471959D01*
X149562167Y-103486277D01*
X149558650Y-103500318D01*
X149553773Y-103513947D01*
X149547584Y-103527032D01*
X149540143Y-103539448D01*
X149531520Y-103551074D01*
X149521799Y-103561799D01*
X149511074Y-103571520D01*
X149499448Y-103580143D01*
X149487032Y-103587584D01*
X149473947Y-103593773D01*
X149460318Y-103598650D01*
X149446277Y-103602167D01*
X149431959Y-103604291D01*
X149417501Y-103605001D01*
X149122501Y-103605001D01*
X149108043Y-103604291D01*
X149093725Y-103602167D01*
X149079684Y-103598650D01*
X149066055Y-103593773D01*
X149052970Y-103587584D01*
X149040554Y-103580143D01*
X149028928Y-103571520D01*
X149018203Y-103561799D01*
X149008482Y-103551074D01*
X148999859Y-103539448D01*
X148992418Y-103527032D01*
X148986229Y-103513947D01*
X148981352Y-103500318D01*
X148977835Y-103486277D01*
X148975711Y-103471959D01*
X148975001Y-103457501D01*
X148975001Y-103112501D01*
X148975711Y-103098043D01*
X148977835Y-103083725D01*
X148981352Y-103069684D01*
X148986229Y-103056055D01*
X148992418Y-103042970D01*
X148999859Y-103030554D01*
X149008482Y-103018928D01*
X149018203Y-103008203D01*
X149028928Y-102998482D01*
X149040554Y-102989859D01*
X149052970Y-102982418D01*
X149066055Y-102976229D01*
X149079684Y-102971352D01*
X149093725Y-102967835D01*
X149108043Y-102965711D01*
X149122501Y-102965001D01*
X149417501Y-102965001D01*
X149431959Y-102965711D01*
X149431959Y-102965711D01*
G37*
D13*
G04 #@! TD*
G04 #@! TO.P,R2,2*
G04 #@! TO.N,/M2_CAM_SDA*
X149270001Y-103285001D03*
D12*
G04 #@! TO.N,Net-(R1-Pad1)*
G04 #@! TO.C,R2*
G36*
X148461959Y-102965711D02*
X148476277Y-102967835D01*
X148490318Y-102971352D01*
X148503947Y-102976229D01*
X148517032Y-102982418D01*
X148529448Y-102989859D01*
X148541074Y-102998482D01*
X148551799Y-103008203D01*
X148561520Y-103018928D01*
X148570143Y-103030554D01*
X148577584Y-103042970D01*
X148583773Y-103056055D01*
X148588650Y-103069684D01*
X148592167Y-103083725D01*
X148594291Y-103098043D01*
X148595001Y-103112501D01*
X148595001Y-103457501D01*
X148594291Y-103471959D01*
X148592167Y-103486277D01*
X148588650Y-103500318D01*
X148583773Y-103513947D01*
X148577584Y-103527032D01*
X148570143Y-103539448D01*
X148561520Y-103551074D01*
X148551799Y-103561799D01*
X148541074Y-103571520D01*
X148529448Y-103580143D01*
X148517032Y-103587584D01*
X148503947Y-103593773D01*
X148490318Y-103598650D01*
X148476277Y-103602167D01*
X148461959Y-103604291D01*
X148447501Y-103605001D01*
X148152501Y-103605001D01*
X148138043Y-103604291D01*
X148123725Y-103602167D01*
X148109684Y-103598650D01*
X148096055Y-103593773D01*
X148082970Y-103587584D01*
X148070554Y-103580143D01*
X148058928Y-103571520D01*
X148048203Y-103561799D01*
X148038482Y-103551074D01*
X148029859Y-103539448D01*
X148022418Y-103527032D01*
X148016229Y-103513947D01*
X148011352Y-103500318D01*
X148007835Y-103486277D01*
X148005711Y-103471959D01*
X148005001Y-103457501D01*
X148005001Y-103112501D01*
X148005711Y-103098043D01*
X148007835Y-103083725D01*
X148011352Y-103069684D01*
X148016229Y-103056055D01*
X148022418Y-103042970D01*
X148029859Y-103030554D01*
X148038482Y-103018928D01*
X148048203Y-103008203D01*
X148058928Y-102998482D01*
X148070554Y-102989859D01*
X148082970Y-102982418D01*
X148096055Y-102976229D01*
X148109684Y-102971352D01*
X148123725Y-102967835D01*
X148138043Y-102965711D01*
X148152501Y-102965001D01*
X148447501Y-102965001D01*
X148461959Y-102965711D01*
X148461959Y-102965711D01*
G37*
D13*
G04 #@! TD*
G04 #@! TO.P,R2,1*
G04 #@! TO.N,Net-(R1-Pad1)*
X148300001Y-103285001D03*
D12*
G04 #@! TO.N,/M2_CAM_SCL*
G04 #@! TO.C,R1*
G36*
X147521959Y-102965711D02*
X147536277Y-102967835D01*
X147550318Y-102971352D01*
X147563947Y-102976229D01*
X147577032Y-102982418D01*
X147589448Y-102989859D01*
X147601074Y-102998482D01*
X147611799Y-103008203D01*
X147621520Y-103018928D01*
X147630143Y-103030554D01*
X147637584Y-103042970D01*
X147643773Y-103056055D01*
X147648650Y-103069684D01*
X147652167Y-103083725D01*
X147654291Y-103098043D01*
X147655001Y-103112501D01*
X147655001Y-103457501D01*
X147654291Y-103471959D01*
X147652167Y-103486277D01*
X147648650Y-103500318D01*
X147643773Y-103513947D01*
X147637584Y-103527032D01*
X147630143Y-103539448D01*
X147621520Y-103551074D01*
X147611799Y-103561799D01*
X147601074Y-103571520D01*
X147589448Y-103580143D01*
X147577032Y-103587584D01*
X147563947Y-103593773D01*
X147550318Y-103598650D01*
X147536277Y-103602167D01*
X147521959Y-103604291D01*
X147507501Y-103605001D01*
X147212501Y-103605001D01*
X147198043Y-103604291D01*
X147183725Y-103602167D01*
X147169684Y-103598650D01*
X147156055Y-103593773D01*
X147142970Y-103587584D01*
X147130554Y-103580143D01*
X147118928Y-103571520D01*
X147108203Y-103561799D01*
X147098482Y-103551074D01*
X147089859Y-103539448D01*
X147082418Y-103527032D01*
X147076229Y-103513947D01*
X147071352Y-103500318D01*
X147067835Y-103486277D01*
X147065711Y-103471959D01*
X147065001Y-103457501D01*
X147065001Y-103112501D01*
X147065711Y-103098043D01*
X147067835Y-103083725D01*
X147071352Y-103069684D01*
X147076229Y-103056055D01*
X147082418Y-103042970D01*
X147089859Y-103030554D01*
X147098482Y-103018928D01*
X147108203Y-103008203D01*
X147118928Y-102998482D01*
X147130554Y-102989859D01*
X147142970Y-102982418D01*
X147156055Y-102976229D01*
X147169684Y-102971352D01*
X147183725Y-102967835D01*
X147198043Y-102965711D01*
X147212501Y-102965001D01*
X147507501Y-102965001D01*
X147521959Y-102965711D01*
X147521959Y-102965711D01*
G37*
D13*
G04 #@! TD*
G04 #@! TO.P,R1,2*
G04 #@! TO.N,/M2_CAM_SCL*
X147360001Y-103285001D03*
D12*
G04 #@! TO.N,Net-(R1-Pad1)*
G04 #@! TO.C,R1*
G36*
X146551959Y-102965711D02*
X146566277Y-102967835D01*
X146580318Y-102971352D01*
X146593947Y-102976229D01*
X146607032Y-102982418D01*
X146619448Y-102989859D01*
X146631074Y-102998482D01*
X146641799Y-103008203D01*
X146651520Y-103018928D01*
X146660143Y-103030554D01*
X146667584Y-103042970D01*
X146673773Y-103056055D01*
X146678650Y-103069684D01*
X146682167Y-103083725D01*
X146684291Y-103098043D01*
X146685001Y-103112501D01*
X146685001Y-103457501D01*
X146684291Y-103471959D01*
X146682167Y-103486277D01*
X146678650Y-103500318D01*
X146673773Y-103513947D01*
X146667584Y-103527032D01*
X146660143Y-103539448D01*
X146651520Y-103551074D01*
X146641799Y-103561799D01*
X146631074Y-103571520D01*
X146619448Y-103580143D01*
X146607032Y-103587584D01*
X146593947Y-103593773D01*
X146580318Y-103598650D01*
X146566277Y-103602167D01*
X146551959Y-103604291D01*
X146537501Y-103605001D01*
X146242501Y-103605001D01*
X146228043Y-103604291D01*
X146213725Y-103602167D01*
X146199684Y-103598650D01*
X146186055Y-103593773D01*
X146172970Y-103587584D01*
X146160554Y-103580143D01*
X146148928Y-103571520D01*
X146138203Y-103561799D01*
X146128482Y-103551074D01*
X146119859Y-103539448D01*
X146112418Y-103527032D01*
X146106229Y-103513947D01*
X146101352Y-103500318D01*
X146097835Y-103486277D01*
X146095711Y-103471959D01*
X146095001Y-103457501D01*
X146095001Y-103112501D01*
X146095711Y-103098043D01*
X146097835Y-103083725D01*
X146101352Y-103069684D01*
X146106229Y-103056055D01*
X146112418Y-103042970D01*
X146119859Y-103030554D01*
X146128482Y-103018928D01*
X146138203Y-103008203D01*
X146148928Y-102998482D01*
X146160554Y-102989859D01*
X146172970Y-102982418D01*
X146186055Y-102976229D01*
X146199684Y-102971352D01*
X146213725Y-102967835D01*
X146228043Y-102965711D01*
X146242501Y-102965001D01*
X146537501Y-102965001D01*
X146551959Y-102965711D01*
X146551959Y-102965711D01*
G37*
D13*
G04 #@! TD*
G04 #@! TO.P,R1,1*
G04 #@! TO.N,Net-(R1-Pad1)*
X146390001Y-103285001D03*
D14*
G04 #@! TO.P,IC3,5*
G04 #@! TO.N,+1V2*
X183740000Y-105050000D03*
G04 #@! TO.P,IC3,4*
G04 #@! TO.N,N/C*
X183740000Y-103150000D03*
G04 #@! TO.P,IC3,1*
G04 #@! TO.N,+3V3*
X186440000Y-105050000D03*
G04 #@! TO.P,IC3,2*
G04 #@! TO.N,GND*
X186440000Y-104100000D03*
G04 #@! TO.P,IC3,3*
G04 #@! TO.N,+3V3*
X186440000Y-103150000D03*
G04 #@! TD*
D15*
G04 #@! TO.P,C4,1*
G04 #@! TO.N,+2V8*
X121170000Y-109130000D03*
G04 #@! TO.P,C4,2*
G04 #@! TO.N,GND*
X121170000Y-107730000D03*
G04 #@! TD*
G04 #@! TO.P,C5,1*
G04 #@! TO.N,+1V8*
X121193797Y-104526280D03*
G04 #@! TO.P,C5,2*
G04 #@! TO.N,GND*
X121193797Y-103126280D03*
G04 #@! TD*
G04 #@! TO.P,C6,1*
G04 #@! TO.N,+1V2*
X181790000Y-105050000D03*
G04 #@! TO.P,C6,2*
G04 #@! TO.N,GND*
X181790000Y-103650000D03*
G04 #@! TD*
D16*
G04 #@! TO.P,C2,1*
G04 #@! TO.N,+3V3*
X128920000Y-102630000D03*
G04 #@! TO.P,C2,2*
G04 #@! TO.N,GND*
X128920000Y-104730000D03*
G04 #@! TD*
G04 #@! TO.P,C1,1*
G04 #@! TO.N,+3V3*
X128870000Y-107230000D03*
G04 #@! TO.P,C1,2*
G04 #@! TO.N,GND*
X128870000Y-109330000D03*
G04 #@! TD*
G04 #@! TO.P,C3,1*
G04 #@! TO.N,+3V3*
X188940000Y-105050000D03*
G04 #@! TO.P,C3,2*
G04 #@! TO.N,GND*
X188940000Y-102950000D03*
G04 #@! TD*
D17*
G04 #@! TO.P,Y1,4*
G04 #@! TO.N,+1V8*
X172454300Y-106566664D03*
G04 #@! TO.P,Y1,1*
X174654300Y-106566664D03*
G04 #@! TO.P,Y1,3*
G04 #@! TO.N,/M1_MCLK*
X172454300Y-104026664D03*
G04 #@! TO.P,Y1,2*
G04 #@! TO.N,GND*
X174654300Y-104026664D03*
G04 #@! TD*
G04 #@! TO.P,Y2,4*
G04 #@! TO.N,+1V8*
X108624300Y-106496664D03*
G04 #@! TO.P,Y2,1*
X110824300Y-106496664D03*
G04 #@! TO.P,Y2,3*
G04 #@! TO.N,/M2_MCLK*
X108624300Y-103956664D03*
G04 #@! TO.P,Y2,2*
G04 #@! TO.N,GND*
X110824300Y-103956664D03*
G04 #@! TD*
D14*
G04 #@! TO.P,IC2,5*
G04 #@! TO.N,+1V8*
X123443797Y-104526280D03*
G04 #@! TO.P,IC2,4*
G04 #@! TO.N,N/C*
X123443797Y-102626280D03*
G04 #@! TO.P,IC2,1*
G04 #@! TO.N,+3V3*
X126143797Y-104526280D03*
G04 #@! TO.P,IC2,2*
G04 #@! TO.N,GND*
X126143797Y-103576280D03*
G04 #@! TO.P,IC2,3*
G04 #@! TO.N,+3V3*
X126143797Y-102626280D03*
G04 #@! TD*
G04 #@! TO.P,IC1,5*
G04 #@! TO.N,+2V8*
X123870000Y-109130000D03*
G04 #@! TO.P,IC1,4*
G04 #@! TO.N,N/C*
X123870000Y-107230000D03*
G04 #@! TO.P,IC1,1*
G04 #@! TO.N,+3V3*
X126570000Y-109130000D03*
G04 #@! TO.P,IC1,2*
G04 #@! TO.N,GND*
X126570000Y-108180000D03*
G04 #@! TO.P,IC1,3*
G04 #@! TO.N,+3V3*
X126570000Y-107230000D03*
G04 #@! TD*
D18*
G04 #@! TO.N,*
X103000000Y-103000000D03*
X197000000Y-103000000D03*
X103000000Y-122000000D03*
X197000000Y-122000000D03*
D19*
G04 #@! TO.N,GND*
X131970000Y-104730000D03*
X118720000Y-103130000D03*
X131970000Y-108430000D03*
X124120000Y-108180000D03*
X191240000Y-102950000D03*
X185090000Y-106000000D03*
X180190000Y-103650000D03*
X176020000Y-104020000D03*
G04 #@! TO.N,+3V3*
X131120000Y-107230000D03*
G04 #@! TO.N,+1V2*
X185090000Y-102100000D03*
D20*
G04 #@! TO.N,/CAM_L_D1_P*
X165290000Y-106880000D03*
G04 #@! TO.N,/CAM_L_D1_N*
X165290000Y-107480000D03*
G04 #@! TO.N,/CAM_L_CLK_P*
X156060000Y-117710000D03*
G04 #@! TO.N,/CAM_L_CLK_N*
X156060000Y-117110000D03*
D19*
G04 #@! TO.N,/M1_MCLK*
X171420000Y-102770000D03*
D20*
G04 #@! TO.N,/CAM_L_D0_N*
X158240000Y-117190000D03*
G04 #@! TO.N,/CAM_L_D0_P*
X158240000Y-117790000D03*
G04 #@! TO.N,/M1_DVDD*
X183060000Y-115240000D03*
X181760000Y-110360000D03*
X185070000Y-109960000D03*
X181460000Y-114020000D03*
X188510000Y-113190000D03*
X186870000Y-109540000D03*
G04 #@! TO.N,/M1_DGND*
X186880000Y-115460000D03*
X183790000Y-115100000D03*
X182430000Y-109940000D03*
X182270000Y-114980000D03*
X184260000Y-115890000D03*
G04 #@! TO.N,/M1_DOVDD*
X186990000Y-114820000D03*
X185860000Y-109540000D03*
X183140000Y-110020000D03*
X180225000Y-112525000D03*
G04 #@! TO.N,/M1_AVDD*
X187730000Y-114660000D03*
X187700000Y-110970000D03*
X181440000Y-113290000D03*
G04 #@! TO.N,/M1_AGND*
X187880000Y-113290000D03*
X187710000Y-110180000D03*
X187680000Y-111630000D03*
G04 #@! TO.N,/M1_DGND*
X181600000Y-111300000D03*
G04 #@! TO.N,/M1_SID*
X181025000Y-112100000D03*
G04 #@! TO.N,/M1_MCLK*
X180825000Y-111300000D03*
G04 #@! TD*
D21*
G04 #@! TO.N,GND*
X128920000Y-104730000D02*
X131970000Y-104730000D01*
X121170000Y-107730000D02*
X118220000Y-107730000D01*
X121193797Y-103126280D02*
X118723720Y-103126280D01*
X124770000Y-102956483D02*
X124770000Y-101530000D01*
X126143797Y-103576280D02*
X125389797Y-103576280D01*
X125389797Y-103576280D02*
X124770000Y-102956483D01*
X128870000Y-109330000D02*
X131070000Y-109330000D01*
X131070000Y-109330000D02*
X131970000Y-108430000D01*
X126570000Y-108180000D02*
X124120000Y-108180000D01*
X188940000Y-102950000D02*
X191240000Y-102950000D01*
X185090000Y-104696000D02*
X185090000Y-106000000D01*
X186440000Y-104100000D02*
X185686000Y-104100000D01*
X185686000Y-104100000D02*
X185090000Y-104696000D01*
X181790000Y-103650000D02*
X180190000Y-103650000D01*
X174654300Y-104026664D02*
X176013336Y-104026664D01*
X176013336Y-104026664D02*
X176020000Y-104020000D01*
D22*
G04 #@! TO.N,+3V3*
X128920000Y-100930000D02*
X128920000Y-102630000D01*
X126147517Y-102630000D02*
X126143797Y-102626280D01*
X127151797Y-104526280D02*
X127520000Y-104158077D01*
X127520000Y-104158077D02*
X127520000Y-102630000D01*
X126143797Y-104526280D02*
X127151797Y-104526280D01*
X128920000Y-102630000D02*
X127520000Y-102630000D01*
X127520000Y-102630000D02*
X126147517Y-102630000D01*
X127720000Y-108622202D02*
X127720000Y-107230000D01*
X127212202Y-109130000D02*
X127720000Y-108622202D01*
X126570000Y-109130000D02*
X127212202Y-109130000D01*
X128870000Y-107230000D02*
X127720000Y-107230000D01*
X127720000Y-107230000D02*
X126570000Y-107230000D01*
X128870000Y-107230000D02*
X131120000Y-107230000D01*
X187448000Y-103150000D02*
X187640000Y-103342000D01*
X188940000Y-105050000D02*
X187640000Y-105050000D01*
X187640000Y-103342000D02*
X187640000Y-105050000D01*
X186440000Y-103150000D02*
X187448000Y-103150000D01*
X187640000Y-105050000D02*
X186440000Y-105050000D01*
X188940000Y-105050000D02*
X188940000Y-106750000D01*
G04 #@! TO.N,+2V8*
X123870000Y-109130000D02*
X121170000Y-109130000D01*
X121170000Y-109130000D02*
X118470000Y-109130000D01*
G04 #@! TO.N,+1V8*
X123443797Y-104526280D02*
X121193797Y-104526280D01*
X121193797Y-104526280D02*
X118753916Y-104526280D01*
X123443797Y-104526280D02*
X124451797Y-104526280D01*
X124451797Y-104526280D02*
X125709518Y-105784001D01*
G04 #@! TO.N,+1V2*
X181790000Y-105050000D02*
X183740000Y-105050000D01*
D21*
X183965000Y-105050000D02*
X183740000Y-105050000D01*
X185090000Y-103925000D02*
X183965000Y-105050000D01*
X185090000Y-102100000D02*
X185090000Y-103925000D01*
D23*
G04 #@! TO.N,/CAM_L_D1_P*
X165095000Y-107075000D02*
X165290000Y-106880000D01*
X163015000Y-114416506D02*
X163015000Y-107846506D01*
X159895000Y-118354999D02*
X159895000Y-117536506D01*
X159750000Y-118499999D02*
X159895000Y-118354999D01*
X159895000Y-117536506D02*
X163015000Y-114416506D01*
X159750000Y-119400000D02*
X159750000Y-118499999D01*
X163786506Y-107075000D02*
X165095000Y-107075000D01*
X163015000Y-107846506D02*
X163786506Y-107075000D01*
G04 #@! TO.N,/CAM_L_D1_N*
X163873494Y-107285000D02*
X165095000Y-107285000D01*
X163225000Y-107933494D02*
X163873494Y-107285000D01*
X165095000Y-107285000D02*
X165290000Y-107480000D01*
X160105000Y-117623494D02*
X163225000Y-114503494D01*
X160105000Y-118354999D02*
X160105000Y-117623494D01*
X160250000Y-119400000D02*
X160250000Y-118499999D01*
X160250000Y-118499999D02*
X160105000Y-118354999D01*
X163225000Y-114503494D02*
X163225000Y-107933494D01*
G04 #@! TO.N,/CAM_L_CLK_P*
X156255000Y-117515000D02*
X156060000Y-117710000D01*
X157395000Y-118354999D02*
X157395000Y-117843494D01*
X157250000Y-118499999D02*
X157395000Y-118354999D01*
X157395000Y-117843494D02*
X157066506Y-117515000D01*
X157066506Y-117515000D02*
X156255000Y-117515000D01*
X157250000Y-119400000D02*
X157250000Y-118499999D01*
G04 #@! TO.N,/CAM_L_CLK_N*
X156255000Y-117305000D02*
X156060000Y-117110000D01*
X157153494Y-117305000D02*
X156255000Y-117305000D01*
X157750000Y-118499999D02*
X157605000Y-118354999D01*
X157750000Y-119400000D02*
X157750000Y-118499999D01*
X157605000Y-118354999D02*
X157605000Y-117756506D01*
X157605000Y-117756506D02*
X157153494Y-117305000D01*
D21*
G04 #@! TO.N,/M1_MCLK*
X171420000Y-102992364D02*
X172454300Y-104026664D01*
X171420000Y-102770000D02*
X171420000Y-102992364D01*
D23*
G04 #@! TO.N,/CAM_L_D0_N*
X159250000Y-118499999D02*
X159105000Y-118354999D01*
X159250000Y-119400000D02*
X159250000Y-118499999D01*
X159105000Y-118354999D02*
X159105000Y-117666506D01*
X158435000Y-117385000D02*
X158240000Y-117190000D01*
X159105000Y-117666506D02*
X158823494Y-117385000D01*
X158823494Y-117385000D02*
X158435000Y-117385000D01*
G04 #@! TO.N,/CAM_L_D0_P*
X158895000Y-118354999D02*
X158895000Y-117753494D01*
X158750000Y-118499999D02*
X158895000Y-118354999D01*
X158750000Y-119400000D02*
X158750000Y-118499999D01*
X158895000Y-117753494D02*
X158736506Y-117595000D01*
X158435000Y-117595000D02*
X158240000Y-117790000D01*
X158736506Y-117595000D02*
X158435000Y-117595000D01*
G04 #@! TD*
M02*
