G04 #@! TF.GenerationSoftware,KiCad,Pcbnew,5.1.5+dfsg1-2*
G04 #@! TF.CreationDate,2019-11-29T08:26:34+00:00*
G04 #@! TF.ProjectId,OV9281-Dual-Camera-Board,4f563932-3831-42d4-9475-616c2d43616d,rev?*
G04 #@! TF.SameCoordinates,Original*
G04 #@! TF.FileFunction,Soldermask,Top*
G04 #@! TF.FilePolarity,Negative*
%FSLAX46Y46*%
G04 Gerber Fmt 4.6, Leading zero omitted, Abs format (unit mm)*
G04 Created by KiCad (PCBNEW 5.1.5+dfsg1-2) date 2019-11-29 08:26:34*
%MOMM*%
%LPD*%
G04 APERTURE LIST*
%ADD10C,0.100000*%
G04 APERTURE END LIST*
D10*
G36*
X197787852Y-119402797D02*
G01*
X198279402Y-119606404D01*
X198279403Y-119606405D01*
X198721787Y-119901996D01*
X199098004Y-120278213D01*
X199295512Y-120573805D01*
X199393596Y-120720598D01*
X199597203Y-121212148D01*
X199701000Y-121733973D01*
X199701000Y-122266027D01*
X199597203Y-122787852D01*
X199393596Y-123279402D01*
X199393595Y-123279403D01*
X199098004Y-123721787D01*
X198721787Y-124098004D01*
X198426195Y-124295512D01*
X198279402Y-124393596D01*
X197787852Y-124597203D01*
X197266027Y-124701000D01*
X196733973Y-124701000D01*
X196212148Y-124597203D01*
X195720598Y-124393596D01*
X195573805Y-124295512D01*
X195278213Y-124098004D01*
X194901996Y-123721787D01*
X194606405Y-123279403D01*
X194606404Y-123279402D01*
X194402797Y-122787852D01*
X194299000Y-122266027D01*
X194299000Y-121733973D01*
X194402797Y-121212148D01*
X194606404Y-120720598D01*
X194704488Y-120573805D01*
X194901996Y-120278213D01*
X195278213Y-119901996D01*
X195720597Y-119606405D01*
X195720598Y-119606404D01*
X196212148Y-119402797D01*
X196733973Y-119299000D01*
X197266027Y-119299000D01*
X197787852Y-119402797D01*
G37*
G36*
X103787852Y-119402797D02*
G01*
X104279402Y-119606404D01*
X104279403Y-119606405D01*
X104721787Y-119901996D01*
X105098004Y-120278213D01*
X105295512Y-120573805D01*
X105393596Y-120720598D01*
X105597203Y-121212148D01*
X105701000Y-121733973D01*
X105701000Y-122266027D01*
X105597203Y-122787852D01*
X105393596Y-123279402D01*
X105393595Y-123279403D01*
X105098004Y-123721787D01*
X104721787Y-124098004D01*
X104426195Y-124295512D01*
X104279402Y-124393596D01*
X103787852Y-124597203D01*
X103266027Y-124701000D01*
X102733973Y-124701000D01*
X102212148Y-124597203D01*
X101720598Y-124393596D01*
X101573805Y-124295512D01*
X101278213Y-124098004D01*
X100901996Y-123721787D01*
X100606405Y-123279403D01*
X100606404Y-123279402D01*
X100402797Y-122787852D01*
X100299000Y-122266027D01*
X100299000Y-121733973D01*
X100402797Y-121212148D01*
X100606404Y-120720598D01*
X100704488Y-120573805D01*
X100901996Y-120278213D01*
X101278213Y-119901996D01*
X101720597Y-119606405D01*
X101720598Y-119606404D01*
X102212148Y-119402797D01*
X102733973Y-119299000D01*
X103266027Y-119299000D01*
X103787852Y-119402797D01*
G37*
G36*
X128041938Y-123075716D02*
G01*
X128062557Y-123081971D01*
X128081553Y-123092124D01*
X128098208Y-123105792D01*
X128111876Y-123122447D01*
X128122029Y-123141443D01*
X128128284Y-123162062D01*
X128131000Y-123189640D01*
X128131000Y-123698360D01*
X128128284Y-123725938D01*
X128122029Y-123746557D01*
X128111876Y-123765553D01*
X128098208Y-123782208D01*
X128081553Y-123795876D01*
X128062557Y-123806029D01*
X128041938Y-123812284D01*
X128014360Y-123815000D01*
X127555640Y-123815000D01*
X127528062Y-123812284D01*
X127507443Y-123806029D01*
X127488447Y-123795876D01*
X127471792Y-123782208D01*
X127458124Y-123765553D01*
X127447971Y-123746557D01*
X127441716Y-123725938D01*
X127439000Y-123698360D01*
X127439000Y-123189640D01*
X127441716Y-123162062D01*
X127447971Y-123141443D01*
X127458124Y-123122447D01*
X127471792Y-123105792D01*
X127488447Y-123092124D01*
X127507443Y-123081971D01*
X127528062Y-123075716D01*
X127555640Y-123073000D01*
X128014360Y-123073000D01*
X128041938Y-123075716D01*
G37*
G36*
X129011938Y-123075716D02*
G01*
X129032557Y-123081971D01*
X129051553Y-123092124D01*
X129068208Y-123105792D01*
X129081876Y-123122447D01*
X129092029Y-123141443D01*
X129098284Y-123162062D01*
X129101000Y-123189640D01*
X129101000Y-123698360D01*
X129098284Y-123725938D01*
X129092029Y-123746557D01*
X129081876Y-123765553D01*
X129068208Y-123782208D01*
X129051553Y-123795876D01*
X129032557Y-123806029D01*
X129011938Y-123812284D01*
X128984360Y-123815000D01*
X128525640Y-123815000D01*
X128498062Y-123812284D01*
X128477443Y-123806029D01*
X128458447Y-123795876D01*
X128441792Y-123782208D01*
X128428124Y-123765553D01*
X128417971Y-123746557D01*
X128411716Y-123725938D01*
X128409000Y-123698360D01*
X128409000Y-123189640D01*
X128411716Y-123162062D01*
X128417971Y-123141443D01*
X128428124Y-123122447D01*
X128441792Y-123105792D01*
X128458447Y-123092124D01*
X128477443Y-123081971D01*
X128498062Y-123075716D01*
X128525640Y-123073000D01*
X128984360Y-123073000D01*
X129011938Y-123075716D01*
G37*
G36*
X118307000Y-123775000D02*
G01*
X117005000Y-123775000D01*
X117005000Y-122473000D01*
X118307000Y-122473000D01*
X118307000Y-123775000D01*
G37*
G36*
X188529000Y-123291000D02*
G01*
X187227000Y-123291000D01*
X187227000Y-121989000D01*
X188529000Y-121989000D01*
X188529000Y-123291000D01*
G37*
G36*
X110407000Y-123275000D02*
G01*
X109505000Y-123275000D01*
X109505000Y-122573000D01*
X110407000Y-122573000D01*
X110407000Y-123275000D01*
G37*
G36*
X113207000Y-123250000D02*
G01*
X112105000Y-123250000D01*
X112105000Y-122598000D01*
X113207000Y-122598000D01*
X113207000Y-123250000D01*
G37*
G36*
X115907000Y-123250000D02*
G01*
X114805000Y-123250000D01*
X114805000Y-122598000D01*
X115907000Y-122598000D01*
X115907000Y-123250000D01*
G37*
G36*
X181179000Y-122991000D02*
G01*
X180277000Y-122991000D01*
X180277000Y-122289000D01*
X181179000Y-122289000D01*
X181179000Y-122991000D01*
G37*
G36*
X185929000Y-122966000D02*
G01*
X184827000Y-122966000D01*
X184827000Y-122314000D01*
X185929000Y-122314000D01*
X185929000Y-122966000D01*
G37*
G36*
X183229000Y-122966000D02*
G01*
X182127000Y-122966000D01*
X182127000Y-122314000D01*
X183229000Y-122314000D01*
X183229000Y-122966000D01*
G37*
G36*
X165601000Y-122801000D02*
G01*
X162799000Y-122801000D01*
X162799000Y-119699000D01*
X165601000Y-119699000D01*
X165601000Y-122801000D01*
G37*
G36*
X137201000Y-122801000D02*
G01*
X134399000Y-122801000D01*
X134399000Y-119699000D01*
X137201000Y-119699000D01*
X137201000Y-122801000D01*
G37*
G36*
X129054937Y-121648717D02*
G01*
X129075556Y-121654972D01*
X129094552Y-121665125D01*
X129111207Y-121678793D01*
X129124875Y-121695448D01*
X129135028Y-121714444D01*
X129141283Y-121735063D01*
X129143999Y-121762641D01*
X129143999Y-122271361D01*
X129141283Y-122298939D01*
X129135028Y-122319558D01*
X129124875Y-122338554D01*
X129111207Y-122355209D01*
X129094552Y-122368877D01*
X129075556Y-122379030D01*
X129054937Y-122385285D01*
X129027359Y-122388001D01*
X128568639Y-122388001D01*
X128541061Y-122385285D01*
X128520442Y-122379030D01*
X128501446Y-122368877D01*
X128484791Y-122355209D01*
X128471123Y-122338554D01*
X128460970Y-122319558D01*
X128454715Y-122298939D01*
X128451999Y-122271361D01*
X128451999Y-121762641D01*
X128454715Y-121735063D01*
X128460970Y-121714444D01*
X128471123Y-121695448D01*
X128484791Y-121678793D01*
X128501446Y-121665125D01*
X128520442Y-121654972D01*
X128541061Y-121648717D01*
X128568639Y-121646001D01*
X129027359Y-121646001D01*
X129054937Y-121648717D01*
G37*
G36*
X128084937Y-121648717D02*
G01*
X128105556Y-121654972D01*
X128124552Y-121665125D01*
X128141207Y-121678793D01*
X128154875Y-121695448D01*
X128165028Y-121714444D01*
X128171283Y-121735063D01*
X128173999Y-121762641D01*
X128173999Y-122271361D01*
X128171283Y-122298939D01*
X128165028Y-122319558D01*
X128154875Y-122338554D01*
X128141207Y-122355209D01*
X128124552Y-122368877D01*
X128105556Y-122379030D01*
X128084937Y-122385285D01*
X128057359Y-122388001D01*
X127598639Y-122388001D01*
X127571061Y-122385285D01*
X127550442Y-122379030D01*
X127531446Y-122368877D01*
X127514791Y-122355209D01*
X127501123Y-122338554D01*
X127490970Y-122319558D01*
X127484715Y-122298939D01*
X127481999Y-122271361D01*
X127481999Y-121762641D01*
X127484715Y-121735063D01*
X127490970Y-121714444D01*
X127501123Y-121695448D01*
X127514791Y-121678793D01*
X127531446Y-121665125D01*
X127550442Y-121654972D01*
X127571061Y-121648717D01*
X127598639Y-121646001D01*
X128057359Y-121646001D01*
X128084937Y-121648717D01*
G37*
G36*
X115907000Y-122300000D02*
G01*
X114805000Y-122300000D01*
X114805000Y-121648000D01*
X115907000Y-121648000D01*
X115907000Y-122300000D01*
G37*
G36*
X185929000Y-122016000D02*
G01*
X184827000Y-122016000D01*
X184827000Y-121364000D01*
X185929000Y-121364000D01*
X185929000Y-122016000D01*
G37*
G36*
X110407000Y-121875000D02*
G01*
X109505000Y-121875000D01*
X109505000Y-121173000D01*
X110407000Y-121173000D01*
X110407000Y-121875000D01*
G37*
G36*
X118307000Y-121675000D02*
G01*
X117005000Y-121675000D01*
X117005000Y-120373000D01*
X118307000Y-120373000D01*
X118307000Y-121675000D01*
G37*
G36*
X181179000Y-121591000D02*
G01*
X180277000Y-121591000D01*
X180277000Y-120889000D01*
X181179000Y-120889000D01*
X181179000Y-121591000D01*
G37*
G36*
X115907000Y-121350000D02*
G01*
X114805000Y-121350000D01*
X114805000Y-120698000D01*
X115907000Y-120698000D01*
X115907000Y-121350000D01*
G37*
G36*
X113207000Y-121350000D02*
G01*
X112105000Y-121350000D01*
X112105000Y-120698000D01*
X113207000Y-120698000D01*
X113207000Y-121350000D01*
G37*
G36*
X188529000Y-121191000D02*
G01*
X187227000Y-121191000D01*
X187227000Y-119889000D01*
X188529000Y-119889000D01*
X188529000Y-121191000D01*
G37*
G36*
X183229000Y-121066000D02*
G01*
X182127000Y-121066000D01*
X182127000Y-120414000D01*
X183229000Y-120414000D01*
X183229000Y-121066000D01*
G37*
G36*
X185929000Y-121066000D02*
G01*
X184827000Y-121066000D01*
X184827000Y-120414000D01*
X185929000Y-120414000D01*
X185929000Y-121066000D01*
G37*
G36*
X129054937Y-120036967D02*
G01*
X129075556Y-120043222D01*
X129094552Y-120053375D01*
X129111207Y-120067043D01*
X129124875Y-120083698D01*
X129135028Y-120102694D01*
X129141283Y-120123313D01*
X129143999Y-120150891D01*
X129143999Y-120659611D01*
X129141283Y-120687189D01*
X129135028Y-120707808D01*
X129124875Y-120726804D01*
X129111207Y-120743459D01*
X129094552Y-120757127D01*
X129075556Y-120767280D01*
X129054937Y-120773535D01*
X129027359Y-120776251D01*
X128568639Y-120776251D01*
X128541061Y-120773535D01*
X128520442Y-120767280D01*
X128501446Y-120757127D01*
X128484791Y-120743459D01*
X128471123Y-120726804D01*
X128460970Y-120707808D01*
X128454715Y-120687189D01*
X128451999Y-120659611D01*
X128451999Y-120150891D01*
X128454715Y-120123313D01*
X128460970Y-120102694D01*
X128471123Y-120083698D01*
X128484791Y-120067043D01*
X128501446Y-120053375D01*
X128520442Y-120043222D01*
X128541061Y-120036967D01*
X128568639Y-120034251D01*
X129027359Y-120034251D01*
X129054937Y-120036967D01*
G37*
G36*
X128084937Y-120036967D02*
G01*
X128105556Y-120043222D01*
X128124552Y-120053375D01*
X128141207Y-120067043D01*
X128154875Y-120083698D01*
X128165028Y-120102694D01*
X128171283Y-120123313D01*
X128173999Y-120150891D01*
X128173999Y-120659611D01*
X128171283Y-120687189D01*
X128165028Y-120707808D01*
X128154875Y-120726804D01*
X128141207Y-120743459D01*
X128124552Y-120757127D01*
X128105556Y-120767280D01*
X128084937Y-120773535D01*
X128057359Y-120776251D01*
X127598639Y-120776251D01*
X127571061Y-120773535D01*
X127550442Y-120767280D01*
X127531446Y-120757127D01*
X127514791Y-120743459D01*
X127501123Y-120726804D01*
X127490970Y-120707808D01*
X127484715Y-120687189D01*
X127481999Y-120659611D01*
X127481999Y-120150891D01*
X127484715Y-120123313D01*
X127490970Y-120102694D01*
X127501123Y-120083698D01*
X127514791Y-120067043D01*
X127531446Y-120053375D01*
X127550442Y-120043222D01*
X127571061Y-120036967D01*
X127598639Y-120034251D01*
X128057359Y-120034251D01*
X128084937Y-120036967D01*
G37*
G36*
X162451000Y-120051000D02*
G01*
X137549000Y-120051000D01*
X137549000Y-118749000D01*
X162451000Y-118749000D01*
X162451000Y-120051000D01*
G37*
G36*
X128084937Y-118425217D02*
G01*
X128105556Y-118431472D01*
X128124552Y-118441625D01*
X128141207Y-118455293D01*
X128154875Y-118471948D01*
X128165028Y-118490944D01*
X128171283Y-118511563D01*
X128173999Y-118539141D01*
X128173999Y-119047861D01*
X128171283Y-119075439D01*
X128165028Y-119096058D01*
X128154875Y-119115054D01*
X128141207Y-119131709D01*
X128124552Y-119145377D01*
X128105556Y-119155530D01*
X128084937Y-119161785D01*
X128057359Y-119164501D01*
X127598639Y-119164501D01*
X127571061Y-119161785D01*
X127550442Y-119155530D01*
X127531446Y-119145377D01*
X127514791Y-119131709D01*
X127501123Y-119115054D01*
X127490970Y-119096058D01*
X127484715Y-119075439D01*
X127481999Y-119047861D01*
X127481999Y-118539141D01*
X127484715Y-118511563D01*
X127490970Y-118490944D01*
X127501123Y-118471948D01*
X127514791Y-118455293D01*
X127531446Y-118441625D01*
X127550442Y-118431472D01*
X127571061Y-118425217D01*
X127598639Y-118422501D01*
X128057359Y-118422501D01*
X128084937Y-118425217D01*
G37*
G36*
X129054937Y-118425217D02*
G01*
X129075556Y-118431472D01*
X129094552Y-118441625D01*
X129111207Y-118455293D01*
X129124875Y-118471948D01*
X129135028Y-118490944D01*
X129141283Y-118511563D01*
X129143999Y-118539141D01*
X129143999Y-119047861D01*
X129141283Y-119075439D01*
X129135028Y-119096058D01*
X129124875Y-119115054D01*
X129111207Y-119131709D01*
X129094552Y-119145377D01*
X129075556Y-119155530D01*
X129054937Y-119161785D01*
X129027359Y-119164501D01*
X128568639Y-119164501D01*
X128541061Y-119161785D01*
X128520442Y-119155530D01*
X128501446Y-119145377D01*
X128484791Y-119131709D01*
X128471123Y-119115054D01*
X128460970Y-119096058D01*
X128454715Y-119075439D01*
X128451999Y-119047861D01*
X128451999Y-118539141D01*
X128454715Y-118511563D01*
X128460970Y-118490944D01*
X128471123Y-118471948D01*
X128484791Y-118455293D01*
X128501446Y-118441625D01*
X128520442Y-118431472D01*
X128541061Y-118425217D01*
X128568639Y-118422501D01*
X129027359Y-118422501D01*
X129054937Y-118425217D01*
G37*
G36*
X137201000Y-119101000D02*
G01*
X134399000Y-119101000D01*
X134399000Y-115999000D01*
X137201000Y-115999000D01*
X137201000Y-119101000D01*
G37*
G36*
X107421000Y-118991000D02*
G01*
X106519000Y-118991000D01*
X106519000Y-118289000D01*
X107421000Y-118289000D01*
X107421000Y-118991000D01*
G37*
G36*
X109431938Y-118301716D02*
G01*
X109452557Y-118307971D01*
X109471553Y-118318124D01*
X109488208Y-118331792D01*
X109501876Y-118348447D01*
X109512029Y-118367443D01*
X109518284Y-118388062D01*
X109521000Y-118415640D01*
X109521000Y-118874360D01*
X109518284Y-118901938D01*
X109512029Y-118922557D01*
X109501876Y-118941553D01*
X109488208Y-118958208D01*
X109471553Y-118971876D01*
X109452557Y-118982029D01*
X109431938Y-118988284D01*
X109404360Y-118991000D01*
X108895640Y-118991000D01*
X108868062Y-118988284D01*
X108847443Y-118982029D01*
X108828447Y-118971876D01*
X108811792Y-118958208D01*
X108798124Y-118941553D01*
X108787971Y-118922557D01*
X108781716Y-118901938D01*
X108779000Y-118874360D01*
X108779000Y-118415640D01*
X108781716Y-118388062D01*
X108787971Y-118367443D01*
X108798124Y-118348447D01*
X108811792Y-118331792D01*
X108828447Y-118318124D01*
X108847443Y-118307971D01*
X108868062Y-118301716D01*
X108895640Y-118299000D01*
X109404360Y-118299000D01*
X109431938Y-118301716D01*
G37*
G36*
X184644114Y-117925716D02*
G01*
X184664733Y-117931971D01*
X184683729Y-117942124D01*
X184700384Y-117955792D01*
X184714052Y-117972447D01*
X184724205Y-117991443D01*
X184730460Y-118012062D01*
X184733176Y-118039640D01*
X184733176Y-118498360D01*
X184730460Y-118525938D01*
X184724205Y-118546557D01*
X184714052Y-118565553D01*
X184700384Y-118582208D01*
X184683729Y-118595876D01*
X184664733Y-118606029D01*
X184644114Y-118612284D01*
X184616536Y-118615000D01*
X184107816Y-118615000D01*
X184080238Y-118612284D01*
X184059619Y-118606029D01*
X184040623Y-118595876D01*
X184023968Y-118582208D01*
X184010300Y-118565553D01*
X184000147Y-118546557D01*
X183993892Y-118525938D01*
X183991176Y-118498360D01*
X183991176Y-118039640D01*
X183993892Y-118012062D01*
X184000147Y-117991443D01*
X184010300Y-117972447D01*
X184023968Y-117955792D01*
X184040623Y-117942124D01*
X184059619Y-117931971D01*
X184080238Y-117925716D01*
X184107816Y-117923000D01*
X184616536Y-117923000D01*
X184644114Y-117925716D01*
G37*
G36*
X189003938Y-117925716D02*
G01*
X189024557Y-117931971D01*
X189043553Y-117942124D01*
X189060208Y-117955792D01*
X189073876Y-117972447D01*
X189084029Y-117991443D01*
X189090284Y-118012062D01*
X189093000Y-118039640D01*
X189093000Y-118498360D01*
X189090284Y-118525938D01*
X189084029Y-118546557D01*
X189073876Y-118565553D01*
X189060208Y-118582208D01*
X189043553Y-118595876D01*
X189024557Y-118606029D01*
X189003938Y-118612284D01*
X188976360Y-118615000D01*
X188467640Y-118615000D01*
X188440062Y-118612284D01*
X188419443Y-118606029D01*
X188400447Y-118595876D01*
X188383792Y-118582208D01*
X188370124Y-118565553D01*
X188359971Y-118546557D01*
X188353716Y-118525938D01*
X188351000Y-118498360D01*
X188351000Y-118039640D01*
X188353716Y-118012062D01*
X188359971Y-117991443D01*
X188370124Y-117972447D01*
X188383792Y-117955792D01*
X188400447Y-117942124D01*
X188419443Y-117931971D01*
X188440062Y-117925716D01*
X188467640Y-117923000D01*
X188976360Y-117923000D01*
X189003938Y-117925716D01*
G37*
G36*
X187550662Y-117925716D02*
G01*
X187571281Y-117931971D01*
X187590277Y-117942124D01*
X187606932Y-117955792D01*
X187620600Y-117972447D01*
X187630753Y-117991443D01*
X187637008Y-118012062D01*
X187639724Y-118039640D01*
X187639724Y-118498360D01*
X187637008Y-118525938D01*
X187630753Y-118546557D01*
X187620600Y-118565553D01*
X187606932Y-118582208D01*
X187590277Y-118595876D01*
X187571281Y-118606029D01*
X187550662Y-118612284D01*
X187523084Y-118615000D01*
X187014364Y-118615000D01*
X186986786Y-118612284D01*
X186966167Y-118606029D01*
X186947171Y-118595876D01*
X186930516Y-118582208D01*
X186916848Y-118565553D01*
X186906695Y-118546557D01*
X186900440Y-118525938D01*
X186897724Y-118498360D01*
X186897724Y-118039640D01*
X186900440Y-118012062D01*
X186906695Y-117991443D01*
X186916848Y-117972447D01*
X186930516Y-117955792D01*
X186947171Y-117942124D01*
X186966167Y-117931971D01*
X186986786Y-117925716D01*
X187014364Y-117923000D01*
X187523084Y-117923000D01*
X187550662Y-117925716D01*
G37*
G36*
X183190840Y-117925716D02*
G01*
X183211459Y-117931971D01*
X183230455Y-117942124D01*
X183247110Y-117955792D01*
X183260778Y-117972447D01*
X183270931Y-117991443D01*
X183277186Y-118012062D01*
X183279902Y-118039640D01*
X183279902Y-118498360D01*
X183277186Y-118525938D01*
X183270931Y-118546557D01*
X183260778Y-118565553D01*
X183247110Y-118582208D01*
X183230455Y-118595876D01*
X183211459Y-118606029D01*
X183190840Y-118612284D01*
X183163262Y-118615000D01*
X182654542Y-118615000D01*
X182626964Y-118612284D01*
X182606345Y-118606029D01*
X182587349Y-118595876D01*
X182570694Y-118582208D01*
X182557026Y-118565553D01*
X182546873Y-118546557D01*
X182540618Y-118525938D01*
X182537902Y-118498360D01*
X182537902Y-118039640D01*
X182540618Y-118012062D01*
X182546873Y-117991443D01*
X182557026Y-117972447D01*
X182570694Y-117955792D01*
X182587349Y-117942124D01*
X182606345Y-117931971D01*
X182626964Y-117925716D01*
X182654542Y-117923000D01*
X183163262Y-117923000D01*
X183190840Y-117925716D01*
G37*
G36*
X181737566Y-117925716D02*
G01*
X181758185Y-117931971D01*
X181777181Y-117942124D01*
X181793836Y-117955792D01*
X181807504Y-117972447D01*
X181817657Y-117991443D01*
X181823912Y-118012062D01*
X181826628Y-118039640D01*
X181826628Y-118498360D01*
X181823912Y-118525938D01*
X181817657Y-118546557D01*
X181807504Y-118565553D01*
X181793836Y-118582208D01*
X181777181Y-118595876D01*
X181758185Y-118606029D01*
X181737566Y-118612284D01*
X181709988Y-118615000D01*
X181201268Y-118615000D01*
X181173690Y-118612284D01*
X181153071Y-118606029D01*
X181134075Y-118595876D01*
X181117420Y-118582208D01*
X181103752Y-118565553D01*
X181093599Y-118546557D01*
X181087344Y-118525938D01*
X181084628Y-118498360D01*
X181084628Y-118039640D01*
X181087344Y-118012062D01*
X181093599Y-117991443D01*
X181103752Y-117972447D01*
X181117420Y-117955792D01*
X181134075Y-117942124D01*
X181153071Y-117931971D01*
X181173690Y-117925716D01*
X181201268Y-117923000D01*
X181709988Y-117923000D01*
X181737566Y-117925716D01*
G37*
G36*
X186097388Y-117925716D02*
G01*
X186118007Y-117931971D01*
X186137003Y-117942124D01*
X186153658Y-117955792D01*
X186167326Y-117972447D01*
X186177479Y-117991443D01*
X186183734Y-118012062D01*
X186186450Y-118039640D01*
X186186450Y-118498360D01*
X186183734Y-118525938D01*
X186177479Y-118546557D01*
X186167326Y-118565553D01*
X186153658Y-118582208D01*
X186137003Y-118595876D01*
X186118007Y-118606029D01*
X186097388Y-118612284D01*
X186069810Y-118615000D01*
X185561090Y-118615000D01*
X185533512Y-118612284D01*
X185512893Y-118606029D01*
X185493897Y-118595876D01*
X185477242Y-118582208D01*
X185463574Y-118565553D01*
X185453421Y-118546557D01*
X185447166Y-118525938D01*
X185444450Y-118498360D01*
X185444450Y-118039640D01*
X185447166Y-118012062D01*
X185453421Y-117991443D01*
X185463574Y-117972447D01*
X185477242Y-117955792D01*
X185493897Y-117942124D01*
X185512893Y-117931971D01*
X185533512Y-117925716D01*
X185561090Y-117923000D01*
X186069810Y-117923000D01*
X186097388Y-117925716D01*
G37*
G36*
X116563138Y-117921716D02*
G01*
X116583757Y-117927971D01*
X116602753Y-117938124D01*
X116619408Y-117951792D01*
X116633076Y-117968447D01*
X116643229Y-117987443D01*
X116649484Y-118008062D01*
X116652200Y-118035640D01*
X116652200Y-118494360D01*
X116649484Y-118521938D01*
X116643229Y-118542557D01*
X116633076Y-118561553D01*
X116619408Y-118578208D01*
X116602753Y-118591876D01*
X116583757Y-118602029D01*
X116563138Y-118608284D01*
X116535560Y-118611000D01*
X116026840Y-118611000D01*
X115999262Y-118608284D01*
X115978643Y-118602029D01*
X115959647Y-118591876D01*
X115942992Y-118578208D01*
X115929324Y-118561553D01*
X115919171Y-118542557D01*
X115912916Y-118521938D01*
X115910200Y-118494360D01*
X115910200Y-118035640D01*
X115912916Y-118008062D01*
X115919171Y-117987443D01*
X115929324Y-117968447D01*
X115942992Y-117951792D01*
X115959647Y-117938124D01*
X115978643Y-117927971D01*
X115999262Y-117921716D01*
X116026840Y-117919000D01*
X116535560Y-117919000D01*
X116563138Y-117921716D01*
G37*
G36*
X115140738Y-117921716D02*
G01*
X115161357Y-117927971D01*
X115180353Y-117938124D01*
X115197008Y-117951792D01*
X115210676Y-117968447D01*
X115220829Y-117987443D01*
X115227084Y-118008062D01*
X115229800Y-118035640D01*
X115229800Y-118494360D01*
X115227084Y-118521938D01*
X115220829Y-118542557D01*
X115210676Y-118561553D01*
X115197008Y-118578208D01*
X115180353Y-118591876D01*
X115161357Y-118602029D01*
X115140738Y-118608284D01*
X115113160Y-118611000D01*
X114604440Y-118611000D01*
X114576862Y-118608284D01*
X114556243Y-118602029D01*
X114537247Y-118591876D01*
X114520592Y-118578208D01*
X114506924Y-118561553D01*
X114496771Y-118542557D01*
X114490516Y-118521938D01*
X114487800Y-118494360D01*
X114487800Y-118035640D01*
X114490516Y-118008062D01*
X114496771Y-117987443D01*
X114506924Y-117968447D01*
X114520592Y-117951792D01*
X114537247Y-117938124D01*
X114556243Y-117927971D01*
X114576862Y-117921716D01*
X114604440Y-117919000D01*
X115113160Y-117919000D01*
X115140738Y-117921716D01*
G37*
G36*
X113718338Y-117921716D02*
G01*
X113738957Y-117927971D01*
X113757953Y-117938124D01*
X113774608Y-117951792D01*
X113788276Y-117968447D01*
X113798429Y-117987443D01*
X113804684Y-118008062D01*
X113807400Y-118035640D01*
X113807400Y-118494360D01*
X113804684Y-118521938D01*
X113798429Y-118542557D01*
X113788276Y-118561553D01*
X113774608Y-118578208D01*
X113757953Y-118591876D01*
X113738957Y-118602029D01*
X113718338Y-118608284D01*
X113690760Y-118611000D01*
X113182040Y-118611000D01*
X113154462Y-118608284D01*
X113133843Y-118602029D01*
X113114847Y-118591876D01*
X113098192Y-118578208D01*
X113084524Y-118561553D01*
X113074371Y-118542557D01*
X113068116Y-118521938D01*
X113065400Y-118494360D01*
X113065400Y-118035640D01*
X113068116Y-118008062D01*
X113074371Y-117987443D01*
X113084524Y-117968447D01*
X113098192Y-117951792D01*
X113114847Y-117938124D01*
X113133843Y-117927971D01*
X113154462Y-117921716D01*
X113182040Y-117919000D01*
X113690760Y-117919000D01*
X113718338Y-117921716D01*
G37*
G36*
X112295938Y-117921716D02*
G01*
X112316557Y-117927971D01*
X112335553Y-117938124D01*
X112352208Y-117951792D01*
X112365876Y-117968447D01*
X112376029Y-117987443D01*
X112382284Y-118008062D01*
X112385000Y-118035640D01*
X112385000Y-118494360D01*
X112382284Y-118521938D01*
X112376029Y-118542557D01*
X112365876Y-118561553D01*
X112352208Y-118578208D01*
X112335553Y-118591876D01*
X112316557Y-118602029D01*
X112295938Y-118608284D01*
X112268360Y-118611000D01*
X111759640Y-118611000D01*
X111732062Y-118608284D01*
X111711443Y-118602029D01*
X111692447Y-118591876D01*
X111675792Y-118578208D01*
X111662124Y-118561553D01*
X111651971Y-118542557D01*
X111645716Y-118521938D01*
X111643000Y-118494360D01*
X111643000Y-118035640D01*
X111645716Y-118008062D01*
X111651971Y-117987443D01*
X111662124Y-117968447D01*
X111675792Y-117951792D01*
X111692447Y-117938124D01*
X111711443Y-117927971D01*
X111732062Y-117921716D01*
X111759640Y-117919000D01*
X112268360Y-117919000D01*
X112295938Y-117921716D01*
G37*
G36*
X117985538Y-117921716D02*
G01*
X118006157Y-117927971D01*
X118025153Y-117938124D01*
X118041808Y-117951792D01*
X118055476Y-117968447D01*
X118065629Y-117987443D01*
X118071884Y-118008062D01*
X118074600Y-118035640D01*
X118074600Y-118494360D01*
X118071884Y-118521938D01*
X118065629Y-118542557D01*
X118055476Y-118561553D01*
X118041808Y-118578208D01*
X118025153Y-118591876D01*
X118006157Y-118602029D01*
X117985538Y-118608284D01*
X117957960Y-118611000D01*
X117449240Y-118611000D01*
X117421662Y-118608284D01*
X117401043Y-118602029D01*
X117382047Y-118591876D01*
X117365392Y-118578208D01*
X117351724Y-118561553D01*
X117341571Y-118542557D01*
X117335316Y-118521938D01*
X117332600Y-118494360D01*
X117332600Y-118035640D01*
X117335316Y-118008062D01*
X117341571Y-117987443D01*
X117351724Y-117968447D01*
X117365392Y-117951792D01*
X117382047Y-117938124D01*
X117401043Y-117927971D01*
X117421662Y-117921716D01*
X117449240Y-117919000D01*
X117957960Y-117919000D01*
X117985538Y-117921716D01*
G37*
G36*
X119407938Y-117921716D02*
G01*
X119428557Y-117927971D01*
X119447553Y-117938124D01*
X119464208Y-117951792D01*
X119477876Y-117968447D01*
X119488029Y-117987443D01*
X119494284Y-118008062D01*
X119497000Y-118035640D01*
X119497000Y-118494360D01*
X119494284Y-118521938D01*
X119488029Y-118542557D01*
X119477876Y-118561553D01*
X119464208Y-118578208D01*
X119447553Y-118591876D01*
X119428557Y-118602029D01*
X119407938Y-118608284D01*
X119380360Y-118611000D01*
X118871640Y-118611000D01*
X118844062Y-118608284D01*
X118823443Y-118602029D01*
X118804447Y-118591876D01*
X118787792Y-118578208D01*
X118774124Y-118561553D01*
X118763971Y-118542557D01*
X118757716Y-118521938D01*
X118755000Y-118494360D01*
X118755000Y-118035640D01*
X118757716Y-118008062D01*
X118763971Y-117987443D01*
X118774124Y-117968447D01*
X118787792Y-117951792D01*
X118804447Y-117938124D01*
X118823443Y-117927971D01*
X118844062Y-117921716D01*
X118871640Y-117919000D01*
X119380360Y-117919000D01*
X119407938Y-117921716D01*
G37*
G36*
X165751000Y-118601000D02*
G01*
X162649000Y-118601000D01*
X162649000Y-115999000D01*
X165751000Y-115999000D01*
X165751000Y-118601000D01*
G37*
G36*
X105311000Y-118401000D02*
G01*
X104009000Y-118401000D01*
X104009000Y-117099000D01*
X105311000Y-117099000D01*
X105311000Y-118401000D01*
G37*
G36*
X103211000Y-118401000D02*
G01*
X101909000Y-118401000D01*
X101909000Y-117099000D01*
X103211000Y-117099000D01*
X103211000Y-118401000D01*
G37*
G36*
X175021000Y-118161000D02*
G01*
X173719000Y-118161000D01*
X173719000Y-116859000D01*
X175021000Y-116859000D01*
X175021000Y-118161000D01*
G37*
G36*
X172921000Y-118161000D02*
G01*
X171619000Y-118161000D01*
X171619000Y-116859000D01*
X172921000Y-116859000D01*
X172921000Y-118161000D01*
G37*
G36*
X109431938Y-117331716D02*
G01*
X109452557Y-117337971D01*
X109471553Y-117348124D01*
X109488208Y-117361792D01*
X109501876Y-117378447D01*
X109512029Y-117397443D01*
X109518284Y-117418062D01*
X109521000Y-117445640D01*
X109521000Y-117904360D01*
X109518284Y-117931938D01*
X109512029Y-117952557D01*
X109501876Y-117971553D01*
X109488208Y-117988208D01*
X109471553Y-118001876D01*
X109452557Y-118012029D01*
X109431938Y-118018284D01*
X109404360Y-118021000D01*
X108895640Y-118021000D01*
X108868062Y-118018284D01*
X108847443Y-118012029D01*
X108828447Y-118001876D01*
X108811792Y-117988208D01*
X108798124Y-117971553D01*
X108787971Y-117952557D01*
X108781716Y-117931938D01*
X108779000Y-117904360D01*
X108779000Y-117445640D01*
X108781716Y-117418062D01*
X108787971Y-117397443D01*
X108798124Y-117378447D01*
X108811792Y-117361792D01*
X108828447Y-117348124D01*
X108847443Y-117337971D01*
X108868062Y-117331716D01*
X108895640Y-117329000D01*
X109404360Y-117329000D01*
X109431938Y-117331716D01*
G37*
G36*
X179575463Y-117181454D02*
G01*
X179596082Y-117187709D01*
X179615078Y-117197862D01*
X179631733Y-117211530D01*
X179645401Y-117228185D01*
X179655554Y-117247181D01*
X179661809Y-117267800D01*
X179664525Y-117295378D01*
X179664525Y-117754098D01*
X179661809Y-117781676D01*
X179655554Y-117802295D01*
X179645401Y-117821291D01*
X179631733Y-117837946D01*
X179615078Y-117851614D01*
X179596082Y-117861767D01*
X179575463Y-117868022D01*
X179547885Y-117870738D01*
X179039165Y-117870738D01*
X179011587Y-117868022D01*
X178990968Y-117861767D01*
X178971972Y-117851614D01*
X178955317Y-117837946D01*
X178941649Y-117821291D01*
X178931496Y-117802295D01*
X178925241Y-117781676D01*
X178922525Y-117754098D01*
X178922525Y-117295378D01*
X178925241Y-117267800D01*
X178931496Y-117247181D01*
X178941649Y-117228185D01*
X178955317Y-117211530D01*
X178971972Y-117197862D01*
X178990968Y-117187709D01*
X179011587Y-117181454D01*
X179039165Y-117178738D01*
X179547885Y-117178738D01*
X179575463Y-117181454D01*
G37*
G36*
X177471000Y-117870738D02*
G01*
X176569000Y-117870738D01*
X176569000Y-117168738D01*
X177471000Y-117168738D01*
X177471000Y-117870738D01*
G37*
G36*
X187550662Y-116955716D02*
G01*
X187571281Y-116961971D01*
X187590277Y-116972124D01*
X187606932Y-116985792D01*
X187620600Y-117002447D01*
X187630753Y-117021443D01*
X187637008Y-117042062D01*
X187639724Y-117069640D01*
X187639724Y-117528360D01*
X187637008Y-117555938D01*
X187630753Y-117576557D01*
X187620600Y-117595553D01*
X187606932Y-117612208D01*
X187590277Y-117625876D01*
X187571281Y-117636029D01*
X187550662Y-117642284D01*
X187523084Y-117645000D01*
X187014364Y-117645000D01*
X186986786Y-117642284D01*
X186966167Y-117636029D01*
X186947171Y-117625876D01*
X186930516Y-117612208D01*
X186916848Y-117595553D01*
X186906695Y-117576557D01*
X186900440Y-117555938D01*
X186897724Y-117528360D01*
X186897724Y-117069640D01*
X186900440Y-117042062D01*
X186906695Y-117021443D01*
X186916848Y-117002447D01*
X186930516Y-116985792D01*
X186947171Y-116972124D01*
X186966167Y-116961971D01*
X186986786Y-116955716D01*
X187014364Y-116953000D01*
X187523084Y-116953000D01*
X187550662Y-116955716D01*
G37*
G36*
X186097388Y-116955716D02*
G01*
X186118007Y-116961971D01*
X186137003Y-116972124D01*
X186153658Y-116985792D01*
X186167326Y-117002447D01*
X186177479Y-117021443D01*
X186183734Y-117042062D01*
X186186450Y-117069640D01*
X186186450Y-117528360D01*
X186183734Y-117555938D01*
X186177479Y-117576557D01*
X186167326Y-117595553D01*
X186153658Y-117612208D01*
X186137003Y-117625876D01*
X186118007Y-117636029D01*
X186097388Y-117642284D01*
X186069810Y-117645000D01*
X185561090Y-117645000D01*
X185533512Y-117642284D01*
X185512893Y-117636029D01*
X185493897Y-117625876D01*
X185477242Y-117612208D01*
X185463574Y-117595553D01*
X185453421Y-117576557D01*
X185447166Y-117555938D01*
X185444450Y-117528360D01*
X185444450Y-117069640D01*
X185447166Y-117042062D01*
X185453421Y-117021443D01*
X185463574Y-117002447D01*
X185477242Y-116985792D01*
X185493897Y-116972124D01*
X185512893Y-116961971D01*
X185533512Y-116955716D01*
X185561090Y-116953000D01*
X186069810Y-116953000D01*
X186097388Y-116955716D01*
G37*
G36*
X189003938Y-116955716D02*
G01*
X189024557Y-116961971D01*
X189043553Y-116972124D01*
X189060208Y-116985792D01*
X189073876Y-117002447D01*
X189084029Y-117021443D01*
X189090284Y-117042062D01*
X189093000Y-117069640D01*
X189093000Y-117528360D01*
X189090284Y-117555938D01*
X189084029Y-117576557D01*
X189073876Y-117595553D01*
X189060208Y-117612208D01*
X189043553Y-117625876D01*
X189024557Y-117636029D01*
X189003938Y-117642284D01*
X188976360Y-117645000D01*
X188467640Y-117645000D01*
X188440062Y-117642284D01*
X188419443Y-117636029D01*
X188400447Y-117625876D01*
X188383792Y-117612208D01*
X188370124Y-117595553D01*
X188359971Y-117576557D01*
X188353716Y-117555938D01*
X188351000Y-117528360D01*
X188351000Y-117069640D01*
X188353716Y-117042062D01*
X188359971Y-117021443D01*
X188370124Y-117002447D01*
X188383792Y-116985792D01*
X188400447Y-116972124D01*
X188419443Y-116961971D01*
X188440062Y-116955716D01*
X188467640Y-116953000D01*
X188976360Y-116953000D01*
X189003938Y-116955716D01*
G37*
G36*
X183190840Y-116955716D02*
G01*
X183211459Y-116961971D01*
X183230455Y-116972124D01*
X183247110Y-116985792D01*
X183260778Y-117002447D01*
X183270931Y-117021443D01*
X183277186Y-117042062D01*
X183279902Y-117069640D01*
X183279902Y-117528360D01*
X183277186Y-117555938D01*
X183270931Y-117576557D01*
X183260778Y-117595553D01*
X183247110Y-117612208D01*
X183230455Y-117625876D01*
X183211459Y-117636029D01*
X183190840Y-117642284D01*
X183163262Y-117645000D01*
X182654542Y-117645000D01*
X182626964Y-117642284D01*
X182606345Y-117636029D01*
X182587349Y-117625876D01*
X182570694Y-117612208D01*
X182557026Y-117595553D01*
X182546873Y-117576557D01*
X182540618Y-117555938D01*
X182537902Y-117528360D01*
X182537902Y-117069640D01*
X182540618Y-117042062D01*
X182546873Y-117021443D01*
X182557026Y-117002447D01*
X182570694Y-116985792D01*
X182587349Y-116972124D01*
X182606345Y-116961971D01*
X182626964Y-116955716D01*
X182654542Y-116953000D01*
X183163262Y-116953000D01*
X183190840Y-116955716D01*
G37*
G36*
X181737566Y-116955716D02*
G01*
X181758185Y-116961971D01*
X181777181Y-116972124D01*
X181793836Y-116985792D01*
X181807504Y-117002447D01*
X181817657Y-117021443D01*
X181823912Y-117042062D01*
X181826628Y-117069640D01*
X181826628Y-117528360D01*
X181823912Y-117555938D01*
X181817657Y-117576557D01*
X181807504Y-117595553D01*
X181793836Y-117612208D01*
X181777181Y-117625876D01*
X181758185Y-117636029D01*
X181737566Y-117642284D01*
X181709988Y-117645000D01*
X181201268Y-117645000D01*
X181173690Y-117642284D01*
X181153071Y-117636029D01*
X181134075Y-117625876D01*
X181117420Y-117612208D01*
X181103752Y-117595553D01*
X181093599Y-117576557D01*
X181087344Y-117555938D01*
X181084628Y-117528360D01*
X181084628Y-117069640D01*
X181087344Y-117042062D01*
X181093599Y-117021443D01*
X181103752Y-117002447D01*
X181117420Y-116985792D01*
X181134075Y-116972124D01*
X181153071Y-116961971D01*
X181173690Y-116955716D01*
X181201268Y-116953000D01*
X181709988Y-116953000D01*
X181737566Y-116955716D01*
G37*
G36*
X184644114Y-116955716D02*
G01*
X184664733Y-116961971D01*
X184683729Y-116972124D01*
X184700384Y-116985792D01*
X184714052Y-117002447D01*
X184724205Y-117021443D01*
X184730460Y-117042062D01*
X184733176Y-117069640D01*
X184733176Y-117528360D01*
X184730460Y-117555938D01*
X184724205Y-117576557D01*
X184714052Y-117595553D01*
X184700384Y-117612208D01*
X184683729Y-117625876D01*
X184664733Y-117636029D01*
X184644114Y-117642284D01*
X184616536Y-117645000D01*
X184107816Y-117645000D01*
X184080238Y-117642284D01*
X184059619Y-117636029D01*
X184040623Y-117625876D01*
X184023968Y-117612208D01*
X184010300Y-117595553D01*
X184000147Y-117576557D01*
X183993892Y-117555938D01*
X183991176Y-117528360D01*
X183991176Y-117069640D01*
X183993892Y-117042062D01*
X184000147Y-117021443D01*
X184010300Y-117002447D01*
X184023968Y-116985792D01*
X184040623Y-116972124D01*
X184059619Y-116961971D01*
X184080238Y-116955716D01*
X184107816Y-116953000D01*
X184616536Y-116953000D01*
X184644114Y-116955716D01*
G37*
G36*
X113718338Y-116951716D02*
G01*
X113738957Y-116957971D01*
X113757953Y-116968124D01*
X113774608Y-116981792D01*
X113788276Y-116998447D01*
X113798429Y-117017443D01*
X113804684Y-117038062D01*
X113807400Y-117065640D01*
X113807400Y-117524360D01*
X113804684Y-117551938D01*
X113798429Y-117572557D01*
X113788276Y-117591553D01*
X113774608Y-117608208D01*
X113757953Y-117621876D01*
X113738957Y-117632029D01*
X113718338Y-117638284D01*
X113690760Y-117641000D01*
X113182040Y-117641000D01*
X113154462Y-117638284D01*
X113133843Y-117632029D01*
X113114847Y-117621876D01*
X113098192Y-117608208D01*
X113084524Y-117591553D01*
X113074371Y-117572557D01*
X113068116Y-117551938D01*
X113065400Y-117524360D01*
X113065400Y-117065640D01*
X113068116Y-117038062D01*
X113074371Y-117017443D01*
X113084524Y-116998447D01*
X113098192Y-116981792D01*
X113114847Y-116968124D01*
X113133843Y-116957971D01*
X113154462Y-116951716D01*
X113182040Y-116949000D01*
X113690760Y-116949000D01*
X113718338Y-116951716D01*
G37*
G36*
X112295938Y-116951716D02*
G01*
X112316557Y-116957971D01*
X112335553Y-116968124D01*
X112352208Y-116981792D01*
X112365876Y-116998447D01*
X112376029Y-117017443D01*
X112382284Y-117038062D01*
X112385000Y-117065640D01*
X112385000Y-117524360D01*
X112382284Y-117551938D01*
X112376029Y-117572557D01*
X112365876Y-117591553D01*
X112352208Y-117608208D01*
X112335553Y-117621876D01*
X112316557Y-117632029D01*
X112295938Y-117638284D01*
X112268360Y-117641000D01*
X111759640Y-117641000D01*
X111732062Y-117638284D01*
X111711443Y-117632029D01*
X111692447Y-117621876D01*
X111675792Y-117608208D01*
X111662124Y-117591553D01*
X111651971Y-117572557D01*
X111645716Y-117551938D01*
X111643000Y-117524360D01*
X111643000Y-117065640D01*
X111645716Y-117038062D01*
X111651971Y-117017443D01*
X111662124Y-116998447D01*
X111675792Y-116981792D01*
X111692447Y-116968124D01*
X111711443Y-116957971D01*
X111732062Y-116951716D01*
X111759640Y-116949000D01*
X112268360Y-116949000D01*
X112295938Y-116951716D01*
G37*
G36*
X119407938Y-116951716D02*
G01*
X119428557Y-116957971D01*
X119447553Y-116968124D01*
X119464208Y-116981792D01*
X119477876Y-116998447D01*
X119488029Y-117017443D01*
X119494284Y-117038062D01*
X119497000Y-117065640D01*
X119497000Y-117524360D01*
X119494284Y-117551938D01*
X119488029Y-117572557D01*
X119477876Y-117591553D01*
X119464208Y-117608208D01*
X119447553Y-117621876D01*
X119428557Y-117632029D01*
X119407938Y-117638284D01*
X119380360Y-117641000D01*
X118871640Y-117641000D01*
X118844062Y-117638284D01*
X118823443Y-117632029D01*
X118804447Y-117621876D01*
X118787792Y-117608208D01*
X118774124Y-117591553D01*
X118763971Y-117572557D01*
X118757716Y-117551938D01*
X118755000Y-117524360D01*
X118755000Y-117065640D01*
X118757716Y-117038062D01*
X118763971Y-117017443D01*
X118774124Y-116998447D01*
X118787792Y-116981792D01*
X118804447Y-116968124D01*
X118823443Y-116957971D01*
X118844062Y-116951716D01*
X118871640Y-116949000D01*
X119380360Y-116949000D01*
X119407938Y-116951716D01*
G37*
G36*
X116563138Y-116951716D02*
G01*
X116583757Y-116957971D01*
X116602753Y-116968124D01*
X116619408Y-116981792D01*
X116633076Y-116998447D01*
X116643229Y-117017443D01*
X116649484Y-117038062D01*
X116652200Y-117065640D01*
X116652200Y-117524360D01*
X116649484Y-117551938D01*
X116643229Y-117572557D01*
X116633076Y-117591553D01*
X116619408Y-117608208D01*
X116602753Y-117621876D01*
X116583757Y-117632029D01*
X116563138Y-117638284D01*
X116535560Y-117641000D01*
X116026840Y-117641000D01*
X115999262Y-117638284D01*
X115978643Y-117632029D01*
X115959647Y-117621876D01*
X115942992Y-117608208D01*
X115929324Y-117591553D01*
X115919171Y-117572557D01*
X115912916Y-117551938D01*
X115910200Y-117524360D01*
X115910200Y-117065640D01*
X115912916Y-117038062D01*
X115919171Y-117017443D01*
X115929324Y-116998447D01*
X115942992Y-116981792D01*
X115959647Y-116968124D01*
X115978643Y-116957971D01*
X115999262Y-116951716D01*
X116026840Y-116949000D01*
X116535560Y-116949000D01*
X116563138Y-116951716D01*
G37*
G36*
X115140738Y-116951716D02*
G01*
X115161357Y-116957971D01*
X115180353Y-116968124D01*
X115197008Y-116981792D01*
X115210676Y-116998447D01*
X115220829Y-117017443D01*
X115227084Y-117038062D01*
X115229800Y-117065640D01*
X115229800Y-117524360D01*
X115227084Y-117551938D01*
X115220829Y-117572557D01*
X115210676Y-117591553D01*
X115197008Y-117608208D01*
X115180353Y-117621876D01*
X115161357Y-117632029D01*
X115140738Y-117638284D01*
X115113160Y-117641000D01*
X114604440Y-117641000D01*
X114576862Y-117638284D01*
X114556243Y-117632029D01*
X114537247Y-117621876D01*
X114520592Y-117608208D01*
X114506924Y-117591553D01*
X114496771Y-117572557D01*
X114490516Y-117551938D01*
X114487800Y-117524360D01*
X114487800Y-117065640D01*
X114490516Y-117038062D01*
X114496771Y-117017443D01*
X114506924Y-116998447D01*
X114520592Y-116981792D01*
X114537247Y-116968124D01*
X114556243Y-116957971D01*
X114576862Y-116951716D01*
X114604440Y-116949000D01*
X115113160Y-116949000D01*
X115140738Y-116951716D01*
G37*
G36*
X117985538Y-116951716D02*
G01*
X118006157Y-116957971D01*
X118025153Y-116968124D01*
X118041808Y-116981792D01*
X118055476Y-116998447D01*
X118065629Y-117017443D01*
X118071884Y-117038062D01*
X118074600Y-117065640D01*
X118074600Y-117524360D01*
X118071884Y-117551938D01*
X118065629Y-117572557D01*
X118055476Y-117591553D01*
X118041808Y-117608208D01*
X118025153Y-117621876D01*
X118006157Y-117632029D01*
X117985538Y-117638284D01*
X117957960Y-117641000D01*
X117449240Y-117641000D01*
X117421662Y-117638284D01*
X117401043Y-117632029D01*
X117382047Y-117621876D01*
X117365392Y-117608208D01*
X117351724Y-117591553D01*
X117341571Y-117572557D01*
X117335316Y-117551938D01*
X117332600Y-117524360D01*
X117332600Y-117065640D01*
X117335316Y-117038062D01*
X117341571Y-117017443D01*
X117351724Y-116998447D01*
X117365392Y-116981792D01*
X117382047Y-116968124D01*
X117401043Y-116957971D01*
X117421662Y-116951716D01*
X117449240Y-116949000D01*
X117957960Y-116949000D01*
X117985538Y-116951716D01*
G37*
G36*
X107421000Y-117591000D02*
G01*
X106519000Y-117591000D01*
X106519000Y-116889000D01*
X107421000Y-116889000D01*
X107421000Y-117591000D01*
G37*
G36*
X128084937Y-116813467D02*
G01*
X128105556Y-116819722D01*
X128124552Y-116829875D01*
X128141207Y-116843543D01*
X128154875Y-116860198D01*
X128165028Y-116879194D01*
X128171283Y-116899813D01*
X128173999Y-116927391D01*
X128173999Y-117436111D01*
X128171283Y-117463689D01*
X128165028Y-117484308D01*
X128154875Y-117503304D01*
X128141207Y-117519959D01*
X128124552Y-117533627D01*
X128105556Y-117543780D01*
X128084937Y-117550035D01*
X128057359Y-117552751D01*
X127598639Y-117552751D01*
X127571061Y-117550035D01*
X127550442Y-117543780D01*
X127531446Y-117533627D01*
X127514791Y-117519959D01*
X127501123Y-117503304D01*
X127490970Y-117484308D01*
X127484715Y-117463689D01*
X127481999Y-117436111D01*
X127481999Y-116927391D01*
X127484715Y-116899813D01*
X127490970Y-116879194D01*
X127501123Y-116860198D01*
X127514791Y-116843543D01*
X127531446Y-116829875D01*
X127550442Y-116819722D01*
X127571061Y-116813467D01*
X127598639Y-116810751D01*
X128057359Y-116810751D01*
X128084937Y-116813467D01*
G37*
G36*
X129054937Y-116813467D02*
G01*
X129075556Y-116819722D01*
X129094552Y-116829875D01*
X129111207Y-116843543D01*
X129124875Y-116860198D01*
X129135028Y-116879194D01*
X129141283Y-116899813D01*
X129143999Y-116927391D01*
X129143999Y-117436111D01*
X129141283Y-117463689D01*
X129135028Y-117484308D01*
X129124875Y-117503304D01*
X129111207Y-117519959D01*
X129094552Y-117533627D01*
X129075556Y-117543780D01*
X129054937Y-117550035D01*
X129027359Y-117552751D01*
X128568639Y-117552751D01*
X128541061Y-117550035D01*
X128520442Y-117543780D01*
X128501446Y-117533627D01*
X128484791Y-117519959D01*
X128471123Y-117503304D01*
X128460970Y-117484308D01*
X128454715Y-117463689D01*
X128451999Y-117436111D01*
X128451999Y-116927391D01*
X128454715Y-116899813D01*
X128460970Y-116879194D01*
X128471123Y-116860198D01*
X128484791Y-116843543D01*
X128501446Y-116829875D01*
X128520442Y-116819722D01*
X128541061Y-116813467D01*
X128568639Y-116810751D01*
X129027359Y-116810751D01*
X129054937Y-116813467D01*
G37*
G36*
X124681938Y-116431716D02*
G01*
X124702557Y-116437971D01*
X124721553Y-116448124D01*
X124738208Y-116461792D01*
X124751876Y-116478447D01*
X124762029Y-116497443D01*
X124768284Y-116518062D01*
X124771000Y-116545640D01*
X124771000Y-117054360D01*
X124768284Y-117081938D01*
X124762029Y-117102557D01*
X124751876Y-117121553D01*
X124738208Y-117138208D01*
X124721553Y-117151876D01*
X124702557Y-117162029D01*
X124681938Y-117168284D01*
X124654360Y-117171000D01*
X124195640Y-117171000D01*
X124168062Y-117168284D01*
X124147443Y-117162029D01*
X124128447Y-117151876D01*
X124111792Y-117138208D01*
X124098124Y-117121553D01*
X124087971Y-117102557D01*
X124081716Y-117081938D01*
X124079000Y-117054360D01*
X124079000Y-116545640D01*
X124081716Y-116518062D01*
X124087971Y-116497443D01*
X124098124Y-116478447D01*
X124111792Y-116461792D01*
X124128447Y-116448124D01*
X124147443Y-116437971D01*
X124168062Y-116431716D01*
X124195640Y-116429000D01*
X124654360Y-116429000D01*
X124681938Y-116431716D01*
G37*
G36*
X123711938Y-116431716D02*
G01*
X123732557Y-116437971D01*
X123751553Y-116448124D01*
X123768208Y-116461792D01*
X123781876Y-116478447D01*
X123792029Y-116497443D01*
X123798284Y-116518062D01*
X123801000Y-116545640D01*
X123801000Y-117054360D01*
X123798284Y-117081938D01*
X123792029Y-117102557D01*
X123781876Y-117121553D01*
X123768208Y-117138208D01*
X123751553Y-117151876D01*
X123732557Y-117162029D01*
X123711938Y-117168284D01*
X123684360Y-117171000D01*
X123225640Y-117171000D01*
X123198062Y-117168284D01*
X123177443Y-117162029D01*
X123158447Y-117151876D01*
X123141792Y-117138208D01*
X123128124Y-117121553D01*
X123117971Y-117102557D01*
X123111716Y-117081938D01*
X123109000Y-117054360D01*
X123109000Y-116545640D01*
X123111716Y-116518062D01*
X123117971Y-116497443D01*
X123128124Y-116478447D01*
X123141792Y-116461792D01*
X123158447Y-116448124D01*
X123177443Y-116437971D01*
X123198062Y-116431716D01*
X123225640Y-116429000D01*
X123684360Y-116429000D01*
X123711938Y-116431716D01*
G37*
G36*
X179575463Y-116211454D02*
G01*
X179596082Y-116217709D01*
X179615078Y-116227862D01*
X179631733Y-116241530D01*
X179645401Y-116258185D01*
X179655554Y-116277181D01*
X179661809Y-116297800D01*
X179664525Y-116325378D01*
X179664525Y-116784098D01*
X179661809Y-116811676D01*
X179655554Y-116832295D01*
X179645401Y-116851291D01*
X179631733Y-116867946D01*
X179615078Y-116881614D01*
X179596082Y-116891767D01*
X179575463Y-116898022D01*
X179547885Y-116900738D01*
X179039165Y-116900738D01*
X179011587Y-116898022D01*
X178990968Y-116891767D01*
X178971972Y-116881614D01*
X178955317Y-116867946D01*
X178941649Y-116851291D01*
X178931496Y-116832295D01*
X178925241Y-116811676D01*
X178922525Y-116784098D01*
X178922525Y-116325378D01*
X178925241Y-116297800D01*
X178931496Y-116277181D01*
X178941649Y-116258185D01*
X178955317Y-116241530D01*
X178971972Y-116227862D01*
X178990968Y-116217709D01*
X179011587Y-116211454D01*
X179039165Y-116208738D01*
X179547885Y-116208738D01*
X179575463Y-116211454D01*
G37*
G36*
X192016000Y-116601710D02*
G01*
X191314000Y-116601710D01*
X191314000Y-115699710D01*
X192016000Y-115699710D01*
X192016000Y-116601710D01*
G37*
G36*
X190616000Y-116601710D02*
G01*
X189914000Y-116601710D01*
X189914000Y-115699710D01*
X190616000Y-115699710D01*
X190616000Y-116601710D01*
G37*
G36*
X177471000Y-116470738D02*
G01*
X176569000Y-116470738D01*
X176569000Y-115768738D01*
X177471000Y-115768738D01*
X177471000Y-116470738D01*
G37*
G36*
X107401000Y-116451000D02*
G01*
X106499000Y-116451000D01*
X106499000Y-115749000D01*
X107401000Y-115749000D01*
X107401000Y-116451000D01*
G37*
G36*
X123701938Y-115291716D02*
G01*
X123722557Y-115297971D01*
X123741553Y-115308124D01*
X123758208Y-115321792D01*
X123771876Y-115338447D01*
X123782029Y-115357443D01*
X123788284Y-115378062D01*
X123791000Y-115405640D01*
X123791000Y-115914360D01*
X123788284Y-115941938D01*
X123782029Y-115962557D01*
X123771876Y-115981553D01*
X123758208Y-115998208D01*
X123741553Y-116011876D01*
X123722557Y-116022029D01*
X123701938Y-116028284D01*
X123674360Y-116031000D01*
X123215640Y-116031000D01*
X123188062Y-116028284D01*
X123167443Y-116022029D01*
X123148447Y-116011876D01*
X123131792Y-115998208D01*
X123118124Y-115981553D01*
X123107971Y-115962557D01*
X123101716Y-115941938D01*
X123099000Y-115914360D01*
X123099000Y-115405640D01*
X123101716Y-115378062D01*
X123107971Y-115357443D01*
X123118124Y-115338447D01*
X123131792Y-115321792D01*
X123148447Y-115308124D01*
X123167443Y-115297971D01*
X123188062Y-115291716D01*
X123215640Y-115289000D01*
X123674360Y-115289000D01*
X123701938Y-115291716D01*
G37*
G36*
X124671938Y-115291716D02*
G01*
X124692557Y-115297971D01*
X124711553Y-115308124D01*
X124728208Y-115321792D01*
X124741876Y-115338447D01*
X124752029Y-115357443D01*
X124758284Y-115378062D01*
X124761000Y-115405640D01*
X124761000Y-115914360D01*
X124758284Y-115941938D01*
X124752029Y-115962557D01*
X124741876Y-115981553D01*
X124728208Y-115998208D01*
X124711553Y-116011876D01*
X124692557Y-116022029D01*
X124671938Y-116028284D01*
X124644360Y-116031000D01*
X124185640Y-116031000D01*
X124158062Y-116028284D01*
X124137443Y-116022029D01*
X124118447Y-116011876D01*
X124101792Y-115998208D01*
X124088124Y-115981553D01*
X124077971Y-115962557D01*
X124071716Y-115941938D01*
X124069000Y-115914360D01*
X124069000Y-115405640D01*
X124071716Y-115378062D01*
X124077971Y-115357443D01*
X124088124Y-115338447D01*
X124101792Y-115321792D01*
X124118447Y-115308124D01*
X124137443Y-115297971D01*
X124158062Y-115291716D01*
X124185640Y-115289000D01*
X124644360Y-115289000D01*
X124671938Y-115291716D01*
G37*
G36*
X103211000Y-115781000D02*
G01*
X101909000Y-115781000D01*
X101909000Y-114479000D01*
X103211000Y-114479000D01*
X103211000Y-115781000D01*
G37*
G36*
X105311000Y-115781000D02*
G01*
X104009000Y-115781000D01*
X104009000Y-114479000D01*
X105311000Y-114479000D01*
X105311000Y-115781000D01*
G37*
G36*
X174726000Y-115601000D02*
G01*
X173424000Y-115601000D01*
X173424000Y-114299000D01*
X174726000Y-114299000D01*
X174726000Y-115601000D01*
G37*
G36*
X172626000Y-115601000D02*
G01*
X171324000Y-115601000D01*
X171324000Y-114299000D01*
X172626000Y-114299000D01*
X172626000Y-115601000D01*
G37*
G36*
X109431938Y-114781716D02*
G01*
X109452557Y-114787971D01*
X109471553Y-114798124D01*
X109488208Y-114811792D01*
X109501876Y-114828447D01*
X109512029Y-114847443D01*
X109518284Y-114868062D01*
X109521000Y-114895640D01*
X109521000Y-115354360D01*
X109518284Y-115381938D01*
X109512029Y-115402557D01*
X109501876Y-115421553D01*
X109488208Y-115438208D01*
X109471553Y-115451876D01*
X109452557Y-115462029D01*
X109431938Y-115468284D01*
X109404360Y-115471000D01*
X108895640Y-115471000D01*
X108868062Y-115468284D01*
X108847443Y-115462029D01*
X108828447Y-115451876D01*
X108811792Y-115438208D01*
X108798124Y-115421553D01*
X108787971Y-115402557D01*
X108781716Y-115381938D01*
X108779000Y-115354360D01*
X108779000Y-114895640D01*
X108781716Y-114868062D01*
X108787971Y-114847443D01*
X108798124Y-114828447D01*
X108811792Y-114811792D01*
X108828447Y-114798124D01*
X108847443Y-114787971D01*
X108868062Y-114781716D01*
X108895640Y-114779000D01*
X109404360Y-114779000D01*
X109431938Y-114781716D01*
G37*
G36*
X107401000Y-115051000D02*
G01*
X106499000Y-115051000D01*
X106499000Y-114349000D01*
X107401000Y-114349000D01*
X107401000Y-115051000D01*
G37*
G36*
X192016000Y-114825281D02*
G01*
X191314000Y-114825281D01*
X191314000Y-113923281D01*
X192016000Y-113923281D01*
X192016000Y-114825281D01*
G37*
G36*
X190616000Y-114825281D02*
G01*
X189914000Y-114825281D01*
X189914000Y-113923281D01*
X190616000Y-113923281D01*
X190616000Y-114825281D01*
G37*
G36*
X122076000Y-114576000D02*
G01*
X121374000Y-114576000D01*
X121374000Y-113674000D01*
X122076000Y-113674000D01*
X122076000Y-114576000D01*
G37*
G36*
X120676000Y-114576000D02*
G01*
X119974000Y-114576000D01*
X119974000Y-113674000D01*
X120676000Y-113674000D01*
X120676000Y-114576000D01*
G37*
G36*
X109431938Y-113811716D02*
G01*
X109452557Y-113817971D01*
X109471553Y-113828124D01*
X109488208Y-113841792D01*
X109501876Y-113858447D01*
X109512029Y-113877443D01*
X109518284Y-113898062D01*
X109521000Y-113925640D01*
X109521000Y-114384360D01*
X109518284Y-114411938D01*
X109512029Y-114432557D01*
X109501876Y-114451553D01*
X109488208Y-114468208D01*
X109471553Y-114481876D01*
X109452557Y-114492029D01*
X109431938Y-114498284D01*
X109404360Y-114501000D01*
X108895640Y-114501000D01*
X108868062Y-114498284D01*
X108847443Y-114492029D01*
X108828447Y-114481876D01*
X108811792Y-114468208D01*
X108798124Y-114451553D01*
X108787971Y-114432557D01*
X108781716Y-114411938D01*
X108779000Y-114384360D01*
X108779000Y-113925640D01*
X108781716Y-113898062D01*
X108787971Y-113877443D01*
X108798124Y-113858447D01*
X108811792Y-113841792D01*
X108828447Y-113828124D01*
X108847443Y-113817971D01*
X108868062Y-113811716D01*
X108895640Y-113809000D01*
X109404360Y-113809000D01*
X109431938Y-113811716D01*
G37*
G36*
X178901000Y-114426000D02*
G01*
X177999000Y-114426000D01*
X177999000Y-113724000D01*
X178901000Y-113724000D01*
X178901000Y-114426000D01*
G37*
G36*
X180006938Y-113641716D02*
G01*
X180027557Y-113647971D01*
X180046553Y-113658124D01*
X180063208Y-113671792D01*
X180076876Y-113688447D01*
X180087029Y-113707443D01*
X180093284Y-113728062D01*
X180096000Y-113755640D01*
X180096000Y-114214360D01*
X180093284Y-114241938D01*
X180087029Y-114262557D01*
X180076876Y-114281553D01*
X180063208Y-114298208D01*
X180046553Y-114311876D01*
X180027557Y-114322029D01*
X180006938Y-114328284D01*
X179979360Y-114331000D01*
X179470640Y-114331000D01*
X179443062Y-114328284D01*
X179422443Y-114322029D01*
X179403447Y-114311876D01*
X179386792Y-114298208D01*
X179373124Y-114281553D01*
X179362971Y-114262557D01*
X179356716Y-114241938D01*
X179354000Y-114214360D01*
X179354000Y-113755640D01*
X179356716Y-113728062D01*
X179362971Y-113707443D01*
X179373124Y-113688447D01*
X179386792Y-113671792D01*
X179403447Y-113658124D01*
X179422443Y-113647971D01*
X179443062Y-113641716D01*
X179470640Y-113639000D01*
X179979360Y-113639000D01*
X180006938Y-113641716D01*
G37*
G36*
X114217664Y-114276700D02*
G01*
X112715664Y-114276700D01*
X112715664Y-112974700D01*
X114217664Y-112974700D01*
X114217664Y-114276700D01*
G37*
G36*
X116757664Y-114276700D02*
G01*
X115255664Y-114276700D01*
X115255664Y-112974700D01*
X116757664Y-112974700D01*
X116757664Y-114276700D01*
G37*
G36*
X186770164Y-114252700D02*
G01*
X185268164Y-114252700D01*
X185268164Y-112950700D01*
X186770164Y-112950700D01*
X186770164Y-114252700D01*
G37*
G36*
X184230164Y-114252700D02*
G01*
X182728164Y-114252700D01*
X182728164Y-112950700D01*
X184230164Y-112950700D01*
X184230164Y-114252700D01*
G37*
G36*
X168723500Y-113837000D02*
G01*
X167881500Y-113837000D01*
X167881500Y-112835000D01*
X168723500Y-112835000D01*
X168723500Y-113837000D01*
G37*
G36*
X180006938Y-112671716D02*
G01*
X180027557Y-112677971D01*
X180046553Y-112688124D01*
X180063208Y-112701792D01*
X180076876Y-112718447D01*
X180087029Y-112737443D01*
X180093284Y-112758062D01*
X180096000Y-112785640D01*
X180096000Y-113244360D01*
X180093284Y-113271938D01*
X180087029Y-113292557D01*
X180076876Y-113311553D01*
X180063208Y-113328208D01*
X180046553Y-113341876D01*
X180027557Y-113352029D01*
X180006938Y-113358284D01*
X179979360Y-113361000D01*
X179470640Y-113361000D01*
X179443062Y-113358284D01*
X179422443Y-113352029D01*
X179403447Y-113341876D01*
X179386792Y-113328208D01*
X179373124Y-113311553D01*
X179362971Y-113292557D01*
X179356716Y-113271938D01*
X179354000Y-113244360D01*
X179354000Y-112785640D01*
X179356716Y-112758062D01*
X179362971Y-112737443D01*
X179373124Y-112718447D01*
X179386792Y-112701792D01*
X179403447Y-112688124D01*
X179422443Y-112677971D01*
X179443062Y-112671716D01*
X179470640Y-112669000D01*
X179979360Y-112669000D01*
X180006938Y-112671716D01*
G37*
G36*
X128781000Y-113301000D02*
G01*
X127939000Y-113301000D01*
X127939000Y-112299000D01*
X128781000Y-112299000D01*
X128781000Y-113301000D01*
G37*
G36*
X191996000Y-113048854D02*
G01*
X191294000Y-113048854D01*
X191294000Y-112146854D01*
X191996000Y-112146854D01*
X191996000Y-113048854D01*
G37*
G36*
X190596000Y-113048854D02*
G01*
X189894000Y-113048854D01*
X189894000Y-112146854D01*
X190596000Y-112146854D01*
X190596000Y-113048854D01*
G37*
G36*
X178901000Y-113026000D02*
G01*
X177999000Y-113026000D01*
X177999000Y-112324000D01*
X178901000Y-112324000D01*
X178901000Y-113026000D01*
G37*
G36*
X120751000Y-113001000D02*
G01*
X120049000Y-113001000D01*
X120049000Y-112099000D01*
X120751000Y-112099000D01*
X120751000Y-113001000D01*
G37*
G36*
X122151000Y-113001000D02*
G01*
X121449000Y-113001000D01*
X121449000Y-112099000D01*
X122151000Y-112099000D01*
X122151000Y-113001000D01*
G37*
G36*
X167403500Y-112957000D02*
G01*
X166401500Y-112957000D01*
X166401500Y-110615000D01*
X167403500Y-110615000D01*
X167403500Y-112957000D01*
G37*
G36*
X170203500Y-112957000D02*
G01*
X169201500Y-112957000D01*
X169201500Y-110615000D01*
X170203500Y-110615000D01*
X170203500Y-112957000D01*
G37*
G36*
X175441938Y-112041716D02*
G01*
X175462557Y-112047971D01*
X175481553Y-112058124D01*
X175498208Y-112071792D01*
X175511876Y-112088447D01*
X175522029Y-112107443D01*
X175528284Y-112128062D01*
X175531000Y-112155640D01*
X175531000Y-112664360D01*
X175528284Y-112691938D01*
X175522029Y-112712557D01*
X175511876Y-112731553D01*
X175498208Y-112748208D01*
X175481553Y-112761876D01*
X175462557Y-112772029D01*
X175441938Y-112778284D01*
X175414360Y-112781000D01*
X174955640Y-112781000D01*
X174928062Y-112778284D01*
X174907443Y-112772029D01*
X174888447Y-112761876D01*
X174871792Y-112748208D01*
X174858124Y-112731553D01*
X174847971Y-112712557D01*
X174841716Y-112691938D01*
X174839000Y-112664360D01*
X174839000Y-112155640D01*
X174841716Y-112128062D01*
X174847971Y-112107443D01*
X174858124Y-112088447D01*
X174871792Y-112071792D01*
X174888447Y-112058124D01*
X174907443Y-112047971D01*
X174928062Y-112041716D01*
X174955640Y-112039000D01*
X175414360Y-112039000D01*
X175441938Y-112041716D01*
G37*
G36*
X174471938Y-112041716D02*
G01*
X174492557Y-112047971D01*
X174511553Y-112058124D01*
X174528208Y-112071792D01*
X174541876Y-112088447D01*
X174552029Y-112107443D01*
X174558284Y-112128062D01*
X174561000Y-112155640D01*
X174561000Y-112664360D01*
X174558284Y-112691938D01*
X174552029Y-112712557D01*
X174541876Y-112731553D01*
X174528208Y-112748208D01*
X174511553Y-112761876D01*
X174492557Y-112772029D01*
X174471938Y-112778284D01*
X174444360Y-112781000D01*
X173985640Y-112781000D01*
X173958062Y-112778284D01*
X173937443Y-112772029D01*
X173918447Y-112761876D01*
X173901792Y-112748208D01*
X173888124Y-112731553D01*
X173877971Y-112712557D01*
X173871716Y-112691938D01*
X173869000Y-112664360D01*
X173869000Y-112155640D01*
X173871716Y-112128062D01*
X173877971Y-112107443D01*
X173888124Y-112088447D01*
X173901792Y-112071792D01*
X173918447Y-112058124D01*
X173937443Y-112047971D01*
X173958062Y-112041716D01*
X173985640Y-112039000D01*
X174444360Y-112039000D01*
X174471938Y-112041716D01*
G37*
G36*
X168803500Y-112537000D02*
G01*
X167801500Y-112537000D01*
X167801500Y-111035000D01*
X168803500Y-111035000D01*
X168803500Y-112537000D01*
G37*
G36*
X130261000Y-112421000D02*
G01*
X129259000Y-112421000D01*
X129259000Y-110079000D01*
X130261000Y-110079000D01*
X130261000Y-112421000D01*
G37*
G36*
X127461000Y-112421000D02*
G01*
X126459000Y-112421000D01*
X126459000Y-110079000D01*
X127461000Y-110079000D01*
X127461000Y-112421000D01*
G37*
G36*
X114217664Y-112076700D02*
G01*
X112715664Y-112076700D01*
X112715664Y-110774700D01*
X114217664Y-110774700D01*
X114217664Y-112076700D01*
G37*
G36*
X116757664Y-112076700D02*
G01*
X115255664Y-112076700D01*
X115255664Y-110774700D01*
X116757664Y-110774700D01*
X116757664Y-112076700D01*
G37*
G36*
X184230164Y-112052700D02*
G01*
X182728164Y-112052700D01*
X182728164Y-110750700D01*
X184230164Y-110750700D01*
X184230164Y-112052700D01*
G37*
G36*
X186770164Y-112052700D02*
G01*
X185268164Y-112052700D01*
X185268164Y-110750700D01*
X186770164Y-110750700D01*
X186770164Y-112052700D01*
G37*
G36*
X128861000Y-112001000D02*
G01*
X127859000Y-112001000D01*
X127859000Y-110499000D01*
X128861000Y-110499000D01*
X128861000Y-112001000D01*
G37*
G36*
X109431938Y-111271716D02*
G01*
X109452557Y-111277971D01*
X109471553Y-111288124D01*
X109488208Y-111301792D01*
X109501876Y-111318447D01*
X109512029Y-111337443D01*
X109518284Y-111358062D01*
X109521000Y-111385640D01*
X109521000Y-111844360D01*
X109518284Y-111871938D01*
X109512029Y-111892557D01*
X109501876Y-111911553D01*
X109488208Y-111928208D01*
X109471553Y-111941876D01*
X109452557Y-111952029D01*
X109431938Y-111958284D01*
X109404360Y-111961000D01*
X108895640Y-111961000D01*
X108868062Y-111958284D01*
X108847443Y-111952029D01*
X108828447Y-111941876D01*
X108811792Y-111928208D01*
X108798124Y-111911553D01*
X108787971Y-111892557D01*
X108781716Y-111871938D01*
X108779000Y-111844360D01*
X108779000Y-111385640D01*
X108781716Y-111358062D01*
X108787971Y-111337443D01*
X108798124Y-111318447D01*
X108811792Y-111301792D01*
X108828447Y-111288124D01*
X108847443Y-111277971D01*
X108868062Y-111271716D01*
X108895640Y-111269000D01*
X109404360Y-111269000D01*
X109431938Y-111271716D01*
G37*
G36*
X120751000Y-111526000D02*
G01*
X120049000Y-111526000D01*
X120049000Y-110624000D01*
X120751000Y-110624000D01*
X120751000Y-111526000D01*
G37*
G36*
X122151000Y-111526000D02*
G01*
X121449000Y-111526000D01*
X121449000Y-110624000D01*
X122151000Y-110624000D01*
X122151000Y-111526000D01*
G37*
G36*
X190586000Y-111272427D02*
G01*
X189884000Y-111272427D01*
X189884000Y-110370427D01*
X190586000Y-110370427D01*
X190586000Y-111272427D01*
G37*
G36*
X191986000Y-111272427D02*
G01*
X191284000Y-111272427D01*
X191284000Y-110370427D01*
X191986000Y-110370427D01*
X191986000Y-111272427D01*
G37*
G36*
X104326000Y-111126000D02*
G01*
X103024000Y-111126000D01*
X103024000Y-109824000D01*
X104326000Y-109824000D01*
X104326000Y-111126000D01*
G37*
G36*
X102226000Y-111126000D02*
G01*
X100924000Y-111126000D01*
X100924000Y-109824000D01*
X102226000Y-109824000D01*
X102226000Y-111126000D01*
G37*
G36*
X109431938Y-110301716D02*
G01*
X109452557Y-110307971D01*
X109471553Y-110318124D01*
X109488208Y-110331792D01*
X109501876Y-110348447D01*
X109512029Y-110367443D01*
X109518284Y-110388062D01*
X109521000Y-110415640D01*
X109521000Y-110874360D01*
X109518284Y-110901938D01*
X109512029Y-110922557D01*
X109501876Y-110941553D01*
X109488208Y-110958208D01*
X109471553Y-110971876D01*
X109452557Y-110982029D01*
X109431938Y-110988284D01*
X109404360Y-110991000D01*
X108895640Y-110991000D01*
X108868062Y-110988284D01*
X108847443Y-110982029D01*
X108828447Y-110971876D01*
X108811792Y-110958208D01*
X108798124Y-110941553D01*
X108787971Y-110922557D01*
X108781716Y-110901938D01*
X108779000Y-110874360D01*
X108779000Y-110415640D01*
X108781716Y-110388062D01*
X108787971Y-110367443D01*
X108798124Y-110348447D01*
X108811792Y-110331792D01*
X108828447Y-110318124D01*
X108847443Y-110307971D01*
X108868062Y-110301716D01*
X108895640Y-110299000D01*
X109404360Y-110299000D01*
X109431938Y-110301716D01*
G37*
G36*
X177471000Y-110911000D02*
G01*
X176569000Y-110911000D01*
X176569000Y-110209000D01*
X177471000Y-110209000D01*
X177471000Y-110911000D01*
G37*
G36*
X174751000Y-110901000D02*
G01*
X173449000Y-110901000D01*
X173449000Y-109599000D01*
X174751000Y-109599000D01*
X174751000Y-110901000D01*
G37*
G36*
X172651000Y-110901000D02*
G01*
X171349000Y-110901000D01*
X171349000Y-109599000D01*
X172651000Y-109599000D01*
X172651000Y-110901000D01*
G37*
G36*
X179575463Y-110191716D02*
G01*
X179596082Y-110197971D01*
X179615078Y-110208124D01*
X179631733Y-110221792D01*
X179645401Y-110238447D01*
X179655554Y-110257443D01*
X179661809Y-110278062D01*
X179664525Y-110305640D01*
X179664525Y-110764360D01*
X179661809Y-110791938D01*
X179655554Y-110812557D01*
X179645401Y-110831553D01*
X179631733Y-110848208D01*
X179615078Y-110861876D01*
X179596082Y-110872029D01*
X179575463Y-110878284D01*
X179547885Y-110881000D01*
X179039165Y-110881000D01*
X179011587Y-110878284D01*
X178990968Y-110872029D01*
X178971972Y-110861876D01*
X178955317Y-110848208D01*
X178941649Y-110831553D01*
X178931496Y-110812557D01*
X178925241Y-110791938D01*
X178922525Y-110764360D01*
X178922525Y-110305640D01*
X178925241Y-110278062D01*
X178931496Y-110257443D01*
X178941649Y-110238447D01*
X178955317Y-110221792D01*
X178971972Y-110208124D01*
X178990968Y-110197971D01*
X179011587Y-110191716D01*
X179039165Y-110189000D01*
X179547885Y-110189000D01*
X179575463Y-110191716D01*
G37*
G36*
X168723500Y-110737000D02*
G01*
X167881500Y-110737000D01*
X167881500Y-109735000D01*
X168723500Y-109735000D01*
X168723500Y-110737000D01*
G37*
G36*
X106126000Y-110476000D02*
G01*
X105424000Y-110476000D01*
X105424000Y-109574000D01*
X106126000Y-109574000D01*
X106126000Y-110476000D01*
G37*
G36*
X107526000Y-110476000D02*
G01*
X106824000Y-110476000D01*
X106824000Y-109574000D01*
X107526000Y-109574000D01*
X107526000Y-110476000D01*
G37*
G36*
X128781000Y-110201000D02*
G01*
X127939000Y-110201000D01*
X127939000Y-109199000D01*
X128781000Y-109199000D01*
X128781000Y-110201000D01*
G37*
G36*
X179575463Y-109221716D02*
G01*
X179596082Y-109227971D01*
X179615078Y-109238124D01*
X179631733Y-109251792D01*
X179645401Y-109268447D01*
X179655554Y-109287443D01*
X179661809Y-109308062D01*
X179664525Y-109335640D01*
X179664525Y-109794360D01*
X179661809Y-109821938D01*
X179655554Y-109842557D01*
X179645401Y-109861553D01*
X179631733Y-109878208D01*
X179615078Y-109891876D01*
X179596082Y-109902029D01*
X179575463Y-109908284D01*
X179547885Y-109911000D01*
X179039165Y-109911000D01*
X179011587Y-109908284D01*
X178990968Y-109902029D01*
X178971972Y-109891876D01*
X178955317Y-109878208D01*
X178941649Y-109861553D01*
X178931496Y-109842557D01*
X178925241Y-109821938D01*
X178922525Y-109794360D01*
X178922525Y-109335640D01*
X178925241Y-109308062D01*
X178931496Y-109287443D01*
X178941649Y-109268447D01*
X178955317Y-109251792D01*
X178971972Y-109238124D01*
X178990968Y-109227971D01*
X179011587Y-109221716D01*
X179039165Y-109219000D01*
X179547885Y-109219000D01*
X179575463Y-109221716D01*
G37*
G36*
X177471000Y-109511000D02*
G01*
X176569000Y-109511000D01*
X176569000Y-108809000D01*
X177471000Y-108809000D01*
X177471000Y-109511000D01*
G37*
G36*
X192016000Y-109496000D02*
G01*
X191314000Y-109496000D01*
X191314000Y-108594000D01*
X192016000Y-108594000D01*
X192016000Y-109496000D01*
G37*
G36*
X190616000Y-109496000D02*
G01*
X189914000Y-109496000D01*
X189914000Y-108594000D01*
X190616000Y-108594000D01*
X190616000Y-109496000D01*
G37*
G36*
X122051000Y-109471000D02*
G01*
X121349000Y-109471000D01*
X121349000Y-108569000D01*
X122051000Y-108569000D01*
X122051000Y-109471000D01*
G37*
G36*
X123451000Y-109471000D02*
G01*
X122749000Y-109471000D01*
X122749000Y-108569000D01*
X123451000Y-108569000D01*
X123451000Y-109471000D01*
G37*
G36*
X104863938Y-108663716D02*
G01*
X104884557Y-108669971D01*
X104903553Y-108680124D01*
X104920208Y-108693792D01*
X104933876Y-108710447D01*
X104944029Y-108729443D01*
X104950284Y-108750062D01*
X104953000Y-108777640D01*
X104953000Y-109286360D01*
X104950284Y-109313938D01*
X104944029Y-109334557D01*
X104933876Y-109353553D01*
X104920208Y-109370208D01*
X104903553Y-109383876D01*
X104884557Y-109394029D01*
X104863938Y-109400284D01*
X104836360Y-109403000D01*
X104377640Y-109403000D01*
X104350062Y-109400284D01*
X104329443Y-109394029D01*
X104310447Y-109383876D01*
X104293792Y-109370208D01*
X104280124Y-109353553D01*
X104269971Y-109334557D01*
X104263716Y-109313938D01*
X104261000Y-109286360D01*
X104261000Y-108777640D01*
X104263716Y-108750062D01*
X104269971Y-108729443D01*
X104280124Y-108710447D01*
X104293792Y-108693792D01*
X104310447Y-108680124D01*
X104329443Y-108669971D01*
X104350062Y-108663716D01*
X104377640Y-108661000D01*
X104836360Y-108661000D01*
X104863938Y-108663716D01*
G37*
G36*
X103893938Y-108663716D02*
G01*
X103914557Y-108669971D01*
X103933553Y-108680124D01*
X103950208Y-108693792D01*
X103963876Y-108710447D01*
X103974029Y-108729443D01*
X103980284Y-108750062D01*
X103983000Y-108777640D01*
X103983000Y-109286360D01*
X103980284Y-109313938D01*
X103974029Y-109334557D01*
X103963876Y-109353553D01*
X103950208Y-109370208D01*
X103933553Y-109383876D01*
X103914557Y-109394029D01*
X103893938Y-109400284D01*
X103866360Y-109403000D01*
X103407640Y-109403000D01*
X103380062Y-109400284D01*
X103359443Y-109394029D01*
X103340447Y-109383876D01*
X103323792Y-109370208D01*
X103310124Y-109353553D01*
X103299971Y-109334557D01*
X103293716Y-109313938D01*
X103291000Y-109286360D01*
X103291000Y-108777640D01*
X103293716Y-108750062D01*
X103299971Y-108729443D01*
X103310124Y-108710447D01*
X103323792Y-108693792D01*
X103340447Y-108680124D01*
X103359443Y-108669971D01*
X103380062Y-108663716D01*
X103407640Y-108661000D01*
X103866360Y-108661000D01*
X103893938Y-108663716D01*
G37*
G36*
X174630938Y-108315716D02*
G01*
X174651557Y-108321971D01*
X174670553Y-108332124D01*
X174687208Y-108345792D01*
X174700876Y-108362447D01*
X174711029Y-108381443D01*
X174717284Y-108402062D01*
X174720000Y-108429640D01*
X174720000Y-108938360D01*
X174717284Y-108965938D01*
X174711029Y-108986557D01*
X174700876Y-109005553D01*
X174687208Y-109022208D01*
X174670553Y-109035876D01*
X174651557Y-109046029D01*
X174630938Y-109052284D01*
X174603360Y-109055000D01*
X174144640Y-109055000D01*
X174117062Y-109052284D01*
X174096443Y-109046029D01*
X174077447Y-109035876D01*
X174060792Y-109022208D01*
X174047124Y-109005553D01*
X174036971Y-108986557D01*
X174030716Y-108965938D01*
X174028000Y-108938360D01*
X174028000Y-108429640D01*
X174030716Y-108402062D01*
X174036971Y-108381443D01*
X174047124Y-108362447D01*
X174060792Y-108345792D01*
X174077447Y-108332124D01*
X174096443Y-108321971D01*
X174117062Y-108315716D01*
X174144640Y-108313000D01*
X174603360Y-108313000D01*
X174630938Y-108315716D01*
G37*
G36*
X173660938Y-108315716D02*
G01*
X173681557Y-108321971D01*
X173700553Y-108332124D01*
X173717208Y-108345792D01*
X173730876Y-108362447D01*
X173741029Y-108381443D01*
X173747284Y-108402062D01*
X173750000Y-108429640D01*
X173750000Y-108938360D01*
X173747284Y-108965938D01*
X173741029Y-108986557D01*
X173730876Y-109005553D01*
X173717208Y-109022208D01*
X173700553Y-109035876D01*
X173681557Y-109046029D01*
X173660938Y-109052284D01*
X173633360Y-109055000D01*
X173174640Y-109055000D01*
X173147062Y-109052284D01*
X173126443Y-109046029D01*
X173107447Y-109035876D01*
X173090792Y-109022208D01*
X173077124Y-109005553D01*
X173066971Y-108986557D01*
X173060716Y-108965938D01*
X173058000Y-108938360D01*
X173058000Y-108429640D01*
X173060716Y-108402062D01*
X173066971Y-108381443D01*
X173077124Y-108362447D01*
X173090792Y-108345792D01*
X173107447Y-108332124D01*
X173126443Y-108321971D01*
X173147062Y-108315716D01*
X173174640Y-108313000D01*
X173633360Y-108313000D01*
X173660938Y-108315716D01*
G37*
G36*
X120701000Y-109011000D02*
G01*
X119999000Y-109011000D01*
X119999000Y-108109000D01*
X120701000Y-108109000D01*
X120701000Y-109011000D01*
G37*
G36*
X119301000Y-109011000D02*
G01*
X118599000Y-109011000D01*
X118599000Y-108109000D01*
X119301000Y-108109000D01*
X119301000Y-109011000D01*
G37*
G36*
X109794438Y-107817716D02*
G01*
X109815057Y-107823971D01*
X109834053Y-107834124D01*
X109850708Y-107847792D01*
X109864376Y-107864447D01*
X109874529Y-107883443D01*
X109880784Y-107904062D01*
X109883500Y-107931640D01*
X109883500Y-108440360D01*
X109880784Y-108467938D01*
X109874529Y-108488557D01*
X109864376Y-108507553D01*
X109850708Y-108524208D01*
X109834053Y-108537876D01*
X109815057Y-108548029D01*
X109794438Y-108554284D01*
X109766860Y-108557000D01*
X109308140Y-108557000D01*
X109280562Y-108554284D01*
X109259943Y-108548029D01*
X109240947Y-108537876D01*
X109224292Y-108524208D01*
X109210624Y-108507553D01*
X109200471Y-108488557D01*
X109194216Y-108467938D01*
X109191500Y-108440360D01*
X109191500Y-107931640D01*
X109194216Y-107904062D01*
X109200471Y-107883443D01*
X109210624Y-107864447D01*
X109224292Y-107847792D01*
X109240947Y-107834124D01*
X109259943Y-107823971D01*
X109280562Y-107817716D01*
X109308140Y-107815000D01*
X109766860Y-107815000D01*
X109794438Y-107817716D01*
G37*
G36*
X108824438Y-107817716D02*
G01*
X108845057Y-107823971D01*
X108864053Y-107834124D01*
X108880708Y-107847792D01*
X108894376Y-107864447D01*
X108904529Y-107883443D01*
X108910784Y-107904062D01*
X108913500Y-107931640D01*
X108913500Y-108440360D01*
X108910784Y-108467938D01*
X108904529Y-108488557D01*
X108894376Y-108507553D01*
X108880708Y-108524208D01*
X108864053Y-108537876D01*
X108845057Y-108548029D01*
X108824438Y-108554284D01*
X108796860Y-108557000D01*
X108338140Y-108557000D01*
X108310562Y-108554284D01*
X108289943Y-108548029D01*
X108270947Y-108537876D01*
X108254292Y-108524208D01*
X108240624Y-108507553D01*
X108230471Y-108488557D01*
X108224216Y-108467938D01*
X108221500Y-108440360D01*
X108221500Y-107931640D01*
X108224216Y-107904062D01*
X108230471Y-107883443D01*
X108240624Y-107864447D01*
X108254292Y-107847792D01*
X108270947Y-107834124D01*
X108289943Y-107823971D01*
X108310562Y-107817716D01*
X108338140Y-107815000D01*
X108796860Y-107815000D01*
X108824438Y-107817716D01*
G37*
G36*
X186621000Y-107893000D02*
G01*
X185919000Y-107893000D01*
X185919000Y-106991000D01*
X186621000Y-106991000D01*
X186621000Y-107893000D01*
G37*
G36*
X185221000Y-107893000D02*
G01*
X184519000Y-107893000D01*
X184519000Y-106991000D01*
X185221000Y-106991000D01*
X185221000Y-107893000D01*
G37*
G36*
X180294438Y-107117716D02*
G01*
X180315057Y-107123971D01*
X180334053Y-107134124D01*
X180350708Y-107147792D01*
X180364376Y-107164447D01*
X180374529Y-107183443D01*
X180380784Y-107204062D01*
X180383500Y-107231640D01*
X180383500Y-107740360D01*
X180380784Y-107767938D01*
X180374529Y-107788557D01*
X180364376Y-107807553D01*
X180350708Y-107824208D01*
X180334053Y-107837876D01*
X180315057Y-107848029D01*
X180294438Y-107854284D01*
X180266860Y-107857000D01*
X179808140Y-107857000D01*
X179780562Y-107854284D01*
X179759943Y-107848029D01*
X179740947Y-107837876D01*
X179724292Y-107824208D01*
X179710624Y-107807553D01*
X179700471Y-107788557D01*
X179694216Y-107767938D01*
X179691500Y-107740360D01*
X179691500Y-107231640D01*
X179694216Y-107204062D01*
X179700471Y-107183443D01*
X179710624Y-107164447D01*
X179724292Y-107147792D01*
X179740947Y-107134124D01*
X179759943Y-107123971D01*
X179780562Y-107117716D01*
X179808140Y-107115000D01*
X180266860Y-107115000D01*
X180294438Y-107117716D01*
G37*
G36*
X179324438Y-107117716D02*
G01*
X179345057Y-107123971D01*
X179364053Y-107134124D01*
X179380708Y-107147792D01*
X179394376Y-107164447D01*
X179404529Y-107183443D01*
X179410784Y-107204062D01*
X179413500Y-107231640D01*
X179413500Y-107740360D01*
X179410784Y-107767938D01*
X179404529Y-107788557D01*
X179394376Y-107807553D01*
X179380708Y-107824208D01*
X179364053Y-107837876D01*
X179345057Y-107848029D01*
X179324438Y-107854284D01*
X179296860Y-107857000D01*
X178838140Y-107857000D01*
X178810562Y-107854284D01*
X178789943Y-107848029D01*
X178770947Y-107837876D01*
X178754292Y-107824208D01*
X178740624Y-107807553D01*
X178730471Y-107788557D01*
X178724216Y-107767938D01*
X178721500Y-107740360D01*
X178721500Y-107231640D01*
X178724216Y-107204062D01*
X178730471Y-107183443D01*
X178740624Y-107164447D01*
X178754292Y-107147792D01*
X178770947Y-107134124D01*
X178789943Y-107123971D01*
X178810562Y-107117716D01*
X178838140Y-107115000D01*
X179296860Y-107115000D01*
X179324438Y-107117716D01*
G37*
G36*
X104853938Y-106913716D02*
G01*
X104874557Y-106919971D01*
X104893553Y-106930124D01*
X104910208Y-106943792D01*
X104923876Y-106960447D01*
X104934029Y-106979443D01*
X104940284Y-107000062D01*
X104943000Y-107027640D01*
X104943000Y-107536360D01*
X104940284Y-107563938D01*
X104934029Y-107584557D01*
X104923876Y-107603553D01*
X104910208Y-107620208D01*
X104893553Y-107633876D01*
X104874557Y-107644029D01*
X104853938Y-107650284D01*
X104826360Y-107653000D01*
X104367640Y-107653000D01*
X104340062Y-107650284D01*
X104319443Y-107644029D01*
X104300447Y-107633876D01*
X104283792Y-107620208D01*
X104270124Y-107603553D01*
X104259971Y-107584557D01*
X104253716Y-107563938D01*
X104251000Y-107536360D01*
X104251000Y-107027640D01*
X104253716Y-107000062D01*
X104259971Y-106979443D01*
X104270124Y-106960447D01*
X104283792Y-106943792D01*
X104300447Y-106930124D01*
X104319443Y-106919971D01*
X104340062Y-106913716D01*
X104367640Y-106911000D01*
X104826360Y-106911000D01*
X104853938Y-106913716D01*
G37*
G36*
X103883938Y-106913716D02*
G01*
X103904557Y-106919971D01*
X103923553Y-106930124D01*
X103940208Y-106943792D01*
X103953876Y-106960447D01*
X103964029Y-106979443D01*
X103970284Y-107000062D01*
X103973000Y-107027640D01*
X103973000Y-107536360D01*
X103970284Y-107563938D01*
X103964029Y-107584557D01*
X103953876Y-107603553D01*
X103940208Y-107620208D01*
X103923553Y-107633876D01*
X103904557Y-107644029D01*
X103883938Y-107650284D01*
X103856360Y-107653000D01*
X103397640Y-107653000D01*
X103370062Y-107650284D01*
X103349443Y-107644029D01*
X103330447Y-107633876D01*
X103313792Y-107620208D01*
X103300124Y-107603553D01*
X103289971Y-107584557D01*
X103283716Y-107563938D01*
X103281000Y-107536360D01*
X103281000Y-107027640D01*
X103283716Y-107000062D01*
X103289971Y-106979443D01*
X103300124Y-106960447D01*
X103313792Y-106943792D01*
X103330447Y-106930124D01*
X103349443Y-106919971D01*
X103370062Y-106913716D01*
X103397640Y-106911000D01*
X103856360Y-106911000D01*
X103883938Y-106913716D01*
G37*
G36*
X173728088Y-106685716D02*
G01*
X173748707Y-106691971D01*
X173767703Y-106702124D01*
X173784358Y-106715792D01*
X173798026Y-106732447D01*
X173808179Y-106751443D01*
X173814434Y-106772062D01*
X173817150Y-106799640D01*
X173817150Y-107308360D01*
X173814434Y-107335938D01*
X173808179Y-107356557D01*
X173798026Y-107375553D01*
X173784358Y-107392208D01*
X173767703Y-107405876D01*
X173748707Y-107416029D01*
X173728088Y-107422284D01*
X173700510Y-107425000D01*
X173241790Y-107425000D01*
X173214212Y-107422284D01*
X173193593Y-107416029D01*
X173174597Y-107405876D01*
X173157942Y-107392208D01*
X173144274Y-107375553D01*
X173134121Y-107356557D01*
X173127866Y-107335938D01*
X173125150Y-107308360D01*
X173125150Y-106799640D01*
X173127866Y-106772062D01*
X173134121Y-106751443D01*
X173144274Y-106732447D01*
X173157942Y-106715792D01*
X173174597Y-106702124D01*
X173193593Y-106691971D01*
X173214212Y-106685716D01*
X173241790Y-106683000D01*
X173700510Y-106683000D01*
X173728088Y-106685716D01*
G37*
G36*
X174698088Y-106685716D02*
G01*
X174718707Y-106691971D01*
X174737703Y-106702124D01*
X174754358Y-106715792D01*
X174768026Y-106732447D01*
X174778179Y-106751443D01*
X174784434Y-106772062D01*
X174787150Y-106799640D01*
X174787150Y-107308360D01*
X174784434Y-107335938D01*
X174778179Y-107356557D01*
X174768026Y-107375553D01*
X174754358Y-107392208D01*
X174737703Y-107405876D01*
X174718707Y-107416029D01*
X174698088Y-107422284D01*
X174670510Y-107425000D01*
X174211790Y-107425000D01*
X174184212Y-107422284D01*
X174163593Y-107416029D01*
X174144597Y-107405876D01*
X174127942Y-107392208D01*
X174114274Y-107375553D01*
X174104121Y-107356557D01*
X174097866Y-107335938D01*
X174095150Y-107308360D01*
X174095150Y-106799640D01*
X174097866Y-106772062D01*
X174104121Y-106751443D01*
X174114274Y-106732447D01*
X174127942Y-106715792D01*
X174144597Y-106702124D01*
X174163593Y-106691971D01*
X174184212Y-106685716D01*
X174211790Y-106683000D01*
X174670510Y-106683000D01*
X174698088Y-106685716D01*
G37*
G36*
X111541000Y-107131000D02*
G01*
X110839000Y-107131000D01*
X110839000Y-106229000D01*
X111541000Y-106229000D01*
X111541000Y-107131000D01*
G37*
G36*
X110141000Y-107131000D02*
G01*
X109439000Y-107131000D01*
X109439000Y-106229000D01*
X110141000Y-106229000D01*
X110141000Y-107131000D01*
G37*
G36*
X197787852Y-100402797D02*
G01*
X198279402Y-100606404D01*
X198279403Y-100606405D01*
X198721787Y-100901996D01*
X199098004Y-101278213D01*
X199295512Y-101573805D01*
X199393596Y-101720598D01*
X199597203Y-102212148D01*
X199701000Y-102733973D01*
X199701000Y-103266027D01*
X199597203Y-103787852D01*
X199393596Y-104279402D01*
X199393595Y-104279403D01*
X199098004Y-104721787D01*
X198721787Y-105098004D01*
X198614037Y-105170000D01*
X198279402Y-105393596D01*
X197787852Y-105597203D01*
X197266027Y-105701000D01*
X196733973Y-105701000D01*
X196212148Y-105597203D01*
X195720598Y-105393596D01*
X195385963Y-105170000D01*
X195278213Y-105098004D01*
X194901996Y-104721787D01*
X194606405Y-104279403D01*
X194606404Y-104279402D01*
X194402797Y-103787852D01*
X194299000Y-103266027D01*
X194299000Y-102733973D01*
X194402797Y-102212148D01*
X194606404Y-101720598D01*
X194704488Y-101573805D01*
X194901996Y-101278213D01*
X195278213Y-100901996D01*
X195720597Y-100606405D01*
X195720598Y-100606404D01*
X196212148Y-100402797D01*
X196733973Y-100299000D01*
X197266027Y-100299000D01*
X197787852Y-100402797D01*
G37*
G36*
X103787852Y-100402797D02*
G01*
X104279402Y-100606404D01*
X104279403Y-100606405D01*
X104721787Y-100901996D01*
X105098004Y-101278213D01*
X105295512Y-101573805D01*
X105393596Y-101720598D01*
X105597203Y-102212148D01*
X105701000Y-102733973D01*
X105701000Y-103266027D01*
X105597203Y-103787852D01*
X105393596Y-104279402D01*
X105393595Y-104279403D01*
X105098004Y-104721787D01*
X104721787Y-105098004D01*
X104614037Y-105170000D01*
X104279402Y-105393596D01*
X103787852Y-105597203D01*
X103266027Y-105701000D01*
X102733973Y-105701000D01*
X102212148Y-105597203D01*
X101720598Y-105393596D01*
X101385963Y-105170000D01*
X101278213Y-105098004D01*
X100901996Y-104721787D01*
X100606405Y-104279403D01*
X100606404Y-104279402D01*
X100402797Y-103787852D01*
X100299000Y-103266027D01*
X100299000Y-102733973D01*
X100402797Y-102212148D01*
X100606404Y-101720598D01*
X100704488Y-101573805D01*
X100901996Y-101278213D01*
X101278213Y-100901996D01*
X101720597Y-100606405D01*
X101720598Y-100606404D01*
X102212148Y-100402797D01*
X102733973Y-100299000D01*
X103266027Y-100299000D01*
X103787852Y-100402797D01*
G37*
G36*
X188767938Y-104999716D02*
G01*
X188788557Y-105005971D01*
X188807553Y-105016124D01*
X188824208Y-105029792D01*
X188837876Y-105046447D01*
X188848029Y-105065443D01*
X188854284Y-105086062D01*
X188857000Y-105113640D01*
X188857000Y-105572360D01*
X188854284Y-105599938D01*
X188848029Y-105620557D01*
X188837876Y-105639553D01*
X188824208Y-105656208D01*
X188807553Y-105669876D01*
X188788557Y-105680029D01*
X188767938Y-105686284D01*
X188740360Y-105689000D01*
X188231640Y-105689000D01*
X188204062Y-105686284D01*
X188183443Y-105680029D01*
X188164447Y-105669876D01*
X188147792Y-105656208D01*
X188134124Y-105639553D01*
X188123971Y-105620557D01*
X188117716Y-105599938D01*
X188115000Y-105572360D01*
X188115000Y-105113640D01*
X188117716Y-105086062D01*
X188123971Y-105065443D01*
X188134124Y-105046447D01*
X188147792Y-105029792D01*
X188164447Y-105016124D01*
X188183443Y-105005971D01*
X188204062Y-104999716D01*
X188231640Y-104997000D01*
X188740360Y-104997000D01*
X188767938Y-104999716D01*
G37*
G36*
X119645000Y-105595000D02*
G01*
X118343000Y-105595000D01*
X118343000Y-104293000D01*
X119645000Y-104293000D01*
X119645000Y-105595000D01*
G37*
G36*
X181637938Y-104789716D02*
G01*
X181658557Y-104795971D01*
X181677553Y-104806124D01*
X181694208Y-104819792D01*
X181707876Y-104836447D01*
X181718029Y-104855443D01*
X181724284Y-104876062D01*
X181727000Y-104903640D01*
X181727000Y-105362360D01*
X181724284Y-105389938D01*
X181718029Y-105410557D01*
X181707876Y-105429553D01*
X181694208Y-105446208D01*
X181677553Y-105459876D01*
X181658557Y-105470029D01*
X181637938Y-105476284D01*
X181610360Y-105479000D01*
X181101640Y-105479000D01*
X181074062Y-105476284D01*
X181053443Y-105470029D01*
X181034447Y-105459876D01*
X181017792Y-105446208D01*
X181004124Y-105429553D01*
X180993971Y-105410557D01*
X180987716Y-105389938D01*
X180985000Y-105362360D01*
X180985000Y-104903640D01*
X180987716Y-104876062D01*
X180993971Y-104855443D01*
X181004124Y-104836447D01*
X181017792Y-104819792D01*
X181034447Y-104806124D01*
X181053443Y-104795971D01*
X181074062Y-104789716D01*
X181101640Y-104787000D01*
X181610360Y-104787000D01*
X181637938Y-104789716D01*
G37*
G36*
X184834900Y-105378000D02*
G01*
X183394900Y-105378000D01*
X183394900Y-104638000D01*
X184834900Y-104638000D01*
X184834900Y-105378000D01*
G37*
G36*
X111718797Y-105091280D02*
G01*
X110816797Y-105091280D01*
X110816797Y-104389280D01*
X111718797Y-104389280D01*
X111718797Y-105091280D01*
G37*
G36*
X114068797Y-105066280D02*
G01*
X112966797Y-105066280D01*
X112966797Y-104414280D01*
X114068797Y-104414280D01*
X114068797Y-105066280D01*
G37*
G36*
X116768797Y-105066280D02*
G01*
X115666797Y-105066280D01*
X115666797Y-104414280D01*
X116768797Y-104414280D01*
X116768797Y-105066280D01*
G37*
G36*
X188767938Y-104029716D02*
G01*
X188788557Y-104035971D01*
X188807553Y-104046124D01*
X188824208Y-104059792D01*
X188837876Y-104076447D01*
X188848029Y-104095443D01*
X188854284Y-104116062D01*
X188857000Y-104143640D01*
X188857000Y-104602360D01*
X188854284Y-104629938D01*
X188848029Y-104650557D01*
X188837876Y-104669553D01*
X188824208Y-104686208D01*
X188807553Y-104699876D01*
X188788557Y-104710029D01*
X188767938Y-104716284D01*
X188740360Y-104719000D01*
X188231640Y-104719000D01*
X188204062Y-104716284D01*
X188183443Y-104710029D01*
X188164447Y-104699876D01*
X188147792Y-104686208D01*
X188134124Y-104669553D01*
X188123971Y-104650557D01*
X188117716Y-104629938D01*
X188115000Y-104602360D01*
X188115000Y-104143640D01*
X188117716Y-104116062D01*
X188123971Y-104095443D01*
X188134124Y-104076447D01*
X188147792Y-104059792D01*
X188164447Y-104046124D01*
X188183443Y-104035971D01*
X188204062Y-104029716D01*
X188231640Y-104027000D01*
X188740360Y-104027000D01*
X188767938Y-104029716D01*
G37*
G36*
X181637938Y-103819716D02*
G01*
X181658557Y-103825971D01*
X181677553Y-103836124D01*
X181694208Y-103849792D01*
X181707876Y-103866447D01*
X181718029Y-103885443D01*
X181724284Y-103906062D01*
X181727000Y-103933640D01*
X181727000Y-104392360D01*
X181724284Y-104419938D01*
X181718029Y-104440557D01*
X181707876Y-104459553D01*
X181694208Y-104476208D01*
X181677553Y-104489876D01*
X181658557Y-104500029D01*
X181637938Y-104506284D01*
X181610360Y-104509000D01*
X181101640Y-104509000D01*
X181074062Y-104506284D01*
X181053443Y-104500029D01*
X181034447Y-104489876D01*
X181017792Y-104476208D01*
X181004124Y-104459553D01*
X180993971Y-104440557D01*
X180987716Y-104419938D01*
X180985000Y-104392360D01*
X180985000Y-103933640D01*
X180987716Y-103906062D01*
X180993971Y-103885443D01*
X181004124Y-103866447D01*
X181017792Y-103849792D01*
X181034447Y-103836124D01*
X181053443Y-103825971D01*
X181074062Y-103819716D01*
X181101640Y-103817000D01*
X181610360Y-103817000D01*
X181637938Y-103819716D01*
G37*
G36*
X186934900Y-104428000D02*
G01*
X185494900Y-104428000D01*
X185494900Y-103688000D01*
X186934900Y-103688000D01*
X186934900Y-104428000D01*
G37*
G36*
X116768797Y-104116280D02*
G01*
X115666797Y-104116280D01*
X115666797Y-103464280D01*
X116768797Y-103464280D01*
X116768797Y-104116280D01*
G37*
G36*
X111718797Y-103691280D02*
G01*
X110816797Y-103691280D01*
X110816797Y-102989280D01*
X111718797Y-102989280D01*
X111718797Y-103691280D01*
G37*
G36*
X119645000Y-103495000D02*
G01*
X118343000Y-103495000D01*
X118343000Y-102193000D01*
X119645000Y-102193000D01*
X119645000Y-103495000D01*
G37*
G36*
X184834900Y-103478000D02*
G01*
X183394900Y-103478000D01*
X183394900Y-102738000D01*
X184834900Y-102738000D01*
X184834900Y-103478000D01*
G37*
G36*
X116768797Y-103166280D02*
G01*
X115666797Y-103166280D01*
X115666797Y-102514280D01*
X116768797Y-102514280D01*
X116768797Y-103166280D01*
G37*
G36*
X114068797Y-103166280D02*
G01*
X112966797Y-103166280D01*
X112966797Y-102514280D01*
X114068797Y-102514280D01*
X114068797Y-103166280D01*
G37*
M02*
