G04 #@! TF.GenerationSoftware,KiCad,Pcbnew,5.1.5+dfsg1-2*
G04 #@! TF.CreationDate,2019-11-29T08:26:34+00:00*
G04 #@! TF.ProjectId,OV9281-Dual-Camera-Board,4f563932-3831-42d4-9475-616c2d43616d,rev?*
G04 #@! TF.SameCoordinates,Original*
G04 #@! TF.FileFunction,Paste,Top*
G04 #@! TF.FilePolarity,Positive*
%FSLAX46Y46*%
G04 Gerber Fmt 4.6, Leading zero omitted, Abs format (unit mm)*
G04 Created by KiCad (PCBNEW 5.1.5+dfsg1-2) date 2019-11-29 08:26:34*
%MOMM*%
%LPD*%
G04 APERTURE LIST*
%ADD10R,3.000000X2.500000*%
%ADD11R,2.700000X3.000000*%
%ADD12R,0.300000X1.200000*%
%ADD13C,0.100000*%
%ADD14R,1.000000X0.550000*%
%ADD15R,1.200000X1.200000*%
%ADD16R,0.800000X0.600000*%
%ADD17R,1.300000X0.600000*%
%ADD18R,0.240000X0.900000*%
%ADD19R,0.900000X0.240000*%
%ADD20R,0.250000X0.500000*%
%ADD21R,0.600000X0.800000*%
%ADD22R,1.400000X1.200000*%
G04 APERTURE END LIST*
D10*
X164200000Y-117300000D03*
D11*
X164200000Y-121250000D03*
X135800000Y-121250000D03*
X135800000Y-117550000D03*
D12*
X137750000Y-119400000D03*
X138250000Y-119400000D03*
X138750000Y-119400000D03*
X139250000Y-119400000D03*
X139750000Y-119400000D03*
X140250000Y-119400000D03*
X140750000Y-119400000D03*
X141250000Y-119400000D03*
X141750000Y-119400000D03*
X142250000Y-119400000D03*
X142750000Y-119400000D03*
X143250000Y-119400000D03*
X143750000Y-119400000D03*
X144250000Y-119400000D03*
X144750000Y-119400000D03*
X145250000Y-119400000D03*
X145750000Y-119400000D03*
X146250000Y-119400000D03*
X146750000Y-119400000D03*
X147250000Y-119400000D03*
X147750000Y-119400000D03*
X148250000Y-119400000D03*
X148750000Y-119400000D03*
X149250000Y-119400000D03*
X149750000Y-119400000D03*
X150250000Y-119400000D03*
X150750000Y-119400000D03*
X151250000Y-119400000D03*
X151750000Y-119400000D03*
X152250000Y-119400000D03*
X152750000Y-119400000D03*
X153250000Y-119400000D03*
X153750000Y-119400000D03*
X154250000Y-119400000D03*
X154750000Y-119400000D03*
X155250000Y-119400000D03*
X155750000Y-119400000D03*
X156250000Y-119400000D03*
X156750000Y-119400000D03*
X157250000Y-119400000D03*
X157750000Y-119400000D03*
X158250000Y-119400000D03*
X158750000Y-119400000D03*
X159250000Y-119400000D03*
X159750000Y-119400000D03*
X160250000Y-119400000D03*
X160750000Y-119400000D03*
X161250000Y-119400000D03*
X161750000Y-119400000D03*
X162250000Y-119400000D03*
D13*
G36*
X175346958Y-112090710D02*
G01*
X175361276Y-112092834D01*
X175375317Y-112096351D01*
X175388946Y-112101228D01*
X175402031Y-112107417D01*
X175414447Y-112114858D01*
X175426073Y-112123481D01*
X175436798Y-112133202D01*
X175446519Y-112143927D01*
X175455142Y-112155553D01*
X175462583Y-112167969D01*
X175468772Y-112181054D01*
X175473649Y-112194683D01*
X175477166Y-112208724D01*
X175479290Y-112223042D01*
X175480000Y-112237500D01*
X175480000Y-112582500D01*
X175479290Y-112596958D01*
X175477166Y-112611276D01*
X175473649Y-112625317D01*
X175468772Y-112638946D01*
X175462583Y-112652031D01*
X175455142Y-112664447D01*
X175446519Y-112676073D01*
X175436798Y-112686798D01*
X175426073Y-112696519D01*
X175414447Y-112705142D01*
X175402031Y-112712583D01*
X175388946Y-112718772D01*
X175375317Y-112723649D01*
X175361276Y-112727166D01*
X175346958Y-112729290D01*
X175332500Y-112730000D01*
X175037500Y-112730000D01*
X175023042Y-112729290D01*
X175008724Y-112727166D01*
X174994683Y-112723649D01*
X174981054Y-112718772D01*
X174967969Y-112712583D01*
X174955553Y-112705142D01*
X174943927Y-112696519D01*
X174933202Y-112686798D01*
X174923481Y-112676073D01*
X174914858Y-112664447D01*
X174907417Y-112652031D01*
X174901228Y-112638946D01*
X174896351Y-112625317D01*
X174892834Y-112611276D01*
X174890710Y-112596958D01*
X174890000Y-112582500D01*
X174890000Y-112237500D01*
X174890710Y-112223042D01*
X174892834Y-112208724D01*
X174896351Y-112194683D01*
X174901228Y-112181054D01*
X174907417Y-112167969D01*
X174914858Y-112155553D01*
X174923481Y-112143927D01*
X174933202Y-112133202D01*
X174943927Y-112123481D01*
X174955553Y-112114858D01*
X174967969Y-112107417D01*
X174981054Y-112101228D01*
X174994683Y-112096351D01*
X175008724Y-112092834D01*
X175023042Y-112090710D01*
X175037500Y-112090000D01*
X175332500Y-112090000D01*
X175346958Y-112090710D01*
G37*
G36*
X174376958Y-112090710D02*
G01*
X174391276Y-112092834D01*
X174405317Y-112096351D01*
X174418946Y-112101228D01*
X174432031Y-112107417D01*
X174444447Y-112114858D01*
X174456073Y-112123481D01*
X174466798Y-112133202D01*
X174476519Y-112143927D01*
X174485142Y-112155553D01*
X174492583Y-112167969D01*
X174498772Y-112181054D01*
X174503649Y-112194683D01*
X174507166Y-112208724D01*
X174509290Y-112223042D01*
X174510000Y-112237500D01*
X174510000Y-112582500D01*
X174509290Y-112596958D01*
X174507166Y-112611276D01*
X174503649Y-112625317D01*
X174498772Y-112638946D01*
X174492583Y-112652031D01*
X174485142Y-112664447D01*
X174476519Y-112676073D01*
X174466798Y-112686798D01*
X174456073Y-112696519D01*
X174444447Y-112705142D01*
X174432031Y-112712583D01*
X174418946Y-112718772D01*
X174405317Y-112723649D01*
X174391276Y-112727166D01*
X174376958Y-112729290D01*
X174362500Y-112730000D01*
X174067500Y-112730000D01*
X174053042Y-112729290D01*
X174038724Y-112727166D01*
X174024683Y-112723649D01*
X174011054Y-112718772D01*
X173997969Y-112712583D01*
X173985553Y-112705142D01*
X173973927Y-112696519D01*
X173963202Y-112686798D01*
X173953481Y-112676073D01*
X173944858Y-112664447D01*
X173937417Y-112652031D01*
X173931228Y-112638946D01*
X173926351Y-112625317D01*
X173922834Y-112611276D01*
X173920710Y-112596958D01*
X173920000Y-112582500D01*
X173920000Y-112237500D01*
X173920710Y-112223042D01*
X173922834Y-112208724D01*
X173926351Y-112194683D01*
X173931228Y-112181054D01*
X173937417Y-112167969D01*
X173944858Y-112155553D01*
X173953481Y-112143927D01*
X173963202Y-112133202D01*
X173973927Y-112123481D01*
X173985553Y-112114858D01*
X173997969Y-112107417D01*
X174011054Y-112101228D01*
X174024683Y-112096351D01*
X174038724Y-112092834D01*
X174053042Y-112090710D01*
X174067500Y-112090000D01*
X174362500Y-112090000D01*
X174376958Y-112090710D01*
G37*
G36*
X124576958Y-115340710D02*
G01*
X124591276Y-115342834D01*
X124605317Y-115346351D01*
X124618946Y-115351228D01*
X124632031Y-115357417D01*
X124644447Y-115364858D01*
X124656073Y-115373481D01*
X124666798Y-115383202D01*
X124676519Y-115393927D01*
X124685142Y-115405553D01*
X124692583Y-115417969D01*
X124698772Y-115431054D01*
X124703649Y-115444683D01*
X124707166Y-115458724D01*
X124709290Y-115473042D01*
X124710000Y-115487500D01*
X124710000Y-115832500D01*
X124709290Y-115846958D01*
X124707166Y-115861276D01*
X124703649Y-115875317D01*
X124698772Y-115888946D01*
X124692583Y-115902031D01*
X124685142Y-115914447D01*
X124676519Y-115926073D01*
X124666798Y-115936798D01*
X124656073Y-115946519D01*
X124644447Y-115955142D01*
X124632031Y-115962583D01*
X124618946Y-115968772D01*
X124605317Y-115973649D01*
X124591276Y-115977166D01*
X124576958Y-115979290D01*
X124562500Y-115980000D01*
X124267500Y-115980000D01*
X124253042Y-115979290D01*
X124238724Y-115977166D01*
X124224683Y-115973649D01*
X124211054Y-115968772D01*
X124197969Y-115962583D01*
X124185553Y-115955142D01*
X124173927Y-115946519D01*
X124163202Y-115936798D01*
X124153481Y-115926073D01*
X124144858Y-115914447D01*
X124137417Y-115902031D01*
X124131228Y-115888946D01*
X124126351Y-115875317D01*
X124122834Y-115861276D01*
X124120710Y-115846958D01*
X124120000Y-115832500D01*
X124120000Y-115487500D01*
X124120710Y-115473042D01*
X124122834Y-115458724D01*
X124126351Y-115444683D01*
X124131228Y-115431054D01*
X124137417Y-115417969D01*
X124144858Y-115405553D01*
X124153481Y-115393927D01*
X124163202Y-115383202D01*
X124173927Y-115373481D01*
X124185553Y-115364858D01*
X124197969Y-115357417D01*
X124211054Y-115351228D01*
X124224683Y-115346351D01*
X124238724Y-115342834D01*
X124253042Y-115340710D01*
X124267500Y-115340000D01*
X124562500Y-115340000D01*
X124576958Y-115340710D01*
G37*
G36*
X123606958Y-115340710D02*
G01*
X123621276Y-115342834D01*
X123635317Y-115346351D01*
X123648946Y-115351228D01*
X123662031Y-115357417D01*
X123674447Y-115364858D01*
X123686073Y-115373481D01*
X123696798Y-115383202D01*
X123706519Y-115393927D01*
X123715142Y-115405553D01*
X123722583Y-115417969D01*
X123728772Y-115431054D01*
X123733649Y-115444683D01*
X123737166Y-115458724D01*
X123739290Y-115473042D01*
X123740000Y-115487500D01*
X123740000Y-115832500D01*
X123739290Y-115846958D01*
X123737166Y-115861276D01*
X123733649Y-115875317D01*
X123728772Y-115888946D01*
X123722583Y-115902031D01*
X123715142Y-115914447D01*
X123706519Y-115926073D01*
X123696798Y-115936798D01*
X123686073Y-115946519D01*
X123674447Y-115955142D01*
X123662031Y-115962583D01*
X123648946Y-115968772D01*
X123635317Y-115973649D01*
X123621276Y-115977166D01*
X123606958Y-115979290D01*
X123592500Y-115980000D01*
X123297500Y-115980000D01*
X123283042Y-115979290D01*
X123268724Y-115977166D01*
X123254683Y-115973649D01*
X123241054Y-115968772D01*
X123227969Y-115962583D01*
X123215553Y-115955142D01*
X123203927Y-115946519D01*
X123193202Y-115936798D01*
X123183481Y-115926073D01*
X123174858Y-115914447D01*
X123167417Y-115902031D01*
X123161228Y-115888946D01*
X123156351Y-115875317D01*
X123152834Y-115861276D01*
X123150710Y-115846958D01*
X123150000Y-115832500D01*
X123150000Y-115487500D01*
X123150710Y-115473042D01*
X123152834Y-115458724D01*
X123156351Y-115444683D01*
X123161228Y-115431054D01*
X123167417Y-115417969D01*
X123174858Y-115405553D01*
X123183481Y-115393927D01*
X123193202Y-115383202D01*
X123203927Y-115373481D01*
X123215553Y-115364858D01*
X123227969Y-115357417D01*
X123241054Y-115351228D01*
X123254683Y-115346351D01*
X123268724Y-115342834D01*
X123283042Y-115340710D01*
X123297500Y-115340000D01*
X123592500Y-115340000D01*
X123606958Y-115340710D01*
G37*
G36*
X124586958Y-116480710D02*
G01*
X124601276Y-116482834D01*
X124615317Y-116486351D01*
X124628946Y-116491228D01*
X124642031Y-116497417D01*
X124654447Y-116504858D01*
X124666073Y-116513481D01*
X124676798Y-116523202D01*
X124686519Y-116533927D01*
X124695142Y-116545553D01*
X124702583Y-116557969D01*
X124708772Y-116571054D01*
X124713649Y-116584683D01*
X124717166Y-116598724D01*
X124719290Y-116613042D01*
X124720000Y-116627500D01*
X124720000Y-116972500D01*
X124719290Y-116986958D01*
X124717166Y-117001276D01*
X124713649Y-117015317D01*
X124708772Y-117028946D01*
X124702583Y-117042031D01*
X124695142Y-117054447D01*
X124686519Y-117066073D01*
X124676798Y-117076798D01*
X124666073Y-117086519D01*
X124654447Y-117095142D01*
X124642031Y-117102583D01*
X124628946Y-117108772D01*
X124615317Y-117113649D01*
X124601276Y-117117166D01*
X124586958Y-117119290D01*
X124572500Y-117120000D01*
X124277500Y-117120000D01*
X124263042Y-117119290D01*
X124248724Y-117117166D01*
X124234683Y-117113649D01*
X124221054Y-117108772D01*
X124207969Y-117102583D01*
X124195553Y-117095142D01*
X124183927Y-117086519D01*
X124173202Y-117076798D01*
X124163481Y-117066073D01*
X124154858Y-117054447D01*
X124147417Y-117042031D01*
X124141228Y-117028946D01*
X124136351Y-117015317D01*
X124132834Y-117001276D01*
X124130710Y-116986958D01*
X124130000Y-116972500D01*
X124130000Y-116627500D01*
X124130710Y-116613042D01*
X124132834Y-116598724D01*
X124136351Y-116584683D01*
X124141228Y-116571054D01*
X124147417Y-116557969D01*
X124154858Y-116545553D01*
X124163481Y-116533927D01*
X124173202Y-116523202D01*
X124183927Y-116513481D01*
X124195553Y-116504858D01*
X124207969Y-116497417D01*
X124221054Y-116491228D01*
X124234683Y-116486351D01*
X124248724Y-116482834D01*
X124263042Y-116480710D01*
X124277500Y-116480000D01*
X124572500Y-116480000D01*
X124586958Y-116480710D01*
G37*
G36*
X123616958Y-116480710D02*
G01*
X123631276Y-116482834D01*
X123645317Y-116486351D01*
X123658946Y-116491228D01*
X123672031Y-116497417D01*
X123684447Y-116504858D01*
X123696073Y-116513481D01*
X123706798Y-116523202D01*
X123716519Y-116533927D01*
X123725142Y-116545553D01*
X123732583Y-116557969D01*
X123738772Y-116571054D01*
X123743649Y-116584683D01*
X123747166Y-116598724D01*
X123749290Y-116613042D01*
X123750000Y-116627500D01*
X123750000Y-116972500D01*
X123749290Y-116986958D01*
X123747166Y-117001276D01*
X123743649Y-117015317D01*
X123738772Y-117028946D01*
X123732583Y-117042031D01*
X123725142Y-117054447D01*
X123716519Y-117066073D01*
X123706798Y-117076798D01*
X123696073Y-117086519D01*
X123684447Y-117095142D01*
X123672031Y-117102583D01*
X123658946Y-117108772D01*
X123645317Y-117113649D01*
X123631276Y-117117166D01*
X123616958Y-117119290D01*
X123602500Y-117120000D01*
X123307500Y-117120000D01*
X123293042Y-117119290D01*
X123278724Y-117117166D01*
X123264683Y-117113649D01*
X123251054Y-117108772D01*
X123237969Y-117102583D01*
X123225553Y-117095142D01*
X123213927Y-117086519D01*
X123203202Y-117076798D01*
X123193481Y-117066073D01*
X123184858Y-117054447D01*
X123177417Y-117042031D01*
X123171228Y-117028946D01*
X123166351Y-117015317D01*
X123162834Y-117001276D01*
X123160710Y-116986958D01*
X123160000Y-116972500D01*
X123160000Y-116627500D01*
X123160710Y-116613042D01*
X123162834Y-116598724D01*
X123166351Y-116584683D01*
X123171228Y-116571054D01*
X123177417Y-116557969D01*
X123184858Y-116545553D01*
X123193481Y-116533927D01*
X123203202Y-116523202D01*
X123213927Y-116513481D01*
X123225553Y-116504858D01*
X123237969Y-116497417D01*
X123251054Y-116491228D01*
X123264683Y-116486351D01*
X123278724Y-116482834D01*
X123293042Y-116480710D01*
X123307500Y-116480000D01*
X123602500Y-116480000D01*
X123616958Y-116480710D01*
G37*
D14*
X112656000Y-122924000D03*
X112656000Y-121024000D03*
X115356000Y-122924000D03*
X115356000Y-121974000D03*
X115356000Y-121024000D03*
D15*
X187878000Y-122640000D03*
X187878000Y-120540000D03*
X117656000Y-121024000D03*
X117656000Y-123124000D03*
X118994000Y-102844000D03*
X118994000Y-104944000D03*
D16*
X180728000Y-122640000D03*
X180728000Y-121240000D03*
X111267797Y-104740280D03*
X111267797Y-103340280D03*
X109956000Y-122924000D03*
X109956000Y-121524000D03*
D14*
X182678000Y-122640000D03*
X182678000Y-120740000D03*
X185378000Y-122640000D03*
X185378000Y-121690000D03*
X185378000Y-120740000D03*
D13*
G36*
X128959957Y-116862461D02*
G01*
X128974275Y-116864585D01*
X128988316Y-116868102D01*
X129001945Y-116872979D01*
X129015030Y-116879168D01*
X129027446Y-116886609D01*
X129039072Y-116895232D01*
X129049797Y-116904953D01*
X129059518Y-116915678D01*
X129068141Y-116927304D01*
X129075582Y-116939720D01*
X129081771Y-116952805D01*
X129086648Y-116966434D01*
X129090165Y-116980475D01*
X129092289Y-116994793D01*
X129092999Y-117009251D01*
X129092999Y-117354251D01*
X129092289Y-117368709D01*
X129090165Y-117383027D01*
X129086648Y-117397068D01*
X129081771Y-117410697D01*
X129075582Y-117423782D01*
X129068141Y-117436198D01*
X129059518Y-117447824D01*
X129049797Y-117458549D01*
X129039072Y-117468270D01*
X129027446Y-117476893D01*
X129015030Y-117484334D01*
X129001945Y-117490523D01*
X128988316Y-117495400D01*
X128974275Y-117498917D01*
X128959957Y-117501041D01*
X128945499Y-117501751D01*
X128650499Y-117501751D01*
X128636041Y-117501041D01*
X128621723Y-117498917D01*
X128607682Y-117495400D01*
X128594053Y-117490523D01*
X128580968Y-117484334D01*
X128568552Y-117476893D01*
X128556926Y-117468270D01*
X128546201Y-117458549D01*
X128536480Y-117447824D01*
X128527857Y-117436198D01*
X128520416Y-117423782D01*
X128514227Y-117410697D01*
X128509350Y-117397068D01*
X128505833Y-117383027D01*
X128503709Y-117368709D01*
X128502999Y-117354251D01*
X128502999Y-117009251D01*
X128503709Y-116994793D01*
X128505833Y-116980475D01*
X128509350Y-116966434D01*
X128514227Y-116952805D01*
X128520416Y-116939720D01*
X128527857Y-116927304D01*
X128536480Y-116915678D01*
X128546201Y-116904953D01*
X128556926Y-116895232D01*
X128568552Y-116886609D01*
X128580968Y-116879168D01*
X128594053Y-116872979D01*
X128607682Y-116868102D01*
X128621723Y-116864585D01*
X128636041Y-116862461D01*
X128650499Y-116861751D01*
X128945499Y-116861751D01*
X128959957Y-116862461D01*
G37*
G36*
X127989957Y-116862461D02*
G01*
X128004275Y-116864585D01*
X128018316Y-116868102D01*
X128031945Y-116872979D01*
X128045030Y-116879168D01*
X128057446Y-116886609D01*
X128069072Y-116895232D01*
X128079797Y-116904953D01*
X128089518Y-116915678D01*
X128098141Y-116927304D01*
X128105582Y-116939720D01*
X128111771Y-116952805D01*
X128116648Y-116966434D01*
X128120165Y-116980475D01*
X128122289Y-116994793D01*
X128122999Y-117009251D01*
X128122999Y-117354251D01*
X128122289Y-117368709D01*
X128120165Y-117383027D01*
X128116648Y-117397068D01*
X128111771Y-117410697D01*
X128105582Y-117423782D01*
X128098141Y-117436198D01*
X128089518Y-117447824D01*
X128079797Y-117458549D01*
X128069072Y-117468270D01*
X128057446Y-117476893D01*
X128045030Y-117484334D01*
X128031945Y-117490523D01*
X128018316Y-117495400D01*
X128004275Y-117498917D01*
X127989957Y-117501041D01*
X127975499Y-117501751D01*
X127680499Y-117501751D01*
X127666041Y-117501041D01*
X127651723Y-117498917D01*
X127637682Y-117495400D01*
X127624053Y-117490523D01*
X127610968Y-117484334D01*
X127598552Y-117476893D01*
X127586926Y-117468270D01*
X127576201Y-117458549D01*
X127566480Y-117447824D01*
X127557857Y-117436198D01*
X127550416Y-117423782D01*
X127544227Y-117410697D01*
X127539350Y-117397068D01*
X127535833Y-117383027D01*
X127533709Y-117368709D01*
X127532999Y-117354251D01*
X127532999Y-117009251D01*
X127533709Y-116994793D01*
X127535833Y-116980475D01*
X127539350Y-116966434D01*
X127544227Y-116952805D01*
X127550416Y-116939720D01*
X127557857Y-116927304D01*
X127566480Y-116915678D01*
X127576201Y-116904953D01*
X127586926Y-116895232D01*
X127598552Y-116886609D01*
X127610968Y-116879168D01*
X127624053Y-116872979D01*
X127637682Y-116868102D01*
X127651723Y-116864585D01*
X127666041Y-116862461D01*
X127680499Y-116861751D01*
X127975499Y-116861751D01*
X127989957Y-116862461D01*
G37*
G36*
X128959957Y-118474211D02*
G01*
X128974275Y-118476335D01*
X128988316Y-118479852D01*
X129001945Y-118484729D01*
X129015030Y-118490918D01*
X129027446Y-118498359D01*
X129039072Y-118506982D01*
X129049797Y-118516703D01*
X129059518Y-118527428D01*
X129068141Y-118539054D01*
X129075582Y-118551470D01*
X129081771Y-118564555D01*
X129086648Y-118578184D01*
X129090165Y-118592225D01*
X129092289Y-118606543D01*
X129092999Y-118621001D01*
X129092999Y-118966001D01*
X129092289Y-118980459D01*
X129090165Y-118994777D01*
X129086648Y-119008818D01*
X129081771Y-119022447D01*
X129075582Y-119035532D01*
X129068141Y-119047948D01*
X129059518Y-119059574D01*
X129049797Y-119070299D01*
X129039072Y-119080020D01*
X129027446Y-119088643D01*
X129015030Y-119096084D01*
X129001945Y-119102273D01*
X128988316Y-119107150D01*
X128974275Y-119110667D01*
X128959957Y-119112791D01*
X128945499Y-119113501D01*
X128650499Y-119113501D01*
X128636041Y-119112791D01*
X128621723Y-119110667D01*
X128607682Y-119107150D01*
X128594053Y-119102273D01*
X128580968Y-119096084D01*
X128568552Y-119088643D01*
X128556926Y-119080020D01*
X128546201Y-119070299D01*
X128536480Y-119059574D01*
X128527857Y-119047948D01*
X128520416Y-119035532D01*
X128514227Y-119022447D01*
X128509350Y-119008818D01*
X128505833Y-118994777D01*
X128503709Y-118980459D01*
X128502999Y-118966001D01*
X128502999Y-118621001D01*
X128503709Y-118606543D01*
X128505833Y-118592225D01*
X128509350Y-118578184D01*
X128514227Y-118564555D01*
X128520416Y-118551470D01*
X128527857Y-118539054D01*
X128536480Y-118527428D01*
X128546201Y-118516703D01*
X128556926Y-118506982D01*
X128568552Y-118498359D01*
X128580968Y-118490918D01*
X128594053Y-118484729D01*
X128607682Y-118479852D01*
X128621723Y-118476335D01*
X128636041Y-118474211D01*
X128650499Y-118473501D01*
X128945499Y-118473501D01*
X128959957Y-118474211D01*
G37*
G36*
X127989957Y-118474211D02*
G01*
X128004275Y-118476335D01*
X128018316Y-118479852D01*
X128031945Y-118484729D01*
X128045030Y-118490918D01*
X128057446Y-118498359D01*
X128069072Y-118506982D01*
X128079797Y-118516703D01*
X128089518Y-118527428D01*
X128098141Y-118539054D01*
X128105582Y-118551470D01*
X128111771Y-118564555D01*
X128116648Y-118578184D01*
X128120165Y-118592225D01*
X128122289Y-118606543D01*
X128122999Y-118621001D01*
X128122999Y-118966001D01*
X128122289Y-118980459D01*
X128120165Y-118994777D01*
X128116648Y-119008818D01*
X128111771Y-119022447D01*
X128105582Y-119035532D01*
X128098141Y-119047948D01*
X128089518Y-119059574D01*
X128079797Y-119070299D01*
X128069072Y-119080020D01*
X128057446Y-119088643D01*
X128045030Y-119096084D01*
X128031945Y-119102273D01*
X128018316Y-119107150D01*
X128004275Y-119110667D01*
X127989957Y-119112791D01*
X127975499Y-119113501D01*
X127680499Y-119113501D01*
X127666041Y-119112791D01*
X127651723Y-119110667D01*
X127637682Y-119107150D01*
X127624053Y-119102273D01*
X127610968Y-119096084D01*
X127598552Y-119088643D01*
X127586926Y-119080020D01*
X127576201Y-119070299D01*
X127566480Y-119059574D01*
X127557857Y-119047948D01*
X127550416Y-119035532D01*
X127544227Y-119022447D01*
X127539350Y-119008818D01*
X127535833Y-118994777D01*
X127533709Y-118980459D01*
X127532999Y-118966001D01*
X127532999Y-118621001D01*
X127533709Y-118606543D01*
X127535833Y-118592225D01*
X127539350Y-118578184D01*
X127544227Y-118564555D01*
X127550416Y-118551470D01*
X127557857Y-118539054D01*
X127566480Y-118527428D01*
X127576201Y-118516703D01*
X127586926Y-118506982D01*
X127598552Y-118498359D01*
X127610968Y-118490918D01*
X127624053Y-118484729D01*
X127637682Y-118479852D01*
X127651723Y-118476335D01*
X127666041Y-118474211D01*
X127680499Y-118473501D01*
X127975499Y-118473501D01*
X127989957Y-118474211D01*
G37*
G36*
X128959957Y-120085961D02*
G01*
X128974275Y-120088085D01*
X128988316Y-120091602D01*
X129001945Y-120096479D01*
X129015030Y-120102668D01*
X129027446Y-120110109D01*
X129039072Y-120118732D01*
X129049797Y-120128453D01*
X129059518Y-120139178D01*
X129068141Y-120150804D01*
X129075582Y-120163220D01*
X129081771Y-120176305D01*
X129086648Y-120189934D01*
X129090165Y-120203975D01*
X129092289Y-120218293D01*
X129092999Y-120232751D01*
X129092999Y-120577751D01*
X129092289Y-120592209D01*
X129090165Y-120606527D01*
X129086648Y-120620568D01*
X129081771Y-120634197D01*
X129075582Y-120647282D01*
X129068141Y-120659698D01*
X129059518Y-120671324D01*
X129049797Y-120682049D01*
X129039072Y-120691770D01*
X129027446Y-120700393D01*
X129015030Y-120707834D01*
X129001945Y-120714023D01*
X128988316Y-120718900D01*
X128974275Y-120722417D01*
X128959957Y-120724541D01*
X128945499Y-120725251D01*
X128650499Y-120725251D01*
X128636041Y-120724541D01*
X128621723Y-120722417D01*
X128607682Y-120718900D01*
X128594053Y-120714023D01*
X128580968Y-120707834D01*
X128568552Y-120700393D01*
X128556926Y-120691770D01*
X128546201Y-120682049D01*
X128536480Y-120671324D01*
X128527857Y-120659698D01*
X128520416Y-120647282D01*
X128514227Y-120634197D01*
X128509350Y-120620568D01*
X128505833Y-120606527D01*
X128503709Y-120592209D01*
X128502999Y-120577751D01*
X128502999Y-120232751D01*
X128503709Y-120218293D01*
X128505833Y-120203975D01*
X128509350Y-120189934D01*
X128514227Y-120176305D01*
X128520416Y-120163220D01*
X128527857Y-120150804D01*
X128536480Y-120139178D01*
X128546201Y-120128453D01*
X128556926Y-120118732D01*
X128568552Y-120110109D01*
X128580968Y-120102668D01*
X128594053Y-120096479D01*
X128607682Y-120091602D01*
X128621723Y-120088085D01*
X128636041Y-120085961D01*
X128650499Y-120085251D01*
X128945499Y-120085251D01*
X128959957Y-120085961D01*
G37*
G36*
X127989957Y-120085961D02*
G01*
X128004275Y-120088085D01*
X128018316Y-120091602D01*
X128031945Y-120096479D01*
X128045030Y-120102668D01*
X128057446Y-120110109D01*
X128069072Y-120118732D01*
X128079797Y-120128453D01*
X128089518Y-120139178D01*
X128098141Y-120150804D01*
X128105582Y-120163220D01*
X128111771Y-120176305D01*
X128116648Y-120189934D01*
X128120165Y-120203975D01*
X128122289Y-120218293D01*
X128122999Y-120232751D01*
X128122999Y-120577751D01*
X128122289Y-120592209D01*
X128120165Y-120606527D01*
X128116648Y-120620568D01*
X128111771Y-120634197D01*
X128105582Y-120647282D01*
X128098141Y-120659698D01*
X128089518Y-120671324D01*
X128079797Y-120682049D01*
X128069072Y-120691770D01*
X128057446Y-120700393D01*
X128045030Y-120707834D01*
X128031945Y-120714023D01*
X128018316Y-120718900D01*
X128004275Y-120722417D01*
X127989957Y-120724541D01*
X127975499Y-120725251D01*
X127680499Y-120725251D01*
X127666041Y-120724541D01*
X127651723Y-120722417D01*
X127637682Y-120718900D01*
X127624053Y-120714023D01*
X127610968Y-120707834D01*
X127598552Y-120700393D01*
X127586926Y-120691770D01*
X127576201Y-120682049D01*
X127566480Y-120671324D01*
X127557857Y-120659698D01*
X127550416Y-120647282D01*
X127544227Y-120634197D01*
X127539350Y-120620568D01*
X127535833Y-120606527D01*
X127533709Y-120592209D01*
X127532999Y-120577751D01*
X127532999Y-120232751D01*
X127533709Y-120218293D01*
X127535833Y-120203975D01*
X127539350Y-120189934D01*
X127544227Y-120176305D01*
X127550416Y-120163220D01*
X127557857Y-120150804D01*
X127566480Y-120139178D01*
X127576201Y-120128453D01*
X127586926Y-120118732D01*
X127598552Y-120110109D01*
X127610968Y-120102668D01*
X127624053Y-120096479D01*
X127637682Y-120091602D01*
X127651723Y-120088085D01*
X127666041Y-120085961D01*
X127680499Y-120085251D01*
X127975499Y-120085251D01*
X127989957Y-120085961D01*
G37*
G36*
X128959957Y-121697711D02*
G01*
X128974275Y-121699835D01*
X128988316Y-121703352D01*
X129001945Y-121708229D01*
X129015030Y-121714418D01*
X129027446Y-121721859D01*
X129039072Y-121730482D01*
X129049797Y-121740203D01*
X129059518Y-121750928D01*
X129068141Y-121762554D01*
X129075582Y-121774970D01*
X129081771Y-121788055D01*
X129086648Y-121801684D01*
X129090165Y-121815725D01*
X129092289Y-121830043D01*
X129092999Y-121844501D01*
X129092999Y-122189501D01*
X129092289Y-122203959D01*
X129090165Y-122218277D01*
X129086648Y-122232318D01*
X129081771Y-122245947D01*
X129075582Y-122259032D01*
X129068141Y-122271448D01*
X129059518Y-122283074D01*
X129049797Y-122293799D01*
X129039072Y-122303520D01*
X129027446Y-122312143D01*
X129015030Y-122319584D01*
X129001945Y-122325773D01*
X128988316Y-122330650D01*
X128974275Y-122334167D01*
X128959957Y-122336291D01*
X128945499Y-122337001D01*
X128650499Y-122337001D01*
X128636041Y-122336291D01*
X128621723Y-122334167D01*
X128607682Y-122330650D01*
X128594053Y-122325773D01*
X128580968Y-122319584D01*
X128568552Y-122312143D01*
X128556926Y-122303520D01*
X128546201Y-122293799D01*
X128536480Y-122283074D01*
X128527857Y-122271448D01*
X128520416Y-122259032D01*
X128514227Y-122245947D01*
X128509350Y-122232318D01*
X128505833Y-122218277D01*
X128503709Y-122203959D01*
X128502999Y-122189501D01*
X128502999Y-121844501D01*
X128503709Y-121830043D01*
X128505833Y-121815725D01*
X128509350Y-121801684D01*
X128514227Y-121788055D01*
X128520416Y-121774970D01*
X128527857Y-121762554D01*
X128536480Y-121750928D01*
X128546201Y-121740203D01*
X128556926Y-121730482D01*
X128568552Y-121721859D01*
X128580968Y-121714418D01*
X128594053Y-121708229D01*
X128607682Y-121703352D01*
X128621723Y-121699835D01*
X128636041Y-121697711D01*
X128650499Y-121697001D01*
X128945499Y-121697001D01*
X128959957Y-121697711D01*
G37*
G36*
X127989957Y-121697711D02*
G01*
X128004275Y-121699835D01*
X128018316Y-121703352D01*
X128031945Y-121708229D01*
X128045030Y-121714418D01*
X128057446Y-121721859D01*
X128069072Y-121730482D01*
X128079797Y-121740203D01*
X128089518Y-121750928D01*
X128098141Y-121762554D01*
X128105582Y-121774970D01*
X128111771Y-121788055D01*
X128116648Y-121801684D01*
X128120165Y-121815725D01*
X128122289Y-121830043D01*
X128122999Y-121844501D01*
X128122999Y-122189501D01*
X128122289Y-122203959D01*
X128120165Y-122218277D01*
X128116648Y-122232318D01*
X128111771Y-122245947D01*
X128105582Y-122259032D01*
X128098141Y-122271448D01*
X128089518Y-122283074D01*
X128079797Y-122293799D01*
X128069072Y-122303520D01*
X128057446Y-122312143D01*
X128045030Y-122319584D01*
X128031945Y-122325773D01*
X128018316Y-122330650D01*
X128004275Y-122334167D01*
X127989957Y-122336291D01*
X127975499Y-122337001D01*
X127680499Y-122337001D01*
X127666041Y-122336291D01*
X127651723Y-122334167D01*
X127637682Y-122330650D01*
X127624053Y-122325773D01*
X127610968Y-122319584D01*
X127598552Y-122312143D01*
X127586926Y-122303520D01*
X127576201Y-122293799D01*
X127566480Y-122283074D01*
X127557857Y-122271448D01*
X127550416Y-122259032D01*
X127544227Y-122245947D01*
X127539350Y-122232318D01*
X127535833Y-122218277D01*
X127533709Y-122203959D01*
X127532999Y-122189501D01*
X127532999Y-121844501D01*
X127533709Y-121830043D01*
X127535833Y-121815725D01*
X127539350Y-121801684D01*
X127544227Y-121788055D01*
X127550416Y-121774970D01*
X127557857Y-121762554D01*
X127566480Y-121750928D01*
X127576201Y-121740203D01*
X127586926Y-121730482D01*
X127598552Y-121721859D01*
X127610968Y-121714418D01*
X127624053Y-121708229D01*
X127637682Y-121703352D01*
X127651723Y-121699835D01*
X127666041Y-121697711D01*
X127680499Y-121697001D01*
X127975499Y-121697001D01*
X127989957Y-121697711D01*
G37*
G36*
X128916958Y-123124710D02*
G01*
X128931276Y-123126834D01*
X128945317Y-123130351D01*
X128958946Y-123135228D01*
X128972031Y-123141417D01*
X128984447Y-123148858D01*
X128996073Y-123157481D01*
X129006798Y-123167202D01*
X129016519Y-123177927D01*
X129025142Y-123189553D01*
X129032583Y-123201969D01*
X129038772Y-123215054D01*
X129043649Y-123228683D01*
X129047166Y-123242724D01*
X129049290Y-123257042D01*
X129050000Y-123271500D01*
X129050000Y-123616500D01*
X129049290Y-123630958D01*
X129047166Y-123645276D01*
X129043649Y-123659317D01*
X129038772Y-123672946D01*
X129032583Y-123686031D01*
X129025142Y-123698447D01*
X129016519Y-123710073D01*
X129006798Y-123720798D01*
X128996073Y-123730519D01*
X128984447Y-123739142D01*
X128972031Y-123746583D01*
X128958946Y-123752772D01*
X128945317Y-123757649D01*
X128931276Y-123761166D01*
X128916958Y-123763290D01*
X128902500Y-123764000D01*
X128607500Y-123764000D01*
X128593042Y-123763290D01*
X128578724Y-123761166D01*
X128564683Y-123757649D01*
X128551054Y-123752772D01*
X128537969Y-123746583D01*
X128525553Y-123739142D01*
X128513927Y-123730519D01*
X128503202Y-123720798D01*
X128493481Y-123710073D01*
X128484858Y-123698447D01*
X128477417Y-123686031D01*
X128471228Y-123672946D01*
X128466351Y-123659317D01*
X128462834Y-123645276D01*
X128460710Y-123630958D01*
X128460000Y-123616500D01*
X128460000Y-123271500D01*
X128460710Y-123257042D01*
X128462834Y-123242724D01*
X128466351Y-123228683D01*
X128471228Y-123215054D01*
X128477417Y-123201969D01*
X128484858Y-123189553D01*
X128493481Y-123177927D01*
X128503202Y-123167202D01*
X128513927Y-123157481D01*
X128525553Y-123148858D01*
X128537969Y-123141417D01*
X128551054Y-123135228D01*
X128564683Y-123130351D01*
X128578724Y-123126834D01*
X128593042Y-123124710D01*
X128607500Y-123124000D01*
X128902500Y-123124000D01*
X128916958Y-123124710D01*
G37*
G36*
X127946958Y-123124710D02*
G01*
X127961276Y-123126834D01*
X127975317Y-123130351D01*
X127988946Y-123135228D01*
X128002031Y-123141417D01*
X128014447Y-123148858D01*
X128026073Y-123157481D01*
X128036798Y-123167202D01*
X128046519Y-123177927D01*
X128055142Y-123189553D01*
X128062583Y-123201969D01*
X128068772Y-123215054D01*
X128073649Y-123228683D01*
X128077166Y-123242724D01*
X128079290Y-123257042D01*
X128080000Y-123271500D01*
X128080000Y-123616500D01*
X128079290Y-123630958D01*
X128077166Y-123645276D01*
X128073649Y-123659317D01*
X128068772Y-123672946D01*
X128062583Y-123686031D01*
X128055142Y-123698447D01*
X128046519Y-123710073D01*
X128036798Y-123720798D01*
X128026073Y-123730519D01*
X128014447Y-123739142D01*
X128002031Y-123746583D01*
X127988946Y-123752772D01*
X127975317Y-123757649D01*
X127961276Y-123761166D01*
X127946958Y-123763290D01*
X127932500Y-123764000D01*
X127637500Y-123764000D01*
X127623042Y-123763290D01*
X127608724Y-123761166D01*
X127594683Y-123757649D01*
X127581054Y-123752772D01*
X127567969Y-123746583D01*
X127555553Y-123739142D01*
X127543927Y-123730519D01*
X127533202Y-123720798D01*
X127523481Y-123710073D01*
X127514858Y-123698447D01*
X127507417Y-123686031D01*
X127501228Y-123672946D01*
X127496351Y-123659317D01*
X127492834Y-123645276D01*
X127490710Y-123630958D01*
X127490000Y-123616500D01*
X127490000Y-123271500D01*
X127490710Y-123257042D01*
X127492834Y-123242724D01*
X127496351Y-123228683D01*
X127501228Y-123215054D01*
X127507417Y-123201969D01*
X127514858Y-123189553D01*
X127523481Y-123177927D01*
X127533202Y-123167202D01*
X127543927Y-123157481D01*
X127555553Y-123148858D01*
X127567969Y-123141417D01*
X127581054Y-123135228D01*
X127594683Y-123130351D01*
X127608724Y-123126834D01*
X127623042Y-123124710D01*
X127637500Y-123124000D01*
X127932500Y-123124000D01*
X127946958Y-123124710D01*
G37*
D17*
X186214900Y-104058000D03*
X184114900Y-105008000D03*
X184114900Y-103108000D03*
D18*
X168552500Y-113336000D03*
X168052500Y-113336000D03*
D19*
X166902500Y-112786000D03*
X166902500Y-112286000D03*
X166902500Y-111786000D03*
X166902500Y-111286000D03*
X166902500Y-110786000D03*
D18*
X168052500Y-110236000D03*
X168552500Y-110236000D03*
D19*
X169702500Y-110786000D03*
X169702500Y-111286000D03*
X169702500Y-111786000D03*
X169702500Y-112286000D03*
X169702500Y-112786000D03*
D20*
X168527500Y-112136000D03*
X168077500Y-112136000D03*
X168527500Y-111436000D03*
X168077500Y-111436000D03*
X128585000Y-111600000D03*
X128135000Y-111600000D03*
X128585000Y-110900000D03*
X128135000Y-110900000D03*
D19*
X126960000Y-110250000D03*
X126960000Y-110750000D03*
X126960000Y-111250000D03*
X126960000Y-111750000D03*
X126960000Y-112250000D03*
D18*
X128110000Y-112800000D03*
X128610000Y-112800000D03*
D19*
X129760000Y-112250000D03*
X129760000Y-111750000D03*
X129760000Y-111250000D03*
X129760000Y-110750000D03*
X129760000Y-110250000D03*
D18*
X128610000Y-109700000D03*
X128110000Y-109700000D03*
D15*
X174100000Y-110250000D03*
X172000000Y-110250000D03*
X172270000Y-117510000D03*
X174370000Y-117510000D03*
X174075000Y-114950000D03*
X171975000Y-114950000D03*
X102560000Y-117750000D03*
X104660000Y-117750000D03*
X103675000Y-110475000D03*
X101575000Y-110475000D03*
X102560000Y-115130000D03*
X104660000Y-115130000D03*
D21*
X123100000Y-109020000D03*
X121700000Y-109020000D03*
X118950000Y-108560000D03*
X120350000Y-108560000D03*
X186270000Y-107442000D03*
X184870000Y-107442000D03*
X121800000Y-112550000D03*
X120400000Y-112550000D03*
D16*
X106970000Y-118640000D03*
X106970000Y-117240000D03*
D21*
X107175000Y-110025000D03*
X105775000Y-110025000D03*
D16*
X106950000Y-116100000D03*
X106950000Y-114700000D03*
D21*
X121800000Y-111075000D03*
X120400000Y-111075000D03*
D16*
X177020000Y-117519738D03*
X177020000Y-116119738D03*
D21*
X191665000Y-114374281D03*
X190265000Y-114374281D03*
X190265000Y-109045000D03*
X191665000Y-109045000D03*
D16*
X177020000Y-109160000D03*
X177020000Y-110560000D03*
D21*
X120325000Y-114125000D03*
X121725000Y-114125000D03*
D16*
X178450000Y-112675000D03*
X178450000Y-114075000D03*
D21*
X190265000Y-116150710D03*
X191665000Y-116150710D03*
X191635000Y-110821427D03*
X190235000Y-110821427D03*
X190245000Y-112597854D03*
X191645000Y-112597854D03*
D13*
G36*
X174535958Y-108364710D02*
G01*
X174550276Y-108366834D01*
X174564317Y-108370351D01*
X174577946Y-108375228D01*
X174591031Y-108381417D01*
X174603447Y-108388858D01*
X174615073Y-108397481D01*
X174625798Y-108407202D01*
X174635519Y-108417927D01*
X174644142Y-108429553D01*
X174651583Y-108441969D01*
X174657772Y-108455054D01*
X174662649Y-108468683D01*
X174666166Y-108482724D01*
X174668290Y-108497042D01*
X174669000Y-108511500D01*
X174669000Y-108856500D01*
X174668290Y-108870958D01*
X174666166Y-108885276D01*
X174662649Y-108899317D01*
X174657772Y-108912946D01*
X174651583Y-108926031D01*
X174644142Y-108938447D01*
X174635519Y-108950073D01*
X174625798Y-108960798D01*
X174615073Y-108970519D01*
X174603447Y-108979142D01*
X174591031Y-108986583D01*
X174577946Y-108992772D01*
X174564317Y-108997649D01*
X174550276Y-109001166D01*
X174535958Y-109003290D01*
X174521500Y-109004000D01*
X174226500Y-109004000D01*
X174212042Y-109003290D01*
X174197724Y-109001166D01*
X174183683Y-108997649D01*
X174170054Y-108992772D01*
X174156969Y-108986583D01*
X174144553Y-108979142D01*
X174132927Y-108970519D01*
X174122202Y-108960798D01*
X174112481Y-108950073D01*
X174103858Y-108938447D01*
X174096417Y-108926031D01*
X174090228Y-108912946D01*
X174085351Y-108899317D01*
X174081834Y-108885276D01*
X174079710Y-108870958D01*
X174079000Y-108856500D01*
X174079000Y-108511500D01*
X174079710Y-108497042D01*
X174081834Y-108482724D01*
X174085351Y-108468683D01*
X174090228Y-108455054D01*
X174096417Y-108441969D01*
X174103858Y-108429553D01*
X174112481Y-108417927D01*
X174122202Y-108407202D01*
X174132927Y-108397481D01*
X174144553Y-108388858D01*
X174156969Y-108381417D01*
X174170054Y-108375228D01*
X174183683Y-108370351D01*
X174197724Y-108366834D01*
X174212042Y-108364710D01*
X174226500Y-108364000D01*
X174521500Y-108364000D01*
X174535958Y-108364710D01*
G37*
G36*
X173565958Y-108364710D02*
G01*
X173580276Y-108366834D01*
X173594317Y-108370351D01*
X173607946Y-108375228D01*
X173621031Y-108381417D01*
X173633447Y-108388858D01*
X173645073Y-108397481D01*
X173655798Y-108407202D01*
X173665519Y-108417927D01*
X173674142Y-108429553D01*
X173681583Y-108441969D01*
X173687772Y-108455054D01*
X173692649Y-108468683D01*
X173696166Y-108482724D01*
X173698290Y-108497042D01*
X173699000Y-108511500D01*
X173699000Y-108856500D01*
X173698290Y-108870958D01*
X173696166Y-108885276D01*
X173692649Y-108899317D01*
X173687772Y-108912946D01*
X173681583Y-108926031D01*
X173674142Y-108938447D01*
X173665519Y-108950073D01*
X173655798Y-108960798D01*
X173645073Y-108970519D01*
X173633447Y-108979142D01*
X173621031Y-108986583D01*
X173607946Y-108992772D01*
X173594317Y-108997649D01*
X173580276Y-109001166D01*
X173565958Y-109003290D01*
X173551500Y-109004000D01*
X173256500Y-109004000D01*
X173242042Y-109003290D01*
X173227724Y-109001166D01*
X173213683Y-108997649D01*
X173200054Y-108992772D01*
X173186969Y-108986583D01*
X173174553Y-108979142D01*
X173162927Y-108970519D01*
X173152202Y-108960798D01*
X173142481Y-108950073D01*
X173133858Y-108938447D01*
X173126417Y-108926031D01*
X173120228Y-108912946D01*
X173115351Y-108899317D01*
X173111834Y-108885276D01*
X173109710Y-108870958D01*
X173109000Y-108856500D01*
X173109000Y-108511500D01*
X173109710Y-108497042D01*
X173111834Y-108482724D01*
X173115351Y-108468683D01*
X173120228Y-108455054D01*
X173126417Y-108441969D01*
X173133858Y-108429553D01*
X173142481Y-108417927D01*
X173152202Y-108407202D01*
X173162927Y-108397481D01*
X173174553Y-108388858D01*
X173186969Y-108381417D01*
X173200054Y-108375228D01*
X173213683Y-108370351D01*
X173227724Y-108366834D01*
X173242042Y-108364710D01*
X173256500Y-108364000D01*
X173551500Y-108364000D01*
X173565958Y-108364710D01*
G37*
G36*
X179229458Y-107166710D02*
G01*
X179243776Y-107168834D01*
X179257817Y-107172351D01*
X179271446Y-107177228D01*
X179284531Y-107183417D01*
X179296947Y-107190858D01*
X179308573Y-107199481D01*
X179319298Y-107209202D01*
X179329019Y-107219927D01*
X179337642Y-107231553D01*
X179345083Y-107243969D01*
X179351272Y-107257054D01*
X179356149Y-107270683D01*
X179359666Y-107284724D01*
X179361790Y-107299042D01*
X179362500Y-107313500D01*
X179362500Y-107658500D01*
X179361790Y-107672958D01*
X179359666Y-107687276D01*
X179356149Y-107701317D01*
X179351272Y-107714946D01*
X179345083Y-107728031D01*
X179337642Y-107740447D01*
X179329019Y-107752073D01*
X179319298Y-107762798D01*
X179308573Y-107772519D01*
X179296947Y-107781142D01*
X179284531Y-107788583D01*
X179271446Y-107794772D01*
X179257817Y-107799649D01*
X179243776Y-107803166D01*
X179229458Y-107805290D01*
X179215000Y-107806000D01*
X178920000Y-107806000D01*
X178905542Y-107805290D01*
X178891224Y-107803166D01*
X178877183Y-107799649D01*
X178863554Y-107794772D01*
X178850469Y-107788583D01*
X178838053Y-107781142D01*
X178826427Y-107772519D01*
X178815702Y-107762798D01*
X178805981Y-107752073D01*
X178797358Y-107740447D01*
X178789917Y-107728031D01*
X178783728Y-107714946D01*
X178778851Y-107701317D01*
X178775334Y-107687276D01*
X178773210Y-107672958D01*
X178772500Y-107658500D01*
X178772500Y-107313500D01*
X178773210Y-107299042D01*
X178775334Y-107284724D01*
X178778851Y-107270683D01*
X178783728Y-107257054D01*
X178789917Y-107243969D01*
X178797358Y-107231553D01*
X178805981Y-107219927D01*
X178815702Y-107209202D01*
X178826427Y-107199481D01*
X178838053Y-107190858D01*
X178850469Y-107183417D01*
X178863554Y-107177228D01*
X178877183Y-107172351D01*
X178891224Y-107168834D01*
X178905542Y-107166710D01*
X178920000Y-107166000D01*
X179215000Y-107166000D01*
X179229458Y-107166710D01*
G37*
G36*
X180199458Y-107166710D02*
G01*
X180213776Y-107168834D01*
X180227817Y-107172351D01*
X180241446Y-107177228D01*
X180254531Y-107183417D01*
X180266947Y-107190858D01*
X180278573Y-107199481D01*
X180289298Y-107209202D01*
X180299019Y-107219927D01*
X180307642Y-107231553D01*
X180315083Y-107243969D01*
X180321272Y-107257054D01*
X180326149Y-107270683D01*
X180329666Y-107284724D01*
X180331790Y-107299042D01*
X180332500Y-107313500D01*
X180332500Y-107658500D01*
X180331790Y-107672958D01*
X180329666Y-107687276D01*
X180326149Y-107701317D01*
X180321272Y-107714946D01*
X180315083Y-107728031D01*
X180307642Y-107740447D01*
X180299019Y-107752073D01*
X180289298Y-107762798D01*
X180278573Y-107772519D01*
X180266947Y-107781142D01*
X180254531Y-107788583D01*
X180241446Y-107794772D01*
X180227817Y-107799649D01*
X180213776Y-107803166D01*
X180199458Y-107805290D01*
X180185000Y-107806000D01*
X179890000Y-107806000D01*
X179875542Y-107805290D01*
X179861224Y-107803166D01*
X179847183Y-107799649D01*
X179833554Y-107794772D01*
X179820469Y-107788583D01*
X179808053Y-107781142D01*
X179796427Y-107772519D01*
X179785702Y-107762798D01*
X179775981Y-107752073D01*
X179767358Y-107740447D01*
X179759917Y-107728031D01*
X179753728Y-107714946D01*
X179748851Y-107701317D01*
X179745334Y-107687276D01*
X179743210Y-107672958D01*
X179742500Y-107658500D01*
X179742500Y-107313500D01*
X179743210Y-107299042D01*
X179745334Y-107284724D01*
X179748851Y-107270683D01*
X179753728Y-107257054D01*
X179759917Y-107243969D01*
X179767358Y-107231553D01*
X179775981Y-107219927D01*
X179785702Y-107209202D01*
X179796427Y-107199481D01*
X179808053Y-107190858D01*
X179820469Y-107183417D01*
X179833554Y-107177228D01*
X179847183Y-107172351D01*
X179861224Y-107168834D01*
X179875542Y-107166710D01*
X179890000Y-107166000D01*
X180185000Y-107166000D01*
X180199458Y-107166710D01*
G37*
G36*
X188672958Y-105048710D02*
G01*
X188687276Y-105050834D01*
X188701317Y-105054351D01*
X188714946Y-105059228D01*
X188728031Y-105065417D01*
X188740447Y-105072858D01*
X188752073Y-105081481D01*
X188762798Y-105091202D01*
X188772519Y-105101927D01*
X188781142Y-105113553D01*
X188788583Y-105125969D01*
X188794772Y-105139054D01*
X188799649Y-105152683D01*
X188803166Y-105166724D01*
X188805290Y-105181042D01*
X188806000Y-105195500D01*
X188806000Y-105490500D01*
X188805290Y-105504958D01*
X188803166Y-105519276D01*
X188799649Y-105533317D01*
X188794772Y-105546946D01*
X188788583Y-105560031D01*
X188781142Y-105572447D01*
X188772519Y-105584073D01*
X188762798Y-105594798D01*
X188752073Y-105604519D01*
X188740447Y-105613142D01*
X188728031Y-105620583D01*
X188714946Y-105626772D01*
X188701317Y-105631649D01*
X188687276Y-105635166D01*
X188672958Y-105637290D01*
X188658500Y-105638000D01*
X188313500Y-105638000D01*
X188299042Y-105637290D01*
X188284724Y-105635166D01*
X188270683Y-105631649D01*
X188257054Y-105626772D01*
X188243969Y-105620583D01*
X188231553Y-105613142D01*
X188219927Y-105604519D01*
X188209202Y-105594798D01*
X188199481Y-105584073D01*
X188190858Y-105572447D01*
X188183417Y-105560031D01*
X188177228Y-105546946D01*
X188172351Y-105533317D01*
X188168834Y-105519276D01*
X188166710Y-105504958D01*
X188166000Y-105490500D01*
X188166000Y-105195500D01*
X188166710Y-105181042D01*
X188168834Y-105166724D01*
X188172351Y-105152683D01*
X188177228Y-105139054D01*
X188183417Y-105125969D01*
X188190858Y-105113553D01*
X188199481Y-105101927D01*
X188209202Y-105091202D01*
X188219927Y-105081481D01*
X188231553Y-105072858D01*
X188243969Y-105065417D01*
X188257054Y-105059228D01*
X188270683Y-105054351D01*
X188284724Y-105050834D01*
X188299042Y-105048710D01*
X188313500Y-105048000D01*
X188658500Y-105048000D01*
X188672958Y-105048710D01*
G37*
G36*
X188672958Y-104078710D02*
G01*
X188687276Y-104080834D01*
X188701317Y-104084351D01*
X188714946Y-104089228D01*
X188728031Y-104095417D01*
X188740447Y-104102858D01*
X188752073Y-104111481D01*
X188762798Y-104121202D01*
X188772519Y-104131927D01*
X188781142Y-104143553D01*
X188788583Y-104155969D01*
X188794772Y-104169054D01*
X188799649Y-104182683D01*
X188803166Y-104196724D01*
X188805290Y-104211042D01*
X188806000Y-104225500D01*
X188806000Y-104520500D01*
X188805290Y-104534958D01*
X188803166Y-104549276D01*
X188799649Y-104563317D01*
X188794772Y-104576946D01*
X188788583Y-104590031D01*
X188781142Y-104602447D01*
X188772519Y-104614073D01*
X188762798Y-104624798D01*
X188752073Y-104634519D01*
X188740447Y-104643142D01*
X188728031Y-104650583D01*
X188714946Y-104656772D01*
X188701317Y-104661649D01*
X188687276Y-104665166D01*
X188672958Y-104667290D01*
X188658500Y-104668000D01*
X188313500Y-104668000D01*
X188299042Y-104667290D01*
X188284724Y-104665166D01*
X188270683Y-104661649D01*
X188257054Y-104656772D01*
X188243969Y-104650583D01*
X188231553Y-104643142D01*
X188219927Y-104634519D01*
X188209202Y-104624798D01*
X188199481Y-104614073D01*
X188190858Y-104602447D01*
X188183417Y-104590031D01*
X188177228Y-104576946D01*
X188172351Y-104563317D01*
X188168834Y-104549276D01*
X188166710Y-104534958D01*
X188166000Y-104520500D01*
X188166000Y-104225500D01*
X188166710Y-104211042D01*
X188168834Y-104196724D01*
X188172351Y-104182683D01*
X188177228Y-104169054D01*
X188183417Y-104155969D01*
X188190858Y-104143553D01*
X188199481Y-104131927D01*
X188209202Y-104121202D01*
X188219927Y-104111481D01*
X188231553Y-104102858D01*
X188243969Y-104095417D01*
X188257054Y-104089228D01*
X188270683Y-104084351D01*
X188284724Y-104080834D01*
X188299042Y-104078710D01*
X188313500Y-104078000D01*
X188658500Y-104078000D01*
X188672958Y-104078710D01*
G37*
G36*
X188908958Y-117974710D02*
G01*
X188923276Y-117976834D01*
X188937317Y-117980351D01*
X188950946Y-117985228D01*
X188964031Y-117991417D01*
X188976447Y-117998858D01*
X188988073Y-118007481D01*
X188998798Y-118017202D01*
X189008519Y-118027927D01*
X189017142Y-118039553D01*
X189024583Y-118051969D01*
X189030772Y-118065054D01*
X189035649Y-118078683D01*
X189039166Y-118092724D01*
X189041290Y-118107042D01*
X189042000Y-118121500D01*
X189042000Y-118416500D01*
X189041290Y-118430958D01*
X189039166Y-118445276D01*
X189035649Y-118459317D01*
X189030772Y-118472946D01*
X189024583Y-118486031D01*
X189017142Y-118498447D01*
X189008519Y-118510073D01*
X188998798Y-118520798D01*
X188988073Y-118530519D01*
X188976447Y-118539142D01*
X188964031Y-118546583D01*
X188950946Y-118552772D01*
X188937317Y-118557649D01*
X188923276Y-118561166D01*
X188908958Y-118563290D01*
X188894500Y-118564000D01*
X188549500Y-118564000D01*
X188535042Y-118563290D01*
X188520724Y-118561166D01*
X188506683Y-118557649D01*
X188493054Y-118552772D01*
X188479969Y-118546583D01*
X188467553Y-118539142D01*
X188455927Y-118530519D01*
X188445202Y-118520798D01*
X188435481Y-118510073D01*
X188426858Y-118498447D01*
X188419417Y-118486031D01*
X188413228Y-118472946D01*
X188408351Y-118459317D01*
X188404834Y-118445276D01*
X188402710Y-118430958D01*
X188402000Y-118416500D01*
X188402000Y-118121500D01*
X188402710Y-118107042D01*
X188404834Y-118092724D01*
X188408351Y-118078683D01*
X188413228Y-118065054D01*
X188419417Y-118051969D01*
X188426858Y-118039553D01*
X188435481Y-118027927D01*
X188445202Y-118017202D01*
X188455927Y-118007481D01*
X188467553Y-117998858D01*
X188479969Y-117991417D01*
X188493054Y-117985228D01*
X188506683Y-117980351D01*
X188520724Y-117976834D01*
X188535042Y-117974710D01*
X188549500Y-117974000D01*
X188894500Y-117974000D01*
X188908958Y-117974710D01*
G37*
G36*
X188908958Y-117004710D02*
G01*
X188923276Y-117006834D01*
X188937317Y-117010351D01*
X188950946Y-117015228D01*
X188964031Y-117021417D01*
X188976447Y-117028858D01*
X188988073Y-117037481D01*
X188998798Y-117047202D01*
X189008519Y-117057927D01*
X189017142Y-117069553D01*
X189024583Y-117081969D01*
X189030772Y-117095054D01*
X189035649Y-117108683D01*
X189039166Y-117122724D01*
X189041290Y-117137042D01*
X189042000Y-117151500D01*
X189042000Y-117446500D01*
X189041290Y-117460958D01*
X189039166Y-117475276D01*
X189035649Y-117489317D01*
X189030772Y-117502946D01*
X189024583Y-117516031D01*
X189017142Y-117528447D01*
X189008519Y-117540073D01*
X188998798Y-117550798D01*
X188988073Y-117560519D01*
X188976447Y-117569142D01*
X188964031Y-117576583D01*
X188950946Y-117582772D01*
X188937317Y-117587649D01*
X188923276Y-117591166D01*
X188908958Y-117593290D01*
X188894500Y-117594000D01*
X188549500Y-117594000D01*
X188535042Y-117593290D01*
X188520724Y-117591166D01*
X188506683Y-117587649D01*
X188493054Y-117582772D01*
X188479969Y-117576583D01*
X188467553Y-117569142D01*
X188455927Y-117560519D01*
X188445202Y-117550798D01*
X188435481Y-117540073D01*
X188426858Y-117528447D01*
X188419417Y-117516031D01*
X188413228Y-117502946D01*
X188408351Y-117489317D01*
X188404834Y-117475276D01*
X188402710Y-117460958D01*
X188402000Y-117446500D01*
X188402000Y-117151500D01*
X188402710Y-117137042D01*
X188404834Y-117122724D01*
X188408351Y-117108683D01*
X188413228Y-117095054D01*
X188419417Y-117081969D01*
X188426858Y-117069553D01*
X188435481Y-117057927D01*
X188445202Y-117047202D01*
X188455927Y-117037481D01*
X188467553Y-117028858D01*
X188479969Y-117021417D01*
X188493054Y-117015228D01*
X188506683Y-117010351D01*
X188520724Y-117006834D01*
X188535042Y-117004710D01*
X188549500Y-117004000D01*
X188894500Y-117004000D01*
X188908958Y-117004710D01*
G37*
G36*
X183095860Y-117004710D02*
G01*
X183110178Y-117006834D01*
X183124219Y-117010351D01*
X183137848Y-117015228D01*
X183150933Y-117021417D01*
X183163349Y-117028858D01*
X183174975Y-117037481D01*
X183185700Y-117047202D01*
X183195421Y-117057927D01*
X183204044Y-117069553D01*
X183211485Y-117081969D01*
X183217674Y-117095054D01*
X183222551Y-117108683D01*
X183226068Y-117122724D01*
X183228192Y-117137042D01*
X183228902Y-117151500D01*
X183228902Y-117446500D01*
X183228192Y-117460958D01*
X183226068Y-117475276D01*
X183222551Y-117489317D01*
X183217674Y-117502946D01*
X183211485Y-117516031D01*
X183204044Y-117528447D01*
X183195421Y-117540073D01*
X183185700Y-117550798D01*
X183174975Y-117560519D01*
X183163349Y-117569142D01*
X183150933Y-117576583D01*
X183137848Y-117582772D01*
X183124219Y-117587649D01*
X183110178Y-117591166D01*
X183095860Y-117593290D01*
X183081402Y-117594000D01*
X182736402Y-117594000D01*
X182721944Y-117593290D01*
X182707626Y-117591166D01*
X182693585Y-117587649D01*
X182679956Y-117582772D01*
X182666871Y-117576583D01*
X182654455Y-117569142D01*
X182642829Y-117560519D01*
X182632104Y-117550798D01*
X182622383Y-117540073D01*
X182613760Y-117528447D01*
X182606319Y-117516031D01*
X182600130Y-117502946D01*
X182595253Y-117489317D01*
X182591736Y-117475276D01*
X182589612Y-117460958D01*
X182588902Y-117446500D01*
X182588902Y-117151500D01*
X182589612Y-117137042D01*
X182591736Y-117122724D01*
X182595253Y-117108683D01*
X182600130Y-117095054D01*
X182606319Y-117081969D01*
X182613760Y-117069553D01*
X182622383Y-117057927D01*
X182632104Y-117047202D01*
X182642829Y-117037481D01*
X182654455Y-117028858D01*
X182666871Y-117021417D01*
X182679956Y-117015228D01*
X182693585Y-117010351D01*
X182707626Y-117006834D01*
X182721944Y-117004710D01*
X182736402Y-117004000D01*
X183081402Y-117004000D01*
X183095860Y-117004710D01*
G37*
G36*
X183095860Y-117974710D02*
G01*
X183110178Y-117976834D01*
X183124219Y-117980351D01*
X183137848Y-117985228D01*
X183150933Y-117991417D01*
X183163349Y-117998858D01*
X183174975Y-118007481D01*
X183185700Y-118017202D01*
X183195421Y-118027927D01*
X183204044Y-118039553D01*
X183211485Y-118051969D01*
X183217674Y-118065054D01*
X183222551Y-118078683D01*
X183226068Y-118092724D01*
X183228192Y-118107042D01*
X183228902Y-118121500D01*
X183228902Y-118416500D01*
X183228192Y-118430958D01*
X183226068Y-118445276D01*
X183222551Y-118459317D01*
X183217674Y-118472946D01*
X183211485Y-118486031D01*
X183204044Y-118498447D01*
X183195421Y-118510073D01*
X183185700Y-118520798D01*
X183174975Y-118530519D01*
X183163349Y-118539142D01*
X183150933Y-118546583D01*
X183137848Y-118552772D01*
X183124219Y-118557649D01*
X183110178Y-118561166D01*
X183095860Y-118563290D01*
X183081402Y-118564000D01*
X182736402Y-118564000D01*
X182721944Y-118563290D01*
X182707626Y-118561166D01*
X182693585Y-118557649D01*
X182679956Y-118552772D01*
X182666871Y-118546583D01*
X182654455Y-118539142D01*
X182642829Y-118530519D01*
X182632104Y-118520798D01*
X182622383Y-118510073D01*
X182613760Y-118498447D01*
X182606319Y-118486031D01*
X182600130Y-118472946D01*
X182595253Y-118459317D01*
X182591736Y-118445276D01*
X182589612Y-118430958D01*
X182588902Y-118416500D01*
X182588902Y-118121500D01*
X182589612Y-118107042D01*
X182591736Y-118092724D01*
X182595253Y-118078683D01*
X182600130Y-118065054D01*
X182606319Y-118051969D01*
X182613760Y-118039553D01*
X182622383Y-118027927D01*
X182632104Y-118017202D01*
X182642829Y-118007481D01*
X182654455Y-117998858D01*
X182666871Y-117991417D01*
X182679956Y-117985228D01*
X182693585Y-117980351D01*
X182707626Y-117976834D01*
X182721944Y-117974710D01*
X182736402Y-117974000D01*
X183081402Y-117974000D01*
X183095860Y-117974710D01*
G37*
G36*
X181642586Y-117004710D02*
G01*
X181656904Y-117006834D01*
X181670945Y-117010351D01*
X181684574Y-117015228D01*
X181697659Y-117021417D01*
X181710075Y-117028858D01*
X181721701Y-117037481D01*
X181732426Y-117047202D01*
X181742147Y-117057927D01*
X181750770Y-117069553D01*
X181758211Y-117081969D01*
X181764400Y-117095054D01*
X181769277Y-117108683D01*
X181772794Y-117122724D01*
X181774918Y-117137042D01*
X181775628Y-117151500D01*
X181775628Y-117446500D01*
X181774918Y-117460958D01*
X181772794Y-117475276D01*
X181769277Y-117489317D01*
X181764400Y-117502946D01*
X181758211Y-117516031D01*
X181750770Y-117528447D01*
X181742147Y-117540073D01*
X181732426Y-117550798D01*
X181721701Y-117560519D01*
X181710075Y-117569142D01*
X181697659Y-117576583D01*
X181684574Y-117582772D01*
X181670945Y-117587649D01*
X181656904Y-117591166D01*
X181642586Y-117593290D01*
X181628128Y-117594000D01*
X181283128Y-117594000D01*
X181268670Y-117593290D01*
X181254352Y-117591166D01*
X181240311Y-117587649D01*
X181226682Y-117582772D01*
X181213597Y-117576583D01*
X181201181Y-117569142D01*
X181189555Y-117560519D01*
X181178830Y-117550798D01*
X181169109Y-117540073D01*
X181160486Y-117528447D01*
X181153045Y-117516031D01*
X181146856Y-117502946D01*
X181141979Y-117489317D01*
X181138462Y-117475276D01*
X181136338Y-117460958D01*
X181135628Y-117446500D01*
X181135628Y-117151500D01*
X181136338Y-117137042D01*
X181138462Y-117122724D01*
X181141979Y-117108683D01*
X181146856Y-117095054D01*
X181153045Y-117081969D01*
X181160486Y-117069553D01*
X181169109Y-117057927D01*
X181178830Y-117047202D01*
X181189555Y-117037481D01*
X181201181Y-117028858D01*
X181213597Y-117021417D01*
X181226682Y-117015228D01*
X181240311Y-117010351D01*
X181254352Y-117006834D01*
X181268670Y-117004710D01*
X181283128Y-117004000D01*
X181628128Y-117004000D01*
X181642586Y-117004710D01*
G37*
G36*
X181642586Y-117974710D02*
G01*
X181656904Y-117976834D01*
X181670945Y-117980351D01*
X181684574Y-117985228D01*
X181697659Y-117991417D01*
X181710075Y-117998858D01*
X181721701Y-118007481D01*
X181732426Y-118017202D01*
X181742147Y-118027927D01*
X181750770Y-118039553D01*
X181758211Y-118051969D01*
X181764400Y-118065054D01*
X181769277Y-118078683D01*
X181772794Y-118092724D01*
X181774918Y-118107042D01*
X181775628Y-118121500D01*
X181775628Y-118416500D01*
X181774918Y-118430958D01*
X181772794Y-118445276D01*
X181769277Y-118459317D01*
X181764400Y-118472946D01*
X181758211Y-118486031D01*
X181750770Y-118498447D01*
X181742147Y-118510073D01*
X181732426Y-118520798D01*
X181721701Y-118530519D01*
X181710075Y-118539142D01*
X181697659Y-118546583D01*
X181684574Y-118552772D01*
X181670945Y-118557649D01*
X181656904Y-118561166D01*
X181642586Y-118563290D01*
X181628128Y-118564000D01*
X181283128Y-118564000D01*
X181268670Y-118563290D01*
X181254352Y-118561166D01*
X181240311Y-118557649D01*
X181226682Y-118552772D01*
X181213597Y-118546583D01*
X181201181Y-118539142D01*
X181189555Y-118530519D01*
X181178830Y-118520798D01*
X181169109Y-118510073D01*
X181160486Y-118498447D01*
X181153045Y-118486031D01*
X181146856Y-118472946D01*
X181141979Y-118459317D01*
X181138462Y-118445276D01*
X181136338Y-118430958D01*
X181135628Y-118416500D01*
X181135628Y-118121500D01*
X181136338Y-118107042D01*
X181138462Y-118092724D01*
X181141979Y-118078683D01*
X181146856Y-118065054D01*
X181153045Y-118051969D01*
X181160486Y-118039553D01*
X181169109Y-118027927D01*
X181178830Y-118017202D01*
X181189555Y-118007481D01*
X181201181Y-117998858D01*
X181213597Y-117991417D01*
X181226682Y-117985228D01*
X181240311Y-117980351D01*
X181254352Y-117976834D01*
X181268670Y-117974710D01*
X181283128Y-117974000D01*
X181628128Y-117974000D01*
X181642586Y-117974710D01*
G37*
G36*
X181542958Y-104838710D02*
G01*
X181557276Y-104840834D01*
X181571317Y-104844351D01*
X181584946Y-104849228D01*
X181598031Y-104855417D01*
X181610447Y-104862858D01*
X181622073Y-104871481D01*
X181632798Y-104881202D01*
X181642519Y-104891927D01*
X181651142Y-104903553D01*
X181658583Y-104915969D01*
X181664772Y-104929054D01*
X181669649Y-104942683D01*
X181673166Y-104956724D01*
X181675290Y-104971042D01*
X181676000Y-104985500D01*
X181676000Y-105280500D01*
X181675290Y-105294958D01*
X181673166Y-105309276D01*
X181669649Y-105323317D01*
X181664772Y-105336946D01*
X181658583Y-105350031D01*
X181651142Y-105362447D01*
X181642519Y-105374073D01*
X181632798Y-105384798D01*
X181622073Y-105394519D01*
X181610447Y-105403142D01*
X181598031Y-105410583D01*
X181584946Y-105416772D01*
X181571317Y-105421649D01*
X181557276Y-105425166D01*
X181542958Y-105427290D01*
X181528500Y-105428000D01*
X181183500Y-105428000D01*
X181169042Y-105427290D01*
X181154724Y-105425166D01*
X181140683Y-105421649D01*
X181127054Y-105416772D01*
X181113969Y-105410583D01*
X181101553Y-105403142D01*
X181089927Y-105394519D01*
X181079202Y-105384798D01*
X181069481Y-105374073D01*
X181060858Y-105362447D01*
X181053417Y-105350031D01*
X181047228Y-105336946D01*
X181042351Y-105323317D01*
X181038834Y-105309276D01*
X181036710Y-105294958D01*
X181036000Y-105280500D01*
X181036000Y-104985500D01*
X181036710Y-104971042D01*
X181038834Y-104956724D01*
X181042351Y-104942683D01*
X181047228Y-104929054D01*
X181053417Y-104915969D01*
X181060858Y-104903553D01*
X181069481Y-104891927D01*
X181079202Y-104881202D01*
X181089927Y-104871481D01*
X181101553Y-104862858D01*
X181113969Y-104855417D01*
X181127054Y-104849228D01*
X181140683Y-104844351D01*
X181154724Y-104840834D01*
X181169042Y-104838710D01*
X181183500Y-104838000D01*
X181528500Y-104838000D01*
X181542958Y-104838710D01*
G37*
G36*
X181542958Y-103868710D02*
G01*
X181557276Y-103870834D01*
X181571317Y-103874351D01*
X181584946Y-103879228D01*
X181598031Y-103885417D01*
X181610447Y-103892858D01*
X181622073Y-103901481D01*
X181632798Y-103911202D01*
X181642519Y-103921927D01*
X181651142Y-103933553D01*
X181658583Y-103945969D01*
X181664772Y-103959054D01*
X181669649Y-103972683D01*
X181673166Y-103986724D01*
X181675290Y-104001042D01*
X181676000Y-104015500D01*
X181676000Y-104310500D01*
X181675290Y-104324958D01*
X181673166Y-104339276D01*
X181669649Y-104353317D01*
X181664772Y-104366946D01*
X181658583Y-104380031D01*
X181651142Y-104392447D01*
X181642519Y-104404073D01*
X181632798Y-104414798D01*
X181622073Y-104424519D01*
X181610447Y-104433142D01*
X181598031Y-104440583D01*
X181584946Y-104446772D01*
X181571317Y-104451649D01*
X181557276Y-104455166D01*
X181542958Y-104457290D01*
X181528500Y-104458000D01*
X181183500Y-104458000D01*
X181169042Y-104457290D01*
X181154724Y-104455166D01*
X181140683Y-104451649D01*
X181127054Y-104446772D01*
X181113969Y-104440583D01*
X181101553Y-104433142D01*
X181089927Y-104424519D01*
X181079202Y-104414798D01*
X181069481Y-104404073D01*
X181060858Y-104392447D01*
X181053417Y-104380031D01*
X181047228Y-104366946D01*
X181042351Y-104353317D01*
X181038834Y-104339276D01*
X181036710Y-104324958D01*
X181036000Y-104310500D01*
X181036000Y-104015500D01*
X181036710Y-104001042D01*
X181038834Y-103986724D01*
X181042351Y-103972683D01*
X181047228Y-103959054D01*
X181053417Y-103945969D01*
X181060858Y-103933553D01*
X181069481Y-103921927D01*
X181079202Y-103911202D01*
X181089927Y-103901481D01*
X181101553Y-103892858D01*
X181113969Y-103885417D01*
X181127054Y-103879228D01*
X181140683Y-103874351D01*
X181154724Y-103870834D01*
X181169042Y-103868710D01*
X181183500Y-103868000D01*
X181528500Y-103868000D01*
X181542958Y-103868710D01*
G37*
G36*
X119312958Y-117970710D02*
G01*
X119327276Y-117972834D01*
X119341317Y-117976351D01*
X119354946Y-117981228D01*
X119368031Y-117987417D01*
X119380447Y-117994858D01*
X119392073Y-118003481D01*
X119402798Y-118013202D01*
X119412519Y-118023927D01*
X119421142Y-118035553D01*
X119428583Y-118047969D01*
X119434772Y-118061054D01*
X119439649Y-118074683D01*
X119443166Y-118088724D01*
X119445290Y-118103042D01*
X119446000Y-118117500D01*
X119446000Y-118412500D01*
X119445290Y-118426958D01*
X119443166Y-118441276D01*
X119439649Y-118455317D01*
X119434772Y-118468946D01*
X119428583Y-118482031D01*
X119421142Y-118494447D01*
X119412519Y-118506073D01*
X119402798Y-118516798D01*
X119392073Y-118526519D01*
X119380447Y-118535142D01*
X119368031Y-118542583D01*
X119354946Y-118548772D01*
X119341317Y-118553649D01*
X119327276Y-118557166D01*
X119312958Y-118559290D01*
X119298500Y-118560000D01*
X118953500Y-118560000D01*
X118939042Y-118559290D01*
X118924724Y-118557166D01*
X118910683Y-118553649D01*
X118897054Y-118548772D01*
X118883969Y-118542583D01*
X118871553Y-118535142D01*
X118859927Y-118526519D01*
X118849202Y-118516798D01*
X118839481Y-118506073D01*
X118830858Y-118494447D01*
X118823417Y-118482031D01*
X118817228Y-118468946D01*
X118812351Y-118455317D01*
X118808834Y-118441276D01*
X118806710Y-118426958D01*
X118806000Y-118412500D01*
X118806000Y-118117500D01*
X118806710Y-118103042D01*
X118808834Y-118088724D01*
X118812351Y-118074683D01*
X118817228Y-118061054D01*
X118823417Y-118047969D01*
X118830858Y-118035553D01*
X118839481Y-118023927D01*
X118849202Y-118013202D01*
X118859927Y-118003481D01*
X118871553Y-117994858D01*
X118883969Y-117987417D01*
X118897054Y-117981228D01*
X118910683Y-117976351D01*
X118924724Y-117972834D01*
X118939042Y-117970710D01*
X118953500Y-117970000D01*
X119298500Y-117970000D01*
X119312958Y-117970710D01*
G37*
G36*
X119312958Y-117000710D02*
G01*
X119327276Y-117002834D01*
X119341317Y-117006351D01*
X119354946Y-117011228D01*
X119368031Y-117017417D01*
X119380447Y-117024858D01*
X119392073Y-117033481D01*
X119402798Y-117043202D01*
X119412519Y-117053927D01*
X119421142Y-117065553D01*
X119428583Y-117077969D01*
X119434772Y-117091054D01*
X119439649Y-117104683D01*
X119443166Y-117118724D01*
X119445290Y-117133042D01*
X119446000Y-117147500D01*
X119446000Y-117442500D01*
X119445290Y-117456958D01*
X119443166Y-117471276D01*
X119439649Y-117485317D01*
X119434772Y-117498946D01*
X119428583Y-117512031D01*
X119421142Y-117524447D01*
X119412519Y-117536073D01*
X119402798Y-117546798D01*
X119392073Y-117556519D01*
X119380447Y-117565142D01*
X119368031Y-117572583D01*
X119354946Y-117578772D01*
X119341317Y-117583649D01*
X119327276Y-117587166D01*
X119312958Y-117589290D01*
X119298500Y-117590000D01*
X118953500Y-117590000D01*
X118939042Y-117589290D01*
X118924724Y-117587166D01*
X118910683Y-117583649D01*
X118897054Y-117578772D01*
X118883969Y-117572583D01*
X118871553Y-117565142D01*
X118859927Y-117556519D01*
X118849202Y-117546798D01*
X118839481Y-117536073D01*
X118830858Y-117524447D01*
X118823417Y-117512031D01*
X118817228Y-117498946D01*
X118812351Y-117485317D01*
X118808834Y-117471276D01*
X118806710Y-117456958D01*
X118806000Y-117442500D01*
X118806000Y-117147500D01*
X118806710Y-117133042D01*
X118808834Y-117118724D01*
X118812351Y-117104683D01*
X118817228Y-117091054D01*
X118823417Y-117077969D01*
X118830858Y-117065553D01*
X118839481Y-117053927D01*
X118849202Y-117043202D01*
X118859927Y-117033481D01*
X118871553Y-117024858D01*
X118883969Y-117017417D01*
X118897054Y-117011228D01*
X118910683Y-117006351D01*
X118924724Y-117002834D01*
X118939042Y-117000710D01*
X118953500Y-117000000D01*
X119298500Y-117000000D01*
X119312958Y-117000710D01*
G37*
G36*
X112200958Y-117000710D02*
G01*
X112215276Y-117002834D01*
X112229317Y-117006351D01*
X112242946Y-117011228D01*
X112256031Y-117017417D01*
X112268447Y-117024858D01*
X112280073Y-117033481D01*
X112290798Y-117043202D01*
X112300519Y-117053927D01*
X112309142Y-117065553D01*
X112316583Y-117077969D01*
X112322772Y-117091054D01*
X112327649Y-117104683D01*
X112331166Y-117118724D01*
X112333290Y-117133042D01*
X112334000Y-117147500D01*
X112334000Y-117442500D01*
X112333290Y-117456958D01*
X112331166Y-117471276D01*
X112327649Y-117485317D01*
X112322772Y-117498946D01*
X112316583Y-117512031D01*
X112309142Y-117524447D01*
X112300519Y-117536073D01*
X112290798Y-117546798D01*
X112280073Y-117556519D01*
X112268447Y-117565142D01*
X112256031Y-117572583D01*
X112242946Y-117578772D01*
X112229317Y-117583649D01*
X112215276Y-117587166D01*
X112200958Y-117589290D01*
X112186500Y-117590000D01*
X111841500Y-117590000D01*
X111827042Y-117589290D01*
X111812724Y-117587166D01*
X111798683Y-117583649D01*
X111785054Y-117578772D01*
X111771969Y-117572583D01*
X111759553Y-117565142D01*
X111747927Y-117556519D01*
X111737202Y-117546798D01*
X111727481Y-117536073D01*
X111718858Y-117524447D01*
X111711417Y-117512031D01*
X111705228Y-117498946D01*
X111700351Y-117485317D01*
X111696834Y-117471276D01*
X111694710Y-117456958D01*
X111694000Y-117442500D01*
X111694000Y-117147500D01*
X111694710Y-117133042D01*
X111696834Y-117118724D01*
X111700351Y-117104683D01*
X111705228Y-117091054D01*
X111711417Y-117077969D01*
X111718858Y-117065553D01*
X111727481Y-117053927D01*
X111737202Y-117043202D01*
X111747927Y-117033481D01*
X111759553Y-117024858D01*
X111771969Y-117017417D01*
X111785054Y-117011228D01*
X111798683Y-117006351D01*
X111812724Y-117002834D01*
X111827042Y-117000710D01*
X111841500Y-117000000D01*
X112186500Y-117000000D01*
X112200958Y-117000710D01*
G37*
G36*
X112200958Y-117970710D02*
G01*
X112215276Y-117972834D01*
X112229317Y-117976351D01*
X112242946Y-117981228D01*
X112256031Y-117987417D01*
X112268447Y-117994858D01*
X112280073Y-118003481D01*
X112290798Y-118013202D01*
X112300519Y-118023927D01*
X112309142Y-118035553D01*
X112316583Y-118047969D01*
X112322772Y-118061054D01*
X112327649Y-118074683D01*
X112331166Y-118088724D01*
X112333290Y-118103042D01*
X112334000Y-118117500D01*
X112334000Y-118412500D01*
X112333290Y-118426958D01*
X112331166Y-118441276D01*
X112327649Y-118455317D01*
X112322772Y-118468946D01*
X112316583Y-118482031D01*
X112309142Y-118494447D01*
X112300519Y-118506073D01*
X112290798Y-118516798D01*
X112280073Y-118526519D01*
X112268447Y-118535142D01*
X112256031Y-118542583D01*
X112242946Y-118548772D01*
X112229317Y-118553649D01*
X112215276Y-118557166D01*
X112200958Y-118559290D01*
X112186500Y-118560000D01*
X111841500Y-118560000D01*
X111827042Y-118559290D01*
X111812724Y-118557166D01*
X111798683Y-118553649D01*
X111785054Y-118548772D01*
X111771969Y-118542583D01*
X111759553Y-118535142D01*
X111747927Y-118526519D01*
X111737202Y-118516798D01*
X111727481Y-118506073D01*
X111718858Y-118494447D01*
X111711417Y-118482031D01*
X111705228Y-118468946D01*
X111700351Y-118455317D01*
X111696834Y-118441276D01*
X111694710Y-118426958D01*
X111694000Y-118412500D01*
X111694000Y-118117500D01*
X111694710Y-118103042D01*
X111696834Y-118088724D01*
X111700351Y-118074683D01*
X111705228Y-118061054D01*
X111711417Y-118047969D01*
X111718858Y-118035553D01*
X111727481Y-118023927D01*
X111737202Y-118013202D01*
X111747927Y-118003481D01*
X111759553Y-117994858D01*
X111771969Y-117987417D01*
X111785054Y-117981228D01*
X111798683Y-117976351D01*
X111812724Y-117972834D01*
X111827042Y-117970710D01*
X111841500Y-117970000D01*
X112186500Y-117970000D01*
X112200958Y-117970710D01*
G37*
G36*
X103798958Y-108712710D02*
G01*
X103813276Y-108714834D01*
X103827317Y-108718351D01*
X103840946Y-108723228D01*
X103854031Y-108729417D01*
X103866447Y-108736858D01*
X103878073Y-108745481D01*
X103888798Y-108755202D01*
X103898519Y-108765927D01*
X103907142Y-108777553D01*
X103914583Y-108789969D01*
X103920772Y-108803054D01*
X103925649Y-108816683D01*
X103929166Y-108830724D01*
X103931290Y-108845042D01*
X103932000Y-108859500D01*
X103932000Y-109204500D01*
X103931290Y-109218958D01*
X103929166Y-109233276D01*
X103925649Y-109247317D01*
X103920772Y-109260946D01*
X103914583Y-109274031D01*
X103907142Y-109286447D01*
X103898519Y-109298073D01*
X103888798Y-109308798D01*
X103878073Y-109318519D01*
X103866447Y-109327142D01*
X103854031Y-109334583D01*
X103840946Y-109340772D01*
X103827317Y-109345649D01*
X103813276Y-109349166D01*
X103798958Y-109351290D01*
X103784500Y-109352000D01*
X103489500Y-109352000D01*
X103475042Y-109351290D01*
X103460724Y-109349166D01*
X103446683Y-109345649D01*
X103433054Y-109340772D01*
X103419969Y-109334583D01*
X103407553Y-109327142D01*
X103395927Y-109318519D01*
X103385202Y-109308798D01*
X103375481Y-109298073D01*
X103366858Y-109286447D01*
X103359417Y-109274031D01*
X103353228Y-109260946D01*
X103348351Y-109247317D01*
X103344834Y-109233276D01*
X103342710Y-109218958D01*
X103342000Y-109204500D01*
X103342000Y-108859500D01*
X103342710Y-108845042D01*
X103344834Y-108830724D01*
X103348351Y-108816683D01*
X103353228Y-108803054D01*
X103359417Y-108789969D01*
X103366858Y-108777553D01*
X103375481Y-108765927D01*
X103385202Y-108755202D01*
X103395927Y-108745481D01*
X103407553Y-108736858D01*
X103419969Y-108729417D01*
X103433054Y-108723228D01*
X103446683Y-108718351D01*
X103460724Y-108714834D01*
X103475042Y-108712710D01*
X103489500Y-108712000D01*
X103784500Y-108712000D01*
X103798958Y-108712710D01*
G37*
G36*
X104768958Y-108712710D02*
G01*
X104783276Y-108714834D01*
X104797317Y-108718351D01*
X104810946Y-108723228D01*
X104824031Y-108729417D01*
X104836447Y-108736858D01*
X104848073Y-108745481D01*
X104858798Y-108755202D01*
X104868519Y-108765927D01*
X104877142Y-108777553D01*
X104884583Y-108789969D01*
X104890772Y-108803054D01*
X104895649Y-108816683D01*
X104899166Y-108830724D01*
X104901290Y-108845042D01*
X104902000Y-108859500D01*
X104902000Y-109204500D01*
X104901290Y-109218958D01*
X104899166Y-109233276D01*
X104895649Y-109247317D01*
X104890772Y-109260946D01*
X104884583Y-109274031D01*
X104877142Y-109286447D01*
X104868519Y-109298073D01*
X104858798Y-109308798D01*
X104848073Y-109318519D01*
X104836447Y-109327142D01*
X104824031Y-109334583D01*
X104810946Y-109340772D01*
X104797317Y-109345649D01*
X104783276Y-109349166D01*
X104768958Y-109351290D01*
X104754500Y-109352000D01*
X104459500Y-109352000D01*
X104445042Y-109351290D01*
X104430724Y-109349166D01*
X104416683Y-109345649D01*
X104403054Y-109340772D01*
X104389969Y-109334583D01*
X104377553Y-109327142D01*
X104365927Y-109318519D01*
X104355202Y-109308798D01*
X104345481Y-109298073D01*
X104336858Y-109286447D01*
X104329417Y-109274031D01*
X104323228Y-109260946D01*
X104318351Y-109247317D01*
X104314834Y-109233276D01*
X104312710Y-109218958D01*
X104312000Y-109204500D01*
X104312000Y-108859500D01*
X104312710Y-108845042D01*
X104314834Y-108830724D01*
X104318351Y-108816683D01*
X104323228Y-108803054D01*
X104329417Y-108789969D01*
X104336858Y-108777553D01*
X104345481Y-108765927D01*
X104355202Y-108755202D01*
X104365927Y-108745481D01*
X104377553Y-108736858D01*
X104389969Y-108729417D01*
X104403054Y-108723228D01*
X104416683Y-108718351D01*
X104430724Y-108714834D01*
X104445042Y-108712710D01*
X104459500Y-108712000D01*
X104754500Y-108712000D01*
X104768958Y-108712710D01*
G37*
G36*
X103788958Y-106962710D02*
G01*
X103803276Y-106964834D01*
X103817317Y-106968351D01*
X103830946Y-106973228D01*
X103844031Y-106979417D01*
X103856447Y-106986858D01*
X103868073Y-106995481D01*
X103878798Y-107005202D01*
X103888519Y-107015927D01*
X103897142Y-107027553D01*
X103904583Y-107039969D01*
X103910772Y-107053054D01*
X103915649Y-107066683D01*
X103919166Y-107080724D01*
X103921290Y-107095042D01*
X103922000Y-107109500D01*
X103922000Y-107454500D01*
X103921290Y-107468958D01*
X103919166Y-107483276D01*
X103915649Y-107497317D01*
X103910772Y-107510946D01*
X103904583Y-107524031D01*
X103897142Y-107536447D01*
X103888519Y-107548073D01*
X103878798Y-107558798D01*
X103868073Y-107568519D01*
X103856447Y-107577142D01*
X103844031Y-107584583D01*
X103830946Y-107590772D01*
X103817317Y-107595649D01*
X103803276Y-107599166D01*
X103788958Y-107601290D01*
X103774500Y-107602000D01*
X103479500Y-107602000D01*
X103465042Y-107601290D01*
X103450724Y-107599166D01*
X103436683Y-107595649D01*
X103423054Y-107590772D01*
X103409969Y-107584583D01*
X103397553Y-107577142D01*
X103385927Y-107568519D01*
X103375202Y-107558798D01*
X103365481Y-107548073D01*
X103356858Y-107536447D01*
X103349417Y-107524031D01*
X103343228Y-107510946D01*
X103338351Y-107497317D01*
X103334834Y-107483276D01*
X103332710Y-107468958D01*
X103332000Y-107454500D01*
X103332000Y-107109500D01*
X103332710Y-107095042D01*
X103334834Y-107080724D01*
X103338351Y-107066683D01*
X103343228Y-107053054D01*
X103349417Y-107039969D01*
X103356858Y-107027553D01*
X103365481Y-107015927D01*
X103375202Y-107005202D01*
X103385927Y-106995481D01*
X103397553Y-106986858D01*
X103409969Y-106979417D01*
X103423054Y-106973228D01*
X103436683Y-106968351D01*
X103450724Y-106964834D01*
X103465042Y-106962710D01*
X103479500Y-106962000D01*
X103774500Y-106962000D01*
X103788958Y-106962710D01*
G37*
G36*
X104758958Y-106962710D02*
G01*
X104773276Y-106964834D01*
X104787317Y-106968351D01*
X104800946Y-106973228D01*
X104814031Y-106979417D01*
X104826447Y-106986858D01*
X104838073Y-106995481D01*
X104848798Y-107005202D01*
X104858519Y-107015927D01*
X104867142Y-107027553D01*
X104874583Y-107039969D01*
X104880772Y-107053054D01*
X104885649Y-107066683D01*
X104889166Y-107080724D01*
X104891290Y-107095042D01*
X104892000Y-107109500D01*
X104892000Y-107454500D01*
X104891290Y-107468958D01*
X104889166Y-107483276D01*
X104885649Y-107497317D01*
X104880772Y-107510946D01*
X104874583Y-107524031D01*
X104867142Y-107536447D01*
X104858519Y-107548073D01*
X104848798Y-107558798D01*
X104838073Y-107568519D01*
X104826447Y-107577142D01*
X104814031Y-107584583D01*
X104800946Y-107590772D01*
X104787317Y-107595649D01*
X104773276Y-107599166D01*
X104758958Y-107601290D01*
X104744500Y-107602000D01*
X104449500Y-107602000D01*
X104435042Y-107601290D01*
X104420724Y-107599166D01*
X104406683Y-107595649D01*
X104393054Y-107590772D01*
X104379969Y-107584583D01*
X104367553Y-107577142D01*
X104355927Y-107568519D01*
X104345202Y-107558798D01*
X104335481Y-107548073D01*
X104326858Y-107536447D01*
X104319417Y-107524031D01*
X104313228Y-107510946D01*
X104308351Y-107497317D01*
X104304834Y-107483276D01*
X104302710Y-107468958D01*
X104302000Y-107454500D01*
X104302000Y-107109500D01*
X104302710Y-107095042D01*
X104304834Y-107080724D01*
X104308351Y-107066683D01*
X104313228Y-107053054D01*
X104319417Y-107039969D01*
X104326858Y-107027553D01*
X104335481Y-107015927D01*
X104345202Y-107005202D01*
X104355927Y-106995481D01*
X104367553Y-106986858D01*
X104379969Y-106979417D01*
X104393054Y-106973228D01*
X104406683Y-106968351D01*
X104420724Y-106964834D01*
X104435042Y-106962710D01*
X104449500Y-106962000D01*
X104744500Y-106962000D01*
X104758958Y-106962710D01*
G37*
G36*
X174603108Y-106734710D02*
G01*
X174617426Y-106736834D01*
X174631467Y-106740351D01*
X174645096Y-106745228D01*
X174658181Y-106751417D01*
X174670597Y-106758858D01*
X174682223Y-106767481D01*
X174692948Y-106777202D01*
X174702669Y-106787927D01*
X174711292Y-106799553D01*
X174718733Y-106811969D01*
X174724922Y-106825054D01*
X174729799Y-106838683D01*
X174733316Y-106852724D01*
X174735440Y-106867042D01*
X174736150Y-106881500D01*
X174736150Y-107226500D01*
X174735440Y-107240958D01*
X174733316Y-107255276D01*
X174729799Y-107269317D01*
X174724922Y-107282946D01*
X174718733Y-107296031D01*
X174711292Y-107308447D01*
X174702669Y-107320073D01*
X174692948Y-107330798D01*
X174682223Y-107340519D01*
X174670597Y-107349142D01*
X174658181Y-107356583D01*
X174645096Y-107362772D01*
X174631467Y-107367649D01*
X174617426Y-107371166D01*
X174603108Y-107373290D01*
X174588650Y-107374000D01*
X174293650Y-107374000D01*
X174279192Y-107373290D01*
X174264874Y-107371166D01*
X174250833Y-107367649D01*
X174237204Y-107362772D01*
X174224119Y-107356583D01*
X174211703Y-107349142D01*
X174200077Y-107340519D01*
X174189352Y-107330798D01*
X174179631Y-107320073D01*
X174171008Y-107308447D01*
X174163567Y-107296031D01*
X174157378Y-107282946D01*
X174152501Y-107269317D01*
X174148984Y-107255276D01*
X174146860Y-107240958D01*
X174146150Y-107226500D01*
X174146150Y-106881500D01*
X174146860Y-106867042D01*
X174148984Y-106852724D01*
X174152501Y-106838683D01*
X174157378Y-106825054D01*
X174163567Y-106811969D01*
X174171008Y-106799553D01*
X174179631Y-106787927D01*
X174189352Y-106777202D01*
X174200077Y-106767481D01*
X174211703Y-106758858D01*
X174224119Y-106751417D01*
X174237204Y-106745228D01*
X174250833Y-106740351D01*
X174264874Y-106736834D01*
X174279192Y-106734710D01*
X174293650Y-106734000D01*
X174588650Y-106734000D01*
X174603108Y-106734710D01*
G37*
G36*
X173633108Y-106734710D02*
G01*
X173647426Y-106736834D01*
X173661467Y-106740351D01*
X173675096Y-106745228D01*
X173688181Y-106751417D01*
X173700597Y-106758858D01*
X173712223Y-106767481D01*
X173722948Y-106777202D01*
X173732669Y-106787927D01*
X173741292Y-106799553D01*
X173748733Y-106811969D01*
X173754922Y-106825054D01*
X173759799Y-106838683D01*
X173763316Y-106852724D01*
X173765440Y-106867042D01*
X173766150Y-106881500D01*
X173766150Y-107226500D01*
X173765440Y-107240958D01*
X173763316Y-107255276D01*
X173759799Y-107269317D01*
X173754922Y-107282946D01*
X173748733Y-107296031D01*
X173741292Y-107308447D01*
X173732669Y-107320073D01*
X173722948Y-107330798D01*
X173712223Y-107340519D01*
X173700597Y-107349142D01*
X173688181Y-107356583D01*
X173675096Y-107362772D01*
X173661467Y-107367649D01*
X173647426Y-107371166D01*
X173633108Y-107373290D01*
X173618650Y-107374000D01*
X173323650Y-107374000D01*
X173309192Y-107373290D01*
X173294874Y-107371166D01*
X173280833Y-107367649D01*
X173267204Y-107362772D01*
X173254119Y-107356583D01*
X173241703Y-107349142D01*
X173230077Y-107340519D01*
X173219352Y-107330798D01*
X173209631Y-107320073D01*
X173201008Y-107308447D01*
X173193567Y-107296031D01*
X173187378Y-107282946D01*
X173182501Y-107269317D01*
X173178984Y-107255276D01*
X173176860Y-107240958D01*
X173176150Y-107226500D01*
X173176150Y-106881500D01*
X173176860Y-106867042D01*
X173178984Y-106852724D01*
X173182501Y-106838683D01*
X173187378Y-106825054D01*
X173193567Y-106811969D01*
X173201008Y-106799553D01*
X173209631Y-106787927D01*
X173219352Y-106777202D01*
X173230077Y-106767481D01*
X173241703Y-106758858D01*
X173254119Y-106751417D01*
X173267204Y-106745228D01*
X173280833Y-106740351D01*
X173294874Y-106736834D01*
X173309192Y-106734710D01*
X173323650Y-106734000D01*
X173618650Y-106734000D01*
X173633108Y-106734710D01*
G37*
G36*
X109336958Y-114830710D02*
G01*
X109351276Y-114832834D01*
X109365317Y-114836351D01*
X109378946Y-114841228D01*
X109392031Y-114847417D01*
X109404447Y-114854858D01*
X109416073Y-114863481D01*
X109426798Y-114873202D01*
X109436519Y-114883927D01*
X109445142Y-114895553D01*
X109452583Y-114907969D01*
X109458772Y-114921054D01*
X109463649Y-114934683D01*
X109467166Y-114948724D01*
X109469290Y-114963042D01*
X109470000Y-114977500D01*
X109470000Y-115272500D01*
X109469290Y-115286958D01*
X109467166Y-115301276D01*
X109463649Y-115315317D01*
X109458772Y-115328946D01*
X109452583Y-115342031D01*
X109445142Y-115354447D01*
X109436519Y-115366073D01*
X109426798Y-115376798D01*
X109416073Y-115386519D01*
X109404447Y-115395142D01*
X109392031Y-115402583D01*
X109378946Y-115408772D01*
X109365317Y-115413649D01*
X109351276Y-115417166D01*
X109336958Y-115419290D01*
X109322500Y-115420000D01*
X108977500Y-115420000D01*
X108963042Y-115419290D01*
X108948724Y-115417166D01*
X108934683Y-115413649D01*
X108921054Y-115408772D01*
X108907969Y-115402583D01*
X108895553Y-115395142D01*
X108883927Y-115386519D01*
X108873202Y-115376798D01*
X108863481Y-115366073D01*
X108854858Y-115354447D01*
X108847417Y-115342031D01*
X108841228Y-115328946D01*
X108836351Y-115315317D01*
X108832834Y-115301276D01*
X108830710Y-115286958D01*
X108830000Y-115272500D01*
X108830000Y-114977500D01*
X108830710Y-114963042D01*
X108832834Y-114948724D01*
X108836351Y-114934683D01*
X108841228Y-114921054D01*
X108847417Y-114907969D01*
X108854858Y-114895553D01*
X108863481Y-114883927D01*
X108873202Y-114873202D01*
X108883927Y-114863481D01*
X108895553Y-114854858D01*
X108907969Y-114847417D01*
X108921054Y-114841228D01*
X108934683Y-114836351D01*
X108948724Y-114832834D01*
X108963042Y-114830710D01*
X108977500Y-114830000D01*
X109322500Y-114830000D01*
X109336958Y-114830710D01*
G37*
G36*
X109336958Y-113860710D02*
G01*
X109351276Y-113862834D01*
X109365317Y-113866351D01*
X109378946Y-113871228D01*
X109392031Y-113877417D01*
X109404447Y-113884858D01*
X109416073Y-113893481D01*
X109426798Y-113903202D01*
X109436519Y-113913927D01*
X109445142Y-113925553D01*
X109452583Y-113937969D01*
X109458772Y-113951054D01*
X109463649Y-113964683D01*
X109467166Y-113978724D01*
X109469290Y-113993042D01*
X109470000Y-114007500D01*
X109470000Y-114302500D01*
X109469290Y-114316958D01*
X109467166Y-114331276D01*
X109463649Y-114345317D01*
X109458772Y-114358946D01*
X109452583Y-114372031D01*
X109445142Y-114384447D01*
X109436519Y-114396073D01*
X109426798Y-114406798D01*
X109416073Y-114416519D01*
X109404447Y-114425142D01*
X109392031Y-114432583D01*
X109378946Y-114438772D01*
X109365317Y-114443649D01*
X109351276Y-114447166D01*
X109336958Y-114449290D01*
X109322500Y-114450000D01*
X108977500Y-114450000D01*
X108963042Y-114449290D01*
X108948724Y-114447166D01*
X108934683Y-114443649D01*
X108921054Y-114438772D01*
X108907969Y-114432583D01*
X108895553Y-114425142D01*
X108883927Y-114416519D01*
X108873202Y-114406798D01*
X108863481Y-114396073D01*
X108854858Y-114384447D01*
X108847417Y-114372031D01*
X108841228Y-114358946D01*
X108836351Y-114345317D01*
X108832834Y-114331276D01*
X108830710Y-114316958D01*
X108830000Y-114302500D01*
X108830000Y-114007500D01*
X108830710Y-113993042D01*
X108832834Y-113978724D01*
X108836351Y-113964683D01*
X108841228Y-113951054D01*
X108847417Y-113937969D01*
X108854858Y-113925553D01*
X108863481Y-113913927D01*
X108873202Y-113903202D01*
X108883927Y-113893481D01*
X108895553Y-113884858D01*
X108907969Y-113877417D01*
X108921054Y-113871228D01*
X108934683Y-113866351D01*
X108948724Y-113862834D01*
X108963042Y-113860710D01*
X108977500Y-113860000D01*
X109322500Y-113860000D01*
X109336958Y-113860710D01*
G37*
G36*
X184549134Y-117974710D02*
G01*
X184563452Y-117976834D01*
X184577493Y-117980351D01*
X184591122Y-117985228D01*
X184604207Y-117991417D01*
X184616623Y-117998858D01*
X184628249Y-118007481D01*
X184638974Y-118017202D01*
X184648695Y-118027927D01*
X184657318Y-118039553D01*
X184664759Y-118051969D01*
X184670948Y-118065054D01*
X184675825Y-118078683D01*
X184679342Y-118092724D01*
X184681466Y-118107042D01*
X184682176Y-118121500D01*
X184682176Y-118416500D01*
X184681466Y-118430958D01*
X184679342Y-118445276D01*
X184675825Y-118459317D01*
X184670948Y-118472946D01*
X184664759Y-118486031D01*
X184657318Y-118498447D01*
X184648695Y-118510073D01*
X184638974Y-118520798D01*
X184628249Y-118530519D01*
X184616623Y-118539142D01*
X184604207Y-118546583D01*
X184591122Y-118552772D01*
X184577493Y-118557649D01*
X184563452Y-118561166D01*
X184549134Y-118563290D01*
X184534676Y-118564000D01*
X184189676Y-118564000D01*
X184175218Y-118563290D01*
X184160900Y-118561166D01*
X184146859Y-118557649D01*
X184133230Y-118552772D01*
X184120145Y-118546583D01*
X184107729Y-118539142D01*
X184096103Y-118530519D01*
X184085378Y-118520798D01*
X184075657Y-118510073D01*
X184067034Y-118498447D01*
X184059593Y-118486031D01*
X184053404Y-118472946D01*
X184048527Y-118459317D01*
X184045010Y-118445276D01*
X184042886Y-118430958D01*
X184042176Y-118416500D01*
X184042176Y-118121500D01*
X184042886Y-118107042D01*
X184045010Y-118092724D01*
X184048527Y-118078683D01*
X184053404Y-118065054D01*
X184059593Y-118051969D01*
X184067034Y-118039553D01*
X184075657Y-118027927D01*
X184085378Y-118017202D01*
X184096103Y-118007481D01*
X184107729Y-117998858D01*
X184120145Y-117991417D01*
X184133230Y-117985228D01*
X184146859Y-117980351D01*
X184160900Y-117976834D01*
X184175218Y-117974710D01*
X184189676Y-117974000D01*
X184534676Y-117974000D01*
X184549134Y-117974710D01*
G37*
G36*
X184549134Y-117004710D02*
G01*
X184563452Y-117006834D01*
X184577493Y-117010351D01*
X184591122Y-117015228D01*
X184604207Y-117021417D01*
X184616623Y-117028858D01*
X184628249Y-117037481D01*
X184638974Y-117047202D01*
X184648695Y-117057927D01*
X184657318Y-117069553D01*
X184664759Y-117081969D01*
X184670948Y-117095054D01*
X184675825Y-117108683D01*
X184679342Y-117122724D01*
X184681466Y-117137042D01*
X184682176Y-117151500D01*
X184682176Y-117446500D01*
X184681466Y-117460958D01*
X184679342Y-117475276D01*
X184675825Y-117489317D01*
X184670948Y-117502946D01*
X184664759Y-117516031D01*
X184657318Y-117528447D01*
X184648695Y-117540073D01*
X184638974Y-117550798D01*
X184628249Y-117560519D01*
X184616623Y-117569142D01*
X184604207Y-117576583D01*
X184591122Y-117582772D01*
X184577493Y-117587649D01*
X184563452Y-117591166D01*
X184549134Y-117593290D01*
X184534676Y-117594000D01*
X184189676Y-117594000D01*
X184175218Y-117593290D01*
X184160900Y-117591166D01*
X184146859Y-117587649D01*
X184133230Y-117582772D01*
X184120145Y-117576583D01*
X184107729Y-117569142D01*
X184096103Y-117560519D01*
X184085378Y-117550798D01*
X184075657Y-117540073D01*
X184067034Y-117528447D01*
X184059593Y-117516031D01*
X184053404Y-117502946D01*
X184048527Y-117489317D01*
X184045010Y-117475276D01*
X184042886Y-117460958D01*
X184042176Y-117446500D01*
X184042176Y-117151500D01*
X184042886Y-117137042D01*
X184045010Y-117122724D01*
X184048527Y-117108683D01*
X184053404Y-117095054D01*
X184059593Y-117081969D01*
X184067034Y-117069553D01*
X184075657Y-117057927D01*
X184085378Y-117047202D01*
X184096103Y-117037481D01*
X184107729Y-117028858D01*
X184120145Y-117021417D01*
X184133230Y-117015228D01*
X184146859Y-117010351D01*
X184160900Y-117006834D01*
X184175218Y-117004710D01*
X184189676Y-117004000D01*
X184534676Y-117004000D01*
X184549134Y-117004710D01*
G37*
G36*
X116468158Y-117000710D02*
G01*
X116482476Y-117002834D01*
X116496517Y-117006351D01*
X116510146Y-117011228D01*
X116523231Y-117017417D01*
X116535647Y-117024858D01*
X116547273Y-117033481D01*
X116557998Y-117043202D01*
X116567719Y-117053927D01*
X116576342Y-117065553D01*
X116583783Y-117077969D01*
X116589972Y-117091054D01*
X116594849Y-117104683D01*
X116598366Y-117118724D01*
X116600490Y-117133042D01*
X116601200Y-117147500D01*
X116601200Y-117442500D01*
X116600490Y-117456958D01*
X116598366Y-117471276D01*
X116594849Y-117485317D01*
X116589972Y-117498946D01*
X116583783Y-117512031D01*
X116576342Y-117524447D01*
X116567719Y-117536073D01*
X116557998Y-117546798D01*
X116547273Y-117556519D01*
X116535647Y-117565142D01*
X116523231Y-117572583D01*
X116510146Y-117578772D01*
X116496517Y-117583649D01*
X116482476Y-117587166D01*
X116468158Y-117589290D01*
X116453700Y-117590000D01*
X116108700Y-117590000D01*
X116094242Y-117589290D01*
X116079924Y-117587166D01*
X116065883Y-117583649D01*
X116052254Y-117578772D01*
X116039169Y-117572583D01*
X116026753Y-117565142D01*
X116015127Y-117556519D01*
X116004402Y-117546798D01*
X115994681Y-117536073D01*
X115986058Y-117524447D01*
X115978617Y-117512031D01*
X115972428Y-117498946D01*
X115967551Y-117485317D01*
X115964034Y-117471276D01*
X115961910Y-117456958D01*
X115961200Y-117442500D01*
X115961200Y-117147500D01*
X115961910Y-117133042D01*
X115964034Y-117118724D01*
X115967551Y-117104683D01*
X115972428Y-117091054D01*
X115978617Y-117077969D01*
X115986058Y-117065553D01*
X115994681Y-117053927D01*
X116004402Y-117043202D01*
X116015127Y-117033481D01*
X116026753Y-117024858D01*
X116039169Y-117017417D01*
X116052254Y-117011228D01*
X116065883Y-117006351D01*
X116079924Y-117002834D01*
X116094242Y-117000710D01*
X116108700Y-117000000D01*
X116453700Y-117000000D01*
X116468158Y-117000710D01*
G37*
G36*
X116468158Y-117970710D02*
G01*
X116482476Y-117972834D01*
X116496517Y-117976351D01*
X116510146Y-117981228D01*
X116523231Y-117987417D01*
X116535647Y-117994858D01*
X116547273Y-118003481D01*
X116557998Y-118013202D01*
X116567719Y-118023927D01*
X116576342Y-118035553D01*
X116583783Y-118047969D01*
X116589972Y-118061054D01*
X116594849Y-118074683D01*
X116598366Y-118088724D01*
X116600490Y-118103042D01*
X116601200Y-118117500D01*
X116601200Y-118412500D01*
X116600490Y-118426958D01*
X116598366Y-118441276D01*
X116594849Y-118455317D01*
X116589972Y-118468946D01*
X116583783Y-118482031D01*
X116576342Y-118494447D01*
X116567719Y-118506073D01*
X116557998Y-118516798D01*
X116547273Y-118526519D01*
X116535647Y-118535142D01*
X116523231Y-118542583D01*
X116510146Y-118548772D01*
X116496517Y-118553649D01*
X116482476Y-118557166D01*
X116468158Y-118559290D01*
X116453700Y-118560000D01*
X116108700Y-118560000D01*
X116094242Y-118559290D01*
X116079924Y-118557166D01*
X116065883Y-118553649D01*
X116052254Y-118548772D01*
X116039169Y-118542583D01*
X116026753Y-118535142D01*
X116015127Y-118526519D01*
X116004402Y-118516798D01*
X115994681Y-118506073D01*
X115986058Y-118494447D01*
X115978617Y-118482031D01*
X115972428Y-118468946D01*
X115967551Y-118455317D01*
X115964034Y-118441276D01*
X115961910Y-118426958D01*
X115961200Y-118412500D01*
X115961200Y-118117500D01*
X115961910Y-118103042D01*
X115964034Y-118088724D01*
X115967551Y-118074683D01*
X115972428Y-118061054D01*
X115978617Y-118047969D01*
X115986058Y-118035553D01*
X115994681Y-118023927D01*
X116004402Y-118013202D01*
X116015127Y-118003481D01*
X116026753Y-117994858D01*
X116039169Y-117987417D01*
X116052254Y-117981228D01*
X116065883Y-117976351D01*
X116079924Y-117972834D01*
X116094242Y-117970710D01*
X116108700Y-117970000D01*
X116453700Y-117970000D01*
X116468158Y-117970710D01*
G37*
G36*
X117890558Y-117970710D02*
G01*
X117904876Y-117972834D01*
X117918917Y-117976351D01*
X117932546Y-117981228D01*
X117945631Y-117987417D01*
X117958047Y-117994858D01*
X117969673Y-118003481D01*
X117980398Y-118013202D01*
X117990119Y-118023927D01*
X117998742Y-118035553D01*
X118006183Y-118047969D01*
X118012372Y-118061054D01*
X118017249Y-118074683D01*
X118020766Y-118088724D01*
X118022890Y-118103042D01*
X118023600Y-118117500D01*
X118023600Y-118412500D01*
X118022890Y-118426958D01*
X118020766Y-118441276D01*
X118017249Y-118455317D01*
X118012372Y-118468946D01*
X118006183Y-118482031D01*
X117998742Y-118494447D01*
X117990119Y-118506073D01*
X117980398Y-118516798D01*
X117969673Y-118526519D01*
X117958047Y-118535142D01*
X117945631Y-118542583D01*
X117932546Y-118548772D01*
X117918917Y-118553649D01*
X117904876Y-118557166D01*
X117890558Y-118559290D01*
X117876100Y-118560000D01*
X117531100Y-118560000D01*
X117516642Y-118559290D01*
X117502324Y-118557166D01*
X117488283Y-118553649D01*
X117474654Y-118548772D01*
X117461569Y-118542583D01*
X117449153Y-118535142D01*
X117437527Y-118526519D01*
X117426802Y-118516798D01*
X117417081Y-118506073D01*
X117408458Y-118494447D01*
X117401017Y-118482031D01*
X117394828Y-118468946D01*
X117389951Y-118455317D01*
X117386434Y-118441276D01*
X117384310Y-118426958D01*
X117383600Y-118412500D01*
X117383600Y-118117500D01*
X117384310Y-118103042D01*
X117386434Y-118088724D01*
X117389951Y-118074683D01*
X117394828Y-118061054D01*
X117401017Y-118047969D01*
X117408458Y-118035553D01*
X117417081Y-118023927D01*
X117426802Y-118013202D01*
X117437527Y-118003481D01*
X117449153Y-117994858D01*
X117461569Y-117987417D01*
X117474654Y-117981228D01*
X117488283Y-117976351D01*
X117502324Y-117972834D01*
X117516642Y-117970710D01*
X117531100Y-117970000D01*
X117876100Y-117970000D01*
X117890558Y-117970710D01*
G37*
G36*
X117890558Y-117000710D02*
G01*
X117904876Y-117002834D01*
X117918917Y-117006351D01*
X117932546Y-117011228D01*
X117945631Y-117017417D01*
X117958047Y-117024858D01*
X117969673Y-117033481D01*
X117980398Y-117043202D01*
X117990119Y-117053927D01*
X117998742Y-117065553D01*
X118006183Y-117077969D01*
X118012372Y-117091054D01*
X118017249Y-117104683D01*
X118020766Y-117118724D01*
X118022890Y-117133042D01*
X118023600Y-117147500D01*
X118023600Y-117442500D01*
X118022890Y-117456958D01*
X118020766Y-117471276D01*
X118017249Y-117485317D01*
X118012372Y-117498946D01*
X118006183Y-117512031D01*
X117998742Y-117524447D01*
X117990119Y-117536073D01*
X117980398Y-117546798D01*
X117969673Y-117556519D01*
X117958047Y-117565142D01*
X117945631Y-117572583D01*
X117932546Y-117578772D01*
X117918917Y-117583649D01*
X117904876Y-117587166D01*
X117890558Y-117589290D01*
X117876100Y-117590000D01*
X117531100Y-117590000D01*
X117516642Y-117589290D01*
X117502324Y-117587166D01*
X117488283Y-117583649D01*
X117474654Y-117578772D01*
X117461569Y-117572583D01*
X117449153Y-117565142D01*
X117437527Y-117556519D01*
X117426802Y-117546798D01*
X117417081Y-117536073D01*
X117408458Y-117524447D01*
X117401017Y-117512031D01*
X117394828Y-117498946D01*
X117389951Y-117485317D01*
X117386434Y-117471276D01*
X117384310Y-117456958D01*
X117383600Y-117442500D01*
X117383600Y-117147500D01*
X117384310Y-117133042D01*
X117386434Y-117118724D01*
X117389951Y-117104683D01*
X117394828Y-117091054D01*
X117401017Y-117077969D01*
X117408458Y-117065553D01*
X117417081Y-117053927D01*
X117426802Y-117043202D01*
X117437527Y-117033481D01*
X117449153Y-117024858D01*
X117461569Y-117017417D01*
X117474654Y-117011228D01*
X117488283Y-117006351D01*
X117502324Y-117002834D01*
X117516642Y-117000710D01*
X117531100Y-117000000D01*
X117876100Y-117000000D01*
X117890558Y-117000710D01*
G37*
G36*
X179911958Y-113690710D02*
G01*
X179926276Y-113692834D01*
X179940317Y-113696351D01*
X179953946Y-113701228D01*
X179967031Y-113707417D01*
X179979447Y-113714858D01*
X179991073Y-113723481D01*
X180001798Y-113733202D01*
X180011519Y-113743927D01*
X180020142Y-113755553D01*
X180027583Y-113767969D01*
X180033772Y-113781054D01*
X180038649Y-113794683D01*
X180042166Y-113808724D01*
X180044290Y-113823042D01*
X180045000Y-113837500D01*
X180045000Y-114132500D01*
X180044290Y-114146958D01*
X180042166Y-114161276D01*
X180038649Y-114175317D01*
X180033772Y-114188946D01*
X180027583Y-114202031D01*
X180020142Y-114214447D01*
X180011519Y-114226073D01*
X180001798Y-114236798D01*
X179991073Y-114246519D01*
X179979447Y-114255142D01*
X179967031Y-114262583D01*
X179953946Y-114268772D01*
X179940317Y-114273649D01*
X179926276Y-114277166D01*
X179911958Y-114279290D01*
X179897500Y-114280000D01*
X179552500Y-114280000D01*
X179538042Y-114279290D01*
X179523724Y-114277166D01*
X179509683Y-114273649D01*
X179496054Y-114268772D01*
X179482969Y-114262583D01*
X179470553Y-114255142D01*
X179458927Y-114246519D01*
X179448202Y-114236798D01*
X179438481Y-114226073D01*
X179429858Y-114214447D01*
X179422417Y-114202031D01*
X179416228Y-114188946D01*
X179411351Y-114175317D01*
X179407834Y-114161276D01*
X179405710Y-114146958D01*
X179405000Y-114132500D01*
X179405000Y-113837500D01*
X179405710Y-113823042D01*
X179407834Y-113808724D01*
X179411351Y-113794683D01*
X179416228Y-113781054D01*
X179422417Y-113767969D01*
X179429858Y-113755553D01*
X179438481Y-113743927D01*
X179448202Y-113733202D01*
X179458927Y-113723481D01*
X179470553Y-113714858D01*
X179482969Y-113707417D01*
X179496054Y-113701228D01*
X179509683Y-113696351D01*
X179523724Y-113692834D01*
X179538042Y-113690710D01*
X179552500Y-113690000D01*
X179897500Y-113690000D01*
X179911958Y-113690710D01*
G37*
G36*
X179911958Y-112720710D02*
G01*
X179926276Y-112722834D01*
X179940317Y-112726351D01*
X179953946Y-112731228D01*
X179967031Y-112737417D01*
X179979447Y-112744858D01*
X179991073Y-112753481D01*
X180001798Y-112763202D01*
X180011519Y-112773927D01*
X180020142Y-112785553D01*
X180027583Y-112797969D01*
X180033772Y-112811054D01*
X180038649Y-112824683D01*
X180042166Y-112838724D01*
X180044290Y-112853042D01*
X180045000Y-112867500D01*
X180045000Y-113162500D01*
X180044290Y-113176958D01*
X180042166Y-113191276D01*
X180038649Y-113205317D01*
X180033772Y-113218946D01*
X180027583Y-113232031D01*
X180020142Y-113244447D01*
X180011519Y-113256073D01*
X180001798Y-113266798D01*
X179991073Y-113276519D01*
X179979447Y-113285142D01*
X179967031Y-113292583D01*
X179953946Y-113298772D01*
X179940317Y-113303649D01*
X179926276Y-113307166D01*
X179911958Y-113309290D01*
X179897500Y-113310000D01*
X179552500Y-113310000D01*
X179538042Y-113309290D01*
X179523724Y-113307166D01*
X179509683Y-113303649D01*
X179496054Y-113298772D01*
X179482969Y-113292583D01*
X179470553Y-113285142D01*
X179458927Y-113276519D01*
X179448202Y-113266798D01*
X179438481Y-113256073D01*
X179429858Y-113244447D01*
X179422417Y-113232031D01*
X179416228Y-113218946D01*
X179411351Y-113205317D01*
X179407834Y-113191276D01*
X179405710Y-113176958D01*
X179405000Y-113162500D01*
X179405000Y-112867500D01*
X179405710Y-112853042D01*
X179407834Y-112838724D01*
X179411351Y-112824683D01*
X179416228Y-112811054D01*
X179422417Y-112797969D01*
X179429858Y-112785553D01*
X179438481Y-112773927D01*
X179448202Y-112763202D01*
X179458927Y-112753481D01*
X179470553Y-112744858D01*
X179482969Y-112737417D01*
X179496054Y-112731228D01*
X179509683Y-112726351D01*
X179523724Y-112722834D01*
X179538042Y-112720710D01*
X179552500Y-112720000D01*
X179897500Y-112720000D01*
X179911958Y-112720710D01*
G37*
G36*
X109336958Y-110350710D02*
G01*
X109351276Y-110352834D01*
X109365317Y-110356351D01*
X109378946Y-110361228D01*
X109392031Y-110367417D01*
X109404447Y-110374858D01*
X109416073Y-110383481D01*
X109426798Y-110393202D01*
X109436519Y-110403927D01*
X109445142Y-110415553D01*
X109452583Y-110427969D01*
X109458772Y-110441054D01*
X109463649Y-110454683D01*
X109467166Y-110468724D01*
X109469290Y-110483042D01*
X109470000Y-110497500D01*
X109470000Y-110792500D01*
X109469290Y-110806958D01*
X109467166Y-110821276D01*
X109463649Y-110835317D01*
X109458772Y-110848946D01*
X109452583Y-110862031D01*
X109445142Y-110874447D01*
X109436519Y-110886073D01*
X109426798Y-110896798D01*
X109416073Y-110906519D01*
X109404447Y-110915142D01*
X109392031Y-110922583D01*
X109378946Y-110928772D01*
X109365317Y-110933649D01*
X109351276Y-110937166D01*
X109336958Y-110939290D01*
X109322500Y-110940000D01*
X108977500Y-110940000D01*
X108963042Y-110939290D01*
X108948724Y-110937166D01*
X108934683Y-110933649D01*
X108921054Y-110928772D01*
X108907969Y-110922583D01*
X108895553Y-110915142D01*
X108883927Y-110906519D01*
X108873202Y-110896798D01*
X108863481Y-110886073D01*
X108854858Y-110874447D01*
X108847417Y-110862031D01*
X108841228Y-110848946D01*
X108836351Y-110835317D01*
X108832834Y-110821276D01*
X108830710Y-110806958D01*
X108830000Y-110792500D01*
X108830000Y-110497500D01*
X108830710Y-110483042D01*
X108832834Y-110468724D01*
X108836351Y-110454683D01*
X108841228Y-110441054D01*
X108847417Y-110427969D01*
X108854858Y-110415553D01*
X108863481Y-110403927D01*
X108873202Y-110393202D01*
X108883927Y-110383481D01*
X108895553Y-110374858D01*
X108907969Y-110367417D01*
X108921054Y-110361228D01*
X108934683Y-110356351D01*
X108948724Y-110352834D01*
X108963042Y-110350710D01*
X108977500Y-110350000D01*
X109322500Y-110350000D01*
X109336958Y-110350710D01*
G37*
G36*
X109336958Y-111320710D02*
G01*
X109351276Y-111322834D01*
X109365317Y-111326351D01*
X109378946Y-111331228D01*
X109392031Y-111337417D01*
X109404447Y-111344858D01*
X109416073Y-111353481D01*
X109426798Y-111363202D01*
X109436519Y-111373927D01*
X109445142Y-111385553D01*
X109452583Y-111397969D01*
X109458772Y-111411054D01*
X109463649Y-111424683D01*
X109467166Y-111438724D01*
X109469290Y-111453042D01*
X109470000Y-111467500D01*
X109470000Y-111762500D01*
X109469290Y-111776958D01*
X109467166Y-111791276D01*
X109463649Y-111805317D01*
X109458772Y-111818946D01*
X109452583Y-111832031D01*
X109445142Y-111844447D01*
X109436519Y-111856073D01*
X109426798Y-111866798D01*
X109416073Y-111876519D01*
X109404447Y-111885142D01*
X109392031Y-111892583D01*
X109378946Y-111898772D01*
X109365317Y-111903649D01*
X109351276Y-111907166D01*
X109336958Y-111909290D01*
X109322500Y-111910000D01*
X108977500Y-111910000D01*
X108963042Y-111909290D01*
X108948724Y-111907166D01*
X108934683Y-111903649D01*
X108921054Y-111898772D01*
X108907969Y-111892583D01*
X108895553Y-111885142D01*
X108883927Y-111876519D01*
X108873202Y-111866798D01*
X108863481Y-111856073D01*
X108854858Y-111844447D01*
X108847417Y-111832031D01*
X108841228Y-111818946D01*
X108836351Y-111805317D01*
X108832834Y-111791276D01*
X108830710Y-111776958D01*
X108830000Y-111762500D01*
X108830000Y-111467500D01*
X108830710Y-111453042D01*
X108832834Y-111438724D01*
X108836351Y-111424683D01*
X108841228Y-111411054D01*
X108847417Y-111397969D01*
X108854858Y-111385553D01*
X108863481Y-111373927D01*
X108873202Y-111363202D01*
X108883927Y-111353481D01*
X108895553Y-111344858D01*
X108907969Y-111337417D01*
X108921054Y-111331228D01*
X108934683Y-111326351D01*
X108948724Y-111322834D01*
X108963042Y-111320710D01*
X108977500Y-111320000D01*
X109322500Y-111320000D01*
X109336958Y-111320710D01*
G37*
G36*
X109336958Y-118350710D02*
G01*
X109351276Y-118352834D01*
X109365317Y-118356351D01*
X109378946Y-118361228D01*
X109392031Y-118367417D01*
X109404447Y-118374858D01*
X109416073Y-118383481D01*
X109426798Y-118393202D01*
X109436519Y-118403927D01*
X109445142Y-118415553D01*
X109452583Y-118427969D01*
X109458772Y-118441054D01*
X109463649Y-118454683D01*
X109467166Y-118468724D01*
X109469290Y-118483042D01*
X109470000Y-118497500D01*
X109470000Y-118792500D01*
X109469290Y-118806958D01*
X109467166Y-118821276D01*
X109463649Y-118835317D01*
X109458772Y-118848946D01*
X109452583Y-118862031D01*
X109445142Y-118874447D01*
X109436519Y-118886073D01*
X109426798Y-118896798D01*
X109416073Y-118906519D01*
X109404447Y-118915142D01*
X109392031Y-118922583D01*
X109378946Y-118928772D01*
X109365317Y-118933649D01*
X109351276Y-118937166D01*
X109336958Y-118939290D01*
X109322500Y-118940000D01*
X108977500Y-118940000D01*
X108963042Y-118939290D01*
X108948724Y-118937166D01*
X108934683Y-118933649D01*
X108921054Y-118928772D01*
X108907969Y-118922583D01*
X108895553Y-118915142D01*
X108883927Y-118906519D01*
X108873202Y-118896798D01*
X108863481Y-118886073D01*
X108854858Y-118874447D01*
X108847417Y-118862031D01*
X108841228Y-118848946D01*
X108836351Y-118835317D01*
X108832834Y-118821276D01*
X108830710Y-118806958D01*
X108830000Y-118792500D01*
X108830000Y-118497500D01*
X108830710Y-118483042D01*
X108832834Y-118468724D01*
X108836351Y-118454683D01*
X108841228Y-118441054D01*
X108847417Y-118427969D01*
X108854858Y-118415553D01*
X108863481Y-118403927D01*
X108873202Y-118393202D01*
X108883927Y-118383481D01*
X108895553Y-118374858D01*
X108907969Y-118367417D01*
X108921054Y-118361228D01*
X108934683Y-118356351D01*
X108948724Y-118352834D01*
X108963042Y-118350710D01*
X108977500Y-118350000D01*
X109322500Y-118350000D01*
X109336958Y-118350710D01*
G37*
G36*
X109336958Y-117380710D02*
G01*
X109351276Y-117382834D01*
X109365317Y-117386351D01*
X109378946Y-117391228D01*
X109392031Y-117397417D01*
X109404447Y-117404858D01*
X109416073Y-117413481D01*
X109426798Y-117423202D01*
X109436519Y-117433927D01*
X109445142Y-117445553D01*
X109452583Y-117457969D01*
X109458772Y-117471054D01*
X109463649Y-117484683D01*
X109467166Y-117498724D01*
X109469290Y-117513042D01*
X109470000Y-117527500D01*
X109470000Y-117822500D01*
X109469290Y-117836958D01*
X109467166Y-117851276D01*
X109463649Y-117865317D01*
X109458772Y-117878946D01*
X109452583Y-117892031D01*
X109445142Y-117904447D01*
X109436519Y-117916073D01*
X109426798Y-117926798D01*
X109416073Y-117936519D01*
X109404447Y-117945142D01*
X109392031Y-117952583D01*
X109378946Y-117958772D01*
X109365317Y-117963649D01*
X109351276Y-117967166D01*
X109336958Y-117969290D01*
X109322500Y-117970000D01*
X108977500Y-117970000D01*
X108963042Y-117969290D01*
X108948724Y-117967166D01*
X108934683Y-117963649D01*
X108921054Y-117958772D01*
X108907969Y-117952583D01*
X108895553Y-117945142D01*
X108883927Y-117936519D01*
X108873202Y-117926798D01*
X108863481Y-117916073D01*
X108854858Y-117904447D01*
X108847417Y-117892031D01*
X108841228Y-117878946D01*
X108836351Y-117865317D01*
X108832834Y-117851276D01*
X108830710Y-117836958D01*
X108830000Y-117822500D01*
X108830000Y-117527500D01*
X108830710Y-117513042D01*
X108832834Y-117498724D01*
X108836351Y-117484683D01*
X108841228Y-117471054D01*
X108847417Y-117457969D01*
X108854858Y-117445553D01*
X108863481Y-117433927D01*
X108873202Y-117423202D01*
X108883927Y-117413481D01*
X108895553Y-117404858D01*
X108907969Y-117397417D01*
X108921054Y-117391228D01*
X108934683Y-117386351D01*
X108948724Y-117382834D01*
X108963042Y-117380710D01*
X108977500Y-117380000D01*
X109322500Y-117380000D01*
X109336958Y-117380710D01*
G37*
G36*
X186002408Y-117974710D02*
G01*
X186016726Y-117976834D01*
X186030767Y-117980351D01*
X186044396Y-117985228D01*
X186057481Y-117991417D01*
X186069897Y-117998858D01*
X186081523Y-118007481D01*
X186092248Y-118017202D01*
X186101969Y-118027927D01*
X186110592Y-118039553D01*
X186118033Y-118051969D01*
X186124222Y-118065054D01*
X186129099Y-118078683D01*
X186132616Y-118092724D01*
X186134740Y-118107042D01*
X186135450Y-118121500D01*
X186135450Y-118416500D01*
X186134740Y-118430958D01*
X186132616Y-118445276D01*
X186129099Y-118459317D01*
X186124222Y-118472946D01*
X186118033Y-118486031D01*
X186110592Y-118498447D01*
X186101969Y-118510073D01*
X186092248Y-118520798D01*
X186081523Y-118530519D01*
X186069897Y-118539142D01*
X186057481Y-118546583D01*
X186044396Y-118552772D01*
X186030767Y-118557649D01*
X186016726Y-118561166D01*
X186002408Y-118563290D01*
X185987950Y-118564000D01*
X185642950Y-118564000D01*
X185628492Y-118563290D01*
X185614174Y-118561166D01*
X185600133Y-118557649D01*
X185586504Y-118552772D01*
X185573419Y-118546583D01*
X185561003Y-118539142D01*
X185549377Y-118530519D01*
X185538652Y-118520798D01*
X185528931Y-118510073D01*
X185520308Y-118498447D01*
X185512867Y-118486031D01*
X185506678Y-118472946D01*
X185501801Y-118459317D01*
X185498284Y-118445276D01*
X185496160Y-118430958D01*
X185495450Y-118416500D01*
X185495450Y-118121500D01*
X185496160Y-118107042D01*
X185498284Y-118092724D01*
X185501801Y-118078683D01*
X185506678Y-118065054D01*
X185512867Y-118051969D01*
X185520308Y-118039553D01*
X185528931Y-118027927D01*
X185538652Y-118017202D01*
X185549377Y-118007481D01*
X185561003Y-117998858D01*
X185573419Y-117991417D01*
X185586504Y-117985228D01*
X185600133Y-117980351D01*
X185614174Y-117976834D01*
X185628492Y-117974710D01*
X185642950Y-117974000D01*
X185987950Y-117974000D01*
X186002408Y-117974710D01*
G37*
G36*
X186002408Y-117004710D02*
G01*
X186016726Y-117006834D01*
X186030767Y-117010351D01*
X186044396Y-117015228D01*
X186057481Y-117021417D01*
X186069897Y-117028858D01*
X186081523Y-117037481D01*
X186092248Y-117047202D01*
X186101969Y-117057927D01*
X186110592Y-117069553D01*
X186118033Y-117081969D01*
X186124222Y-117095054D01*
X186129099Y-117108683D01*
X186132616Y-117122724D01*
X186134740Y-117137042D01*
X186135450Y-117151500D01*
X186135450Y-117446500D01*
X186134740Y-117460958D01*
X186132616Y-117475276D01*
X186129099Y-117489317D01*
X186124222Y-117502946D01*
X186118033Y-117516031D01*
X186110592Y-117528447D01*
X186101969Y-117540073D01*
X186092248Y-117550798D01*
X186081523Y-117560519D01*
X186069897Y-117569142D01*
X186057481Y-117576583D01*
X186044396Y-117582772D01*
X186030767Y-117587649D01*
X186016726Y-117591166D01*
X186002408Y-117593290D01*
X185987950Y-117594000D01*
X185642950Y-117594000D01*
X185628492Y-117593290D01*
X185614174Y-117591166D01*
X185600133Y-117587649D01*
X185586504Y-117582772D01*
X185573419Y-117576583D01*
X185561003Y-117569142D01*
X185549377Y-117560519D01*
X185538652Y-117550798D01*
X185528931Y-117540073D01*
X185520308Y-117528447D01*
X185512867Y-117516031D01*
X185506678Y-117502946D01*
X185501801Y-117489317D01*
X185498284Y-117475276D01*
X185496160Y-117460958D01*
X185495450Y-117446500D01*
X185495450Y-117151500D01*
X185496160Y-117137042D01*
X185498284Y-117122724D01*
X185501801Y-117108683D01*
X185506678Y-117095054D01*
X185512867Y-117081969D01*
X185520308Y-117069553D01*
X185528931Y-117057927D01*
X185538652Y-117047202D01*
X185549377Y-117037481D01*
X185561003Y-117028858D01*
X185573419Y-117021417D01*
X185586504Y-117015228D01*
X185600133Y-117010351D01*
X185614174Y-117006834D01*
X185628492Y-117004710D01*
X185642950Y-117004000D01*
X185987950Y-117004000D01*
X186002408Y-117004710D01*
G37*
G36*
X115045758Y-117970710D02*
G01*
X115060076Y-117972834D01*
X115074117Y-117976351D01*
X115087746Y-117981228D01*
X115100831Y-117987417D01*
X115113247Y-117994858D01*
X115124873Y-118003481D01*
X115135598Y-118013202D01*
X115145319Y-118023927D01*
X115153942Y-118035553D01*
X115161383Y-118047969D01*
X115167572Y-118061054D01*
X115172449Y-118074683D01*
X115175966Y-118088724D01*
X115178090Y-118103042D01*
X115178800Y-118117500D01*
X115178800Y-118412500D01*
X115178090Y-118426958D01*
X115175966Y-118441276D01*
X115172449Y-118455317D01*
X115167572Y-118468946D01*
X115161383Y-118482031D01*
X115153942Y-118494447D01*
X115145319Y-118506073D01*
X115135598Y-118516798D01*
X115124873Y-118526519D01*
X115113247Y-118535142D01*
X115100831Y-118542583D01*
X115087746Y-118548772D01*
X115074117Y-118553649D01*
X115060076Y-118557166D01*
X115045758Y-118559290D01*
X115031300Y-118560000D01*
X114686300Y-118560000D01*
X114671842Y-118559290D01*
X114657524Y-118557166D01*
X114643483Y-118553649D01*
X114629854Y-118548772D01*
X114616769Y-118542583D01*
X114604353Y-118535142D01*
X114592727Y-118526519D01*
X114582002Y-118516798D01*
X114572281Y-118506073D01*
X114563658Y-118494447D01*
X114556217Y-118482031D01*
X114550028Y-118468946D01*
X114545151Y-118455317D01*
X114541634Y-118441276D01*
X114539510Y-118426958D01*
X114538800Y-118412500D01*
X114538800Y-118117500D01*
X114539510Y-118103042D01*
X114541634Y-118088724D01*
X114545151Y-118074683D01*
X114550028Y-118061054D01*
X114556217Y-118047969D01*
X114563658Y-118035553D01*
X114572281Y-118023927D01*
X114582002Y-118013202D01*
X114592727Y-118003481D01*
X114604353Y-117994858D01*
X114616769Y-117987417D01*
X114629854Y-117981228D01*
X114643483Y-117976351D01*
X114657524Y-117972834D01*
X114671842Y-117970710D01*
X114686300Y-117970000D01*
X115031300Y-117970000D01*
X115045758Y-117970710D01*
G37*
G36*
X115045758Y-117000710D02*
G01*
X115060076Y-117002834D01*
X115074117Y-117006351D01*
X115087746Y-117011228D01*
X115100831Y-117017417D01*
X115113247Y-117024858D01*
X115124873Y-117033481D01*
X115135598Y-117043202D01*
X115145319Y-117053927D01*
X115153942Y-117065553D01*
X115161383Y-117077969D01*
X115167572Y-117091054D01*
X115172449Y-117104683D01*
X115175966Y-117118724D01*
X115178090Y-117133042D01*
X115178800Y-117147500D01*
X115178800Y-117442500D01*
X115178090Y-117456958D01*
X115175966Y-117471276D01*
X115172449Y-117485317D01*
X115167572Y-117498946D01*
X115161383Y-117512031D01*
X115153942Y-117524447D01*
X115145319Y-117536073D01*
X115135598Y-117546798D01*
X115124873Y-117556519D01*
X115113247Y-117565142D01*
X115100831Y-117572583D01*
X115087746Y-117578772D01*
X115074117Y-117583649D01*
X115060076Y-117587166D01*
X115045758Y-117589290D01*
X115031300Y-117590000D01*
X114686300Y-117590000D01*
X114671842Y-117589290D01*
X114657524Y-117587166D01*
X114643483Y-117583649D01*
X114629854Y-117578772D01*
X114616769Y-117572583D01*
X114604353Y-117565142D01*
X114592727Y-117556519D01*
X114582002Y-117546798D01*
X114572281Y-117536073D01*
X114563658Y-117524447D01*
X114556217Y-117512031D01*
X114550028Y-117498946D01*
X114545151Y-117485317D01*
X114541634Y-117471276D01*
X114539510Y-117456958D01*
X114538800Y-117442500D01*
X114538800Y-117147500D01*
X114539510Y-117133042D01*
X114541634Y-117118724D01*
X114545151Y-117104683D01*
X114550028Y-117091054D01*
X114556217Y-117077969D01*
X114563658Y-117065553D01*
X114572281Y-117053927D01*
X114582002Y-117043202D01*
X114592727Y-117033481D01*
X114604353Y-117024858D01*
X114616769Y-117017417D01*
X114629854Y-117011228D01*
X114643483Y-117006351D01*
X114657524Y-117002834D01*
X114671842Y-117000710D01*
X114686300Y-117000000D01*
X115031300Y-117000000D01*
X115045758Y-117000710D01*
G37*
G36*
X179480483Y-117230448D02*
G01*
X179494801Y-117232572D01*
X179508842Y-117236089D01*
X179522471Y-117240966D01*
X179535556Y-117247155D01*
X179547972Y-117254596D01*
X179559598Y-117263219D01*
X179570323Y-117272940D01*
X179580044Y-117283665D01*
X179588667Y-117295291D01*
X179596108Y-117307707D01*
X179602297Y-117320792D01*
X179607174Y-117334421D01*
X179610691Y-117348462D01*
X179612815Y-117362780D01*
X179613525Y-117377238D01*
X179613525Y-117672238D01*
X179612815Y-117686696D01*
X179610691Y-117701014D01*
X179607174Y-117715055D01*
X179602297Y-117728684D01*
X179596108Y-117741769D01*
X179588667Y-117754185D01*
X179580044Y-117765811D01*
X179570323Y-117776536D01*
X179559598Y-117786257D01*
X179547972Y-117794880D01*
X179535556Y-117802321D01*
X179522471Y-117808510D01*
X179508842Y-117813387D01*
X179494801Y-117816904D01*
X179480483Y-117819028D01*
X179466025Y-117819738D01*
X179121025Y-117819738D01*
X179106567Y-117819028D01*
X179092249Y-117816904D01*
X179078208Y-117813387D01*
X179064579Y-117808510D01*
X179051494Y-117802321D01*
X179039078Y-117794880D01*
X179027452Y-117786257D01*
X179016727Y-117776536D01*
X179007006Y-117765811D01*
X178998383Y-117754185D01*
X178990942Y-117741769D01*
X178984753Y-117728684D01*
X178979876Y-117715055D01*
X178976359Y-117701014D01*
X178974235Y-117686696D01*
X178973525Y-117672238D01*
X178973525Y-117377238D01*
X178974235Y-117362780D01*
X178976359Y-117348462D01*
X178979876Y-117334421D01*
X178984753Y-117320792D01*
X178990942Y-117307707D01*
X178998383Y-117295291D01*
X179007006Y-117283665D01*
X179016727Y-117272940D01*
X179027452Y-117263219D01*
X179039078Y-117254596D01*
X179051494Y-117247155D01*
X179064579Y-117240966D01*
X179078208Y-117236089D01*
X179092249Y-117232572D01*
X179106567Y-117230448D01*
X179121025Y-117229738D01*
X179466025Y-117229738D01*
X179480483Y-117230448D01*
G37*
G36*
X179480483Y-116260448D02*
G01*
X179494801Y-116262572D01*
X179508842Y-116266089D01*
X179522471Y-116270966D01*
X179535556Y-116277155D01*
X179547972Y-116284596D01*
X179559598Y-116293219D01*
X179570323Y-116302940D01*
X179580044Y-116313665D01*
X179588667Y-116325291D01*
X179596108Y-116337707D01*
X179602297Y-116350792D01*
X179607174Y-116364421D01*
X179610691Y-116378462D01*
X179612815Y-116392780D01*
X179613525Y-116407238D01*
X179613525Y-116702238D01*
X179612815Y-116716696D01*
X179610691Y-116731014D01*
X179607174Y-116745055D01*
X179602297Y-116758684D01*
X179596108Y-116771769D01*
X179588667Y-116784185D01*
X179580044Y-116795811D01*
X179570323Y-116806536D01*
X179559598Y-116816257D01*
X179547972Y-116824880D01*
X179535556Y-116832321D01*
X179522471Y-116838510D01*
X179508842Y-116843387D01*
X179494801Y-116846904D01*
X179480483Y-116849028D01*
X179466025Y-116849738D01*
X179121025Y-116849738D01*
X179106567Y-116849028D01*
X179092249Y-116846904D01*
X179078208Y-116843387D01*
X179064579Y-116838510D01*
X179051494Y-116832321D01*
X179039078Y-116824880D01*
X179027452Y-116816257D01*
X179016727Y-116806536D01*
X179007006Y-116795811D01*
X178998383Y-116784185D01*
X178990942Y-116771769D01*
X178984753Y-116758684D01*
X178979876Y-116745055D01*
X178976359Y-116731014D01*
X178974235Y-116716696D01*
X178973525Y-116702238D01*
X178973525Y-116407238D01*
X178974235Y-116392780D01*
X178976359Y-116378462D01*
X178979876Y-116364421D01*
X178984753Y-116350792D01*
X178990942Y-116337707D01*
X178998383Y-116325291D01*
X179007006Y-116313665D01*
X179016727Y-116302940D01*
X179027452Y-116293219D01*
X179039078Y-116284596D01*
X179051494Y-116277155D01*
X179064579Y-116270966D01*
X179078208Y-116266089D01*
X179092249Y-116262572D01*
X179106567Y-116260448D01*
X179121025Y-116259738D01*
X179466025Y-116259738D01*
X179480483Y-116260448D01*
G37*
G36*
X179480483Y-109270710D02*
G01*
X179494801Y-109272834D01*
X179508842Y-109276351D01*
X179522471Y-109281228D01*
X179535556Y-109287417D01*
X179547972Y-109294858D01*
X179559598Y-109303481D01*
X179570323Y-109313202D01*
X179580044Y-109323927D01*
X179588667Y-109335553D01*
X179596108Y-109347969D01*
X179602297Y-109361054D01*
X179607174Y-109374683D01*
X179610691Y-109388724D01*
X179612815Y-109403042D01*
X179613525Y-109417500D01*
X179613525Y-109712500D01*
X179612815Y-109726958D01*
X179610691Y-109741276D01*
X179607174Y-109755317D01*
X179602297Y-109768946D01*
X179596108Y-109782031D01*
X179588667Y-109794447D01*
X179580044Y-109806073D01*
X179570323Y-109816798D01*
X179559598Y-109826519D01*
X179547972Y-109835142D01*
X179535556Y-109842583D01*
X179522471Y-109848772D01*
X179508842Y-109853649D01*
X179494801Y-109857166D01*
X179480483Y-109859290D01*
X179466025Y-109860000D01*
X179121025Y-109860000D01*
X179106567Y-109859290D01*
X179092249Y-109857166D01*
X179078208Y-109853649D01*
X179064579Y-109848772D01*
X179051494Y-109842583D01*
X179039078Y-109835142D01*
X179027452Y-109826519D01*
X179016727Y-109816798D01*
X179007006Y-109806073D01*
X178998383Y-109794447D01*
X178990942Y-109782031D01*
X178984753Y-109768946D01*
X178979876Y-109755317D01*
X178976359Y-109741276D01*
X178974235Y-109726958D01*
X178973525Y-109712500D01*
X178973525Y-109417500D01*
X178974235Y-109403042D01*
X178976359Y-109388724D01*
X178979876Y-109374683D01*
X178984753Y-109361054D01*
X178990942Y-109347969D01*
X178998383Y-109335553D01*
X179007006Y-109323927D01*
X179016727Y-109313202D01*
X179027452Y-109303481D01*
X179039078Y-109294858D01*
X179051494Y-109287417D01*
X179064579Y-109281228D01*
X179078208Y-109276351D01*
X179092249Y-109272834D01*
X179106567Y-109270710D01*
X179121025Y-109270000D01*
X179466025Y-109270000D01*
X179480483Y-109270710D01*
G37*
G36*
X179480483Y-110240710D02*
G01*
X179494801Y-110242834D01*
X179508842Y-110246351D01*
X179522471Y-110251228D01*
X179535556Y-110257417D01*
X179547972Y-110264858D01*
X179559598Y-110273481D01*
X179570323Y-110283202D01*
X179580044Y-110293927D01*
X179588667Y-110305553D01*
X179596108Y-110317969D01*
X179602297Y-110331054D01*
X179607174Y-110344683D01*
X179610691Y-110358724D01*
X179612815Y-110373042D01*
X179613525Y-110387500D01*
X179613525Y-110682500D01*
X179612815Y-110696958D01*
X179610691Y-110711276D01*
X179607174Y-110725317D01*
X179602297Y-110738946D01*
X179596108Y-110752031D01*
X179588667Y-110764447D01*
X179580044Y-110776073D01*
X179570323Y-110786798D01*
X179559598Y-110796519D01*
X179547972Y-110805142D01*
X179535556Y-110812583D01*
X179522471Y-110818772D01*
X179508842Y-110823649D01*
X179494801Y-110827166D01*
X179480483Y-110829290D01*
X179466025Y-110830000D01*
X179121025Y-110830000D01*
X179106567Y-110829290D01*
X179092249Y-110827166D01*
X179078208Y-110823649D01*
X179064579Y-110818772D01*
X179051494Y-110812583D01*
X179039078Y-110805142D01*
X179027452Y-110796519D01*
X179016727Y-110786798D01*
X179007006Y-110776073D01*
X178998383Y-110764447D01*
X178990942Y-110752031D01*
X178984753Y-110738946D01*
X178979876Y-110725317D01*
X178976359Y-110711276D01*
X178974235Y-110696958D01*
X178973525Y-110682500D01*
X178973525Y-110387500D01*
X178974235Y-110373042D01*
X178976359Y-110358724D01*
X178979876Y-110344683D01*
X178984753Y-110331054D01*
X178990942Y-110317969D01*
X178998383Y-110305553D01*
X179007006Y-110293927D01*
X179016727Y-110283202D01*
X179027452Y-110273481D01*
X179039078Y-110264858D01*
X179051494Y-110257417D01*
X179064579Y-110251228D01*
X179078208Y-110246351D01*
X179092249Y-110242834D01*
X179106567Y-110240710D01*
X179121025Y-110240000D01*
X179466025Y-110240000D01*
X179480483Y-110240710D01*
G37*
D21*
X109790000Y-106680000D03*
X111190000Y-106680000D03*
D14*
X113517797Y-104740280D03*
X113517797Y-102840280D03*
X116217797Y-104740280D03*
X116217797Y-103790280D03*
X116217797Y-102840280D03*
D13*
G36*
X187455682Y-117004710D02*
G01*
X187470000Y-117006834D01*
X187484041Y-117010351D01*
X187497670Y-117015228D01*
X187510755Y-117021417D01*
X187523171Y-117028858D01*
X187534797Y-117037481D01*
X187545522Y-117047202D01*
X187555243Y-117057927D01*
X187563866Y-117069553D01*
X187571307Y-117081969D01*
X187577496Y-117095054D01*
X187582373Y-117108683D01*
X187585890Y-117122724D01*
X187588014Y-117137042D01*
X187588724Y-117151500D01*
X187588724Y-117446500D01*
X187588014Y-117460958D01*
X187585890Y-117475276D01*
X187582373Y-117489317D01*
X187577496Y-117502946D01*
X187571307Y-117516031D01*
X187563866Y-117528447D01*
X187555243Y-117540073D01*
X187545522Y-117550798D01*
X187534797Y-117560519D01*
X187523171Y-117569142D01*
X187510755Y-117576583D01*
X187497670Y-117582772D01*
X187484041Y-117587649D01*
X187470000Y-117591166D01*
X187455682Y-117593290D01*
X187441224Y-117594000D01*
X187096224Y-117594000D01*
X187081766Y-117593290D01*
X187067448Y-117591166D01*
X187053407Y-117587649D01*
X187039778Y-117582772D01*
X187026693Y-117576583D01*
X187014277Y-117569142D01*
X187002651Y-117560519D01*
X186991926Y-117550798D01*
X186982205Y-117540073D01*
X186973582Y-117528447D01*
X186966141Y-117516031D01*
X186959952Y-117502946D01*
X186955075Y-117489317D01*
X186951558Y-117475276D01*
X186949434Y-117460958D01*
X186948724Y-117446500D01*
X186948724Y-117151500D01*
X186949434Y-117137042D01*
X186951558Y-117122724D01*
X186955075Y-117108683D01*
X186959952Y-117095054D01*
X186966141Y-117081969D01*
X186973582Y-117069553D01*
X186982205Y-117057927D01*
X186991926Y-117047202D01*
X187002651Y-117037481D01*
X187014277Y-117028858D01*
X187026693Y-117021417D01*
X187039778Y-117015228D01*
X187053407Y-117010351D01*
X187067448Y-117006834D01*
X187081766Y-117004710D01*
X187096224Y-117004000D01*
X187441224Y-117004000D01*
X187455682Y-117004710D01*
G37*
G36*
X187455682Y-117974710D02*
G01*
X187470000Y-117976834D01*
X187484041Y-117980351D01*
X187497670Y-117985228D01*
X187510755Y-117991417D01*
X187523171Y-117998858D01*
X187534797Y-118007481D01*
X187545522Y-118017202D01*
X187555243Y-118027927D01*
X187563866Y-118039553D01*
X187571307Y-118051969D01*
X187577496Y-118065054D01*
X187582373Y-118078683D01*
X187585890Y-118092724D01*
X187588014Y-118107042D01*
X187588724Y-118121500D01*
X187588724Y-118416500D01*
X187588014Y-118430958D01*
X187585890Y-118445276D01*
X187582373Y-118459317D01*
X187577496Y-118472946D01*
X187571307Y-118486031D01*
X187563866Y-118498447D01*
X187555243Y-118510073D01*
X187545522Y-118520798D01*
X187534797Y-118530519D01*
X187523171Y-118539142D01*
X187510755Y-118546583D01*
X187497670Y-118552772D01*
X187484041Y-118557649D01*
X187470000Y-118561166D01*
X187455682Y-118563290D01*
X187441224Y-118564000D01*
X187096224Y-118564000D01*
X187081766Y-118563290D01*
X187067448Y-118561166D01*
X187053407Y-118557649D01*
X187039778Y-118552772D01*
X187026693Y-118546583D01*
X187014277Y-118539142D01*
X187002651Y-118530519D01*
X186991926Y-118520798D01*
X186982205Y-118510073D01*
X186973582Y-118498447D01*
X186966141Y-118486031D01*
X186959952Y-118472946D01*
X186955075Y-118459317D01*
X186951558Y-118445276D01*
X186949434Y-118430958D01*
X186948724Y-118416500D01*
X186948724Y-118121500D01*
X186949434Y-118107042D01*
X186951558Y-118092724D01*
X186955075Y-118078683D01*
X186959952Y-118065054D01*
X186966141Y-118051969D01*
X186973582Y-118039553D01*
X186982205Y-118027927D01*
X186991926Y-118017202D01*
X187002651Y-118007481D01*
X187014277Y-117998858D01*
X187026693Y-117991417D01*
X187039778Y-117985228D01*
X187053407Y-117980351D01*
X187067448Y-117976834D01*
X187081766Y-117974710D01*
X187096224Y-117974000D01*
X187441224Y-117974000D01*
X187455682Y-117974710D01*
G37*
G36*
X113623358Y-117000710D02*
G01*
X113637676Y-117002834D01*
X113651717Y-117006351D01*
X113665346Y-117011228D01*
X113678431Y-117017417D01*
X113690847Y-117024858D01*
X113702473Y-117033481D01*
X113713198Y-117043202D01*
X113722919Y-117053927D01*
X113731542Y-117065553D01*
X113738983Y-117077969D01*
X113745172Y-117091054D01*
X113750049Y-117104683D01*
X113753566Y-117118724D01*
X113755690Y-117133042D01*
X113756400Y-117147500D01*
X113756400Y-117442500D01*
X113755690Y-117456958D01*
X113753566Y-117471276D01*
X113750049Y-117485317D01*
X113745172Y-117498946D01*
X113738983Y-117512031D01*
X113731542Y-117524447D01*
X113722919Y-117536073D01*
X113713198Y-117546798D01*
X113702473Y-117556519D01*
X113690847Y-117565142D01*
X113678431Y-117572583D01*
X113665346Y-117578772D01*
X113651717Y-117583649D01*
X113637676Y-117587166D01*
X113623358Y-117589290D01*
X113608900Y-117590000D01*
X113263900Y-117590000D01*
X113249442Y-117589290D01*
X113235124Y-117587166D01*
X113221083Y-117583649D01*
X113207454Y-117578772D01*
X113194369Y-117572583D01*
X113181953Y-117565142D01*
X113170327Y-117556519D01*
X113159602Y-117546798D01*
X113149881Y-117536073D01*
X113141258Y-117524447D01*
X113133817Y-117512031D01*
X113127628Y-117498946D01*
X113122751Y-117485317D01*
X113119234Y-117471276D01*
X113117110Y-117456958D01*
X113116400Y-117442500D01*
X113116400Y-117147500D01*
X113117110Y-117133042D01*
X113119234Y-117118724D01*
X113122751Y-117104683D01*
X113127628Y-117091054D01*
X113133817Y-117077969D01*
X113141258Y-117065553D01*
X113149881Y-117053927D01*
X113159602Y-117043202D01*
X113170327Y-117033481D01*
X113181953Y-117024858D01*
X113194369Y-117017417D01*
X113207454Y-117011228D01*
X113221083Y-117006351D01*
X113235124Y-117002834D01*
X113249442Y-117000710D01*
X113263900Y-117000000D01*
X113608900Y-117000000D01*
X113623358Y-117000710D01*
G37*
G36*
X113623358Y-117970710D02*
G01*
X113637676Y-117972834D01*
X113651717Y-117976351D01*
X113665346Y-117981228D01*
X113678431Y-117987417D01*
X113690847Y-117994858D01*
X113702473Y-118003481D01*
X113713198Y-118013202D01*
X113722919Y-118023927D01*
X113731542Y-118035553D01*
X113738983Y-118047969D01*
X113745172Y-118061054D01*
X113750049Y-118074683D01*
X113753566Y-118088724D01*
X113755690Y-118103042D01*
X113756400Y-118117500D01*
X113756400Y-118412500D01*
X113755690Y-118426958D01*
X113753566Y-118441276D01*
X113750049Y-118455317D01*
X113745172Y-118468946D01*
X113738983Y-118482031D01*
X113731542Y-118494447D01*
X113722919Y-118506073D01*
X113713198Y-118516798D01*
X113702473Y-118526519D01*
X113690847Y-118535142D01*
X113678431Y-118542583D01*
X113665346Y-118548772D01*
X113651717Y-118553649D01*
X113637676Y-118557166D01*
X113623358Y-118559290D01*
X113608900Y-118560000D01*
X113263900Y-118560000D01*
X113249442Y-118559290D01*
X113235124Y-118557166D01*
X113221083Y-118553649D01*
X113207454Y-118548772D01*
X113194369Y-118542583D01*
X113181953Y-118535142D01*
X113170327Y-118526519D01*
X113159602Y-118516798D01*
X113149881Y-118506073D01*
X113141258Y-118494447D01*
X113133817Y-118482031D01*
X113127628Y-118468946D01*
X113122751Y-118455317D01*
X113119234Y-118441276D01*
X113117110Y-118426958D01*
X113116400Y-118412500D01*
X113116400Y-118117500D01*
X113117110Y-118103042D01*
X113119234Y-118088724D01*
X113122751Y-118074683D01*
X113127628Y-118061054D01*
X113133817Y-118047969D01*
X113141258Y-118035553D01*
X113149881Y-118023927D01*
X113159602Y-118013202D01*
X113170327Y-118003481D01*
X113181953Y-117994858D01*
X113194369Y-117987417D01*
X113207454Y-117981228D01*
X113221083Y-117976351D01*
X113235124Y-117972834D01*
X113249442Y-117970710D01*
X113263900Y-117970000D01*
X113608900Y-117970000D01*
X113623358Y-117970710D01*
G37*
G36*
X109699458Y-107866710D02*
G01*
X109713776Y-107868834D01*
X109727817Y-107872351D01*
X109741446Y-107877228D01*
X109754531Y-107883417D01*
X109766947Y-107890858D01*
X109778573Y-107899481D01*
X109789298Y-107909202D01*
X109799019Y-107919927D01*
X109807642Y-107931553D01*
X109815083Y-107943969D01*
X109821272Y-107957054D01*
X109826149Y-107970683D01*
X109829666Y-107984724D01*
X109831790Y-107999042D01*
X109832500Y-108013500D01*
X109832500Y-108358500D01*
X109831790Y-108372958D01*
X109829666Y-108387276D01*
X109826149Y-108401317D01*
X109821272Y-108414946D01*
X109815083Y-108428031D01*
X109807642Y-108440447D01*
X109799019Y-108452073D01*
X109789298Y-108462798D01*
X109778573Y-108472519D01*
X109766947Y-108481142D01*
X109754531Y-108488583D01*
X109741446Y-108494772D01*
X109727817Y-108499649D01*
X109713776Y-108503166D01*
X109699458Y-108505290D01*
X109685000Y-108506000D01*
X109390000Y-108506000D01*
X109375542Y-108505290D01*
X109361224Y-108503166D01*
X109347183Y-108499649D01*
X109333554Y-108494772D01*
X109320469Y-108488583D01*
X109308053Y-108481142D01*
X109296427Y-108472519D01*
X109285702Y-108462798D01*
X109275981Y-108452073D01*
X109267358Y-108440447D01*
X109259917Y-108428031D01*
X109253728Y-108414946D01*
X109248851Y-108401317D01*
X109245334Y-108387276D01*
X109243210Y-108372958D01*
X109242500Y-108358500D01*
X109242500Y-108013500D01*
X109243210Y-107999042D01*
X109245334Y-107984724D01*
X109248851Y-107970683D01*
X109253728Y-107957054D01*
X109259917Y-107943969D01*
X109267358Y-107931553D01*
X109275981Y-107919927D01*
X109285702Y-107909202D01*
X109296427Y-107899481D01*
X109308053Y-107890858D01*
X109320469Y-107883417D01*
X109333554Y-107877228D01*
X109347183Y-107872351D01*
X109361224Y-107868834D01*
X109375542Y-107866710D01*
X109390000Y-107866000D01*
X109685000Y-107866000D01*
X109699458Y-107866710D01*
G37*
G36*
X108729458Y-107866710D02*
G01*
X108743776Y-107868834D01*
X108757817Y-107872351D01*
X108771446Y-107877228D01*
X108784531Y-107883417D01*
X108796947Y-107890858D01*
X108808573Y-107899481D01*
X108819298Y-107909202D01*
X108829019Y-107919927D01*
X108837642Y-107931553D01*
X108845083Y-107943969D01*
X108851272Y-107957054D01*
X108856149Y-107970683D01*
X108859666Y-107984724D01*
X108861790Y-107999042D01*
X108862500Y-108013500D01*
X108862500Y-108358500D01*
X108861790Y-108372958D01*
X108859666Y-108387276D01*
X108856149Y-108401317D01*
X108851272Y-108414946D01*
X108845083Y-108428031D01*
X108837642Y-108440447D01*
X108829019Y-108452073D01*
X108819298Y-108462798D01*
X108808573Y-108472519D01*
X108796947Y-108481142D01*
X108784531Y-108488583D01*
X108771446Y-108494772D01*
X108757817Y-108499649D01*
X108743776Y-108503166D01*
X108729458Y-108505290D01*
X108715000Y-108506000D01*
X108420000Y-108506000D01*
X108405542Y-108505290D01*
X108391224Y-108503166D01*
X108377183Y-108499649D01*
X108363554Y-108494772D01*
X108350469Y-108488583D01*
X108338053Y-108481142D01*
X108326427Y-108472519D01*
X108315702Y-108462798D01*
X108305981Y-108452073D01*
X108297358Y-108440447D01*
X108289917Y-108428031D01*
X108283728Y-108414946D01*
X108278851Y-108401317D01*
X108275334Y-108387276D01*
X108273210Y-108372958D01*
X108272500Y-108358500D01*
X108272500Y-108013500D01*
X108273210Y-107999042D01*
X108275334Y-107984724D01*
X108278851Y-107970683D01*
X108283728Y-107957054D01*
X108289917Y-107943969D01*
X108297358Y-107931553D01*
X108305981Y-107919927D01*
X108315702Y-107909202D01*
X108326427Y-107899481D01*
X108338053Y-107890858D01*
X108350469Y-107883417D01*
X108363554Y-107877228D01*
X108377183Y-107872351D01*
X108391224Y-107868834D01*
X108405542Y-107866710D01*
X108420000Y-107866000D01*
X108715000Y-107866000D01*
X108729458Y-107866710D01*
G37*
D22*
X113466664Y-111425700D03*
X113466664Y-113625700D03*
X116006664Y-111425700D03*
X116006664Y-113625700D03*
X186019164Y-113601700D03*
X186019164Y-111401700D03*
X183479164Y-113601700D03*
X183479164Y-111401700D03*
M02*
