G04 #@! TF.GenerationSoftware,KiCad,Pcbnew,5.1.5+dfsg1-2*
G04 #@! TF.CreationDate,2019-11-29T08:26:34+00:00*
G04 #@! TF.ProjectId,OV9281-Dual-Camera-Board,4f563932-3831-42d4-9475-616c2d43616d,rev?*
G04 #@! TF.SameCoordinates,Original*
G04 #@! TF.FileFunction,Paste,Bot*
G04 #@! TF.FilePolarity,Positive*
%FSLAX46Y46*%
G04 Gerber Fmt 4.6, Leading zero omitted, Abs format (unit mm)*
G04 Created by KiCad (PCBNEW 5.1.5+dfsg1-2) date 2019-11-29 08:26:34*
%MOMM*%
%LPD*%
G04 APERTURE LIST*
%ADD10C,0.300000*%
G04 APERTURE END LIST*
D10*
X185712500Y-110786000D03*
X186992500Y-110786000D03*
X184432500Y-110786000D03*
X185072500Y-110786000D03*
X186352500Y-110786000D03*
X182512500Y-110786000D03*
X183152500Y-110786000D03*
X183792500Y-110786000D03*
X185712500Y-111286000D03*
X186992500Y-111286000D03*
X184432500Y-111286000D03*
X185072500Y-111286000D03*
X186352500Y-111286000D03*
X182512500Y-111286000D03*
X183152500Y-111286000D03*
X183792500Y-111286000D03*
X185712500Y-111786000D03*
X186992500Y-111786000D03*
X184432500Y-111786000D03*
X185072500Y-111786000D03*
X186352500Y-111786000D03*
X182512500Y-111786000D03*
X183152500Y-111786000D03*
X183792500Y-111786000D03*
X185712500Y-112286000D03*
X186992500Y-112286000D03*
X184432500Y-112286000D03*
X185072500Y-112286000D03*
X186352500Y-112286000D03*
X182512500Y-112286000D03*
X183152500Y-112286000D03*
X183792500Y-112286000D03*
X185712500Y-112786000D03*
X186992500Y-112786000D03*
X184432500Y-112786000D03*
X185072500Y-112786000D03*
X186352500Y-112786000D03*
X182512500Y-112786000D03*
X183152500Y-112786000D03*
X183792500Y-112786000D03*
X185712500Y-113286000D03*
X186992500Y-113286000D03*
X184432500Y-113286000D03*
X185072500Y-113286000D03*
X186352500Y-113286000D03*
X182512500Y-113286000D03*
X183152500Y-113286000D03*
X183792500Y-113286000D03*
X185712500Y-113786000D03*
X186992500Y-113786000D03*
X184432500Y-113786000D03*
X185072500Y-113786000D03*
X186352500Y-113786000D03*
X182512500Y-113786000D03*
X183152500Y-113786000D03*
X183792500Y-113786000D03*
X186992500Y-114286000D03*
X186352500Y-114286000D03*
X185712500Y-114286000D03*
X185072500Y-114286000D03*
X184432500Y-114286000D03*
X183792500Y-114286000D03*
X183152500Y-114286000D03*
X182512500Y-114286000D03*
X115712500Y-110786000D03*
X116992500Y-110786000D03*
X114432500Y-110786000D03*
X115072500Y-110786000D03*
X116352500Y-110786000D03*
X112512500Y-110786000D03*
X113152500Y-110786000D03*
X113792500Y-110786000D03*
X115712500Y-111286000D03*
X116992500Y-111286000D03*
X114432500Y-111286000D03*
X115072500Y-111286000D03*
X116352500Y-111286000D03*
X112512500Y-111286000D03*
X113152500Y-111286000D03*
X113792500Y-111286000D03*
X115712500Y-111786000D03*
X116992500Y-111786000D03*
X114432500Y-111786000D03*
X115072500Y-111786000D03*
X116352500Y-111786000D03*
X112512500Y-111786000D03*
X113152500Y-111786000D03*
X113792500Y-111786000D03*
X115712500Y-112286000D03*
X116992500Y-112286000D03*
X114432500Y-112286000D03*
X115072500Y-112286000D03*
X116352500Y-112286000D03*
X112512500Y-112286000D03*
X113152500Y-112286000D03*
X113792500Y-112286000D03*
X115712500Y-112786000D03*
X116992500Y-112786000D03*
X114432500Y-112786000D03*
X115072500Y-112786000D03*
X116352500Y-112786000D03*
X112512500Y-112786000D03*
X113152500Y-112786000D03*
X113792500Y-112786000D03*
X115712500Y-113286000D03*
X116992500Y-113286000D03*
X114432500Y-113286000D03*
X115072500Y-113286000D03*
X116352500Y-113286000D03*
X112512500Y-113286000D03*
X113152500Y-113286000D03*
X113792500Y-113286000D03*
X115712500Y-113786000D03*
X116992500Y-113786000D03*
X114432500Y-113786000D03*
X115072500Y-113786000D03*
X116352500Y-113786000D03*
X112512500Y-113786000D03*
X113152500Y-113786000D03*
X113792500Y-113786000D03*
X116992500Y-114286000D03*
X116352500Y-114286000D03*
X115712500Y-114286000D03*
X115072500Y-114286000D03*
X114432500Y-114286000D03*
X113792500Y-114286000D03*
X113152500Y-114286000D03*
X112512500Y-114286000D03*
M02*
