G04 #@! TF.GenerationSoftware,KiCad,Pcbnew,5.1.5+dfsg1-2*
G04 #@! TF.CreationDate,2019-11-29T08:26:34+00:00*
G04 #@! TF.ProjectId,OV9281-Dual-Camera-Board,4f563932-3831-42d4-9475-616c2d43616d,rev?*
G04 #@! TF.SameCoordinates,Original*
G04 #@! TF.FileFunction,Legend,Top*
G04 #@! TF.FilePolarity,Positive*
%FSLAX46Y46*%
G04 Gerber Fmt 4.6, Leading zero omitted, Abs format (unit mm)*
G04 Created by KiCad (PCBNEW 5.1.5+dfsg1-2) date 2019-11-29 08:26:34*
%MOMM*%
%LPD*%
G04 APERTURE LIST*
%ADD10C,0.150000*%
%ADD11C,0.100000*%
%ADD12C,0.120000*%
%ADD13C,0.200000*%
G04 APERTURE END LIST*
D10*
X167020000Y-118026666D02*
X166620000Y-118026666D01*
X166820000Y-118026666D02*
X166820000Y-117326666D01*
X166753333Y-117426666D01*
X166686666Y-117493333D01*
X166620000Y-117526666D01*
X132523333Y-117556666D02*
X132190000Y-117556666D01*
X132156666Y-117890000D01*
X132190000Y-117856666D01*
X132256666Y-117823333D01*
X132423333Y-117823333D01*
X132490000Y-117856666D01*
X132523333Y-117890000D01*
X132556666Y-117956666D01*
X132556666Y-118123333D01*
X132523333Y-118190000D01*
X132490000Y-118223333D01*
X132423333Y-118256666D01*
X132256666Y-118256666D01*
X132190000Y-118223333D01*
X132156666Y-118190000D01*
X132990000Y-117556666D02*
X133056666Y-117556666D01*
X133123333Y-117590000D01*
X133156666Y-117623333D01*
X133190000Y-117690000D01*
X133223333Y-117823333D01*
X133223333Y-117990000D01*
X133190000Y-118123333D01*
X133156666Y-118190000D01*
X133123333Y-118223333D01*
X133056666Y-118256666D01*
X132990000Y-118256666D01*
X132923333Y-118223333D01*
X132890000Y-118190000D01*
X132856666Y-118123333D01*
X132823333Y-117990000D01*
X132823333Y-117823333D01*
X132856666Y-117690000D01*
X132890000Y-117623333D01*
X132923333Y-117590000D01*
X132990000Y-117556666D01*
X137500000Y-119400000D02*
X137500000Y-120225000D01*
X162500000Y-119400000D02*
X162500000Y-120225000D01*
X134190000Y-119400000D02*
X137500000Y-119400000D01*
X165830000Y-119400000D02*
X162500000Y-119400000D01*
X134160000Y-115960000D02*
X134160000Y-119400000D01*
X165860000Y-115950000D02*
X165860000Y-119400000D01*
X137500000Y-115960000D02*
X134160000Y-115960000D01*
X162560000Y-115920000D02*
X165840000Y-115920000D01*
X137500000Y-118575000D02*
X137500000Y-115990000D01*
X162500000Y-118575000D02*
X162500000Y-115920000D01*
X162500000Y-118575000D02*
X137500000Y-118575000D01*
X162500000Y-120225000D02*
X137500000Y-120225000D01*
D11*
X113006000Y-120324000D02*
X113356000Y-120324000D01*
X113006000Y-120674000D02*
X113006000Y-120324000D01*
X115006000Y-120324000D02*
X115006000Y-120674000D01*
X114656000Y-120324000D02*
X115006000Y-120324000D01*
X113006000Y-123624000D02*
X113356000Y-123624000D01*
X113006000Y-123274000D02*
X113006000Y-123624000D01*
X115056000Y-123274000D02*
X114606000Y-123624000D01*
X115656000Y-123274000D02*
X115056000Y-123274000D01*
D12*
X187078000Y-121890000D02*
X187078000Y-121290000D01*
X188678000Y-121910000D02*
X188678000Y-121310000D01*
X118456000Y-121774000D02*
X118456000Y-122374000D01*
X116856000Y-121754000D02*
X116856000Y-122354000D01*
X119794000Y-103594000D02*
X119794000Y-104194000D01*
X118194000Y-103574000D02*
X118194000Y-104174000D01*
X180428000Y-122240000D02*
X180428000Y-121640000D01*
X181028000Y-122240000D02*
X181028000Y-121640000D01*
X110967797Y-104340280D02*
X110967797Y-103740280D01*
X111567797Y-104340280D02*
X111567797Y-103740280D01*
X109656000Y-122524000D02*
X109656000Y-121924000D01*
X110256000Y-122524000D02*
X110256000Y-121924000D01*
D11*
X183028000Y-120040000D02*
X183378000Y-120040000D01*
X183028000Y-120390000D02*
X183028000Y-120040000D01*
X185028000Y-120040000D02*
X185028000Y-120390000D01*
X184678000Y-120040000D02*
X185028000Y-120040000D01*
X183028000Y-123340000D02*
X183378000Y-123340000D01*
X183028000Y-122990000D02*
X183028000Y-123340000D01*
X185078000Y-122990000D02*
X184628000Y-123340000D01*
X185678000Y-122990000D02*
X185078000Y-122990000D01*
X184989900Y-102408000D02*
X184714900Y-102408000D01*
X184714900Y-102408000D02*
X184339900Y-102683000D01*
X184339900Y-102683000D02*
X184339900Y-102733000D01*
X184339900Y-102733000D02*
X183564900Y-102733000D01*
X184814900Y-105708000D02*
X184339900Y-105708000D01*
X184339900Y-105708000D02*
X184339900Y-105358000D01*
X185989900Y-105483000D02*
X185989900Y-105358000D01*
X185989900Y-105408000D02*
X185989900Y-105708000D01*
X185989900Y-105708000D02*
X185539900Y-105708000D01*
X185614900Y-102408000D02*
X185989900Y-102408000D01*
X185989900Y-102408000D02*
X185989900Y-102708000D01*
D10*
X169702500Y-110436000D02*
X169702500Y-110136000D01*
X169702500Y-110136000D02*
X169552500Y-110136000D01*
X166902500Y-110436000D02*
X166902500Y-110136000D01*
X166902500Y-110136000D02*
X167102500Y-110136000D01*
X166902500Y-113136000D02*
X166902500Y-113436000D01*
X166902500Y-113436000D02*
X167102500Y-113436000D01*
X169702500Y-113136000D02*
X169702500Y-113436000D01*
X169702500Y-113436000D02*
X169552500Y-113436000D01*
D13*
X169052500Y-113586000D02*
G75*
G03X169052500Y-113586000I-100000J0D01*
G01*
X127810000Y-109450000D02*
G75*
G03X127810000Y-109450000I-100000J0D01*
G01*
D10*
X126960000Y-109600000D02*
X127110000Y-109600000D01*
X126960000Y-109900000D02*
X126960000Y-109600000D01*
X129760000Y-109600000D02*
X129560000Y-109600000D01*
X129760000Y-109900000D02*
X129760000Y-109600000D01*
X129760000Y-112900000D02*
X129560000Y-112900000D01*
X129760000Y-112600000D02*
X129760000Y-112900000D01*
X126960000Y-112900000D02*
X127110000Y-112900000D01*
X126960000Y-112600000D02*
X126960000Y-112900000D01*
D12*
X172730000Y-111050000D02*
X173330000Y-111050000D01*
X172750000Y-109450000D02*
X173350000Y-109450000D01*
X173020000Y-116710000D02*
X173620000Y-116710000D01*
X173000000Y-118310000D02*
X173600000Y-118310000D01*
X172705000Y-115750000D02*
X173305000Y-115750000D01*
X172725000Y-114150000D02*
X173325000Y-114150000D01*
X103310000Y-116950000D02*
X103910000Y-116950000D01*
X103290000Y-118550000D02*
X103890000Y-118550000D01*
X102305000Y-111275000D02*
X102905000Y-111275000D01*
X102325000Y-109675000D02*
X102925000Y-109675000D01*
X103310000Y-114330000D02*
X103910000Y-114330000D01*
X103290000Y-115930000D02*
X103890000Y-115930000D01*
X122100000Y-109320000D02*
X122700000Y-109320000D01*
X122100000Y-108720000D02*
X122700000Y-108720000D01*
X119350000Y-108260000D02*
X119950000Y-108260000D01*
X119350000Y-108860000D02*
X119950000Y-108860000D01*
X185870000Y-107742000D02*
X185270000Y-107742000D01*
X185870000Y-107142000D02*
X185270000Y-107142000D01*
X120800000Y-112850000D02*
X121400000Y-112850000D01*
X120800000Y-112250000D02*
X121400000Y-112250000D01*
X106670000Y-118240000D02*
X106670000Y-117640000D01*
X107270000Y-118240000D02*
X107270000Y-117640000D01*
X106175000Y-110325000D02*
X106775000Y-110325000D01*
X106175000Y-109725000D02*
X106775000Y-109725000D01*
X106650000Y-115700000D02*
X106650000Y-115100000D01*
X107250000Y-115700000D02*
X107250000Y-115100000D01*
X120800000Y-111375000D02*
X121400000Y-111375000D01*
X120800000Y-110775000D02*
X121400000Y-110775000D01*
X176720000Y-117119738D02*
X176720000Y-116519738D01*
X177320000Y-117119738D02*
X177320000Y-116519738D01*
X190665000Y-114674281D02*
X191265000Y-114674281D01*
X190665000Y-114074281D02*
X191265000Y-114074281D01*
X190665000Y-108745000D02*
X191265000Y-108745000D01*
X190665000Y-109345000D02*
X191265000Y-109345000D01*
X177320000Y-110160000D02*
X177320000Y-109560000D01*
X176720000Y-110160000D02*
X176720000Y-109560000D01*
X120725000Y-113825000D02*
X121325000Y-113825000D01*
X120725000Y-114425000D02*
X121325000Y-114425000D01*
X178750000Y-113675000D02*
X178750000Y-113075000D01*
X178150000Y-113675000D02*
X178150000Y-113075000D01*
X190665000Y-115850710D02*
X191265000Y-115850710D01*
X190665000Y-116450710D02*
X191265000Y-116450710D01*
X190635000Y-111121427D02*
X191235000Y-111121427D01*
X190635000Y-110521427D02*
X191235000Y-110521427D01*
X190645000Y-112297854D02*
X191245000Y-112297854D01*
X190645000Y-112897854D02*
X191245000Y-112897854D01*
X110790000Y-106380000D02*
X110190000Y-106380000D01*
X110790000Y-106980000D02*
X110190000Y-106980000D01*
D11*
X113867797Y-102140280D02*
X114217797Y-102140280D01*
X113867797Y-102490280D02*
X113867797Y-102140280D01*
X115867797Y-102140280D02*
X115867797Y-102490280D01*
X115517797Y-102140280D02*
X115867797Y-102140280D01*
X113867797Y-105440280D02*
X114217797Y-105440280D01*
X113867797Y-105090280D02*
X113867797Y-105440280D01*
X115917797Y-105090280D02*
X115467797Y-105440280D01*
X116517797Y-105090280D02*
X115917797Y-105090280D01*
D10*
X112266664Y-110560000D02*
X116660000Y-110560000D01*
X112260000Y-114460000D02*
X112260000Y-110560000D01*
X117206664Y-114460000D02*
X112266664Y-114460000D01*
X117210000Y-111110000D02*
X117210000Y-114460000D01*
X116660000Y-110560000D02*
X117210000Y-111110000D01*
X186672500Y-110536000D02*
X187222500Y-111086000D01*
X187222500Y-111086000D02*
X187222500Y-114436000D01*
X187219164Y-114436000D02*
X182279164Y-114436000D01*
X182272500Y-114436000D02*
X182272500Y-110536000D01*
X182279164Y-110536000D02*
X186672500Y-110536000D01*
X166516666Y-121616666D02*
X166516666Y-122116666D01*
X166483333Y-122216666D01*
X166416666Y-122283333D01*
X166316666Y-122316666D01*
X166250000Y-122316666D01*
X166783333Y-121616666D02*
X167216666Y-121616666D01*
X166983333Y-121883333D01*
X167083333Y-121883333D01*
X167150000Y-121916666D01*
X167183333Y-121950000D01*
X167216666Y-122016666D01*
X167216666Y-122183333D01*
X167183333Y-122250000D01*
X167150000Y-122283333D01*
X167083333Y-122316666D01*
X166883333Y-122316666D01*
X166816666Y-122283333D01*
X166783333Y-122250000D01*
X176280000Y-112746666D02*
X176046666Y-112413333D01*
X175880000Y-112746666D02*
X175880000Y-112046666D01*
X176146666Y-112046666D01*
X176213333Y-112080000D01*
X176246666Y-112113333D01*
X176280000Y-112180000D01*
X176280000Y-112280000D01*
X176246666Y-112346666D01*
X176213333Y-112380000D01*
X176146666Y-112413333D01*
X175880000Y-112413333D01*
X176946666Y-112746666D02*
X176546666Y-112746666D01*
X176746666Y-112746666D02*
X176746666Y-112046666D01*
X176680000Y-112146666D01*
X176613333Y-112213333D01*
X176546666Y-112246666D01*
X177213333Y-112113333D02*
X177246666Y-112080000D01*
X177313333Y-112046666D01*
X177480000Y-112046666D01*
X177546666Y-112080000D01*
X177580000Y-112113333D01*
X177613333Y-112180000D01*
X177613333Y-112246666D01*
X177580000Y-112346666D01*
X177180000Y-112746666D01*
X177613333Y-112746666D01*
X121430000Y-116016666D02*
X121196666Y-115683333D01*
X121030000Y-116016666D02*
X121030000Y-115316666D01*
X121296666Y-115316666D01*
X121363333Y-115350000D01*
X121396666Y-115383333D01*
X121430000Y-115450000D01*
X121430000Y-115550000D01*
X121396666Y-115616666D01*
X121363333Y-115650000D01*
X121296666Y-115683333D01*
X121030000Y-115683333D01*
X121696666Y-115383333D02*
X121730000Y-115350000D01*
X121796666Y-115316666D01*
X121963333Y-115316666D01*
X122030000Y-115350000D01*
X122063333Y-115383333D01*
X122096666Y-115450000D01*
X122096666Y-115516666D01*
X122063333Y-115616666D01*
X121663333Y-116016666D01*
X122096666Y-116016666D01*
X122363333Y-115383333D02*
X122396666Y-115350000D01*
X122463333Y-115316666D01*
X122630000Y-115316666D01*
X122696666Y-115350000D01*
X122730000Y-115383333D01*
X122763333Y-115450000D01*
X122763333Y-115516666D01*
X122730000Y-115616666D01*
X122330000Y-116016666D01*
X122763333Y-116016666D01*
X121863333Y-117206666D02*
X121630000Y-116873333D01*
X121463333Y-117206666D02*
X121463333Y-116506666D01*
X121730000Y-116506666D01*
X121796666Y-116540000D01*
X121830000Y-116573333D01*
X121863333Y-116640000D01*
X121863333Y-116740000D01*
X121830000Y-116806666D01*
X121796666Y-116840000D01*
X121730000Y-116873333D01*
X121463333Y-116873333D01*
X122463333Y-116506666D02*
X122330000Y-116506666D01*
X122263333Y-116540000D01*
X122230000Y-116573333D01*
X122163333Y-116673333D01*
X122130000Y-116806666D01*
X122130000Y-117073333D01*
X122163333Y-117140000D01*
X122196666Y-117173333D01*
X122263333Y-117206666D01*
X122396666Y-117206666D01*
X122463333Y-117173333D01*
X122496666Y-117140000D01*
X122530000Y-117073333D01*
X122530000Y-116906666D01*
X122496666Y-116840000D01*
X122463333Y-116806666D01*
X122396666Y-116773333D01*
X122263333Y-116773333D01*
X122196666Y-116806666D01*
X122163333Y-116840000D01*
X122130000Y-116906666D01*
X110316666Y-120816666D02*
X110316666Y-120116666D01*
X111050000Y-120750000D02*
X111016666Y-120783333D01*
X110916666Y-120816666D01*
X110850000Y-120816666D01*
X110750000Y-120783333D01*
X110683333Y-120716666D01*
X110650000Y-120650000D01*
X110616666Y-120516666D01*
X110616666Y-120416666D01*
X110650000Y-120283333D01*
X110683333Y-120216666D01*
X110750000Y-120150000D01*
X110850000Y-120116666D01*
X110916666Y-120116666D01*
X111016666Y-120150000D01*
X111050000Y-120183333D01*
X111716666Y-120816666D02*
X111316666Y-120816666D01*
X111516666Y-120816666D02*
X111516666Y-120116666D01*
X111450000Y-120216666D01*
X111383333Y-120283333D01*
X111316666Y-120316666D01*
X190000000Y-121866666D02*
X190033333Y-121900000D01*
X190066666Y-122000000D01*
X190066666Y-122066666D01*
X190033333Y-122166666D01*
X189966666Y-122233333D01*
X189900000Y-122266666D01*
X189766666Y-122300000D01*
X189666666Y-122300000D01*
X189533333Y-122266666D01*
X189466666Y-122233333D01*
X189400000Y-122166666D01*
X189366666Y-122066666D01*
X189366666Y-122000000D01*
X189400000Y-121900000D01*
X189433333Y-121866666D01*
X189366666Y-121633333D02*
X189366666Y-121200000D01*
X189633333Y-121433333D01*
X189633333Y-121333333D01*
X189666666Y-121266666D01*
X189700000Y-121233333D01*
X189766666Y-121200000D01*
X189933333Y-121200000D01*
X190000000Y-121233333D01*
X190033333Y-121266666D01*
X190066666Y-121333333D01*
X190066666Y-121533333D01*
X190033333Y-121600000D01*
X190000000Y-121633333D01*
X119746000Y-122190666D02*
X119779333Y-122224000D01*
X119812666Y-122324000D01*
X119812666Y-122390666D01*
X119779333Y-122490666D01*
X119712666Y-122557333D01*
X119646000Y-122590666D01*
X119512666Y-122624000D01*
X119412666Y-122624000D01*
X119279333Y-122590666D01*
X119212666Y-122557333D01*
X119146000Y-122490666D01*
X119112666Y-122390666D01*
X119112666Y-122324000D01*
X119146000Y-122224000D01*
X119179333Y-122190666D01*
X119812666Y-121524000D02*
X119812666Y-121924000D01*
X119812666Y-121724000D02*
X119112666Y-121724000D01*
X119212666Y-121790666D01*
X119279333Y-121857333D01*
X119312666Y-121924000D01*
X121084000Y-104010666D02*
X121117333Y-104044000D01*
X121150666Y-104144000D01*
X121150666Y-104210666D01*
X121117333Y-104310666D01*
X121050666Y-104377333D01*
X120984000Y-104410666D01*
X120850666Y-104444000D01*
X120750666Y-104444000D01*
X120617333Y-104410666D01*
X120550666Y-104377333D01*
X120484000Y-104310666D01*
X120450666Y-104210666D01*
X120450666Y-104144000D01*
X120484000Y-104044000D01*
X120517333Y-104010666D01*
X120517333Y-103744000D02*
X120484000Y-103710666D01*
X120450666Y-103644000D01*
X120450666Y-103477333D01*
X120484000Y-103410666D01*
X120517333Y-103377333D01*
X120584000Y-103344000D01*
X120650666Y-103344000D01*
X120750666Y-103377333D01*
X121150666Y-103777333D01*
X121150666Y-103344000D01*
X179500000Y-122616666D02*
X179533333Y-122650000D01*
X179566666Y-122750000D01*
X179566666Y-122816666D01*
X179533333Y-122916666D01*
X179466666Y-122983333D01*
X179400000Y-123016666D01*
X179266666Y-123050000D01*
X179166666Y-123050000D01*
X179033333Y-123016666D01*
X178966666Y-122983333D01*
X178900000Y-122916666D01*
X178866666Y-122816666D01*
X178866666Y-122750000D01*
X178900000Y-122650000D01*
X178933333Y-122616666D01*
X178866666Y-122016666D02*
X178866666Y-122150000D01*
X178900000Y-122216666D01*
X178933333Y-122250000D01*
X179033333Y-122316666D01*
X179166666Y-122350000D01*
X179433333Y-122350000D01*
X179500000Y-122316666D01*
X179533333Y-122283333D01*
X179566666Y-122216666D01*
X179566666Y-122083333D01*
X179533333Y-122016666D01*
X179500000Y-121983333D01*
X179433333Y-121950000D01*
X179266666Y-121950000D01*
X179200000Y-121983333D01*
X179166666Y-122016666D01*
X179133333Y-122083333D01*
X179133333Y-122216666D01*
X179166666Y-122283333D01*
X179200000Y-122316666D01*
X179266666Y-122350000D01*
X109317797Y-104156946D02*
X109351130Y-104190280D01*
X109384463Y-104290280D01*
X109384463Y-104356946D01*
X109351130Y-104456946D01*
X109284463Y-104523613D01*
X109217797Y-104556946D01*
X109084463Y-104590280D01*
X108984463Y-104590280D01*
X108851130Y-104556946D01*
X108784463Y-104523613D01*
X108717797Y-104456946D01*
X108684463Y-104356946D01*
X108684463Y-104290280D01*
X108717797Y-104190280D01*
X108751130Y-104156946D01*
X108684463Y-103523613D02*
X108684463Y-103856946D01*
X109017797Y-103890280D01*
X108984463Y-103856946D01*
X108951130Y-103790280D01*
X108951130Y-103623613D01*
X108984463Y-103556946D01*
X109017797Y-103523613D01*
X109084463Y-103490280D01*
X109251130Y-103490280D01*
X109317797Y-103523613D01*
X109351130Y-103556946D01*
X109384463Y-103623613D01*
X109384463Y-103790280D01*
X109351130Y-103856946D01*
X109317797Y-103890280D01*
X108750000Y-122340666D02*
X108783333Y-122374000D01*
X108816666Y-122474000D01*
X108816666Y-122540666D01*
X108783333Y-122640666D01*
X108716666Y-122707333D01*
X108650000Y-122740666D01*
X108516666Y-122774000D01*
X108416666Y-122774000D01*
X108283333Y-122740666D01*
X108216666Y-122707333D01*
X108150000Y-122640666D01*
X108116666Y-122540666D01*
X108116666Y-122474000D01*
X108150000Y-122374000D01*
X108183333Y-122340666D01*
X108350000Y-121740666D02*
X108816666Y-121740666D01*
X108083333Y-121907333D02*
X108583333Y-122074000D01*
X108583333Y-121640666D01*
X183216666Y-119666666D02*
X183216666Y-118966666D01*
X183950000Y-119600000D02*
X183916666Y-119633333D01*
X183816666Y-119666666D01*
X183750000Y-119666666D01*
X183650000Y-119633333D01*
X183583333Y-119566666D01*
X183550000Y-119500000D01*
X183516666Y-119366666D01*
X183516666Y-119266666D01*
X183550000Y-119133333D01*
X183583333Y-119066666D01*
X183650000Y-119000000D01*
X183750000Y-118966666D01*
X183816666Y-118966666D01*
X183916666Y-119000000D01*
X183950000Y-119033333D01*
X184183333Y-118966666D02*
X184616666Y-118966666D01*
X184383333Y-119233333D01*
X184483333Y-119233333D01*
X184550000Y-119266666D01*
X184583333Y-119300000D01*
X184616666Y-119366666D01*
X184616666Y-119533333D01*
X184583333Y-119600000D01*
X184550000Y-119633333D01*
X184483333Y-119666666D01*
X184283333Y-119666666D01*
X184216666Y-119633333D01*
X184183333Y-119600000D01*
X130113333Y-117596666D02*
X129880000Y-117263333D01*
X129713333Y-117596666D02*
X129713333Y-116896666D01*
X129980000Y-116896666D01*
X130046666Y-116930000D01*
X130080000Y-116963333D01*
X130113333Y-117030000D01*
X130113333Y-117130000D01*
X130080000Y-117196666D01*
X130046666Y-117230000D01*
X129980000Y-117263333D01*
X129713333Y-117263333D01*
X130780000Y-117596666D02*
X130380000Y-117596666D01*
X130580000Y-117596666D02*
X130580000Y-116896666D01*
X130513333Y-116996666D01*
X130446666Y-117063333D01*
X130380000Y-117096666D01*
X130113333Y-119256666D02*
X129880000Y-118923333D01*
X129713333Y-119256666D02*
X129713333Y-118556666D01*
X129980000Y-118556666D01*
X130046666Y-118590000D01*
X130080000Y-118623333D01*
X130113333Y-118690000D01*
X130113333Y-118790000D01*
X130080000Y-118856666D01*
X130046666Y-118890000D01*
X129980000Y-118923333D01*
X129713333Y-118923333D01*
X130380000Y-118623333D02*
X130413333Y-118590000D01*
X130480000Y-118556666D01*
X130646666Y-118556666D01*
X130713333Y-118590000D01*
X130746666Y-118623333D01*
X130780000Y-118690000D01*
X130780000Y-118756666D01*
X130746666Y-118856666D01*
X130346666Y-119256666D01*
X130780000Y-119256666D01*
X130113333Y-120816666D02*
X129880000Y-120483333D01*
X129713333Y-120816666D02*
X129713333Y-120116666D01*
X129980000Y-120116666D01*
X130046666Y-120150000D01*
X130080000Y-120183333D01*
X130113333Y-120250000D01*
X130113333Y-120350000D01*
X130080000Y-120416666D01*
X130046666Y-120450000D01*
X129980000Y-120483333D01*
X129713333Y-120483333D01*
X130346666Y-120116666D02*
X130780000Y-120116666D01*
X130546666Y-120383333D01*
X130646666Y-120383333D01*
X130713333Y-120416666D01*
X130746666Y-120450000D01*
X130780000Y-120516666D01*
X130780000Y-120683333D01*
X130746666Y-120750000D01*
X130713333Y-120783333D01*
X130646666Y-120816666D01*
X130446666Y-120816666D01*
X130380000Y-120783333D01*
X130346666Y-120750000D01*
X130133333Y-122316666D02*
X129900000Y-121983333D01*
X129733333Y-122316666D02*
X129733333Y-121616666D01*
X130000000Y-121616666D01*
X130066666Y-121650000D01*
X130100000Y-121683333D01*
X130133333Y-121750000D01*
X130133333Y-121850000D01*
X130100000Y-121916666D01*
X130066666Y-121950000D01*
X130000000Y-121983333D01*
X129733333Y-121983333D01*
X130733333Y-121850000D02*
X130733333Y-122316666D01*
X130566666Y-121583333D02*
X130400000Y-122083333D01*
X130833333Y-122083333D01*
X130133333Y-123816666D02*
X129900000Y-123483333D01*
X129733333Y-123816666D02*
X129733333Y-123116666D01*
X130000000Y-123116666D01*
X130066666Y-123150000D01*
X130100000Y-123183333D01*
X130133333Y-123250000D01*
X130133333Y-123350000D01*
X130100000Y-123416666D01*
X130066666Y-123450000D01*
X130000000Y-123483333D01*
X129733333Y-123483333D01*
X130766666Y-123116666D02*
X130433333Y-123116666D01*
X130400000Y-123450000D01*
X130433333Y-123416666D01*
X130500000Y-123383333D01*
X130666666Y-123383333D01*
X130733333Y-123416666D01*
X130766666Y-123450000D01*
X130800000Y-123516666D01*
X130800000Y-123683333D01*
X130766666Y-123750000D01*
X130733333Y-123783333D01*
X130666666Y-123816666D01*
X130500000Y-123816666D01*
X130433333Y-123783333D01*
X130400000Y-123750000D01*
X185183333Y-101633333D02*
X185116666Y-101600000D01*
X185050000Y-101533333D01*
X184950000Y-101433333D01*
X184883333Y-101400000D01*
X184816666Y-101400000D01*
X184850000Y-101566666D02*
X184783333Y-101533333D01*
X184716666Y-101466666D01*
X184683333Y-101333333D01*
X184683333Y-101100000D01*
X184716666Y-100966666D01*
X184783333Y-100900000D01*
X184850000Y-100866666D01*
X184983333Y-100866666D01*
X185050000Y-100900000D01*
X185116666Y-100966666D01*
X185150000Y-101100000D01*
X185150000Y-101333333D01*
X185116666Y-101466666D01*
X185050000Y-101533333D01*
X184983333Y-101566666D01*
X184850000Y-101566666D01*
X185816666Y-101566666D02*
X185416666Y-101566666D01*
X185616666Y-101566666D02*
X185616666Y-100866666D01*
X185550000Y-100966666D01*
X185483333Y-101033333D01*
X185416666Y-101066666D01*
X167116666Y-114366666D02*
X167116666Y-114933333D01*
X167150000Y-115000000D01*
X167183333Y-115033333D01*
X167250000Y-115066666D01*
X167383333Y-115066666D01*
X167450000Y-115033333D01*
X167483333Y-115000000D01*
X167516666Y-114933333D01*
X167516666Y-114366666D01*
X168150000Y-114600000D02*
X168150000Y-115066666D01*
X167983333Y-114333333D02*
X167816666Y-114833333D01*
X168250000Y-114833333D01*
X130906666Y-109686666D02*
X130906666Y-110253333D01*
X130940000Y-110320000D01*
X130973333Y-110353333D01*
X131040000Y-110386666D01*
X131173333Y-110386666D01*
X131240000Y-110353333D01*
X131273333Y-110320000D01*
X131306666Y-110253333D01*
X131306666Y-109686666D01*
X131573333Y-109686666D02*
X132006666Y-109686666D01*
X131773333Y-109953333D01*
X131873333Y-109953333D01*
X131940000Y-109986666D01*
X131973333Y-110020000D01*
X132006666Y-110086666D01*
X132006666Y-110253333D01*
X131973333Y-110320000D01*
X131940000Y-110353333D01*
X131873333Y-110386666D01*
X131673333Y-110386666D01*
X131606666Y-110353333D01*
X131573333Y-110320000D01*
X172808333Y-112091666D02*
X172475000Y-112091666D01*
X172475000Y-111391666D01*
X173008333Y-111458333D02*
X173041666Y-111425000D01*
X173108333Y-111391666D01*
X173275000Y-111391666D01*
X173341666Y-111425000D01*
X173375000Y-111458333D01*
X173408333Y-111525000D01*
X173408333Y-111591666D01*
X173375000Y-111691666D01*
X172975000Y-112091666D01*
X173408333Y-112091666D01*
X173203333Y-119816666D02*
X172870000Y-119816666D01*
X172870000Y-119116666D01*
X173803333Y-119816666D02*
X173403333Y-119816666D01*
X173603333Y-119816666D02*
X173603333Y-119116666D01*
X173536666Y-119216666D01*
X173470000Y-119283333D01*
X173403333Y-119316666D01*
X170208333Y-115366666D02*
X169875000Y-115366666D01*
X169875000Y-114666666D01*
X170375000Y-114666666D02*
X170808333Y-114666666D01*
X170575000Y-114933333D01*
X170675000Y-114933333D01*
X170741666Y-114966666D01*
X170775000Y-115000000D01*
X170808333Y-115066666D01*
X170808333Y-115233333D01*
X170775000Y-115300000D01*
X170741666Y-115333333D01*
X170675000Y-115366666D01*
X170475000Y-115366666D01*
X170408333Y-115333333D01*
X170375000Y-115300000D01*
X100883333Y-118066666D02*
X100550000Y-118066666D01*
X100550000Y-117366666D01*
X101416666Y-117600000D02*
X101416666Y-118066666D01*
X101250000Y-117333333D02*
X101083333Y-117833333D01*
X101516666Y-117833333D01*
X101583333Y-112391666D02*
X101250000Y-112391666D01*
X101250000Y-111691666D01*
X102150000Y-111691666D02*
X101816666Y-111691666D01*
X101783333Y-112025000D01*
X101816666Y-111991666D01*
X101883333Y-111958333D01*
X102050000Y-111958333D01*
X102116666Y-111991666D01*
X102150000Y-112025000D01*
X102183333Y-112091666D01*
X102183333Y-112258333D01*
X102150000Y-112325000D01*
X102116666Y-112358333D01*
X102050000Y-112391666D01*
X101883333Y-112391666D01*
X101816666Y-112358333D01*
X101783333Y-112325000D01*
X100883333Y-115566666D02*
X100550000Y-115566666D01*
X100550000Y-114866666D01*
X101416666Y-114866666D02*
X101283333Y-114866666D01*
X101216666Y-114900000D01*
X101183333Y-114933333D01*
X101116666Y-115033333D01*
X101083333Y-115166666D01*
X101083333Y-115433333D01*
X101116666Y-115500000D01*
X101150000Y-115533333D01*
X101216666Y-115566666D01*
X101350000Y-115566666D01*
X101416666Y-115533333D01*
X101450000Y-115500000D01*
X101483333Y-115433333D01*
X101483333Y-115266666D01*
X101450000Y-115200000D01*
X101416666Y-115166666D01*
X101350000Y-115133333D01*
X101216666Y-115133333D01*
X101150000Y-115166666D01*
X101116666Y-115200000D01*
X101083333Y-115266666D01*
X124480000Y-109350000D02*
X124446666Y-109383333D01*
X124346666Y-109416666D01*
X124280000Y-109416666D01*
X124180000Y-109383333D01*
X124113333Y-109316666D01*
X124080000Y-109250000D01*
X124046666Y-109116666D01*
X124046666Y-109016666D01*
X124080000Y-108883333D01*
X124113333Y-108816666D01*
X124180000Y-108750000D01*
X124280000Y-108716666D01*
X124346666Y-108716666D01*
X124446666Y-108750000D01*
X124480000Y-108783333D01*
X124746666Y-108783333D02*
X124780000Y-108750000D01*
X124846666Y-108716666D01*
X125013333Y-108716666D01*
X125080000Y-108750000D01*
X125113333Y-108783333D01*
X125146666Y-108850000D01*
X125146666Y-108916666D01*
X125113333Y-109016666D01*
X124713333Y-109416666D01*
X125146666Y-109416666D01*
X125780000Y-108716666D02*
X125446666Y-108716666D01*
X125413333Y-109050000D01*
X125446666Y-109016666D01*
X125513333Y-108983333D01*
X125680000Y-108983333D01*
X125746666Y-109016666D01*
X125780000Y-109050000D01*
X125813333Y-109116666D01*
X125813333Y-109283333D01*
X125780000Y-109350000D01*
X125746666Y-109383333D01*
X125680000Y-109416666D01*
X125513333Y-109416666D01*
X125446666Y-109383333D01*
X125413333Y-109350000D01*
X119150000Y-107590000D02*
X119116666Y-107623333D01*
X119016666Y-107656666D01*
X118950000Y-107656666D01*
X118850000Y-107623333D01*
X118783333Y-107556666D01*
X118750000Y-107490000D01*
X118716666Y-107356666D01*
X118716666Y-107256666D01*
X118750000Y-107123333D01*
X118783333Y-107056666D01*
X118850000Y-106990000D01*
X118950000Y-106956666D01*
X119016666Y-106956666D01*
X119116666Y-106990000D01*
X119150000Y-107023333D01*
X119383333Y-106956666D02*
X119816666Y-106956666D01*
X119583333Y-107223333D01*
X119683333Y-107223333D01*
X119750000Y-107256666D01*
X119783333Y-107290000D01*
X119816666Y-107356666D01*
X119816666Y-107523333D01*
X119783333Y-107590000D01*
X119750000Y-107623333D01*
X119683333Y-107656666D01*
X119483333Y-107656666D01*
X119416666Y-107623333D01*
X119383333Y-107590000D01*
X120450000Y-106956666D02*
X120116666Y-106956666D01*
X120083333Y-107290000D01*
X120116666Y-107256666D01*
X120183333Y-107223333D01*
X120350000Y-107223333D01*
X120416666Y-107256666D01*
X120450000Y-107290000D01*
X120483333Y-107356666D01*
X120483333Y-107523333D01*
X120450000Y-107590000D01*
X120416666Y-107623333D01*
X120350000Y-107656666D01*
X120183333Y-107656666D01*
X120116666Y-107623333D01*
X120083333Y-107590000D01*
X187550000Y-107750000D02*
X187516666Y-107783333D01*
X187416666Y-107816666D01*
X187350000Y-107816666D01*
X187250000Y-107783333D01*
X187183333Y-107716666D01*
X187150000Y-107650000D01*
X187116666Y-107516666D01*
X187116666Y-107416666D01*
X187150000Y-107283333D01*
X187183333Y-107216666D01*
X187250000Y-107150000D01*
X187350000Y-107116666D01*
X187416666Y-107116666D01*
X187516666Y-107150000D01*
X187550000Y-107183333D01*
X187783333Y-107116666D02*
X188216666Y-107116666D01*
X187983333Y-107383333D01*
X188083333Y-107383333D01*
X188150000Y-107416666D01*
X188183333Y-107450000D01*
X188216666Y-107516666D01*
X188216666Y-107683333D01*
X188183333Y-107750000D01*
X188150000Y-107783333D01*
X188083333Y-107816666D01*
X187883333Y-107816666D01*
X187816666Y-107783333D01*
X187783333Y-107750000D01*
X188450000Y-107116666D02*
X188883333Y-107116666D01*
X188650000Y-107383333D01*
X188750000Y-107383333D01*
X188816666Y-107416666D01*
X188850000Y-107450000D01*
X188883333Y-107516666D01*
X188883333Y-107683333D01*
X188850000Y-107750000D01*
X188816666Y-107783333D01*
X188750000Y-107816666D01*
X188550000Y-107816666D01*
X188483333Y-107783333D01*
X188450000Y-107750000D01*
X118250000Y-112735000D02*
X118216666Y-112768333D01*
X118116666Y-112801666D01*
X118050000Y-112801666D01*
X117950000Y-112768333D01*
X117883333Y-112701666D01*
X117850000Y-112635000D01*
X117816666Y-112501666D01*
X117816666Y-112401666D01*
X117850000Y-112268333D01*
X117883333Y-112201666D01*
X117950000Y-112135000D01*
X118050000Y-112101666D01*
X118116666Y-112101666D01*
X118216666Y-112135000D01*
X118250000Y-112168333D01*
X118516666Y-112168333D02*
X118550000Y-112135000D01*
X118616666Y-112101666D01*
X118783333Y-112101666D01*
X118850000Y-112135000D01*
X118883333Y-112168333D01*
X118916666Y-112235000D01*
X118916666Y-112301666D01*
X118883333Y-112401666D01*
X118483333Y-112801666D01*
X118916666Y-112801666D01*
X119516666Y-112335000D02*
X119516666Y-112801666D01*
X119350000Y-112068333D02*
X119183333Y-112568333D01*
X119616666Y-112568333D01*
X107000000Y-121200000D02*
X107033333Y-121233333D01*
X107066666Y-121333333D01*
X107066666Y-121400000D01*
X107033333Y-121500000D01*
X106966666Y-121566666D01*
X106900000Y-121600000D01*
X106766666Y-121633333D01*
X106666666Y-121633333D01*
X106533333Y-121600000D01*
X106466666Y-121566666D01*
X106400000Y-121500000D01*
X106366666Y-121400000D01*
X106366666Y-121333333D01*
X106400000Y-121233333D01*
X106433333Y-121200000D01*
X106433333Y-120933333D02*
X106400000Y-120900000D01*
X106366666Y-120833333D01*
X106366666Y-120666666D01*
X106400000Y-120600000D01*
X106433333Y-120566666D01*
X106500000Y-120533333D01*
X106566666Y-120533333D01*
X106666666Y-120566666D01*
X107066666Y-120966666D01*
X107066666Y-120533333D01*
X106366666Y-120300000D02*
X106366666Y-119833333D01*
X107066666Y-120133333D01*
X106025000Y-109100000D02*
X105991666Y-109133333D01*
X105891666Y-109166666D01*
X105825000Y-109166666D01*
X105725000Y-109133333D01*
X105658333Y-109066666D01*
X105625000Y-109000000D01*
X105591666Y-108866666D01*
X105591666Y-108766666D01*
X105625000Y-108633333D01*
X105658333Y-108566666D01*
X105725000Y-108500000D01*
X105825000Y-108466666D01*
X105891666Y-108466666D01*
X105991666Y-108500000D01*
X106025000Y-108533333D01*
X106291666Y-108533333D02*
X106325000Y-108500000D01*
X106391666Y-108466666D01*
X106558333Y-108466666D01*
X106625000Y-108500000D01*
X106658333Y-108533333D01*
X106691666Y-108600000D01*
X106691666Y-108666666D01*
X106658333Y-108766666D01*
X106258333Y-109166666D01*
X106691666Y-109166666D01*
X107091666Y-108766666D02*
X107025000Y-108733333D01*
X106991666Y-108700000D01*
X106958333Y-108633333D01*
X106958333Y-108600000D01*
X106991666Y-108533333D01*
X107025000Y-108500000D01*
X107091666Y-108466666D01*
X107225000Y-108466666D01*
X107291666Y-108500000D01*
X107325000Y-108533333D01*
X107358333Y-108600000D01*
X107358333Y-108633333D01*
X107325000Y-108700000D01*
X107291666Y-108733333D01*
X107225000Y-108766666D01*
X107091666Y-108766666D01*
X107025000Y-108800000D01*
X106991666Y-108833333D01*
X106958333Y-108900000D01*
X106958333Y-109033333D01*
X106991666Y-109100000D01*
X107025000Y-109133333D01*
X107091666Y-109166666D01*
X107225000Y-109166666D01*
X107291666Y-109133333D01*
X107325000Y-109100000D01*
X107358333Y-109033333D01*
X107358333Y-108900000D01*
X107325000Y-108833333D01*
X107291666Y-108800000D01*
X107225000Y-108766666D01*
X108450000Y-115575000D02*
X108483333Y-115608333D01*
X108516666Y-115708333D01*
X108516666Y-115775000D01*
X108483333Y-115875000D01*
X108416666Y-115941666D01*
X108350000Y-115975000D01*
X108216666Y-116008333D01*
X108116666Y-116008333D01*
X107983333Y-115975000D01*
X107916666Y-115941666D01*
X107850000Y-115875000D01*
X107816666Y-115775000D01*
X107816666Y-115708333D01*
X107850000Y-115608333D01*
X107883333Y-115575000D01*
X107816666Y-115341666D02*
X107816666Y-114908333D01*
X108083333Y-115141666D01*
X108083333Y-115041666D01*
X108116666Y-114975000D01*
X108150000Y-114941666D01*
X108216666Y-114908333D01*
X108383333Y-114908333D01*
X108450000Y-114941666D01*
X108483333Y-114975000D01*
X108516666Y-115041666D01*
X108516666Y-115241666D01*
X108483333Y-115308333D01*
X108450000Y-115341666D01*
X107816666Y-114308333D02*
X107816666Y-114441666D01*
X107850000Y-114508333D01*
X107883333Y-114541666D01*
X107983333Y-114608333D01*
X108116666Y-114641666D01*
X108383333Y-114641666D01*
X108450000Y-114608333D01*
X108483333Y-114575000D01*
X108516666Y-114508333D01*
X108516666Y-114375000D01*
X108483333Y-114308333D01*
X108450000Y-114275000D01*
X108383333Y-114241666D01*
X108216666Y-114241666D01*
X108150000Y-114275000D01*
X108116666Y-114308333D01*
X108083333Y-114375000D01*
X108083333Y-114508333D01*
X108116666Y-114575000D01*
X108150000Y-114608333D01*
X108216666Y-114641666D01*
X118250000Y-111532500D02*
X118216666Y-111565833D01*
X118116666Y-111599166D01*
X118050000Y-111599166D01*
X117950000Y-111565833D01*
X117883333Y-111499166D01*
X117850000Y-111432500D01*
X117816666Y-111299166D01*
X117816666Y-111199166D01*
X117850000Y-111065833D01*
X117883333Y-110999166D01*
X117950000Y-110932500D01*
X118050000Y-110899166D01*
X118116666Y-110899166D01*
X118216666Y-110932500D01*
X118250000Y-110965833D01*
X118483333Y-110899166D02*
X118916666Y-110899166D01*
X118683333Y-111165833D01*
X118783333Y-111165833D01*
X118850000Y-111199166D01*
X118883333Y-111232500D01*
X118916666Y-111299166D01*
X118916666Y-111465833D01*
X118883333Y-111532500D01*
X118850000Y-111565833D01*
X118783333Y-111599166D01*
X118583333Y-111599166D01*
X118516666Y-111565833D01*
X118483333Y-111532500D01*
X119316666Y-111199166D02*
X119250000Y-111165833D01*
X119216666Y-111132500D01*
X119183333Y-111065833D01*
X119183333Y-111032500D01*
X119216666Y-110965833D01*
X119250000Y-110932500D01*
X119316666Y-110899166D01*
X119450000Y-110899166D01*
X119516666Y-110932500D01*
X119550000Y-110965833D01*
X119583333Y-111032500D01*
X119583333Y-111065833D01*
X119550000Y-111132500D01*
X119516666Y-111165833D01*
X119450000Y-111199166D01*
X119316666Y-111199166D01*
X119250000Y-111232500D01*
X119216666Y-111265833D01*
X119183333Y-111332500D01*
X119183333Y-111465833D01*
X119216666Y-111532500D01*
X119250000Y-111565833D01*
X119316666Y-111599166D01*
X119450000Y-111599166D01*
X119516666Y-111565833D01*
X119550000Y-111532500D01*
X119583333Y-111465833D01*
X119583333Y-111332500D01*
X119550000Y-111265833D01*
X119516666Y-111232500D01*
X119450000Y-111199166D01*
X177250000Y-119950000D02*
X177283333Y-119983333D01*
X177316666Y-120083333D01*
X177316666Y-120150000D01*
X177283333Y-120250000D01*
X177216666Y-120316666D01*
X177150000Y-120350000D01*
X177016666Y-120383333D01*
X176916666Y-120383333D01*
X176783333Y-120350000D01*
X176716666Y-120316666D01*
X176650000Y-120250000D01*
X176616666Y-120150000D01*
X176616666Y-120083333D01*
X176650000Y-119983333D01*
X176683333Y-119950000D01*
X177316666Y-119283333D02*
X177316666Y-119683333D01*
X177316666Y-119483333D02*
X176616666Y-119483333D01*
X176716666Y-119550000D01*
X176783333Y-119616666D01*
X176816666Y-119683333D01*
X176683333Y-119016666D02*
X176650000Y-118983333D01*
X176616666Y-118916666D01*
X176616666Y-118750000D01*
X176650000Y-118683333D01*
X176683333Y-118650000D01*
X176750000Y-118616666D01*
X176816666Y-118616666D01*
X176916666Y-118650000D01*
X177316666Y-119050000D01*
X177316666Y-118616666D01*
X193183333Y-114900000D02*
X193150000Y-114933333D01*
X193050000Y-114966666D01*
X192983333Y-114966666D01*
X192883333Y-114933333D01*
X192816666Y-114866666D01*
X192783333Y-114800000D01*
X192750000Y-114666666D01*
X192750000Y-114566666D01*
X192783333Y-114433333D01*
X192816666Y-114366666D01*
X192883333Y-114300000D01*
X192983333Y-114266666D01*
X193050000Y-114266666D01*
X193150000Y-114300000D01*
X193183333Y-114333333D01*
X193416666Y-114266666D02*
X193883333Y-114266666D01*
X193583333Y-114966666D01*
X193075000Y-109175000D02*
X193041666Y-109208333D01*
X192941666Y-109241666D01*
X192875000Y-109241666D01*
X192775000Y-109208333D01*
X192708333Y-109141666D01*
X192675000Y-109075000D01*
X192641666Y-108941666D01*
X192641666Y-108841666D01*
X192675000Y-108708333D01*
X192708333Y-108641666D01*
X192775000Y-108575000D01*
X192875000Y-108541666D01*
X192941666Y-108541666D01*
X193041666Y-108575000D01*
X193075000Y-108608333D01*
X193741666Y-109241666D02*
X193341666Y-109241666D01*
X193541666Y-109241666D02*
X193541666Y-108541666D01*
X193475000Y-108641666D01*
X193408333Y-108708333D01*
X193341666Y-108741666D01*
X194175000Y-108541666D02*
X194241666Y-108541666D01*
X194308333Y-108575000D01*
X194341666Y-108608333D01*
X194375000Y-108675000D01*
X194408333Y-108808333D01*
X194408333Y-108975000D01*
X194375000Y-109108333D01*
X194341666Y-109175000D01*
X194308333Y-109208333D01*
X194241666Y-109241666D01*
X194175000Y-109241666D01*
X194108333Y-109208333D01*
X194075000Y-109175000D01*
X194041666Y-109108333D01*
X194008333Y-108975000D01*
X194008333Y-108808333D01*
X194041666Y-108675000D01*
X194075000Y-108608333D01*
X194108333Y-108575000D01*
X194175000Y-108541666D01*
X177250000Y-108050000D02*
X177283333Y-108083333D01*
X177316666Y-108183333D01*
X177316666Y-108250000D01*
X177283333Y-108350000D01*
X177216666Y-108416666D01*
X177150000Y-108450000D01*
X177016666Y-108483333D01*
X176916666Y-108483333D01*
X176783333Y-108450000D01*
X176716666Y-108416666D01*
X176650000Y-108350000D01*
X176616666Y-108250000D01*
X176616666Y-108183333D01*
X176650000Y-108083333D01*
X176683333Y-108050000D01*
X177316666Y-107383333D02*
X177316666Y-107783333D01*
X177316666Y-107583333D02*
X176616666Y-107583333D01*
X176716666Y-107650000D01*
X176783333Y-107716666D01*
X176816666Y-107783333D01*
X176616666Y-107150000D02*
X176616666Y-106716666D01*
X176883333Y-106950000D01*
X176883333Y-106850000D01*
X176916666Y-106783333D01*
X176950000Y-106750000D01*
X177016666Y-106716666D01*
X177183333Y-106716666D01*
X177250000Y-106750000D01*
X177283333Y-106783333D01*
X177316666Y-106850000D01*
X177316666Y-107050000D01*
X177283333Y-107116666D01*
X177250000Y-107150000D01*
X118175000Y-114537500D02*
X118141666Y-114570833D01*
X118041666Y-114604166D01*
X117975000Y-114604166D01*
X117875000Y-114570833D01*
X117808333Y-114504166D01*
X117775000Y-114437500D01*
X117741666Y-114304166D01*
X117741666Y-114204166D01*
X117775000Y-114070833D01*
X117808333Y-114004166D01*
X117875000Y-113937500D01*
X117975000Y-113904166D01*
X118041666Y-113904166D01*
X118141666Y-113937500D01*
X118175000Y-113970833D01*
X118441666Y-113970833D02*
X118475000Y-113937500D01*
X118541666Y-113904166D01*
X118708333Y-113904166D01*
X118775000Y-113937500D01*
X118808333Y-113970833D01*
X118841666Y-114037500D01*
X118841666Y-114104166D01*
X118808333Y-114204166D01*
X118408333Y-114604166D01*
X118841666Y-114604166D01*
X119108333Y-113970833D02*
X119141666Y-113937500D01*
X119208333Y-113904166D01*
X119375000Y-113904166D01*
X119441666Y-113937500D01*
X119475000Y-113970833D01*
X119508333Y-114037500D01*
X119508333Y-114104166D01*
X119475000Y-114204166D01*
X119075000Y-114604166D01*
X119508333Y-114604166D01*
X178650000Y-116050000D02*
X178683333Y-116083333D01*
X178716666Y-116183333D01*
X178716666Y-116250000D01*
X178683333Y-116350000D01*
X178616666Y-116416666D01*
X178550000Y-116450000D01*
X178416666Y-116483333D01*
X178316666Y-116483333D01*
X178183333Y-116450000D01*
X178116666Y-116416666D01*
X178050000Y-116350000D01*
X178016666Y-116250000D01*
X178016666Y-116183333D01*
X178050000Y-116083333D01*
X178083333Y-116050000D01*
X178716666Y-115383333D02*
X178716666Y-115783333D01*
X178716666Y-115583333D02*
X178016666Y-115583333D01*
X178116666Y-115650000D01*
X178183333Y-115716666D01*
X178216666Y-115783333D01*
X178316666Y-114983333D02*
X178283333Y-115050000D01*
X178250000Y-115083333D01*
X178183333Y-115116666D01*
X178150000Y-115116666D01*
X178083333Y-115083333D01*
X178050000Y-115050000D01*
X178016666Y-114983333D01*
X178016666Y-114850000D01*
X178050000Y-114783333D01*
X178083333Y-114750000D01*
X178150000Y-114716666D01*
X178183333Y-114716666D01*
X178250000Y-114750000D01*
X178283333Y-114783333D01*
X178316666Y-114850000D01*
X178316666Y-114983333D01*
X178350000Y-115050000D01*
X178383333Y-115083333D01*
X178450000Y-115116666D01*
X178583333Y-115116666D01*
X178650000Y-115083333D01*
X178683333Y-115050000D01*
X178716666Y-114983333D01*
X178716666Y-114850000D01*
X178683333Y-114783333D01*
X178650000Y-114750000D01*
X178583333Y-114716666D01*
X178450000Y-114716666D01*
X178383333Y-114750000D01*
X178350000Y-114783333D01*
X178316666Y-114850000D01*
X193075000Y-116425000D02*
X193041666Y-116458333D01*
X192941666Y-116491666D01*
X192875000Y-116491666D01*
X192775000Y-116458333D01*
X192708333Y-116391666D01*
X192675000Y-116325000D01*
X192641666Y-116191666D01*
X192641666Y-116091666D01*
X192675000Y-115958333D01*
X192708333Y-115891666D01*
X192775000Y-115825000D01*
X192875000Y-115791666D01*
X192941666Y-115791666D01*
X193041666Y-115825000D01*
X193075000Y-115858333D01*
X193741666Y-116491666D02*
X193341666Y-116491666D01*
X193541666Y-116491666D02*
X193541666Y-115791666D01*
X193475000Y-115891666D01*
X193408333Y-115958333D01*
X193341666Y-115991666D01*
X194075000Y-116491666D02*
X194208333Y-116491666D01*
X194275000Y-116458333D01*
X194308333Y-116425000D01*
X194375000Y-116325000D01*
X194408333Y-116191666D01*
X194408333Y-115925000D01*
X194375000Y-115858333D01*
X194341666Y-115825000D01*
X194275000Y-115791666D01*
X194141666Y-115791666D01*
X194075000Y-115825000D01*
X194041666Y-115858333D01*
X194008333Y-115925000D01*
X194008333Y-116091666D01*
X194041666Y-116158333D01*
X194075000Y-116191666D01*
X194141666Y-116225000D01*
X194275000Y-116225000D01*
X194341666Y-116191666D01*
X194375000Y-116158333D01*
X194408333Y-116091666D01*
X193075000Y-110925000D02*
X193041666Y-110958333D01*
X192941666Y-110991666D01*
X192875000Y-110991666D01*
X192775000Y-110958333D01*
X192708333Y-110891666D01*
X192675000Y-110825000D01*
X192641666Y-110691666D01*
X192641666Y-110591666D01*
X192675000Y-110458333D01*
X192708333Y-110391666D01*
X192775000Y-110325000D01*
X192875000Y-110291666D01*
X192941666Y-110291666D01*
X193041666Y-110325000D01*
X193075000Y-110358333D01*
X193341666Y-110358333D02*
X193375000Y-110325000D01*
X193441666Y-110291666D01*
X193608333Y-110291666D01*
X193675000Y-110325000D01*
X193708333Y-110358333D01*
X193741666Y-110425000D01*
X193741666Y-110491666D01*
X193708333Y-110591666D01*
X193308333Y-110991666D01*
X193741666Y-110991666D01*
X194408333Y-110991666D02*
X194008333Y-110991666D01*
X194208333Y-110991666D02*
X194208333Y-110291666D01*
X194141666Y-110391666D01*
X194075000Y-110458333D01*
X194008333Y-110491666D01*
X188358333Y-112850000D02*
X188325000Y-112883333D01*
X188225000Y-112916666D01*
X188158333Y-112916666D01*
X188058333Y-112883333D01*
X187991666Y-112816666D01*
X187958333Y-112750000D01*
X187925000Y-112616666D01*
X187925000Y-112516666D01*
X187958333Y-112383333D01*
X187991666Y-112316666D01*
X188058333Y-112250000D01*
X188158333Y-112216666D01*
X188225000Y-112216666D01*
X188325000Y-112250000D01*
X188358333Y-112283333D01*
X188758333Y-112516666D02*
X188691666Y-112483333D01*
X188658333Y-112450000D01*
X188625000Y-112383333D01*
X188625000Y-112350000D01*
X188658333Y-112283333D01*
X188691666Y-112250000D01*
X188758333Y-112216666D01*
X188891666Y-112216666D01*
X188958333Y-112250000D01*
X188991666Y-112283333D01*
X189025000Y-112350000D01*
X189025000Y-112383333D01*
X188991666Y-112450000D01*
X188958333Y-112483333D01*
X188891666Y-112516666D01*
X188758333Y-112516666D01*
X188691666Y-112550000D01*
X188658333Y-112583333D01*
X188625000Y-112650000D01*
X188625000Y-112783333D01*
X188658333Y-112850000D01*
X188691666Y-112883333D01*
X188758333Y-112916666D01*
X188891666Y-112916666D01*
X188958333Y-112883333D01*
X188991666Y-112850000D01*
X189025000Y-112783333D01*
X189025000Y-112650000D01*
X188991666Y-112583333D01*
X188958333Y-112550000D01*
X188891666Y-112516666D01*
X171883333Y-109066666D02*
X171650000Y-108733333D01*
X171483333Y-109066666D02*
X171483333Y-108366666D01*
X171750000Y-108366666D01*
X171816666Y-108400000D01*
X171850000Y-108433333D01*
X171883333Y-108500000D01*
X171883333Y-108600000D01*
X171850000Y-108666666D01*
X171816666Y-108700000D01*
X171750000Y-108733333D01*
X171483333Y-108733333D01*
X172116666Y-108366666D02*
X172583333Y-108366666D01*
X172283333Y-109066666D01*
X179102500Y-106632666D02*
X178869166Y-106299333D01*
X178702500Y-106632666D02*
X178702500Y-105932666D01*
X178969166Y-105932666D01*
X179035833Y-105966000D01*
X179069166Y-105999333D01*
X179102500Y-106066000D01*
X179102500Y-106166000D01*
X179069166Y-106232666D01*
X179035833Y-106266000D01*
X178969166Y-106299333D01*
X178702500Y-106299333D01*
X179369166Y-105999333D02*
X179402500Y-105966000D01*
X179469166Y-105932666D01*
X179635833Y-105932666D01*
X179702500Y-105966000D01*
X179735833Y-105999333D01*
X179769166Y-106066000D01*
X179769166Y-106132666D01*
X179735833Y-106232666D01*
X179335833Y-106632666D01*
X179769166Y-106632666D01*
X180202500Y-105932666D02*
X180269166Y-105932666D01*
X180335833Y-105966000D01*
X180369166Y-105999333D01*
X180402500Y-106066000D01*
X180435833Y-106199333D01*
X180435833Y-106366000D01*
X180402500Y-106499333D01*
X180369166Y-106566000D01*
X180335833Y-106599333D01*
X180269166Y-106632666D01*
X180202500Y-106632666D01*
X180135833Y-106599333D01*
X180102500Y-106566000D01*
X180069166Y-106499333D01*
X180035833Y-106366000D01*
X180035833Y-106199333D01*
X180069166Y-106066000D01*
X180102500Y-105999333D01*
X180135833Y-105966000D01*
X180202500Y-105932666D01*
X188816666Y-103200000D02*
X188483333Y-103433333D01*
X188816666Y-103600000D02*
X188116666Y-103600000D01*
X188116666Y-103333333D01*
X188150000Y-103266666D01*
X188183333Y-103233333D01*
X188250000Y-103200000D01*
X188350000Y-103200000D01*
X188416666Y-103233333D01*
X188450000Y-103266666D01*
X188483333Y-103333333D01*
X188483333Y-103600000D01*
X188816666Y-102533333D02*
X188816666Y-102933333D01*
X188816666Y-102733333D02*
X188116666Y-102733333D01*
X188216666Y-102800000D01*
X188283333Y-102866666D01*
X188316666Y-102933333D01*
X188816666Y-102200000D02*
X188816666Y-102066666D01*
X188783333Y-102000000D01*
X188750000Y-101966666D01*
X188650000Y-101900000D01*
X188516666Y-101866666D01*
X188250000Y-101866666D01*
X188183333Y-101900000D01*
X188150000Y-101933333D01*
X188116666Y-102000000D01*
X188116666Y-102133333D01*
X188150000Y-102200000D01*
X188183333Y-102233333D01*
X188250000Y-102266666D01*
X188416666Y-102266666D01*
X188483333Y-102233333D01*
X188516666Y-102200000D01*
X188550000Y-102133333D01*
X188550000Y-102000000D01*
X188516666Y-101933333D01*
X188483333Y-101900000D01*
X188416666Y-101866666D01*
X196566666Y-118616666D02*
X196233333Y-118850000D01*
X196566666Y-119016666D02*
X195866666Y-119016666D01*
X195866666Y-118750000D01*
X195900000Y-118683333D01*
X195933333Y-118650000D01*
X196000000Y-118616666D01*
X196100000Y-118616666D01*
X196166666Y-118650000D01*
X196200000Y-118683333D01*
X196233333Y-118750000D01*
X196233333Y-119016666D01*
X196566666Y-118283333D02*
X196566666Y-118150000D01*
X196533333Y-118083333D01*
X196500000Y-118050000D01*
X196400000Y-117983333D01*
X196266666Y-117950000D01*
X196000000Y-117950000D01*
X195933333Y-117983333D01*
X195900000Y-118016666D01*
X195866666Y-118083333D01*
X195866666Y-118216666D01*
X195900000Y-118283333D01*
X195933333Y-118316666D01*
X196000000Y-118350000D01*
X196166666Y-118350000D01*
X196233333Y-118316666D01*
X196266666Y-118283333D01*
X196300000Y-118216666D01*
X196300000Y-118083333D01*
X196266666Y-118016666D01*
X196233333Y-117983333D01*
X196166666Y-117950000D01*
X190316666Y-118700000D02*
X189983333Y-118933333D01*
X190316666Y-119100000D02*
X189616666Y-119100000D01*
X189616666Y-118833333D01*
X189650000Y-118766666D01*
X189683333Y-118733333D01*
X189750000Y-118700000D01*
X189850000Y-118700000D01*
X189916666Y-118733333D01*
X189950000Y-118766666D01*
X189983333Y-118833333D01*
X189983333Y-119100000D01*
X190316666Y-118033333D02*
X190316666Y-118433333D01*
X190316666Y-118233333D02*
X189616666Y-118233333D01*
X189716666Y-118300000D01*
X189783333Y-118366666D01*
X189816666Y-118433333D01*
X189616666Y-117600000D02*
X189616666Y-117533333D01*
X189650000Y-117466666D01*
X189683333Y-117433333D01*
X189750000Y-117400000D01*
X189883333Y-117366666D01*
X190050000Y-117366666D01*
X190183333Y-117400000D01*
X190250000Y-117433333D01*
X190283333Y-117466666D01*
X190316666Y-117533333D01*
X190316666Y-117600000D01*
X190283333Y-117666666D01*
X190250000Y-117700000D01*
X190183333Y-117733333D01*
X190050000Y-117766666D01*
X189883333Y-117766666D01*
X189750000Y-117733333D01*
X189683333Y-117700000D01*
X189650000Y-117666666D01*
X189616666Y-117600000D01*
X191566666Y-118700000D02*
X191233333Y-118933333D01*
X191566666Y-119100000D02*
X190866666Y-119100000D01*
X190866666Y-118833333D01*
X190900000Y-118766666D01*
X190933333Y-118733333D01*
X191000000Y-118700000D01*
X191100000Y-118700000D01*
X191166666Y-118733333D01*
X191200000Y-118766666D01*
X191233333Y-118833333D01*
X191233333Y-119100000D01*
X191566666Y-118033333D02*
X191566666Y-118433333D01*
X191566666Y-118233333D02*
X190866666Y-118233333D01*
X190966666Y-118300000D01*
X191033333Y-118366666D01*
X191066666Y-118433333D01*
X191566666Y-117366666D02*
X191566666Y-117766666D01*
X191566666Y-117566666D02*
X190866666Y-117566666D01*
X190966666Y-117633333D01*
X191033333Y-117700000D01*
X191066666Y-117766666D01*
X182842666Y-105098000D02*
X182509333Y-105331333D01*
X182842666Y-105498000D02*
X182142666Y-105498000D01*
X182142666Y-105231333D01*
X182176000Y-105164666D01*
X182209333Y-105131333D01*
X182276000Y-105098000D01*
X182376000Y-105098000D01*
X182442666Y-105131333D01*
X182476000Y-105164666D01*
X182509333Y-105231333D01*
X182509333Y-105498000D01*
X182842666Y-104431333D02*
X182842666Y-104831333D01*
X182842666Y-104631333D02*
X182142666Y-104631333D01*
X182242666Y-104698000D01*
X182309333Y-104764666D01*
X182342666Y-104831333D01*
X182442666Y-104031333D02*
X182409333Y-104098000D01*
X182376000Y-104131333D01*
X182309333Y-104164666D01*
X182276000Y-104164666D01*
X182209333Y-104131333D01*
X182176000Y-104098000D01*
X182142666Y-104031333D01*
X182142666Y-103898000D01*
X182176000Y-103831333D01*
X182209333Y-103798000D01*
X182276000Y-103764666D01*
X182309333Y-103764666D01*
X182376000Y-103798000D01*
X182409333Y-103831333D01*
X182442666Y-103898000D01*
X182442666Y-104031333D01*
X182476000Y-104098000D01*
X182509333Y-104131333D01*
X182576000Y-104164666D01*
X182709333Y-104164666D01*
X182776000Y-104131333D01*
X182809333Y-104098000D01*
X182842666Y-104031333D01*
X182842666Y-103898000D01*
X182809333Y-103831333D01*
X182776000Y-103798000D01*
X182709333Y-103764666D01*
X182576000Y-103764666D01*
X182509333Y-103798000D01*
X182476000Y-103831333D01*
X182442666Y-103898000D01*
X126816666Y-119200000D02*
X126483333Y-119433333D01*
X126816666Y-119600000D02*
X126116666Y-119600000D01*
X126116666Y-119333333D01*
X126150000Y-119266666D01*
X126183333Y-119233333D01*
X126250000Y-119200000D01*
X126350000Y-119200000D01*
X126416666Y-119233333D01*
X126450000Y-119266666D01*
X126483333Y-119333333D01*
X126483333Y-119600000D01*
X126816666Y-118533333D02*
X126816666Y-118933333D01*
X126816666Y-118733333D02*
X126116666Y-118733333D01*
X126216666Y-118800000D01*
X126283333Y-118866666D01*
X126316666Y-118933333D01*
X126116666Y-118300000D02*
X126116666Y-117866666D01*
X126383333Y-118100000D01*
X126383333Y-118000000D01*
X126416666Y-117933333D01*
X126450000Y-117900000D01*
X126516666Y-117866666D01*
X126683333Y-117866666D01*
X126750000Y-117900000D01*
X126783333Y-117933333D01*
X126816666Y-118000000D01*
X126816666Y-118200000D01*
X126783333Y-118266666D01*
X126750000Y-118300000D01*
X121816666Y-119200000D02*
X121483333Y-119433333D01*
X121816666Y-119600000D02*
X121116666Y-119600000D01*
X121116666Y-119333333D01*
X121150000Y-119266666D01*
X121183333Y-119233333D01*
X121250000Y-119200000D01*
X121350000Y-119200000D01*
X121416666Y-119233333D01*
X121450000Y-119266666D01*
X121483333Y-119333333D01*
X121483333Y-119600000D01*
X121816666Y-118533333D02*
X121816666Y-118933333D01*
X121816666Y-118733333D02*
X121116666Y-118733333D01*
X121216666Y-118800000D01*
X121283333Y-118866666D01*
X121316666Y-118933333D01*
X121116666Y-117900000D02*
X121116666Y-118233333D01*
X121450000Y-118266666D01*
X121416666Y-118233333D01*
X121383333Y-118166666D01*
X121383333Y-118000000D01*
X121416666Y-117933333D01*
X121450000Y-117900000D01*
X121516666Y-117866666D01*
X121683333Y-117866666D01*
X121750000Y-117900000D01*
X121783333Y-117933333D01*
X121816666Y-118000000D01*
X121816666Y-118166666D01*
X121783333Y-118233333D01*
X121750000Y-118266666D01*
X101450000Y-109241666D02*
X101216666Y-108908333D01*
X101050000Y-109241666D02*
X101050000Y-108541666D01*
X101316666Y-108541666D01*
X101383333Y-108575000D01*
X101416666Y-108608333D01*
X101450000Y-108675000D01*
X101450000Y-108775000D01*
X101416666Y-108841666D01*
X101383333Y-108875000D01*
X101316666Y-108908333D01*
X101050000Y-108908333D01*
X102116666Y-109241666D02*
X101716666Y-109241666D01*
X101916666Y-109241666D02*
X101916666Y-108541666D01*
X101850000Y-108641666D01*
X101783333Y-108708333D01*
X101716666Y-108741666D01*
X102716666Y-108541666D02*
X102583333Y-108541666D01*
X102516666Y-108575000D01*
X102483333Y-108608333D01*
X102416666Y-108708333D01*
X102383333Y-108841666D01*
X102383333Y-109108333D01*
X102416666Y-109175000D01*
X102450000Y-109208333D01*
X102516666Y-109241666D01*
X102650000Y-109241666D01*
X102716666Y-109208333D01*
X102750000Y-109175000D01*
X102783333Y-109108333D01*
X102783333Y-108941666D01*
X102750000Y-108875000D01*
X102716666Y-108841666D01*
X102650000Y-108808333D01*
X102516666Y-108808333D01*
X102450000Y-108841666D01*
X102416666Y-108875000D01*
X102383333Y-108941666D01*
X101300000Y-107816666D02*
X101066666Y-107483333D01*
X100900000Y-107816666D02*
X100900000Y-107116666D01*
X101166666Y-107116666D01*
X101233333Y-107150000D01*
X101266666Y-107183333D01*
X101300000Y-107250000D01*
X101300000Y-107350000D01*
X101266666Y-107416666D01*
X101233333Y-107450000D01*
X101166666Y-107483333D01*
X100900000Y-107483333D01*
X101966666Y-107816666D02*
X101566666Y-107816666D01*
X101766666Y-107816666D02*
X101766666Y-107116666D01*
X101700000Y-107216666D01*
X101633333Y-107283333D01*
X101566666Y-107316666D01*
X102200000Y-107116666D02*
X102666666Y-107116666D01*
X102366666Y-107816666D01*
X171883333Y-107316666D02*
X171650000Y-106983333D01*
X171483333Y-107316666D02*
X171483333Y-106616666D01*
X171750000Y-106616666D01*
X171816666Y-106650000D01*
X171850000Y-106683333D01*
X171883333Y-106750000D01*
X171883333Y-106850000D01*
X171850000Y-106916666D01*
X171816666Y-106950000D01*
X171750000Y-106983333D01*
X171483333Y-106983333D01*
X172283333Y-106916666D02*
X172216666Y-106883333D01*
X172183333Y-106850000D01*
X172150000Y-106783333D01*
X172150000Y-106750000D01*
X172183333Y-106683333D01*
X172216666Y-106650000D01*
X172283333Y-106616666D01*
X172416666Y-106616666D01*
X172483333Y-106650000D01*
X172516666Y-106683333D01*
X172550000Y-106750000D01*
X172550000Y-106783333D01*
X172516666Y-106850000D01*
X172483333Y-106883333D01*
X172416666Y-106916666D01*
X172283333Y-106916666D01*
X172216666Y-106950000D01*
X172183333Y-106983333D01*
X172150000Y-107050000D01*
X172150000Y-107183333D01*
X172183333Y-107250000D01*
X172216666Y-107283333D01*
X172283333Y-107316666D01*
X172416666Y-107316666D01*
X172483333Y-107283333D01*
X172516666Y-107250000D01*
X172550000Y-107183333D01*
X172550000Y-107050000D01*
X172516666Y-106983333D01*
X172483333Y-106950000D01*
X172416666Y-106916666D01*
X110750000Y-115090000D02*
X110783333Y-115123333D01*
X110816666Y-115223333D01*
X110816666Y-115290000D01*
X110783333Y-115390000D01*
X110716666Y-115456666D01*
X110650000Y-115490000D01*
X110516666Y-115523333D01*
X110416666Y-115523333D01*
X110283333Y-115490000D01*
X110216666Y-115456666D01*
X110150000Y-115390000D01*
X110116666Y-115290000D01*
X110116666Y-115223333D01*
X110150000Y-115123333D01*
X110183333Y-115090000D01*
X110116666Y-114856666D02*
X110116666Y-114423333D01*
X110383333Y-114656666D01*
X110383333Y-114556666D01*
X110416666Y-114490000D01*
X110450000Y-114456666D01*
X110516666Y-114423333D01*
X110683333Y-114423333D01*
X110750000Y-114456666D01*
X110783333Y-114490000D01*
X110816666Y-114556666D01*
X110816666Y-114756666D01*
X110783333Y-114823333D01*
X110750000Y-114856666D01*
X110116666Y-114190000D02*
X110116666Y-113723333D01*
X110816666Y-114023333D01*
X192750000Y-118616666D02*
X192783333Y-118650000D01*
X192816666Y-118750000D01*
X192816666Y-118816666D01*
X192783333Y-118916666D01*
X192716666Y-118983333D01*
X192650000Y-119016666D01*
X192516666Y-119050000D01*
X192416666Y-119050000D01*
X192283333Y-119016666D01*
X192216666Y-118983333D01*
X192150000Y-118916666D01*
X192116666Y-118816666D01*
X192116666Y-118750000D01*
X192150000Y-118650000D01*
X192183333Y-118616666D01*
X192816666Y-118283333D02*
X192816666Y-118150000D01*
X192783333Y-118083333D01*
X192750000Y-118050000D01*
X192650000Y-117983333D01*
X192516666Y-117950000D01*
X192250000Y-117950000D01*
X192183333Y-117983333D01*
X192150000Y-118016666D01*
X192116666Y-118083333D01*
X192116666Y-118216666D01*
X192150000Y-118283333D01*
X192183333Y-118316666D01*
X192250000Y-118350000D01*
X192416666Y-118350000D01*
X192483333Y-118316666D01*
X192516666Y-118283333D01*
X192550000Y-118216666D01*
X192550000Y-118083333D01*
X192516666Y-118016666D01*
X192483333Y-117983333D01*
X192416666Y-117950000D01*
X124250000Y-119200000D02*
X124283333Y-119233333D01*
X124316666Y-119333333D01*
X124316666Y-119400000D01*
X124283333Y-119500000D01*
X124216666Y-119566666D01*
X124150000Y-119600000D01*
X124016666Y-119633333D01*
X123916666Y-119633333D01*
X123783333Y-119600000D01*
X123716666Y-119566666D01*
X123650000Y-119500000D01*
X123616666Y-119400000D01*
X123616666Y-119333333D01*
X123650000Y-119233333D01*
X123683333Y-119200000D01*
X123616666Y-118966666D02*
X123616666Y-118533333D01*
X123883333Y-118766666D01*
X123883333Y-118666666D01*
X123916666Y-118600000D01*
X123950000Y-118566666D01*
X124016666Y-118533333D01*
X124183333Y-118533333D01*
X124250000Y-118566666D01*
X124283333Y-118600000D01*
X124316666Y-118666666D01*
X124316666Y-118866666D01*
X124283333Y-118933333D01*
X124250000Y-118966666D01*
X123683333Y-118266666D02*
X123650000Y-118233333D01*
X123616666Y-118166666D01*
X123616666Y-118000000D01*
X123650000Y-117933333D01*
X123683333Y-117900000D01*
X123750000Y-117866666D01*
X123816666Y-117866666D01*
X123916666Y-117900000D01*
X124316666Y-118300000D01*
X124316666Y-117866666D01*
X125500000Y-119200000D02*
X125533333Y-119233333D01*
X125566666Y-119333333D01*
X125566666Y-119400000D01*
X125533333Y-119500000D01*
X125466666Y-119566666D01*
X125400000Y-119600000D01*
X125266666Y-119633333D01*
X125166666Y-119633333D01*
X125033333Y-119600000D01*
X124966666Y-119566666D01*
X124900000Y-119500000D01*
X124866666Y-119400000D01*
X124866666Y-119333333D01*
X124900000Y-119233333D01*
X124933333Y-119200000D01*
X124866666Y-118966666D02*
X124866666Y-118533333D01*
X125133333Y-118766666D01*
X125133333Y-118666666D01*
X125166666Y-118600000D01*
X125200000Y-118566666D01*
X125266666Y-118533333D01*
X125433333Y-118533333D01*
X125500000Y-118566666D01*
X125533333Y-118600000D01*
X125566666Y-118666666D01*
X125566666Y-118866666D01*
X125533333Y-118933333D01*
X125500000Y-118966666D01*
X125566666Y-117866666D02*
X125566666Y-118266666D01*
X125566666Y-118066666D02*
X124866666Y-118066666D01*
X124966666Y-118133333D01*
X125033333Y-118200000D01*
X125066666Y-118266666D01*
X181181475Y-113950000D02*
X181214808Y-113983333D01*
X181248141Y-114083333D01*
X181248141Y-114150000D01*
X181214808Y-114250000D01*
X181148141Y-114316666D01*
X181081475Y-114350000D01*
X180948141Y-114383333D01*
X180848141Y-114383333D01*
X180714808Y-114350000D01*
X180648141Y-114316666D01*
X180581475Y-114250000D01*
X180548141Y-114150000D01*
X180548141Y-114083333D01*
X180581475Y-113983333D01*
X180614808Y-113950000D01*
X180614808Y-113683333D02*
X180581475Y-113650000D01*
X180548141Y-113583333D01*
X180548141Y-113416666D01*
X180581475Y-113350000D01*
X180614808Y-113316666D01*
X180681475Y-113283333D01*
X180748141Y-113283333D01*
X180848141Y-113316666D01*
X181248141Y-113716666D01*
X181248141Y-113283333D01*
X180548141Y-112850000D02*
X180548141Y-112783333D01*
X180581475Y-112716666D01*
X180614808Y-112683333D01*
X180681475Y-112650000D01*
X180814808Y-112616666D01*
X180981475Y-112616666D01*
X181114808Y-112650000D01*
X181181475Y-112683333D01*
X181214808Y-112716666D01*
X181248141Y-112783333D01*
X181248141Y-112850000D01*
X181214808Y-112916666D01*
X181181475Y-112950000D01*
X181114808Y-112983333D01*
X180981475Y-113016666D01*
X180814808Y-113016666D01*
X180681475Y-112983333D01*
X180614808Y-112950000D01*
X180581475Y-112916666D01*
X180548141Y-112850000D01*
X110750000Y-111450000D02*
X110783333Y-111483333D01*
X110816666Y-111583333D01*
X110816666Y-111650000D01*
X110783333Y-111750000D01*
X110716666Y-111816666D01*
X110650000Y-111850000D01*
X110516666Y-111883333D01*
X110416666Y-111883333D01*
X110283333Y-111850000D01*
X110216666Y-111816666D01*
X110150000Y-111750000D01*
X110116666Y-111650000D01*
X110116666Y-111583333D01*
X110150000Y-111483333D01*
X110183333Y-111450000D01*
X110116666Y-111216666D02*
X110116666Y-110783333D01*
X110383333Y-111016666D01*
X110383333Y-110916666D01*
X110416666Y-110850000D01*
X110450000Y-110816666D01*
X110516666Y-110783333D01*
X110683333Y-110783333D01*
X110750000Y-110816666D01*
X110783333Y-110850000D01*
X110816666Y-110916666D01*
X110816666Y-111116666D01*
X110783333Y-111183333D01*
X110750000Y-111216666D01*
X110116666Y-110350000D02*
X110116666Y-110283333D01*
X110150000Y-110216666D01*
X110183333Y-110183333D01*
X110250000Y-110150000D01*
X110383333Y-110116666D01*
X110550000Y-110116666D01*
X110683333Y-110150000D01*
X110750000Y-110183333D01*
X110783333Y-110216666D01*
X110816666Y-110283333D01*
X110816666Y-110350000D01*
X110783333Y-110416666D01*
X110750000Y-110450000D01*
X110683333Y-110483333D01*
X110550000Y-110516666D01*
X110383333Y-110516666D01*
X110250000Y-110483333D01*
X110183333Y-110450000D01*
X110150000Y-110416666D01*
X110116666Y-110350000D01*
X108750000Y-120700000D02*
X108783333Y-120733333D01*
X108816666Y-120833333D01*
X108816666Y-120900000D01*
X108783333Y-121000000D01*
X108716666Y-121066666D01*
X108650000Y-121100000D01*
X108516666Y-121133333D01*
X108416666Y-121133333D01*
X108283333Y-121100000D01*
X108216666Y-121066666D01*
X108150000Y-121000000D01*
X108116666Y-120900000D01*
X108116666Y-120833333D01*
X108150000Y-120733333D01*
X108183333Y-120700000D01*
X108183333Y-120433333D02*
X108150000Y-120400000D01*
X108116666Y-120333333D01*
X108116666Y-120166666D01*
X108150000Y-120100000D01*
X108183333Y-120066666D01*
X108250000Y-120033333D01*
X108316666Y-120033333D01*
X108416666Y-120066666D01*
X108816666Y-120466666D01*
X108816666Y-120033333D01*
X108816666Y-119700000D02*
X108816666Y-119566666D01*
X108783333Y-119500000D01*
X108750000Y-119466666D01*
X108650000Y-119400000D01*
X108516666Y-119366666D01*
X108250000Y-119366666D01*
X108183333Y-119400000D01*
X108150000Y-119433333D01*
X108116666Y-119500000D01*
X108116666Y-119633333D01*
X108150000Y-119700000D01*
X108183333Y-119733333D01*
X108250000Y-119766666D01*
X108416666Y-119766666D01*
X108483333Y-119733333D01*
X108516666Y-119700000D01*
X108550000Y-119633333D01*
X108550000Y-119500000D01*
X108516666Y-119433333D01*
X108483333Y-119400000D01*
X108416666Y-119366666D01*
X194000000Y-118700000D02*
X194033333Y-118733333D01*
X194066666Y-118833333D01*
X194066666Y-118900000D01*
X194033333Y-119000000D01*
X193966666Y-119066666D01*
X193900000Y-119100000D01*
X193766666Y-119133333D01*
X193666666Y-119133333D01*
X193533333Y-119100000D01*
X193466666Y-119066666D01*
X193400000Y-119000000D01*
X193366666Y-118900000D01*
X193366666Y-118833333D01*
X193400000Y-118733333D01*
X193433333Y-118700000D01*
X194066666Y-118033333D02*
X194066666Y-118433333D01*
X194066666Y-118233333D02*
X193366666Y-118233333D01*
X193466666Y-118300000D01*
X193533333Y-118366666D01*
X193566666Y-118433333D01*
X193366666Y-117800000D02*
X193366666Y-117333333D01*
X194066666Y-117633333D01*
X123000000Y-119200000D02*
X123033333Y-119233333D01*
X123066666Y-119333333D01*
X123066666Y-119400000D01*
X123033333Y-119500000D01*
X122966666Y-119566666D01*
X122900000Y-119600000D01*
X122766666Y-119633333D01*
X122666666Y-119633333D01*
X122533333Y-119600000D01*
X122466666Y-119566666D01*
X122400000Y-119500000D01*
X122366666Y-119400000D01*
X122366666Y-119333333D01*
X122400000Y-119233333D01*
X122433333Y-119200000D01*
X122433333Y-118933333D02*
X122400000Y-118900000D01*
X122366666Y-118833333D01*
X122366666Y-118666666D01*
X122400000Y-118600000D01*
X122433333Y-118566666D01*
X122500000Y-118533333D01*
X122566666Y-118533333D01*
X122666666Y-118566666D01*
X123066666Y-118966666D01*
X123066666Y-118533333D01*
X122366666Y-118300000D02*
X122366666Y-117866666D01*
X122633333Y-118100000D01*
X122633333Y-118000000D01*
X122666666Y-117933333D01*
X122700000Y-117900000D01*
X122766666Y-117866666D01*
X122933333Y-117866666D01*
X123000000Y-117900000D01*
X123033333Y-117933333D01*
X123066666Y-118000000D01*
X123066666Y-118200000D01*
X123033333Y-118266666D01*
X123000000Y-118300000D01*
X179250000Y-119700000D02*
X179283333Y-119733333D01*
X179316666Y-119833333D01*
X179316666Y-119900000D01*
X179283333Y-120000000D01*
X179216666Y-120066666D01*
X179150000Y-120100000D01*
X179016666Y-120133333D01*
X178916666Y-120133333D01*
X178783333Y-120100000D01*
X178716666Y-120066666D01*
X178650000Y-120000000D01*
X178616666Y-119900000D01*
X178616666Y-119833333D01*
X178650000Y-119733333D01*
X178683333Y-119700000D01*
X179316666Y-119033333D02*
X179316666Y-119433333D01*
X179316666Y-119233333D02*
X178616666Y-119233333D01*
X178716666Y-119300000D01*
X178783333Y-119366666D01*
X178816666Y-119433333D01*
X178850000Y-118433333D02*
X179316666Y-118433333D01*
X178583333Y-118600000D02*
X179083333Y-118766666D01*
X179083333Y-118333333D01*
X180750000Y-110450000D02*
X180783333Y-110483333D01*
X180816666Y-110583333D01*
X180816666Y-110650000D01*
X180783333Y-110750000D01*
X180716666Y-110816666D01*
X180650000Y-110850000D01*
X180516666Y-110883333D01*
X180416666Y-110883333D01*
X180283333Y-110850000D01*
X180216666Y-110816666D01*
X180150000Y-110750000D01*
X180116666Y-110650000D01*
X180116666Y-110583333D01*
X180150000Y-110483333D01*
X180183333Y-110450000D01*
X180816666Y-109783333D02*
X180816666Y-110183333D01*
X180816666Y-109983333D02*
X180116666Y-109983333D01*
X180216666Y-110050000D01*
X180283333Y-110116666D01*
X180316666Y-110183333D01*
X180116666Y-109150000D02*
X180116666Y-109483333D01*
X180450000Y-109516666D01*
X180416666Y-109483333D01*
X180383333Y-109416666D01*
X180383333Y-109250000D01*
X180416666Y-109183333D01*
X180450000Y-109150000D01*
X180516666Y-109116666D01*
X180683333Y-109116666D01*
X180750000Y-109150000D01*
X180783333Y-109183333D01*
X180816666Y-109250000D01*
X180816666Y-109416666D01*
X180783333Y-109483333D01*
X180750000Y-109516666D01*
X112550000Y-106750000D02*
X112516666Y-106783333D01*
X112416666Y-106816666D01*
X112350000Y-106816666D01*
X112250000Y-106783333D01*
X112183333Y-106716666D01*
X112150000Y-106650000D01*
X112116666Y-106516666D01*
X112116666Y-106416666D01*
X112150000Y-106283333D01*
X112183333Y-106216666D01*
X112250000Y-106150000D01*
X112350000Y-106116666D01*
X112416666Y-106116666D01*
X112516666Y-106150000D01*
X112550000Y-106183333D01*
X112783333Y-106116666D02*
X113216666Y-106116666D01*
X112983333Y-106383333D01*
X113083333Y-106383333D01*
X113150000Y-106416666D01*
X113183333Y-106450000D01*
X113216666Y-106516666D01*
X113216666Y-106683333D01*
X113183333Y-106750000D01*
X113150000Y-106783333D01*
X113083333Y-106816666D01*
X112883333Y-106816666D01*
X112816666Y-106783333D01*
X112783333Y-106750000D01*
X113816666Y-106350000D02*
X113816666Y-106816666D01*
X113650000Y-106083333D02*
X113483333Y-106583333D01*
X113916666Y-106583333D01*
X112816666Y-101316666D02*
X112816666Y-100616666D01*
X113550000Y-101250000D02*
X113516666Y-101283333D01*
X113416666Y-101316666D01*
X113350000Y-101316666D01*
X113250000Y-101283333D01*
X113183333Y-101216666D01*
X113150000Y-101150000D01*
X113116666Y-101016666D01*
X113116666Y-100916666D01*
X113150000Y-100783333D01*
X113183333Y-100716666D01*
X113250000Y-100650000D01*
X113350000Y-100616666D01*
X113416666Y-100616666D01*
X113516666Y-100650000D01*
X113550000Y-100683333D01*
X113816666Y-100683333D02*
X113850000Y-100650000D01*
X113916666Y-100616666D01*
X114083333Y-100616666D01*
X114150000Y-100650000D01*
X114183333Y-100683333D01*
X114216666Y-100750000D01*
X114216666Y-100816666D01*
X114183333Y-100916666D01*
X113783333Y-101316666D01*
X114216666Y-101316666D01*
X195250000Y-118700000D02*
X195283333Y-118733333D01*
X195316666Y-118833333D01*
X195316666Y-118900000D01*
X195283333Y-119000000D01*
X195216666Y-119066666D01*
X195150000Y-119100000D01*
X195016666Y-119133333D01*
X194916666Y-119133333D01*
X194783333Y-119100000D01*
X194716666Y-119066666D01*
X194650000Y-119000000D01*
X194616666Y-118900000D01*
X194616666Y-118833333D01*
X194650000Y-118733333D01*
X194683333Y-118700000D01*
X195316666Y-118033333D02*
X195316666Y-118433333D01*
X195316666Y-118233333D02*
X194616666Y-118233333D01*
X194716666Y-118300000D01*
X194783333Y-118366666D01*
X194816666Y-118433333D01*
X194616666Y-117433333D02*
X194616666Y-117566666D01*
X194650000Y-117633333D01*
X194683333Y-117666666D01*
X194783333Y-117733333D01*
X194916666Y-117766666D01*
X195183333Y-117766666D01*
X195250000Y-117733333D01*
X195283333Y-117700000D01*
X195316666Y-117633333D01*
X195316666Y-117500000D01*
X195283333Y-117433333D01*
X195250000Y-117400000D01*
X195183333Y-117366666D01*
X195016666Y-117366666D01*
X194950000Y-117400000D01*
X194916666Y-117433333D01*
X194883333Y-117500000D01*
X194883333Y-117633333D01*
X194916666Y-117700000D01*
X194950000Y-117733333D01*
X195016666Y-117766666D01*
X120566666Y-119200000D02*
X120233333Y-119433333D01*
X120566666Y-119600000D02*
X119866666Y-119600000D01*
X119866666Y-119333333D01*
X119900000Y-119266666D01*
X119933333Y-119233333D01*
X120000000Y-119200000D01*
X120100000Y-119200000D01*
X120166666Y-119233333D01*
X120200000Y-119266666D01*
X120233333Y-119333333D01*
X120233333Y-119600000D01*
X120566666Y-118533333D02*
X120566666Y-118933333D01*
X120566666Y-118733333D02*
X119866666Y-118733333D01*
X119966666Y-118800000D01*
X120033333Y-118866666D01*
X120066666Y-118933333D01*
X120100000Y-117933333D02*
X120566666Y-117933333D01*
X119833333Y-118100000D02*
X120333333Y-118266666D01*
X120333333Y-117833333D01*
X111050000Y-108816666D02*
X110816666Y-108483333D01*
X110650000Y-108816666D02*
X110650000Y-108116666D01*
X110916666Y-108116666D01*
X110983333Y-108150000D01*
X111016666Y-108183333D01*
X111050000Y-108250000D01*
X111050000Y-108350000D01*
X111016666Y-108416666D01*
X110983333Y-108450000D01*
X110916666Y-108483333D01*
X110650000Y-108483333D01*
X111316666Y-108183333D02*
X111350000Y-108150000D01*
X111416666Y-108116666D01*
X111583333Y-108116666D01*
X111650000Y-108150000D01*
X111683333Y-108183333D01*
X111716666Y-108250000D01*
X111716666Y-108316666D01*
X111683333Y-108416666D01*
X111283333Y-108816666D01*
X111716666Y-108816666D01*
X112383333Y-108816666D02*
X111983333Y-108816666D01*
X112183333Y-108816666D02*
X112183333Y-108116666D01*
X112116666Y-108216666D01*
X112050000Y-108283333D01*
X111983333Y-108316666D01*
X114983809Y-116136190D02*
X114983809Y-116612380D01*
X114650476Y-115612380D02*
X114983809Y-116136190D01*
X115317142Y-115612380D01*
X115602857Y-115707619D02*
X115650476Y-115660000D01*
X115745714Y-115612380D01*
X115983809Y-115612380D01*
X116079047Y-115660000D01*
X116126666Y-115707619D01*
X116174285Y-115802857D01*
X116174285Y-115898095D01*
X116126666Y-116040952D01*
X115555238Y-116612380D01*
X116174285Y-116612380D01*
X184996309Y-116112190D02*
X184996309Y-116588380D01*
X184662976Y-115588380D02*
X184996309Y-116112190D01*
X185329642Y-115588380D01*
X186186785Y-116588380D02*
X185615357Y-116588380D01*
X185901071Y-116588380D02*
X185901071Y-115588380D01*
X185805833Y-115731238D01*
X185710595Y-115826476D01*
X185615357Y-115874095D01*
M02*
