G04 #@! TF.GenerationSoftware,KiCad,Pcbnew,5.0.2+dfsg1-1~bpo9+1*
G04 #@! TF.CreationDate,2019-09-26T17:33:24+02:00*
G04 #@! TF.ProjectId,OV9281,4f563932-3831-42e6-9b69-6361645f7063,rev?*
G04 #@! TF.SameCoordinates,Original*
G04 #@! TF.FileFunction,Other,Fab,Bot*
%FSLAX46Y46*%
G04 Gerber Fmt 4.6, Leading zero omitted, Abs format (unit mm)*
G04 Created by KiCad (PCBNEW 5.0.2+dfsg1-1~bpo9+1) date Thu 26 Sep 2019 05:33:24 PM CEST*
%MOMM*%
%LPD*%
G01*
G04 APERTURE LIST*
%ADD10C,0.100000*%
%ADD11C,0.150000*%
G04 APERTURE END LIST*
D10*
G04 #@! TO.C,U2*
X115000000Y-112248000D02*
X115000000Y-112716000D01*
X114752500Y-112500000D02*
X115247500Y-112500000D01*
X113052000Y-111273500D02*
X116948000Y-111273500D01*
X113052000Y-113726500D02*
X116948000Y-113726500D01*
X113052000Y-113726500D02*
X113052000Y-111273500D01*
X116948000Y-113726500D02*
X116948000Y-111273500D01*
G04 #@! TO.C,U1*
X185000000Y-112248000D02*
X185000000Y-112716000D01*
X184752500Y-112500000D02*
X185247500Y-112500000D01*
X183052000Y-111273500D02*
X186948000Y-111273500D01*
X183052000Y-113726500D02*
X186948000Y-113726500D01*
X183052000Y-113726500D02*
X183052000Y-111273500D01*
X186948000Y-113726500D02*
X186948000Y-111273500D01*
G04 #@! TD*
G04 #@! TO.C,REF\002A\002A*
D11*
X186071428Y-104581118D02*
X186119047Y-104628737D01*
X186261904Y-104676356D01*
X186357142Y-104676356D01*
X186500000Y-104628737D01*
X186595238Y-104533499D01*
X186642857Y-104438261D01*
X186690476Y-104247785D01*
X186690476Y-104104928D01*
X186642857Y-103914452D01*
X186595238Y-103819214D01*
X186500000Y-103723976D01*
X186357142Y-103676356D01*
X186261904Y-103676356D01*
X186119047Y-103723976D01*
X186071428Y-103771595D01*
X185214285Y-104676356D02*
X185214285Y-104152547D01*
X185261904Y-104057309D01*
X185357142Y-104009690D01*
X185547619Y-104009690D01*
X185642857Y-104057309D01*
X185214285Y-104628737D02*
X185309523Y-104676356D01*
X185547619Y-104676356D01*
X185642857Y-104628737D01*
X185690476Y-104533499D01*
X185690476Y-104438261D01*
X185642857Y-104343023D01*
X185547619Y-104295404D01*
X185309523Y-104295404D01*
X185214285Y-104247785D01*
X184738095Y-104676356D02*
X184738095Y-104009690D01*
X184738095Y-104104928D02*
X184690476Y-104057309D01*
X184595238Y-104009690D01*
X184452380Y-104009690D01*
X184357142Y-104057309D01*
X184309523Y-104152547D01*
X184309523Y-104676356D01*
X184309523Y-104152547D02*
X184261904Y-104057309D01*
X184166666Y-104009690D01*
X184023809Y-104009690D01*
X183928571Y-104057309D01*
X183880952Y-104152547D01*
X183880952Y-104676356D01*
X183023809Y-104628737D02*
X183119047Y-104676356D01*
X183309523Y-104676356D01*
X183404761Y-104628737D01*
X183452380Y-104533499D01*
X183452380Y-104152547D01*
X183404761Y-104057309D01*
X183309523Y-104009690D01*
X183119047Y-104009690D01*
X183023809Y-104057309D01*
X182976190Y-104152547D01*
X182976190Y-104247785D01*
X183452380Y-104343023D01*
X182547619Y-104676356D02*
X182547619Y-104009690D01*
X182547619Y-104200166D02*
X182500000Y-104104928D01*
X182452380Y-104057309D01*
X182357142Y-104009690D01*
X182261904Y-104009690D01*
X181500000Y-104676356D02*
X181500000Y-104152547D01*
X181547619Y-104057309D01*
X181642857Y-104009690D01*
X181833333Y-104009690D01*
X181928571Y-104057309D01*
X181500000Y-104628737D02*
X181595238Y-104676356D01*
X181833333Y-104676356D01*
X181928571Y-104628737D01*
X181976190Y-104533499D01*
X181976190Y-104438261D01*
X181928571Y-104343023D01*
X181833333Y-104295404D01*
X181595238Y-104295404D01*
X181500000Y-104247785D01*
X181261904Y-104771595D02*
X180500000Y-104771595D01*
X179785714Y-104676356D02*
X180261904Y-104676356D01*
X180261904Y-103676356D01*
X179071428Y-104628737D02*
X179166666Y-104676356D01*
X179357142Y-104676356D01*
X179452380Y-104628737D01*
X179500000Y-104533499D01*
X179500000Y-104152547D01*
X179452380Y-104057309D01*
X179357142Y-104009690D01*
X179166666Y-104009690D01*
X179071428Y-104057309D01*
X179023809Y-104152547D01*
X179023809Y-104247785D01*
X179500000Y-104343023D01*
X178595238Y-104009690D02*
X178595238Y-104676356D01*
X178595238Y-104104928D02*
X178547619Y-104057309D01*
X178452380Y-104009690D01*
X178309523Y-104009690D01*
X178214285Y-104057309D01*
X178166666Y-104152547D01*
X178166666Y-104676356D01*
X177738095Y-104628737D02*
X177642857Y-104676356D01*
X177452380Y-104676356D01*
X177357142Y-104628737D01*
X177309523Y-104533499D01*
X177309523Y-104485880D01*
X177357142Y-104390642D01*
X177452380Y-104343023D01*
X177595238Y-104343023D01*
X177690476Y-104295404D01*
X177738095Y-104200166D01*
X177738095Y-104152547D01*
X177690476Y-104057309D01*
X177595238Y-104009690D01*
X177452380Y-104009690D01*
X177357142Y-104057309D01*
X116071428Y-104581118D02*
X116119047Y-104628737D01*
X116261904Y-104676356D01*
X116357142Y-104676356D01*
X116500000Y-104628737D01*
X116595238Y-104533499D01*
X116642857Y-104438261D01*
X116690476Y-104247785D01*
X116690476Y-104104928D01*
X116642857Y-103914452D01*
X116595238Y-103819214D01*
X116500000Y-103723976D01*
X116357142Y-103676356D01*
X116261904Y-103676356D01*
X116119047Y-103723976D01*
X116071428Y-103771595D01*
X115214285Y-104676356D02*
X115214285Y-104152547D01*
X115261904Y-104057309D01*
X115357142Y-104009690D01*
X115547619Y-104009690D01*
X115642857Y-104057309D01*
X115214285Y-104628737D02*
X115309523Y-104676356D01*
X115547619Y-104676356D01*
X115642857Y-104628737D01*
X115690476Y-104533499D01*
X115690476Y-104438261D01*
X115642857Y-104343023D01*
X115547619Y-104295404D01*
X115309523Y-104295404D01*
X115214285Y-104247785D01*
X114738095Y-104676356D02*
X114738095Y-104009690D01*
X114738095Y-104104928D02*
X114690476Y-104057309D01*
X114595238Y-104009690D01*
X114452380Y-104009690D01*
X114357142Y-104057309D01*
X114309523Y-104152547D01*
X114309523Y-104676356D01*
X114309523Y-104152547D02*
X114261904Y-104057309D01*
X114166666Y-104009690D01*
X114023809Y-104009690D01*
X113928571Y-104057309D01*
X113880952Y-104152547D01*
X113880952Y-104676356D01*
X113023809Y-104628737D02*
X113119047Y-104676356D01*
X113309523Y-104676356D01*
X113404761Y-104628737D01*
X113452380Y-104533499D01*
X113452380Y-104152547D01*
X113404761Y-104057309D01*
X113309523Y-104009690D01*
X113119047Y-104009690D01*
X113023809Y-104057309D01*
X112976190Y-104152547D01*
X112976190Y-104247785D01*
X113452380Y-104343023D01*
X112547619Y-104676356D02*
X112547619Y-104009690D01*
X112547619Y-104200166D02*
X112500000Y-104104928D01*
X112452380Y-104057309D01*
X112357142Y-104009690D01*
X112261904Y-104009690D01*
X111500000Y-104676356D02*
X111500000Y-104152547D01*
X111547619Y-104057309D01*
X111642857Y-104009690D01*
X111833333Y-104009690D01*
X111928571Y-104057309D01*
X111500000Y-104628737D02*
X111595238Y-104676356D01*
X111833333Y-104676356D01*
X111928571Y-104628737D01*
X111976190Y-104533499D01*
X111976190Y-104438261D01*
X111928571Y-104343023D01*
X111833333Y-104295404D01*
X111595238Y-104295404D01*
X111500000Y-104247785D01*
X111261904Y-104771595D02*
X110500000Y-104771595D01*
X109785714Y-104676356D02*
X110261904Y-104676356D01*
X110261904Y-103676356D01*
X109071428Y-104628737D02*
X109166666Y-104676356D01*
X109357142Y-104676356D01*
X109452380Y-104628737D01*
X109500000Y-104533499D01*
X109500000Y-104152547D01*
X109452380Y-104057309D01*
X109357142Y-104009690D01*
X109166666Y-104009690D01*
X109071428Y-104057309D01*
X109023809Y-104152547D01*
X109023809Y-104247785D01*
X109500000Y-104343023D01*
X108595238Y-104009690D02*
X108595238Y-104676356D01*
X108595238Y-104104928D02*
X108547619Y-104057309D01*
X108452380Y-104009690D01*
X108309523Y-104009690D01*
X108214285Y-104057309D01*
X108166666Y-104152547D01*
X108166666Y-104676356D01*
X107738095Y-104628737D02*
X107642857Y-104676356D01*
X107452380Y-104676356D01*
X107357142Y-104628737D01*
X107309523Y-104533499D01*
X107309523Y-104485880D01*
X107357142Y-104390642D01*
X107452380Y-104343023D01*
X107595238Y-104343023D01*
X107690476Y-104295404D01*
X107738095Y-104200166D01*
X107738095Y-104152547D01*
X107690476Y-104057309D01*
X107595238Y-104009690D01*
X107452380Y-104009690D01*
X107357142Y-104057309D01*
G04 #@! TO.C,U2*
X119348571Y-106832380D02*
X119158095Y-106832380D01*
X119062857Y-106880000D01*
X118967619Y-106975238D01*
X118920000Y-107165714D01*
X118920000Y-107499047D01*
X118967619Y-107689523D01*
X119062857Y-107784761D01*
X119158095Y-107832380D01*
X119348571Y-107832380D01*
X119443809Y-107784761D01*
X119539047Y-107689523D01*
X119586666Y-107499047D01*
X119586666Y-107165714D01*
X119539047Y-106975238D01*
X119443809Y-106880000D01*
X119348571Y-106832380D01*
X118634285Y-106832380D02*
X118300952Y-107832380D01*
X117967619Y-106832380D01*
X117586666Y-107832380D02*
X117396190Y-107832380D01*
X117300952Y-107784761D01*
X117253333Y-107737142D01*
X117158095Y-107594285D01*
X117110476Y-107403809D01*
X117110476Y-107022857D01*
X117158095Y-106927619D01*
X117205714Y-106880000D01*
X117300952Y-106832380D01*
X117491428Y-106832380D01*
X117586666Y-106880000D01*
X117634285Y-106927619D01*
X117681904Y-107022857D01*
X117681904Y-107260952D01*
X117634285Y-107356190D01*
X117586666Y-107403809D01*
X117491428Y-107451428D01*
X117300952Y-107451428D01*
X117205714Y-107403809D01*
X117158095Y-107356190D01*
X117110476Y-107260952D01*
X116729523Y-106927619D02*
X116681904Y-106880000D01*
X116586666Y-106832380D01*
X116348571Y-106832380D01*
X116253333Y-106880000D01*
X116205714Y-106927619D01*
X116158095Y-107022857D01*
X116158095Y-107118095D01*
X116205714Y-107260952D01*
X116777142Y-107832380D01*
X116158095Y-107832380D01*
X115586666Y-107260952D02*
X115681904Y-107213333D01*
X115729523Y-107165714D01*
X115777142Y-107070476D01*
X115777142Y-107022857D01*
X115729523Y-106927619D01*
X115681904Y-106880000D01*
X115586666Y-106832380D01*
X115396190Y-106832380D01*
X115300952Y-106880000D01*
X115253333Y-106927619D01*
X115205714Y-107022857D01*
X115205714Y-107070476D01*
X115253333Y-107165714D01*
X115300952Y-107213333D01*
X115396190Y-107260952D01*
X115586666Y-107260952D01*
X115681904Y-107308571D01*
X115729523Y-107356190D01*
X115777142Y-107451428D01*
X115777142Y-107641904D01*
X115729523Y-107737142D01*
X115681904Y-107784761D01*
X115586666Y-107832380D01*
X115396190Y-107832380D01*
X115300952Y-107784761D01*
X115253333Y-107737142D01*
X115205714Y-107641904D01*
X115205714Y-107451428D01*
X115253333Y-107356190D01*
X115300952Y-107308571D01*
X115396190Y-107260952D01*
X114253333Y-107832380D02*
X114824761Y-107832380D01*
X114539047Y-107832380D02*
X114539047Y-106832380D01*
X114634285Y-106975238D01*
X114729523Y-107070476D01*
X114824761Y-107118095D01*
G04 #@! TO.C,U1*
X189348571Y-106832380D02*
X189158095Y-106832380D01*
X189062857Y-106880000D01*
X188967619Y-106975238D01*
X188920000Y-107165714D01*
X188920000Y-107499047D01*
X188967619Y-107689523D01*
X189062857Y-107784761D01*
X189158095Y-107832380D01*
X189348571Y-107832380D01*
X189443809Y-107784761D01*
X189539047Y-107689523D01*
X189586666Y-107499047D01*
X189586666Y-107165714D01*
X189539047Y-106975238D01*
X189443809Y-106880000D01*
X189348571Y-106832380D01*
X188634285Y-106832380D02*
X188300952Y-107832380D01*
X187967619Y-106832380D01*
X187586666Y-107832380D02*
X187396190Y-107832380D01*
X187300952Y-107784761D01*
X187253333Y-107737142D01*
X187158095Y-107594285D01*
X187110476Y-107403809D01*
X187110476Y-107022857D01*
X187158095Y-106927619D01*
X187205714Y-106880000D01*
X187300952Y-106832380D01*
X187491428Y-106832380D01*
X187586666Y-106880000D01*
X187634285Y-106927619D01*
X187681904Y-107022857D01*
X187681904Y-107260952D01*
X187634285Y-107356190D01*
X187586666Y-107403809D01*
X187491428Y-107451428D01*
X187300952Y-107451428D01*
X187205714Y-107403809D01*
X187158095Y-107356190D01*
X187110476Y-107260952D01*
X186729523Y-106927619D02*
X186681904Y-106880000D01*
X186586666Y-106832380D01*
X186348571Y-106832380D01*
X186253333Y-106880000D01*
X186205714Y-106927619D01*
X186158095Y-107022857D01*
X186158095Y-107118095D01*
X186205714Y-107260952D01*
X186777142Y-107832380D01*
X186158095Y-107832380D01*
X185586666Y-107260952D02*
X185681904Y-107213333D01*
X185729523Y-107165714D01*
X185777142Y-107070476D01*
X185777142Y-107022857D01*
X185729523Y-106927619D01*
X185681904Y-106880000D01*
X185586666Y-106832380D01*
X185396190Y-106832380D01*
X185300952Y-106880000D01*
X185253333Y-106927619D01*
X185205714Y-107022857D01*
X185205714Y-107070476D01*
X185253333Y-107165714D01*
X185300952Y-107213333D01*
X185396190Y-107260952D01*
X185586666Y-107260952D01*
X185681904Y-107308571D01*
X185729523Y-107356190D01*
X185777142Y-107451428D01*
X185777142Y-107641904D01*
X185729523Y-107737142D01*
X185681904Y-107784761D01*
X185586666Y-107832380D01*
X185396190Y-107832380D01*
X185300952Y-107784761D01*
X185253333Y-107737142D01*
X185205714Y-107641904D01*
X185205714Y-107451428D01*
X185253333Y-107356190D01*
X185300952Y-107308571D01*
X185396190Y-107260952D01*
X184253333Y-107832380D02*
X184824761Y-107832380D01*
X184539047Y-107832380D02*
X184539047Y-106832380D01*
X184634285Y-106975238D01*
X184729523Y-107070476D01*
X184824761Y-107118095D01*
G04 #@! TD*
M02*
